<svg width="64" height="24" viewBox="0 0 64 24" fill="none" xmlns="http://www.w3.org/2000/svg">
<g id="ClavicleRight" filter="url(#filter0_d_8_28)">
<mask id="path-1-outside-1_8_28" maskUnits="userSpaceOnUse" x="4.19687" y="-0.216919" width="56" height="16" fill="black">
<rect fill="white" x="4.19687" y="-0.216919" width="56" height="16"/>
<path d="M55.9701 7.99703C52.3238 5.26834 47.2907 4.49156 42.9023 3.89965C39.6546 3.46245 36.4731 3.18235 33.2209 2.80705C31.7326 2.63408 30.2825 2.20085 28.7875 2.08025C26.7689 1.91759 24.7313 2.07232 22.7096 1.99218C21.5819 1.94775 20.4388 1.67559 19.3209 1.674C18.1863 1.67242 17.0814 1.98346 15.9292 1.9057C14.2002 1.78986 12.8781 1.99297 11.2116 1.36297C9.77443 0.818664 8.51786 0.383856 7.13557 1.37726C6.10532 2.11676 5.00269 3.51323 5.22596 4.90256C5.40351 6.00784 6.36898 6.70688 6.75152 7.71457C7.47467 7.86453 8.41423 7.6368 9.17091 7.59871C10.4168 7.53286 11.6749 7.68124 12.9162 7.50906C14.0493 7.35354 14.8426 6.93697 16.0069 7.03457C16.881 7.10836 17.7375 7.17342 18.6199 7.16946C20.2765 7.16152 21.8935 7.4305 23.5212 7.77169C28.7136 8.86269 34.0515 8.95156 39.3117 8.71828C43.6346 8.52706 47.7792 8.91584 51.2799 11.831C53.5156 13.694 54.4773 16.7782 57.6686 14.5708C60.8584 12.3634 58.263 9.71247 55.9701 7.99703Z"/>
<path d="M7.27197 5.32468C8.41347 5.33262 9.51229 5.45164 10.6545 5.46671C11.4829 5.47703 11.5027 5.72141 12.03 5.93167C13.7049 6.595 16.7194 6.79734 18.4035 5.99912C18.2099 5.96183 17.995 5.87059 17.771 5.86107C18.61 5.6024 20.182 5.36912 21.1345 5.75553C20.336 6.24191 22.0787 6.74417 22.5252 6.8497C24.335 7.27896 26.4077 7.48763 28.2678 7.60189C29.4702 7.67568 30.7169 7.60824 31.9193 7.59396C32.9724 7.58206 34.024 7.39321 35.0748 7.44637C35.737 7.4797 36.2994 7.75265 36.9357 7.44241C36.781 7.52255 36.6629 7.65268 36.5768 7.71219C41.6602 8.20809 48.5671 5.80314 52.2194 10.6908C51.9154 10.5916 51.5961 10.5353 51.3347 10.2766C52.3025 11.4708 53.0485 12.3166 54.3576 13.1418C52.528 11.9516 50.7983 10.2536 48.8307 9.32528C47.1436 8.52945 45.3498 8.43184 43.5134 8.30013C39.099 7.98592 34.6085 8.71511 30.2597 8.15493C26.9121 7.72329 23.3878 6.67911 20.0411 6.45536C17.2757 6.27207 14.2535 6.38474 11.524 6.71164C10.0632 6.8862 7.61259 7.66934 6.48176 6.31016C5.81423 5.50559 5.7548 4.27178 6.31716 3.46008C6.42842 4.3051 7.49219 4.82164 7.54325 5.3239"/>
</mask>
<path d="M55.9701 7.99703C52.3238 5.26834 47.2907 4.49156 42.9023 3.89965C39.6546 3.46245 36.4731 3.18235 33.2209 2.80705C31.7326 2.63408 30.2825 2.20085 28.7875 2.08025C26.7689 1.91759 24.7313 2.07232 22.7096 1.99218C21.5819 1.94775 20.4388 1.67559 19.3209 1.674C18.1863 1.67242 17.0814 1.98346 15.9292 1.9057C14.2002 1.78986 12.8781 1.99297 11.2116 1.36297C9.77443 0.818664 8.51786 0.383856 7.13557 1.37726C6.10532 2.11676 5.00269 3.51323 5.22596 4.90256C5.40351 6.00784 6.36898 6.70688 6.75152 7.71457C7.47467 7.86453 8.41423 7.6368 9.17091 7.59871C10.4168 7.53286 11.6749 7.68124 12.9162 7.50906C14.0493 7.35354 14.8426 6.93697 16.0069 7.03457C16.881 7.10836 17.7375 7.17342 18.6199 7.16946C20.2765 7.16152 21.8935 7.4305 23.5212 7.77169C28.7136 8.86269 34.0515 8.95156 39.3117 8.71828C43.6346 8.52706 47.7792 8.91584 51.2799 11.831C53.5156 13.694 54.4773 16.7782 57.6686 14.5708C60.8584 12.3634 58.263 9.71247 55.9701 7.99703Z" fill="#F3D48C"/>
<path d="M7.27197 5.32468C8.41347 5.33262 9.51229 5.45164 10.6545 5.46671C11.4829 5.47703 11.5027 5.72141 12.03 5.93167C13.7049 6.595 16.7194 6.79734 18.4035 5.99912C18.2099 5.96183 17.995 5.87059 17.771 5.86107C18.61 5.6024 20.182 5.36912 21.1345 5.75553C20.336 6.24191 22.0787 6.74417 22.5252 6.8497C24.335 7.27896 26.4077 7.48763 28.2678 7.60189C29.4702 7.67568 30.7169 7.60824 31.9193 7.59396C32.9724 7.58206 34.024 7.39321 35.0748 7.44637C35.737 7.4797 36.2994 7.75265 36.9357 7.44241C36.781 7.52255 36.6629 7.65268 36.5768 7.71219C41.6602 8.20809 48.5671 5.80314 52.2194 10.6908C51.9154 10.5916 51.5961 10.5353 51.3347 10.2766C52.3025 11.4708 53.0485 12.3166 54.3576 13.1418C52.528 11.9516 50.7983 10.2536 48.8307 9.32528C47.1436 8.52945 45.3498 8.43184 43.5134 8.30013C39.099 7.98592 34.6085 8.71511 30.2597 8.15493C26.9121 7.72329 23.3878 6.67911 20.0411 6.45536C17.2757 6.27207 14.2535 6.38474 11.524 6.71164C10.0632 6.8862 7.61259 7.66934 6.48176 6.31016C5.81423 5.50559 5.7548 4.27178 6.31716 3.46008C6.42842 4.3051 7.49219 4.82164 7.54325 5.3239" fill="#DCC06D"/>
<path d="M55.9701 7.99703L55.7783 8.25323L55.7784 8.25325L55.9701 7.99703ZM42.9023 3.89965L42.945 3.58252L42.945 3.58251L42.9023 3.89965ZM33.2209 2.80705L33.1839 3.12491L33.1842 3.12494L33.2209 2.80705ZM28.7875 2.08025L28.8132 1.76128L28.8132 1.76128L28.7875 2.08025ZM22.7096 1.99218L22.7223 1.67243L22.7222 1.67243L22.7096 1.99218ZM19.3209 1.674L19.3214 1.35401L19.3214 1.35401L19.3209 1.674ZM15.9292 1.9057L15.9508 1.58643L15.9506 1.58641L15.9292 1.9057ZM11.2116 1.36297L11.0982 1.66223L11.0984 1.6623L11.2116 1.36297ZM7.13557 1.37726L7.32217 1.63722L7.32232 1.63711L7.13557 1.37726ZM5.22596 4.90256L5.54191 4.85181L5.54191 4.85179L5.22596 4.90256ZM6.75152 7.71457L6.45235 7.82814L6.51465 7.99225L6.68654 8.0279L6.75152 7.71457ZM9.17091 7.59871L9.187 7.91831L9.18781 7.91827L9.17091 7.59871ZM12.9162 7.50906L12.8727 7.19203L12.8722 7.19209L12.9162 7.50906ZM16.0069 7.03457L16.0339 6.7157L16.0337 6.71569L16.0069 7.03457ZM18.6199 7.16946L18.6213 7.48945L18.6214 7.48945L18.6199 7.16946ZM23.5212 7.77169L23.587 7.45853L23.5868 7.45849L23.5212 7.77169ZM39.3117 8.71828L39.2975 8.3986L39.2975 8.3986L39.3117 8.71828ZM51.2799 11.831L51.4847 11.5852L51.4846 11.5851L51.2799 11.831ZM57.6686 14.5708L57.8506 14.834L57.8507 14.8339L57.6686 14.5708ZM10.6545 5.46671L10.6503 5.78668L10.6506 5.78669L10.6545 5.46671ZM12.03 5.93167L11.9115 6.22892L11.9122 6.22919L12.03 5.93167ZM18.4035 5.99912L18.5405 6.28829L19.4235 5.86977L18.464 5.6849L18.4035 5.99912ZM17.771 5.86107L17.6767 5.55527L17.7574 6.18078L17.771 5.86107ZM21.1345 5.75553L21.301 6.02883L21.8441 5.69805L21.2548 5.459L21.1345 5.75553ZM22.5252 6.8497L22.5991 6.53834L22.5988 6.53828L22.5252 6.8497ZM28.2678 7.60189L28.2481 7.92129L28.2482 7.92129L28.2678 7.60189ZM31.9193 7.59396L31.9157 7.27398L31.9155 7.27398L31.9193 7.59396ZM35.0748 7.44637L35.0587 7.76596L35.0588 7.76597L35.0748 7.44637ZM36.9357 7.44241L37.0829 7.72655L36.7954 7.15478L36.9357 7.44241ZM36.5768 7.71219L36.3948 7.44894L35.6759 7.94582L36.5457 8.03067L36.5768 7.71219ZM52.2194 10.6908L52.1202 10.995L53.0802 11.3082L52.4758 10.4993L52.2194 10.6908ZM51.3347 10.2766L51.5598 10.0492L51.0861 10.4781L51.3347 10.2766ZM54.3576 13.1418L54.187 13.4125L54.5321 12.8735L54.3576 13.1418ZM48.8307 9.32528L48.9673 9.03588L48.9672 9.03586L48.8307 9.32528ZM43.5134 8.30013L43.5363 7.98095L43.5361 7.98094L43.5134 8.30013ZM30.2597 8.15493L30.2187 8.4723L30.2188 8.47231L30.2597 8.15493ZM20.0411 6.45536L20.0624 6.13607L20.0622 6.13606L20.0411 6.45536ZM11.524 6.71164L11.562 7.02938L11.5621 7.02937L11.524 6.71164ZM6.48176 6.31016L6.23548 6.51448L6.23576 6.51482L6.48176 6.31016ZM6.31716 3.46008L6.63443 3.41831L6.52622 2.59643L6.05413 3.27784L6.31716 3.46008ZM55.9701 7.99703L56.1618 7.74082C52.4384 4.95445 47.3198 4.17259 42.945 3.58252L42.9023 3.89965L42.8595 4.21677C47.2616 4.81054 52.2092 5.58224 55.7783 8.25323L55.9701 7.99703ZM42.9023 3.89965L42.945 3.58251C39.6949 3.145 36.4969 2.86297 33.2575 2.48916L33.2209 2.80705L33.1842 3.12494C36.4494 3.50174 39.6142 3.77991 42.8596 4.21679L42.9023 3.89965ZM33.2209 2.80705L33.2578 2.48919C32.5292 2.4045 31.809 2.25604 31.0686 2.11006C30.3335 1.96511 29.581 1.82322 28.8132 1.76128L28.7875 2.08025L28.7617 2.39921C29.489 2.45788 30.2091 2.5929 30.9448 2.73797C31.6753 2.88199 32.4243 3.03663 33.1839 3.12491L33.2209 2.80705ZM28.7875 2.08025L28.8132 1.76128C27.7886 1.67872 26.7622 1.67694 25.7471 1.68528C24.7278 1.69365 23.7233 1.71211 22.7223 1.67243L22.7096 1.99218L22.697 2.31193C23.7176 2.35239 24.7427 2.33355 25.7523 2.32526C26.766 2.31693 27.7678 2.31912 28.7618 2.39921L28.7875 2.08025ZM22.7096 1.99218L22.7222 1.67243C22.1761 1.65091 21.6249 1.57422 21.0529 1.49971C20.4873 1.42603 19.9034 1.35483 19.3214 1.35401L19.3209 1.674L19.3205 1.994C19.8564 1.99477 20.4029 2.06044 20.9702 2.13434C21.5312 2.20742 22.1154 2.28902 22.697 2.31193L22.7096 1.99218ZM19.3209 1.674L19.3214 1.35401C18.7298 1.35318 18.1465 1.43396 17.5933 1.50072C17.0318 1.56849 16.494 1.62309 15.9508 1.58643L15.9292 1.9057L15.9077 2.22497C16.5166 2.26607 17.1073 2.20402 17.67 2.13611C18.241 2.06719 18.7775 1.99325 19.3205 1.994L19.3209 1.674ZM15.9292 1.9057L15.9506 1.58641C15.5099 1.55689 15.0963 1.54777 14.7028 1.54067C14.3071 1.53353 13.9349 1.52845 13.5649 1.50765C12.8306 1.46636 12.118 1.36352 11.3247 1.06365L11.2116 1.36297L11.0984 1.6623C11.9717 1.99243 12.7535 2.10303 13.529 2.14664C13.914 2.16829 14.3007 2.17352 14.6912 2.18057C15.084 2.18765 15.484 2.19659 15.9078 2.22498L15.9292 1.9057ZM11.2116 1.36297L11.3249 1.06372C10.6127 0.793978 9.89743 0.531186 9.17816 0.474465C8.43998 0.416253 7.70442 0.574383 6.94882 1.1174L7.13557 1.37726L7.32232 1.63711C7.94901 1.18673 8.53288 1.06557 9.12785 1.11248C9.74172 1.16089 10.3733 1.38766 11.0982 1.66223L11.2116 1.36297ZM7.13557 1.37726L6.94897 1.1173C6.40391 1.50853 5.83945 2.07285 5.43776 2.72918C5.03677 3.38436 4.78228 4.15848 4.91002 4.95334L5.22596 4.90256L5.54191 4.85179C5.44637 4.25731 5.63156 3.63853 5.98364 3.06327C6.33501 2.48915 6.83698 1.98548 7.32217 1.63722L7.13557 1.37726ZM5.22596 4.90256L4.91001 4.95332C5.01143 5.58465 5.33689 6.08776 5.65088 6.53033C5.97681 6.98972 6.27961 7.3731 6.45235 7.82814L6.75152 7.71457L7.05068 7.601C6.84089 7.04835 6.46969 6.57837 6.17286 6.16C5.86409 5.7248 5.61805 5.32576 5.54191 4.85181L5.22596 4.90256ZM6.75152 7.71457L6.68654 8.0279C7.09942 8.11352 7.55687 8.0889 7.9812 8.0455C8.42761 7.99983 8.81758 7.9369 9.187 7.91831L9.17091 7.59871L9.15483 7.27912C8.76757 7.29861 8.30941 7.36859 7.91608 7.40882C7.50067 7.45131 7.12676 7.46558 6.81649 7.40123L6.75152 7.71457ZM9.17091 7.59871L9.18781 7.91827C9.7972 7.88606 10.4068 7.90629 11.0415 7.91374C11.6694 7.92111 12.3144 7.9156 12.9602 7.82603L12.9162 7.50906L12.8722 7.19209C12.2767 7.2747 11.672 7.28109 11.049 7.27378C10.4329 7.26655 9.79053 7.24551 9.15402 7.27916L9.17091 7.59871ZM12.9162 7.50906L12.9597 7.82609C13.545 7.74577 14.0597 7.59473 14.5214 7.4888C14.9922 7.38079 15.445 7.30859 15.9802 7.35345L16.0069 7.03457L16.0337 6.71569C15.4045 6.66295 14.8785 6.75024 14.3783 6.865C13.8691 6.98183 13.4206 7.11684 12.8727 7.19203L12.9162 7.50906ZM16.0069 7.03457L15.98 7.35343C16.8545 7.42726 17.7234 7.49349 18.6213 7.48945L18.6199 7.16946L18.6185 6.84946C17.7516 6.85336 16.9075 6.78946 16.0339 6.7157L16.0069 7.03457ZM18.6199 7.16946L18.6214 7.48945C20.2438 7.48168 21.8345 7.74509 23.4555 8.08488L23.5212 7.77169L23.5868 7.45849C21.9525 7.11591 20.3092 6.84136 18.6184 6.84946L18.6199 7.16946ZM23.5212 7.77169L23.4554 8.08485C28.6859 9.18387 34.0545 9.27174 39.3258 9.03797L39.3117 8.71828L39.2975 8.3986C34.0484 8.63138 28.7412 8.5415 23.587 7.45853L23.5212 7.77169ZM39.3117 8.71828L39.3258 9.03797C43.6271 8.84771 47.669 9.24054 51.0751 12.0769L51.2799 11.831L51.4846 11.5851C47.8893 8.59115 43.6421 8.20642 39.2975 8.3986L39.3117 8.71828ZM51.2799 11.831L51.075 12.0768C51.612 12.5243 52.0759 13.0479 52.5322 13.5668C52.981 14.077 53.4306 14.5926 53.9172 14.9781C54.4105 15.369 54.9664 15.6468 55.634 15.6559C56.2973 15.6649 57.0204 15.4082 57.8506 14.834L57.6686 14.5708L57.4866 14.3076C56.7211 14.8371 56.1273 15.0226 55.6428 15.016C55.1627 15.0094 54.74 14.8135 54.3146 14.4765C53.8824 14.134 53.4729 13.6672 53.0128 13.1441C52.5603 12.6297 52.0655 12.0692 51.4847 11.5852L51.2799 11.831ZM57.6686 14.5708L57.8507 14.8339C58.6881 14.2544 59.1828 13.6198 59.3787 12.9425C59.5752 12.2632 59.4568 11.5903 59.1654 10.9644C58.5921 9.73264 57.3106 8.60033 56.1618 7.7408L55.9701 7.99703L55.7784 8.25325C56.9224 9.10917 58.0851 10.16 58.5852 11.2345C58.8306 11.7616 58.9063 12.2726 58.7639 12.7647C58.621 13.2589 58.244 13.7835 57.4865 14.3076L57.6686 14.5708ZM7.27197 5.32468L7.26974 5.64468C7.83114 5.64858 8.38342 5.6798 8.94436 5.71248C9.50293 5.74502 10.0707 5.77903 10.6503 5.78668L10.6545 5.46671L10.6588 5.14674C10.0962 5.13932 9.54337 5.10629 8.98158 5.07356C8.42217 5.04098 7.8543 5.00872 7.27419 5.00469L7.27197 5.32468ZM10.6545 5.46671L10.6506 5.78669C11.0279 5.79139 11.1892 5.84796 11.3101 5.90946C11.3852 5.94766 11.4424 5.98575 11.5461 6.04716C11.6435 6.10476 11.759 6.16814 11.9115 6.22892L12.03 5.93167L12.1485 5.63443C12.0373 5.59008 11.9526 5.54406 11.8721 5.49638C11.7979 5.45251 11.6994 5.38943 11.6002 5.33896C11.3723 5.22312 11.1095 5.15235 10.6585 5.14674L10.6545 5.46671ZM12.03 5.93167L11.9122 6.22919C12.7924 6.57781 14.0033 6.79884 15.2041 6.83334C16.4006 6.86773 17.6332 6.71834 18.5405 6.28829L18.4035 5.99912L18.2664 5.70996C17.4897 6.07812 16.373 6.22667 15.2225 6.19361C14.0763 6.16067 12.9425 5.94886 12.1478 5.63416L12.03 5.93167ZM18.4035 5.99912L18.464 5.6849C18.3827 5.66923 18.3062 5.64434 18.1823 5.61079C18.0708 5.58062 17.9332 5.54767 17.7846 5.54135L17.771 5.86107L17.7574 6.18078C17.8329 6.18398 17.9147 6.20142 18.0151 6.22857C18.103 6.25235 18.2307 6.29172 18.3429 6.31334L18.4035 5.99912ZM17.771 5.86107L17.8653 6.16686C18.2614 6.04473 18.8399 5.9263 19.4321 5.88564C20.0313 5.84451 20.6049 5.88598 21.0142 6.05206L21.1345 5.75553L21.2548 5.459C20.7117 5.23866 20.0229 5.20358 19.3883 5.24714C18.7466 5.29119 18.1196 5.41873 17.6767 5.55527L17.771 5.86107ZM21.1345 5.75553L20.9681 5.48223C20.8422 5.55892 20.7217 5.66156 20.6561 5.80382C20.5825 5.96339 20.5992 6.12533 20.6654 6.25895C20.725 6.37908 20.8209 6.47162 20.9098 6.54053C21.002 6.61207 21.1092 6.67528 21.2177 6.73056C21.6441 6.94782 22.2214 7.10671 22.4516 7.16112L22.5252 6.8497L22.5988 6.53828C22.3825 6.48715 21.8651 6.34215 21.5082 6.16031C21.4209 6.11581 21.3516 6.07329 21.302 6.03477C21.2489 5.99361 21.2374 5.97174 21.2389 5.97474C21.247 5.99123 21.2551 6.03331 21.2373 6.0719C21.2275 6.09318 21.2273 6.07373 21.301 6.02883L21.1345 5.75553ZM22.5252 6.8497L22.4514 7.16106C24.2878 7.59664 26.3819 7.80665 28.2481 7.92129L28.2678 7.60189L28.2874 7.28249C26.4335 7.16861 24.3822 6.96127 22.5991 6.53834L22.5252 6.8497ZM28.2678 7.60189L28.2482 7.92129C29.4661 7.99603 30.7394 7.928 31.9231 7.91394L31.9193 7.59396L31.9155 7.27398C30.6944 7.28849 29.4743 7.35533 28.2874 7.28249L28.2678 7.60189ZM31.9193 7.59396L31.923 7.91394C32.4636 7.90783 33.0047 7.85623 33.5235 7.81475C34.0482 7.77279 34.5558 7.74052 35.0587 7.76596L35.0748 7.44637L35.091 7.12678C34.5431 7.09906 33.9995 7.13464 33.4724 7.17679C32.9394 7.21941 32.4282 7.26819 31.9157 7.27398L31.9193 7.59396ZM35.0748 7.44637L35.0588 7.76597C35.2057 7.77336 35.3506 7.79423 35.5039 7.81926C35.6522 7.84346 35.8175 7.87327 35.9797 7.89128C36.315 7.92851 36.6827 7.92175 37.0759 7.73005L36.9357 7.44241L36.7954 7.15478C36.5523 7.27332 36.3207 7.2852 36.0503 7.25518C35.9096 7.23956 35.7704 7.21428 35.607 7.18762C35.4488 7.1618 35.2751 7.13604 35.0909 7.12678L35.0748 7.44637ZM36.9357 7.44241L36.7885 7.15828C36.6798 7.21457 36.5904 7.28494 36.5249 7.33981C36.4445 7.40724 36.4218 7.43029 36.3948 7.44894L36.5768 7.71219L36.7587 7.97544C36.7945 7.95067 36.8285 7.92229 36.855 7.89973C36.887 7.87247 36.9063 7.85524 36.9361 7.83026C36.9899 7.78516 37.0368 7.7504 37.0829 7.72655L36.9357 7.44241ZM36.5768 7.71219L36.5457 8.03067C37.844 8.15732 39.2514 8.09827 40.6697 8.01898C42.0964 7.93922 43.5337 7.83905 44.9266 7.87448C47.7083 7.94525 50.2244 8.5556 51.9631 10.8824L52.2194 10.6908L52.4758 10.4993C50.5621 7.93834 47.7985 7.30734 44.9429 7.23469C43.5171 7.19842 42.0463 7.30102 40.634 7.37998C39.2134 7.4594 37.8513 7.515 36.6078 7.3937L36.5768 7.71219ZM52.2194 10.6908L52.3187 10.3866C51.9623 10.2704 51.7516 10.239 51.5598 10.0492L51.3347 10.2766L51.1096 10.5041C51.4406 10.8316 51.8684 10.9129 52.1202 10.995L52.2194 10.6908ZM51.3347 10.2766L51.0861 10.4781C52.0597 11.6794 52.8323 12.5586 54.187 13.4125L54.3576 13.1418L54.5283 12.8711C53.2646 12.0746 52.5453 11.2621 51.5833 10.0751L51.3347 10.2766ZM54.3576 13.1418L54.5321 12.8735C53.6304 12.287 52.758 11.5786 51.8395 10.8806C50.9299 10.1893 49.9832 9.51523 48.9673 9.03588L48.8307 9.32528L48.6942 9.61468C49.6458 10.0637 50.5477 10.7027 51.4523 11.3901C52.348 12.0708 53.2553 12.8064 54.1831 13.41L54.3576 13.1418ZM48.8307 9.32528L48.9672 9.03586C47.2158 8.20968 45.3576 8.11158 43.5363 7.98095L43.5134 8.30013L43.4905 8.61931C45.3421 8.75211 47.0714 8.84921 48.6942 9.61469L48.8307 9.32528ZM43.5134 8.30013L43.5361 7.98094C41.3083 7.82236 39.062 7.92719 36.8514 7.99994C34.6331 8.07295 32.4466 8.11399 30.3005 7.83755L30.2597 8.15493L30.2188 8.47231C32.4216 8.75605 34.6547 8.71259 36.8725 8.6396C39.098 8.56635 41.3042 8.46369 43.4907 8.61932L43.5134 8.30013ZM30.2597 8.15493L30.3006 7.83756C28.6409 7.62355 26.9377 7.25777 25.2127 6.91338C23.4944 6.57033 21.7586 6.24947 20.0624 6.13607L20.0411 6.45536L20.0197 6.77464C21.6703 6.885 23.37 7.19811 25.0874 7.54099C26.7982 7.88255 28.531 8.25468 30.2187 8.4723L30.2597 8.15493ZM20.0411 6.45536L20.0622 6.13606C17.2749 5.95131 14.2328 6.06494 11.486 6.39391L11.524 6.71164L11.5621 7.02937C14.2743 6.70453 17.2765 6.59283 20.0199 6.77466L20.0411 6.45536ZM11.524 6.71164L11.486 6.3939C11.1105 6.43878 10.6678 6.52323 10.2255 6.59818C9.77512 6.67449 9.31167 6.74361 8.86287 6.76647C7.95076 6.81293 7.19198 6.66347 6.72775 6.10549L6.48176 6.31016L6.23576 6.51482C6.90236 7.31603 7.93432 7.45459 8.89543 7.40564C9.38324 7.38079 9.87703 7.30634 10.3324 7.22919C10.7957 7.15068 11.2071 7.07178 11.562 7.02938L11.524 6.71164ZM6.48176 6.31016L6.72803 6.10583C6.14824 5.40701 6.10307 4.33099 6.5802 3.64232L6.31716 3.46008L6.05413 3.27784C5.40652 4.21257 5.48023 5.60418 6.23548 6.51448L6.48176 6.31016ZM6.31716 3.46008L5.9999 3.50185C6.07079 4.04029 6.4401 4.44916 6.72216 4.74237C6.87592 4.90221 7.00047 5.02339 7.09851 5.14274C7.19904 5.26512 7.22216 5.32947 7.22489 5.35626L7.54325 5.3239L7.86161 5.29154C7.8388 5.0672 7.70981 4.87863 7.59305 4.73649C7.4738 4.59133 7.31587 4.43639 7.1834 4.29868C6.893 3.9968 6.67479 3.72489 6.63443 3.41831L6.31716 3.46008Z" fill="#967348" mask="url(#path-1-outside-1_8_28)"/>
</g>
<defs>
<filter id="filter0_d_8_28" x="0.876801" y="0.463104" width="62.5987" height="23.193" filterUnits="userSpaceOnUse" color-interpolation-filters="sRGB">
<feFlood flood-opacity="0" result="BackgroundImageFix"/>
<feColorMatrix in="SourceAlpha" type="matrix" values="0 0 0 0 0 0 0 0 0 0 0 0 0 0 0 0 0 0 127 0" result="hardAlpha"/>
<feOffset dy="4"/>
<feGaussianBlur stdDeviation="2"/>
<feComposite in2="hardAlpha" operator="out"/>
<feColorMatrix type="matrix" values="0 0 0 0 0 0 0 0 0 0 0 0 0 0 0 0 0 0 0.25 0"/>
<feBlend mode="normal" in2="BackgroundImageFix" result="effect1_dropShadow_8_28"/>
<feBlend mode="normal" in="SourceGraphic" in2="effect1_dropShadow_8_28" result="shape"/>
</filter>
</defs>
</svg>
