<svg width="64" height="23" viewBox="0 0 64 23" fill="none" xmlns="http://www.w3.org/2000/svg">
<g id="ClavicleLeft" filter="url(#filter0_d_8_27)">
<mask id="path-1-outside-1_8_27" maskUnits="userSpaceOnUse" x="3.39935" y="-0.108795" width="56" height="15" fill="black">
<rect fill="white" x="3.39935" y="-0.108795" width="56" height="15"/>
<path d="M11.1698 13.8097C11.7596 13.5026 12.338 13.1463 12.8981 12.8424C15.258 11.5594 18.2452 10.9215 20.8505 10.3907C22.3692 10.0812 23.8208 9.47581 25.357 9.36948C27.1828 9.24174 29.0071 9.60118 30.8344 9.502C32.8316 9.3917 34.8426 9.29251 36.7972 8.87119C39.8597 8.21104 42.8255 7.10497 45.92 6.60351C49.1395 6.08221 51.2511 6.8582 54.3814 7.20256C56.2453 7.40727 57.7625 5.60772 58.6685 4.09778C60.332 1.33577 56.5219 1.74043 54.5407 1.40004C47.3808 0.166218 40.5051 1.35323 33.4938 3.06946C32.5078 3.31147 31.4128 3.71137 30.4404 3.87403C28.1384 4.25886 25.7365 4.32391 23.4047 4.60479C21.3336 4.85314 19.4034 5.1499 17.3818 5.60772C16.3599 5.83862 13.619 7.028 12.8958 6.15997C10.4596 7.80083 4.17683 6.92168 4.40543 11.4951C4.44429 12.2672 6.27618 13.4129 7.0321 13.9493C8.42964 14.9443 9.8325 14.5039 11.1698 13.8097Z"/>
<path d="M7.30643 12.2688C7.82002 13.5272 9.65648 13.0503 10.5663 12.8051C10.5115 12.7631 10.4139 12.7218 10.3194 12.6631C10.6722 12.1854 11.7467 12.0458 12.303 12.0061C12.2542 12.0767 12.2283 12.1569 12.2268 12.2434C13.8384 12.3576 15.9766 10.9857 17.5639 10.562C18.8982 10.2066 22.8995 10.3335 23.657 9.35202C19.1984 8.41098 14.6743 11.2341 10.3065 11.5578C8.83426 11.6673 7.71257 12.7972 6.40724 11.6824C6.64804 12.0855 7.00619 12.3949 7.44283 12.5504"/>
<path d="M29.923 8.43875C31.6406 8.09042 33.4923 8.03726 35.1466 7.42155C35.962 7.11765 38.1094 6.49718 38.5399 5.90685C39.1815 6.27183 41.0111 5.6331 41.8509 5.49108C43.858 5.14989 45.9002 4.91503 47.9256 4.78173C49.7194 4.6643 51.5437 5.30224 53.3039 5.16497C53.2407 5.18719 53.2148 5.23718 53.2247 5.31414C53.8953 5.64501 54.9468 5.94652 55.6487 5.45934C56.0411 5.18798 56.6172 4.92297 55.7858 4.59924C55.8704 4.61194 56.6659 4.84759 57.018 4.91662C56.2796 6.41862 54.674 6.32024 53.2117 6.06951C50.4289 5.59502 47.588 4.99676 44.7716 5.45934C42.3743 5.85448 40.0784 6.9058 37.7985 7.72068C36.4634 8.19833 35.011 8.50937 33.6013 8.58792C32.2007 8.66647 30.2636 8.15231 28.9705 8.72281"/>
</mask>
<path d="M11.1698 13.8097C11.7596 13.5026 12.338 13.1463 12.8981 12.8424C15.258 11.5594 18.2452 10.9215 20.8505 10.3907C22.3692 10.0812 23.8208 9.47581 25.357 9.36948C27.1828 9.24174 29.0071 9.60118 30.8344 9.502C32.8316 9.3917 34.8426 9.29251 36.7972 8.87119C39.8597 8.21104 42.8255 7.10497 45.92 6.60351C49.1395 6.08221 51.2511 6.8582 54.3814 7.20256C56.2453 7.40727 57.7625 5.60772 58.6685 4.09778C60.332 1.33577 56.5219 1.74043 54.5407 1.40004C47.3808 0.166218 40.5051 1.35323 33.4938 3.06946C32.5078 3.31147 31.4128 3.71137 30.4404 3.87403C28.1384 4.25886 25.7365 4.32391 23.4047 4.60479C21.3336 4.85314 19.4034 5.1499 17.3818 5.60772C16.3599 5.83862 13.619 7.028 12.8958 6.15997C10.4596 7.80083 4.17683 6.92168 4.40543 11.4951C4.44429 12.2672 6.27618 13.4129 7.0321 13.9493C8.42964 14.9443 9.8325 14.5039 11.1698 13.8097Z" fill="#F3D48C"/>
<path d="M7.30643 12.2688C7.82002 13.5272 9.65648 13.0503 10.5663 12.8051C10.5115 12.7631 10.4139 12.7218 10.3194 12.6631C10.6722 12.1854 11.7467 12.0458 12.303 12.0061C12.2542 12.0767 12.2283 12.1569 12.2268 12.2434C13.8384 12.3576 15.9766 10.9857 17.5639 10.562C18.8982 10.2066 22.8995 10.3335 23.657 9.35202C19.1984 8.41098 14.6743 11.2341 10.3065 11.5578C8.83426 11.6673 7.71257 12.7972 6.40724 11.6824C6.64804 12.0855 7.00619 12.3949 7.44283 12.5504" fill="#DCC06D"/>
<path d="M29.923 8.43875C31.6406 8.09042 33.4923 8.03726 35.1466 7.42155C35.962 7.11765 38.1094 6.49718 38.5399 5.90685C39.1815 6.27183 41.0111 5.6331 41.8509 5.49108C43.858 5.14989 45.9002 4.91503 47.9256 4.78173C49.7194 4.6643 51.5437 5.30224 53.3039 5.16497C53.2407 5.18719 53.2148 5.23718 53.2247 5.31414C53.8953 5.64501 54.9468 5.94652 55.6487 5.45934C56.0411 5.18798 56.6172 4.92297 55.7858 4.59924C55.8704 4.61194 56.6659 4.84759 57.018 4.91662C56.2796 6.41862 54.674 6.32024 53.2117 6.06951C50.4289 5.59502 47.588 4.99676 44.7716 5.45934C42.3743 5.85448 40.0784 6.9058 37.7985 7.72068C36.4634 8.19833 35.011 8.50937 33.6013 8.58792C32.2007 8.66647 30.2636 8.15231 28.9705 8.72281" fill="#DCC06D"/>
<path d="M11.1698 13.8097L11.3173 14.0937L11.3176 14.0935L11.1698 13.8097ZM12.8981 12.8424L13.0507 13.1237L13.0509 13.1236L12.8981 12.8424ZM20.8505 10.3907L20.9144 10.7042L20.9144 10.7042L20.8505 10.3907ZM25.357 9.36948L25.3791 9.68872L25.3794 9.6887L25.357 9.36948ZM30.8344 9.502L30.8517 9.82152L30.852 9.82151L30.8344 9.502ZM36.7972 8.87119L36.7297 8.55837L36.7297 8.55837L36.7972 8.87119ZM45.92 6.60351L45.8689 6.28763L45.8688 6.28763L45.92 6.60351ZM54.3814 7.20256L54.3464 7.52064L54.3465 7.52065L54.3814 7.20256ZM58.6685 4.09778L58.3944 3.93269L58.3941 3.93314L58.6685 4.09778ZM54.5407 1.40004L54.4863 1.71539L54.4865 1.71542L54.5407 1.40004ZM33.4938 3.06946L33.4177 2.75864L33.4176 2.75869L33.4938 3.06946ZM30.4404 3.87403L30.4932 4.18965L30.4932 4.18965L30.4404 3.87403ZM23.4047 4.60479L23.4428 4.92252L23.443 4.9225L23.4047 4.60479ZM17.3818 5.60772L17.4523 5.91986L17.4525 5.91982L17.3818 5.60772ZM12.8958 6.15997L13.1417 5.95514L12.9567 5.73313L12.717 5.89456L12.8958 6.15997ZM4.40543 11.4951L4.08583 11.5111L4.08583 11.5112L4.40543 11.4951ZM7.0321 13.9493L7.21769 13.6886L7.21728 13.6883L7.0321 13.9493ZM10.5663 12.8051L10.6496 13.1141L11.2754 12.9455L10.761 12.5512L10.5663 12.8051ZM10.3194 12.6631L10.062 12.473L9.85602 12.7519L10.1505 12.9349L10.3194 12.6631ZM12.303 12.0061L12.5663 12.188L12.945 11.6395L12.2802 11.6869L12.303 12.0061ZM12.2268 12.2434L11.9068 12.2377L11.9015 12.5411L12.2041 12.5626L12.2268 12.2434ZM17.5639 10.562L17.4815 10.2528L17.4814 10.2529L17.5639 10.562ZM23.657 9.35202L23.9103 9.54752L24.2216 9.14414L23.7231 9.03892L23.657 9.35202ZM10.3065 11.5578L10.2828 11.2387L10.2827 11.2387L10.3065 11.5578ZM6.40724 11.6824L6.61506 11.4391L6.13253 11.8465L6.40724 11.6824ZM35.1466 7.42155L35.2583 7.72145L35.2584 7.7214L35.1466 7.42155ZM38.5399 5.90685L38.6981 5.6287L38.4497 5.48741L38.2814 5.71829L38.5399 5.90685ZM41.8509 5.49108L41.9042 5.80659L41.9045 5.80655L41.8509 5.49108ZM47.9256 4.78173L47.9047 4.46241L47.9046 4.46242L47.9256 4.78173ZM53.3039 5.16497L53.41 5.46689L53.2791 4.84594L53.3039 5.16497ZM53.2247 5.31414L52.9073 5.35499L52.9292 5.52518L53.0831 5.60111L53.2247 5.31414ZM55.6487 5.45934L55.4667 5.19614L55.4662 5.19647L55.6487 5.45934ZM55.7858 4.59924L55.8333 4.28278L55.6697 4.89743L55.7858 4.59924ZM57.018 4.91662L57.3052 5.05779L57.4894 4.68296L57.0796 4.6026L57.018 4.91662ZM53.2117 6.06951L53.2658 5.75411L53.2655 5.75406L53.2117 6.06951ZM44.7716 5.45934L44.7198 5.14357L44.7196 5.1436L44.7716 5.45934ZM37.7985 7.72068L37.6908 7.41934L37.6907 7.41938L37.7985 7.72068ZM33.6013 8.58792L33.5835 8.26842L33.5834 8.26842L33.6013 8.58792ZM11.1698 13.8097L11.3176 14.0935C11.6188 13.9367 11.9158 13.768 12.2044 13.6024C12.4947 13.4358 12.7749 13.2733 13.0507 13.1237L12.8981 12.8424L12.7455 12.5612C12.4612 12.7154 12.1722 12.883 11.8859 13.0473C11.5978 13.2126 11.3107 13.3756 11.0221 13.5258L11.1698 13.8097ZM12.8981 12.8424L13.0509 13.1236C15.3619 11.8672 18.301 11.2367 20.9144 10.7042L20.8505 10.3907L20.7866 10.0771C18.1893 10.6063 15.1542 11.2516 12.7452 12.5613L12.8981 12.8424ZM20.8505 10.3907L20.9144 10.7042C21.6874 10.5467 22.45 10.3123 23.1815 10.1126C23.9219 9.91047 24.6438 9.73961 25.3791 9.68872L25.357 9.36948L25.3349 9.05025C24.534 9.10568 23.762 9.29068 23.0129 9.4952C22.2548 9.70216 21.5322 9.92517 20.7866 10.0771L20.8505 10.3907ZM25.357 9.36948L25.3794 9.6887C26.2671 9.62659 27.1585 9.68264 28.0736 9.7443C28.9818 9.80549 29.915 9.87237 30.8517 9.82152L30.8344 9.502L30.817 9.18247C29.9265 9.2308 29.0339 9.16755 28.1167 9.10575C27.2064 9.04442 26.2727 8.98463 25.3347 9.05026L25.357 9.36948ZM30.8344 9.502L30.852 9.82151C32.843 9.71156 34.8807 9.61166 36.8646 9.184L36.7972 8.87119L36.7297 8.55837C34.8045 8.97337 32.8203 9.07184 30.8167 9.18248L30.8344 9.502ZM36.7972 8.87119L36.8646 9.184C38.4078 8.85135 39.9273 8.40616 41.4326 7.98606C42.9428 7.5646 44.443 7.16703 45.9712 6.91939L45.92 6.60351L45.8688 6.28763C44.3025 6.54145 42.7726 6.94764 41.2606 7.36962C39.7437 7.79296 38.249 8.23088 36.7297 8.55837L36.7972 8.87119ZM45.92 6.60351L45.9712 6.9194C47.5415 6.66513 48.8416 6.72651 50.1429 6.89574C50.7969 6.9808 51.4477 7.09256 52.1396 7.20615C52.8292 7.31937 53.555 7.43358 54.3464 7.52064L54.3814 7.20256L54.4164 6.88448C53.6426 6.79936 52.9306 6.68744 52.2433 6.5746C51.5582 6.46213 50.893 6.34791 50.2254 6.26109C48.8834 6.08656 47.518 6.0206 45.8689 6.28763L45.92 6.60351ZM54.3814 7.20256L54.3465 7.52065C55.3977 7.6361 56.3276 7.18233 57.0907 6.53759C57.8536 5.89296 58.4806 5.03284 58.9429 4.26243L58.6685 4.09778L58.3941 3.93314C57.9504 4.67267 57.3658 5.46729 56.6776 6.04874C55.9896 6.63008 55.229 6.97373 54.4164 6.88447L54.3814 7.20256ZM58.6685 4.09778L58.9426 4.26288C59.375 3.54497 59.5148 2.9329 59.2975 2.43164C59.0835 1.93791 58.5774 1.6828 58.0602 1.53337C57.5305 1.38035 56.8916 1.31093 56.2832 1.25796C55.6602 1.20372 55.0728 1.16677 54.5949 1.08466L54.5407 1.40004L54.4865 1.71542C54.9992 1.8035 55.631 1.84361 56.2277 1.89555C56.8388 1.94875 57.42 2.01462 57.8825 2.14823C58.3575 2.28545 58.6159 2.46832 58.7103 2.68617C58.8015 2.89649 58.7937 3.26959 58.3944 3.93269L58.6685 4.09778ZM54.5407 1.40004L54.595 1.08468C47.3676 -0.16077 40.4387 1.04004 33.4177 2.75864L33.4938 3.06946L33.5699 3.38029C40.5715 1.66642 47.394 0.493205 54.4863 1.71539L54.5407 1.40004ZM33.4938 3.06946L33.4176 2.75869C32.9159 2.88181 32.3839 3.04578 31.8728 3.19419C31.3552 3.34447 30.8539 3.48042 30.3876 3.55842L30.4404 3.87403L30.4932 4.18965C30.9993 4.10498 31.5317 3.95966 32.0512 3.80881C32.5772 3.65611 33.0857 3.49912 33.5701 3.38024L33.4938 3.06946ZM30.4404 3.87403L30.3877 3.55841C29.2504 3.74853 28.0854 3.86014 26.9068 3.95952C25.7321 4.05858 24.5398 4.14575 23.3665 4.28709L23.4047 4.60479L23.443 4.9225C24.6015 4.78295 25.776 4.69715 26.9606 4.59726C28.1415 4.49769 29.3284 4.38436 30.4932 4.18965L30.4404 3.87403ZM23.4047 4.60479L23.3666 4.28707C21.2887 4.53623 19.3469 4.83459 17.3111 5.29563L17.3818 5.60772L17.4525 5.91982C19.4599 5.46521 21.3785 5.17006 23.4428 4.92252L23.4047 4.60479ZM17.3818 5.60772L17.3113 5.29559C17.0389 5.35714 16.6584 5.48066 16.2549 5.60841C15.8428 5.73886 15.3914 5.87892 14.9518 5.98485C14.5091 6.09154 14.0979 6.15861 13.7641 6.15241C13.4205 6.14603 13.2324 6.06405 13.1417 5.95514L12.8958 6.15997L12.6499 6.36479C12.9208 6.68991 13.3465 6.78476 13.7522 6.7923C14.1675 6.80001 14.6411 6.71805 15.1017 6.60704C15.5655 6.49527 16.0362 6.34894 16.448 6.21857C16.8684 6.08549 17.2138 5.97376 17.4523 5.91986L17.3818 5.60772ZM12.8958 6.15997L12.717 5.89456C12.1614 6.26881 11.3643 6.51133 10.4355 6.7313C9.52964 6.94584 8.49382 7.13947 7.55892 7.42146C6.61962 7.70478 5.71926 8.09344 5.0684 8.73493C4.40324 9.3905 4.0245 10.2843 4.08583 11.5111L4.40543 11.4951L4.72503 11.4792C4.67205 10.4193 4.99294 9.7079 5.51765 9.19075C6.05665 8.65951 6.83639 8.30788 7.74374 8.0342C8.65548 7.75919 9.63286 7.5791 10.583 7.35407C11.5103 7.13446 12.4121 6.87155 13.0746 6.42538L12.8958 6.15997ZM4.40543 11.4951L4.08583 11.5112C4.10106 11.8137 4.28211 12.0987 4.48121 12.3351C4.68929 12.582 4.96348 12.8292 5.24884 13.0596C5.81623 13.5177 6.48473 13.9533 6.84692 14.2103L7.0321 13.9493L7.21728 13.6883C6.82355 13.4089 6.19814 13.0035 5.65089 12.5616C5.37894 12.342 5.14062 12.1244 4.97067 11.9227C4.79174 11.7103 4.72923 11.5626 4.72503 11.4791L4.40543 11.4951ZM7.0321 13.9493L6.84651 14.21C8.40241 15.3177 9.96128 14.7976 11.3173 14.0937L11.1698 13.8097L11.0224 13.5256C9.70372 14.2102 8.45686 14.5708 7.21769 13.6886L7.0321 13.9493ZM7.30643 12.2688L7.01015 12.3897C7.3392 13.1959 8.09522 13.4127 8.78405 13.4208C9.47187 13.4288 10.1997 13.2353 10.6496 13.1141L10.5663 12.8051L10.4831 12.4962C10.0231 12.6201 9.37779 12.7877 8.79152 12.7808C8.20626 12.774 7.78725 12.6 7.6027 12.1478L7.30643 12.2688ZM10.5663 12.8051L10.761 12.5512C10.7087 12.5111 10.646 12.4781 10.6081 12.4579C10.5612 12.4329 10.5243 12.4137 10.4883 12.3913L10.3194 12.6631L10.1505 12.9349C10.209 12.9712 10.2682 13.002 10.3074 13.0229C10.3288 13.0342 10.3442 13.0426 10.3566 13.0498C10.3694 13.0573 10.373 13.0601 10.3717 13.0591L10.5663 12.8051ZM10.3194 12.6631L10.5768 12.8532C10.6823 12.7105 10.9404 12.5778 11.3156 12.48C11.6707 12.3875 12.0565 12.3445 12.3257 12.3253L12.303 12.0061L12.2802 11.6869C11.9932 11.7074 11.5636 11.7541 11.1542 11.8607C10.7649 11.9621 10.3094 12.1381 10.062 12.473L10.3194 12.6631ZM12.303 12.0061L12.0396 11.8243C11.9551 11.9467 11.9094 12.0881 11.9068 12.2377L12.2268 12.2434L12.5467 12.249C12.5471 12.2256 12.5533 12.2068 12.5663 12.188L12.303 12.0061ZM12.2268 12.2434L12.2041 12.5626C13.0931 12.6256 14.0944 12.281 15.0255 11.9007C15.9897 11.5068 16.8789 11.0761 17.6464 10.8712L17.5639 10.562L17.4814 10.2529C16.6617 10.4717 15.6881 10.9387 14.7835 11.3082C13.8457 11.6912 12.9721 11.9754 12.2494 11.9242L12.2268 12.2434ZM17.5639 10.562L17.6463 10.8713C17.9497 10.7904 18.4233 10.7335 19.002 10.6797C19.5673 10.6271 20.2281 10.5779 20.8609 10.51C21.4956 10.4419 22.1278 10.3527 22.6541 10.2147C22.9177 10.1457 23.1636 10.0621 23.3742 9.95813C23.5825 9.85519 23.7748 9.72311 23.9103 9.54752L23.657 9.35202L23.4036 9.15652C23.3498 9.22631 23.2513 9.30496 23.0907 9.38433C22.9322 9.46263 22.7309 9.533 22.4919 9.59562C22.0133 9.72104 21.4198 9.80633 20.7926 9.87362C20.1636 9.94111 19.5266 9.98812 18.9427 10.0424C18.3722 10.0955 17.8453 10.1559 17.4815 10.2528L17.5639 10.562ZM23.657 9.35202L23.7231 9.03892C21.4119 8.55112 19.1007 9.04247 16.8611 9.67259C14.5963 10.3098 12.4244 11.08 10.2828 11.2387L10.3065 11.5578L10.3301 11.8769C12.5564 11.7119 14.8305 10.9087 17.0344 10.2887C19.2634 9.66157 21.4435 9.21188 23.5909 9.66512L23.657 9.35202ZM10.3065 11.5578L10.2827 11.2387C9.87828 11.2688 9.50473 11.3684 9.16427 11.4748C8.81089 11.5852 8.51925 11.6932 8.21671 11.7688C7.92413 11.8419 7.66253 11.8723 7.40998 11.8325C7.16238 11.7935 6.9011 11.6834 6.61506 11.4391L6.40724 11.6824L6.19943 11.9257C6.56605 12.2388 6.93449 12.4055 7.31033 12.4647C7.68123 12.5232 8.03681 12.4734 8.37185 12.3897C8.69692 12.3085 9.04333 12.1831 9.35512 12.0857C9.67983 11.9842 9.99857 11.9016 10.3302 11.8769L10.3065 11.5578ZM6.40724 11.6824L6.13253 11.8465C6.40808 12.3078 6.82281 12.6693 7.33546 12.8519L7.44283 12.5504L7.5502 12.249C7.18957 12.1205 6.888 11.8632 6.68196 11.5183L6.40724 11.6824ZM29.923 8.43875L29.9866 8.75237C30.8354 8.58024 31.7052 8.48316 32.6064 8.34682C33.4965 8.21217 34.3994 8.04112 35.2583 7.72145L35.1466 7.42155L35.035 7.12164C34.2396 7.41769 33.3895 7.58107 32.5107 7.71402C31.6431 7.84528 30.7283 7.94893 29.8594 8.12513L29.923 8.43875ZM35.1466 7.42155L35.2584 7.7214C35.4567 7.64749 35.7366 7.55415 36.0636 7.44253C36.387 7.33216 36.7502 7.20601 37.1026 7.0702C37.4539 6.93485 37.8018 6.78712 38.0929 6.6324C38.3717 6.48421 38.6445 6.30645 38.7984 6.09541L38.5399 5.90685L38.2814 5.71829C38.22 5.80241 38.0629 5.92358 37.7926 6.06725C37.5345 6.2044 37.2139 6.34147 36.8725 6.47301C36.5323 6.60411 36.1789 6.72695 35.8569 6.83683C35.5386 6.94547 35.2443 7.04366 35.0349 7.1217L35.1466 7.42155ZM38.5399 5.90685L38.3817 6.18499C38.6227 6.32211 38.9329 6.34694 39.2224 6.33559C39.5229 6.32381 39.8577 6.26978 40.1854 6.20256C40.5142 6.1351 40.8484 6.05164 41.1463 5.97791C41.4497 5.90285 41.7086 5.83967 41.9042 5.80659L41.8509 5.49108L41.7975 5.17556C41.5732 5.21349 41.2886 5.28341 40.9926 5.35665C40.6913 5.43123 40.3705 5.51127 40.0568 5.57562C39.7419 5.64022 39.4465 5.68631 39.1973 5.69608C38.937 5.70628 38.7779 5.67408 38.6981 5.6287L38.5399 5.90685ZM41.8509 5.49108L41.9045 5.80655C43.9003 5.46729 45.9316 5.23366 47.9466 5.10104L47.9256 4.78173L47.9046 4.46242C45.8688 4.59641 43.8157 4.83249 41.7972 5.1756L41.8509 5.49108ZM47.9256 4.78173L47.9465 5.10105C48.8045 5.04488 49.6755 5.16903 50.5824 5.29762C51.4767 5.42442 52.4078 5.55582 53.3288 5.484L53.3039 5.16497L53.2791 4.84594C52.4398 4.91138 51.5786 4.79246 50.6723 4.66396C49.7786 4.53725 48.8405 4.40115 47.9047 4.46241L47.9256 4.78173ZM53.3039 5.16497L53.1979 4.86305C53.1048 4.89577 53.0113 4.96083 52.9539 5.06961C52.9 5.17173 52.8971 5.27599 52.9073 5.35499L53.2247 5.31414L53.5421 5.27329C53.5423 5.27533 53.5475 5.31612 53.5199 5.36844C53.4887 5.42743 53.4399 5.45639 53.41 5.46689L53.3039 5.16497ZM53.2247 5.31414L53.0831 5.60111C53.4395 5.77698 53.9047 5.94927 54.3842 6.0109C54.8614 6.07224 55.3906 6.02805 55.8311 5.72222L55.6487 5.45934L55.4662 5.19647C55.2049 5.37782 54.8574 5.42646 54.4657 5.37612C54.0764 5.32608 53.6804 5.18217 53.3663 5.02717L53.2247 5.31414ZM55.6487 5.45934L55.8307 5.72255C55.8756 5.69145 55.9236 5.66019 55.9766 5.62545C56.028 5.5918 56.084 5.55501 56.1374 5.51723C56.2345 5.4485 56.3649 5.3488 56.4464 5.22026C56.4908 5.15029 56.531 5.05596 56.5312 4.94262C56.5314 4.82525 56.4886 4.72191 56.425 4.63827C56.3114 4.48904 56.1191 4.38561 55.9019 4.30105L55.7858 4.59924L55.6697 4.89743C55.7622 4.93344 55.8254 4.96498 55.8671 4.99062C55.9102 5.01709 55.9193 5.03057 55.9156 5.02582C55.9088 5.01679 55.8912 4.98673 55.8912 4.94157C55.8913 4.9216 55.8949 4.90531 55.8987 4.89403C55.9023 4.88323 55.9058 4.87769 55.9059 4.8776C55.9059 4.87754 55.9036 4.88109 55.8973 4.88819C55.891 4.89522 55.8821 4.90429 55.8697 4.91544C55.8443 4.93825 55.8107 4.96437 55.7677 4.99476C55.7249 5.02505 55.678 5.05601 55.626 5.09005C55.5757 5.12301 55.5198 5.15939 55.4667 5.19614L55.6487 5.45934ZM55.7858 4.59924L55.7383 4.9157C55.7358 4.91532 55.7764 4.92502 55.8807 4.95331C55.9735 4.97849 56.0878 5.01018 56.2174 5.04553C56.4679 5.11385 56.7667 5.19344 56.9564 5.23064L57.018 4.91662L57.0796 4.6026C56.9172 4.57076 56.6422 4.49801 56.3858 4.42808C56.262 4.3943 56.1395 4.36038 56.0483 4.33564C55.9686 4.31403 55.8781 4.28951 55.8333 4.28278L55.7858 4.59924ZM57.018 4.91662L56.7308 4.77544C56.4124 5.42311 55.9192 5.72049 55.3251 5.83624C54.7103 5.95604 53.9935 5.87887 53.2658 5.75411L53.2117 6.06951L53.1577 6.3849C53.8923 6.51087 54.7094 6.60826 55.4475 6.46443C56.2064 6.31656 56.8852 5.91213 57.3052 5.05779L57.018 4.91662ZM53.2117 6.06951L53.2655 5.75406C50.5055 5.28347 47.6017 4.67024 44.7198 5.14357L44.7716 5.45934L44.8235 5.77511C47.5744 5.32328 50.3522 5.90657 53.1579 6.38495L53.2117 6.06951ZM44.7716 5.45934L44.7196 5.1436C42.2843 5.545 39.9345 6.61741 37.6908 7.41934L37.7985 7.72068L37.9061 8.02201C40.2223 7.19419 42.4644 6.16396 44.8237 5.77508L44.7716 5.45934ZM37.7985 7.72068L37.6907 7.41938C36.3821 7.88756 34.96 8.19172 33.5835 8.26842L33.6013 8.58792L33.6191 8.90743C35.0621 8.82702 36.5447 8.50911 37.9062 8.02197L37.7985 7.72068ZM33.6013 8.58792L33.5834 8.26842C32.9067 8.30638 32.121 8.20091 31.264 8.15142C30.4409 8.10388 29.5644 8.11106 28.8413 8.43003L28.9705 8.72281L29.0997 9.01558C29.6698 8.76406 30.4084 8.74307 31.2272 8.79035C32.0122 8.83569 32.8953 8.94802 33.6192 8.90742L33.6013 8.58792Z" fill="#967348" mask="url(#path-1-outside-1_8_27)"/>
</g>
<defs>
<filter id="filter0_d_8_27" x="0.079361" y="0.571243" width="63.3192" height="22.28" filterUnits="userSpaceOnUse" color-interpolation-filters="sRGB">
<feFlood flood-opacity="0" result="BackgroundImageFix"/>
<feColorMatrix in="SourceAlpha" type="matrix" values="0 0 0 0 0 0 0 0 0 0 0 0 0 0 0 0 0 0 127 0" result="hardAlpha"/>
<feOffset dy="4"/>
<feGaussianBlur stdDeviation="2"/>
<feComposite in2="hardAlpha" operator="out"/>
<feColorMatrix type="matrix" values="0 0 0 0 0 0 0 0 0 0 0 0 0 0 0 0 0 0 0.25 0"/>
<feBlend mode="normal" in2="BackgroundImageFix" result="effect1_dropShadow_8_27"/>
<feBlend mode="normal" in="SourceGraphic" in2="effect1_dropShadow_8_27" result="shape"/>
</filter>
</defs>
</svg>
