<svg width="21" height="21" viewBox="0 0 21 21" fill="none" xmlns="http://www.w3.org/2000/svg">
<g id="Coccyx" filter="url(#filter0_d_8_74)">
<mask id="path-1-outside-1_8_74" maskUnits="userSpaceOnUse" x="4.11743" y="0.124634" width="13" height="13" fill="black">
<rect fill="white" x="4.11743" y="0.124634" width="13" height="13"/>
<path d="M8.06869 4.52855C8.09536 4.89275 7.76617 5.18315 7.82256 5.57829C7.84694 5.75047 8.34682 6.62563 8.55485 6.51693C10.1116 5.69571 8.68592 7.81026 8.72936 7.99117C8.89853 8.69496 9.45023 8.64737 10.0499 8.5712C10.0644 8.99331 9.74055 8.99647 9.65368 9.29799C9.34049 10.3922 10.3212 12.3274 11.5976 11.8323C12.0769 11.6466 12.48 10.8444 12.5973 10.3636C12.7551 9.72406 12.2072 9.22022 12.4335 8.78382C12.3908 8.86634 12.8999 8.69497 12.9288 8.67672C13.1666 8.52755 13.3274 8.1078 13.3601 7.83644C13.4622 6.96681 11.9115 7.13107 12.4381 6.44949C12.7581 6.03452 13.4135 6.36064 13.6931 5.75999C13.9713 5.16173 13.4432 4.46427 12.8961 4.2905C13.5209 3.46531 14.5999 4.79753 15.2514 3.65655C15.7719 2.74567 16.0577 2.03869 15.669 1.12463C14.5489 1.20001 13.3479 1.69432 12.2163 1.95378C10.9895 2.23625 9.97069 1.97522 8.73699 1.95697C8.13576 1.94825 7.5749 1.9538 6.99958 1.85065C6.22156 1.7118 5.31782 1.18494 5.13112 2.22277C5.02216 2.83373 5.58376 4.29687 6.10041 4.62456C6.64982 4.96971 7.47736 4.48253 8.06869 4.52855Z"/>
<path d="M10.2694 10.2573C11.151 10.0819 10.719 11.3316 11.4978 10.7912C12.0228 10.4278 11.7485 9.96129 11.199 9.91924C11.4848 9.36065 10.9583 9.14247 10.5887 8.99886C11.0047 9.15199 11.9702 9.23688 11.9931 8.57038C11.5328 8.6053 11.151 8.46327 10.7091 8.4482C11.5481 8.32204 11.6616 8.18317 12.0876 7.67695C12.0517 7.69282 12.0228 7.6849 12.0015 7.65475C12.0662 7.68648 11.9481 7.45321 11.9915 7.51113C11.6578 7.36672 11.673 7.47779 11.5823 7.07789C10.7312 7.14851 10.9316 7.34688 10.6725 8.10145C10.7083 7.29372 10.3258 7.1382 9.77408 6.71925C9.98516 6.46614 10.7617 6.50978 11.1762 6.40742C11.1762 6.0702 11.151 5.93373 10.8165 5.78536C11.4924 5.62191 12.5493 5.41481 12.0906 4.42062C10.9743 4.35635 9.77256 4.66501 8.76975 4.18656C9.64912 4.57377 10.9003 4.04451 11.7927 3.84853C11.7165 3.62557 11.7568 3.39786 11.6921 3.15983C11.7744 3.37089 11.9954 3.60179 12.0853 3.75572C12.128 3.65654 12.1958 3.56686 12.2331 3.48989C12.9989 4.18099 13.4851 2.64249 13.5384 2.09581C13.751 2.73771 13.511 3.67239 14.478 3.26138C14.779 3.13364 15.5006 2.20213 15.5395 1.86015C15.4633 2.53776 15.4275 3.23124 14.888 3.65971C14.2585 4.158 13.6886 3.43436 13.0507 3.8533C12.3192 4.33334 12.7307 4.32302 13.0332 4.80068C13.889 6.15987 11.2699 5.77823 12.0243 7.15169C12.3916 7.16598 12.9745 7.33577 13.0386 7.81502C13.1117 8.37282 12.4404 8.38472 12.2323 8.68702C11.9854 9.04487 12.2483 9.48603 12.2362 9.91132C12.2209 10.4072 11.9367 11.353 11.4117 11.4958C10.7975 11.6632 10.0454 10.7381 10.3715 10.1485"/>
<path d="M6.59115 2.17038C7.50328 1.71812 7.86142 2.95987 8.17918 3.54544C8.10146 3.09317 7.83247 2.7004 7.72503 2.29574C8.2371 2.3981 8.60972 2.291 9.11341 2.27751C8.36511 2.27433 7.61529 2.02597 6.89671 2.06406"/>
<path d="M9.34964 4.61741C10.2343 4.49602 11.2432 4.90861 12.0929 4.7642C12.086 4.89909 12.1531 5.11173 12.1302 5.24582C12.7025 4.97367 12.5234 4.57296 12.1074 4.40634C11.5366 4.17624 10.1528 4.73007 9.55463 4.83164"/>
<path d="M11.9039 6.95856C11.3857 6.69473 10.5872 6.85794 10.1536 7.06473C10.8005 7.60349 11.7576 6.94035 12.5044 7.36977C12.4488 7.02037 12.0121 6.91894 11.6997 6.74543"/>
<path d="M11.8018 8.87347C11.2752 8.80127 10.8234 9.03533 10.3052 8.97503C10.6847 9.23449 11.1663 9.42811 11.577 9.60743C11.5839 9.27815 11.5153 8.99487 11.4962 8.66082"/>
</mask>
<path d="M8.06869 4.52855C8.09536 4.89275 7.76617 5.18315 7.82256 5.57829C7.84694 5.75047 8.34682 6.62563 8.55485 6.51693C10.1116 5.69571 8.68592 7.81026 8.72936 7.99117C8.89853 8.69496 9.45023 8.64737 10.0499 8.5712C10.0644 8.99331 9.74055 8.99647 9.65368 9.29799C9.34049 10.3922 10.3212 12.3274 11.5976 11.8323C12.0769 11.6466 12.48 10.8444 12.5973 10.3636C12.7551 9.72406 12.2072 9.22022 12.4335 8.78382C12.3908 8.86634 12.8999 8.69497 12.9288 8.67672C13.1666 8.52755 13.3274 8.1078 13.3601 7.83644C13.4622 6.96681 11.9115 7.13107 12.4381 6.44949C12.7581 6.03452 13.4135 6.36064 13.6931 5.75999C13.9713 5.16173 13.4432 4.46427 12.8961 4.2905C13.5209 3.46531 14.5999 4.79753 15.2514 3.65655C15.7719 2.74567 16.0577 2.03869 15.669 1.12463C14.5489 1.20001 13.3479 1.69432 12.2163 1.95378C10.9895 2.23625 9.97069 1.97522 8.73699 1.95697C8.13576 1.94825 7.5749 1.9538 6.99958 1.85065C6.22156 1.7118 5.31782 1.18494 5.13112 2.22277C5.02216 2.83373 5.58376 4.29687 6.10041 4.62456C6.64982 4.96971 7.47736 4.48253 8.06869 4.52855Z" fill="#F3D48C"/>
<path d="M10.2694 10.2573C11.151 10.0819 10.719 11.3316 11.4978 10.7912C12.0228 10.4278 11.7485 9.96129 11.199 9.91924C11.4848 9.36065 10.9583 9.14247 10.5887 8.99886C11.0047 9.15199 11.9702 9.23688 11.9931 8.57038C11.5328 8.6053 11.151 8.46327 10.7091 8.4482C11.5481 8.32204 11.6616 8.18317 12.0876 7.67695C12.0517 7.69282 12.0228 7.6849 12.0015 7.65475C12.0662 7.68648 11.9481 7.45321 11.9915 7.51113C11.6578 7.36672 11.673 7.47779 11.5823 7.07789C10.7312 7.14851 10.9316 7.34688 10.6725 8.10145C10.7083 7.29372 10.3258 7.1382 9.77408 6.71925C9.98516 6.46614 10.7617 6.50978 11.1762 6.40742C11.1762 6.0702 11.151 5.93373 10.8165 5.78536C11.4924 5.62191 12.5493 5.41481 12.0906 4.42062C10.9743 4.35635 9.77256 4.66501 8.76975 4.18656C9.64912 4.57377 10.9003 4.04451 11.7927 3.84853C11.7165 3.62557 11.7568 3.39786 11.6921 3.15983C11.7744 3.37089 11.9954 3.60179 12.0853 3.75572C12.128 3.65654 12.1958 3.56686 12.2331 3.48989C12.9989 4.18099 13.4851 2.64249 13.5384 2.09581C13.751 2.73771 13.511 3.67239 14.478 3.26138C14.779 3.13364 15.5006 2.20213 15.5395 1.86015C15.4633 2.53776 15.4275 3.23124 14.888 3.65971C14.2585 4.158 13.6886 3.43436 13.0507 3.8533C12.3192 4.33334 12.7307 4.32302 13.0332 4.80068C13.889 6.15987 11.2699 5.77823 12.0243 7.15169C12.3916 7.16598 12.9745 7.33577 13.0386 7.81502C13.1117 8.37282 12.4404 8.38472 12.2323 8.68702C11.9854 9.04487 12.2483 9.48603 12.2362 9.91132C12.2209 10.4072 11.9367 11.353 11.4117 11.4958C10.7975 11.6632 10.0454 10.7381 10.3715 10.1485" fill="#DCC06D"/>
<path d="M6.59115 2.17038C7.50328 1.71812 7.86142 2.95987 8.17918 3.54544C8.10146 3.09317 7.83247 2.7004 7.72503 2.29574C8.2371 2.3981 8.60972 2.291 9.11341 2.27751C8.36511 2.27433 7.61529 2.02597 6.89671 2.06406" fill="#CCB25C"/>
<path d="M9.34964 4.61741C10.2343 4.49602 11.2432 4.90861 12.0929 4.7642C12.086 4.89909 12.1531 5.11173 12.1302 5.24582C12.7025 4.97367 12.5234 4.57296 12.1074 4.40634C11.5366 4.17624 10.1528 4.73007 9.55463 4.83164" fill="#CCB25C"/>
<path d="M11.9039 6.95856C11.3857 6.69473 10.5872 6.85794 10.1536 7.06473C10.8005 7.60349 11.7576 6.94035 12.5044 7.36977C12.4488 7.02037 12.0121 6.91894 11.6997 6.74543" fill="#CCB25C"/>
<path d="M11.8018 8.87347C11.2752 8.80127 10.8234 9.03533 10.3052 8.97503C10.6847 9.23449 11.1663 9.42811 11.577 9.60743C11.5839 9.27815 11.5153 8.99487 11.4962 8.66082" fill="#CCB25C"/>
<path d="M8.06869 4.52855L8.38783 4.50518L8.36774 4.23086L8.09352 4.20952L8.06869 4.52855ZM7.82256 5.57829L8.1394 5.53342L8.13935 5.53308L7.82256 5.57829ZM8.55485 6.51693L8.70305 6.80055L8.70416 6.79997L8.55485 6.51693ZM8.72936 7.99117L8.4182 8.06587L8.41822 8.06595L8.72936 7.99117ZM10.0499 8.5712L10.3697 8.56023L10.3577 8.20953L10.0096 8.25375L10.0499 8.5712ZM9.65368 9.29799L9.34619 9.20939L9.34603 9.20993L9.65368 9.29799ZM11.5976 11.8323L11.482 11.5339L11.4819 11.5339L11.5976 11.8323ZM12.5973 10.3636L12.2867 10.287L12.2865 10.2877L12.5973 10.3636ZM12.4335 8.78382L12.7178 8.93081L12.1494 8.6365L12.4335 8.78382ZM12.9288 8.67672L12.7588 8.40566L12.7582 8.406L12.9288 8.67672ZM13.3601 7.83644L13.6778 7.8748L13.6779 7.87376L13.3601 7.83644ZM12.4381 6.44949L12.6913 6.64513L12.6915 6.64492L12.4381 6.44949ZM13.6931 5.75999L13.9832 5.89506L13.9833 5.8949L13.6931 5.75999ZM12.8961 4.2905L12.6409 4.09733L12.3675 4.4584L12.7992 4.59549L12.8961 4.2905ZM15.2514 3.65655L14.9736 3.4978L14.9736 3.49787L15.2514 3.65655ZM15.669 1.12463L15.9635 0.999427L15.8745 0.790083L15.6476 0.805356L15.669 1.12463ZM12.2163 1.95378L12.1448 1.64187L12.1445 1.64194L12.2163 1.95378ZM8.73699 1.95697L8.74172 1.63701L8.74163 1.63701L8.73699 1.95697ZM6.99958 1.85065L7.05605 1.53567L7.0558 1.53563L6.99958 1.85065ZM5.13112 2.22277L4.81618 2.16612L4.81609 2.16659L5.13112 2.22277ZM6.10041 4.62456L5.92901 4.89479L5.93018 4.89553L6.10041 4.62456ZM11.4978 10.7912L11.3156 10.5281L11.3153 10.5283L11.4978 10.7912ZM11.199 9.91924L10.9142 9.7735L10.6952 10.2016L11.1746 10.2383L11.199 9.91924ZM10.5887 8.99886L10.6992 8.69855L10.4728 9.29713L10.5887 8.99886ZM11.9931 8.57038L12.3129 8.58135L12.3251 8.22428L11.9689 8.2513L11.9931 8.57038ZM10.7091 8.4482L10.6615 8.13176L10.6982 8.76801L10.7091 8.4482ZM12.0876 7.67695L12.3324 7.88298L11.9579 7.38438L12.0876 7.67695ZM12.0015 7.65475L12.1423 7.36739L11.7402 7.83959L12.0015 7.65475ZM11.9915 7.51113L11.8645 7.80482L12.9707 8.28343L12.2476 7.31915L11.9915 7.51113ZM11.5823 7.07789L11.8944 7.00712L11.8329 6.736L11.5559 6.75899L11.5823 7.07789ZM10.6725 8.10145L10.3528 8.08728L10.9752 8.20537L10.6725 8.10145ZM9.77408 6.71925L9.52832 6.51431L9.31381 6.77154L9.58056 6.9741L9.77408 6.71925ZM11.1762 6.40742L11.2529 6.71809L11.4962 6.65802V6.40742H11.1762ZM10.8165 5.78536L10.7413 5.47432L9.82539 5.69581L10.6868 6.07787L10.8165 5.78536ZM12.0906 4.42062L12.3812 4.28655L12.3007 4.11218L12.109 4.10115L12.0906 4.42062ZM8.76975 4.18656L8.89871 3.8937L8.63196 4.47537L8.76975 4.18656ZM11.7927 3.84853L11.8613 4.16108L12.2114 4.08419L12.0955 3.74504L11.7927 3.84853ZM11.6921 3.15983L11.9902 3.04358L11.3833 3.24385L11.6921 3.15983ZM12.0853 3.75572L11.809 3.91712L12.1287 4.46447L12.3792 3.88219L12.0853 3.75572ZM12.2331 3.48989L12.4475 3.25233L12.1312 2.96687L11.9452 3.35022L12.2331 3.48989ZM13.5384 2.09581L13.8422 1.99519L13.22 2.06473L13.5384 2.09581ZM14.478 3.26138L14.353 2.96681L14.3528 2.96688L14.478 3.26138ZM15.5395 1.86015L15.8575 1.89591L15.2215 1.82402L15.5395 1.86015ZM14.888 3.65971L15.0866 3.9106L15.087 3.9103L14.888 3.65971ZM13.0507 3.8533L13.2263 4.12084L13.2264 4.12076L13.0507 3.8533ZM13.0332 4.80068L13.304 4.63019L13.3036 4.62947L13.0332 4.80068ZM12.0243 7.15169L11.7438 7.30575L11.831 7.46442L12.0119 7.47145L12.0243 7.15169ZM13.0386 7.81502L13.3558 7.77341L13.3557 7.77266L13.0386 7.81502ZM12.2323 8.68702L12.4957 8.86875L12.496 8.86843L12.2323 8.68702ZM12.2362 9.91132L12.556 9.92115L12.556 9.92049L12.2362 9.91132ZM11.4117 11.4958L11.3277 11.1871L11.3275 11.1871L11.4117 11.4958ZM8.17918 3.54544L7.89793 3.69806L8.49456 3.49124L8.17918 3.54544ZM7.72503 2.29574L7.78775 1.98195L7.28388 1.88123L7.41575 2.37786L7.72503 2.29574ZM9.11341 2.27751L9.12198 2.59739L9.11477 1.95751L9.11341 2.27751ZM12.0929 4.7642L12.4125 4.78045L12.4327 4.38185L12.0393 4.44872L12.0929 4.7642ZM12.1302 5.24582L11.8148 5.19204L11.7112 5.79943L12.2677 5.53481L12.1302 5.24582ZM12.1074 4.40634L11.9877 4.70313L11.9884 4.7034L12.1074 4.40634ZM10.1536 7.06473L10.0158 6.7759L9.56491 6.99095L9.94879 7.31063L10.1536 7.06473ZM12.5044 7.36977L12.3449 7.64718L12.9258 7.98121L12.8204 7.31946L12.5044 7.36977ZM10.3052 8.97503L10.3422 8.65717L10.1246 9.23919L10.3052 8.97503ZM11.577 9.60743L11.449 9.9007L11.887 10.0919L11.8969 9.61409L11.577 9.60743ZM8.06869 4.52855L7.74954 4.55192C7.75602 4.64036 7.72173 4.72621 7.64043 4.91558C7.57008 5.07945 7.46348 5.32718 7.50577 5.6235L7.82256 5.57829L8.13935 5.53308C8.12525 5.43426 8.15505 5.33921 8.22853 5.16805C8.29106 5.02239 8.40803 4.78094 8.38783 4.50518L8.06869 4.52855ZM7.82256 5.57829L7.50572 5.62316C7.51467 5.68635 7.53839 5.74976 7.55623 5.79345C7.57703 5.84441 7.60355 5.90086 7.63318 5.95873C7.69247 6.07451 7.77041 6.20804 7.85514 6.33276C7.93759 6.45412 8.03694 6.58279 8.141 6.67727C8.19195 6.72352 8.26034 6.77676 8.34269 6.81071C8.42747 6.84567 8.56376 6.87333 8.70305 6.80055L8.55485 6.51693L8.40665 6.23332C8.49394 6.18771 8.5691 6.2118 8.58663 6.21903C8.60173 6.22525 8.59675 6.22662 8.57119 6.20341C8.52226 6.15898 8.45611 6.07849 8.38454 5.97312C8.31524 5.87112 8.25064 5.76037 8.20284 5.66702C8.17893 5.62033 8.16078 5.58101 8.14876 5.55157C8.13378 5.51488 8.13654 5.51328 8.1394 5.53342L7.82256 5.57829ZM8.55485 6.51693L8.70416 6.79997C8.8879 6.70304 9.00255 6.66346 9.0659 6.65171C9.13552 6.6388 9.07461 6.66948 9.00699 6.60214C8.94827 6.54367 8.96825 6.49168 8.96372 6.55001C8.9601 6.59656 8.9431 6.67066 8.90745 6.7729C8.83684 6.97544 8.72087 7.21266 8.61529 7.4283C8.56485 7.53133 8.51497 7.63321 8.47951 7.71522C8.46196 7.75583 8.44409 7.80027 8.43121 7.84261C8.42477 7.86376 8.41744 7.89123 8.41292 7.92175C8.40913 7.9473 8.40286 8.002 8.4182 8.06587L8.72936 7.99117L9.04052 7.91646C9.05314 7.96903 9.04703 8.00865 9.04599 8.01563C9.04422 8.02758 9.04224 8.03302 9.04348 8.02894C9.04595 8.02084 9.05274 8.0021 9.06697 7.96918C9.09509 7.90413 9.13731 7.81754 9.1901 7.70972C9.29098 7.50367 9.42599 7.22966 9.51178 6.9836C9.55433 6.86154 9.59189 6.727 9.60179 6.59959C9.61078 6.48395 9.60324 6.29269 9.45858 6.14864C9.30502 5.99571 9.09974 5.99452 8.94918 6.02244C8.79235 6.05153 8.61101 6.12552 8.40555 6.2339L8.55485 6.51693ZM8.72936 7.99117L8.41822 8.06595C8.46989 8.2809 8.55665 8.46253 8.68601 8.60474C8.81702 8.74877 8.97547 8.83449 9.14066 8.88146C9.44894 8.96913 9.80479 8.9249 10.0903 8.88865L10.0499 8.5712L10.0096 8.25375C9.69537 8.29366 9.47551 8.31131 9.31572 8.26587C9.24688 8.24629 9.19821 8.21671 9.15945 8.1741C9.11905 8.12968 9.07341 8.05333 9.0405 7.91638L8.72936 7.99117ZM10.0499 8.5712L9.73012 8.58217C9.73226 8.64453 9.72184 8.67323 9.71575 8.68643C9.70851 8.70214 9.69591 8.72072 9.66201 8.75509C9.60961 8.8082 9.41849 8.95843 9.34619 9.20939L9.65368 9.29799L9.96117 9.38658C9.97573 9.33603 9.98999 9.33392 10.1176 9.20455C10.1737 9.14767 10.2448 9.06747 10.2969 8.95444C10.3502 8.83891 10.3748 8.70892 10.3697 8.56023L10.0499 8.5712ZM9.65368 9.29799L9.34603 9.20993C9.15731 9.86927 9.35995 10.7222 9.76178 11.3363C10.1646 11.9519 10.8691 12.4581 11.7133 12.1306L11.5976 11.8323L11.4819 11.5339C11.0497 11.7016 10.6257 11.4877 10.2973 10.9859C9.96799 10.4826 9.83686 9.82087 9.96133 9.38605L9.65368 9.29799ZM11.5976 11.8323L11.7132 12.1307C12.0536 11.9988 12.3207 11.6759 12.5054 11.3768C12.6974 11.0661 12.8411 10.7144 12.9082 10.4395L12.5973 10.3636L12.2865 10.2877C12.2362 10.4936 12.1197 10.7834 11.961 11.0404C11.795 11.309 11.6209 11.4801 11.482 11.5339L11.5976 11.8323ZM12.5973 10.3636L12.908 10.4402C13.0125 10.0167 12.878 9.64435 12.7925 9.39409C12.7456 9.25678 12.7146 9.16258 12.7026 9.07923C12.6919 9.00527 12.7005 8.96417 12.7176 8.93114L12.4335 8.78382L12.1494 8.6365C12.0534 8.82167 12.0456 9.00721 12.0691 9.17043C12.0912 9.32428 12.1448 9.47783 12.1869 9.60097C12.2793 9.87161 12.3399 10.0709 12.2867 10.287L12.5973 10.3636ZM12.4335 8.78382L12.1493 8.63683C12.1264 8.68107 12.0823 8.79234 12.1372 8.92158C12.1913 9.04876 12.2994 9.09418 12.3435 9.10834C12.4252 9.13457 12.5037 9.12482 12.5246 9.12246C12.5937 9.11468 12.675 9.09439 12.7398 9.07643C12.8095 9.05711 12.8803 9.03468 12.936 9.0158C12.9638 9.00636 12.9895 8.99724 13.0105 8.98931C13.0208 8.98542 13.0319 8.98112 13.0423 8.97671C13.0448 8.97565 13.0722 8.96462 13.0994 8.94744L12.9288 8.67672L12.7582 8.406C12.7739 8.39609 12.7865 8.39026 12.7879 8.38962C12.7899 8.38865 12.7914 8.38797 12.7923 8.3876C12.7931 8.38722 12.7936 8.387 12.7937 8.38696C12.7939 8.38691 12.7931 8.38721 12.7914 8.38791C12.7897 8.38858 12.7874 8.38947 12.7844 8.39058C12.7722 8.3952 12.7537 8.40182 12.7304 8.40972C12.6838 8.42552 12.6247 8.4442 12.5688 8.45969C12.5081 8.47654 12.4683 8.48476 12.453 8.48647C12.4506 8.48675 12.4553 8.48605 12.465 8.48617C12.4709 8.48625 12.5005 8.48657 12.5392 8.49898C12.5734 8.50996 12.675 8.55062 12.7262 8.67125C12.7784 8.79395 12.7353 8.89689 12.7178 8.93081L12.4335 8.78382ZM12.9288 8.67672L13.0989 8.94779C13.2945 8.82506 13.427 8.61724 13.511 8.43849C13.5985 8.25223 13.6571 8.04659 13.6778 7.8748L13.3601 7.83644L13.0424 7.79808C13.0304 7.89765 12.9922 8.03756 12.9317 8.16631C12.8677 8.30257 12.8009 8.37921 12.7588 8.40566L12.9288 8.67672ZM13.3601 7.83644L13.6779 7.87376C13.7168 7.54257 13.5907 7.29404 13.4064 7.11754C13.2414 6.95958 13.0252 6.85654 12.8818 6.7856C12.8017 6.746 12.7415 6.71577 12.6929 6.68594C12.6427 6.65506 12.6304 6.63946 12.6314 6.64084C12.6401 6.65261 12.6518 6.68163 12.648 6.71073C12.646 6.72622 12.6435 6.70697 12.6913 6.64513L12.4381 6.44949L12.1849 6.25386C12.101 6.36241 12.0318 6.48713 12.0134 6.62749C11.9932 6.78146 12.0389 6.91626 12.1173 7.02207C12.1881 7.11748 12.2813 7.18417 12.3578 7.23118C12.436 7.27922 12.5236 7.32248 12.5981 7.3593C12.7637 7.44119 12.8832 7.50274 12.9638 7.57986C13.025 7.63845 13.0545 7.6955 13.0423 7.79912L13.3601 7.83644ZM12.4381 6.44949L12.6915 6.64492C12.7598 6.55639 12.8473 6.54452 13.1405 6.48873C13.2655 6.46497 13.4281 6.42893 13.5827 6.34068C13.7466 6.24712 13.8856 6.10471 13.9832 5.89506L13.6931 5.75999L13.403 5.62492C13.3608 5.7156 13.3131 5.75766 13.2654 5.78486C13.2085 5.81736 13.1348 5.83834 13.021 5.86001C12.8366 5.89506 12.4365 5.92763 12.1847 6.25407L12.4381 6.44949ZM13.6931 5.75999L13.9833 5.8949C14.1803 5.47108 14.0806 5.03202 13.8771 4.69911C13.6755 4.36945 13.3473 4.09806 12.9929 3.98552L12.8961 4.2905L12.7992 4.59549C12.992 4.65672 13.2014 4.82093 13.3311 5.03301C13.4588 5.24184 13.4841 5.45064 13.403 5.62509L13.6931 5.75999ZM12.8961 4.2905L13.1512 4.48368C13.2431 4.3623 13.3344 4.32868 13.4505 4.32345C13.5991 4.31675 13.7601 4.35675 14 4.40553C14.2134 4.44893 14.4923 4.49876 14.7709 4.43214C15.0728 4.35991 15.33 4.16435 15.5293 3.81523L15.2514 3.65655L14.9736 3.49787C14.8472 3.71924 14.7251 3.78503 14.622 3.80969C14.4954 3.83996 14.3434 3.82225 14.1275 3.77836C13.9381 3.73986 13.6715 3.67284 13.4217 3.6841C13.1394 3.69681 12.8615 3.80611 12.6409 4.09733L12.8961 4.2905ZM15.2514 3.65655L15.5293 3.8153C15.7914 3.35655 16.0148 2.91586 16.1139 2.45969C16.2158 1.99012 16.1837 1.51739 15.9635 0.999427L15.669 1.12463L15.3745 1.24984C15.543 1.64594 15.5623 1.98372 15.4884 2.32387C15.4117 2.67743 15.2319 3.04566 14.9736 3.4978L15.2514 3.65655ZM15.669 1.12463L15.6476 0.805356C15.0521 0.845422 14.4449 0.995879 13.8594 1.16238C13.2623 1.33221 12.7001 1.51455 12.1448 1.64187L12.2163 1.95378L12.2879 2.26568C12.8641 2.13355 13.4683 1.93901 14.0345 1.77797C14.6124 1.61361 15.1658 1.47922 15.6905 1.44391L15.669 1.12463ZM12.2163 1.95378L12.1445 1.64194C11.5727 1.77359 11.0451 1.78006 10.4975 1.74867C9.96675 1.71825 9.36316 1.6462 8.74172 1.63701L8.73699 1.95697L8.73225 2.27694C9.34451 2.286 9.86718 2.35359 10.4609 2.38762C11.0379 2.42069 11.6331 2.41643 12.2881 2.26562L12.2163 1.95378ZM8.73699 1.95697L8.74163 1.63701C8.12835 1.62811 7.59932 1.63307 7.05605 1.53567L6.99958 1.85065L6.94311 2.16563C7.55049 2.27452 8.14316 2.26839 8.73234 2.27694L8.73699 1.95697ZM6.99958 1.85065L7.0558 1.53563C6.87871 1.50402 6.69587 1.45064 6.48834 1.39514C6.29254 1.34277 6.07158 1.28768 5.86144 1.27595C5.6486 1.26407 5.40557 1.294 5.19775 1.45329C4.9891 1.61322 4.87106 1.86102 4.81618 2.16612L5.13112 2.22277L5.44607 2.27943C5.48453 2.06561 5.54947 1.99008 5.58709 1.96124C5.62554 1.93177 5.69209 1.90749 5.82577 1.91496C5.96216 1.92257 6.12468 1.96037 6.32298 2.0134C6.50956 2.06331 6.73145 2.12785 6.94336 2.16567L6.99958 1.85065ZM5.13112 2.22277L4.81609 2.16659C4.77855 2.37709 4.8017 2.62887 4.8501 2.87216C4.89981 3.12201 4.98197 3.39103 5.08365 3.64774C5.18524 3.90421 5.30935 4.15607 5.44628 4.36966C5.57884 4.57643 5.74121 4.77567 5.92901 4.89479L6.10041 4.62456L6.27181 4.35434C6.20129 4.30961 6.09971 4.20307 5.98507 4.02425C5.87479 3.85224 5.76844 3.63869 5.67867 3.41205C5.58899 3.18564 5.51889 2.95384 5.4778 2.74728C5.4354 2.53416 5.42921 2.37394 5.44615 2.27896L5.13112 2.22277ZM6.10041 4.62456L5.93018 4.89553C6.32373 5.14276 6.78707 5.07439 7.13418 5.00199C7.22589 4.98286 7.31757 4.96135 7.40338 4.9414C7.49074 4.92109 7.57251 4.90227 7.6516 4.88648C7.81289 4.85428 7.94076 4.83956 8.04386 4.84759L8.06869 4.52855L8.09352 4.20952C7.90095 4.19453 7.70363 4.22346 7.52628 4.25887C7.43605 4.27689 7.34514 4.29787 7.25845 4.31803C7.17022 4.33854 7.08651 4.35816 7.00349 4.37547C6.65164 4.44887 6.4265 4.45151 6.27064 4.3536L6.10041 4.62456ZM10.2694 10.2573L10.3318 10.5711C10.4767 10.5423 10.5071 10.5784 10.5125 10.5831C10.5455 10.6121 10.5726 10.6631 10.6299 10.7916C10.6532 10.8437 10.6867 10.9192 10.7304 10.9869C10.7751 11.0562 10.8482 11.1464 10.9665 11.2014C11.2211 11.3195 11.4783 11.1942 11.6802 11.0542L11.4978 10.7912L11.3153 10.5283C11.1278 10.6585 11.147 10.5795 11.236 10.6209C11.2716 10.6374 11.28 10.6583 11.2683 10.6401C11.2555 10.6203 11.2409 10.5901 11.2144 10.5307C11.1722 10.4362 11.0932 10.2414 10.935 10.1023C10.7491 9.93896 10.5029 9.88455 10.207 9.94342L10.2694 10.2573ZM11.4978 10.7912L11.6799 11.0544C11.8461 10.9393 11.9761 10.7977 12.0455 10.63C12.1173 10.4566 12.1159 10.2733 12.0455 10.1088C11.9101 9.79258 11.5674 9.62649 11.2235 9.60017L11.199 9.91924L11.1746 10.2383C11.3802 10.254 11.4493 10.3422 11.4571 10.3607C11.4583 10.3635 11.4615 10.3676 11.4542 10.3852C11.4445 10.4085 11.4119 10.4615 11.3156 10.5281L11.4978 10.7912ZM11.199 9.91924L11.4839 10.065C11.5773 9.88248 11.6198 9.69655 11.5928 9.51321C11.5655 9.32864 11.4733 9.18472 11.366 9.07732C11.168 8.87895 10.8764 8.76736 10.7046 8.70058L10.5887 8.99886L10.4728 9.29713C10.6705 9.37397 10.827 9.44327 10.9132 9.52954C10.948 9.56446 10.957 9.5888 10.9596 9.60672C10.9625 9.62589 10.9637 9.6767 10.9142 9.7735L11.199 9.91924ZM10.5887 8.99886L10.4781 9.29916C10.7264 9.39052 11.1259 9.46063 11.4842 9.40867C11.6651 9.38244 11.8651 9.32088 12.0271 9.18606C12.2002 9.0421 12.3042 8.8356 12.3129 8.58135L11.9931 8.57038L11.6733 8.55941C11.6706 8.63842 11.6453 8.67125 11.6179 8.69404C11.5795 8.72597 11.5077 8.75857 11.3924 8.77529C11.1583 8.80923 10.8671 8.76033 10.6992 8.69855L10.5887 8.99886ZM11.9931 8.57038L11.9689 8.2513C11.7776 8.26581 11.5976 8.24422 11.3943 8.21199C11.1991 8.18101 10.9663 8.13679 10.72 8.12838L10.7091 8.4482L10.6982 8.76801C10.8938 8.77469 11.0729 8.80901 11.2941 8.84409C11.5073 8.87791 11.7483 8.90987 12.0173 8.88947L11.9931 8.57038ZM10.7091 8.4482L10.7567 8.76464C11.183 8.70054 11.4754 8.62737 11.7198 8.47828C11.96 8.33178 12.1294 8.12424 12.3324 7.88298L12.0876 7.67695L11.8427 7.47092C11.6198 7.73588 11.5194 7.85088 11.3866 7.93191C11.258 8.01035 11.0742 8.0697 10.6615 8.13176L10.7091 8.4482ZM12.0876 7.67695L11.9579 7.38438C11.9866 7.37167 12.0461 7.35415 12.1201 7.37354C12.1956 7.3933 12.2412 7.43952 12.2627 7.4699L12.0015 7.65475L11.7402 7.83959C11.7831 7.90012 11.8538 7.96538 11.958 7.99267C12.0608 8.01959 12.1527 7.9981 12.2172 7.96952L12.0876 7.67695ZM12.0015 7.65475L11.8606 7.9421C11.8859 7.95448 11.9375 7.97644 12.0057 7.97767C12.0423 7.97834 12.0858 7.97304 12.1314 7.95529C12.1778 7.93719 12.218 7.90933 12.2503 7.87523C12.3118 7.81024 12.33 7.73873 12.3362 7.70273C12.3429 7.66402 12.3416 7.6315 12.3402 7.61269C12.3372 7.57496 12.3291 7.54234 12.3243 7.52464C12.3187 7.5041 12.3125 7.48485 12.3075 7.4702C12.3025 7.45557 12.2973 7.44097 12.2941 7.43214C12.2898 7.42003 12.2896 7.41917 12.2905 7.42198C12.2909 7.42338 12.2919 7.42664 12.293 7.43118C12.294 7.43518 12.2961 7.44387 12.2979 7.45542C12.2992 7.46365 12.3034 7.49052 12.3009 7.52546C12.2997 7.54329 12.296 7.57565 12.2819 7.61365C12.2677 7.652 12.2367 7.71207 12.1715 7.75995C12.1014 7.8114 12.0234 7.82559 11.9597 7.82103C11.9027 7.81694 11.8604 7.79852 11.8384 7.78739C11.7963 7.76599 11.7697 7.74028 11.7632 7.73396C11.7527 7.7239 11.7455 7.7155 11.7425 7.71183C11.7389 7.70755 11.7365 7.70438 11.7355 7.70311L11.9915 7.51113L12.2476 7.31915C12.2439 7.31426 12.2391 7.30804 12.2334 7.30125C12.2282 7.29506 12.2193 7.28468 12.2073 7.27313C12.2011 7.26721 12.1922 7.25906 12.1809 7.25022C12.1702 7.2419 12.1523 7.22898 12.1282 7.21673C12.1058 7.20535 12.0629 7.18679 12.0055 7.18267C11.9754 7.1805 11.9398 7.18226 11.9016 7.19224C11.8627 7.20239 11.8258 7.21983 11.7928 7.24399C11.7273 7.29207 11.6962 7.35245 11.6818 7.3912C11.6676 7.4296 11.6638 7.46247 11.6625 7.48092C11.6611 7.50087 11.6618 7.51733 11.6626 7.52807C11.6635 7.53933 11.6647 7.54882 11.6658 7.55577C11.6696 7.57954 11.6754 7.59886 11.6773 7.60522C11.6821 7.62125 11.6882 7.63838 11.6912 7.64683C11.6954 7.65857 11.6985 7.66711 11.7015 7.67604C11.7045 7.68494 11.7059 7.68966 11.7064 7.69132C11.7076 7.69582 11.7037 7.68364 11.7021 7.66241C11.7013 7.65185 11.6999 7.6266 11.7055 7.5939C11.7107 7.56391 11.727 7.49715 11.7854 7.43539C11.8161 7.40291 11.8546 7.37628 11.8989 7.359C11.9423 7.34206 11.9835 7.33717 12.0173 7.33778C12.0505 7.33838 12.0777 7.34422 12.0969 7.34986C12.1164 7.35555 12.1317 7.36222 12.1423 7.36739L12.0015 7.65475ZM11.9915 7.51113L12.1186 7.21744C12.0218 7.17556 11.9481 7.15146 11.9037 7.13616C11.8469 7.11662 11.8712 7.1204 11.8984 7.1426C11.9395 7.17621 11.9478 7.21194 11.9402 7.1899C11.9305 7.16173 11.9183 7.1126 11.8944 7.00712L11.5823 7.07789L11.2703 7.14865C11.2917 7.24312 11.3116 7.33008 11.335 7.39807C11.3605 7.47219 11.4029 7.56416 11.4932 7.63804C11.5696 7.70051 11.6584 7.7286 11.6955 7.74134C11.7448 7.75833 11.7944 7.7745 11.8645 7.80482L11.9915 7.51113ZM11.5823 7.07789L11.5559 6.75899C11.1377 6.79368 10.8082 6.86324 10.6287 7.17252C10.5571 7.29575 10.5221 7.44061 10.4935 7.55668C10.462 7.6849 10.4292 7.82474 10.3698 7.99753L10.6725 8.10145L10.9752 8.20537C11.0454 8.00088 11.0847 7.83296 11.115 7.70954C11.1483 7.57399 11.165 7.52336 11.1821 7.49386C11.1862 7.48688 11.1884 7.47706 11.2323 7.46022C11.2928 7.43696 11.4021 7.41394 11.6088 7.39679L11.5823 7.07789ZM10.6725 8.10145L10.9922 8.11563C11.0128 7.65147 10.9118 7.32662 10.6895 7.05974C10.5865 6.93613 10.4658 6.83507 10.3463 6.74395C10.2864 6.6982 10.2231 6.65229 10.1607 6.60694C10.0973 6.56089 10.0335 6.51447 9.96761 6.4644L9.77408 6.71925L9.58056 6.9741C9.65255 7.02877 9.72141 7.07886 9.78442 7.12465C9.8484 7.17115 9.90525 7.21243 9.95816 7.2528C10.0645 7.33391 10.1406 7.40076 10.1977 7.46937C10.2957 7.58691 10.368 7.74369 10.3528 8.08728L10.6725 8.10145ZM9.77408 6.71925L10.0198 6.9242C10.0124 6.93313 10.0277 6.91144 10.1169 6.88432C10.199 6.8594 10.3069 6.84054 10.4379 6.82441C10.5717 6.80794 10.7008 6.79732 10.8457 6.78195C10.981 6.76759 11.1262 6.74936 11.2529 6.71809L11.1762 6.40742L11.0995 6.09675C11.0189 6.11666 10.9116 6.13136 10.7781 6.14552C10.6543 6.15866 10.4983 6.17214 10.3597 6.1892C10.2185 6.20659 10.0668 6.23068 9.93089 6.27196C9.80223 6.31105 9.64131 6.37882 9.52832 6.51431L9.77408 6.71925ZM11.1762 6.40742H11.4962C11.4962 6.25034 11.4952 6.05437 11.4072 5.8808C11.3094 5.68798 11.1379 5.57784 10.9463 5.49284L10.8165 5.78536L10.6868 6.07787C10.7571 6.10905 10.7951 6.13276 10.8158 6.14907C10.8333 6.16284 10.8359 6.16927 10.8364 6.17035C10.8382 6.17394 10.8446 6.18793 10.8494 6.22735C10.8544 6.26909 10.8562 6.32405 10.8562 6.40742H11.1762ZM10.8165 5.78536L10.8917 6.09639C11.203 6.02112 11.707 5.91649 12.058 5.67983C12.2443 5.55421 12.4165 5.37373 12.4883 5.1163C12.56 4.85936 12.5165 4.57995 12.3812 4.28655L12.0906 4.42062L11.8 4.55468C11.894 4.75839 11.8905 4.87768 11.8719 4.9443C11.8534 5.01043 11.8052 5.07834 11.7001 5.1492C11.4684 5.3055 11.1059 5.38615 10.7413 5.47432L10.8165 5.78536ZM12.0906 4.42062L12.109 4.10115C11.5393 4.06834 10.9046 4.13033 10.3823 4.13895C9.83113 4.14804 9.34071 4.10441 8.90755 3.89775L8.76975 4.18656L8.63196 4.47537C9.20161 4.74716 9.81344 4.78842 10.3929 4.77886C11.0012 4.76883 11.5256 4.70862 12.0722 4.74009L12.0906 4.42062ZM8.76975 4.18656L8.6408 4.47943C9.17554 4.71489 9.79182 4.66108 10.34 4.54985C10.6193 4.49318 10.8965 4.41798 11.153 4.34684C11.414 4.2745 11.6489 4.20773 11.8613 4.16108L11.7927 3.84853L11.724 3.53598C11.4902 3.58732 11.2342 3.6602 10.982 3.73011C10.7255 3.80124 10.4677 3.8709 10.2127 3.92263C9.69235 4.02822 9.24333 4.04544 8.89871 3.8937L8.76975 4.18656ZM11.7927 3.84853L12.0955 3.74504C12.0728 3.67858 12.0651 3.6054 12.0574 3.48886C12.0504 3.38256 12.0433 3.23183 12.0008 3.07581L11.6921 3.15983L11.3833 3.24385C11.4056 3.32586 11.4107 3.40801 11.4188 3.53081C11.4262 3.64337 11.4364 3.79552 11.4899 3.95202L11.7927 3.84853ZM11.6921 3.15983L11.3939 3.27608C11.4523 3.42567 11.5521 3.56653 11.6289 3.67002C11.72 3.79262 11.7759 3.86049 11.809 3.91712L12.0853 3.75572L12.3616 3.59431C12.3048 3.49702 12.2052 3.37247 12.1427 3.28837C12.066 3.18516 12.0142 3.10504 11.9902 3.04358L11.6921 3.15983ZM12.0853 3.75572L12.3792 3.88219C12.3911 3.85467 12.4085 3.82378 12.4348 3.78044C12.4562 3.74509 12.4939 3.68546 12.521 3.62957L12.2331 3.48989L11.9452 3.35022C11.935 3.37129 11.9201 3.39498 11.8876 3.44851C11.86 3.49404 11.8222 3.55758 11.7913 3.62925L12.0853 3.75572ZM12.2331 3.48989L12.0187 3.72746C12.2724 3.9564 12.5671 4.04762 12.8612 3.94152C13.1187 3.84862 13.3015 3.6277 13.426 3.42384C13.6801 3.00791 13.8266 2.43786 13.8569 2.12688L13.5384 2.09581L13.22 2.06473C13.197 2.30044 13.0737 2.77299 12.8799 3.0902C12.7805 3.25291 12.6948 3.3212 12.6441 3.33949C12.63 3.34456 12.5767 3.36894 12.4475 3.25233L12.2331 3.48989ZM13.5384 2.09581L13.2347 2.19642C13.2768 2.32368 13.2987 2.47291 13.3217 2.64817C13.3425 2.80722 13.366 3.00738 13.4217 3.17456C13.4795 3.34795 13.596 3.55915 13.8498 3.64578C14.081 3.72469 14.3403 3.66762 14.6032 3.55589L14.478 3.26138L14.3528 2.96688C14.1322 3.06065 14.0588 3.04088 14.0565 3.04007C14.0565 3.04007 14.0565 3.04009 14.0566 3.04012C14.0567 3.04016 14.0569 3.04021 14.057 3.04028C14.0574 3.04043 14.0578 3.04063 14.0583 3.0409C14.0594 3.04147 14.0605 3.04215 14.0615 3.04286C14.0637 3.04442 14.0636 3.04487 14.0614 3.04221C14.0561 3.03552 14.0435 3.01605 14.0289 2.97232C13.9972 2.87696 13.9804 2.74878 13.9562 2.56489C13.9342 2.39721 13.9064 2.18888 13.8422 1.99519L13.5384 2.09581ZM14.478 3.26138L14.603 3.55595C14.7402 3.49772 14.8793 3.37527 14.9917 3.26286C15.1143 3.14022 15.2432 2.98996 15.3613 2.83544C15.4793 2.68099 15.5913 2.51617 15.678 2.36309C15.7577 2.22235 15.8398 2.05126 15.8574 1.89628L15.5395 1.86015L15.2215 1.82402C15.2217 1.82276 15.2211 1.82804 15.2173 1.84107C15.2136 1.85368 15.2078 1.87046 15.1991 1.89159C15.1816 1.93424 15.1556 1.98683 15.1211 2.04771C15.0522 2.16947 14.9576 2.30963 14.8528 2.44677C14.748 2.58384 14.6376 2.71179 14.5391 2.81042C14.4897 2.85975 14.4462 2.8989 14.4102 2.92732C14.3714 2.95793 14.3529 2.96685 14.353 2.96681L14.478 3.26138ZM15.5395 1.86015L15.2215 1.82439C15.1816 2.17923 15.1563 2.48777 15.079 2.76831C15.0047 3.03776 14.8894 3.24991 14.689 3.40912L14.888 3.65971L15.087 3.9103C15.426 3.64104 15.5984 3.29222 15.696 2.93841C15.7904 2.59569 15.8212 2.21869 15.8575 1.89591L15.5395 1.86015ZM14.888 3.65971L14.6893 3.40881C14.5011 3.55783 14.3396 3.53943 14.0413 3.47374C13.7607 3.41195 13.3226 3.2919 12.8751 3.58584L13.0507 3.8533L13.2264 4.12076C13.4167 3.99576 13.5825 4.02806 13.9037 4.09877C14.2072 4.1656 14.6454 4.25987 15.0866 3.9106L14.888 3.65971ZM13.0507 3.8533L12.8752 3.58576C12.6909 3.70666 12.5415 3.81937 12.4476 3.93602C12.3974 3.99832 12.3499 4.07762 12.3303 4.17488C12.3095 4.27802 12.3259 4.37262 12.3592 4.45191C12.3897 4.5243 12.4334 4.58211 12.4673 4.62272C12.5013 4.66338 12.5415 4.70528 12.5729 4.7385C12.6408 4.81031 12.7049 4.88036 12.7629 4.9719L13.0332 4.80068L13.3036 4.62947C13.2103 4.48218 13.1095 4.37439 13.038 4.2988C12.9997 4.25831 12.9766 4.23411 12.9585 4.21246C12.9404 4.19075 12.9434 4.19004 12.9492 4.20386C12.9579 4.22458 12.9659 4.26058 12.9577 4.30126C12.9507 4.33606 12.9367 4.34903 12.9461 4.33733C12.9714 4.30598 13.0448 4.23996 13.2263 4.12084L13.0507 3.8533ZM13.0332 4.80068L12.7624 4.97118C12.8532 5.11542 12.8807 5.21002 12.8861 5.26622C12.8907 5.31411 12.8808 5.34485 12.8612 5.37553C12.8367 5.4137 12.7906 5.46009 12.709 5.51663C12.6273 5.57322 12.5302 5.62657 12.4141 5.6896C12.2097 5.80058 11.901 5.95885 11.7226 6.21151C11.6238 6.35146 11.5626 6.52035 11.5662 6.71792C11.5697 6.90901 11.6333 7.10452 11.7438 7.30575L12.0243 7.15169L12.3048 6.99764C12.2267 6.85551 12.2071 6.76249 12.2061 6.70625C12.2052 6.6565 12.2182 6.61925 12.2455 6.5806C12.3193 6.47605 12.4704 6.38726 12.7194 6.25207C12.8301 6.19201 12.9582 6.1225 13.0733 6.04279C13.1885 5.96304 13.3109 5.8597 13.3999 5.72105C13.4936 5.57491 13.5421 5.40175 13.5232 5.20499C13.505 5.01654 13.4271 4.82574 13.304 4.63019L13.0332 4.80068ZM12.0243 7.15169L12.0119 7.47145C12.1609 7.47725 12.3494 7.51564 12.4972 7.59272C12.6421 7.6683 12.7079 7.75679 12.7214 7.85738L13.0386 7.81502L13.3557 7.77266C13.3052 7.394 13.0475 7.15797 12.7932 7.02528C12.5416 6.89407 12.2551 6.84043 12.0367 6.83194L12.0243 7.15169ZM13.0386 7.81502L12.7213 7.85663C12.7304 7.92611 12.7157 7.95259 12.706 7.9672C12.6894 7.9923 12.6542 8.02583 12.5766 8.07222C12.5391 8.09468 12.498 8.11655 12.4496 8.1419C12.4038 8.1659 12.3491 8.19422 12.2969 8.22426C12.1963 8.28207 12.0629 8.3687 11.9687 8.50562L12.2323 8.68702L12.496 8.86843C12.5057 8.8542 12.5343 8.82597 12.6158 8.7791C12.6546 8.7568 12.6961 8.73531 12.7467 8.70878C12.7947 8.68361 12.8504 8.65423 12.9052 8.62144C13.0123 8.55734 13.1442 8.46441 13.2394 8.32096C13.3415 8.16701 13.3833 7.98282 13.3558 7.77341L13.0386 7.81502ZM12.2323 8.68702L11.9689 8.5053C11.7724 8.79015 11.7938 9.09662 11.8303 9.32448C11.8463 9.42432 11.8768 9.56784 11.891 9.64721C11.9087 9.74643 11.9184 9.82849 11.9163 9.90215L12.2362 9.91132L12.556 9.92049C12.56 9.7815 12.5414 9.64893 12.521 9.53464C12.497 9.4005 12.4796 9.33162 12.4622 9.22328C12.432 9.03478 12.4454 8.94175 12.4957 8.86875L12.2323 8.68702ZM12.2362 9.91132L11.9163 9.90149C11.91 10.1066 11.8449 10.4269 11.722 10.7076C11.5903 11.008 11.4405 11.1564 11.3277 11.1871L11.4117 11.4958L11.4957 11.8046C11.9079 11.6925 12.1626 11.2966 12.3082 10.9644C12.4624 10.6125 12.5471 10.2119 12.556 9.92115L12.2362 9.91132ZM11.4117 11.4958L11.3275 11.1871C11.2006 11.2217 10.9786 11.1467 10.7902 10.9079C10.6042 10.672 10.578 10.4363 10.6515 10.3035L10.3715 10.1485L10.0915 9.99364C9.83885 10.4503 10.0256 10.972 10.2877 11.3042C10.5474 11.6335 11.0085 11.9374 11.4958 11.8046L11.4117 11.4958ZM6.59115 2.17038L6.7333 2.45708C6.89574 2.37653 6.99703 2.38571 7.06797 2.41206C7.15261 2.4435 7.24731 2.51989 7.35128 2.65969C7.45399 2.79778 7.54636 2.97106 7.63707 3.15904C7.72138 3.33372 7.81402 3.54344 7.89793 3.69806L8.17918 3.54544L8.46044 3.39281C8.38547 3.25465 8.31418 3.08957 8.21346 2.88087C8.11915 2.68545 8.0054 2.46677 7.86483 2.27776C7.72552 2.09045 7.53981 1.90461 7.29083 1.81212C7.02815 1.71454 6.74262 1.7381 6.44899 1.88369L6.59115 2.17038ZM8.17918 3.54544L8.49456 3.49124C8.44846 3.22299 8.34708 2.98039 8.25612 2.77379C8.15992 2.5553 8.07992 2.3854 8.03431 2.21362L7.72503 2.29574L7.41575 2.37786C7.47758 2.61075 7.58579 2.83956 7.67038 3.03168C7.76021 3.2357 7.83218 3.41563 7.86381 3.59964L8.17918 3.54544ZM7.72503 2.29574L7.66231 2.60953C7.95673 2.66839 8.20914 2.66605 8.44508 2.64926C8.69497 2.63147 8.87589 2.60398 9.12198 2.59739L9.11341 2.27751L9.10485 1.95762C8.84725 1.96452 8.59001 1.99733 8.39965 2.01087C8.19533 2.02542 8.0054 2.02545 7.78775 1.98195L7.72503 2.29574ZM9.11341 2.27751L9.11477 1.95751C8.76995 1.95605 8.4221 1.89811 8.04314 1.83912C7.67496 1.7818 7.2768 1.72347 6.87978 1.74451L6.89671 2.06406L6.91365 2.38361C7.23521 2.36657 7.57125 2.41337 7.9447 2.4715C8.30737 2.52796 8.70858 2.59579 9.11206 2.59751L9.11341 2.27751ZM9.34964 4.61741L9.39314 4.93444C9.78132 4.88118 10.2064 4.94426 10.6872 5.01594C11.1455 5.08425 11.6624 5.16196 12.1465 5.07968L12.0929 4.7642L12.0393 4.44872C11.6738 4.51085 11.2614 4.45446 10.7816 4.38293C10.3243 4.31477 9.80265 4.23225 9.30613 4.30038L9.34964 4.61741ZM12.0929 4.7642L11.7733 4.74795C11.7678 4.85639 11.7911 4.98592 11.8011 5.05289C11.8075 5.09543 11.8119 5.12838 11.8139 5.1561C11.816 5.18512 11.8143 5.19467 11.8148 5.19204L12.1302 5.24582L12.4457 5.2996C12.4673 5.17303 12.4455 5.03408 12.434 4.95773C12.418 4.85113 12.4111 4.8069 12.4125 4.78045L12.0929 4.7642ZM12.1302 5.24582L12.2677 5.53481C12.6048 5.3745 12.8647 5.10029 12.8053 4.73508C12.7537 4.41828 12.4793 4.21057 12.2263 4.10927L12.1074 4.40634L11.9884 4.7034C12.0604 4.73222 12.1116 4.76721 12.1426 4.7977C12.1742 4.82878 12.1746 4.84439 12.1736 4.83793C12.1713 4.82398 12.1792 4.81943 12.168 4.83476C12.1522 4.85646 12.1058 4.9031 11.9928 4.95684L12.1302 5.24582ZM12.1074 4.40634L12.227 4.10955C12.0116 4.0227 11.7553 4.02033 11.5211 4.04291C11.2787 4.06629 11.0158 4.12145 10.764 4.18408C10.5119 4.24679 10.2583 4.32029 10.039 4.38192C9.81289 4.44547 9.63091 4.49411 9.50106 4.51615L9.55463 4.83164L9.60819 5.14712C9.77743 5.11839 9.99275 5.05971 10.2122 4.99804C10.4385 4.93445 10.6786 4.86483 10.9185 4.80515C11.1588 4.74538 11.3863 4.69888 11.5826 4.67996C11.787 4.66024 11.9178 4.67492 11.9877 4.70313L12.1074 4.40634ZM11.9039 6.95856L12.0491 6.6734C11.7125 6.502 11.3126 6.48003 10.9634 6.51694C10.6097 6.55432 10.2663 6.65642 10.0158 6.7759L10.1536 7.06473L10.2913 7.35357C10.4744 7.26626 10.7471 7.18336 11.0307 7.15339C11.3187 7.12295 11.5772 7.15129 11.7587 7.24373L11.9039 6.95856ZM10.1536 7.06473L9.94879 7.31063C10.3907 7.67865 10.9316 7.61909 11.326 7.5764C11.7705 7.52828 12.0796 7.49465 12.3449 7.64718L12.5044 7.36977L12.6639 7.09237C12.1824 6.81548 11.6396 6.89871 11.2571 6.94011C10.8245 6.98694 10.5634 6.98958 10.3583 6.81883L10.1536 7.06473ZM12.5044 7.36977L12.8204 7.31946C12.7698 7.00188 12.5435 6.82277 12.3599 6.7154C12.2667 6.66094 12.1673 6.61498 12.0829 6.57624C11.9933 6.53506 11.9201 6.50179 11.8551 6.46567L11.6997 6.74543L11.5443 7.02518C11.6355 7.07582 11.7341 7.1203 11.8159 7.15786C11.903 7.19785 11.9748 7.23163 12.0368 7.26789C12.1635 7.34196 12.1833 7.38827 12.1884 7.42009L12.5044 7.36977ZM11.8018 8.87347L11.8453 8.55644C11.5264 8.51272 11.2356 8.56317 10.996 8.60443C10.7443 8.64779 10.5477 8.68109 10.3422 8.65717L10.3052 8.97503L10.2682 9.29288C10.5809 9.32927 10.8693 9.27569 11.1047 9.23514C11.3523 9.1925 11.5506 9.16203 11.7583 9.19051L11.8018 8.87347ZM10.3052 8.97503L10.1246 9.23919C10.5358 9.5203 11.0544 9.72844 11.449 9.9007L11.577 9.60743L11.705 9.31416C11.2781 9.12778 10.8336 8.94867 10.4858 8.71087L10.3052 8.97503ZM11.577 9.60743L11.8969 9.61409C11.9009 9.42591 11.8831 9.25436 11.864 9.09733C11.8444 8.93562 11.8245 8.79634 11.8157 8.6426L11.4962 8.66082L11.1768 8.67904C11.187 8.85935 11.211 9.02873 11.2287 9.17449C11.2469 9.32494 11.26 9.45967 11.2571 9.60077L11.577 9.60743Z" fill="#967348" mask="url(#path-1-outside-1_8_74)"/>
</g>
<defs>
<filter id="filter0_d_8_74" x="0.797455" y="0.790081" width="19.3719" height="19.4434" filterUnits="userSpaceOnUse" color-interpolation-filters="sRGB">
<feFlood flood-opacity="0" result="BackgroundImageFix"/>
<feColorMatrix in="SourceAlpha" type="matrix" values="0 0 0 0 0 0 0 0 0 0 0 0 0 0 0 0 0 0 127 0" result="hardAlpha"/>
<feOffset dy="4"/>
<feGaussianBlur stdDeviation="2"/>
<feComposite in2="hardAlpha" operator="out"/>
<feColorMatrix type="matrix" values="0 0 0 0 0 0 0 0 0 0 0 0 0 0 0 0 0 0 0.25 0"/>
<feBlend mode="normal" in2="BackgroundImageFix" result="effect1_dropShadow_8_74"/>
<feBlend mode="normal" in="SourceGraphic" in2="effect1_dropShadow_8_74" result="shape"/>
</filter>
</defs>
</svg>
