<svg width="58" height="170" viewBox="0 0 58 170" fill="none" xmlns="http://www.w3.org/2000/svg">
<g id="FemurRight">
<path d="M52.8171 148.808C47.9181 137.936 44.9089 126.833 41.3785 115.348C36.3744 99.066 31.6643 82.6701 27.1494 66.2694C25.3709 59.806 24.352 53.3854 22.5103 46.9687C20.8704 41.2614 17.5793 34.7329 19.0477 28.613C17.8201 31.2623 18.5592 37.7289 20.3431 39.853C20.4955 37.8694 20.8872 35.946 20.942 33.9338C21.0335 30.6196 19.8348 27.9108 20.6959 24.6116C21.2781 22.3748 24.0991 15.4012 27.4534 16.2716C25.3289 15.6828 21.8625 16.9286 20.2082 18.5115C22.7846 15.0877 26.6884 17.7307 29.3958 14.9076C30.6768 13.5715 31.2056 11.7552 31.0387 9.86921C30.7156 6.21457 25.7206 -0.0878344 21.7452 0.415215C17.561 0.945241 17.8932 6.92631 15.979 9.45742C14.884 10.9071 12.1164 12.2646 10.4201 12.3726C11.4862 9.61213 6.88286 11.0856 5.7467 11.5712C2.92953 12.7764 3.61458 13.8444 3.17337 16.608C2.76493 19.159 0.90942 21.4409 1.05496 23.9855C1.21346 26.7571 3.44998 28.2107 4.65625 30.4974C7.63421 36.1397 9.38074 42.4317 11.1966 48.6706C13.3181 55.9585 15.4997 62.975 16.6085 70.4303C17.8071 78.4854 20.6151 86.1494 22.3739 94.0696C24.41 103.238 27.0671 112.502 28.2406 121.792C29.3211 130.343 29.2076 140.26 27.9678 148.813C27.2881 153.505 23.6914 157.709 23.9306 162.559C24.0899 165.777 27.8108 169.478 30.9709 169.479C33.7568 169.481 36.0665 168.109 38.6703 167.266C42.536 166.015 45.405 167.534 49.0779 167.335C52.4925 167.151 54.5202 165.092 56.3071 162.167C59.5861 156.798 54.8959 153.421 52.8171 148.808Z" fill="#F3D48C"/>
<path d="M21.9209 0.236439C22.9011 0.164863 23.9228 0.475162 24.9072 1.0255C25.9585 1.61329 26.9794 2.48068 27.8808 3.47472C29.6784 5.45696 31.0331 7.97807 31.1992 9.8546L31.2226 10.215C31.2938 11.8912 30.8185 13.5009 29.75 14.756L29.5117 15.0187C28.8782 15.6792 28.1796 16.0483 27.4551 16.2677L27.4131 16.4269C27.4121 16.4266 27.4111 16.4261 27.4101 16.4259C27.4014 16.4235 27.3926 16.4224 27.3838 16.42C27.2819 16.3951 27.1803 16.3781 27.0791 16.3683C26.7106 16.4544 26.3375 16.5091 25.9638 16.548C25.6925 16.6605 25.4251 16.8208 25.1621 17.0206C24.439 17.5701 23.7657 18.4121 23.1719 19.3614C22.1328 21.0226 21.3559 22.9817 20.9853 24.1857L20.8515 24.6525C20.4287 26.2726 20.5106 27.7508 20.6904 29.2482C20.8471 30.5532 21.0803 31.8845 21.1054 33.3175L21.1025 33.9386C21.0748 34.9529 20.9627 35.9432 20.8388 36.9239C20.7147 37.9071 20.5797 38.8786 20.5039 39.8653L20.4736 40.2579C20.7161 41.011 20.9701 41.7594 21.2236 42.5011C21.7392 44.0097 22.2537 45.4925 22.665 46.9239L23.0019 48.13C23.7666 50.9418 24.392 53.7539 25.0107 56.5665C25.7182 59.7827 26.4167 62.9998 27.3047 66.2267L29.0068 72.3761C33.0011 86.723 37.1541 101.055 41.5322 115.301L42.8369 119.592C45.8456 129.561 48.6819 139.24 52.9638 148.742C53.4779 149.883 54.1549 150.95 54.8359 151.999C55.5146 153.045 56.1993 154.077 56.7158 155.134C57.2333 156.193 57.5872 157.286 57.5986 158.462C57.6093 159.566 57.3178 160.731 56.5947 161.996L56.4443 162.251C54.7036 165.101 52.7095 167.175 49.4101 167.473L49.0869 167.496C47.2321 167.596 45.5717 167.262 43.9277 167.066C42.3809 166.881 40.8274 166.812 39.0732 167.312L38.7197 167.42C38.074 167.629 37.445 167.87 36.8193 168.117C36.1949 168.364 35.5719 168.616 34.9433 168.841C33.7633 169.264 32.552 169.597 31.2353 169.637L30.9707 169.641C29.333 169.64 27.5748 168.684 26.2129 167.34C24.9356 166.079 23.9784 164.449 23.7959 162.88L23.7695 162.567C23.648 160.102 24.5026 157.808 25.457 155.564C26.416 153.309 27.4725 151.11 27.8086 148.79L27.9209 147.985C29.0153 139.902 29.1202 130.697 28.1787 122.616L28.081 121.813C26.9088 112.533 24.2558 103.286 22.2168 94.1046C21.3385 90.1495 20.1986 86.2595 19.126 82.3429C18.121 78.6736 17.1756 74.9838 16.5664 71.2101L16.4492 70.4542C15.6192 64.873 14.1868 59.5378 12.6269 54.1427L11.042 48.7159C9.28145 42.6672 7.59192 36.5893 4.78904 31.1017L4.51365 30.5724C3.9177 29.4427 3.07697 28.5338 2.33298 27.5187C1.64209 26.576 1.05419 25.5615 0.915992 24.2589L0.894507 23.9943C0.819598 22.6825 1.2609 21.4462 1.75779 20.2384C2.25911 19.0198 2.81419 17.8339 3.01462 16.5821C3.12366 15.899 3.16305 15.3213 3.20505 14.8116C3.24673 14.306 3.29118 13.8587 3.41501 13.4581C3.54083 13.0514 3.7483 12.6928 4.10935 12.3595C4.46701 12.0294 4.97099 11.7278 5.68357 11.423L5.93845 11.3204C6.61862 11.0592 7.86084 10.669 8.89744 10.5939C9.19512 10.5723 9.48188 10.5765 9.7363 10.6193C9.98965 10.6618 10.2216 10.745 10.4004 10.8898C10.5835 11.0381 10.7006 11.2433 10.7314 11.5069C10.7545 11.7047 10.7279 11.9304 10.6523 12.1866C11.4368 12.0879 12.4203 11.7524 13.3515 11.2745C14.3819 10.7458 15.3237 10.0579 15.8506 9.36046L16.0176 9.12218C16.3943 8.54271 16.6813 7.80888 16.9463 7.00109C17.2449 6.09056 17.5197 5.07007 17.8594 4.13097C18.5415 2.24498 19.5349 0.533557 21.7246 0.25597L21.9209 0.236439ZM24.751 1.30675C23.8 0.775073 22.8415 0.491323 21.9443 0.556751L21.7656 0.575306C19.7715 0.827898 18.8383 2.3708 18.1621 4.24035C17.8225 5.17914 17.5601 6.16232 17.2519 7.10167C16.9859 7.91274 16.6884 8.68048 16.2861 9.29894L16.1074 9.5548C15.5392 10.3069 14.5491 11.0223 13.498 11.5616C12.4467 12.1011 11.3088 12.4774 10.4306 12.5333L10.1797 12.5489L10.2705 12.3146C10.3983 11.9834 10.434 11.7317 10.4121 11.5441C10.3907 11.362 10.3143 11.2338 10.1982 11.1398C10.0776 11.0421 9.90445 10.9739 9.68259 10.9366C9.46177 10.8996 9.20289 10.8947 8.92087 10.9151C7.92812 10.9871 6.71948 11.3654 6.05759 11.6193L5.80955 11.7189C5.114 12.0165 4.64707 12.3005 4.32712 12.5958C4.0105 12.8881 3.83285 13.1965 3.72263 13.5528C3.61057 13.9152 3.56735 14.3287 3.52537 14.838C3.48372 15.3432 3.44343 15.9349 3.33201 16.6329C3.12394 17.9319 2.54773 19.1643 2.05564 20.3605C1.55916 21.5673 1.1453 22.7441 1.2158 23.9767L1.23533 24.2237C1.36453 25.4444 1.91531 26.4039 2.59275 27.3282C3.30807 28.3042 4.18857 29.2652 4.7988 30.422L5.07517 30.9552C7.89527 36.4766 9.59384 42.5871 11.3515 48.6261L12.9355 54.0509C14.4968 59.4506 15.9345 64.8048 16.7676 70.4064L16.8847 71.1593C17.4911 74.9147 18.4321 78.5908 19.4365 82.2579C20.5071 86.167 21.6507 90.0692 22.5312 94.0343L22.9189 95.753C24.8909 104.35 27.299 113.053 28.4004 121.772L28.498 122.579C29.4427 130.687 29.3383 139.92 28.2402 148.029L28.1269 148.836C27.7833 151.208 26.7023 153.457 25.7529 155.69C24.7989 157.933 23.9741 160.166 24.0918 162.551L24.1162 162.844C24.288 164.316 25.1938 165.882 26.4385 167.11C27.7666 168.421 29.4485 169.318 30.9707 169.318L31.2256 169.315C32.4937 169.277 33.6689 168.956 34.8349 168.538C35.4572 168.315 36.0734 168.066 36.7011 167.818C37.3278 167.571 37.965 167.326 38.6211 167.113L38.9863 167.002C40.7994 166.486 42.4009 166.559 43.9658 166.746C45.6407 166.947 47.2515 167.273 49.0693 167.175L49.3779 167.152C52.5284 166.869 54.4485 164.901 56.1699 162.083L56.3154 161.837C57.0138 160.615 57.2864 159.505 57.2763 158.465C57.2655 157.354 56.9316 156.308 56.4267 155.275C55.9208 154.24 55.2482 153.227 54.5654 152.175C53.8849 151.126 53.1962 150.04 52.6709 148.874C48.3795 139.351 45.5358 129.649 42.5283 119.683L41.2246 115.396C36.2199 99.1115 31.5093 82.7142 26.9941 66.3126C26.1036 63.0762 25.4032 59.8498 24.6963 56.6359C24.0774 53.8223 23.4536 51.0169 22.6914 48.214L22.3554 47.0128C21.9469 45.5909 21.4356 44.1172 20.9189 42.6056C20.5727 41.5927 20.2259 40.5626 19.9062 39.5235C19.5778 39.008 19.295 38.3534 19.0625 37.6222C18.7578 36.6643 18.5344 35.5635 18.4062 34.4484C18.2781 33.3332 18.2449 32.1994 18.3213 31.1759C18.3974 30.1548 18.583 29.2321 18.9013 28.545L19.2041 28.6505C18.4792 31.6717 18.927 34.8028 19.7685 37.9034C19.9029 38.3985 20.0492 38.8917 20.2002 39.3839C20.207 39.3944 20.2138 39.4048 20.2207 39.4151C20.2998 38.5638 20.4136 37.722 20.5195 36.8839C20.6432 35.9044 20.754 34.9273 20.7812 33.9298L20.7842 33.3204C20.7596 31.9159 20.5304 30.6127 20.3711 29.2862C20.1897 27.776 20.1019 26.2502 20.54 24.5714L20.6767 24.0939C21.0546 22.8657 21.8423 20.8801 22.8984 19.1915C23.5018 18.2268 24.1994 17.3479 24.9668 16.7648C25.0368 16.7115 25.1092 16.6627 25.1806 16.6144C25.0414 16.6243 24.9027 16.6345 24.7646 16.6446C24.3756 16.6732 23.9911 16.7062 23.6142 16.7618C22.3251 17.1941 21.1062 17.8751 20.3193 18.628L20.0801 18.4151C21.0879 17.0758 22.2966 16.6355 23.5351 16.4484C23.5584 16.4406 23.5812 16.4315 23.6045 16.4239C24.8044 16.0335 26.0676 15.8535 27.1094 16.0314C27.8861 15.8361 28.6187 15.4848 29.2793 14.796L29.5049 14.548C30.5141 13.3625 30.9697 11.8351 30.9013 10.2286L30.8789 9.88292C30.7215 8.10497 29.4167 5.64804 27.6426 3.69152C26.7581 2.71618 25.7642 1.87337 24.751 1.30675ZM18.8965 35.5743C18.9555 35.9053 19.0232 36.23 19.0986 36.545C19.0255 36.2219 18.9578 35.8983 18.8965 35.5743Z" fill="#967348"/>
<path d="M28.5668 165.087C30.4588 166.203 31.528 164.729 33.1792 164.762C33.0893 165.047 33.0093 165.288 32.9605 165.591C33.5839 165.864 34.4007 165.842 35.1033 165.599C32.1757 169.027 40.4374 168.222 40.8466 165.285C41.1933 162.805 34.4213 158.555 32.4287 158.718C32.5955 156.346 29.4774 155.954 28.0707 155.016C29.1855 150.949 31.0837 144.827 30.692 140.699C30.138 142.832 29.0743 150.176 30.4009 152.256C31.5112 153.995 33.3484 153.153 34.7939 152.838C35.2108 155.246 39.3676 157.518 41.1019 158.838C43.9176 160.979 48.6756 163.275 50.9235 159.045C51.4744 158.008 51.7488 155.285 51.4752 154.219C51.1003 152.764 49.4772 150.431 48.2344 152.575C50.4122 149.177 45.482 142.336 44.3168 139.204C43.2203 136.257 41.9287 133.609 41.5866 130.442C41.3427 128.192 41.3358 126.013 40.8352 123.791C38.4775 113.334 33.6243 103.706 32.1772 92.9191C31.0014 84.1467 28.1416 75.9329 25.0234 67.681C22.2268 60.2757 21.3101 52.3023 18.6964 44.8986C18.1668 43.3966 17.7599 40.072 16.1421 39.5975C16.3265 39.3166 16.8645 38.839 17.1297 38.7057C18.3771 39.5959 17.9709 41.5462 19.5399 42.135C19.9004 39.7229 17.5777 36.7689 16.2366 35.0931C13.6366 36.7221 14.1761 30.9267 14.0862 29.7024C13.9292 29.6722 13.773 29.6365 13.6191 29.5968C14.7004 27.4942 12.1834 27.1776 11.9259 25.693C11.7278 24.5481 13.2221 22.9771 13.2586 21.7234C13.2899 20.6665 12.7931 18.9606 12.2612 18.1291C13.0681 19.3915 14.3041 21.3759 15.662 22.0241C16.7075 22.5232 17.6684 21.7107 18.2971 20.9363C19.1041 19.9445 19.9468 18.9836 20.9801 18.2402C21.2926 18.0156 24.6111 16.1931 24.7933 16.8143C24.999 17.515 23.5474 18.1211 23.1885 18.5544C22.4257 19.478 21.733 20.5023 21.2133 21.5973C20.4383 23.2302 19.8806 25.4368 20.0131 27.2704C20.1366 28.9637 20.4833 30.7204 20.5778 32.4223C20.625 33.2475 20.5359 34.0513 20.4002 34.8495C20.2311 35.8461 20.2364 37.3505 19.8577 38.2137C19.1109 36.6125 18.8511 34.3663 18.7375 32.5937C18.6766 31.6678 18.7726 30.5553 19.0385 29.6786C19.1848 29.1962 19.5727 28.4709 19.1376 28.0274C18.7025 28.2853 18.5592 29.3342 18.4259 29.8412C17.0024 35.2835 19.5018 40.2958 21.2697 45.2652C23.4978 51.5287 23.7127 58.3841 25.9165 64.7865C28.7527 73.0201 30.1197 81.2998 32.1917 89.7493C35.4089 102.87 39.4811 115.511 43.3636 128.399C45.2465 134.652 48.053 140.498 50.2994 146.568C52.3348 152.066 58.3699 156.058 54.7496 162.62C53.4633 164.951 51.1735 166.543 48.6169 166.904C47.7802 167.022 40.7712 165.128 41.457 164.47C39.8278 166.035 39.1321 167.328 36.7561 168.051C34.4869 168.741 32.0812 168.448 29.9407 167.501C28.1172 166.694 25.5751 166.001 24.6508 163.973C23.5939 161.652 24.778 158.04 26.3493 156.292C26.4743 159.726 32.1101 159.939 30.5495 163.512C30.2668 162.149 28.374 158.924 26.6564 159.99C24.6607 161.226 27.41 164.404 28.5668 165.087Z" fill="#DCC06D"/>
<path d="M10.76 13.8103C10.7272 14.5585 10.8103 15.3536 11.1029 16.0407C11.6066 13.0145 15.8891 12.8114 16.7365 9.84939C15.9303 10.9325 14.3079 11.8545 13.1565 12.5083C12.204 13.0494 10.8949 13.5747 9.80442 13.6326C9.99036 13.0875 9.88672 12.5432 9.48438 12.125C8.88163 11.4966 8.47928 11.6854 7.82852 12.0663C8.55243 12.1671 8.81838 12.4979 8.13409 12.9597C7.22272 13.5755 6.32202 13.5937 5.57296 14.5204C6.1719 13.558 9.6886 12.2409 10.2022 13.892" fill="#DCC06D"/>
<path d="M8.66826 26.8904C8.87629 28.2281 8.01902 29.9531 6.93163 30.5926C6.71902 30.2721 5.87852 29.6571 5.50971 30.0063C5.13708 30.3578 5.60954 31.3567 5.77794 31.6757C5.4076 29.6976 3.71212 28.7256 2.88686 27.0364C3.93158 26.7904 4.64635 28.6431 5.6103 28.8201C6.20695 28.9295 6.91181 28.6463 7.40788 28.3281C7.71345 28.1329 8.73913 27.3434 8.66826 26.8904Z" fill="#DCC06D"/>
<path d="M19.3106 28.7383C19.101 30.1784 18.8236 31.3575 18.8991 32.827C18.9737 34.2758 19.2465 35.8405 19.7236 37.2021C19.5849 35.3843 19.2999 33.5816 19.4134 31.7416C19.4454 31.2139 19.6885 30.6228 19.6954 30.1221C19.7038 29.5881 19.3616 29.1597 19.3106 28.632" fill="#CCB25C"/>
<path d="M25.3053 16.4946C24.0236 17.0666 23.1374 18.2068 22.287 19.3105C22.9469 18.1156 21.1546 19.0463 20.8453 19.2026C19.7243 19.7715 18.717 20.4071 17.7926 21.2894C17.5015 21.5679 17.0961 22.3447 16.6557 22.3621C16.3669 22.3732 15.8701 21.9392 15.6156 21.8004C14.9076 21.4156 14.4177 21.0101 13.8271 20.4745C14.6051 21.2172 15.0113 21.7282 16.1398 21.6401C18.5524 21.4544 19.7129 18.7686 21.7566 17.6482C22.9126 17.0159 24.1806 16.9682 25.3053 16.4946Z" fill="#CCB25C"/>
<path d="M51.6779 161.153C52.3355 160.064 53.9998 155.707 52.0932 155.149C53.141 155.457 50.7208 147.888 50.6621 147.513C51.0797 147.709 51.0988 147.81 51.4592 147.465C52.0589 148.992 52.8354 150.437 53.7224 151.804C54.7275 153.348 56.3254 154.432 56.3734 156.487C55.5017 156.498 54.6886 160.276 54.1773 161.114C52.3744 164.071 48.8005 164.825 45.6816 164.484C44.9257 164.401 43.9671 164.636 43.2622 164.481C41.9241 164.184 40.9899 162.637 39.9886 161.793C39.0574 161.009 38.0912 160.56 37.0495 159.997C39.094 161.501 42.3691 163.988 44.899 164.255C47.2316 164.503 50.4099 163.253 51.6779 161.153Z" fill="#CCB25C"/>
</g>
</svg>
