<svg width="56" height="170" viewBox="0 0 56 170" fill="none" xmlns="http://www.w3.org/2000/svg">
<g id="FemurLeft">
<path d="M32.0719 160.037C31.7313 162.362 31.0089 164.648 29.6777 166.431C28.4668 168.053 27.0754 167.139 25.3837 166.999C23.455 166.841 21.8198 165.493 19.8126 165.308C17.0153 165.051 14.3109 165.727 11.8518 167.117C9.93537 168.199 7.76897 168.919 5.62695 168.977C5.90508 170.674 3.70743 169.188 3.28299 168.698C2.17121 167.416 1.69418 166.015 1.02589 164.494C0.624311 163.582 0.266166 162.978 0.334747 161.937C0.407901 160.853 0.482583 159.768 0.568691 158.684C0.647178 157.704 0.843005 156.786 0.726417 155.792C0.65936 155.224 0.544306 154.615 0.685279 154.049C0.823966 153.5 1.22478 153.07 1.52426 152.61C2.34952 151.337 3.15954 150.068 3.88422 148.729C5.34881 146.021 6.57793 143.185 7.78191 140.346C9.1764 137.059 10.3674 133.78 11.4952 130.401C12.194 128.306 12.7243 126.287 13.2722 124.149C14.8366 118.029 17.1273 112.205 18.6376 106.053C20.2203 99.6035 21.3565 93.0321 22.7029 86.5194C23.9275 80.6034 26.0825 74.9929 27.9723 69.2729C28.9835 66.2166 29.6975 63.0435 30.778 59.984C31.3792 58.2796 31.8844 56.5745 32.3074 54.8099C32.9017 52.3335 33.0244 49.896 33.4976 47.4006C34.0646 44.4196 35.0872 41.56 36.0344 38.6965C36.4573 37.419 36.8086 36.1296 37.2467 34.8514C37.9364 32.8447 37.8792 31.2586 37.9166 29.2123C38.3296 30.2073 38.3281 31.4459 38.0972 32.5742C37.656 34.7379 36.8566 37.0627 36.0732 39.1202C35.6694 38.0942 35.8393 36.9921 35.6381 35.7638C35.4492 34.6213 35.0872 33.4129 34.6079 32.3695C34.4121 31.9434 33.804 31.2388 33.7179 30.8333C33.4565 29.6003 34.7047 29.0584 35.2838 28.2126C36.5419 26.371 36.9869 23.1971 35.7547 21.2357C34.7047 19.5631 33.4085 17.6509 31.6094 16.8138C29.8743 16.0069 27.3802 15.9648 26.1632 14.2898C22.7067 9.52754 26.4612 5.81022 29.7813 2.65148C31.7069 0.819397 34.4669 -0.302548 36.9419 1.2796C39.6379 3.00218 38.0141 7.09243 36.6333 9.06337C37.4441 7.32174 38.2945 6.39658 38.389 4.36217C38.5147 4.31297 38.6557 4.27329 38.786 4.24076C39.6075 5.8721 40.0456 7.91286 41.3548 9.34425C42.8575 10.9899 45.5306 12.4713 47.7687 12.2181C47.0204 12.2935 44.7655 12.0055 44.5232 10.9819C44.3952 10.4368 45.1382 9.30537 45.1519 8.61189C46.8923 7.97872 49.3841 7.49233 51.0049 8.74519C51.7974 9.35774 51.9056 10.1734 52.2904 11.0184C52.7172 11.9491 53.4198 12.6403 54.0652 13.3179C53.2529 14.493 53.9029 16.8257 54.3121 18.0778C54.9064 19.894 56.243 21.1627 55.6273 23.213C54.9765 25.3752 53.1851 26.8494 52.1998 28.8132C49.3376 34.5205 47.7206 40.8483 46.0305 47.1269C44.3922 53.2182 42.654 59.2977 41.5857 65.5318C41.0827 68.4541 41.1109 71.3153 40.2697 74.1797C39.4192 77.0829 38.1635 79.8322 37.1317 82.6656C35.6999 86.5924 34.6841 90.6073 33.6363 94.6547C32.5565 98.8267 32.0513 103.089 30.954 107.267C30.3802 109.458 30.1029 111.644 29.4894 113.809C28.7754 116.338 27.8755 118.826 27.6316 121.469C27.3627 124.408 27.2285 127.385 27.1645 130.332C27.1211 132.412 27.6073 134.373 27.6789 136.399C27.7635 138.783 27.7597 141.077 27.9814 143.477C28.1353 145.143 28.4394 146.643 29.1366 148.153C29.808 149.605 30.7376 150.542 31.6932 151.747C32.5139 152.785 32.2906 154.303 32.3196 155.764C32.3485 157.13 32.2837 158.593 32.0719 160.037Z" fill="#F3D48C"/>
<path d="M30.046 2.19586C31.9718 0.546135 34.6206 -0.395021 37.0284 1.14411L37.2823 1.32184C38.211 2.03553 38.5528 3.0549 38.5548 4.13629C38.6203 4.11698 38.6856 4.09992 38.7472 4.08453L38.8722 4.05328L38.9298 4.16852C39.3433 4.98975 39.6667 5.92716 40.0362 6.80524C40.41 7.69322 40.8382 8.54097 41.4737 9.2359L41.7628 9.53668C42.4683 10.2319 43.3774 10.8794 44.3556 11.3482C44.4351 11.3863 44.5165 11.42 44.5968 11.4556C44.5136 11.3585 44.4459 11.2515 44.4015 11.1324L44.3663 11.0191C44.3248 10.8425 44.3568 10.6365 44.4103 10.4371C44.4648 10.2338 44.5495 10.0116 44.6349 9.79352C44.7216 9.57223 44.8093 9.35449 44.8771 9.14801C44.9452 8.94035 44.9883 8.75793 44.9913 8.60895L44.9933 8.4986L45.0968 8.46051C45.976 8.14066 47.0511 7.85522 48.1163 7.81012C49.181 7.76507 50.2524 7.95974 51.1036 8.61774L51.254 8.74274C51.586 9.0406 51.7889 9.377 51.9474 9.72809C52.0371 9.92692 52.1134 10.1329 52.1896 10.3365C52.2663 10.5417 52.3431 10.7463 52.4366 10.9517L52.6036 11.2789C53.0194 12.0201 53.6115 12.6079 54.1817 13.2066L54.2716 13.3013L54.1974 13.4097C53.8275 13.9451 53.7785 14.7692 53.8897 15.649C53.9999 16.52 54.2612 17.4045 54.4649 18.0279L54.5821 18.3541C54.7063 18.6758 54.8502 18.9839 54.9991 19.2877C55.1961 19.6894 55.4041 20.0894 55.5724 20.4957C55.8911 21.2655 56.079 22.0781 55.836 23.0601L55.7813 23.2593C55.4474 24.3688 54.8219 25.2969 54.1681 26.1832C53.592 26.964 52.9984 27.708 52.5343 28.5289L52.3438 28.8853C49.8473 33.8637 48.3003 39.3171 46.8194 44.8121L46.1856 47.1685C44.6488 52.8825 43.0279 58.575 41.9522 64.3931L41.7442 65.5591C41.4939 67.014 41.3756 68.4504 41.214 69.8951C41.0729 71.156 40.8992 72.4185 40.5733 73.6832L40.4239 74.2252C39.6786 76.7697 38.6173 79.2099 37.6769 81.6666L37.2833 82.7203C36.2118 85.6588 35.3736 88.6477 34.5792 91.6666L33.7921 94.6949C33.2538 96.7748 32.8587 98.8784 32.4601 100.989C32.1115 102.834 31.7607 104.684 31.3097 106.522L31.1095 107.308C30.9667 107.853 30.8426 108.398 30.7267 108.943L30.2286 111.398C30.1158 111.944 29.997 112.49 29.8614 113.036L29.6446 113.853C28.9713 116.238 28.145 118.552 27.8448 120.994L27.7921 121.484C27.5235 124.417 27.3892 127.391 27.3253 130.336C27.3039 131.363 27.4132 132.363 27.5382 133.366C27.6628 134.365 27.8038 135.371 27.8399 136.393L27.8917 138.17C27.9367 139.934 27.9758 141.667 28.1417 143.461L28.2062 144.075C28.3756 145.487 28.6813 146.783 29.2823 148.086L29.4093 148.347C29.8843 149.287 30.4706 150.008 31.1075 150.777L31.8194 151.647L31.9708 151.861C32.2953 152.372 32.419 152.967 32.464 153.585C32.4897 153.938 32.4895 154.303 32.4855 154.668C32.4814 155.034 32.4734 155.398 32.4806 155.76L32.4864 156.28C32.49 157.327 32.4367 158.421 32.3038 159.514L32.2315 160.06C31.9102 162.254 31.2492 164.426 30.0528 166.182L29.8067 166.528C29.4904 166.952 29.1547 167.218 28.797 167.372C28.4399 167.525 28.0728 167.559 27.7013 167.537C27.3323 167.514 26.9502 167.434 26.5655 167.355C26.274 167.295 25.979 167.234 25.6759 167.193L25.3702 167.16C24.3761 167.078 23.4617 166.69 22.5655 166.312C21.7741 165.978 20.9948 165.651 20.1593 165.514L19.7979 165.468C17.2095 165.23 14.6991 165.802 12.3897 167.007L11.9308 167.256C10.0488 168.319 7.92234 169.037 5.80576 169.129C5.83171 169.478 5.7467 169.737 5.51279 169.861C5.38774 169.927 5.24323 169.938 5.10264 169.923C4.96098 169.909 4.81008 169.865 4.66025 169.807C4.36048 169.691 4.04295 169.505 3.77549 169.319C3.57626 169.18 3.39777 169.037 3.27061 168.916L3.16123 168.803C2.31218 167.824 1.82522 166.773 1.35557 165.673L0.879004 164.558C0.483822 163.661 0.102164 163.016 0.173926 161.926L0.286231 160.299C0.324834 159.757 0.365206 159.214 0.408301 158.671L0.483497 157.936C0.566079 157.218 0.651998 156.541 0.566504 155.811L0.511817 155.382C0.456981 154.94 0.416851 154.462 0.529395 154.009L0.598731 153.791C0.679263 153.579 0.790953 153.386 0.910254 153.207C0.989804 153.087 1.07401 152.97 1.15537 152.857C1.23745 152.743 1.31726 152.633 1.38975 152.522C2.21478 151.25 3.02108 149.985 3.74229 148.652L4.2794 147.633C5.50907 145.244 6.5804 142.768 7.63389 140.283L8.14658 139.052C9.32242 136.181 10.3568 133.304 11.3429 130.35L11.5968 129.57C12.1723 127.755 12.637 125.98 13.1163 124.109L13.4181 122.962C14.1409 120.296 14.9853 117.679 15.8224 115.064C16.7795 112.074 17.7279 109.085 18.4815 106.015L18.7726 104.805C20.2055 98.7487 21.2813 92.5993 22.545 86.4869L22.7862 85.3785C24.0416 79.855 26.0508 74.5755 27.8194 69.2222L28.1847 68.0738C28.539 66.921 28.8642 65.7548 29.1944 64.5855C29.6343 63.028 30.0839 61.4653 30.6261 59.9302L30.8468 59.2935C31.3505 57.8057 31.7816 56.3114 32.1505 54.772L32.256 54.3121C32.4901 53.2377 32.6446 52.1679 32.7882 51.0914C32.9519 49.8633 33.1023 48.6239 33.3399 47.3707L33.4513 46.8101C34.0219 44.0881 34.9466 41.462 35.8136 38.8502C35.6899 38.4167 35.6458 37.9748 35.6192 37.5279C35.5856 36.9616 35.5783 36.3936 35.4796 35.7906L35.4015 35.3638C35.2299 34.5074 34.9664 33.6301 34.6339 32.8297L34.462 32.4371C34.3711 32.2393 34.182 31.9727 33.9884 31.6832C33.8943 31.5425 33.8003 31.3981 33.7247 31.2623C33.669 31.1622 33.6196 31.0601 33.587 30.9625L33.5606 30.8668C33.4149 30.179 33.6975 29.6847 34.0655 29.2711C34.2465 29.0676 34.4559 28.8745 34.6456 28.69C34.839 28.502 35.0154 28.3189 35.1505 28.1216L35.2638 27.9498C35.8138 27.073 36.1877 25.9218 36.2931 24.7545C36.3985 23.5861 36.2332 22.4188 35.7247 21.5015L35.6183 21.3209C34.6305 19.7475 33.4494 18.0068 31.8644 17.1246L31.5411 16.9595C31.1192 16.7633 30.6475 16.6124 30.1524 16.4693C29.6616 16.3275 29.1417 16.1921 28.6427 16.0308C27.7047 15.7277 26.7936 15.3198 26.1563 14.5445L26.0333 14.3843C25.1548 13.1739 24.7275 12.0205 24.6427 10.9185C24.5579 9.81701 24.8161 8.77864 25.2862 7.79938C26.2228 5.8488 28.0146 4.10972 29.67 2.53473L30.046 2.19586ZM36.8556 1.41559C34.6229 -0.0116121 32.1299 0.832938 30.2579 2.43707L29.8927 2.76813C28.2282 4.35175 26.4828 6.05087 25.5763 7.93903C25.1249 8.87914 24.8844 9.86062 24.964 10.8941C25.0435 11.9271 25.4436 13.0244 26.2931 14.1949L26.4054 14.3394C26.982 15.0411 27.8182 15.4258 28.7413 15.7242C29.2346 15.8836 29.7396 16.0144 30.2423 16.1597C30.7406 16.3037 31.2315 16.4605 31.6769 16.6675L32.0177 16.8414C33.6896 17.771 34.9098 19.5875 35.8907 21.15L36.006 21.3453C36.555 22.3354 36.7226 23.5733 36.6134 24.7838C36.4968 26.0758 36.0636 27.3568 35.4171 28.3033C35.2627 28.5288 35.0654 28.7306 34.8702 28.9205C34.6712 29.114 34.4765 29.293 34.3058 29.4849C33.9704 29.8619 33.7595 30.2552 33.8751 30.8004L33.921 30.9351C33.9429 30.9861 33.9711 31.0433 34.006 31.106C34.0748 31.2297 34.1627 31.365 34.256 31.5045C34.4368 31.7749 34.6491 32.0741 34.754 32.3023L34.9308 32.7056C35.2719 33.5267 35.5414 34.4246 35.7169 35.3013L35.797 35.7379L35.8575 36.2007C35.9046 36.6582 35.9161 37.0972 35.9405 37.5084C35.9554 37.7592 35.9766 38.0009 36.0118 38.2359C36.1722 37.7346 36.3268 37.2321 36.4806 36.7271C36.676 36.0854 36.8748 35.4414 37.0948 34.7994L37.214 34.4332C37.7679 32.6251 37.7208 31.1357 37.756 29.2095L38.0655 29.1509C38.4415 30.0569 38.4835 31.1457 38.3312 32.1714L38.255 32.606C37.8111 34.7828 37.0079 37.1177 36.2237 39.1773L36.0753 39.566L35.9884 39.3433C35.1583 41.8321 34.3042 44.3117 33.7667 46.8755L33.6554 47.4302C33.4198 48.6723 33.272 49.8999 33.1075 51.1334C32.9638 52.2109 32.8076 53.2918 32.5704 54.3804L32.464 54.8472C32.0928 56.396 31.6582 57.8993 31.1515 59.3961L30.9298 60.0377C30.3914 61.562 29.944 63.1156 29.504 64.6734C29.1743 65.8407 28.8484 67.0109 28.4923 68.1695L28.1251 69.3238C26.3504 74.6953 24.3507 79.9485 23.1007 85.4488L22.8604 86.5523C21.5995 92.6511 20.5208 98.8162 19.086 104.88L18.794 106.091C18.0374 109.173 17.0848 112.172 16.128 115.162C15.2903 117.779 14.4489 120.389 13.7286 123.046L13.4278 124.189C12.9484 126.06 12.4821 127.843 11.9034 129.668L11.6476 130.453C10.66 133.411 9.62371 136.295 8.44443 139.174L7.92979 140.409C6.87629 142.894 5.80165 145.38 4.56553 147.782L4.02549 148.805C3.47948 149.814 2.88552 150.783 2.27451 151.742L1.65928 152.698C1.58209 152.816 1.49867 152.932 1.41709 153.045C1.33485 153.16 1.25415 153.271 1.17881 153.384C1.02831 153.611 0.903903 153.838 0.840918 154.086L0.841895 154.087C0.742988 154.485 0.777916 154.904 0.831153 155.336L0.88584 155.773L0.91709 156.151C0.946001 156.777 0.871876 157.382 0.802833 157.981L0.728614 158.697C0.685609 159.238 0.646067 159.78 0.60752 160.322L0.495215 161.948C0.429858 162.94 0.765011 163.503 1.17295 164.429L1.65342 165.55C2.1201 166.642 2.58608 167.648 3.4044 168.592L3.49424 168.685C3.60306 168.788 3.76637 168.92 3.95908 169.054C4.21427 169.232 4.50862 169.403 4.77647 169.507C4.91033 169.559 5.03229 169.593 5.13584 169.604C5.24044 169.615 5.31394 169.601 5.3624 169.576C5.43738 169.536 5.53507 169.413 5.46787 169.003L5.43857 168.822L5.62217 168.817C7.7321 168.759 9.8734 168.05 11.7726 166.977L12.2413 166.722C14.5991 165.491 17.1705 164.903 19.8272 165.147L20.2101 165.197C21.0925 165.341 21.9055 165.685 22.6905 166.016C23.5955 166.398 24.4625 166.763 25.3966 166.839L25.7188 166.875C26.0363 166.917 26.3415 166.98 26.631 167.04C27.0207 167.12 27.3792 167.195 27.7208 167.215C28.0597 167.236 28.3729 167.203 28.67 167.076C28.9666 166.949 29.2599 166.722 29.5489 166.335L29.7872 166.001C30.9462 164.299 31.5959 162.18 31.9132 160.013L31.9845 159.475C32.1155 158.398 32.1686 157.317 32.1651 156.282L32.1583 155.767C32.151 155.399 32.1602 155.025 32.1642 154.664C32.1682 154.3 32.1673 153.947 32.1427 153.608C32.0932 152.93 31.9477 152.328 31.5665 151.846C30.6234 150.658 29.6721 149.695 28.9903 148.221C28.3715 146.88 28.059 145.549 27.8868 144.114L27.8214 143.492C27.6547 141.688 27.6144 139.94 27.5694 138.176L27.5177 136.405C27.4822 135.401 27.3444 134.413 27.2188 133.406C27.0937 132.402 26.9821 131.381 27.004 130.329L27.0655 128.111C27.1429 125.89 27.2697 123.662 27.4718 121.455L27.5255 120.958C27.8302 118.478 28.6696 116.123 29.3351 113.766L29.5489 112.958C29.75 112.148 29.9159 111.335 30.0792 110.516C30.2966 109.427 30.5097 108.328 30.7979 107.227L30.9972 106.445C31.4456 104.618 31.7949 102.776 32.1437 100.929C32.5419 98.821 32.9392 96.7068 33.4806 94.6148L34.2677 91.5855C35.0629 88.5631 35.9044 85.5624 36.9806 82.6109L37.378 81.5464C38.3239 79.0749 39.3725 76.6704 40.1153 74.1343L40.2618 73.6021C40.5817 72.3606 40.754 71.1165 40.8946 69.8599C41.0549 68.4275 41.1743 66.9718 41.4269 65.5045L41.6349 64.3355C42.7137 58.5 44.3402 52.7924 45.8751 47.0855L46.5079 44.73C47.9888 39.2345 49.5437 33.75 52.0558 28.7408L52.253 28.3726C52.7325 27.5246 53.3437 26.7584 53.9093 25.9918C54.5602 25.1094 55.1559 24.2193 55.4728 23.1666L55.5226 22.9859C55.7449 22.0904 55.5773 21.3499 55.2745 20.6187C55.1114 20.2249 54.9114 19.8399 54.7101 19.4293C54.5601 19.1234 54.4109 18.8059 54.2813 18.4703L54.1593 18.1275C53.9538 17.4988 53.6855 16.591 53.5714 15.689C53.4648 14.8464 53.4871 13.971 53.8614 13.3375C53.2446 12.6929 52.5651 12.0024 52.1446 11.0855C52.0458 10.8685 51.9643 10.6533 51.8878 10.4488C51.8107 10.2428 51.7379 10.048 51.6534 9.8609C51.507 9.53636 51.3271 9.24167 51.0372 8.982L50.9063 8.87262C50.1368 8.27778 49.1515 8.08916 48.13 8.13239C47.1466 8.17401 46.1448 8.4303 45.3028 8.72907C45.285 8.89525 45.2403 9.07306 45.1827 9.2486C45.1113 9.46612 45.0193 9.69553 44.9347 9.91168C44.8487 10.1311 44.77 10.3374 44.7208 10.5211C44.6706 10.7085 44.6573 10.849 44.6798 10.9449L44.7022 11.0191C44.766 11.1903 44.9074 11.345 45.1163 11.483C45.3542 11.64 45.6643 11.7642 45.9991 11.857C46.6706 12.0431 47.4008 12.0934 47.7521 12.0582L47.7872 12.3785C46.6284 12.5095 45.3693 12.1905 44.2169 11.6382C43.2074 11.1544 42.2681 10.4865 41.5362 9.7652L41.2364 9.4527C40.563 8.71641 40.1173 7.82811 39.7394 6.93024C39.3756 6.06597 39.0787 5.21027 38.6993 4.43121C38.6467 4.44588 38.5945 4.46212 38.544 4.47907C38.5347 4.63094 38.52 4.78347 38.4991 4.9361C38.4554 5.2815 38.3883 5.59557 38.3028 5.8902C37.9654 7.13495 37.3436 8.32951 36.7647 9.15582L36.4874 8.99567C37.0761 7.7311 37.6584 6.92528 37.9806 5.85016C38.0539 5.58523 38.1141 5.31808 38.1573 5.05231C38.1671 4.99232 38.1747 4.9323 38.1827 4.87262C38.2027 4.70827 38.2202 4.53649 38.2286 4.35504L38.2335 4.25055C38.2565 3.19501 37.9434 2.23447 37.0821 1.57379L36.8556 1.41559ZM38.0567 30.4439C38.0435 31.1745 38.0182 31.8683 37.9317 32.5738C37.9339 32.5631 37.9374 32.5522 37.9396 32.5416L38.0138 32.1216C38.0969 31.5607 38.1175 30.9876 38.0567 30.4439Z" fill="#967348"/>
<path d="M27.339 142.532C26.6052 139.187 26.4635 135.964 26.3972 132.552C26.3568 130.435 26.1876 128.303 26.132 126.199C26.0672 123.805 26.8651 121.371 27.0815 118.984C26.8841 121.158 26.2631 123.342 25.9468 125.51C25.6397 127.609 24.8853 129.597 24.5021 131.677C24.1599 133.537 24.0746 134.902 22.9315 136.482C21.8053 138.045 20.3415 139.552 18.9439 140.842C17.6218 142.06 14.8999 143.447 14.2522 144.914C13.4528 146.719 14.1676 149.071 12.9095 150.696C11.5889 152.399 9.15354 153.635 7.50759 155.017C8.28561 155.987 5.83726 157.269 5.11182 157.46C5.04019 156.436 4.41915 155.627 4.17836 154.648C4.00767 153.956 4.36734 153.105 3.22584 153.384C3.15802 152.767 3.40948 151.782 3.88727 151.401C4.46563 151.855 5.19412 151.929 5.41816 152.736C5.34805 152.28 4.98228 152.164 4.84588 151.802C4.66757 151.33 4.70719 151.292 4.66071 150.815C4.58146 149.98 5.07829 149.201 4.89464 148.403C3.78134 149.166 3.05134 151.438 2.26494 152.605C1.66676 153.493 1.21031 154.598 0.842252 155.566C3.6457 158.041 3.69524 162.166 4.45039 165.524C4.10139 162.818 5.74429 160.13 7.28432 158.221C8.43877 156.792 9.42939 155.171 10.9237 154.08C11.8793 153.382 12.9888 153.028 14.0129 152.426C16.0422 151.233 17.663 148.729 19.3623 147.048C20.8009 145.624 22.2976 142.767 24.1485 142.019C24.5912 143.005 23.6532 144.67 23.785 145.856C23.9801 147.588 25.3525 148.961 26.1191 150.442C26.7447 151.651 27.5676 153.706 27.2491 155.116C26.99 156.257 26.4642 156.091 25.5635 156.478C27.56 158.697 27.4381 162.342 24.9044 163.952C23.3491 164.94 21.9356 165.313 20.247 164.978C18.582 164.648 17.1448 164.835 15.5385 165.451C17.714 164.913 19.7433 165.324 21.9013 165.754C23.5008 166.072 25.1521 166.867 26.7889 166.784C28.5926 166.691 29.1694 166.05 30.0449 164.475C31.4478 161.955 31.9027 158.644 31.6459 155.778C31.3366 152.331 29.1732 150.158 28.1262 147.02C27.6629 145.63 27.6614 143.994 27.339 142.532Z" fill="#DCC06D"/>
<path d="M45.2952 30.8222C45.795 29.5234 45.9787 28.5919 46.9053 27.8643C47.9569 27.0359 49.0748 26.5828 49.9823 25.5117C50.611 24.7682 51.043 23.9065 51.5772 23.0988C51.2076 23.9811 50.7702 24.788 50.2627 25.595C49.4405 26.901 47.5781 28.453 47.2185 29.9899C46.9487 31.146 48.1314 31.6673 47.5096 32.9717C46.884 34.288 45.5588 35.1013 45.2083 36.6494C44.8356 38.295 44.9614 40.2294 44.6932 41.933C43.6362 48.6281 41.0599 54.9813 39.4284 61.5281C38.7967 64.0608 38.2244 66.6109 37.7779 69.1865C37.355 71.624 37.4083 73.7576 36.692 76.1752C36.0854 78.2096 35.5901 80.2774 34.9523 82.3054C33.2271 87.7945 31.5873 93.2654 29.491 98.6188C29.1602 99.4631 28.2016 100.931 28.1841 101.877C28.1704 102.626 28.7053 103.035 28.6825 104.158C28.5865 108.943 26.324 113.884 26.8247 118.678C27.3147 117.645 27.496 116.018 27.7741 114.83C28.3464 112.367 28.8615 109.897 29.43 107.43C30.0709 104.656 30.9761 101.972 31.745 99.2361C33.2591 93.8446 34.5096 88.3523 36.1525 82.991C37.9143 77.2464 40.2445 71.5962 41.5239 65.7453C42.0482 63.3451 42.2814 60.9996 42.4117 58.5812C42.5481 56.0255 43.829 53.438 44.5316 51.0132C44.9309 49.6382 45.0925 48.2687 45.4704 46.8897C46.013 44.9084 46.5388 42.92 47.1301 40.9539C47.7397 38.9266 48.7097 36.9414 49.1944 34.8887C49.551 33.3843 49.6996 32.2655 50.486 30.8825C51.5818 28.9568 52.766 27.0803 54.0271 25.2673C55.0383 23.8137 55.5763 22.8393 55.0276 20.9699C54.5742 19.4227 53.6522 18.1318 53.339 16.6369C53.0456 15.2484 53.227 13.8765 52.4718 12.6506C51.6359 11.297 49.9419 9.66165 48.517 9.06973C47.0828 8.47385 46.1082 9.89573 45.2136 10.9867C46.1646 10.5059 49.9907 9.3895 49.9694 11.5977C49.9495 13.8003 44.1377 12.5633 43.0495 11.9992C41.9667 11.4398 41.1292 10.7392 40.2278 9.93459C39.5618 9.3403 38.357 8.91978 38.1703 7.93907C37.6499 8.39213 37.4647 9.0618 37.1104 9.65133C36.119 11.3041 34.9325 11.8611 33.2553 12.5689C32.6693 12.8164 32.1024 12.9823 31.4882 13.114C30.634 13.2949 29.5352 13.256 28.767 13.6638C30.2636 14.2264 32.6427 14.7215 33.442 16.3266C33.17 15.822 31.9828 15.2015 32.1847 14.4041C32.3615 13.7067 33.4656 13.6464 34.0067 13.6963C34.1957 13.713 36.0458 14.562 35.6046 14.7493C36.8932 14.205 37.0532 12.741 38.6771 12.3776C39.9946 12.0825 40.7475 12.4252 41.6794 13.0584C41.6779 13.0576 42.0048 13.521 42.0924 13.5956C42.2174 13.7019 42.5214 13.5908 42.6853 13.7075C42.9543 13.8971 43.3756 14.1621 43.4953 14.4684C44.3678 16.7131 42.0695 19.0998 40.1843 19.7742C38.3738 20.4201 38.2602 19.0728 37.1797 18.1373C36.6592 19.1093 37.339 21.2715 37.3733 22.4156C37.4296 24.4699 37.3207 25.5807 36.3849 27.4762C36.0222 28.2094 34.7969 29.5297 34.6292 30.2065C34.2627 31.6808 36.6006 33.5795 36.5396 35.41C37.0806 34.0468 37.2909 32.794 37.4152 31.3546C37.5058 30.2668 37.3359 29.1623 37.3771 28.065C37.3679 28.3554 38.0598 29.1727 38.1878 29.5059C38.3913 30.0288 38.5094 30.5731 38.5506 31.1349C38.6382 32.3322 38.2884 33.4311 38.0316 34.5753C37.7977 35.6068 37.739 36.4685 37.2757 37.4293C36.6973 38.6314 35.978 39.7359 35.536 41.0094C35.0011 42.5495 34.5789 44.2713 34.169 45.8859C33.7986 47.3507 33.7354 48.6051 33.7133 50.1008C33.7003 51.0148 33.4466 52.0638 33.7285 52.9286C35.2221 46.8524 37.233 40.9761 38.8935 34.9418C39.3011 33.4541 39.6082 31.8839 39.9572 30.3795C40.3283 28.764 39.7805 27.0891 39.7507 25.4498C39.7279 24.189 39.1373 21.2088 40.1096 20.2304C40.6172 19.721 41.6154 19.4616 42.2082 19.0101C43.3535 18.1421 43.6302 17.1122 44.1864 15.8696C44.4181 15.3507 44.5408 14.2288 44.8197 13.8336C46.1882 11.8889 52.2264 13.4099 51.0133 16.2544C49.916 18.8292 47.1949 19.6727 45.7486 21.8864C45.0627 22.9401 45.4468 24.1279 45.4605 25.3681C45.4834 27.1867 45.6251 29.0243 45.2952 30.8222Z" fill="#DCC06D"/>
<path d="M38.5353 5.89512C38.2595 7.45187 37.8922 9.19748 36.8924 10.448C36.1548 11.3739 34.9356 11.9254 34.041 12.6133C36.0771 11.4929 37.3725 10.0179 39.0039 8.44449C39.2318 8.90232 39.6585 9.30698 40.0898 9.64896C40.1416 8.96897 39.6342 8.6857 39.3583 8.11918C39.0726 7.53043 39.0771 6.34819 38.5376 6.03716" fill="#CCB25C"/>
<path d="M46.2278 8.84756C45.5923 9.09433 44.623 10.6804 45.0742 11.4326C45.321 11.8452 46.1425 11.9286 46.5555 12.0507C45.7577 11.385 45.3104 10.2583 46.0983 9.27524" fill="#CCB25C"/>
<path d="M37.201 27.3517C37.2841 27.1279 37.3268 26.8756 37.4045 26.6471C37.0639 26.9748 36.3057 27.6214 36.1533 28.0848C35.8942 28.8616 36.4611 29.4559 36.6836 30.2406C37.1439 31.8744 36.7339 33.3819 36.9427 34.9768C37.4738 32.3933 38.6054 29.3726 37.0563 26.9296" fill="#CCB25C"/>
<path d="M53.627 17.624C53.3771 18.538 52.7865 19.3275 52.4688 20.1924C53.2483 19.7377 54.0903 20.5756 54.5239 21.1493C55.3179 22.1942 54.9872 22.6806 54.293 23.7034C53.7916 24.4429 52.9862 25.0237 52.5358 25.7307C51.7738 26.9256 51.1162 28.7735 50.739 30.1264C51.6488 28.2173 53.0989 26.3932 54.1795 24.5555C54.5872 23.8621 55.2966 23.0282 55.4627 22.2339C55.8399 20.4439 53.675 19.4886 53.6316 17.7652" fill="#CCB25C"/>
<path d="M27.0449 144.359C27.0228 145.764 27.1851 147.255 27.5387 148.611C27.8077 149.644 27.8267 150.907 28.2527 151.859C28.5301 152.483 30.5052 154.028 29.4506 154.405C29.4384 155.671 29.3645 156.548 27.877 156.395C28.6444 156.796 29.7013 157.207 30.5601 157.205C30.7719 159.162 30.1219 161.232 29.2258 162.938C28.4927 164.336 27.6644 164.477 26.1 164.703C26.1846 164.876 26.1655 165.066 26.2257 165.216C24.9631 165.385 24.3824 164.944 23.3842 164.475C22.4218 164.026 21.5005 164.145 20.4893 164.058C17.871 163.83 15.2977 163.518 12.7792 164.65C13.9901 164.809 15.6977 164.016 16.9604 163.838C18.2764 163.655 19.6709 163.882 20.9229 164.356C22.1566 164.823 23.7057 166.761 24.9067 166.845C25.5994 166.894 25.7518 166.168 26.26 166.046C26.8605 165.904 27.4046 166.346 28.0416 166.194C29.2951 165.893 29.9527 163.55 30.3726 162.415C31.002 160.709 31.4501 158.886 31.6338 157.041C31.7572 155.78 32.2174 153.001 31.2596 151.958C31.1369 151.824 30.669 151.921 30.4961 151.776C30.2057 151.529 30.0373 151.233 29.7699 150.962C29.3454 150.537 28.9644 150.112 28.684 149.578C27.826 147.954 27.8808 146.156 27.32 144.498" fill="#CCB25C"/>
<path d="M5.94927 159.015C5.06534 160.146 4.58755 161.766 4.28198 163.161C7.3209 158.217 12.5819 155.106 15.8562 150.32C13.6883 152.363 11.3939 154.303 9.04534 156.115C7.82383 157.057 6.00566 159.094 4.87026 159.606" fill="#CCB25C"/>
</g>
</svg>
