<svg width="26" height="135" viewBox="0 0 26 135" fill="none" xmlns="http://www.w3.org/2000/svg">
<g id="FibulaRight" filter="url(#filter0_d_8_100)">
<path d="M12.1431 14.0751C11.9336 12.2137 11.4185 10.768 10.1985 11.0037C10.8058 11.2139 11.6394 11.206 12.2597 11.2369C11.9747 8.01789 9.43721 2.55339 6.3541 1.39098C6.22151 3.11118 5.05487 4.73937 4.651 6.46275C4.14045 8.64713 5.05562 9.83889 5.80316 11.8043C6.10111 11.7828 6.50269 11.9201 6.80444 11.8963C6.27408 20.2307 6.95761 29.5141 8.76054 37.7367C11.0435 48.1468 10.6671 58.6346 12.0829 69.1891C12.8396 74.8219 13.1048 80.5887 14.1434 86.1722C14.9687 90.6036 15.9867 95.047 15.8587 99.5586C15.7505 103.416 15.0136 107.497 15.3268 111.342C15.6141 114.856 15.5539 117.662 14.5488 121.17C14.0085 123.054 14.2691 124.312 14.7949 126.441C15.7856 126.531 18.4953 125.145 19.3853 124.49C20.7417 123.491 21.1014 122.463 21.301 120.539C21.7605 116.123 20.2418 111.815 20.7508 107.515C21.1951 103.769 20.4582 100.141 20.1976 96.4149C19.9294 92.5881 19.5461 88.639 19.3655 84.8519C19.1849 81.0616 18.6782 77.4022 18.2895 73.6594C17.635 67.3499 17.0772 61.4768 15.89 55.2315C14.6281 48.5919 13.6824 41.8777 13.3235 35.1143C13.0697 30.3242 12.8007 25.431 12.2871 20.6433C12.0075 18.0369 13.0934 13.119 10.7479 11.2036C13.5269 11.06 12.2506 6.89914 11.4908 5.3289C10.5894 3.46666 8.92132 -1.45194 6.86541 1.32197C7.08563 1.37196 7.25937 1.28945 7.38968 1.07363" fill="#F3D48C"/>
<path d="M6.7364 1.22594C7.26782 0.509042 7.81458 0.239182 8.36335 0.35875C8.88619 0.472843 9.34564 0.932003 9.74226 1.49449C10.1443 2.06465 10.5072 2.77788 10.8233 3.45934C11.1443 4.15134 11.4094 4.79143 11.6358 5.25914L11.7852 5.58629C12.1433 6.41547 12.5477 7.66936 12.6075 8.79234C12.64 9.40326 12.5682 9.99416 12.3165 10.4593C12.3624 10.7244 12.3985 10.9798 12.42 11.223L12.4366 11.4066L12.252 11.3978C12.0248 11.3865 11.7565 11.3762 11.4825 11.3617C11.5575 11.4577 11.6292 11.5618 11.6915 11.6761C11.992 12.2281 12.17 13.005 12.2784 13.8636C12.3831 14.4405 12.4339 15.049 12.4532 15.6595C12.4817 16.563 12.4448 17.4881 12.419 18.3431C12.3931 19.2024 12.3788 19.9875 12.4473 20.6263L12.629 22.4281C13.0284 26.6416 13.2624 30.9149 13.4844 35.1058L13.5577 36.3714C13.9614 42.698 14.8657 48.9814 16.0479 55.2015L16.2637 56.3695C17.307 62.1914 17.8358 67.7297 18.4493 73.6429L18.7559 76.4349C19.0709 79.2209 19.3908 81.9969 19.5264 84.8441C19.7069 88.6295 20.0898 92.5703 20.3585 96.4037L20.4122 97.1009C20.5492 98.7244 20.7563 100.32 20.8985 101.944C21.0399 103.558 21.1152 105.181 20.9815 106.827L20.9102 107.534C20.6584 109.662 20.9081 111.795 21.1671 113.964C21.4091 115.992 21.6598 118.052 21.4991 120.138L21.461 120.556C21.3608 121.522 21.2185 122.281 20.9229 122.928C20.6623 123.498 20.2865 123.973 19.7305 124.426L19.4805 124.619C19.0231 124.956 18.1121 125.471 17.1944 125.891C16.7345 126.101 16.2683 126.29 15.8526 126.42C15.4427 126.549 15.0617 126.627 14.7803 126.601L14.6661 126.59L14.6387 126.48C14.1122 124.348 13.8418 123.053 14.3946 121.125L14.5704 120.48C15.343 117.504 15.4264 114.995 15.2159 112.004L15.1661 111.355C15.0084 109.419 15.1158 107.426 15.2745 105.442C15.4335 103.453 15.6444 101.477 15.6983 99.5541L15.7091 98.7132C15.7022 95.6322 15.1947 92.581 14.6192 89.5306L13.9854 86.2015C13.4648 83.403 13.1385 80.5597 12.8477 77.7152C12.5931 75.2247 12.3656 72.7349 12.0596 70.267L11.9239 69.2103C11.2151 63.9266 10.9539 58.6582 10.586 53.4203C10.2409 48.5068 9.8016 43.6163 8.80964 38.7455L8.60358 37.7709C6.8096 29.589 6.12242 20.3605 6.63386 12.055C6.51261 12.0472 6.38872 12.0285 6.27644 12.0101C6.09514 11.9805 5.94067 11.9561 5.81452 11.9652L5.69538 11.973L5.65241 11.8617C4.91986 9.93569 3.96904 8.67311 4.49421 6.42613L4.58015 6.09703C4.7997 5.3333 5.14534 4.58821 5.45612 3.86266C5.81489 3.02506 6.12939 2.20915 6.19343 1.37828L6.21003 1.16441L6.4112 1.24059C6.4916 1.27091 6.57094 1.3054 6.65046 1.34117L6.7364 1.22594ZM6.48933 1.62242C6.38761 2.43376 6.08107 3.2204 5.75202 3.98863C5.43511 4.72851 5.1008 5.44969 4.88972 6.18394L4.80769 6.49937C4.32059 8.58341 5.15765 9.7031 5.91022 11.642C6.04977 11.6462 6.19679 11.6713 6.32819 11.6927C6.50881 11.7222 6.66443 11.7458 6.79206 11.7357L6.97663 11.7211L6.96491 11.9066C6.4355 20.2263 7.11838 29.4949 8.91804 37.7025L9.12409 38.681C10.1206 43.574 10.562 48.4818 10.9073 53.3978C11.2758 58.6446 11.5353 63.897 12.2423 69.1673L12.379 70.2269C12.6857 72.701 12.9129 75.1971 13.1671 77.683C13.4577 80.5259 13.7838 83.358 14.3018 86.1429L14.9356 89.4671C15.5123 92.5233 16.0235 95.6031 16.0303 98.7142L16.0196 99.5629C15.9653 101.497 15.7529 103.491 15.5948 105.468C15.4364 107.449 15.3319 109.421 15.4874 111.329L15.5372 111.982C15.7493 114.996 15.6656 117.541 14.8819 120.56L14.7032 121.214C14.1856 123.019 14.4175 124.229 14.9219 126.281C15.1316 126.276 15.4178 126.219 15.7569 126.113C16.1555 125.988 16.6082 125.806 17.0606 125.599C17.9678 125.184 18.8574 124.678 19.2901 124.36L19.5264 124.177C20.0507 123.75 20.3939 123.313 20.6309 122.794C20.9039 122.197 21.0413 121.48 21.1407 120.523L21.1778 120.113C21.3356 118.065 21.0905 116.036 20.8477 114.002C20.5895 111.839 20.3338 109.668 20.5909 107.495L20.6602 106.8C20.7917 105.181 20.7189 103.579 20.5782 101.972C20.4382 100.374 20.2283 98.7505 20.0909 97.1234L20.0372 96.4261C19.8029 93.0833 19.4795 89.6355 19.2813 86.2875L19.2051 84.8597C19.0699 82.0214 18.7515 79.2588 18.4366 76.473L18.13 73.6761C17.5161 67.7589 16.9879 62.2338 15.9473 56.4271L15.7315 55.2611C14.5477 49.032 13.6421 42.735 13.2374 36.392L13.1632 35.1224C12.9411 30.9308 12.7073 26.6637 12.3087 22.4584L12.127 20.6605C12.0557 19.9961 12.072 19.189 12.0977 18.3334C12.1236 17.4734 12.1591 16.5604 12.1309 15.6693C12.1137 15.1238 12.0716 14.5928 11.9913 14.0921L11.9835 14.0931C11.977 14.0353 11.9681 13.9781 11.961 13.9212C11.7664 12.8487 11.3814 11.9288 10.6466 11.3285L10.5665 11.263C10.4204 11.2348 10.2781 11.2015 10.1456 11.1556L9.57917 10.9593L10.168 10.8461C10.5081 10.7804 10.8096 10.8306 11.0694 10.9837C11.0755 10.9873 11.081 10.9918 11.087 10.9955C11.513 10.9041 11.7945 10.69 11.9796 10.3998C11.7112 8.94597 11.0843 7.19692 10.2149 5.62047C9.21004 3.7983 7.90182 2.24449 6.48933 1.62242ZM12.0489 10.8304C11.9677 10.9151 11.877 10.9898 11.7764 11.056C11.8795 11.06 11.9806 11.0648 12.0792 11.0687C12.0704 10.9905 12.0602 10.9111 12.0489 10.8304ZM8.29401 0.673203C8.00875 0.611187 7.68721 0.690076 7.32722 1.03551L7.38968 1.07363L7.52741 1.1566C7.45098 1.28319 7.3538 1.38421 7.23054 1.44273C7.14446 1.48353 7.05289 1.49834 6.95905 1.49449C8.33381 2.24152 9.5599 3.76564 10.4971 5.46519C11.2893 6.9017 11.8875 8.4847 12.2012 9.87535C12.2818 9.56177 12.3069 9.19979 12.2862 8.80992C12.2292 7.73746 11.8388 6.52261 11.4913 5.71715L11.3458 5.39879C11.1215 4.9355 10.8407 4.2621 10.5313 3.59508C10.217 2.91739 9.86413 2.22551 9.47956 1.68004C9.08959 1.12697 8.69017 0.75952 8.29401 0.673203Z" fill="#967348"/>
<path d="M7.93529 4.1935C6.51489 5.15913 6.18951 7.24751 6.82503 8.71222C7.08412 8.62335 7.36835 8.58127 7.62134 8.47574C7.36073 9.85794 8.38411 10.3324 9.47836 10.4364C7.43464 10.2444 6.48288 11.9431 5.40539 8.94705C4.56108 6.60002 5.45341 3.73009 7.31501 2.23602C7.68764 2.78112 8.19818 3.34212 8.48013 3.90864" fill="#DCC06D"/>
<path d="M11.7499 24.056C11.9633 27.1219 10.7349 30.1283 11.1914 33.1307C11.5762 35.6594 12.4449 38.2207 12.8389 40.7161C13.0278 38.0096 12.4243 35.2112 12.2887 32.5142C12.1553 29.8657 13.0614 25.8516 12.022 23.4879" fill="#DCC06D"/>
<path d="M13.6573 75.9788C15.4122 83.0452 16.7419 90.3815 17.4117 97.5495C17.9825 103.652 17.1427 111.294 19.1354 117.035C18.3398 114.847 17.9443 113.829 16.9263 116.264C15.9989 118.484 15.688 121.237 15.0068 123.565C16.4737 114.067 16.7 104.224 15.5585 94.705C15.1333 91.1639 14.4543 87.7218 13.8699 84.2076C13.3966 81.3599 11.8627 75.2845 13.6641 72.6764C14.2554 75.0552 14.4117 77.7736 14.7477 80.2348" fill="#DCC06D"/>
</g>
<defs>
<filter id="filter0_d_8_100" x="0.342667" y="0.331421" width="25.2072" height="134.274" filterUnits="userSpaceOnUse" color-interpolation-filters="sRGB">
<feFlood flood-opacity="0" result="BackgroundImageFix"/>
<feColorMatrix in="SourceAlpha" type="matrix" values="0 0 0 0 0 0 0 0 0 0 0 0 0 0 0 0 0 0 127 0" result="hardAlpha"/>
<feOffset dy="4"/>
<feGaussianBlur stdDeviation="2"/>
<feComposite in2="hardAlpha" operator="out"/>
<feColorMatrix type="matrix" values="0 0 0 0 0 0 0 0 0 0 0 0 0 0 0 0 0 0 0.25 0"/>
<feBlend mode="normal" in2="BackgroundImageFix" result="effect1_dropShadow_8_100"/>
<feBlend mode="normal" in="SourceGraphic" in2="effect1_dropShadow_8_100" result="shape"/>
</filter>
</defs>
</svg>
