<svg width="29" height="136" viewBox="0 0 29 136" fill="none" xmlns="http://www.w3.org/2000/svg">
<g id="FibulaLeft" filter="url(#filter0_d_8_10)">
<mask id="path-1-outside-1_8_10" maskUnits="userSpaceOnUse" x="4.2327" y="0.229248" width="21" height="128" fill="black">
<rect fill="white" x="4.2327" y="0.229248" width="21" height="128"/>
<path d="M16.4866 14.7255C16.7304 12.8696 17.273 11.435 18.4891 11.6953C17.878 11.8936 17.0444 11.8675 16.4233 11.8857C16.7716 8.67222 19.4119 3.26248 22.5164 2.16514C22.617 3.88693 23.7516 5.53967 24.1212 7.27178C24.5914 9.46567 23.6518 10.6376 22.8669 12.5879C22.5713 12.5594 22.1666 12.6887 21.8649 12.6594C22.2352 21.0033 21.3749 30.2692 19.4135 38.4537C16.9339 48.8154 17.1099 59.3088 15.4906 69.83C14.6272 75.4453 14.2508 81.2057 13.1047 86.7678C12.1964 91.1818 11.0923 95.6029 11.1349 100.116C11.1692 103.975 11.8268 108.07 11.4405 111.908C11.0854 115.415 11.0923 118.222 12.028 121.749C12.5332 123.644 12.2475 124.897 11.6821 127.014C10.6907 127.083 8.00687 125.641 7.12903 124.968C5.79169 123.942 5.45259 122.906 5.29028 120.98C4.9146 116.553 6.51637 112.279 6.08964 107.969C5.71778 104.216 6.52246 100.603 6.8547 96.8828C7.19608 93.0623 7.65634 89.122 7.90856 85.3396C8.16155 81.5517 8.73916 77.9042 9.19789 74.1694C9.97439 67.8741 10.6427 62.0161 11.9503 55.7962C13.3387 49.1843 14.4116 42.49 14.9016 35.7369C15.246 30.9532 15.6087 26.0663 16.2145 21.2905C16.5429 18.6904 15.5516 13.7512 17.9344 11.8842C15.1584 11.6842 16.514 7.54951 17.3034 5.99593C18.24 4.15194 20.0033 -0.730959 22.0043 2.08421C21.7849 2.13102 21.6126 2.04455 21.4869 1.82555"/>
<path d="M20.8811 4.9335C22.284 5.9277 22.5682 8.02318 21.906 9.4744C21.6469 9.38078 21.365 9.33239 21.1135 9.22369C21.3482 10.6091 20.3157 11.0629 19.2207 11.1438C21.2674 10.9939 22.1872 12.7133 23.3211 9.73945C24.2103 7.40987 23.3721 4.52169 21.5387 2.98953C21.1562 3.5267 20.6342 4.07577 20.3424 4.63833"/>
<path d="M16.687 24.7111C16.4157 27.7722 17.5861 30.8048 17.0718 33.7953C16.6382 36.3161 15.7215 38.8592 15.2788 41.3458C15.1416 38.6354 15.7992 35.8512 15.9882 33.1566C16.1696 30.512 15.3405 26.4797 16.4248 24.139"/>
<path d="M13.7852 76.5847C11.8962 83.6146 10.4263 90.9224 9.61928 98.073C8.93194 104.164 9.62462 111.821 7.52298 117.519C8.36044 115.348 8.77421 114.339 9.74502 116.794C10.6305 119.034 10.8888 121.792 11.5251 124.134C10.2388 114.608 10.2037 104.762 11.5266 95.2689C12.0181 91.7372 12.7649 88.3095 13.4156 84.8064C13.943 81.9698 15.592 75.9285 13.8408 73.2831C13.2053 75.6484 12.9981 78.3628 12.614 80.8185"/>
</mask>
<path d="M16.4866 14.7255C16.7304 12.8696 17.273 11.435 18.4891 11.6953C17.878 11.8936 17.0444 11.8675 16.4233 11.8857C16.7716 8.67222 19.4119 3.26248 22.5164 2.16514C22.617 3.88693 23.7516 5.53967 24.1212 7.27178C24.5914 9.46567 23.6518 10.6376 22.8669 12.5879C22.5713 12.5594 22.1666 12.6887 21.8649 12.6594C22.2352 21.0033 21.3749 30.2692 19.4135 38.4537C16.9339 48.8154 17.1099 59.3088 15.4906 69.83C14.6272 75.4453 14.2508 81.2057 13.1047 86.7678C12.1964 91.1818 11.0923 95.6029 11.1349 100.116C11.1692 103.975 11.8268 108.07 11.4405 111.908C11.0854 115.415 11.0923 118.222 12.028 121.749C12.5332 123.644 12.2475 124.897 11.6821 127.014C10.6907 127.083 8.00687 125.641 7.12903 124.968C5.79169 123.942 5.45259 122.906 5.29028 120.98C4.9146 116.553 6.51637 112.279 6.08964 107.969C5.71778 104.216 6.52246 100.603 6.8547 96.8828C7.19608 93.0623 7.65634 89.122 7.90856 85.3396C8.16155 81.5517 8.73916 77.9042 9.19789 74.1694C9.97439 67.8741 10.6427 62.0161 11.9503 55.7962C13.3387 49.1843 14.4116 42.49 14.9016 35.7369C15.246 30.9532 15.6087 26.0663 16.2145 21.2905C16.5429 18.6904 15.5516 13.7512 17.9344 11.8842C15.1584 11.6842 16.514 7.54951 17.3034 5.99593C18.24 4.15194 20.0033 -0.730959 22.0043 2.08421C21.7849 2.13102 21.6126 2.04455 21.4869 1.82555" fill="#F3D48C"/>
<path d="M20.8811 4.9335C22.284 5.9277 22.5682 8.02318 21.906 9.4744C21.6469 9.38078 21.365 9.33239 21.1135 9.22369C21.3482 10.6091 20.3157 11.0629 19.2207 11.1438C21.2674 10.9939 22.1872 12.7133 23.3211 9.73945C24.2103 7.40987 23.3721 4.52169 21.5387 2.98953C21.1562 3.5267 20.6342 4.07577 20.3424 4.63833" fill="#DCC06D"/>
<path d="M16.687 24.7111C16.4157 27.7722 17.5861 30.8048 17.0718 33.7953C16.6382 36.3161 15.7215 38.8592 15.2788 41.3458C15.1416 38.6354 15.7992 35.8512 15.9882 33.1566C16.1696 30.512 15.3405 26.4797 16.4248 24.139" fill="#DCC06D"/>
<path d="M13.7852 76.5847C11.8962 83.6146 10.4263 90.9224 9.61928 98.073C8.93194 104.164 9.62462 111.821 7.52298 117.519C8.36044 115.348 8.77421 114.339 9.74502 116.794C10.6305 119.034 10.8888 121.792 11.5251 124.134C10.2388 114.608 10.2037 104.762 11.5266 95.2689C12.0181 91.7372 12.7649 88.3095 13.4156 84.8064C13.943 81.9698 15.592 75.9285 13.8408 73.2831C13.2053 75.6484 12.9981 78.3628 12.614 80.8185" fill="#DCC06D"/>
<path d="M18.4891 11.6953L18.5879 11.9997L19.7214 11.6317L18.5561 11.3824L18.4891 11.6953ZM16.4233 11.8857L16.1052 11.8512L16.0656 12.2164L16.4327 12.2056L16.4233 11.8857ZM22.5164 2.16514L22.8358 2.14647L22.811 1.72159L22.4097 1.86343L22.5164 2.16514ZM24.1212 7.27178L23.8082 7.33855L23.8083 7.33883L24.1212 7.27178ZM22.8669 12.5879L22.8361 12.9064L23.0744 12.9295L23.1638 12.7074L22.8669 12.5879ZM21.8649 12.6594L21.8959 12.3409L21.5288 12.3051L21.5452 12.6735L21.8649 12.6594ZM19.4135 38.4537L19.1023 38.3791L19.1023 38.3792L19.4135 38.4537ZM15.4906 69.83L15.1743 69.7813L15.1743 69.7814L15.4906 69.83ZM13.1047 86.7678L12.7913 86.7032L12.7913 86.7033L13.1047 86.7678ZM11.1349 100.116L11.4549 100.113L11.4549 100.113L11.1349 100.116ZM11.4405 111.908L11.7589 111.941L11.7589 111.94L11.4405 111.908ZM12.028 121.749L11.7187 121.831L11.7188 121.831L12.028 121.749ZM11.6821 127.014L11.7043 127.333L11.9323 127.317L11.9912 127.097L11.6821 127.014ZM7.12903 124.968L7.32384 124.714L7.3238 124.714L7.12903 124.968ZM5.29028 120.98L5.60915 120.953L5.60913 120.953L5.29028 120.98ZM6.08964 107.969L6.40808 107.937L6.40808 107.937L6.08964 107.969ZM6.8547 96.8828L6.53597 96.8543L6.53597 96.8543L6.8547 96.8828ZM7.90856 85.3396L7.58928 85.3183L7.58927 85.3183L7.90856 85.3396ZM9.19789 74.1694L8.8803 74.1302L8.88028 74.1304L9.19789 74.1694ZM11.9503 55.7962L12.2634 55.862L12.2635 55.8619L11.9503 55.7962ZM14.9016 35.7369L15.2207 35.7601L15.2207 35.7599L14.9016 35.7369ZM16.2145 21.2905L16.532 21.3308L16.532 21.3306L16.2145 21.2905ZM17.9344 11.8842L18.1318 12.136L18.7846 11.6246L17.9574 11.565L17.9344 11.8842ZM17.3034 5.99593L17.5887 6.14089L17.5888 6.14083L17.3034 5.99593ZM22.0043 2.08421L22.0711 2.39717L22.5472 2.29561L22.2651 1.89882L22.0043 2.08421ZM21.906 9.4744L21.7973 9.77536L22.0747 9.87561L22.1971 9.60724L21.906 9.4744ZM21.1135 9.22369L21.2405 8.92996L20.6996 8.69613L20.798 9.27714L21.1135 9.22369ZM19.2207 11.1438L19.1971 10.8247L19.2441 11.463L19.2207 11.1438ZM23.3211 9.73945L23.0221 9.62533L23.0221 9.62545L23.3211 9.73945ZM21.5387 2.98953L21.7439 2.74399L21.4786 2.52228L21.2781 2.80391L21.5387 2.98953ZM17.0718 33.7953L17.3872 33.8496L17.3872 33.8496L17.0718 33.7953ZM15.2788 41.3458L14.9592 41.362L15.5938 41.4019L15.2788 41.3458ZM15.9882 33.1566L16.3074 33.179L16.3075 33.1785L15.9882 33.1566ZM9.61928 98.073L9.3013 98.0371L9.3013 98.0371L9.61928 98.073ZM7.52298 117.519L7.22276 117.408L7.82154 117.634L7.52298 117.519ZM9.74502 116.794L10.0426 116.676L10.0426 116.676L9.74502 116.794ZM11.5251 124.134L11.2163 124.218L11.8422 124.091L11.5251 124.134ZM11.5266 95.2689L11.8435 95.3131L11.8436 95.313L11.5266 95.2689ZM13.4156 84.8064L13.101 84.7479L13.101 84.748L13.4156 84.8064ZM13.8408 73.2831L14.1077 73.1065L13.716 72.5147L13.5318 73.2001L13.8408 73.2831ZM16.4866 14.7255L16.8038 14.7672C16.9246 13.8481 17.1152 13.0771 17.4012 12.5753C17.5424 12.3277 17.6953 12.1663 17.8543 12.0769C18.0061 11.9916 18.1874 11.958 18.4222 12.0082L18.4891 11.6953L18.5561 11.3824C18.1828 11.3025 17.8402 11.3506 17.5406 11.519C17.2482 11.6834 17.0222 11.9479 16.8452 12.2584C16.495 12.8728 16.2924 13.747 16.1693 14.6838L16.4866 14.7255ZM18.4891 11.6953L18.3903 11.3909C18.1243 11.4773 17.7957 11.5185 17.4418 11.5386C17.0833 11.5589 16.7416 11.5562 16.4139 11.5658L16.4233 11.8857L16.4327 12.2056C16.7261 12.1969 17.1117 12.1983 17.478 12.1775C17.849 12.1565 18.2429 12.1116 18.5879 11.9997L18.4891 11.6953ZM16.4233 11.8857L16.7415 11.9202C16.9097 10.3675 17.6384 8.25418 18.7134 6.39184C19.795 4.5181 21.1821 2.97618 22.623 2.46684L22.5164 2.16514L22.4097 1.86343C20.7463 2.45143 19.2609 4.16306 18.1591 6.0719C17.0507 7.99214 16.2852 10.1905 16.1052 11.8512L16.4233 11.8857ZM22.5164 2.16514L22.1969 2.1838C22.2506 3.10276 22.579 3.99017 22.9213 4.83478C23.2702 5.69566 23.6309 6.50751 23.8082 7.33855L24.1212 7.27178L24.4341 7.205C24.2419 6.30394 23.8505 5.42337 23.5145 4.59439C23.1719 3.74916 22.8827 2.9493 22.8358 2.14647L22.5164 2.16514ZM24.1212 7.27178L23.8083 7.33883C24.2516 9.40749 23.3864 10.4399 22.5701 12.4685L22.8669 12.5879L23.1638 12.7074C23.9172 10.8353 24.9311 9.52385 24.4341 7.20472L24.1212 7.27178ZM22.8669 12.5879L22.8977 12.2694C22.7038 12.2507 22.4869 12.2837 22.323 12.3071C22.1364 12.3338 22.0009 12.3511 21.8959 12.3409L21.8649 12.6594L21.8339 12.9778C22.0306 12.997 22.2482 12.9643 22.4134 12.9407C22.6011 12.9139 22.7344 12.8966 22.8361 12.9064L22.8669 12.5879ZM21.8649 12.6594L21.5452 12.6735C21.9142 20.9882 21.0566 30.2242 19.1023 38.3791L19.4135 38.4537L19.7247 38.5283C21.6932 30.3142 22.5562 21.0184 22.1846 12.6452L21.8649 12.6594ZM19.4135 38.4537L19.1023 38.3792C17.8567 43.584 17.2793 48.8172 16.8107 54.0535C16.3415 59.2961 15.9819 64.5339 15.1743 69.7813L15.4906 69.83L15.8069 69.8787C16.6186 64.6049 16.9806 59.3354 17.4481 54.1106C17.9163 48.8794 18.4906 43.6851 19.7247 38.5282L19.4135 38.4537ZM15.4906 69.83L15.1743 69.7814C14.7416 72.5956 14.4307 75.4483 14.086 78.2802C13.7409 81.1159 13.3616 83.9357 12.7913 86.7032L13.1047 86.7678L13.4182 86.8324C13.994 84.0378 14.3759 81.1963 14.7213 78.3575C15.0673 75.5148 15.3762 72.6797 15.8069 69.8786L15.4906 69.83ZM13.1047 86.7678L12.7913 86.7033C11.8871 91.0973 10.7719 95.5625 10.8149 100.119L11.1349 100.116L11.4549 100.113C11.4127 95.6433 12.5057 91.2663 13.4182 86.8323L13.1047 86.7678ZM11.1349 100.116L10.8149 100.119C10.8322 102.059 11.0063 104.065 11.126 106.039C11.2462 108.022 11.3126 109.984 11.1221 111.876L11.4405 111.908L11.7589 111.94C11.9548 109.994 11.8855 107.989 11.7649 106C11.6438 104.003 11.472 102.031 11.4549 100.113L11.1349 100.116ZM11.4405 111.908L11.1221 111.876C10.7647 115.406 10.7698 118.254 11.7187 121.831L12.028 121.749L12.3373 121.667C11.4147 118.189 11.4061 115.424 11.7589 111.941L11.4405 111.908ZM12.028 121.749L11.7188 121.831C12.2007 123.639 11.9368 124.82 11.3729 126.932L11.6821 127.014L11.9912 127.097C12.5581 124.974 12.8658 123.65 12.3372 121.666L12.028 121.749ZM11.6821 127.014L11.6598 126.695C11.4793 126.707 11.177 126.649 10.7778 126.515C10.3899 126.385 9.94695 126.196 9.5019 125.981C8.60771 125.55 7.73871 125.032 7.32384 124.714L7.12903 124.968L6.93421 125.222C7.39718 125.577 8.30901 126.117 9.22403 126.558C9.68359 126.779 10.1524 126.98 10.5739 127.122C10.9842 127.259 11.3892 127.355 11.7043 127.333L11.6821 127.014ZM7.12903 124.968L7.3238 124.714C6.68966 124.227 6.30925 123.753 6.06261 123.184C5.81177 122.606 5.68959 121.908 5.60915 120.953L5.29028 120.98L4.97141 121.007C5.05327 121.979 5.1818 122.762 5.47542 123.439C5.77325 124.126 6.23106 124.682 6.93425 125.222L7.12903 124.968ZM5.29028 120.98L5.60913 120.953C5.42483 118.781 5.72503 116.642 6.02606 114.475C6.32537 112.32 6.6258 110.136 6.40808 107.937L6.08964 107.969L5.7712 108C5.9802 110.111 5.69312 112.22 5.39215 114.387C5.09289 116.541 4.78005 118.752 4.97142 121.007L5.29028 120.98ZM6.08964 107.969L6.40808 107.937C6.22529 106.093 6.33105 104.276 6.52632 102.448C6.71942 100.64 7.0078 98.766 7.17343 96.9113L6.8547 96.8828L6.53597 96.8543C6.36936 98.7201 6.08928 100.513 5.88994 102.38C5.69278 104.226 5.58212 106.092 5.7712 108L6.08964 107.969ZM6.8547 96.8828L7.17343 96.9113C7.51363 93.104 7.9754 89.1468 8.22785 85.3609L7.90856 85.3396L7.58927 85.3183C7.33728 89.0972 6.87853 93.0206 6.53597 96.8543L6.8547 96.8828ZM7.90856 85.3396L8.22785 85.3609C8.48006 81.5847 9.055 77.9576 9.51551 74.2084L9.19789 74.1694L8.88028 74.1304C8.42333 77.8507 7.84305 81.5186 7.58928 85.3183L7.90856 85.3396ZM9.19789 74.1694L9.51549 74.2086C10.2925 67.9087 10.9592 62.0658 12.2634 55.862L11.9503 55.7962L11.6371 55.7303C10.3261 61.9664 9.65623 67.8395 8.8803 74.1302L9.19789 74.1694ZM11.9503 55.7962L12.2635 55.8619C13.6539 49.2403 14.7294 42.5312 15.2207 35.7601L14.9016 35.7369L14.5824 35.7137C14.0938 42.4487 13.0235 49.1283 11.6371 55.7304L11.9503 55.7962ZM14.9016 35.7369L15.2207 35.7599C15.5652 30.9753 15.9274 26.0967 16.532 21.3308L16.2145 21.2905L15.8971 21.2503C15.29 26.0359 14.9268 30.931 14.5824 35.7139L14.9016 35.7369ZM16.2145 21.2905L16.532 21.3306C16.6173 20.6552 16.6162 19.8371 16.6067 18.9828C16.5971 18.1201 16.5787 17.2129 16.6236 16.3286C16.7147 14.5363 17.0632 12.9733 18.1318 12.136L17.9344 11.8842L17.737 11.6323C16.4227 12.662 16.0756 14.5021 15.9845 16.2962C15.9383 17.2052 15.9573 18.1369 15.9667 18.9899C15.9763 19.8514 15.9759 20.6257 15.897 21.2504L16.2145 21.2905ZM17.9344 11.8842L17.9574 11.565C17.3575 11.5218 17.0238 11.2767 16.8316 10.9397C16.6263 10.5797 16.5577 10.0702 16.601 9.47073C16.6875 8.27536 17.205 6.89594 17.5887 6.14089L17.3034 5.99593L17.0182 5.85096C16.6124 6.64949 16.0574 8.11422 15.9627 9.42458C15.9155 10.078 15.9791 10.7368 16.2757 11.2568C16.5854 11.7998 17.1233 12.1466 17.9114 12.2033L17.9344 11.8842ZM17.3034 5.99593L17.5888 6.14083C17.8205 5.68445 18.123 4.99957 18.4393 4.35118C18.7658 3.68173 19.1263 3.00788 19.5125 2.4824C19.9096 1.94214 20.2845 1.62822 20.619 1.56245C20.9021 1.50679 21.277 1.61335 21.7435 2.26961L22.0043 2.08421L22.2651 1.89882C21.7311 1.14749 21.1352 0.80872 20.4956 0.934467C19.9075 1.05009 19.4078 1.54431 18.9968 2.10337C18.575 2.67722 18.1941 3.39389 17.864 4.07063C17.5237 4.76844 17.2546 5.38542 17.0181 5.85102L17.3034 5.99593ZM22.0043 2.08421L21.9376 1.77125C21.8868 1.78208 21.8647 1.77393 21.8537 1.7684C21.8389 1.76098 21.8056 1.73796 21.7644 1.66622L21.4869 1.82555L21.2094 1.98489C21.2939 2.13214 21.4097 2.26185 21.5672 2.34072C21.7286 2.42147 21.9024 2.43315 22.0711 2.39717L22.0043 2.08421ZM20.8811 4.9335L20.6961 5.19459C21.3171 5.63472 21.7027 6.32758 21.854 7.0945C22.0056 7.86279 21.9164 8.68089 21.6149 9.34156L21.906 9.4744L22.1971 9.60724C22.5579 8.81669 22.6576 7.86144 22.4819 6.97064C22.3059 6.07845 21.8479 5.22648 21.0661 4.67242L20.8811 4.9335ZM21.906 9.4744L22.0148 9.17345C21.8708 9.12142 21.7201 9.08187 21.5927 9.04642C21.4591 9.00922 21.3443 8.97484 21.2405 8.92996L21.1135 9.22369L20.9865 9.51742C21.1342 9.58124 21.2861 9.62541 21.4211 9.66298C21.5624 9.70231 21.6822 9.73376 21.7973 9.77536L21.906 9.4744ZM21.1135 9.22369L20.798 9.27714C20.8989 9.87292 20.7276 10.2106 20.4641 10.4244C20.1736 10.6602 19.7201 10.786 19.1971 10.8247L19.2207 11.1438L19.2443 11.463C19.8162 11.4207 20.4265 11.2792 20.8674 10.9214C21.3353 10.5417 21.5628 9.95982 21.429 9.17024L21.1135 9.22369ZM19.2207 11.1438L19.2441 11.463C19.7083 11.429 20.1128 11.5002 20.491 11.5906C20.8487 11.6761 21.2427 11.798 21.5932 11.82C21.98 11.8443 22.3562 11.7551 22.7083 11.4263C23.04 11.1164 23.3312 10.611 23.6201 9.85346L23.3211 9.73945L23.0221 9.62545C22.744 10.3548 22.4951 10.7497 22.2714 10.9585C22.0682 11.1484 21.8739 11.1963 21.6333 11.1812C21.3562 11.1638 21.0656 11.0699 20.6398 10.9681C20.2344 10.8712 19.7565 10.7837 19.1973 10.8247L19.2207 11.1438ZM23.3211 9.73945L23.62 9.85357C24.56 7.39129 23.6779 4.36019 21.7439 2.74399L21.5387 2.98953L21.3335 3.23508C23.0664 4.68319 23.8607 7.42846 23.0221 9.62533L23.3211 9.73945ZM21.5387 2.98953L21.2781 2.80391C21.0922 3.06492 20.8779 3.32146 20.6544 3.60732C20.4378 3.88439 20.2187 4.18179 20.0583 4.49097L20.3424 4.63833L20.6264 4.78569C20.7579 4.53231 20.9457 4.2739 21.1586 4.00151C21.3647 3.7379 21.6027 3.45132 21.7994 3.17516L21.5387 2.98953ZM16.687 24.7111L16.3682 24.6828C16.2288 26.2556 16.4603 27.818 16.6531 29.3204C16.8479 30.8375 17.0045 32.299 16.7564 33.7411L17.0718 33.7953L17.3872 33.8496C17.6535 32.3012 17.482 30.7511 17.2879 29.239C17.092 27.7122 16.8738 26.2277 17.0057 24.7393L16.687 24.7111ZM17.0718 33.7953L16.7564 33.7411C16.5425 34.9847 16.2089 36.2366 15.8696 37.5004C15.5318 38.759 15.188 40.0303 14.9637 41.2897L15.2788 41.3458L15.5938 41.4019C15.8123 40.1747 16.1482 38.9311 16.4878 37.6664C16.8259 36.4068 17.1675 35.1268 17.3872 33.8496L17.0718 33.7953ZM15.2788 41.3458L15.5984 41.3297C15.5312 40.0035 15.6583 38.6527 15.8287 37.2848C15.998 35.9259 16.2121 34.5378 16.3074 33.179L15.9882 33.1566L15.669 33.1342C15.5753 34.4701 15.3661 35.8213 15.1936 37.2057C15.0223 38.5813 14.8891 39.9777 14.9592 41.362L15.2788 41.3458ZM15.9882 33.1566L16.3075 33.1785C16.3995 31.8362 16.2358 30.1209 16.1878 28.5243C16.1386 26.8906 16.2083 25.3678 16.7152 24.2736L16.4248 24.139L16.1345 24.0045C15.5571 25.251 15.4991 26.9147 15.548 28.5435C15.5981 30.2093 15.7583 31.8325 15.669 33.1347L15.9882 33.1566ZM13.7852 76.5847L13.4762 76.5016C11.5837 83.5446 10.1103 90.8682 9.3013 98.0371L9.61928 98.073L9.93726 98.1089C10.7422 90.9766 12.2087 83.6847 14.0943 76.6677L13.7852 76.5847ZM9.61928 98.073L9.3013 98.0371C8.95631 101.094 8.95607 104.564 8.78192 107.927C8.60671 111.31 8.25578 114.608 7.22276 117.408L7.52298 117.519L7.82321 117.63C8.89183 114.733 9.24537 111.353 9.42107 107.96C9.59782 104.547 9.59491 101.143 9.93726 98.1088L9.61928 98.073ZM7.52298 117.519L7.82154 117.634C8.03216 117.088 8.2105 116.63 8.37601 116.282C8.4585 116.108 8.53378 115.97 8.60347 115.867C8.6753 115.76 8.72849 115.71 8.7599 115.689C8.78115 115.675 8.77222 115.686 8.75522 115.682C8.75372 115.681 8.79114 115.692 8.86454 115.776C9.01409 115.948 9.20562 116.3 9.44744 116.911L9.74502 116.794L10.0426 116.676C9.79901 116.06 9.57477 115.617 9.34752 115.356C9.23253 115.224 9.0913 115.108 8.91706 115.062C8.72733 115.013 8.55157 115.06 8.40809 115.154C8.27476 115.242 8.16529 115.372 8.07273 115.509C7.97801 115.65 7.88715 115.819 7.79791 116.007C7.61996 116.382 7.43254 116.864 7.22443 117.404L7.52298 117.519ZM9.74502 116.794L9.44743 116.911C9.87893 118.003 10.1604 119.228 10.4148 120.489C10.6673 121.739 10.8945 123.033 11.2163 124.218L11.5251 124.134L11.8339 124.05C11.5194 122.892 11.2993 121.636 11.0422 120.362C10.787 119.098 10.4966 117.824 10.0426 116.676L9.74502 116.794ZM11.5251 124.134L11.8422 124.091C10.5596 114.592 10.5249 104.776 11.8435 95.3131L11.5266 95.2689L11.2097 95.2247C9.88262 104.748 9.91796 114.623 11.208 124.177L11.5251 124.134ZM11.5266 95.2689L11.8436 95.313C12.3337 91.7908 13.0771 88.3808 13.7303 84.8649L13.4156 84.8064L13.101 84.748C12.4527 88.2382 11.7025 91.6837 11.2097 95.2248L11.5266 95.2689ZM13.4156 84.8064L13.7303 84.8649C13.989 83.4731 14.5397 81.219 14.8004 79.0106C14.9314 77.9016 14.9921 76.7862 14.9062 75.7737C14.8205 74.7646 14.5871 73.8307 14.1077 73.1065L13.8408 73.2831L13.574 73.4597C13.9702 74.0582 14.1873 74.8715 14.2685 75.8278C14.3493 76.7807 14.2932 77.8489 14.1649 78.9355C13.9071 81.1183 13.3696 83.3031 13.101 84.7479L13.4156 84.8064ZM13.8408 73.2831L13.5318 73.2001C12.8906 75.5865 12.6761 78.3506 12.2978 80.7691L12.614 80.8185L12.9302 80.868C13.32 78.375 13.52 75.7103 14.1499 73.3661L13.8408 73.2831Z" fill="#967348" mask="url(#path-1-outside-1_8_10)"/>
</g>
<defs>
<filter id="filter0_d_8_10" x="0.912766" y="0.908813" width="27.6532" height="134.428" filterUnits="userSpaceOnUse" color-interpolation-filters="sRGB">
<feFlood flood-opacity="0" result="BackgroundImageFix"/>
<feColorMatrix in="SourceAlpha" type="matrix" values="0 0 0 0 0 0 0 0 0 0 0 0 0 0 0 0 0 0 127 0" result="hardAlpha"/>
<feOffset dy="4"/>
<feGaussianBlur stdDeviation="2"/>
<feComposite in2="hardAlpha" operator="out"/>
<feColorMatrix type="matrix" values="0 0 0 0 0 0 0 0 0 0 0 0 0 0 0 0 0 0 0.25 0"/>
<feBlend mode="normal" in2="BackgroundImageFix" result="effect1_dropShadow_8_10"/>
<feBlend mode="normal" in="SourceGraphic" in2="effect1_dropShadow_8_10" result="shape"/>
</filter>
</defs>
</svg>
