<svg width="49" height="125" viewBox="0 0 49 125" fill="none" xmlns="http://www.w3.org/2000/svg">
<g id="HumerusLeft" filter="url(#filter0_d_8_26)">
<mask id="path-1-outside-1_8_26" maskUnits="userSpaceOnUse" x="3.75705" y="0.028595" width="41" height="117" fill="black">
<rect fill="white" x="3.75705" y="0.028595" width="41" height="117"/>
<path d="M22.4706 77.6003C22.8127 82.0032 23.1511 86.4267 22.5392 90.8232C22.0309 94.4794 21.8595 98.0801 21.4518 101.767C21.3215 102.942 21.1439 104.125 20.9923 105.296C20.8635 106.282 20.4178 107.113 20.0291 108.04C19.8241 108.533 19.5582 108.993 19.6123 109.554C19.6595 110.041 20.055 110.724 20.3225 111.147C20.7523 111.836 21.3787 112.39 22.1376 112.641C23.0315 112.935 23.5969 112.561 24.4397 112.523C24.5113 113.6 24.2332 114.962 24.8763 115.912C25.764 117.222 27.3528 116.477 28.3625 115.761C28.9035 115.377 29.4476 114.928 29.8629 114.398C30.3506 113.772 30.74 113.006 31.5058 112.685C32.9018 112.103 34.0456 113.12 35.3868 112.693C36.702 112.275 36.9436 111.326 38.1072 110.748C39.9878 109.814 43.2782 110.843 44.0814 108.344C44.6262 106.643 43.2203 105.93 42.7295 104.89C41.4943 102.274 41.3518 99.2203 40.1052 96.6019C38.9918 94.2597 37.2842 92.2578 36.1846 89.9076C35.0172 87.4082 33.8696 84.9556 33.0969 82.2817C31.4609 76.6101 30.6493 71.3178 30.2706 65.4399C30.0054 61.3274 29.6236 57.2633 29.5779 53.1033C29.5002 45.9773 29.2792 38.8386 28.4189 31.7618C27.6866 25.7537 25.0965 19.0237 25.7511 12.9903C26.0597 10.1457 26.3119 7.5662 25.0348 5.27471C23.6624 2.81501 18.7809 2.7928 20.0931 6.38079C19.3334 4.30512 19.9575 2.46748 17.58 1.73036C14.1509 0.667133 9.89127 2.67853 7.64485 5.38421C6.22293 7.09727 5.19344 10.2179 5.62474 12.4753C6.39895 16.5291 10.0101 14.2733 11.8839 16.7798C12.6071 17.7486 12.7519 19.5331 13.2655 20.6574C14.1083 22.5077 15.1042 24.1684 15.7336 26.1354C17.0435 30.2312 17.4238 34.5785 17.9724 38.8346C19.6275 51.702 21.4739 64.6996 22.4706 77.6003Z"/>
<path d="M14.8901 9.58396C16.4118 8.62467 17.3857 7.7368 18.3839 5.60718C21.6918 -1.46566 10.888 1.1686 8.06089 3.53785C5.38012 5.78094 3.11465 11.7747 6.35245 14.5399C6.77003 14.8961 10.808 16.2109 10.8163 15.3C10.8438 12.8593 11.5685 11.5509 13.5863 10.3655C14.064 10.0846 14.4961 9.83152 14.8901 9.58396Z"/>
<path d="M18.9097 3.89887C18.3176 4.86054 17.74 5.84045 17.9016 6.98302C18.3908 7.01476 18.6537 7.3607 19.1871 7.34245C18.5211 9.07297 20.5671 11.8096 21.1188 13.5845C22.1109 16.7703 22.2138 20.1147 22.6504 23.3718C23.3644 28.703 23.7005 34.1826 24.2629 39.5654C25.0089 38.0951 23.8971 33.0035 23.7759 31.0199C23.5908 27.9905 23.2219 24.9833 23.193 21.9388C23.1617 18.7555 23.1907 15.488 22.7236 12.3341C22.5803 11.3676 20.9953 6.03088 23.5389 9.15232C24.2728 10.0545 24.2034 12.0286 24.4 13.1743C24.6439 10.9963 25.8852 8.5247 24.938 6.38793C24.0266 4.32654 20.225 3.62514 20.0284 6.54504C19.5795 4.65821 18.5074 5.01526 17.8475 6.46331"/>
<path d="M32.3303 110.544C31.1705 111.651 29.4918 111.782 28.5141 113.498C29.9681 111.505 32.4964 111.912 34.2353 111.551C36.0276 111.179 36.3027 110.223 37.6934 109.514C38.6322 109.035 40.0472 109.894 41.0119 108.977C39.401 109.018 37.6919 108.794 37.5326 106.966C37.4008 105.462 38.78 104.909 39.0681 103.83C39.4643 102.37 38.2512 100.639 38.303 99.1394C38.4554 100.1 38.956 101.636 39.5725 102.4C39.6502 102.243 39.8484 102.034 39.8606 101.778C40.4168 102.535 40.8824 103.41 41.4547 104.179C41.8006 103.995 42.0285 104.362 42.2594 104.673C41.2726 103.092 41.0958 101.095 40.2758 99.4425C39.1633 97.1954 37.8648 95.1531 36.8742 92.8624C35.735 90.2226 34.1912 87.8208 33.212 85.0921C31.0578 79.0698 30.5701 73.3657 29.6175 67.0768C29.1977 64.3108 28.5385 61.4202 28.4357 58.6328C26.6853 64.548 28.3716 72.0382 28.7085 78.1129C28.9051 81.6668 29.5855 84.9763 30.2218 88.4635C30.5038 90.0067 30.5983 92.2737 31.3831 93.6233C31.2269 92.6839 30.484 88.1199 31.534 88.116C32.3989 88.112 33.7119 90.966 34.0365 91.5889C34.7992 93.0497 35.5445 94.7722 35.9301 96.3869C36.3446 98.1246 36.9329 99.9027 36.9588 101.709C36.9672 102.289 37.0053 103.189 36.289 103.253C35.6794 103.307 35.5475 102.643 35.306 102.254C34.7535 101.361 34.0883 100.551 33.5015 99.6837C32.9742 98.9037 32.5239 97.927 32.0689 97.1772C32.3821 97.6961 32.4538 98.6387 32.6725 99.2338C32.943 99.9606 33.2615 100.665 33.5785 101.37C34.2201 102.797 35.0157 104.298 35.2839 105.865C35.4416 106.772 35.8836 108.748 35.5171 109.637C35.0751 110.709 33.2615 110.919 32.3303 110.544Z"/>
<path d="M32.405 101.32C32.3052 101.152 32.2015 100.984 32.091 100.82C31.4311 99.8281 31.1682 98.7895 30.6363 97.7643C31.1286 99.1077 31.7809 100.367 32.1268 101.771C32.2701 102.347 32.5444 103.144 32.5117 103.741C32.4987 103.97 32.2069 104.341 32.2206 104.511C32.2846 105.193 32.8721 105.777 32.6648 106.633C32.2038 108.551 30.6897 107.575 30.282 106.278C29.9315 105.166 30.2957 103.535 29.8537 102.543C30.2447 103.423 29.7928 105.082 29.7021 106.035C29.6351 106.716 29.4141 107.422 29.4301 108.108C29.4499 108.989 29.5726 108.95 30.3757 109.081C31.2017 109.215 32.2221 109.251 33.0039 108.89C35.3745 107.794 34.2963 104.981 33.4482 103.303C33.1083 102.631 32.7868 101.962 32.405 101.32Z"/>
<path d="M24.8085 110.123C24.1958 109.519 24.3581 107.101 24.3825 106.225C24.3947 107.295 24.6264 109.228 24.1051 110.193C23.9078 110.561 23.635 110.916 23.1183 110.606C23.0086 110.541 22.4241 109.821 22.7724 109.738C20.3735 110.314 21.1691 108.289 21.3093 106.794C21.2217 107.662 20.2852 108.526 20.1015 109.391C19.9362 110.168 20.3994 110.758 20.9732 111.194C21.7375 111.776 22.6802 112.111 23.6174 111.881C24.0465 111.776 25.553 110.677 25.8806 111.354C25.5049 110.576 25.2245 109.746 25.2055 108.881C25.063 109.274 24.9822 109.727 24.8085 110.123Z"/>
<path d="M39.6792 109.778C41.5256 109.286 43.9099 106.993 42.0483 105.042C44.7725 106.6 42.8987 110.018 40.2225 109.488"/>
<path d="M20.8399 6.14593C18.8663 7.53685 19.5109 9.57683 20.0078 11.6136C20.641 14.213 20.8704 17.2162 21.8206 19.6687C21.7208 16.7536 21.1874 13.7726 20.9534 10.8836C20.8277 9.37369 20.2547 7.55669 20.8399 6.14593Z"/>
</mask>
<path d="M22.4706 77.6003C22.8127 82.0032 23.1511 86.4267 22.5392 90.8232C22.0309 94.4794 21.8595 98.0801 21.4518 101.767C21.3215 102.942 21.1439 104.125 20.9923 105.296C20.8635 106.282 20.4178 107.113 20.0291 108.04C19.8241 108.533 19.5582 108.993 19.6123 109.554C19.6595 110.041 20.055 110.724 20.3225 111.147C20.7523 111.836 21.3787 112.39 22.1376 112.641C23.0315 112.935 23.5969 112.561 24.4397 112.523C24.5113 113.6 24.2332 114.962 24.8763 115.912C25.764 117.222 27.3528 116.477 28.3625 115.761C28.9035 115.377 29.4476 114.928 29.8629 114.398C30.3506 113.772 30.74 113.006 31.5058 112.685C32.9018 112.103 34.0456 113.12 35.3868 112.693C36.702 112.275 36.9436 111.326 38.1072 110.748C39.9878 109.814 43.2782 110.843 44.0814 108.344C44.6262 106.643 43.2203 105.93 42.7295 104.89C41.4943 102.274 41.3518 99.2203 40.1052 96.6019C38.9918 94.2597 37.2842 92.2578 36.1846 89.9076C35.0172 87.4082 33.8696 84.9556 33.0969 82.2817C31.4609 76.6101 30.6493 71.3178 30.2706 65.4399C30.0054 61.3274 29.6236 57.2633 29.5779 53.1033C29.5002 45.9773 29.2792 38.8386 28.4189 31.7618C27.6866 25.7537 25.0965 19.0237 25.7511 12.9903C26.0597 10.1457 26.3119 7.5662 25.0348 5.27471C23.6624 2.81501 18.7809 2.7928 20.0931 6.38079C19.3334 4.30512 19.9575 2.46748 17.58 1.73036C14.1509 0.667133 9.89127 2.67853 7.64485 5.38421C6.22293 7.09727 5.19344 10.2179 5.62474 12.4753C6.39895 16.5291 10.0101 14.2733 11.8839 16.7798C12.6071 17.7486 12.7519 19.5331 13.2655 20.6574C14.1083 22.5077 15.1042 24.1684 15.7336 26.1354C17.0435 30.2312 17.4238 34.5785 17.9724 38.8346C19.6275 51.702 21.4739 64.6996 22.4706 77.6003Z" fill="#F3D48C"/>
<path d="M14.8901 9.58396C16.4118 8.62467 17.3857 7.7368 18.3839 5.60718C21.6918 -1.46566 10.888 1.1686 8.06089 3.53785C5.38012 5.78094 3.11465 11.7747 6.35245 14.5399C6.77003 14.8961 10.808 16.2109 10.8163 15.3C10.8438 12.8593 11.5685 11.5509 13.5863 10.3655C14.064 10.0846 14.4961 9.83152 14.8901 9.58396Z" fill="#E1E2E3"/>
<path d="M18.9097 3.89887C18.3176 4.86054 17.74 5.84045 17.9016 6.98302C18.3908 7.01476 18.6537 7.3607 19.1871 7.34245C18.5211 9.07297 20.5671 11.8096 21.1188 13.5845C22.1109 16.7703 22.2138 20.1147 22.6504 23.3718C23.3644 28.703 23.7005 34.1826 24.2629 39.5654C25.0089 38.0951 23.8971 33.0035 23.7759 31.0199C23.5908 27.9905 23.2219 24.9833 23.193 21.9388C23.1617 18.7555 23.1907 15.488 22.7236 12.3341C22.5803 11.3676 20.9953 6.03088 23.5389 9.15232C24.2728 10.0545 24.2034 12.0286 24.4 13.1743C24.6439 10.9963 25.8852 8.5247 24.938 6.38793C24.0266 4.32654 20.225 3.62514 20.0284 6.54504C19.5795 4.65821 18.5074 5.01526 17.8475 6.46331" fill="#DCC06D"/>
<path d="M32.3303 110.544C31.1705 111.651 29.4918 111.782 28.5141 113.498C29.9681 111.505 32.4964 111.912 34.2353 111.551C36.0276 111.179 36.3027 110.223 37.6934 109.514C38.6322 109.035 40.0472 109.894 41.0119 108.977C39.401 109.018 37.6919 108.794 37.5326 106.966C37.4008 105.462 38.78 104.909 39.0681 103.83C39.4643 102.37 38.2512 100.639 38.303 99.1394C38.4554 100.1 38.956 101.636 39.5725 102.4C39.6502 102.243 39.8484 102.034 39.8606 101.778C40.4168 102.535 40.8824 103.41 41.4547 104.179C41.8006 103.995 42.0285 104.362 42.2594 104.673C41.2726 103.092 41.0958 101.095 40.2758 99.4425C39.1633 97.1954 37.8648 95.1531 36.8742 92.8624C35.735 90.2226 34.1912 87.8208 33.212 85.0921C31.0578 79.0698 30.5701 73.3657 29.6175 67.0768C29.1977 64.3108 28.5385 61.4202 28.4357 58.6328C26.6853 64.548 28.3716 72.0382 28.7085 78.1129C28.9051 81.6668 29.5855 84.9763 30.2218 88.4635C30.5038 90.0067 30.5983 92.2737 31.3831 93.6233C31.2269 92.6839 30.484 88.1199 31.534 88.116C32.3989 88.112 33.7119 90.966 34.0365 91.5889C34.7992 93.0497 35.5445 94.7722 35.9301 96.3869C36.3446 98.1246 36.9329 99.9027 36.9588 101.709C36.9672 102.289 37.0053 103.189 36.289 103.253C35.6794 103.307 35.5475 102.643 35.306 102.254C34.7535 101.361 34.0883 100.551 33.5015 99.6837C32.9742 98.9037 32.5239 97.927 32.0689 97.1772C32.3821 97.6961 32.4538 98.6387 32.6725 99.2338C32.943 99.9606 33.2615 100.665 33.5785 101.37C34.2201 102.797 35.0157 104.298 35.2839 105.865C35.4416 106.772 35.8836 108.748 35.5171 109.637C35.0751 110.709 33.2615 110.919 32.3303 110.544Z" fill="#DCC06D"/>
<path d="M32.405 101.32C32.3052 101.152 32.2015 100.984 32.091 100.82C31.4311 99.8281 31.1682 98.7895 30.6363 97.7643C31.1286 99.1077 31.7809 100.367 32.1268 101.771C32.2701 102.347 32.5444 103.144 32.5117 103.741C32.4987 103.97 32.2069 104.341 32.2206 104.511C32.2846 105.193 32.8721 105.777 32.6648 106.633C32.2038 108.551 30.6897 107.575 30.282 106.278C29.9315 105.166 30.2957 103.535 29.8537 102.543C30.2447 103.423 29.7928 105.082 29.7021 106.035C29.6351 106.716 29.4141 107.422 29.4301 108.108C29.4499 108.989 29.5726 108.95 30.3757 109.081C31.2017 109.215 32.2221 109.251 33.0039 108.89C35.3745 107.794 34.2963 104.981 33.4482 103.303C33.1083 102.631 32.7868 101.962 32.405 101.32Z" fill="#CCB25C"/>
<path d="M24.8085 110.123C24.1958 109.519 24.3581 107.101 24.3825 106.225C24.3947 107.295 24.6264 109.228 24.1051 110.193C23.9078 110.561 23.635 110.916 23.1183 110.606C23.0086 110.541 22.4241 109.821 22.7724 109.738C20.3735 110.314 21.1691 108.289 21.3093 106.794C21.2217 107.662 20.2852 108.526 20.1015 109.391C19.9362 110.168 20.3994 110.758 20.9732 111.194C21.7375 111.776 22.6802 112.111 23.6174 111.881C24.0465 111.776 25.553 110.677 25.8806 111.354C25.5049 110.576 25.2245 109.746 25.2055 108.881C25.063 109.274 24.9822 109.727 24.8085 110.123Z" fill="#CCB25C"/>
<path d="M39.6792 109.778C41.5256 109.286 43.9099 106.993 42.0483 105.042C44.7725 106.6 42.8987 110.018 40.2225 109.488" fill="#CCB25C"/>
<path d="M20.8399 6.14593C18.8663 7.53685 19.5109 9.57683 20.0078 11.6136C20.641 14.213 20.8704 17.2162 21.8206 19.6687C21.7208 16.7536 21.1874 13.7726 20.9534 10.8836C20.8277 9.37369 20.2547 7.55669 20.8399 6.14593Z" fill="#CCB25C"/>
<path d="M22.4706 77.6003L22.1516 77.625L22.1516 77.6251L22.4706 77.6003ZM22.5392 90.8232L22.2222 90.7791L22.2222 90.7791L22.5392 90.8232ZM21.4518 101.767L21.7698 101.802L21.7698 101.802L21.4518 101.767ZM20.9923 105.296L21.3096 105.337L21.3096 105.337L20.9923 105.296ZM20.0291 108.04L19.734 107.917L19.7337 107.917L20.0291 108.04ZM19.6123 109.554L19.2938 109.585L19.2938 109.585L19.6123 109.554ZM20.3225 111.147L20.5941 110.977L20.5929 110.976L20.3225 111.147ZM22.1376 112.641L22.0372 112.945L22.0375 112.945L22.1376 112.641ZM24.4397 112.523L24.759 112.501L24.7382 112.189L24.4252 112.203L24.4397 112.523ZM24.8763 115.912L24.6113 116.092L24.6114 116.092L24.8763 115.912ZM28.3625 115.761L28.5476 116.023L28.5477 116.022L28.3625 115.761ZM29.8629 114.398L30.1148 114.595L30.1152 114.594L29.8629 114.398ZM31.5058 112.685L31.3826 112.39L31.3823 112.39L31.5058 112.685ZM35.3868 112.693L35.2898 112.388L35.2897 112.388L35.3868 112.693ZM38.1072 110.748L37.9648 110.461L37.9647 110.461L38.1072 110.748ZM44.0814 108.344L44.386 108.442L44.3861 108.442L44.0814 108.344ZM42.7295 104.89L43.0189 104.754L43.0189 104.754L42.7295 104.89ZM40.1052 96.6019L39.8161 96.7393L39.8162 96.7395L40.1052 96.6019ZM36.1846 89.9076L35.8947 90.043L35.8947 90.0432L36.1846 89.9076ZM33.0969 82.2817L32.7894 82.3704L32.7895 82.3705L33.0969 82.2817ZM30.2706 65.4399L30.5899 65.4193L30.5899 65.4193L30.2706 65.4399ZM29.5779 53.1033L29.2579 53.1067L29.2579 53.1068L29.5779 53.1033ZM28.4189 31.7618L28.7366 31.7231L28.7365 31.723L28.4189 31.7618ZM25.7511 12.9903L25.4329 12.9557L25.4329 12.9557L25.7511 12.9903ZM25.0348 5.27471L25.3143 5.11892L25.3142 5.11879L25.0348 5.27471ZM20.0931 6.38079L19.7926 6.49078L20.3937 6.27088L20.0931 6.38079ZM17.58 1.73036L17.4852 2.036L17.4852 2.03601L17.58 1.73036ZM7.64485 5.38421L7.39864 5.17979L7.39862 5.17983L7.64485 5.38421ZM5.62474 12.4753L5.93906 12.4153L5.93906 12.4152L5.62474 12.4753ZM11.8839 16.7798L12.1404 16.5884L12.1402 16.5882L11.8839 16.7798ZM13.2655 20.6574L13.5567 20.5247L13.5565 20.5244L13.2655 20.6574ZM15.7336 26.1354L16.0384 26.0379L16.0384 26.0379L15.7336 26.1354ZM17.9724 38.8346L18.2898 38.7938L18.2898 38.7937L17.9724 38.8346ZM14.8901 9.58396L15.0603 9.85491L15.0607 9.85466L14.8901 9.58396ZM18.3839 5.60718L18.6737 5.74299L18.6738 5.74274L18.3839 5.60718ZM8.06089 3.53785L8.26624 3.78327L8.26643 3.78311L8.06089 3.53785ZM6.35245 14.5399L6.14463 14.7832L6.14476 14.7833L6.35245 14.5399ZM10.8163 15.3L10.4964 15.2964L10.4963 15.2971L10.8163 15.3ZM13.5863 10.3655L13.7484 10.6414L13.7484 10.6414L13.5863 10.3655ZM17.9016 6.98302L17.5847 7.02782L17.6211 7.2855L17.8808 7.30235L17.9016 6.98302ZM19.1871 7.34245L19.4857 7.45739L19.6594 7.00611L19.1761 7.02264L19.1871 7.34245ZM21.1188 13.5845L20.8132 13.6795L20.8133 13.6797L21.1188 13.5845ZM22.6504 23.3718L22.9676 23.3293L22.9676 23.3293L22.6504 23.3718ZM24.2629 39.5654L23.9446 39.5986L24.0573 40.6777L24.5482 39.7102L24.2629 39.5654ZM23.7759 31.0199L24.0953 31.0004L24.0953 31.0004L23.7759 31.0199ZM23.193 21.9388L23.513 21.9358L23.513 21.9357L23.193 21.9388ZM22.7236 12.3341L23.0401 12.2872L23.0401 12.2871L22.7236 12.3341ZM23.5389 9.15232L23.7872 8.9504L23.787 8.95018L23.5389 9.15232ZM24.4 13.1743L24.0846 13.2285L24.718 13.2099L24.4 13.1743ZM24.938 6.38793L24.6453 6.51732L24.6455 6.51761L24.938 6.38793ZM20.0284 6.54504L19.717 6.6191L20.3476 6.56654L20.0284 6.54504ZM32.3303 110.544L32.4497 110.248L32.2585 110.171L32.1094 110.313L32.3303 110.544ZM28.5141 113.498L28.2361 113.34L28.7727 113.687L28.5141 113.498ZM34.2353 111.551L34.3004 111.865L34.3004 111.865L34.2353 111.551ZM37.6934 109.514L37.8388 109.799L37.8389 109.799L37.6934 109.514ZM41.0119 108.977L41.2324 109.209L41.8352 108.635L41.0038 108.657L41.0119 108.977ZM37.5326 106.966L37.8514 106.938L37.8514 106.938L37.5326 106.966ZM39.0681 103.83L38.7592 103.746L38.7589 103.748L39.0681 103.83ZM38.303 99.1394L38.619 99.0893L37.9832 99.1283L38.303 99.1394ZM39.5725 102.4L39.3234 102.601L39.6375 102.991L39.8593 102.542L39.5725 102.4ZM39.8606 101.778L40.1185 101.588L39.5838 100.86L39.5409 101.762L39.8606 101.778ZM41.4547 104.179L41.1979 104.37L41.3621 104.591L41.605 104.462L41.4547 104.179ZM42.2594 104.673L42.0024 104.864L42.5308 104.504L42.2594 104.673ZM40.2758 99.4425L39.9891 99.5845L39.9892 99.5847L40.2758 99.4425ZM36.8742 92.8624L36.5804 92.9892L36.5805 92.9894L36.8742 92.8624ZM33.212 85.0921L32.9107 85.1999L32.9108 85.2002L33.212 85.0921ZM29.6175 67.0768L29.9339 67.0288L29.9339 67.0287L29.6175 67.0768ZM28.4357 58.6328L28.7554 58.621L28.1288 58.542L28.4357 58.6328ZM28.7085 78.1129L29.028 78.0952L29.028 78.0952L28.7085 78.1129ZM30.2218 88.4635L29.907 88.5209L29.907 88.521L30.2218 88.4635ZM31.3831 93.6233L31.1065 93.7842L31.6988 93.5708L31.3831 93.6233ZM31.534 88.116L31.5352 88.4359L31.5355 88.4359L31.534 88.116ZM34.0365 91.5889L33.7527 91.7368L33.7528 91.737L34.0365 91.5889ZM35.9301 96.3869L36.2413 96.3127L36.2413 96.3126L35.9301 96.3869ZM36.9588 101.709L36.6388 101.714L36.6388 101.714L36.9588 101.709ZM36.289 103.253L36.3172 103.572L36.3176 103.572L36.289 103.253ZM35.306 102.254L35.0339 102.422L35.034 102.422L35.306 102.254ZM33.5015 99.6837L33.2364 99.8629L33.2365 99.863L33.5015 99.6837ZM32.0689 97.1772L32.3425 97.0112L31.795 97.3425L32.0689 97.1772ZM32.6725 99.2338L32.3721 99.3442L32.3726 99.3454L32.6725 99.2338ZM33.5785 101.37L33.8704 101.239L33.8703 101.239L33.5785 101.37ZM35.2839 105.865L34.9685 105.919L34.9686 105.919L35.2839 105.865ZM35.5171 109.637L35.2212 109.515L35.2212 109.515L35.5171 109.637ZM32.405 101.32L32.1298 101.483L32.1299 101.483L32.405 101.32ZM32.091 100.82L31.8246 100.997L31.8255 100.999L32.091 100.82ZM30.6363 97.7643L30.9204 97.617L30.3359 97.8744L30.6363 97.7643ZM32.1268 101.771L31.8161 101.848L31.8163 101.848L32.1268 101.771ZM32.5117 103.741L32.8312 103.759L32.8312 103.758L32.5117 103.741ZM32.2206 104.511L31.9016 104.537L31.902 104.541L32.2206 104.511ZM32.6648 106.633L32.3538 106.557L32.3537 106.558L32.6648 106.633ZM30.282 106.278L30.5873 106.182L30.5872 106.182L30.282 106.278ZM29.8537 102.543L30.146 102.413L29.5613 102.673L29.8537 102.543ZM29.7021 106.035L30.0206 106.067L30.0207 106.066L29.7021 106.035ZM29.4301 108.108L29.75 108.101L29.75 108.1L29.4301 108.108ZM30.3757 109.081L30.3239 109.397L30.3247 109.397L30.3757 109.081ZM33.0039 108.89L33.1381 109.181L33.1382 109.181L33.0039 108.89ZM33.4482 103.303L33.7338 103.158L33.7337 103.158L33.4482 103.303ZM24.8085 110.123L24.5837 110.351L24.9146 110.678L25.1015 110.252L24.8085 110.123ZM24.3825 106.225L24.7025 106.221L24.0626 106.216L24.3825 106.225ZM24.1051 110.193L23.8236 110.041L23.8231 110.042L24.1051 110.193ZM23.1183 110.606L23.2827 110.332L23.2815 110.331L23.1183 110.606ZM22.7724 109.738L22.8472 110.049L22.6979 109.426L22.7724 109.738ZM21.3093 106.794L21.6279 106.824L20.9909 106.762L21.3093 106.794ZM20.1015 109.391L20.4145 109.457L20.4145 109.457L20.1015 109.391ZM20.9732 111.194L21.1672 110.939L21.1667 110.939L20.9732 111.194ZM23.6174 111.881L23.5415 111.57L23.5411 111.57L23.6174 111.881ZM25.8806 111.354L25.5926 111.493L26.1688 111.215L25.8806 111.354ZM25.2055 108.881L25.5254 108.874L24.9046 108.772L25.2055 108.881ZM42.0483 105.042L42.2072 104.764L41.8168 105.263L42.0483 105.042ZM20.8399 6.14593L21.1355 6.26855L21.559 5.24768L20.6556 5.88436L20.8399 6.14593ZM20.0078 11.6136L20.3187 11.5379L20.3187 11.5378L20.0078 11.6136ZM21.8206 19.6687L21.5222 19.7844L22.1404 19.6578L21.8206 19.6687ZM20.9534 10.8836L21.2724 10.8578L21.2723 10.8571L20.9534 10.8836ZM22.4706 77.6003L22.1516 77.6251C22.4941 82.0335 22.8286 86.4225 22.2222 90.7791L22.5392 90.8232L22.8561 90.8673C23.4736 86.4309 23.1314 81.9729 22.7896 77.5755L22.4706 77.6003ZM22.5392 90.8232L22.2222 90.7791C21.7143 94.4327 21.5376 98.0797 21.1337 101.731L21.4518 101.767L21.7698 101.802C22.1814 98.0806 22.3475 94.5261 22.8561 90.8673L22.5392 90.8232ZM21.4518 101.767L21.1337 101.731C21.0038 102.903 20.8278 104.074 20.6749 105.255L20.9923 105.296L21.3096 105.337C21.4601 104.175 21.6392 102.98 21.7698 101.802L21.4518 101.767ZM20.9923 105.296L20.675 105.254C20.5535 106.185 20.138 106.952 19.734 107.917L20.0291 108.04L20.3243 108.164C20.6975 107.273 21.1735 106.38 21.3096 105.337L20.9923 105.296ZM20.0291 108.04L19.7337 107.917C19.5508 108.357 19.2297 108.92 19.2938 109.585L19.6123 109.554L19.9308 109.524C19.8866 109.065 20.0975 108.709 20.3246 108.163L20.0291 108.04ZM19.6123 109.554L19.2938 109.585C19.3231 109.887 19.4547 110.222 19.597 110.514C19.7427 110.814 19.9156 111.102 20.052 111.318L20.3225 111.147L20.5929 110.976C20.4619 110.769 20.3033 110.504 20.1726 110.235C20.0385 109.959 19.9487 109.708 19.9308 109.523L19.6123 109.554ZM20.3225 111.147L20.0509 111.316C20.5123 112.056 21.1942 112.666 22.0372 112.945L22.1376 112.641L22.238 112.337C21.5631 112.114 20.9922 111.616 20.5941 110.977L20.3225 111.147ZM22.1376 112.641L22.0375 112.945C22.551 113.114 22.9729 113.089 23.362 113.022C23.7657 112.952 24.0579 112.86 24.4541 112.842L24.4397 112.523L24.4252 112.203C23.9786 112.223 23.5667 112.337 23.2536 112.391C22.9258 112.447 22.6181 112.462 22.2377 112.337L22.1376 112.641ZM24.4397 112.523L24.1204 112.544C24.1372 112.798 24.1337 113.072 24.1277 113.367C24.1218 113.657 24.1136 113.968 24.1238 114.276C24.1443 114.888 24.2383 115.54 24.6113 116.092L24.8763 115.912L25.1413 115.733C24.8712 115.334 24.7827 114.83 24.7635 114.254C24.7539 113.968 24.7616 113.677 24.7676 113.38C24.7735 113.087 24.7779 112.786 24.759 112.501L24.4397 112.523ZM24.8763 115.912L24.6114 116.092C24.8683 116.471 25.1872 116.715 25.5461 116.843C25.9011 116.97 26.2731 116.974 26.6293 116.912C27.3332 116.787 28.0291 116.39 28.5476 116.023L28.3625 115.761L28.1774 115.5C27.6862 115.849 27.0829 116.182 26.5181 116.281C26.2399 116.33 25.9852 116.32 25.761 116.241C25.5408 116.162 25.3282 116.009 25.1412 115.733L24.8763 115.912ZM28.3625 115.761L28.5477 116.022C29.0997 115.631 29.6721 115.16 30.1148 114.595L29.8629 114.398L29.611 114.2C29.2232 114.695 28.7074 115.124 28.1773 115.5L28.3625 115.761ZM29.8629 114.398L30.1152 114.594C30.2427 114.431 30.3635 114.259 30.4786 114.097C30.5956 113.932 30.7083 113.775 30.8275 113.63C31.0655 113.34 31.3146 113.112 31.6294 112.98L31.5058 112.685L31.3823 112.39C30.9312 112.579 30.6027 112.895 30.3326 113.224C30.1978 113.389 30.0738 113.561 29.9568 113.726C29.8378 113.893 29.727 114.051 29.6106 114.201L29.8629 114.398ZM31.5058 112.685L31.629 112.981C32.2287 112.73 32.7763 112.817 33.4029 112.944C34.0107 113.068 34.7192 113.241 35.4838 112.998L35.3868 112.693L35.2897 112.388C34.7132 112.572 34.1792 112.45 33.5308 112.317C32.9013 112.189 32.1789 112.058 31.3826 112.39L31.5058 112.685ZM35.3868 112.693L35.4837 112.998C36.2127 112.766 36.6452 112.383 37.0275 112.009C37.4094 111.636 37.7225 111.296 38.2496 111.034L38.1072 110.748L37.9647 110.461C37.3282 110.777 36.9387 111.201 36.5802 111.552C36.222 111.902 35.8761 112.202 35.2898 112.388L35.3868 112.693ZM38.1072 110.748L38.2495 111.034C38.6699 110.825 39.1842 110.72 39.7612 110.647C40.0482 110.611 40.3419 110.584 40.6433 110.554C40.9422 110.525 41.2471 110.493 41.5453 110.449C42.138 110.361 42.7329 110.219 43.2377 109.917C43.7537 109.609 44.1609 109.143 44.386 108.442L44.0814 108.344L43.7767 108.246C43.6003 108.795 43.295 109.137 42.9093 109.368C42.5126 109.605 42.0167 109.732 41.4514 109.816C41.1705 109.858 40.8795 109.888 40.581 109.917C40.2848 109.946 39.9794 109.974 39.681 110.012C39.087 110.087 38.4848 110.203 37.9648 110.461L38.1072 110.748ZM44.0814 108.344L44.3861 108.442C44.5373 107.97 44.5571 107.551 44.4831 107.172C44.4096 106.795 44.2472 106.474 44.0606 106.193C43.8776 105.916 43.6579 105.658 43.474 105.429C43.283 105.191 43.1242 104.977 43.0189 104.754L42.7295 104.89L42.4402 105.027C42.5803 105.324 42.7812 105.588 42.9748 105.83C43.1755 106.08 43.3652 106.301 43.5269 106.546C43.6851 106.785 43.8027 107.026 43.8549 107.294C43.9066 107.559 43.8978 107.868 43.7766 108.247L44.0814 108.344ZM42.7295 104.89L43.0189 104.754C42.4175 103.48 42.0798 102.095 41.7325 100.671C41.388 99.2588 41.0339 97.8082 40.3941 96.4644L40.1052 96.6019L39.8162 96.7395C40.4231 98.014 40.7636 99.3997 41.1107 100.823C41.4552 102.235 41.8063 103.685 42.4402 105.027L42.7295 104.89ZM40.1052 96.6019L40.3942 96.4646C39.827 95.2712 39.1097 94.1675 38.4084 93.0839C37.7031 91.9942 37.0135 90.924 36.4744 89.772L36.1846 89.9076L35.8947 90.0432C36.4553 91.2413 37.1693 92.3472 37.8711 93.4316C38.5768 94.522 39.27 95.5904 39.8161 96.7393L40.1052 96.6019ZM36.1846 89.9076L36.4745 89.7721C35.3054 87.2691 34.1689 84.8389 33.4043 82.1929L33.0969 82.2817L32.7895 82.3705C33.5702 85.0724 34.729 87.5473 35.8947 90.043L36.1846 89.9076ZM33.0969 82.2817L33.4044 82.193C31.7758 76.5474 30.9674 71.2785 30.5899 65.4193L30.2706 65.4399L29.9512 65.4604C30.3312 71.3571 31.1459 76.6728 32.7894 82.3704L33.0969 82.2817ZM30.2706 65.4399L30.5899 65.4193C30.3239 61.2946 29.9435 57.2484 29.8979 53.0997L29.5779 53.1033L29.2579 53.1068C29.3038 57.2782 29.6869 61.3602 29.9512 65.4605L30.2706 65.4399ZM29.5779 53.1033L29.8979 53.0998C29.8201 45.9707 29.599 38.8179 28.7366 31.7231L28.4189 31.7618L28.1012 31.8004C28.9594 38.8593 29.1802 45.9838 29.2579 53.1067L29.5779 53.1033ZM28.4189 31.7618L28.7365 31.723C28.3683 28.7019 27.5307 25.4851 26.8783 22.3209C26.2221 19.1384 25.7476 15.9889 26.0692 13.0248L25.7511 12.9903L25.4329 12.9557C25.0999 16.025 25.5932 19.2572 26.2515 22.4501C26.9136 25.6613 27.7372 28.8136 28.1012 31.8005L28.4189 31.7618ZM25.7511 12.9903L26.0692 13.0248C26.3757 10.1999 26.6492 7.514 25.3143 5.11892L25.0348 5.27471L24.7553 5.4305C25.9747 7.6184 25.7437 10.0915 25.4329 12.9557L25.7511 12.9903ZM25.0348 5.27471L25.3142 5.11879C24.5552 3.75831 22.8558 3.09464 21.5221 3.2418C20.8467 3.31633 20.2115 3.60512 19.8485 4.1769C19.4827 4.75314 19.4438 5.53692 19.7926 6.4907L20.0931 6.38079L20.3937 6.27088C20.0864 5.43066 20.1655 4.87173 20.3889 4.51988C20.615 4.16356 21.0399 3.93889 21.5923 3.87793C22.7145 3.75412 24.142 4.3314 24.7554 5.43063L25.0348 5.27471ZM20.0931 6.38079L20.3936 6.2708C20.2135 5.77868 20.1139 5.29677 20.0292 4.82555C19.9462 4.36359 19.8747 3.89087 19.7505 3.46416C19.6239 3.02933 19.4359 2.61478 19.1028 2.25777C18.7691 1.90009 18.3099 1.62163 17.6748 1.42471L17.58 1.73036L17.4852 2.03601C18.0388 2.20764 18.3932 2.43531 18.6349 2.69437C18.8772 2.95409 19.0264 3.2669 19.136 3.64307C19.2479 4.02738 19.3114 4.44932 19.3993 4.93874C19.4856 5.4189 19.5929 5.94507 19.7926 6.49078L20.0931 6.38079ZM17.58 1.73036L17.6748 1.42471C15.8705 0.865292 13.8707 1.1202 12.0503 1.84674C10.2287 2.57375 8.55757 3.78394 7.39864 5.17979L7.64485 5.38421L7.89105 5.58862C8.97855 4.2788 10.5604 3.13045 12.2875 2.44115C14.0158 1.75138 15.8604 1.5322 17.4852 2.036L17.58 1.73036ZM7.64485 5.38421L7.39862 5.17983C6.65476 6.07599 6.02409 7.32522 5.63322 8.63407C5.2428 9.9414 5.0821 11.3403 5.31043 12.5354L5.62474 12.4753L5.93906 12.4152C5.73609 11.3529 5.87447 10.0628 6.24646 8.81721C6.61798 7.57312 7.21301 6.40549 7.89107 5.58859L7.64485 5.38421ZM5.62474 12.4753L5.31043 12.5353C5.51404 13.6014 5.91347 14.2946 6.46085 14.7513C7.00039 15.2015 7.64792 15.3905 8.27696 15.5211C9.57825 15.7912 10.7823 15.8406 11.6276 16.9714L11.8839 16.7798L12.1402 16.5882C11.1118 15.2125 9.57332 15.1365 8.40702 14.8944C7.80226 14.7689 7.28472 14.6052 6.87087 14.2599C6.46485 13.9211 6.12256 13.376 5.93906 12.4153L5.62474 12.4753ZM11.8839 16.7798L11.6275 16.9712C11.9476 17.4001 12.1522 18.0309 12.3443 18.7436C12.529 19.4286 12.7032 20.1966 12.9744 20.7903L13.2655 20.6574L13.5565 20.5244C13.3142 19.9939 13.1592 19.3074 12.9623 18.577C12.7728 17.8741 12.5434 17.1283 12.1404 16.5884L11.8839 16.7798ZM13.2655 20.6574L12.9743 20.79C13.837 22.6841 14.8064 24.2878 15.4289 26.2329L15.7336 26.1354L16.0384 26.0379C15.402 24.049 14.3795 22.3313 13.5567 20.5247L13.2655 20.6574ZM15.7336 26.1354L15.4288 26.2329C16.7273 30.293 17.1039 34.6001 17.6551 38.8755L17.9724 38.8346L18.2898 38.7937C17.7437 34.5569 17.3597 30.1693 16.0384 26.0379L15.7336 26.1354ZM17.9724 38.8346L17.6551 38.8754C19.3109 51.7488 21.1557 64.7347 22.1516 77.625L22.4706 77.6003L22.7897 77.5757C21.7921 64.6644 19.9442 51.6552 18.2898 38.7938L17.9724 38.8346ZM14.8901 9.58396L15.0607 9.85466C15.8332 9.36772 16.4835 8.88845 17.069 8.2509C17.6548 7.613 18.1645 6.82911 18.6737 5.74299L18.3839 5.60718L18.0942 5.47136C17.605 6.51488 17.1287 7.23973 16.5976 7.81799C16.0662 8.3966 15.4687 8.84091 14.7194 9.31326L14.8901 9.58396ZM18.3839 5.60718L18.6738 5.74274C19.5163 3.94122 19.5249 2.6205 18.8099 1.76203C18.1179 0.93114 16.8537 0.676035 15.5145 0.711846C14.1526 0.748263 12.6073 1.08758 11.2272 1.56459C9.8518 2.03997 8.60492 2.6644 7.85535 3.29259L8.06089 3.53785L8.26643 3.78311C8.9304 3.22667 10.0941 2.63336 11.4362 2.16948C12.7736 1.70724 14.2526 1.38582 15.5316 1.35162C16.8332 1.31681 17.8264 1.58122 18.3181 2.17161C18.7869 2.73441 18.9054 3.73671 18.094 5.47161L18.3839 5.60718ZM8.06089 3.53785L7.85554 3.29243C6.45453 4.4647 5.18577 6.58835 4.67561 8.77022C4.16604 10.9496 4.39499 13.2889 6.14463 14.7832L6.35245 14.5399L6.56027 14.2965C5.07211 13.0256 4.81489 10.9855 5.2988 8.91593C5.78212 6.84886 6.98648 4.85409 8.26624 3.78327L8.06089 3.53785ZM6.35245 14.5399L6.14476 14.7833C6.23558 14.8608 6.38354 14.9364 6.53154 15.0036C6.69168 15.0762 6.89181 15.1564 7.11552 15.2377C7.56315 15.4006 8.11849 15.5733 8.66197 15.706C9.20017 15.8373 9.7484 15.9348 10.1734 15.9356C10.3815 15.936 10.5963 15.9139 10.7708 15.8352C10.8618 15.7941 10.9548 15.7319 11.0257 15.6371C11.0993 15.5386 11.1352 15.4233 11.1363 15.3029L10.8163 15.3L10.4963 15.2971C10.4964 15.2906 10.4998 15.2717 10.5131 15.2539C10.5237 15.2397 10.5287 15.2423 10.5077 15.2518C10.4582 15.2741 10.3529 15.2959 10.1746 15.2956C9.82716 15.2949 9.33824 15.2122 8.81371 15.0842C8.29447 14.9575 7.76151 14.7917 7.33432 14.6363C7.12063 14.5586 6.93672 14.4846 6.79607 14.4208C6.72566 14.3888 6.66885 14.3606 6.6259 14.3369C6.60453 14.3251 6.58817 14.3153 6.57619 14.3076C6.56363 14.2994 6.55926 14.2957 6.56014 14.2964L6.35245 14.5399ZM10.8163 15.3L11.1363 15.3036C11.1497 14.1123 11.3332 13.2345 11.7341 12.5183C12.134 11.804 12.7691 11.2167 13.7484 10.6414L13.5863 10.3655L13.4242 10.0896C12.3856 10.6997 11.6494 11.3594 11.1757 12.2057C10.7029 13.0503 10.5104 14.0471 10.4964 15.2964L10.8163 15.3ZM13.5863 10.3655L13.7484 10.6414C14.2248 10.3613 14.6615 10.1055 15.0603 9.8549L14.8901 9.58396L14.7198 9.31301C14.3307 9.55749 13.9033 9.80792 13.4241 10.0896L13.5863 10.3655ZM18.9097 3.89887L18.6372 3.7311C18.0545 4.67757 17.4046 5.75422 17.5847 7.02782L17.9016 6.98302L18.2184 6.93822C18.0754 5.92667 18.5808 5.0435 19.1822 4.06664L18.9097 3.89887ZM17.9016 6.98302L17.8808 7.30235C18.0555 7.31368 18.1872 7.37797 18.3951 7.47269C18.5968 7.56459 18.8531 7.67407 19.198 7.66227L19.1871 7.34245L19.1761 7.02264C18.9877 7.02909 18.8458 6.97472 18.6604 6.89027C18.4812 6.80865 18.2368 6.6841 17.9223 6.66369L17.9016 6.98302ZM19.1871 7.34245L18.8884 7.22752C18.6919 7.73807 18.7033 8.30128 18.8167 8.86171C18.9303 9.42292 19.1516 10.0073 19.4037 10.5765C19.6554 11.1445 19.9474 11.7179 20.2027 12.2436C20.4619 12.7772 20.6833 13.2615 20.8132 13.6795L21.1188 13.5845L21.4244 13.4896C21.2785 13.0202 21.0372 12.4967 20.7784 11.964C20.5157 11.4232 20.2345 10.8716 19.9889 10.3172C19.7438 9.764 19.544 9.22886 19.444 8.73477C19.3439 8.23991 19.3492 7.8121 19.4857 7.45739L19.1871 7.34245ZM21.1188 13.5845L20.8133 13.6797C21.7948 16.8312 21.8907 20.1133 22.3333 23.4143L22.6504 23.3718L22.9676 23.3293C22.5368 20.1161 22.4271 16.7093 21.4243 13.4894L21.1188 13.5845ZM22.6504 23.3718L22.3333 23.4143C23.0469 28.7424 23.38 34.1944 23.9446 39.5986L24.2629 39.5654L24.5811 39.5321C24.021 34.1708 23.682 28.6636 22.9676 23.3293L22.6504 23.3718ZM24.2629 39.5654L24.5482 39.7102C24.7722 39.2687 24.8398 38.6063 24.8386 37.8883C24.8373 37.1548 24.7628 36.3042 24.6624 35.4479C24.5619 34.5908 24.4342 33.7174 24.3249 32.9406C24.2149 32.1583 24.1247 31.4813 24.0953 31.0004L23.7759 31.0199L23.4565 31.0394C23.4877 31.5503 23.582 32.2535 23.6912 33.0298C23.8011 33.8116 23.9274 34.6748 24.0268 35.5224C24.1262 36.3707 24.1974 37.1927 24.1986 37.8894C24.1998 38.6016 24.1265 39.1269 23.9775 39.4206L24.2629 39.5654ZM23.7759 31.0199L24.0953 31.0004C23.9084 27.9425 23.5418 24.9718 23.513 21.9358L23.193 21.9388L22.873 21.9419C22.902 24.9948 23.2731 28.0384 23.4565 31.0394L23.7759 31.0199ZM23.193 21.9388L23.513 21.9357C23.4818 18.7627 23.5113 15.4683 23.0401 12.2872L22.7236 12.3341L22.407 12.3809C22.8701 15.5078 22.8417 18.7483 22.873 21.942L23.193 21.9388ZM22.7236 12.3341L23.0401 12.2871C23.0022 12.0311 22.8704 11.4909 22.7454 10.9216C22.6165 10.3344 22.4885 9.69173 22.4424 9.18145C22.4191 8.92381 22.4189 8.72122 22.4413 8.58383C22.4681 8.41867 22.5045 8.46904 22.4293 8.49686C22.3628 8.52142 22.3822 8.46299 22.5749 8.60856C22.7442 8.73644 22.9786 8.97123 23.2909 9.35447L23.5389 9.15232L23.787 8.95018C23.4634 8.55305 23.1909 8.2718 22.9606 8.09786C22.7537 7.94159 22.4807 7.79553 22.2074 7.89656C21.9253 8.00084 21.8403 8.29178 21.8095 8.48117C21.7742 8.69833 21.7802 8.96428 21.805 9.23904C21.8551 9.79357 21.9913 10.4712 22.1203 11.0589C22.2533 11.6645 22.3734 12.1538 22.407 12.381L22.7236 12.3341ZM23.5389 9.15232L23.2907 9.35425C23.5949 9.72828 23.7546 10.3634 23.8537 11.1139C23.9021 11.4806 23.9342 11.8552 23.967 12.2182C23.9995 12.5766 24.033 12.9274 24.0846 13.2285L24.4 13.1743L24.7154 13.1202C24.6688 12.8484 24.6372 12.5228 24.6044 12.1606C24.5721 11.803 24.5387 11.4129 24.4882 11.0301C24.3894 10.2816 24.2168 9.47852 23.7872 8.9504L23.5389 9.15232ZM24.4 13.1743L24.718 13.2099C24.7767 12.6862 24.8959 12.1396 25.0315 11.5696C25.1656 11.0055 25.317 10.4138 25.4299 9.82606C25.6559 8.65025 25.7446 7.41796 25.2306 6.25825L24.938 6.38793L24.6455 6.51761C25.0786 7.49467 25.0203 8.56657 24.8014 9.70526C24.6919 10.2748 24.5464 10.8429 24.4088 11.4216C24.2726 11.9943 24.1453 12.5734 24.082 13.1387L24.4 13.1743ZM24.938 6.38793L25.2307 6.25853C24.7185 5.09998 23.4215 4.35325 22.2351 4.27912C21.6338 4.24155 21.0278 4.37408 20.5527 4.74706C20.0711 5.12511 19.7632 5.71941 19.7091 6.52354L20.0284 6.54504L20.3476 6.56654C20.3918 5.91072 20.6329 5.49773 20.9478 5.25049C21.2693 4.99817 21.7075 4.88741 22.1952 4.91788C23.1866 4.97982 24.2462 5.61448 24.6453 6.51732L24.938 6.38793ZM20.0284 6.54504L20.3397 6.47099C20.2218 5.97533 20.0552 5.59046 19.8371 5.32807C19.6114 5.05656 19.3191 4.90688 18.9901 4.93473C18.6797 4.961 18.4022 5.14036 18.1732 5.37765C17.9408 5.61852 17.7316 5.94586 17.5563 6.33061L17.8475 6.46331L18.1387 6.59601C18.2933 6.25673 18.4655 5.99642 18.6338 5.82204C18.8055 5.64408 18.9477 5.5806 19.044 5.57245C19.1216 5.56589 19.2228 5.59023 19.345 5.7372C19.4747 5.89328 19.6105 6.17134 19.717 6.6191L20.0284 6.54504ZM32.3303 110.544L32.1094 110.313C31.5681 110.83 30.9208 111.108 30.1973 111.514C29.4896 111.911 28.7669 112.408 28.2361 113.34L28.5141 113.498L28.7922 113.657C29.2391 112.872 29.8446 112.446 30.5106 112.072C31.1608 111.707 31.9327 111.366 32.5512 110.776L32.3303 110.544ZM28.5141 113.498L28.7727 113.687C29.4329 112.782 30.3379 112.412 31.3266 112.227C31.8242 112.135 32.333 112.09 32.8399 112.046C33.3398 112.003 33.8436 111.96 34.3004 111.865L34.2353 111.551L34.1703 111.238C33.7576 111.324 33.2933 111.365 32.7846 111.409C32.283 111.452 31.7428 111.499 31.2091 111.598C30.1354 111.799 29.0493 112.222 28.2556 113.31L28.5141 113.498ZM34.2353 111.551L34.3004 111.865C35.2588 111.666 35.8208 111.305 36.3152 110.909C36.8083 110.513 37.1821 110.134 37.8388 109.799L37.6934 109.514L37.548 109.229C36.814 109.603 36.3549 110.056 35.9148 110.409C35.4758 110.761 35.0041 111.065 34.1703 111.238L34.2353 111.551ZM37.6934 109.514L37.8389 109.799C38.01 109.711 38.2172 109.678 38.4736 109.677C38.7382 109.676 39.0045 109.707 39.3212 109.729C39.9203 109.769 40.6431 109.769 41.2324 109.209L41.0119 108.977L40.7915 108.745C40.4161 109.102 39.949 109.13 39.3647 109.09C39.0897 109.071 38.7659 109.035 38.471 109.037C38.1679 109.038 37.8462 109.076 37.5479 109.229L37.6934 109.514ZM41.0119 108.977L41.0038 108.657C40.2041 108.677 39.4347 108.628 38.8545 108.378C38.5704 108.256 38.3407 108.089 38.173 107.865C38.006 107.642 37.8868 107.345 37.8514 106.938L37.5326 106.966L37.2138 106.994C37.258 107.501 37.4122 107.917 37.6608 108.249C37.9087 108.58 38.2369 108.809 38.6013 108.966C39.3183 109.275 40.2089 109.317 41.0201 109.297L41.0119 108.977ZM37.5326 106.966L37.8514 106.938C37.7961 106.307 38.0483 105.875 38.394 105.437C38.5544 105.234 38.7781 104.981 38.9455 104.754C39.1246 104.512 39.2906 104.238 39.3772 103.913L39.0681 103.83L38.7589 103.748C38.7015 103.963 38.5871 104.162 38.4307 104.374C38.2625 104.602 38.0957 104.783 37.8918 105.041C37.5087 105.525 37.1373 106.121 37.2138 106.994L37.5326 106.966ZM39.0681 103.83L39.3769 103.914C39.6024 103.083 39.3652 102.199 39.1205 101.405C38.8639 100.572 38.5993 99.8319 38.6228 99.1504L38.303 99.1394L37.9832 99.1283C37.9549 99.9465 38.2709 100.821 38.5089 101.594C38.7588 102.405 38.9299 103.117 38.7592 103.746L39.0681 103.83ZM38.303 99.1394L37.9869 99.1895C38.0668 99.6933 38.236 100.338 38.4635 100.955C38.6893 101.566 38.983 102.179 39.3234 102.601L39.5725 102.4L39.8215 102.2C39.5455 101.857 39.2807 101.32 39.0639 100.733C38.8489 100.15 38.6915 99.5464 38.619 99.0893L38.303 99.1394ZM39.5725 102.4L39.8593 102.542C39.8693 102.522 39.8863 102.494 39.917 102.447C39.9443 102.405 39.9822 102.348 40.0174 102.288C40.0876 102.168 40.1705 101.998 40.1802 101.793L39.8606 101.778L39.5409 101.762C39.5385 101.814 39.5162 101.877 39.4648 101.965C39.4392 102.009 39.4122 102.049 39.3802 102.099C39.3515 102.143 39.3145 102.2 39.2857 102.259L39.5725 102.4ZM39.8606 101.778L39.6026 101.967C39.8726 102.335 40.1218 102.732 40.3807 103.144C40.6373 103.553 40.9031 103.974 41.1979 104.37L41.4547 104.179L41.7115 103.988C41.4339 103.615 41.1808 103.215 40.9225 102.804C40.6665 102.397 40.4048 101.978 40.1185 101.588L39.8606 101.778ZM41.4547 104.179L41.605 104.462C41.6222 104.453 41.6317 104.451 41.6344 104.45C41.6367 104.45 41.6368 104.45 41.6368 104.45C41.6381 104.45 41.6566 104.454 41.6954 104.486C41.7864 104.562 41.8702 104.686 42.0024 104.864L42.2594 104.673L42.5163 104.482C42.4176 104.349 42.2721 104.134 42.105 103.995C42.0147 103.919 41.897 103.847 41.7509 103.82C41.5983 103.793 41.4466 103.821 41.3044 103.897L41.4547 104.179ZM42.2594 104.673L42.5308 104.504C42.0626 103.753 41.7817 102.896 41.5116 101.993C41.2454 101.102 40.9876 100.157 40.5625 99.3003L40.2758 99.4425L39.9892 99.5847C40.384 100.38 40.6246 101.26 40.8984 102.176C41.1684 103.079 41.4693 104.011 41.9879 104.842L42.2594 104.673ZM40.2758 99.4425L40.5626 99.3005C40.0027 98.1696 39.3951 97.0886 38.8103 96.0156C38.2236 94.9393 37.6572 93.8667 37.1679 92.7354L36.8742 92.8624L36.5805 92.9894C37.0819 94.1488 37.66 95.2427 38.2483 96.322C38.8385 97.4046 39.4365 98.4683 39.9891 99.5845L40.2758 99.4425ZM36.8742 92.8624L37.168 92.7356C36.593 91.4032 35.9154 90.1298 35.2679 88.8648C34.6179 87.5947 33.9953 86.3276 33.5132 84.984L33.212 85.0921L32.9108 85.2002C33.4078 86.5852 34.0467 87.8834 34.6982 89.1564C35.3523 90.4343 36.0162 91.6817 36.5804 92.9892L36.8742 92.8624ZM33.212 85.0921L33.5133 84.9843C31.3727 79.0001 30.8902 73.3425 29.9339 67.0288L29.6175 67.0768L29.3011 67.1247C30.2499 73.3888 30.7428 79.1395 32.9107 85.1999L33.212 85.0921ZM29.6175 67.0768L29.9339 67.0287C29.509 64.2296 28.8574 61.3846 28.7554 58.621L28.4357 58.6328L28.1159 58.6446C28.2196 61.4559 28.8863 64.392 29.3012 67.1248L29.6175 67.0768ZM28.4357 58.6328L28.1288 58.542C27.2368 61.5565 27.2246 64.9549 27.4702 68.3362C27.5932 70.0287 27.7815 71.7256 27.9594 73.3726C28.1376 75.0223 28.3053 76.6215 28.3889 78.1306L28.7085 78.1129L29.028 78.0952C28.9432 76.567 28.7738 74.9519 28.5957 73.3038C28.4174 71.6531 28.2305 69.9687 28.1085 68.2899C27.8644 64.9286 27.8842 61.6244 28.7425 58.7236L28.4357 58.6328ZM28.7085 78.1129L28.3889 78.1306C28.5869 81.7096 29.2726 85.0437 29.907 88.5209L30.2218 88.4635L30.5366 88.406C29.8985 84.9088 29.2232 81.6239 29.028 78.0952L28.7085 78.1129ZM30.2218 88.4635L29.907 88.521C29.9759 88.8982 30.0338 89.3217 30.0947 89.7737C30.1553 90.2231 30.2188 90.6989 30.2984 91.1693C30.4562 92.1029 30.6831 93.0562 31.1065 93.7842L31.3831 93.6233L31.6598 93.4624C31.2983 92.8408 31.0855 91.9858 30.9294 91.0626C30.852 90.6048 30.7899 90.1401 30.729 89.6882C30.6684 89.239 30.6087 88.8004 30.5366 88.406L30.2218 88.4635ZM31.3831 93.6233L31.6988 93.5708C31.6207 93.1012 31.3986 91.7403 31.3257 90.5C31.289 89.8761 31.2917 89.3057 31.3609 88.8998C31.396 88.6943 31.4435 88.5603 31.4905 88.4856C31.5125 88.4507 31.5279 88.4391 31.5318 88.4366C31.5327 88.436 31.5313 88.436 31.5352 88.4359L31.534 88.116L31.5328 87.796C31.2605 87.797 31.068 87.9553 30.9488 88.1448C30.836 88.3241 30.7706 88.5547 30.73 88.7922C30.6481 89.2726 30.6494 89.9026 30.6868 90.5376C30.7619 91.8152 30.9893 93.206 31.0675 93.6758L31.3831 93.6233ZM31.534 88.116L31.5355 88.4359C31.5564 88.4359 31.6092 88.4454 31.7001 88.5054C31.7888 88.5641 31.8919 88.6566 32.0067 88.7837C32.2362 89.038 32.4792 89.3935 32.7138 89.7826C33.184 90.5624 33.5817 91.4086 33.7527 91.7368L34.0365 91.5889L34.3202 91.441C34.1667 91.1463 33.7455 90.2541 33.2619 89.4521C33.0196 89.0503 32.7519 88.6542 32.4818 88.3549C32.3468 88.2054 32.2029 88.0707 32.053 87.9716C31.9053 87.8739 31.7278 87.7951 31.5325 87.796L31.534 88.116ZM34.0365 91.5889L33.7528 91.737C34.5093 93.1857 35.2417 94.8822 35.6188 96.4612L35.9301 96.3869L36.2413 96.3126C35.8472 94.6623 35.0892 92.9136 34.3201 91.4408L34.0365 91.5889ZM35.9301 96.3869L35.6188 96.4612C36.0423 98.2363 36.6136 99.9542 36.6388 101.714L36.9588 101.709L37.2788 101.705C37.2522 99.8512 36.6469 98.0128 36.2413 96.3127L35.9301 96.3869ZM36.9588 101.709L36.6388 101.714C36.6433 102.021 36.6516 102.34 36.5858 102.595C36.5542 102.717 36.5114 102.797 36.4647 102.847C36.4243 102.889 36.3662 102.925 36.2604 102.935L36.289 103.253L36.3176 103.572C36.5699 103.55 36.7757 103.449 36.9294 103.287C37.0766 103.131 37.1581 102.938 37.2055 102.755C37.2976 102.398 37.2827 101.978 37.2788 101.705L36.9588 101.709ZM36.289 103.253L36.2608 102.935C36.1719 102.943 36.1171 102.924 36.0761 102.9C36.0294 102.872 35.9799 102.823 35.9253 102.742C35.8699 102.659 35.8205 102.561 35.7642 102.443C35.7118 102.334 35.6496 102.201 35.5779 102.085L35.306 102.254L35.034 102.422C35.0831 102.502 35.128 102.597 35.1873 102.72C35.2427 102.836 35.3097 102.973 35.3936 103.098C35.4783 103.224 35.5912 103.356 35.7482 103.45C35.9109 103.547 36.1013 103.591 36.3172 103.572L36.289 103.253ZM35.306 102.254L35.5781 102.085C35.295 101.628 34.9843 101.194 34.675 100.77C34.3636 100.344 34.0557 99.9318 33.7666 99.5044L33.5015 99.6837L33.2365 99.863C33.5341 100.303 33.8522 100.729 34.1582 101.148C34.4663 101.57 34.7645 101.987 35.0339 102.422L35.306 102.254ZM33.5015 99.6837L33.7666 99.5045C33.5126 99.1288 33.2747 98.7019 33.0396 98.267C32.8074 97.8374 32.5754 97.395 32.3425 97.0112L32.0689 97.1772L31.7954 97.3432C32.0174 97.7092 32.2381 98.1301 32.4766 98.5713C32.7122 99.0072 32.9631 99.4587 33.2364 99.8629L33.5015 99.6837ZM32.0689 97.1772L31.795 97.3425C31.921 97.5513 32.0084 97.8671 32.0939 98.2472C32.1739 98.6025 32.2532 99.0207 32.3721 99.3442L32.6725 99.2338L32.9728 99.1234C32.873 98.8518 32.8071 98.5012 32.7183 98.1067C32.6351 97.737 32.5301 97.322 32.3429 97.0118L32.0689 97.1772ZM32.6725 99.2338L32.3726 99.3454C32.6475 100.084 32.9706 100.799 33.2867 101.501L33.5785 101.37L33.8703 101.239C33.5524 100.532 33.2385 99.8372 32.9724 99.1222L32.6725 99.2338ZM33.5785 101.37L33.2866 101.501C33.9414 102.958 34.7092 104.404 34.9685 105.919L35.2839 105.865L35.5993 105.811C35.3221 104.191 34.4988 102.637 33.8704 101.239L33.5785 101.37ZM35.2839 105.865L34.9686 105.919C35.05 106.388 35.1962 107.088 35.2793 107.795C35.3205 108.146 35.3447 108.489 35.3375 108.793C35.3303 109.101 35.291 109.346 35.2212 109.515L35.5171 109.637L35.8129 109.759C35.9264 109.484 35.9693 109.148 35.9773 108.808C35.9855 108.463 35.958 108.088 35.9149 107.721C35.8291 106.99 35.6755 106.249 35.5992 105.81L35.2839 105.865ZM35.5171 109.637L35.2212 109.515C35.0582 109.91 34.6183 110.191 34.0373 110.321C33.4624 110.449 32.8439 110.406 32.4497 110.248L32.3303 110.544L32.2109 110.841C32.7479 111.057 33.5018 111.096 34.177 110.945C34.846 110.796 35.5339 110.435 35.8129 109.759L35.5171 109.637ZM32.405 101.32L32.6802 101.156C32.5784 100.985 32.4714 100.812 32.3565 100.641L32.091 100.82L31.8255 100.999C31.9316 101.156 32.032 101.318 32.1298 101.483L32.405 101.32ZM32.091 100.82L32.3574 100.643C32.0448 100.173 31.8235 99.688 31.6108 99.1808C31.4008 98.6803 31.1942 98.1448 30.9204 97.617L30.6363 97.7643L30.3523 97.9117C30.6103 98.409 30.8012 98.9054 31.0206 99.4284C31.2372 99.9448 31.4773 100.475 31.8246 100.997L32.091 100.82ZM30.6363 97.7643L30.3359 97.8744C30.5845 98.5529 30.8768 99.2185 31.1401 99.8655C31.4061 100.519 31.6488 101.168 31.8161 101.848L32.1268 101.771L32.4376 101.695C32.259 100.97 32.0025 100.287 31.7329 99.6243C31.4604 98.9548 31.1805 98.3191 30.9368 97.6542L30.6363 97.7643ZM32.1268 101.771L31.8163 101.848C31.8533 101.997 31.8987 102.16 31.9435 102.323C31.9888 102.488 32.0342 102.655 32.074 102.822C32.1549 103.162 32.2059 103.473 32.1921 103.723L32.5117 103.741L32.8312 103.758C32.8502 103.412 32.7804 103.026 32.6965 102.674C32.654 102.495 32.606 102.318 32.5606 102.153C32.5146 101.986 32.472 101.833 32.4374 101.694L32.1268 101.771ZM32.5117 103.741L32.1922 103.723C32.1923 103.721 32.1919 103.728 32.187 103.745C32.1822 103.762 32.1746 103.784 32.1633 103.811C32.14 103.867 32.1086 103.929 32.0711 104.003C32.0366 104.07 31.9942 104.153 31.9625 104.229C31.9354 104.296 31.8916 104.412 31.9016 104.537L32.2206 104.511L32.5395 104.485C32.5427 104.525 32.5303 104.532 32.5544 104.473C32.574 104.425 32.6028 104.369 32.6411 104.294C32.6765 104.224 32.7197 104.14 32.7543 104.057C32.7873 103.977 32.8248 103.871 32.8312 103.759L32.5117 103.741ZM32.2206 104.511L31.902 104.541C31.9217 104.751 31.9811 104.946 32.0461 105.121C32.0787 105.209 32.1141 105.296 32.1479 105.378C32.1823 105.461 32.215 105.541 32.2454 105.62C32.3658 105.936 32.4349 106.223 32.3538 106.557L32.6648 106.633L32.9759 106.708C33.1021 106.187 32.981 105.753 32.8434 105.392C32.8094 105.303 32.7733 105.216 32.7399 105.135C32.7059 105.052 32.6744 104.975 32.6462 104.898C32.5896 104.746 32.5514 104.611 32.5392 104.481L32.2206 104.511ZM32.6648 106.633L32.3537 106.558C32.2473 107.001 32.0933 107.216 31.9649 107.312C31.8509 107.396 31.7195 107.413 31.5568 107.358C31.1958 107.235 30.7714 106.768 30.5873 106.182L30.282 106.278L29.9767 106.374C30.2003 107.085 30.7368 107.754 31.35 107.964C31.6745 108.074 32.0335 108.057 32.3459 107.826C32.6438 107.605 32.8519 107.224 32.976 106.708L32.6648 106.633ZM30.282 106.278L30.5872 106.182C30.4295 105.681 30.4304 105.052 30.4221 104.362C30.4143 103.707 30.3989 102.98 30.146 102.413L29.8537 102.543L29.5615 102.674C29.7506 103.098 29.774 103.683 29.7822 104.369C29.79 105.02 29.784 105.762 29.9768 106.374L30.282 106.278ZM29.8537 102.543L29.5613 102.673C29.7174 103.025 29.7164 103.578 29.6407 104.224C29.6039 104.538 29.5524 104.855 29.5031 105.16C29.4546 105.461 29.4074 105.754 29.3836 106.005L29.7021 106.035L30.0207 106.066C30.0422 105.84 30.0855 105.568 30.1349 105.262C30.1837 104.96 30.2377 104.629 30.2764 104.299C30.3515 103.658 30.381 102.942 30.1462 102.413L29.8537 102.543ZM29.7021 106.035L29.3837 106.004C29.3517 106.328 29.2838 106.654 29.2199 107.014C29.1577 107.364 29.1014 107.739 29.1102 108.115L29.4301 108.108L29.75 108.1C29.7428 107.791 29.7889 107.47 29.85 107.126C29.9094 106.791 29.9854 106.423 30.0206 106.067L29.7021 106.035ZM29.4301 108.108L29.1101 108.115C29.1151 108.337 29.1266 108.527 29.1607 108.682C29.1963 108.844 29.2627 108.998 29.3985 109.117C29.5262 109.228 29.681 109.278 29.8205 109.31C29.9582 109.341 30.1355 109.366 30.3239 109.397L30.3757 109.081L30.4275 108.766C30.2143 108.731 30.0751 108.711 29.9634 108.686C29.8534 108.661 29.8256 108.64 29.8197 108.635C29.8185 108.634 29.8155 108.631 29.8104 108.621C29.8044 108.61 29.7951 108.587 29.7858 108.545C29.7662 108.455 29.7549 108.32 29.75 108.101L29.4301 108.108ZM30.3757 109.081L30.3247 109.397C31.166 109.533 32.2663 109.583 33.1381 109.181L33.0039 108.89L32.8698 108.6C32.1779 108.919 31.2375 108.896 30.4267 108.765L30.3757 109.081ZM33.0039 108.89L33.1382 109.181C33.7908 108.879 34.2253 108.448 34.4797 107.932C34.7314 107.422 34.7947 106.854 34.7522 106.291C34.6679 105.174 34.1609 104.003 33.7338 103.158L33.4482 103.303L33.1626 103.447C33.5836 104.28 34.0398 105.355 34.114 106.339C34.1508 106.826 34.0921 107.271 33.9057 107.649C33.7221 108.022 33.4023 108.353 32.8697 108.6L33.0039 108.89ZM33.4482 103.303L33.7337 103.158C33.3978 102.494 33.0691 101.811 32.6801 101.156L32.405 101.32L32.1299 101.483C32.5044 102.114 32.8189 102.767 33.1626 103.447L33.4482 103.303ZM24.8085 110.123L25.0332 109.895C24.9498 109.813 24.8606 109.627 24.7927 109.314C24.7277 109.015 24.6924 108.649 24.6763 108.262C24.644 107.488 24.6898 106.684 24.7024 106.234L24.3825 106.225L24.0626 106.216C24.0508 106.641 24.0033 107.485 24.0369 108.289C24.0537 108.692 24.0912 109.099 24.1673 109.45C24.2405 109.788 24.3608 110.131 24.5837 110.351L24.8085 110.123ZM24.3825 106.225L24.0625 106.229C24.0656 106.503 24.0828 106.833 24.0979 107.175C24.1132 107.521 24.1266 107.886 24.1239 108.246C24.1181 108.983 24.0429 109.635 23.8236 110.041L24.1051 110.193L24.3867 110.345C24.6886 109.786 24.7581 108.989 24.7638 108.251C24.7668 107.873 24.7526 107.494 24.7373 107.147C24.7218 106.795 24.7054 106.482 24.7025 106.221L24.3825 106.225ZM24.1051 110.193L23.8231 110.042C23.7255 110.224 23.6419 110.334 23.5649 110.381C23.5351 110.399 23.5087 110.406 23.477 110.404C23.4416 110.403 23.3789 110.389 23.2827 110.332L23.1183 110.606L22.9539 110.881C23.1161 110.978 23.2812 111.036 23.4485 111.044C23.6194 111.051 23.7704 111.005 23.8981 110.927C24.1359 110.782 24.2874 110.53 24.3872 110.344L24.1051 110.193ZM23.1183 110.606L23.2815 110.331C23.3066 110.346 23.3105 110.354 23.2852 110.329C23.2673 110.311 23.243 110.284 23.2152 110.25C23.1589 110.183 23.0972 110.098 23.0498 110.017C23.0261 109.977 23.0083 109.941 22.9965 109.912C22.984 109.881 22.9825 109.868 22.9827 109.869C22.9828 109.87 22.9869 109.912 22.9552 109.964C22.9188 110.023 22.8672 110.044 22.8468 110.049L22.7724 109.738L22.6979 109.426C22.5905 109.452 22.4809 109.514 22.4103 109.628C22.3443 109.735 22.3378 109.848 22.3455 109.929C22.3598 110.082 22.4343 110.233 22.4974 110.34C22.5663 110.458 22.6495 110.571 22.7228 110.659C22.7597 110.704 22.7964 110.745 22.8301 110.779C22.8564 110.805 22.9026 110.851 22.9551 110.882L23.1183 110.606ZM22.7724 109.738L22.6975 109.426C22.1206 109.565 21.814 109.526 21.6568 109.446C21.5254 109.379 21.4398 109.253 21.4058 109C21.3707 108.738 21.4013 108.402 21.4581 108.012C21.5121 107.639 21.5919 107.208 21.6279 106.824L21.3093 106.794L20.9907 106.764C20.9566 107.128 20.8843 107.509 20.8247 107.92C20.7679 108.311 20.7233 108.726 20.7715 109.085C20.821 109.454 20.9775 109.819 21.3673 110.017C21.7311 110.201 22.2247 110.198 22.8472 110.049L22.7724 109.738ZM21.3093 106.794L20.9909 106.762C20.9558 107.11 20.7453 107.48 20.4694 107.925C20.2137 108.338 19.8946 108.824 19.7885 109.324L20.1015 109.391L20.4145 109.457C20.492 109.092 20.7331 108.715 21.0134 108.262C21.2736 107.842 21.5752 107.346 21.6277 106.826L21.3093 106.794ZM20.1015 109.391L19.7885 109.324C19.5833 110.288 20.176 110.99 20.7798 111.448L20.9732 111.194L21.1667 110.939C20.6229 110.526 20.2891 110.047 20.4145 109.457L20.1015 109.391ZM20.9732 111.194L20.7793 111.448C21.5913 112.067 22.6318 112.452 23.6937 112.191L23.6174 111.881L23.5411 111.57C22.7285 111.769 21.8838 111.485 21.1672 110.939L20.9732 111.194ZM23.6174 111.881L23.6933 112.192C23.7798 112.17 23.8746 112.13 23.9599 112.09C24.0496 112.048 24.1504 111.996 24.2533 111.943C24.4639 111.834 24.691 111.714 24.9138 111.618C25.1423 111.519 25.3308 111.462 25.4647 111.455C25.5283 111.452 25.5593 111.462 25.5707 111.467C25.5757 111.47 25.5826 111.473 25.5926 111.493L25.8806 111.354L26.1686 111.214C26.0968 111.066 25.9848 110.955 25.8431 110.888C25.7077 110.825 25.5639 110.81 25.4335 110.816C25.1794 110.829 24.903 110.926 24.6603 111.03C24.4118 111.137 24.1614 111.27 23.9587 111.375C23.8549 111.429 23.765 111.475 23.6889 111.51C23.6085 111.548 23.5623 111.565 23.5415 111.57L23.6174 111.881ZM25.8806 111.354L26.1688 111.215C25.8035 110.458 25.5431 109.676 25.5254 108.874L25.2055 108.881L24.8856 108.888C24.906 109.817 25.2064 110.694 25.5925 111.493L25.8806 111.354ZM25.2055 108.881L24.9046 108.772C24.8282 108.983 24.7682 109.21 24.7107 109.414C24.6512 109.625 24.5926 109.819 24.5154 109.995L24.8085 110.123L25.1015 110.252C25.198 110.032 25.2667 109.801 25.3267 109.588C25.3887 109.368 25.4402 109.172 25.5064 108.99L25.2055 108.881ZM39.6792 109.778L39.7616 110.087C40.7538 109.823 41.8788 109.084 42.5193 108.136C42.8425 107.659 43.0541 107.11 43.0431 106.53C43.032 105.943 42.7936 105.359 42.2798 104.821L42.0483 105.042L41.8168 105.263C42.2338 105.7 42.3955 106.135 42.4032 106.542C42.411 106.956 42.2602 107.377 41.9892 107.778C41.4413 108.588 40.4509 109.241 39.5968 109.469L39.6792 109.778ZM42.0483 105.042L41.8894 105.32C42.5107 105.675 42.8449 106.12 42.9831 106.564C43.1222 107.01 43.0722 107.484 42.871 107.912C42.4664 108.772 41.4682 109.409 40.2846 109.174L40.2225 109.488L40.1604 109.802C41.6531 110.097 42.9298 109.29 43.4501 108.184C43.7114 107.629 43.7862 106.99 43.5941 106.373C43.4011 105.754 42.948 105.188 42.2072 104.764L42.0483 105.042ZM20.8399 6.14593L20.6556 5.88436C19.5756 6.64544 19.2032 7.60329 19.1775 8.62959C19.1527 9.62175 19.454 10.6936 19.6969 11.6895L20.0078 11.6136L20.3187 11.5378C20.0648 10.4969 19.7952 9.53031 19.8173 8.64556C19.8386 7.79495 20.1306 7.03734 21.0242 6.4075L20.8399 6.14593ZM20.0078 11.6136L19.6969 11.6894C20.0106 12.9774 20.2229 14.3588 20.4806 15.7543C20.7365 17.1396 21.0356 18.5284 21.5222 19.7844L21.8206 19.6687L22.119 19.5531C21.6554 18.3565 21.3647 17.0175 21.11 15.6381C20.8572 14.2691 20.6381 12.8492 20.3187 11.5379L20.0078 11.6136ZM21.8206 19.6687L22.1404 19.6578C22.09 18.1858 21.9303 16.7004 21.7551 15.2285C21.5794 13.7526 21.3887 12.2944 21.2724 10.8578L20.9534 10.8836L20.6345 10.9095C20.7521 12.3618 20.9451 13.8386 21.1196 15.3042C21.2945 16.7738 21.4514 18.2365 21.5008 19.6797L21.8206 19.6687ZM20.9534 10.8836L21.2723 10.8571C21.2398 10.4669 21.1787 10.0597 21.1166 9.65609C21.054 9.24879 20.9903 8.84457 20.9483 8.44425C20.864 7.63936 20.8743 6.89819 21.1355 6.26855L20.8399 6.14593L20.5443 6.02332C20.2203 6.80443 20.2245 7.67714 20.3118 8.51092C20.3557 8.92995 20.4222 9.35126 20.4841 9.7534C20.5465 10.1592 20.6042 10.5454 20.6345 10.9102L20.9534 10.8836Z" fill="#967348" mask="url(#path-1-outside-1_8_26)"/>
</g>
<defs>
<filter id="filter0_d_8_26" x="0.4375" y="0.708603" width="48.0873" height="124.243" filterUnits="userSpaceOnUse" color-interpolation-filters="sRGB">
<feFlood flood-opacity="0" result="BackgroundImageFix"/>
<feColorMatrix in="SourceAlpha" type="matrix" values="0 0 0 0 0 0 0 0 0 0 0 0 0 0 0 0 0 0 127 0" result="hardAlpha"/>
<feOffset dy="4"/>
<feGaussianBlur stdDeviation="2"/>
<feComposite in2="hardAlpha" operator="out"/>
<feColorMatrix type="matrix" values="0 0 0 0 0 0 0 0 0 0 0 0 0 0 0 0 0 0 0.25 0"/>
<feBlend mode="normal" in2="BackgroundImageFix" result="effect1_dropShadow_8_26"/>
<feBlend mode="normal" in="SourceGraphic" in2="effect1_dropShadow_8_26" result="shape"/>
</filter>
</defs>
</svg>
