<svg width="59" height="123" viewBox="0 0 59 123" fill="none" xmlns="http://www.w3.org/2000/svg">
<g id="HumerusRight" filter="url(#filter0_d_8_21)">
<mask id="path-1-outside-1_8_21" maskUnits="userSpaceOnUse" x="3.59875" y="-0.150116" width="52" height="115" fill="black">
<rect fill="white" x="3.59875" y="-0.150116" width="52" height="115"/>
<path d="M31.7177 68.058C32.12 66.783 32.6008 65.5634 33.0398 64.2828C37.1447 52.3294 39.0033 39.5286 43.8025 27.7538C44.8914 25.083 45.6328 22.2345 47.1972 19.7947C48.3966 17.9237 50.1721 16.4749 51.5704 14.9078C54.8844 11.1952 53.7506 5.66883 49.4505 3.26784C44.2726 0.375705 41.127 2.08877 36.9169 5.48793C32.0095 4.2795 32.2335 11.8117 32.2122 14.9078C32.1893 18.1895 32.2114 21.937 31.7573 25.1663C30.4169 34.687 28.8814 44.4822 26.0894 53.6481C24.461 58.9968 21.7322 63.9416 20.0543 69.1974C17.2226 78.0666 14.1258 86.7232 10.4773 95.2584C9.2146 98.21 6.20464 100.331 5.02047 103.218C4.0931 105.48 4.76291 107.273 6.36772 109.068C7.9489 110.836 9.37234 109.987 11.2629 109.671C12.8982 109.397 13.0773 111.318 14.5799 111.751C15.6353 112.055 16.7723 111.557 17.8063 111.842C18.9105 112.145 20.0611 113.202 21.1119 113.71C21.9197 114.101 23.0315 114.193 23.8339 113.711C24.9289 113.052 24.7582 111.312 25.5941 110.436C26.7729 109.2 28.3717 110.893 29.6175 109.387C30.7743 107.988 30.5144 105.76 31.166 104.127C30.9831 104.585 26.1923 98.337 25.9645 97.2436C25.6932 95.9384 26.1633 95.0703 26.3264 93.8032C26.6045 91.6482 26.2601 89.4297 26.2891 87.2596C26.3752 80.8398 29.7684 74.992 31.4738 68.8808C31.55 68.6023 31.6323 68.3294 31.7177 68.058Z"/>
<path d="M44.5454 8.72758C42.2563 12.5465 43.5601 17.9856 42.6168 22.2512C44.044 19.6899 41.979 14.6475 44.2048 12.4592C44.9843 13.4209 46.391 12.9178 46.295 11.849C47.4975 9.87492 49.5709 12.122 50.7642 12.6631C51.1399 10.2796 48.1566 2.49502 45.2937 6.35199C43.9023 4.18507 41.1103 3.86531 39.3736 5.78785C38.7358 6.49323 38.2565 7.44458 38.351 8.44195C38.3823 8.76409 39.6297 11.1706 39.8712 10.7858C39.7325 11.0064 39.6388 11.3388 39.475 11.5658C41.6795 13.4304 38.6825 19.3122 39.6403 20.3612"/>
<path d="M6.66871 103.21C9.15897 101.854 10.7965 103.498 12.3 105.384C14.1883 104.927 14.951 104.951 16.6061 105.995C17.3003 106.433 17.0664 106.673 17.8231 106.744C18.4403 106.802 19.1299 106.266 19.8219 106.267C22.0698 106.269 24.6241 110.291 22.7701 112.223C22.8653 112.243 22.9324 112.547 22.9324 112.623C23.1069 112.451 23.4894 112.21 23.6632 112.034C23.7142 112.759 23.2524 113.339 22.719 113.697C23.3248 111.912 21.2102 111.281 19.8325 110.826C21.0251 112.143 22.4058 110.409 21.8336 109.032C21.4023 107.992 19.7868 107.616 18.8709 107.553C18.941 107.442 19.1208 107.249 19.1871 107.17C18.2932 106.56 17.5023 107.304 16.5863 107.297C16.2556 107.293 15.1499 105.909 14.2911 105.926C13.1352 105.949 12.1628 106.748 11.9289 107.927C11.7094 107.899 11.5944 107.797 11.3551 107.791C11.1311 108.517 10.9451 109.17 10.7485 109.926C10.2692 108.707 10.6411 103.363 8.34285 104.316C8.27199 102.924 7.05048 102.657 5.85031 103.209"/>
<path d="M14.8848 85.3751C12.6589 90.8015 10.2448 96.1542 7.45968 101.408C8.85341 98.7789 11.8314 102.317 11.3612 102.891C12.9881 100.904 13.7128 102.096 15.5706 103.187C12.0028 96.7485 13.8408 93.6469 16.2206 87.4064C16.2838 87.8769 16.4271 88.0388 16.5399 88.4339C17.8414 87.0699 18.4197 83.7335 18.9318 81.8522C19.61 79.3584 20.4376 76.7471 20.7835 74.1938C21.3809 69.7973 22.7244 64.9382 24.1349 60.8011C21.0746 69.103 18.1888 77.3216 14.8848 85.3751Z"/>
<path d="M24.6111 104.303C24.6195 101.258 23.5039 98.3433 23.8278 95.0592C24.1775 91.5283 24.5441 87.2493 25.6962 84.0128C24.6545 87.6864 23.686 91.3982 23.0894 95.1814C22.8158 96.9048 20.4025 105.322 24.6111 104.303Z"/>
<path d="M17.8406 104.063C18.1454 102.453 18.3778 100.456 19.149 99.0368C19.2145 101.305 19.86 103.488 20.4574 105.68C19.6717 104.705 18.8244 103.71 18.8769 102.384C18.4556 102.969 18.1271 103.835 17.8406 104.631"/>
<path d="M27.3528 104.277C27.6394 103.222 27.634 102.171 27.1456 101.822C29.1725 103.271 31.1568 106.118 29.0346 108.632C26.6061 111.506 25.9614 107.827 24.557 106.529C25.7198 107.604 26.9002 105.938 27.3528 104.277Z"/>
<path d="M42.9109 13.5502C40.4397 14.6801 41.3472 20.1501 41.0043 22.928C40.5593 26.5311 40.3894 29.9453 39.3073 33.4198C36.0992 43.726 32.9361 54.2099 31.1873 64.8263C33.83 54.1718 37.4442 43.991 40.5319 33.4555C41.5972 29.8191 42.3661 27.3785 42.3661 23.4953C42.3661 20.2152 42.5695 16.8279 42.3097 13.5732C42.0369 13.6676 42.0369 13.8692 41.8205 14.1183"/>
<path d="M48.6321 11.5634C47.992 11.4301 47.4723 11.4634 47.0395 11.9196C48.3898 14.2215 46.1525 16.2352 45.4385 18.4442C44.566 21.1396 43.8848 23.8095 43.0267 26.5136C44.8396 22.9558 45.7258 19.7812 48.6192 16.8986C49.4795 16.0408 51.8569 14.5729 52.1778 13.3931C52.622 11.7641 50.6141 10.3748 49.4635 9.80986C46.9298 8.56414 45.5772 9.14097 44.5302 11.7189C45.6542 9.44962 51.6124 10.5819 50.4404 13.24C48.9788 13.3947 49.5153 11.0373 47.5417 11.5634"/>
<path d="M37.1882 6.17268C36.4864 5.77119 35.7251 5.74659 35.117 6.17426C35.1749 6.31391 35.4058 6.33533 35.4584 6.51386C33.0283 8.8474 33.7614 12.7631 33.6204 15.8417C33.4055 20.5127 32.5551 25.1251 32.2831 29.793C32.0926 33.0596 31.627 36.4135 30.9023 39.5667C32.5917 36.2548 33.6128 31.4251 34.1294 27.7363C34.6606 23.9492 35.7083 19.9089 35.5552 16.0631C35.418 12.6274 34.9517 10.0384 36.6441 6.73999"/>
<path d="M49.7157 7.45885C50.3908 8.6776 50.7383 10.1391 50.6347 11.3865C50.5539 12.3624 49.2585 14.9713 50.1104 15.825C50.1843 15.8996 50.2582 15.9758 50.3306 16.0535C54.3922 14.7427 55.5108 8.67999 53.7414 5.09358C51.9293 1.42148 46.1251 -0.00356108 42.7059 1.35562C37.4533 3.4432 44.0326 4.64051 44.9996 6.86059C44.9882 6.83599 46.4291 5.21736 46.7294 5.14674C47.4761 4.97059 48.008 5.44587 48.5277 5.91956C48.9895 6.34168 49.3903 6.8709 49.7157 7.45885Z"/>
<path d="M44.7542 9.01641C44.313 9.73845 44.2269 10.7096 44.3763 11.5372C45.3654 11.7284 46.4002 11.3563 47.3382 11.1294C46.6265 11.7625 46.058 12.4195 45.1924 12.6901C44.5698 12.8845 44.3984 12.1537 43.7217 12.8369C43.4992 13.0614 43.1692 15.4307 43.1083 15.7679C42.869 17.0937 42.9139 18.4561 42.9147 19.8145C42.9147 16.8803 42.7036 11.9165 44.345 9.44248"/>
<path d="M49.6593 14.5491C49.3591 16.336 49.9816 15.8925 48.8417 17.3104C47.5843 18.8743 46.3605 20.4723 44.979 21.9259C45.7784 20.0375 47.374 17.9427 48.5666 16.2408C48.4492 16.194 48.2328 16.1003 48.0941 16.0448C48.341 15.8258 48.6397 15.3696 48.8226 15.2268C47.8876 14.2056 46.2348 18.3117 46.0672 18.8092C46.4489 16.7105 48.0995 14.9641 49.0451 13.6978"/>
<path d="M36.7843 7.95239C33.6303 7.74133 34.8968 14.2984 34.9448 16.1908C34.9052 13.4986 35.5697 9.98125 37.1935 7.95239"/>
<path d="M28.7854 104.93C28.6902 105.789 28.0272 106.663 27.1783 106.706C25.8829 106.771 23.9878 105.363 22.6985 105.044C21.7558 104.812 18.7093 104.04 19.0133 102.499C18.6354 104.417 14.1837 102.894 12.8319 102.499C11.7422 102.18 11.1524 101.712 10.0124 101.804C9.09497 101.877 8.20493 102.32 7.337 102.564C8.49907 101.126 12.1964 101.733 12.6581 103.594C14.0077 103.056 15.2559 103.6 16.5078 104.192C17.5998 104.708 17.404 104.712 18.5958 104.771C20.2646 104.853 27.5075 106.222 25.3762 109.641C26.475 107.877 28.1568 110.224 29.2625 107.987C29.9597 106.575 29.4011 104.853 28.4715 103.773C28.7428 104.089 28.8319 104.508 28.7854 104.93Z"/>
</mask>
<path d="M31.7177 68.058C32.12 66.783 32.6008 65.5634 33.0398 64.2828C37.1447 52.3294 39.0033 39.5286 43.8025 27.7538C44.8914 25.083 45.6328 22.2345 47.1972 19.7947C48.3966 17.9237 50.1721 16.4749 51.5704 14.9078C54.8844 11.1952 53.7506 5.66883 49.4505 3.26784C44.2726 0.375705 41.127 2.08877 36.9169 5.48793C32.0095 4.2795 32.2335 11.8117 32.2122 14.9078C32.1893 18.1895 32.2114 21.937 31.7573 25.1663C30.4169 34.687 28.8814 44.4822 26.0894 53.6481C24.461 58.9968 21.7322 63.9416 20.0543 69.1974C17.2226 78.0666 14.1258 86.7232 10.4773 95.2584C9.2146 98.21 6.20464 100.331 5.02047 103.218C4.0931 105.48 4.76291 107.273 6.36772 109.068C7.9489 110.836 9.37234 109.987 11.2629 109.671C12.8982 109.397 13.0773 111.318 14.5799 111.751C15.6353 112.055 16.7723 111.557 17.8063 111.842C18.9105 112.145 20.0611 113.202 21.1119 113.71C21.9197 114.101 23.0315 114.193 23.8339 113.711C24.9289 113.052 24.7582 111.312 25.5941 110.436C26.7729 109.2 28.3717 110.893 29.6175 109.387C30.7743 107.988 30.5144 105.76 31.166 104.127C30.9831 104.585 26.1923 98.337 25.9645 97.2436C25.6932 95.9384 26.1633 95.0703 26.3264 93.8032C26.6045 91.6482 26.2601 89.4297 26.2891 87.2596C26.3752 80.8398 29.7684 74.992 31.4738 68.8808C31.55 68.6023 31.6323 68.3294 31.7177 68.058Z" fill="#F3D48C"/>
<path d="M6.66871 103.21C9.15897 101.854 10.7965 103.498 12.3 105.384C14.1883 104.927 14.951 104.951 16.6061 105.995C17.3003 106.433 17.0664 106.673 17.8231 106.744C18.4403 106.802 19.1299 106.266 19.8219 106.267C22.0698 106.269 24.6241 110.291 22.7701 112.223C22.8653 112.243 22.9324 112.547 22.9324 112.623C23.1069 112.451 23.4894 112.21 23.6632 112.034C23.7142 112.759 23.2524 113.339 22.719 113.697C23.3248 111.912 21.2102 111.281 19.8325 110.826C21.0251 112.143 22.4058 110.409 21.8336 109.032C21.4023 107.992 19.7868 107.616 18.8709 107.553C18.941 107.442 19.1208 107.249 19.1871 107.17C18.2932 106.56 17.5023 107.304 16.5863 107.297C16.2556 107.293 15.1499 105.909 14.2911 105.926C13.1352 105.949 12.1628 106.748 11.9289 107.927C11.7094 107.899 11.5944 107.797 11.3551 107.791C11.1311 108.517 10.9451 109.17 10.7485 109.926C10.2692 108.707 10.6411 103.363 8.34285 104.316C8.27199 102.924 7.05048 102.657 5.85031 103.209" fill="#DCC06D"/>
<path d="M14.8848 85.3751C12.6589 90.8015 10.2448 96.1542 7.45968 101.408C8.85341 98.7789 11.8314 102.317 11.3612 102.891C12.9881 100.904 13.7128 102.096 15.5706 103.187C12.0028 96.7485 13.8408 93.6469 16.2206 87.4064C16.2838 87.8769 16.4271 88.0388 16.5399 88.4339C17.8414 87.0699 18.4197 83.7335 18.9318 81.8522C19.61 79.3584 20.4376 76.7471 20.7835 74.1938C21.3809 69.7973 22.7244 64.9382 24.1349 60.8011C21.0746 69.103 18.1888 77.3216 14.8848 85.3751Z" fill="#DCC06D"/>
<path d="M24.6111 104.303C24.6195 101.258 23.5039 98.3433 23.8278 95.0592C24.1775 91.5283 24.5441 87.2493 25.6962 84.0128C24.6545 87.6864 23.686 91.3982 23.0894 95.1814C22.8158 96.9048 20.4025 105.322 24.6111 104.303Z" fill="#DCC06D"/>
<path d="M17.8406 104.063C18.1454 102.453 18.3778 100.456 19.149 99.0368C19.2145 101.305 19.86 103.488 20.4574 105.68C19.6717 104.705 18.8244 103.71 18.8769 102.384C18.4556 102.969 18.1271 103.835 17.8406 104.631" fill="#DCC06D"/>
<path d="M27.3528 104.277C27.6394 103.222 27.634 102.171 27.1456 101.822C29.1725 103.271 31.1568 106.118 29.0346 108.632C26.6061 111.506 25.9614 107.827 24.557 106.529C25.7198 107.604 26.9002 105.938 27.3528 104.277Z" fill="#DCC06D"/>
<path d="M42.9109 13.5502C40.4397 14.6801 41.3472 20.1501 41.0043 22.928C40.5593 26.5311 40.3894 29.9453 39.3073 33.4198C36.0992 43.726 32.9361 54.2099 31.1873 64.8263C33.83 54.1718 37.4442 43.991 40.5319 33.4555C41.5972 29.8191 42.3661 27.3785 42.3661 23.4953C42.3661 20.2152 42.5695 16.8279 42.3097 13.5732C42.0369 13.6676 42.0369 13.8692 41.8205 14.1183" fill="#DCC06D"/>
<path d="M48.6321 11.5634C47.992 11.4301 47.4723 11.4634 47.0395 11.9196C48.3898 14.2215 46.1525 16.2352 45.4385 18.4442C44.566 21.1396 43.8848 23.8095 43.0267 26.5136C44.8396 22.9558 45.7258 19.7812 48.6192 16.8986C49.4795 16.0408 51.8569 14.5729 52.1778 13.3931C52.622 11.7641 50.6141 10.3748 49.4635 9.80986C46.9298 8.56414 45.5772 9.14097 44.5302 11.7189C45.6542 9.44962 51.6124 10.5819 50.4404 13.24C48.9788 13.3947 49.5153 11.0373 47.5417 11.5634" fill="#DCC06D"/>
<path d="M37.1882 6.17268C36.4864 5.77119 35.7251 5.74659 35.117 6.17426C35.1749 6.31391 35.4058 6.33533 35.4584 6.51386C33.0283 8.8474 33.7614 12.7631 33.6204 15.8417C33.4055 20.5127 32.5551 25.1251 32.2831 29.793C32.0926 33.0596 31.627 36.4135 30.9023 39.5667C32.5917 36.2548 33.6128 31.4251 34.1294 27.7363C34.6606 23.9492 35.7083 19.9089 35.5552 16.0631C35.418 12.6274 34.9517 10.0384 36.6441 6.73999" fill="#DCC06D"/>
<path d="M49.7157 7.45885C50.3908 8.6776 50.7383 10.1391 50.6347 11.3865C50.5539 12.3624 49.2585 14.9713 50.1104 15.825C50.1843 15.8996 50.2582 15.9758 50.3306 16.0535C54.3922 14.7427 55.5108 8.67999 53.7414 5.09358C51.9293 1.42148 46.1251 -0.00356108 42.7059 1.35562C37.4533 3.4432 44.0326 4.64051 44.9996 6.86059C44.9882 6.83599 46.4291 5.21736 46.7294 5.14674C47.4761 4.97059 48.008 5.44587 48.5277 5.91956C48.9895 6.34168 49.3903 6.8709 49.7157 7.45885Z" fill="#E1E2E3"/>
<path d="M44.7542 9.01641C44.313 9.73845 44.2269 10.7096 44.3763 11.5372C45.3654 11.7284 46.4002 11.3563 47.3382 11.1294C46.6265 11.7625 46.058 12.4195 45.1924 12.6901C44.5698 12.8845 44.3984 12.1537 43.7217 12.8369C43.4992 13.0614 43.1692 15.4307 43.1083 15.7679C42.869 17.0937 42.9139 18.4561 42.9147 19.8145C42.9147 16.8803 42.7036 11.9165 44.345 9.44248" fill="#CCB25C"/>
<path d="M49.6593 14.5491C49.3591 16.336 49.9816 15.8925 48.8417 17.3104C47.5843 18.8743 46.3605 20.4723 44.979 21.9259C45.7784 20.0375 47.374 17.9427 48.5666 16.2408C48.4492 16.194 48.2328 16.1003 48.0941 16.0448C48.341 15.8258 48.6397 15.3696 48.8226 15.2268C47.8876 14.2056 46.2348 18.3117 46.0672 18.8092C46.4489 16.7105 48.0995 14.9641 49.0451 13.6978" fill="#CCB25C"/>
<path d="M36.7843 7.95239C33.6303 7.74133 34.8968 14.2984 34.9448 16.1908C34.9052 13.4986 35.5697 9.98125 37.1935 7.95239" fill="#CCB25C"/>
<path d="M28.7854 104.93C28.6902 105.789 28.0272 106.663 27.1783 106.706C25.8829 106.771 23.9878 105.363 22.6985 105.044C21.7558 104.812 18.7093 104.04 19.0133 102.499C18.6354 104.417 14.1837 102.894 12.8319 102.499C11.7422 102.18 11.1524 101.712 10.0124 101.804C9.09497 101.877 8.20493 102.32 7.337 102.564C8.49907 101.126 12.1964 101.733 12.6581 103.594C14.0077 103.056 15.2559 103.6 16.5078 104.192C17.5998 104.708 17.404 104.712 18.5958 104.771C20.2646 104.853 27.5075 106.222 25.3762 109.641C26.475 107.877 28.1568 110.224 29.2625 107.987C29.9597 106.575 29.4011 104.853 28.4715 103.773C28.7428 104.089 28.8319 104.508 28.7854 104.93Z" fill="#CCB25C"/>
<path d="M31.7177 68.058L31.4125 67.9617L31.4124 67.962L31.7177 68.058ZM33.0398 64.2828L32.7371 64.1788L32.737 64.179L33.0398 64.2828ZM43.8025 27.7538L43.5061 27.633L43.5061 27.633L43.8025 27.7538ZM47.1972 19.7947L47.4666 19.9674L47.4666 19.9674L47.1972 19.7947ZM51.5704 14.9078L51.3317 14.6947L51.3317 14.6947L51.5704 14.9078ZM49.4505 3.26784L49.2945 3.54721L49.2945 3.54724L49.4505 3.26784ZM36.9169 5.48793L36.8404 5.79864L36.9945 5.83658L37.1179 5.7369L36.9169 5.48793ZM32.2122 14.9078L32.5322 14.91L32.5322 14.91L32.2122 14.9078ZM31.7573 25.1663L32.0742 25.211L32.0742 25.2109L31.7573 25.1663ZM26.0894 53.6481L25.7833 53.5549L25.7833 53.5549L26.0894 53.6481ZM20.0543 69.1974L20.3591 69.2948L20.3591 69.2947L20.0543 69.1974ZM10.4773 95.2584L10.7715 95.3842L10.7715 95.3842L10.4773 95.2584ZM5.02047 103.218L4.7244 103.097L4.72438 103.097L5.02047 103.218ZM6.36772 109.068L6.12912 109.282L6.1292 109.282L6.36772 109.068ZM11.2629 109.671L11.2101 109.355L11.21 109.355L11.2629 109.671ZM14.5799 111.751L14.4913 112.059L14.4914 112.059L14.5799 111.751ZM17.8063 111.842L17.7213 112.15L17.7214 112.15L17.8063 111.842ZM21.1119 113.71L21.2514 113.422L21.2514 113.422L21.1119 113.71ZM23.8339 113.711L23.9987 113.985L23.9988 113.985L23.8339 113.711ZM25.5941 110.436L25.8256 110.656L25.8256 110.656L25.5941 110.436ZM29.6175 109.387L29.3709 109.183L29.3709 109.183L29.6175 109.387ZM31.166 104.127L31.4632 104.245L30.8688 104.008L31.166 104.127ZM25.9645 97.2436L25.6511 97.3087L25.6512 97.3089L25.9645 97.2436ZM26.3264 93.8032L26.009 93.7622L26.009 93.7623L26.3264 93.8032ZM26.2891 87.2596L25.9691 87.2553L25.9691 87.2553L26.2891 87.2596ZM31.4738 68.8808L31.782 68.9669L31.7825 68.9653L31.4738 68.8808ZM42.6168 22.2512L42.3043 22.1821L42.8963 22.407L42.6168 22.2512ZM44.2048 12.4592L44.4534 12.2577L44.2316 11.9841L43.9805 12.231L44.2048 12.4592ZM46.295 11.849L46.0217 11.6826L45.9669 11.7726L45.9763 11.8777L46.295 11.849ZM50.7642 12.6631L50.6321 12.9545L51.0149 13.1281L51.0803 12.7129L50.7642 12.6631ZM45.2937 6.35199L45.0245 6.5249L45.2747 6.91456L45.5507 6.54272L45.2937 6.35199ZM39.3736 5.78785L39.611 6.00247L39.6111 6.00235L39.3736 5.78785ZM38.351 8.44195L38.0324 8.47213L38.0325 8.47284L38.351 8.44195ZM39.8712 10.7858L40.1423 10.9559L39.6003 10.6155L39.8712 10.7858ZM39.475 11.5658L39.2155 11.3785L39.0421 11.6187L39.2683 11.8101L39.475 11.5658ZM12.3 105.384L12.0498 105.583L12.177 105.743L12.3753 105.695L12.3 105.384ZM16.6061 105.995L16.4354 106.266L16.4356 106.266L16.6061 105.995ZM17.8231 106.744L17.853 106.425L17.8528 106.425L17.8231 106.744ZM19.8219 106.267L19.8215 106.587L19.8215 106.587L19.8219 106.267ZM22.7701 112.223L22.5392 112.002L22.139 112.419L22.7048 112.536L22.7701 112.223ZM22.9324 112.623H22.6124V113.388L23.1571 112.851L22.9324 112.623ZM23.6632 112.034L23.9824 112.011L23.9325 111.303L23.4348 111.809L23.6632 112.034ZM22.719 113.697L22.416 113.594L22.112 114.489L22.8973 113.962L22.719 113.697ZM19.8325 110.826L19.933 110.522L18.7809 110.141L19.5953 111.041L19.8325 110.826ZM21.8336 109.032L21.538 109.154L21.5381 109.155L21.8336 109.032ZM18.8709 107.553L18.6002 107.382L18.3141 107.836L18.849 107.872L18.8709 107.553ZM19.1871 107.17L19.4327 107.375L19.6588 107.104L19.3675 106.905L19.1871 107.17ZM16.5863 107.297L16.5833 107.617L16.5838 107.617L16.5863 107.297ZM14.2911 105.926L14.2849 105.606L14.2846 105.606L14.2911 105.926ZM11.9289 107.927L11.8876 108.245L12.1845 108.283L12.2428 107.99L11.9289 107.927ZM11.3551 107.791L11.3636 107.471L11.1209 107.465L11.0493 107.697L11.3551 107.791ZM10.7485 109.926L10.4507 110.043L10.8107 110.959L11.0582 110.007L10.7485 109.926ZM8.34285 104.316L8.02327 104.333L8.04634 104.786L8.46551 104.612L8.34285 104.316ZM14.8848 85.3751L14.5887 85.2537L14.5887 85.2537L14.8848 85.3751ZM7.45968 101.408L7.17696 101.258L7.7424 101.558L7.45968 101.408ZM11.3612 102.891L11.1136 102.688L11.6087 103.093L11.3612 102.891ZM15.5706 103.187L15.4085 103.463L16.4177 104.056L15.8505 103.032L15.5706 103.187ZM16.2206 87.4064L16.5377 87.3637L15.9216 87.2923L16.2206 87.4064ZM16.5399 88.4339L16.2321 88.5217L16.3855 89.0591L16.7714 88.6548L16.5399 88.4339ZM18.9318 81.8522L19.2406 81.9362L19.2406 81.9362L18.9318 81.8522ZM20.7835 74.1938L20.4664 74.1507L20.4664 74.1508L20.7835 74.1938ZM24.1349 60.8011L24.4377 60.9044L23.8346 60.6904L24.1349 60.8011ZM24.6111 104.303L24.6864 104.614L24.9304 104.555L24.9311 104.304L24.6111 104.303ZM23.8278 95.0592L23.5093 95.0277L23.5093 95.0278L23.8278 95.0592ZM25.6962 84.0128L26.0041 84.1001L25.3948 83.9054L25.6962 84.0128ZM23.0894 95.1814L23.4054 95.2316L23.4055 95.2313L23.0894 95.1814ZM19.149 99.0368L19.4689 99.0275L19.4346 97.8408L18.8678 98.884L19.149 99.0368ZM20.4574 105.68L20.2082 105.881L20.7661 105.596L20.4574 105.68ZM18.8769 102.384L19.1967 102.396L19.2388 101.333L18.6172 102.197L18.8769 102.384ZM27.3528 104.277L27.6616 104.361L27.6616 104.361L27.3528 104.277ZM27.1456 101.822L27.3317 101.561L26.9595 102.082L27.1456 101.822ZM29.0346 108.632L29.279 108.839L29.2791 108.838L29.0346 108.632ZM24.557 106.529L24.7741 106.294L24.3399 106.764L24.557 106.529ZM41.0043 22.928L41.3219 22.9672L41.3219 22.9672L41.0043 22.928ZM39.3073 33.4198L39.0018 33.3247L39.0018 33.3247L39.3073 33.4198ZM31.1873 64.8263L30.8716 64.7743L31.4979 64.9033L31.1873 64.8263ZM40.5319 33.4555L40.839 33.5455L40.839 33.5455L40.5319 33.4555ZM42.3097 13.5732L42.6287 13.5477L42.5958 13.1356L42.205 13.2708L42.3097 13.5732ZM47.0395 11.9196L46.8073 11.6994L46.6417 11.874L46.7635 12.0816L47.0395 11.9196ZM45.4385 18.4442L45.7429 18.5428L45.743 18.5426L45.4385 18.4442ZM43.0267 26.5136L42.7217 26.4168L43.3118 26.6589L43.0267 26.5136ZM48.6192 16.8986L48.845 17.1253L48.8451 17.1252L48.6192 16.8986ZM52.1778 13.3931L51.869 13.3089L51.869 13.3091L52.1778 13.3931ZM49.4635 9.80986L49.3223 10.097L49.3224 10.0971L49.4635 9.80986ZM44.5302 11.7189L44.2337 11.5985L44.8169 11.8609L44.5302 11.7189ZM50.4404 13.24L50.4741 13.5582L50.6584 13.5387L50.7332 13.3691L50.4404 13.24ZM35.117 6.17426L34.9329 5.91252L34.7232 6.06001L34.8214 6.29685L35.117 6.17426ZM35.4584 6.51386L35.68 6.74467L35.8203 6.60998L35.7654 6.42345L35.4584 6.51386ZM33.6204 15.8417L33.9401 15.8564L33.9401 15.8563L33.6204 15.8417ZM32.2831 29.793L32.6025 29.8116L32.6025 29.8116L32.2831 29.793ZM30.9023 39.5667L30.5904 39.495L31.1874 39.7121L30.9023 39.5667ZM34.1294 27.7363L33.8125 27.6919L33.8125 27.6919L34.1294 27.7363ZM35.5552 16.0631L35.8749 16.0503L35.8749 16.0503L35.5552 16.0631ZM49.7157 7.45885L49.4357 7.6138L49.4358 7.61392L49.7157 7.45885ZM50.6347 11.3865L50.3158 11.36L50.3158 11.3601L50.6347 11.3865ZM50.1104 15.825L50.3377 15.5998L50.3369 15.599L50.1104 15.825ZM50.3306 16.0535L50.0964 16.2716L50.2352 16.4206L50.4289 16.3581L50.3306 16.0535ZM53.7414 5.09358L54.0284 4.952L54.0284 4.95197L53.7414 5.09358ZM42.7059 1.35562L42.8241 1.653L42.8241 1.65299L42.7059 1.35562ZM44.9996 6.86059L44.7094 6.99544L45.293 6.7328L44.9996 6.86059ZM46.7294 5.14674L46.8026 5.45824L46.8028 5.45819L46.7294 5.14674ZM48.5277 5.91956L48.7436 5.68337L48.7433 5.68306L48.5277 5.91956ZM44.3763 11.5372L44.0613 11.594L44.1003 11.8098L44.3155 11.8514L44.3763 11.5372ZM47.3382 11.1294L47.5509 11.3685L47.263 10.8183L47.3382 11.1294ZM45.1924 12.6901L45.2877 12.9955L45.2878 12.9955L45.1924 12.6901ZM43.7217 12.8369L43.949 13.0621L43.949 13.0621L43.7217 12.8369ZM43.1083 15.7679L42.7934 15.711L42.7933 15.7111L43.1083 15.7679ZM42.9147 19.8145L42.5947 19.8147L43.2347 19.8145H42.9147ZM48.8417 17.3104L48.5923 17.1099L48.5923 17.1099L48.8417 17.3104ZM44.979 21.9259L44.6843 21.8011L45.211 22.1463L44.979 21.9259ZM48.5666 16.2408L48.8286 16.4244L49.0606 16.0934L48.6851 15.9436L48.5666 16.2408ZM48.0941 16.0448L47.8818 15.8054L47.4942 16.1492L47.9752 16.3419L48.0941 16.0448ZM48.8226 15.2268L49.0196 15.479L49.2924 15.2659L49.0586 15.0107L48.8226 15.2268ZM46.0672 18.8092L45.7523 18.7519L46.3704 18.9114L46.0672 18.8092ZM34.9448 16.1908L34.6249 16.1989L35.2648 16.1861L34.9448 16.1908ZM28.7854 104.93L29.1035 104.965L29.1035 104.965L28.7854 104.93ZM27.1783 106.706L27.1625 106.386L27.1621 106.386L27.1783 106.706ZM22.6985 105.044L22.7753 104.733L22.7751 104.733L22.6985 105.044ZM19.0133 102.499L19.3273 102.561L18.6994 102.437L19.0133 102.499ZM12.8319 102.499L12.742 102.806L12.7421 102.806L12.8319 102.499ZM10.0124 101.804L9.9869 101.485L9.98678 101.485L10.0124 101.804ZM7.337 102.564L7.08807 102.363L6.45689 103.145L7.42373 102.873L7.337 102.564ZM12.6581 103.594L12.3476 103.671L12.4359 104.027L12.7766 103.892L12.6581 103.594ZM16.5078 104.192L16.3711 104.481L16.3712 104.481L16.5078 104.192ZM18.5958 104.771L18.58 105.091L18.5801 105.091L18.5958 104.771ZM25.3762 109.641L25.1046 109.472L25.6478 109.811L25.3762 109.641ZM29.2625 107.987L29.5493 108.129L29.5494 108.129L29.2625 107.987ZM28.4715 103.773L28.714 103.564L28.2287 103.981L28.4715 103.773ZM31.7177 68.058L32.0228 68.1543C32.425 66.8799 32.8959 65.6895 33.3425 64.3865L33.0398 64.2828L32.737 64.179C32.3058 65.4373 31.815 66.686 31.4125 67.9617L31.7177 68.058ZM33.0398 64.2828L33.3424 64.3867C35.4002 58.3947 36.8949 52.1901 38.4708 46.0307C40.0483 39.8651 41.7082 33.7399 44.0988 27.8746L43.8025 27.7538L43.5061 27.633C41.0975 33.5425 39.4286 39.7052 37.8508 45.872C36.2714 52.045 34.7843 58.2175 32.7371 64.1788L33.0398 64.2828ZM43.8025 27.7538L44.0988 27.8746C44.6427 26.5404 45.1124 25.1293 45.6204 23.802C46.1346 22.4586 46.7018 21.1601 47.4666 19.9674L47.1972 19.7947L46.9279 19.622C46.1282 20.8691 45.5426 22.2148 45.0227 23.5733C44.4966 24.9479 44.0511 26.2964 43.5061 27.633L43.8025 27.7538ZM47.1972 19.7947L47.4666 19.9674C48.0489 19.0592 48.7748 18.2474 49.5389 17.4601C50.2944 16.6816 51.1048 15.9102 51.8092 15.1208L51.5704 14.9078L51.3317 14.6947C50.6378 15.4724 49.8613 16.209 49.0796 17.0144C48.3065 17.811 47.545 18.6592 46.9278 19.622L47.1972 19.7947ZM51.5704 14.9078L51.8092 15.1209C55.269 11.245 54.0728 5.48228 49.6065 2.98844L49.4505 3.26784L49.2945 3.54724C53.4283 5.85538 54.4999 11.1455 51.3317 14.6947L51.5704 14.9078ZM49.4505 3.26784L49.6066 2.98847C46.9649 1.51294 44.8003 1.19219 42.7429 1.70827C40.7083 2.21865 38.8214 3.53897 36.7159 5.23895L36.9169 5.48793L37.1179 5.7369C39.2225 4.03773 41.0134 2.80194 42.8987 2.32903C44.7611 1.86183 46.7583 2.1306 49.2945 3.54721L49.4505 3.26784ZM36.9169 5.48793L36.9934 5.17721C35.6813 4.8541 34.6637 5.11016 33.904 5.77356C33.1639 6.41983 32.7095 7.41778 32.4229 8.50191C31.8499 10.6697 31.9028 13.3762 31.8922 14.9056L32.2122 14.9078L32.5322 14.91C32.543 13.3433 32.4945 10.7357 33.0417 8.66545C33.3152 7.63056 33.7262 6.77853 34.325 6.25562C34.9042 5.74984 35.6988 5.51754 36.8404 5.79864L36.9169 5.48793ZM32.2122 14.9078L31.8922 14.9056C31.8693 18.1971 31.8909 21.9187 31.4404 25.1218L31.7573 25.1663L32.0742 25.2109C32.532 21.9553 32.5094 18.182 32.5322 14.91L32.2122 14.9078ZM31.7573 25.1663L31.4404 25.1217C30.1001 34.6421 28.5673 44.4152 25.7833 53.5549L26.0894 53.6481L26.3955 53.7414C29.1956 44.5491 30.7337 34.7319 32.0742 25.211L31.7573 25.1663ZM26.0894 53.6481L25.7833 53.5549C24.9749 56.2103 23.8924 58.7684 22.7962 61.3318C21.7022 63.89 20.5939 66.4549 19.7494 69.1001L20.0543 69.1974L20.3591 69.2947C21.1926 66.6841 22.2876 64.1487 23.3846 61.5834C24.4795 59.0233 25.5755 56.4347 26.3955 53.7413L26.0894 53.6481ZM20.0543 69.1974L19.7494 69.1001C16.92 77.9625 13.8266 86.6091 10.183 95.1326L10.4773 95.2584L10.7715 95.3842C14.425 86.8373 17.5253 78.1708 20.3591 69.2948L20.0543 69.1974ZM10.4773 95.2584L10.1831 95.1325C9.5737 96.557 8.53912 97.7889 7.47439 99.0566C6.42261 100.309 5.33876 101.599 4.7244 103.097L5.02047 103.218L5.31654 103.34C5.88635 101.95 6.89957 100.736 7.96447 99.4682C9.01644 98.2157 10.1182 96.9114 10.7715 95.3842L10.4773 95.2584ZM5.02047 103.218L4.72438 103.097C4.23727 104.285 4.16331 105.37 4.43512 106.4C4.70493 107.422 5.3083 108.363 6.12912 109.282L6.36772 109.068L6.60631 108.855C5.82233 107.978 5.28839 107.125 5.05393 106.237C4.82148 105.356 4.8763 104.414 5.31656 103.34L5.02047 103.218ZM6.36772 109.068L6.1292 109.282C6.54928 109.751 6.9717 110.061 7.40844 110.247C7.84611 110.434 8.28023 110.488 8.71178 110.471C9.13848 110.454 9.56781 110.368 9.99381 110.271C10.4275 110.172 10.8552 110.063 11.3157 109.986L11.2629 109.671L11.21 109.355C10.7253 109.436 10.2661 109.552 9.85179 109.647C9.42976 109.743 9.04993 109.817 8.6868 109.831C8.32852 109.845 7.99215 109.8 7.65914 109.658C7.3252 109.516 6.97674 109.269 6.60623 108.855L6.36772 109.068ZM11.2629 109.671L11.3157 109.986C11.6555 109.929 11.9002 109.987 12.1058 110.1C12.3233 110.219 12.515 110.41 12.7302 110.656C13.1372 111.122 13.6272 111.809 14.4913 112.059L14.5799 111.751L14.6686 111.444C14.03 111.259 13.6792 110.77 13.2121 110.235C12.9903 109.981 12.7366 109.716 12.4138 109.539C12.0788 109.355 11.6879 109.275 11.2101 109.355L11.2629 109.671ZM14.5799 111.751L14.4914 112.059C15.0865 112.23 15.695 112.172 16.2309 112.122C16.7893 112.07 17.271 112.026 17.7213 112.15L17.8063 111.842L17.8913 111.533C17.3076 111.372 16.7038 111.435 16.1714 111.485C15.6164 111.537 15.1288 111.576 14.6685 111.444L14.5799 111.751ZM17.8063 111.842L17.7214 112.15C18.2194 112.287 18.7451 112.6 19.3036 112.967C19.8441 113.321 20.4224 113.732 20.9725 113.998L21.1119 113.71L21.2514 113.422C20.7507 113.18 20.2282 112.808 19.6547 112.432C19.0991 112.067 18.4974 111.7 17.8912 111.533L17.8063 111.842ZM21.1119 113.71L20.9725 113.998C21.8453 114.421 23.0767 114.539 23.9987 113.985L23.8339 113.711L23.669 113.437C22.9862 113.847 21.9941 113.782 21.2514 113.422L21.1119 113.71ZM23.8339 113.711L23.9988 113.985C24.6615 113.587 24.92 112.87 25.1162 112.251C25.2195 111.925 25.3047 111.625 25.4175 111.343C25.5287 111.065 25.6562 110.834 25.8256 110.656L25.5941 110.436L25.3626 110.215C25.114 110.475 24.9494 110.79 24.8233 111.105C24.6988 111.417 24.6015 111.757 24.5061 112.058C24.3049 112.693 24.1012 113.177 23.6689 113.437L23.8339 113.711ZM25.5941 110.436L25.8256 110.656C26.2878 110.172 26.8061 110.246 27.5443 110.331C27.8938 110.371 28.2949 110.41 28.6951 110.326C29.1102 110.238 29.5071 110.022 29.8642 109.591L29.6175 109.387L29.3709 109.183C29.1051 109.504 28.835 109.642 28.563 109.699C28.2762 109.76 27.9704 109.735 27.6171 109.695C26.9497 109.618 26.0793 109.464 25.3626 110.215L25.5941 110.436ZM29.6175 109.387L29.8642 109.591C30.5007 108.821 30.7348 107.839 30.8966 106.899C31.0634 105.929 31.1539 105.021 31.4632 104.245L31.166 104.127L30.8688 104.008C30.5265 104.866 30.4211 105.888 30.2659 106.79C30.1055 107.722 29.8911 108.554 29.3709 109.183L29.6175 109.387ZM31.166 104.127L30.8688 104.008C30.8832 103.972 30.9105 103.927 30.9582 103.89C31.0065 103.853 31.0584 103.837 31.101 103.832C31.1407 103.828 31.1711 103.834 31.1865 103.837C31.2025 103.841 31.2122 103.846 31.2141 103.846C31.2171 103.848 31.2089 103.844 31.1875 103.829C31.1674 103.814 31.1413 103.794 31.1089 103.766C30.9764 103.651 30.7846 103.453 30.5473 103.186C30.0764 102.656 29.4587 101.89 28.8367 101.073C28.2151 100.256 27.5936 99.3931 27.1145 98.6683C26.8748 98.3056 26.6731 97.981 26.5253 97.7162C26.371 97.4395 26.295 97.2613 26.2777 97.1783L25.9645 97.2436L25.6512 97.3089C25.6908 97.4992 25.8144 97.7555 25.9664 98.028C26.125 98.3123 26.3363 98.6516 26.5806 99.0212C27.0696 99.761 27.7 100.636 28.3274 101.461C28.9545 102.285 29.583 103.064 30.0689 103.611C30.31 103.882 30.5243 104.106 30.6897 104.249C30.7677 104.317 30.8571 104.387 30.9457 104.427C30.986 104.446 31.069 104.48 31.1703 104.469C31.2272 104.462 31.2915 104.442 31.3499 104.396C31.4078 104.352 31.443 104.296 31.4631 104.246L31.166 104.127ZM25.9645 97.2436L26.2778 97.1785C26.1537 96.5816 26.1974 96.084 26.2967 95.5698C26.3923 95.0752 26.5613 94.4849 26.6438 93.844L26.3264 93.8032L26.009 93.7623C25.9284 94.3886 25.7809 94.8659 25.6684 95.4484C25.5596 96.0114 25.5039 96.6004 25.6511 97.3087L25.9645 97.2436ZM26.3264 93.8032L26.6438 93.8442C26.7865 92.7382 26.7688 91.6222 26.7209 90.5231C26.6726 89.4156 26.5947 88.3368 26.609 87.2639L26.2891 87.2596L25.9691 87.2553C25.9545 88.3525 26.0343 89.4679 26.0815 90.551C26.129 91.6424 26.1444 92.7132 26.009 93.7622L26.3264 93.8032ZM26.2891 87.2596L26.609 87.2639C26.6514 84.1072 27.507 81.0801 28.5759 78.0613C29.6386 75.0599 30.9258 72.0351 31.782 68.9668L31.4738 68.8808L31.1656 68.7948C30.3164 71.8377 29.0544 74.7924 27.9726 77.8477C26.8969 80.8855 26.0129 83.9921 25.9691 87.2553L26.2891 87.2596ZM31.4738 68.8808L31.7825 68.9653C31.8573 68.6919 31.9383 68.4231 32.0229 68.154L31.7177 68.058L31.4124 67.962C31.3263 68.2357 31.2428 68.5127 31.1652 68.7964L31.4738 68.8808ZM44.5454 8.72758L44.271 8.56306C43.0807 10.5487 42.8349 12.9368 42.7566 15.3113C42.6774 17.7157 42.7675 20.0878 42.3043 22.1821L42.6168 22.2512L42.9292 22.3203C43.4094 20.149 43.3193 17.6687 43.3963 15.3324C43.4742 12.9662 43.721 10.7253 44.8199 8.8921L44.5454 8.72758ZM42.6168 22.2512L42.8963 22.407C43.2888 21.7026 43.4309 20.8486 43.4736 19.9638C43.5163 19.0798 43.4606 18.1197 43.4312 17.2051C43.4014 16.2786 43.3981 15.392 43.5337 14.6067C43.6688 13.8244 43.9372 13.171 44.4292 12.6874L44.2048 12.4592L43.9805 12.231C43.3595 12.8415 43.0513 13.639 42.903 14.4978C42.7552 15.3534 42.7616 16.2978 42.7915 17.2256C42.8217 18.1653 42.8755 19.0828 42.8344 19.933C42.7934 20.7824 42.6583 21.5192 42.3372 22.0954L42.6168 22.2512ZM44.2048 12.4592L43.9562 12.6607C44.4295 13.2445 45.1135 13.3993 45.6753 13.2204C46.2369 13.0417 46.6768 12.5226 46.6137 11.8204L46.295 11.849L45.9763 11.8777C46.0092 12.2442 45.7938 12.5111 45.4812 12.6106C45.1688 12.7101 44.7597 12.6355 44.4534 12.2577L44.2048 12.4592ZM46.295 11.849L46.5683 12.0155C46.83 11.5858 47.1104 11.4251 47.3812 11.3836C47.6714 11.3392 48.0113 11.422 48.3974 11.6027C48.7807 11.782 49.1699 12.0382 49.5531 12.2956C49.9231 12.5441 50.3034 12.8055 50.6321 12.9545L50.7642 12.6631L50.8964 12.3717C50.6284 12.2502 50.302 12.0277 49.91 11.7644C49.5313 11.51 49.1032 11.2263 48.6687 11.023C48.237 10.821 47.7585 10.6784 47.2844 10.751C46.7909 10.8265 46.3612 11.1252 46.0217 11.6826L46.295 11.849ZM50.7642 12.6631L51.0803 12.7129C51.1849 12.0492 51.0544 11.0629 50.7795 10.0456C50.5017 9.01813 50.0642 7.91373 49.5179 7.00278C48.9804 6.10665 48.3001 5.33451 47.51 5.07207C47.1016 4.93643 46.6709 4.93986 46.2404 5.12377C45.8173 5.30457 45.4161 5.65019 45.0368 6.16127L45.2937 6.35199L45.5507 6.54272C45.887 6.08955 46.2054 5.83473 46.4919 5.7123C46.7711 5.593 47.0402 5.59043 47.3082 5.67945C47.8709 5.86632 48.4497 6.46611 48.969 7.33195C49.4794 8.18295 49.8962 9.23055 50.1616 10.2126C50.4298 11.2047 50.5314 12.0852 50.4481 12.6133L50.7642 12.6631ZM45.2937 6.35199L45.563 6.17909C44.0649 3.84616 41.0231 3.48439 39.1362 5.57335L39.3736 5.78785L39.6111 6.00235C41.1974 4.24624 43.7396 4.52399 45.0245 6.5249L45.2937 6.35199ZM39.3736 5.78785L39.1363 5.57323C38.4634 6.31734 37.9265 7.35381 38.0324 8.47213L38.351 8.44195L38.6696 8.41177C38.5866 7.53535 39.0082 6.66912 39.611 6.00247L39.3736 5.78785ZM38.351 8.44195L38.0325 8.47284C38.0413 8.56396 38.0818 8.67658 38.1175 8.76768C38.1585 8.87254 38.214 8.99848 38.2784 9.13486C38.4074 9.40797 38.5781 9.73512 38.7558 10.0401C38.9312 10.3411 39.1224 10.6363 39.2933 10.8356C39.3734 10.929 39.4755 11.0334 39.5909 11.0931C39.6505 11.1238 39.7474 11.1605 39.8632 11.1427C39.9941 11.1227 40.0874 11.0433 40.1423 10.9559L39.8712 10.7858L39.6002 10.6157C39.6248 10.5765 39.6801 10.5233 39.7662 10.5101C39.8371 10.4993 39.8825 10.5233 39.8847 10.5245C39.8856 10.5249 39.8503 10.502 39.7791 10.4189C39.6471 10.265 39.4793 10.0106 39.3087 9.7179C39.1405 9.42906 38.9783 9.11822 38.8571 8.86154C38.7964 8.73301 38.7474 8.6211 38.7133 8.53419C38.6739 8.43353 38.6685 8.40048 38.6695 8.41106L38.351 8.44195ZM39.8712 10.7858L39.6003 10.6155C39.5152 10.7508 39.4459 10.9168 39.3897 11.0444C39.3274 11.1859 39.275 11.2961 39.2155 11.3785L39.475 11.5658L39.7344 11.7531C39.8388 11.6086 39.9152 11.439 39.9754 11.3024C40.0417 11.1519 40.0885 11.0414 40.1421 10.9561L39.8712 10.7858ZM39.475 11.5658L39.2683 11.8101C39.7222 12.194 39.9347 12.8055 39.9766 13.5961C40.0184 14.3849 39.8871 15.2954 39.7109 16.2087C39.5388 17.1012 39.3167 18.0249 39.2041 18.758C39.1471 19.1292 39.1133 19.4778 39.1291 19.7755C39.1444 20.0644 39.2088 20.3631 39.404 20.577L39.6403 20.3612L39.8766 20.1454C39.8325 20.097 39.7809 19.9825 39.7682 19.7417C39.7559 19.5096 39.7819 19.212 39.8367 18.8552C39.9478 18.1321 40.1576 17.2722 40.3394 16.33C40.5171 15.4086 40.6619 14.4335 40.6157 13.5622C40.5696 12.6928 40.33 11.8698 39.6816 11.3214L39.475 11.5658ZM6.66871 103.21L6.82181 103.491C7.97559 102.863 8.89427 102.938 9.70563 103.364C10.5482 103.807 11.2969 104.639 12.0498 105.583L12.3 105.384L12.5502 105.184C11.7996 104.243 10.9778 103.309 10.0032 102.798C8.99733 102.269 7.85209 102.201 6.51561 102.929L6.66871 103.21ZM12.3 105.384L12.3753 105.695C13.3162 105.467 13.9295 105.372 14.5007 105.444C15.0657 105.515 15.6231 105.754 16.4354 106.266L16.6061 105.995L16.7769 105.725C15.9341 105.193 15.2825 104.897 14.5804 104.809C13.8843 104.722 13.1721 104.843 12.2247 105.073L12.3 105.384ZM16.6061 105.995L16.4356 106.266C16.7422 106.459 16.8169 106.584 16.9643 106.733C17.0462 106.815 17.144 106.894 17.2894 106.954C17.4263 107.011 17.589 107.043 17.7934 107.062L17.8231 106.744L17.8528 106.425C17.6788 106.409 17.587 106.385 17.5333 106.363C17.488 106.344 17.459 106.322 17.4181 106.281C17.3197 106.182 17.1643 105.969 16.7767 105.725L16.6061 105.995ZM17.8231 106.744L17.7932 107.062C18.1889 107.099 18.5877 106.946 18.9072 106.826C19.2586 106.694 19.5456 106.586 19.8215 106.587L19.8219 106.267L19.8222 105.947C19.4062 105.946 19.0025 106.106 18.6817 106.227C18.3291 106.36 18.0745 106.446 17.853 106.425L17.8231 106.744ZM19.8219 106.267L19.8215 106.587C20.2899 106.587 20.8039 106.799 21.2957 107.18C21.7848 107.558 22.2293 108.087 22.554 108.676C23.2168 109.878 23.3195 111.188 22.5392 112.002L22.7701 112.223L23.001 112.445C24.0747 111.326 23.8272 109.659 23.1144 108.367C22.7513 107.708 22.2516 107.11 21.6874 106.674C21.126 106.239 20.4778 105.947 19.8222 105.947L19.8219 106.267ZM22.7701 112.223L22.7048 112.536C22.6404 112.523 22.6006 112.491 22.5845 112.475C22.5756 112.467 22.5698 112.46 22.5667 112.456C22.5636 112.452 22.5621 112.449 22.562 112.449C22.5618 112.449 22.5625 112.45 22.5638 112.453C22.5652 112.455 22.5669 112.459 22.569 112.464C22.5732 112.474 22.5779 112.486 22.5827 112.501C22.5926 112.531 22.6008 112.564 22.6065 112.593C22.6092 112.607 22.611 112.618 22.612 112.626C22.6132 112.635 22.6124 112.633 22.6124 112.623H22.9324H23.2524C23.2524 112.537 23.2248 112.406 23.1912 112.303C23.1732 112.248 23.147 112.18 23.1093 112.117C23.0833 112.075 23 111.944 22.8353 111.91L22.7701 112.223ZM22.9324 112.623L23.1571 112.851C23.2247 112.784 23.3419 112.697 23.4893 112.587C23.6213 112.488 23.7835 112.368 23.8915 112.258L23.6632 112.034L23.4348 111.809C23.3691 111.876 23.2532 111.964 23.1068 112.074C22.9759 112.171 22.8146 112.29 22.7076 112.395L22.9324 112.623ZM23.6632 112.034L23.344 112.056C23.3837 112.62 23.0258 113.105 22.5408 113.431L22.719 113.697L22.8973 113.962C23.4791 113.572 24.0448 112.898 23.9824 112.011L23.6632 112.034ZM22.719 113.697L23.022 113.799C23.1952 113.289 23.1813 112.833 23.0119 112.434C22.8459 112.043 22.5448 111.74 22.2031 111.501C21.5306 111.03 20.604 110.744 19.933 110.522L19.8325 110.826L19.7321 111.13C20.4387 111.363 21.2583 111.621 21.8361 112.025C22.1196 112.224 22.3196 112.441 22.4227 112.684C22.5226 112.92 22.5458 113.212 22.416 113.594L22.719 113.697ZM19.8325 110.826L19.5953 111.041C19.9383 111.419 20.3286 111.613 20.7275 111.615C21.1225 111.616 21.4685 111.429 21.7259 111.161C22.2317 110.633 22.4666 109.721 22.1291 108.909L21.8336 109.032L21.5381 109.155C21.7728 109.719 21.6035 110.363 21.2638 110.718C21.0985 110.89 20.9114 110.976 20.73 110.975C20.5526 110.974 20.323 110.891 20.0697 110.611L19.8325 110.826ZM21.8336 109.032L22.1292 108.909C21.8647 108.272 21.2564 107.873 20.6541 107.629C20.0432 107.382 19.3755 107.267 18.8927 107.234L18.8709 107.553L18.849 107.872C19.2821 107.902 19.8802 108.006 20.4138 108.222C20.9561 108.442 21.3711 108.752 21.538 109.154L21.8336 109.032ZM18.8709 107.553L19.1415 107.724C19.1621 107.691 19.2094 107.632 19.2729 107.558C19.3243 107.499 19.3998 107.414 19.4327 107.375L19.1871 107.17L18.9415 106.964C18.9081 107.004 18.8606 107.056 18.7879 107.141C18.7274 107.211 18.6497 107.304 18.6002 107.382L18.8709 107.553ZM19.1871 107.17L19.3675 106.905C18.8106 106.525 18.2791 106.578 17.8154 106.697C17.7017 106.726 17.5894 106.76 17.4828 106.793C17.3742 106.826 17.272 106.857 17.1691 106.885C16.9638 106.941 16.7752 106.978 16.5888 106.977L16.5863 107.297L16.5838 107.617C16.8555 107.619 17.1092 107.565 17.3377 107.503C17.4517 107.472 17.5644 107.437 17.6693 107.405C17.7763 107.372 17.8763 107.342 17.9746 107.317C18.3589 107.218 18.6697 107.204 19.0067 107.434L19.1871 107.17ZM16.5863 107.297L16.5894 106.977C16.64 106.977 16.6503 106.996 16.5926 106.962C16.5473 106.935 16.4867 106.891 16.408 106.828C16.3306 106.767 16.2443 106.694 16.1475 106.612C16.052 106.532 15.9474 106.443 15.8382 106.355C15.6213 106.179 15.3751 105.994 15.1209 105.853C14.8709 105.714 14.5819 105.6 14.2849 105.606L14.2911 105.926L14.2974 106.245C14.4298 106.243 14.6011 106.296 14.8102 106.412C15.0152 106.526 15.2272 106.684 15.4353 106.852C15.5387 106.936 15.6384 107.02 15.7349 107.102C15.8302 107.182 15.9238 107.261 16.0099 107.329C16.0948 107.397 16.1815 107.461 16.2634 107.511C16.3328 107.552 16.45 107.615 16.5833 107.617L16.5863 107.297ZM14.2911 105.926L14.2846 105.606C12.9779 105.633 11.8781 106.539 11.615 107.865L11.9289 107.927L12.2428 107.99C12.4476 106.958 13.2925 106.266 14.2977 106.245L14.2911 105.926ZM11.9289 107.927L11.9702 107.61C11.9001 107.601 11.8515 107.582 11.7539 107.548C11.6572 107.515 11.5321 107.476 11.3636 107.471L11.3551 107.791L11.3466 108.111C11.4174 108.113 11.4695 108.127 11.5449 108.153C11.6195 108.179 11.7382 108.225 11.8876 108.245L11.9289 107.927ZM11.3551 107.791L11.0493 107.697C10.8239 108.427 10.6366 109.085 10.4388 109.846L10.7485 109.926L11.0582 110.007C11.2536 109.255 11.4382 108.607 11.6609 107.885L11.3551 107.791ZM10.7485 109.926L11.0463 109.809C11.0002 109.692 10.9577 109.504 10.9181 109.247C10.8792 108.995 10.8462 108.697 10.8119 108.368C10.7441 107.717 10.6725 106.949 10.5424 106.248C10.4144 105.559 10.2205 104.876 9.8749 104.425C9.69642 104.192 9.46565 104.005 9.17031 103.925C8.87468 103.845 8.5552 103.882 8.2202 104.021L8.34285 104.316L8.46551 104.612C8.70507 104.513 8.87671 104.508 9.00251 104.542C9.1286 104.577 9.24958 104.661 9.36692 104.814C9.61291 105.135 9.78691 105.685 9.91317 106.365C10.0374 107.034 10.1062 107.771 10.1753 108.434C10.2096 108.763 10.244 109.075 10.2855 109.345C10.3263 109.61 10.3771 109.856 10.4507 110.043L10.7485 109.926ZM8.34285 104.316L8.66244 104.3C8.62157 103.497 8.23396 102.956 7.63117 102.733C7.05967 102.522 6.36212 102.621 5.71654 102.918L5.85031 103.209L5.98407 103.499C6.53867 103.244 7.05196 103.201 7.40897 103.333C7.73469 103.454 7.99327 103.743 8.02327 104.333L8.34285 104.316ZM14.8848 85.3751L14.5887 85.2537C12.3656 90.6734 9.95589 96.016 7.17696 101.258L7.45968 101.408L7.74241 101.558C10.5338 96.2923 12.9522 90.9296 15.1808 85.4966L14.8848 85.3751ZM7.45968 101.408L7.7424 101.558C8.05075 100.976 8.41006 100.79 8.74319 100.769C9.10478 100.747 9.519 100.913 9.92075 101.207C10.3173 101.496 10.6616 101.88 10.8755 102.218C10.9831 102.388 11.0487 102.533 11.0766 102.637C11.11 102.762 11.0688 102.743 11.1137 102.688L11.3612 102.891L11.6087 103.093C11.7711 102.895 11.7397 102.64 11.6949 102.472C11.6444 102.283 11.5436 102.077 11.4164 101.876C11.1606 101.472 10.7614 101.028 10.298 100.69C9.83986 100.355 9.27765 100.095 8.70358 100.13C8.10105 100.168 7.56547 100.525 7.17696 101.258L7.45968 101.408ZM11.3612 102.891L11.6088 103.093C12.0022 102.613 12.3159 102.357 12.5783 102.236C12.8255 102.122 13.0452 102.118 13.2868 102.191C13.5456 102.269 13.8264 102.434 14.1815 102.668C14.5254 102.895 14.9344 103.185 15.4085 103.463L15.5706 103.187L15.7326 102.911C15.2778 102.644 14.8996 102.376 14.5342 102.134C14.1802 101.9 13.8297 101.687 13.4718 101.578C13.0967 101.465 12.714 101.468 12.3098 101.655C11.9206 101.835 11.5337 102.175 11.1136 102.688L11.3612 102.891ZM15.5706 103.187L15.8505 103.032C14.0919 99.8584 13.6824 97.542 13.9825 95.2643C14.2871 92.9526 15.3184 90.6701 16.5196 87.5204L16.2206 87.4064L15.9216 87.2923C14.7429 90.3831 13.6654 92.7717 13.348 95.1807C13.0261 97.6236 13.4815 100.077 15.2907 103.342L15.5706 103.187ZM16.2206 87.4064L15.9034 87.449C15.9393 87.7158 15.9991 87.8991 16.0634 88.0644C16.1281 88.2307 16.1812 88.3432 16.2321 88.5217L16.5399 88.4339L16.8476 88.3461C16.7857 88.1294 16.7108 87.9634 16.6599 87.8324C16.6085 87.7004 16.5651 87.5674 16.5377 87.3637L16.2206 87.4064ZM16.5399 88.4339L16.7714 88.6548C17.4802 87.912 17.9671 86.6686 18.3384 85.4288C18.7081 84.1946 18.9946 82.8398 19.2406 81.9362L18.9318 81.8522L18.6231 81.7682C18.3569 82.7458 18.0983 84 17.7253 85.2452C17.354 86.485 16.901 87.5918 16.3083 88.213L16.5399 88.4339ZM18.9318 81.8522L19.2406 81.9362C19.9137 79.4612 20.751 76.8174 21.1006 74.2367L20.7835 74.1938L20.4664 74.1508C20.1242 76.6768 19.3063 79.2556 18.623 81.7682L18.9318 81.8522ZM20.7835 74.1938L21.1006 74.2369C21.6942 69.8684 23.0309 65.0308 24.4377 60.9044L24.1349 60.8011L23.832 60.6978C22.4179 64.8455 21.0677 69.7261 20.4664 74.1507L20.7835 74.1938ZM24.1349 60.8011L23.8346 60.6904C20.7721 68.9986 17.8899 77.2072 14.5887 85.2537L14.8848 85.3751L15.1808 85.4966C18.4878 77.4359 21.3771 69.2075 24.4351 60.9118L24.1349 60.8011ZM24.6111 104.303L24.9311 104.304C24.9354 102.749 24.6525 101.227 24.4173 99.7213C24.1804 98.2047 23.9886 96.6894 24.1462 95.0906L23.8278 95.0592L23.5093 95.0278C23.3431 96.7131 23.5471 98.2971 23.785 99.82C24.0245 101.354 24.2952 102.811 24.2911 104.302L24.6111 104.303ZM23.8278 95.0592L24.1462 95.0907C24.4976 91.5435 24.8618 87.311 25.9977 84.1201L25.6962 84.0128L25.3948 83.9054C24.2264 87.1875 23.8575 91.5132 23.5093 95.0277L23.8278 95.0592ZM25.6962 84.0128L25.3884 83.9255C24.3458 87.6022 23.373 91.3289 22.7733 95.1316L23.0894 95.1814L23.4055 95.2313C23.999 91.4676 24.9633 87.7707 26.0041 84.1001L25.6962 84.0128ZM23.0894 95.1814L22.7733 95.1313C22.6457 95.935 21.9622 98.5444 21.8498 100.754C21.7937 101.859 21.8718 102.946 22.2774 103.701C22.4858 104.089 22.787 104.401 23.2062 104.571C23.6217 104.739 24.1162 104.752 24.6864 104.614L24.6111 104.303L24.5358 103.992C24.0539 104.109 23.7031 104.081 23.4462 103.978C23.1928 103.875 22.9942 103.683 22.8413 103.398C22.5243 102.808 22.4337 101.875 22.489 100.787C22.5996 98.612 23.2594 96.1512 23.4054 95.2316L23.0894 95.1814ZM17.8406 104.063L18.155 104.122C18.3111 103.298 18.4407 102.421 18.6325 101.547C18.8229 100.679 19.066 99.8598 19.4302 99.1895L19.149 99.0368L18.8678 98.884C18.4608 99.6333 18.2022 100.522 18.0074 101.41C17.814 102.291 17.675 103.217 17.5262 104.003L17.8406 104.063ZM19.149 99.0368L18.8291 99.046C18.896 101.361 19.5548 103.586 20.1486 105.765L20.4574 105.68L20.7661 105.596C20.1651 103.391 19.533 101.249 19.4689 99.0275L19.149 99.0368ZM20.4574 105.68L20.7066 105.48C19.8994 104.478 19.1498 103.58 19.1967 102.396L18.8769 102.384L18.5572 102.371C18.499 103.84 19.444 104.933 20.2082 105.881L20.4574 105.68ZM18.8769 102.384L18.6172 102.197C18.1651 102.825 17.823 103.735 17.5395 104.522L17.8406 104.631L18.1417 104.739C18.4312 103.935 18.746 103.113 19.1367 102.57L18.8769 102.384ZM27.3528 104.277L27.6616 104.361C27.8111 103.811 27.8885 103.248 27.8592 102.765C27.831 102.3 27.6974 101.823 27.3317 101.561L27.1456 101.822L26.9595 102.082C27.0822 102.17 27.1955 102.393 27.2204 102.804C27.2443 103.198 27.1811 103.688 27.044 104.193L27.3528 104.277ZM27.1456 101.822L26.9595 102.082C27.9403 102.783 28.8943 103.813 29.349 104.947C29.7958 106.061 29.7639 107.272 28.7901 108.426L29.0346 108.632L29.2791 108.838C30.4275 107.478 30.4646 106.009 29.943 104.709C29.4294 103.428 28.3779 102.309 27.3317 101.561L27.1456 101.822ZM29.0346 108.632L28.7902 108.425C28.1976 109.127 27.773 109.353 27.4787 109.38C27.2062 109.405 26.9461 109.265 26.6513 108.933C26.3547 108.598 26.0843 108.138 25.7804 107.642C25.4877 107.165 25.1628 106.653 24.7741 106.294L24.557 106.529L24.3399 106.764C24.6534 107.054 24.9357 107.489 25.2348 107.977C25.5226 108.446 25.8286 108.969 26.1722 109.357C26.5177 109.747 26.9619 110.07 27.5372 110.017C28.0906 109.966 28.6573 109.574 29.279 108.839L29.0346 108.632ZM24.557 106.529L24.3399 106.764C24.6843 107.083 25.0647 107.226 25.4559 107.182C25.8343 107.141 26.1681 106.931 26.4459 106.657C26.9982 106.113 27.4272 105.221 27.6616 104.361L27.3528 104.277L27.0441 104.193C26.8259 104.994 26.4384 105.766 25.9966 106.201C25.7773 106.417 25.5698 106.526 25.3857 106.546C25.2144 106.565 25.0111 106.513 24.7742 106.294L24.557 106.529ZM42.9109 13.5502L42.7778 13.2592C42.0558 13.5893 41.604 14.2282 41.319 14.9893C41.0349 15.7478 40.9034 16.6608 40.8402 17.5996C40.7769 18.5404 40.7811 19.532 40.7794 20.4491C40.7776 21.3744 40.7697 22.2171 40.6867 22.8888L41.0043 22.928L41.3219 22.9672C41.4105 22.25 41.4176 21.3673 41.4194 20.4503C41.4211 19.5251 41.4172 18.5577 41.4788 17.6426C41.5405 16.7254 41.6668 15.8854 41.9184 15.2137C42.1689 14.5445 42.5304 14.076 43.044 13.8412L42.9109 13.5502ZM41.0043 22.928L40.6868 22.8888C40.2381 26.5212 40.0726 29.8865 39.0018 33.3247L39.3073 33.4198L39.6129 33.515C40.7062 30.0042 40.8805 26.541 41.3219 22.9672L41.0043 22.928ZM39.3073 33.4198L39.0018 33.3247C35.7941 43.6298 32.6244 54.1332 30.8716 64.7743L31.1873 64.8263L31.503 64.8783C33.2478 54.2866 36.4044 43.8222 39.6129 33.5149L39.3073 33.4198ZM31.1873 64.8263L31.4979 64.9033C34.1391 54.2546 37.7438 44.1066 40.839 33.5455L40.5319 33.4555L40.2248 33.3655C37.1446 43.8754 33.5208 54.089 30.8767 64.7493L31.1873 64.8263ZM40.5319 33.4555L40.839 33.5455C41.9033 29.9125 42.6861 27.4305 42.6861 23.4953H42.3661H42.0461C42.0461 27.3265 41.2911 29.7258 40.2248 33.3656L40.5319 33.4555ZM42.3661 23.4953H42.6861C42.6861 20.2423 42.8898 16.8188 42.6287 13.5477L42.3097 13.5732L41.9907 13.5987C42.2492 16.8371 42.0461 20.1881 42.0461 23.4953H42.3661ZM42.3097 13.5732L42.205 13.2708C41.9818 13.3481 41.8628 13.4803 41.7763 13.6124C41.6889 13.7456 41.669 13.8047 41.5789 13.9085L41.8205 14.1183L42.062 14.3282C42.1883 14.1828 42.2766 14.0165 42.3116 13.9631C42.3473 13.9085 42.3648 13.8928 42.4143 13.8756L42.3097 13.5732ZM48.6321 11.5634L48.6974 11.2501C48.359 11.1796 48.0225 11.1463 47.7 11.2057C47.3685 11.2669 47.0697 11.4229 46.8073 11.6994L47.0395 11.9196L47.2716 12.1399C47.4421 11.9602 47.6196 11.8714 47.8161 11.8351C48.0217 11.7972 48.2651 11.8138 48.5669 11.8767L48.6321 11.5634ZM47.0395 11.9196L46.7635 12.0816C47.3622 13.1023 47.1826 14.0592 46.7212 15.0855C46.4877 15.6052 46.1928 16.1188 45.8982 16.6645C45.6081 17.2018 45.3222 17.7637 45.134 18.3458L45.4385 18.4442L45.743 18.5426C45.9119 18.0202 46.1733 17.502 46.4613 16.9685C46.7448 16.4435 47.0588 15.8956 47.305 15.3479C47.8032 14.2397 48.067 13.0388 47.3155 11.7577L47.0395 11.9196ZM45.4385 18.4442L45.1341 18.3457C44.696 19.699 44.3062 21.045 43.9197 22.3871C43.5327 23.7306 43.1492 25.0697 42.7217 26.4168L43.0267 26.5136L43.3317 26.6104C43.7623 25.2535 44.1484 23.9055 44.5347 22.5642C44.9214 21.2214 45.3085 19.8848 45.7429 18.5428L45.4385 18.4442ZM43.0267 26.5136L43.3118 26.6589C43.7687 25.7623 44.1667 24.8908 44.5498 24.0481C44.9337 23.2035 45.3019 22.3896 45.7032 21.5975C46.5038 20.0171 47.4304 18.5346 48.845 17.1253L48.6192 16.8986L48.3933 16.6719C46.9145 18.1452 45.9514 19.6912 45.1323 21.3083C44.7237 22.1148 44.3496 22.9419 43.9671 23.7832C43.5838 24.6265 43.1912 25.486 42.7416 26.3683L43.0267 26.5136ZM48.6192 16.8986L48.8451 17.1252C49.0453 16.9256 49.341 16.6839 49.6919 16.4056C50.037 16.1319 50.4309 15.8264 50.8063 15.5119C51.1818 15.1973 51.5498 14.8647 51.8466 14.5304C52.139 14.2012 52.3869 13.8436 52.4865 13.477L52.1778 13.3931L51.869 13.3091C51.8082 13.5325 51.6386 13.8008 51.3681 14.1055C51.102 14.4051 50.7618 14.7143 50.3953 15.0213C50.0286 15.3285 49.6468 15.6246 49.2942 15.9042C48.9473 16.1792 48.6232 16.4427 48.3932 16.6719L48.6192 16.8986ZM52.1778 13.3931L52.4865 13.4773C52.7524 12.5023 52.2711 11.6354 51.6507 10.9821C51.0254 10.3236 50.1999 9.81492 49.6045 9.52261L49.4635 9.80986L49.3224 10.0971C49.8777 10.3697 50.6315 10.8382 51.1867 11.4228C51.7468 12.0127 52.0474 12.6549 51.869 13.3089L52.1778 13.3931ZM49.4635 9.80986L49.6047 9.52269C48.3139 8.88808 47.2362 8.67123 46.3216 9.03293C45.4097 9.39357 44.7659 10.2881 44.2337 11.5985L44.5302 11.7189L44.8267 11.8393C45.3415 10.5718 45.8974 9.88892 46.557 9.62808C47.2139 9.36831 48.0793 9.48592 49.3223 10.097L49.4635 9.80986ZM44.5302 11.7189L44.8169 11.8609C45.0405 11.4096 45.5214 11.0952 46.1689 10.9362C46.8126 10.7782 47.5756 10.7873 48.2764 10.944C48.9821 11.1017 49.5831 11.3994 49.9345 11.7791C50.1072 11.9657 50.2147 12.1663 50.2545 12.3776C50.2941 12.5874 50.2713 12.8302 50.1476 13.1109L50.4404 13.24L50.7332 13.3691C50.9024 12.9851 50.9498 12.6111 50.8835 12.2591C50.8174 11.9086 50.6429 11.6024 50.4043 11.3445C49.933 10.8352 49.1939 10.4933 48.4161 10.3194C47.6333 10.1444 46.7693 10.1298 46.0163 10.3146C45.2672 10.4986 44.5819 10.8935 44.2434 11.5769L44.5302 11.7189ZM50.4404 13.24L50.4067 12.9217C50.1453 12.9494 49.9999 12.8715 49.8776 12.746C49.7272 12.5916 49.6242 12.3824 49.4592 12.1007C49.3093 11.8448 49.1103 11.5381 48.7819 11.3482C48.4382 11.1494 48.0089 11.1077 47.4593 11.2542L47.5417 11.5634L47.6241 11.8726C48.0612 11.7561 48.305 11.8117 48.4615 11.9022C48.6332 12.0015 48.7615 12.1758 48.9069 12.4241C49.0372 12.6466 49.1974 12.9649 49.4192 13.1926C49.6691 13.4491 50.0047 13.6079 50.4741 13.5582L50.4404 13.24ZM37.1882 6.17268L37.3471 5.89492C36.5626 5.44612 35.6642 5.39819 34.9329 5.91252L35.117 6.17426L35.3011 6.43601C35.786 6.095 36.4101 6.09626 37.0293 6.45044L37.1882 6.17268ZM35.117 6.17426L34.8214 6.29685C34.8644 6.4005 34.9344 6.4686 34.9878 6.51123C35.0364 6.55004 35.0946 6.58473 35.119 6.60013C35.1933 6.64705 35.1625 6.64178 35.1514 6.60426L35.4584 6.51386L35.7654 6.42345C35.7017 6.20741 35.5291 6.10217 35.4604 6.05883C35.4133 6.02911 35.3996 6.0211 35.387 6.01104C35.3792 6.0048 35.3986 6.01786 35.4126 6.05168L35.117 6.17426ZM35.4584 6.51386L35.2367 6.28305C33.9395 7.52876 33.5029 9.18434 33.3621 10.8718C33.2916 11.7163 33.2944 12.5809 33.3054 13.4178C33.3164 14.26 33.3354 15.0694 33.3008 15.827L33.6204 15.8417L33.9401 15.8563C33.9759 15.0747 33.9562 14.2402 33.9453 13.4094C33.9344 12.5733 33.9322 11.7359 33.9999 10.925C34.1353 9.30153 34.5472 7.8325 35.68 6.74467L35.4584 6.51386ZM33.6204 15.8417L33.3008 15.827C33.1939 18.1495 32.929 20.4597 32.6554 22.7811C32.3822 25.099 32.1003 27.4291 31.9636 29.7744L32.2831 29.793L32.6025 29.8116C32.7379 27.489 33.0172 25.179 33.291 22.856C33.5643 20.5365 33.832 18.2049 33.9401 15.8564L33.6204 15.8417ZM32.2831 29.793L31.9636 29.7743C31.7741 33.0241 31.3109 36.3603 30.5904 39.495L30.9023 39.5667L31.2142 39.6384C31.9431 36.4668 32.411 33.0951 32.6025 29.8116L32.2831 29.793ZM30.9023 39.5667L31.1874 39.7121C32.902 36.3507 33.9287 31.4769 34.4463 27.7807L34.1294 27.7363L33.8125 27.6919C33.2969 31.3733 32.2814 36.159 30.6173 39.4213L30.9023 39.5667ZM34.1294 27.7363L34.4463 27.7808C34.7125 25.8829 35.1017 23.9619 35.415 21.9715C35.7253 20.0004 35.9527 18.0046 35.8749 16.0503L35.5552 16.0631L35.2354 16.0758C35.3108 17.9674 35.0909 19.9146 34.7828 21.872C34.4777 23.8099 34.0775 25.8026 33.8125 27.6919L34.1294 27.7363ZM35.5552 16.0631L35.8749 16.0503C35.7362 12.5746 35.2842 10.0912 36.9288 6.88608L36.6441 6.73999L36.3594 6.59391C34.6191 9.98551 35.0999 12.6802 35.2354 16.0758L35.5552 16.0631ZM49.7157 7.45885L49.4358 7.61392C50.0846 8.7851 50.4135 10.184 50.3158 11.36L50.6347 11.3865L50.9536 11.4129C51.0631 10.0943 50.6971 8.57009 49.9956 7.30379L49.7157 7.45885ZM50.6347 11.3865L50.3158 11.3601C50.2989 11.5639 50.2144 11.8762 50.0926 12.279C49.9753 12.6668 49.8289 13.1226 49.7129 13.5716C49.5972 14.0196 49.5048 14.4865 49.5016 14.9061C49.4984 15.3199 49.5817 15.7482 49.8839 16.0511L50.1104 15.825L50.3369 15.599C50.2131 15.4749 50.1389 15.257 50.1416 14.911C50.1442 14.5708 50.2209 14.1644 50.3326 13.7316C50.4442 13.2995 50.5835 12.8668 50.7052 12.4643C50.8224 12.0767 50.9301 11.6969 50.9536 11.4128L50.6347 11.3865ZM50.1104 15.825L49.8831 16.0503C49.9555 16.1233 50.027 16.197 50.0964 16.2716L50.3306 16.0535L50.5648 15.8355C50.4895 15.7546 50.4132 15.6759 50.3377 15.5998L50.1104 15.825ZM50.3306 16.0535L50.4289 16.3581C52.5989 15.6578 53.9489 13.7 54.5319 11.5092C55.1149 9.31818 54.9524 6.82479 54.0284 4.952L53.7414 5.09358L53.4544 5.23516C54.2999 6.94878 54.4628 9.27997 53.9134 11.3446C53.364 13.4095 52.124 15.1385 50.2324 15.749L50.3306 16.0535ZM53.7414 5.09358L54.0284 4.95197C53.0702 3.0103 51.0761 1.69293 48.9201 1.03193C46.764 0.370861 44.3809 0.345436 42.5877 1.05826L42.7059 1.35562L42.8241 1.65299C44.4501 1.00663 46.6787 1.01413 48.7325 1.64381C50.7865 2.27356 52.6005 3.50476 53.4545 5.23519L53.7414 5.09358ZM42.7059 1.35562L42.5877 1.05825C41.9192 1.32396 41.419 1.58295 41.0667 1.84301C40.7173 2.1009 40.48 2.38461 40.4014 2.70892C40.3198 3.04576 40.4262 3.35271 40.6052 3.61149C40.7804 3.86465 41.0412 4.0975 41.3275 4.31376C41.6166 4.53213 41.9528 4.74898 42.2929 4.96406C42.6368 5.18153 42.9849 5.39732 43.3144 5.62184C43.9878 6.08072 44.5052 6.527 44.7062 6.98838L44.9996 6.86059L45.293 6.7328C45.0104 6.08414 44.3429 5.54822 43.6748 5.09297C43.3336 4.86043 42.9719 4.63617 42.635 4.42314C42.2943 4.20771 41.9787 4.00359 41.7133 3.80308C41.445 3.60044 41.2485 3.41647 41.1316 3.24741C41.0185 3.08396 40.9983 2.96328 41.0234 2.85962C41.0515 2.74343 41.1544 2.57377 41.4468 2.35793C41.7363 2.14426 42.1795 1.90918 42.8241 1.653L42.7059 1.35562ZM44.9996 6.86059L45.2898 6.72574C45.3361 6.82541 45.3154 6.91377 45.3118 6.93003C45.3051 6.95964 45.2956 6.9814 45.2916 6.9902C45.283 7.00935 45.2745 7.02256 45.2729 7.02505C45.2682 7.03255 45.2656 7.03563 45.2691 7.03107C45.2746 7.02382 45.2859 7.00963 45.3043 6.98744C45.3403 6.94414 45.3945 6.88127 45.4626 6.80429C45.5983 6.65078 45.7841 6.44682 45.9794 6.2415C46.1755 6.03546 46.3776 5.83179 46.5468 5.67696C46.6318 5.59917 46.7041 5.53785 46.7603 5.49568C46.8312 5.44255 46.838 5.44993 46.8026 5.45824L46.7294 5.14674L46.6561 4.83524C46.5457 4.86121 46.4418 4.93461 46.3764 4.98362C46.2964 5.04358 46.2069 5.12049 46.1148 5.20477C45.9298 5.37406 45.7161 5.58982 45.5158 5.80035C45.3148 6.01158 45.1237 6.22131 44.9831 6.38042C44.9129 6.45975 44.8541 6.52793 44.8123 6.57813C44.7919 6.60268 44.7731 6.62586 44.7586 6.64506C44.752 6.65372 44.742 6.6673 44.7324 6.68237C44.7284 6.68864 44.7183 6.70491 44.7086 6.72636C44.7041 6.73632 44.6942 6.75904 44.6874 6.78942C44.6836 6.80644 44.6629 6.89538 44.7094 6.99544L44.9996 6.86059ZM46.7294 5.14674L46.8028 5.45819C47.3612 5.32649 47.7674 5.65956 48.3121 6.15606L48.5277 5.91956L48.7433 5.68306C48.2486 5.23219 47.5911 4.6147 46.6559 4.83529L46.7294 5.14674ZM48.5277 5.91956L48.3118 6.15575C48.744 6.55084 49.1243 7.05117 49.4357 7.6138L49.7157 7.45885L49.9957 7.3039C49.6563 6.69064 49.235 6.13252 48.7436 5.68337L48.5277 5.91956ZM44.7542 9.01641L44.4812 8.84956C43.9874 9.65766 43.9026 10.7147 44.0613 11.594L44.3763 11.5372L44.6912 11.4804C44.5512 10.7046 44.6387 9.81924 45.0273 9.18326L44.7542 9.01641ZM44.3763 11.5372L44.3155 11.8514C44.8674 11.9581 45.4193 11.9053 45.9377 11.8042C46.4436 11.7054 46.9717 11.5473 47.4135 11.4404L47.3382 11.1294L47.263 10.8183C46.7667 10.9384 46.3084 11.0797 45.8151 11.176C45.3343 11.2698 44.8742 11.3075 44.437 11.223L44.3763 11.5372ZM47.3382 11.1294L47.1255 10.8903C46.7463 11.2276 46.4563 11.5235 46.1205 11.7979C45.7989 12.0607 45.4765 12.266 45.0969 12.3847L45.1924 12.6901L45.2878 12.9955C45.7738 12.8436 46.1685 12.5852 46.5255 12.2935C46.8683 12.0134 47.2184 11.6643 47.5509 11.3685L47.3382 11.1294ZM45.1924 12.6901L45.097 12.3846C44.9172 12.4408 44.8627 12.3776 44.5845 12.2787C44.4522 12.2316 44.2782 12.1904 44.0709 12.2428C43.872 12.2932 43.6853 12.4189 43.4943 12.6117L43.7217 12.8369L43.949 13.0621C44.0964 12.9133 44.1849 12.8742 44.2279 12.8633C44.2626 12.8545 44.2972 12.8558 44.3701 12.8817C44.5025 12.9288 44.8449 13.1338 45.2877 12.9955L45.1924 12.6901ZM43.7217 12.8369L43.4944 12.6116C43.4441 12.6623 43.4116 12.7213 43.3917 12.7618C43.3694 12.8071 43.3496 12.8573 43.3319 12.9077C43.2965 13.0088 43.2623 13.1325 43.2297 13.2663C43.1641 13.5352 43.0987 13.8708 43.0393 14.2041C42.9798 14.5385 42.9255 14.8757 42.8824 15.1495C42.8386 15.4278 42.8077 15.6314 42.7934 15.711L43.1083 15.7679L43.4232 15.8248C43.4393 15.7357 43.4725 15.5168 43.5146 15.249C43.5575 14.9766 43.611 14.6443 43.6694 14.3162C43.728 13.987 43.7907 13.6671 43.8514 13.418C43.8819 13.2929 43.9105 13.192 43.936 13.1192C43.9487 13.0827 43.9589 13.0586 43.9659 13.0444C43.9753 13.0254 43.9714 13.0395 43.949 13.0621L43.7217 12.8369ZM43.1083 15.7679L42.7933 15.7111C42.5476 17.0728 42.594 18.4725 42.5947 19.8147L42.9147 19.8145L43.2347 19.8143C43.2339 18.4397 43.1904 17.1147 43.4232 15.8247L43.1083 15.7679ZM42.9147 19.8145H43.2347C43.2347 18.3357 43.1823 16.3816 43.3333 14.4813C43.4852 12.5711 43.8394 10.7835 44.6117 9.61939L44.345 9.44248L44.0784 9.26557C43.2093 10.5755 42.8483 12.5068 42.6954 14.4306C42.5416 16.3642 42.5947 18.3591 42.5947 19.8145H42.9147ZM49.6593 14.5491L49.3437 14.4961C49.2658 14.96 49.247 15.2842 49.2452 15.5327C49.2443 15.6545 49.2476 15.7584 49.2493 15.8408C49.2511 15.9264 49.2511 15.987 49.2465 16.0413C49.2315 16.2195 49.1705 16.3906 48.5923 17.1099L48.8417 17.3104L49.0911 17.5109C49.6528 16.8122 49.8505 16.4961 49.8843 16.095C49.8919 16.0043 49.891 15.9143 49.8892 15.8276C49.8873 15.7376 49.8844 15.6474 49.8852 15.5373C49.8867 15.3221 49.9027 15.0318 49.9749 14.6022L49.6593 14.5491ZM48.8417 17.3104L48.5923 17.1099C47.3283 18.682 46.1167 20.2643 44.7471 21.7054L44.979 21.9259L45.211 22.1463C46.6044 20.6802 47.8403 19.0665 49.0911 17.5109L48.8417 17.3104ZM44.979 21.9259L45.2737 22.0506C46.0559 20.2027 47.6211 18.1478 48.8286 16.4244L48.5666 16.2408L48.3045 16.0572C47.127 17.7377 45.5008 19.8722 44.6843 21.8011L44.979 21.9259ZM48.5666 16.2408L48.6851 15.9436C48.6299 15.9215 48.5498 15.8878 48.4624 15.8511C48.377 15.8152 48.2855 15.7767 48.2131 15.7477L48.0941 16.0448L47.9752 16.3419C48.0414 16.3684 48.1275 16.4045 48.2143 16.4411C48.2992 16.4767 48.3859 16.5132 48.448 16.538L48.5666 16.2408ZM48.0941 16.0448L48.3065 16.2842C48.4543 16.1531 48.6088 15.9603 48.7315 15.808C48.8726 15.633 48.9649 15.5217 49.0196 15.479L48.8226 15.2268L48.6257 14.9746C48.4975 15.0746 48.349 15.2628 48.2332 15.4064C48.0992 15.5727 47.9809 15.7175 47.8818 15.8054L48.0941 16.0448ZM48.8226 15.2268L49.0586 15.0107C48.8824 14.8182 48.6568 14.7204 48.4061 14.7492C48.179 14.7753 47.978 14.9005 47.8123 15.0434C47.4796 15.3301 47.1579 15.8038 46.8795 16.2893C46.3164 17.2715 45.8532 18.442 45.7639 18.707L46.0672 18.8092L46.3704 18.9114C46.4488 18.6789 46.8958 17.5476 47.4347 16.6076C47.7074 16.1321 47.9847 15.7396 48.2301 15.5281C48.3535 15.4218 48.4363 15.3899 48.4792 15.385C48.4985 15.3828 48.5291 15.3801 48.5866 15.4429L48.8226 15.2268ZM46.0672 18.8092L46.382 18.8665C46.5616 17.8794 47.0426 16.9609 47.6099 16.1204C48.1855 15.2675 48.8077 14.5506 49.3015 13.8892L49.0451 13.6978L48.7887 13.5063C48.3369 14.1113 47.6609 14.9008 47.0794 15.7623C46.4896 16.6363 45.9546 17.6403 45.7523 18.7519L46.0672 18.8092ZM36.7843 7.95239L36.8057 7.6331C36.3542 7.6029 35.9617 7.69349 35.6312 7.89492C35.3032 8.09482 35.0583 8.39032 34.8765 8.73524C34.518 9.41517 34.3803 10.3335 34.344 11.2704C34.3074 12.2159 34.3732 13.2226 34.4496 14.1032C34.5274 14.9982 34.6132 15.7387 34.6249 16.1989L34.9448 16.1908L35.2647 16.1827C35.2524 15.6967 35.1619 14.908 35.0872 14.0478C35.0113 13.1734 34.9486 12.1992 34.9836 11.2952C35.0189 10.3827 35.153 9.58303 35.4426 9.03373C35.5848 8.76403 35.7581 8.56711 35.9643 8.44143C36.168 8.31727 36.4259 8.24912 36.7629 8.27168L36.7843 7.95239ZM34.9448 16.1908L35.2648 16.1861C35.2453 14.8659 35.3988 13.3411 35.756 11.8998C36.114 10.4551 36.671 9.11735 37.4433 8.15235L37.1935 7.95239L36.9437 7.75243C36.0922 8.81629 35.505 10.2517 35.1347 11.7459C34.7636 13.2436 34.6046 14.8235 34.6248 16.1955L34.9448 16.1908ZM28.7854 104.93L28.4674 104.895C28.4269 105.259 28.2641 105.633 28.0215 105.916C27.7791 106.199 27.4775 106.37 27.1625 106.386L27.1783 106.706L27.1942 107.025C27.7281 106.999 28.1824 106.712 28.5075 106.332C28.8324 105.953 29.0487 105.46 29.1035 104.965L28.7854 104.93ZM27.1783 106.706L27.1621 106.386C26.8956 106.399 26.578 106.337 26.2151 106.215C25.8547 106.094 25.4706 105.921 25.075 105.731C24.3071 105.361 23.4624 104.903 22.7753 104.733L22.6985 105.044L22.6216 105.355C23.2238 105.504 23.9714 105.91 24.7973 106.307C25.1985 106.501 25.6117 106.688 26.0112 106.822C26.4083 106.955 26.8134 107.044 27.1946 107.025L27.1783 106.706ZM22.6985 105.044L22.7751 104.733C22.3023 104.617 21.3364 104.373 20.5298 103.975C20.1253 103.776 19.7862 103.55 19.5685 103.303C19.3579 103.064 19.2755 102.824 19.3273 102.561L19.0133 102.499L18.6994 102.437C18.5992 102.945 18.7836 103.38 19.0881 103.726C19.3857 104.064 19.8101 104.334 20.247 104.549C21.1233 104.981 22.152 105.239 22.6218 105.355L22.6985 105.044ZM19.0133 102.499L18.6994 102.438C18.6369 102.755 18.4184 102.951 18.0018 103.053C17.5707 103.159 16.9857 103.143 16.3332 103.05C15.0333 102.863 13.614 102.394 12.9217 102.191L12.8319 102.499L12.7421 102.806C13.4015 102.999 14.884 103.488 16.2424 103.683C16.9191 103.78 17.6023 103.81 18.1544 103.675C18.7211 103.536 19.2008 103.203 19.3273 102.561L19.0133 102.499ZM12.8319 102.499L12.9218 102.192C12.662 102.115 12.4305 102.03 12.207 101.944C11.9873 101.859 11.7653 101.77 11.5443 101.694C11.0896 101.539 10.6122 101.435 9.9869 101.485L10.0124 101.804L10.038 102.123C10.5526 102.081 10.9402 102.165 11.3377 102.3C11.5429 102.37 11.7439 102.451 11.9769 102.541C12.2061 102.63 12.4569 102.722 12.742 102.806L12.8319 102.499ZM10.0124 101.804L9.98678 101.485C9.48794 101.525 9.00605 101.664 8.55378 101.817C8.08747 101.974 7.67479 102.137 7.25027 102.256L7.337 102.564L7.42373 102.873C7.86714 102.748 8.33344 102.567 8.75849 102.423C9.1976 102.275 9.61945 102.156 10.0381 102.123L10.0124 101.804ZM7.337 102.564L7.58592 102.766C7.81725 102.479 8.19207 102.275 8.66394 102.169C9.13366 102.063 9.67543 102.061 10.203 102.157C10.731 102.253 11.2282 102.444 11.6137 102.709C11.9992 102.975 12.2561 103.303 12.3476 103.671L12.6581 103.594L12.9687 103.517C12.8293 102.955 12.4508 102.509 11.9769 102.182C11.503 101.856 10.9167 101.636 10.3173 101.527C9.71762 101.418 9.08832 101.418 8.52354 101.545C7.9609 101.671 7.43777 101.931 7.08807 102.363L7.337 102.564ZM12.6581 103.594L12.7766 103.892C13.9801 103.412 15.1031 103.882 16.3711 104.481L16.5078 104.192L16.6446 103.903C15.4086 103.318 14.0352 102.701 12.5397 103.297L12.6581 103.594ZM16.5078 104.192L16.3712 104.481C16.6456 104.611 16.8255 104.702 16.9886 104.78C17.1451 104.855 17.2779 104.915 17.42 104.959C17.7034 105.046 17.9984 105.062 18.58 105.091L18.5958 104.771L18.6115 104.451C18.0013 104.421 17.7983 104.406 17.6088 104.347C17.5143 104.318 17.4169 104.276 17.2657 104.203C17.1212 104.134 16.916 104.031 16.6445 103.903L16.5078 104.192ZM18.5958 104.771L18.5801 105.091C19.3831 105.13 21.5709 105.486 23.281 106.247C24.1406 106.629 24.8298 107.093 25.184 107.626C25.3567 107.886 25.4474 108.159 25.4452 108.451C25.4431 108.745 25.3469 109.083 25.1046 109.472L25.3762 109.641L25.6478 109.811C25.9383 109.344 26.082 108.892 26.0852 108.456C26.0884 108.018 25.9498 107.622 25.7172 107.272C25.2606 106.585 24.4344 106.059 23.5411 105.662C21.7454 104.863 19.4773 104.494 18.6114 104.451L18.5958 104.771ZM25.3762 109.641L25.6478 109.811C25.8795 109.439 26.1173 109.312 26.3516 109.268C26.6189 109.217 26.9041 109.263 27.2772 109.309C27.6241 109.352 28.0434 109.393 28.4543 109.242C28.8817 109.083 29.2476 108.739 29.5493 108.129L29.2625 107.987L28.9756 107.845C28.7244 108.353 28.4655 108.555 28.2323 108.641C27.9825 108.734 27.7054 108.718 27.3562 108.674C27.0334 108.634 26.623 108.564 26.2314 108.639C25.8067 108.72 25.4223 108.962 25.1046 109.472L25.3762 109.641ZM29.2625 107.987L29.5494 108.129C30.3239 106.561 29.6925 104.701 28.714 103.564L28.4715 103.773L28.229 103.982C29.1097 105.005 29.5955 106.59 28.9755 107.845L29.2625 107.987ZM28.4715 103.773L28.2287 103.981C28.4281 104.213 28.5068 104.537 28.4674 104.895L28.7854 104.93L29.1035 104.965C29.157 104.48 29.0574 103.964 28.7142 103.564L28.4715 103.773Z" fill="#967348" mask="url(#path-1-outside-1_8_21)"/>
</g>
<defs>
<filter id="filter0_d_8_21" x="0.27874" y="0.529884" width="58.5941" height="121.959" filterUnits="userSpaceOnUse" color-interpolation-filters="sRGB">
<feFlood flood-opacity="0" result="BackgroundImageFix"/>
<feColorMatrix in="SourceAlpha" type="matrix" values="0 0 0 0 0 0 0 0 0 0 0 0 0 0 0 0 0 0 127 0" result="hardAlpha"/>
<feOffset dy="4"/>
<feGaussianBlur stdDeviation="2"/>
<feComposite in2="hardAlpha" operator="out"/>
<feColorMatrix type="matrix" values="0 0 0 0 0 0 0 0 0 0 0 0 0 0 0 0 0 0 0.25 0"/>
<feBlend mode="normal" in2="BackgroundImageFix" result="effect1_dropShadow_8_21"/>
<feBlend mode="normal" in="SourceGraphic" in2="effect1_dropShadow_8_21" result="shape"/>
</filter>
</defs>
</svg>
