<svg width="58" height="45" viewBox="0 0 58 45" fill="none" xmlns="http://www.w3.org/2000/svg">
<g id="Mandible" filter="url(#filter0_d_8_66)">
<mask id="path-1-outside-1_8_66" maskUnits="userSpaceOnUse" x="3.90892" y="0.144958" width="51" height="37" fill="black">
<rect fill="white" x="3.90892" y="0.144958" width="51" height="37"/>
<path d="M46.906 3.89021C45.8422 4.64161 45.9108 5.03198 45.9779 6.39037C46.131 9.45151 46.5014 12.6229 46.2187 15.6571C44.985 28.8824 27.88 26.1712 19.273 23.6408C14.214 22.1531 13.2699 15.3088 12.703 10.6425C12.4713 8.73026 12.6984 6.84581 11.6979 5.11212C10.8642 3.67041 9.09863 1.69472 7.48925 1.25197C3.01013 0.0221196 5.63223 9.76651 6.05743 11.3352C6.8103 14.125 7.71861 16.8394 8.33889 19.6696C8.98127 22.5943 8.45015 26.333 10.7956 28.473C12.0491 29.6171 13.6867 30.2519 15.1178 31.1612C16.8201 32.2434 18.5148 33.3868 20.2263 34.3889C21.3678 35.057 22.7273 35.9163 24.0044 36.1576C26.6242 36.6543 29.5275 36.0457 32.1869 35.9846C33.4922 35.9544 34.7031 35.8338 36.0077 35.9885C37.1065 36.1187 38.0636 36.2123 39.1289 35.8814C41.3052 35.2062 43.1386 33.3678 44.546 31.6174C46.6644 28.9808 49.4808 26.8821 50.7694 23.6162C51.2899 22.2928 51.9048 21.0312 52.0321 19.5855C52.1433 18.3255 52.093 17.1996 52.3712 15.9626C53.044 12.9681 53.041 9.67685 53.3427 6.60699C53.4578 5.43109 53.9371 3.35462 53.6917 2.23506C53.4517 1.14089 52.5754 1.29482 51.6092 1.53286C49.9586 1.93752 48.3035 2.90474 46.906 3.89021Z"/>
<path d="M12.674 13.1688C12.344 11.8136 12.5932 9.79191 11.7565 8.67155C10.836 9.99265 11.3809 12.5182 11.6102 14.0234C11.8419 15.5421 12.1177 17.0909 12.5346 18.5627C13.1686 20.8034 13.5945 23.5028 15.4386 25.0318C15.3449 24.0153 15.5056 22.5276 15.2953 21.6842C14.9722 20.3829 14.1401 19.2046 13.7972 17.847C13.4109 16.3133 13.0527 14.7232 12.674 13.1688Z"/>
<path d="M47.8562 10.7464C47.8562 9.62053 48.5093 7.76226 47.5529 6.91326C46.5212 8.57951 47.1468 10.7369 47.0378 12.5984C46.9487 14.1456 46.9334 15.7785 46.6271 17.2797C46.0396 20.1282 43.9715 22.3673 43.6232 25.1809C44.3776 24.0153 45.6753 23.4552 46.3954 22.3935C47.0523 21.4231 47.8989 18.8666 47.9995 17.7042C48.1915 15.5071 47.8562 12.9951 47.8562 10.7464Z"/>
<path d="M9.80883 17.5939C10.0382 19.0991 10.2081 20.6622 10.1495 22.1888C10.1106 23.1973 9.55965 25.0857 9.98638 26.0315C9.38438 24.6953 9.25865 23.8249 9.43086 22.3872C10.1769 16.1752 5.28017 11.0003 6.05667 4.80347C7.8855 5.73657 8.68791 9.20396 9.01024 11.0924C9.3783 13.249 9.48116 15.4357 9.80883 17.5939Z"/>
<path d="M52.6249 3.94416C51.4636 4.75428 51.3264 8.12963 51.0323 9.44041C50.4654 11.9699 49.9045 14.5272 49.8999 17.1369C49.8969 18.8301 50.7671 20.1623 51.0955 21.7786C51.3714 18.6849 51.6716 15.7722 51.6716 12.6047C51.6716 10.3219 51.808 8.27007 52.3864 6.06903C52.4908 5.67072 52.945 2.91981 52.2157 4.0854"/>
<path d="M33.4412 33.5812C34.5202 33.34 35.3668 34.1406 36.2363 34.7285C36.0183 34.4159 35.8156 34.0835 35.6419 33.747C36.2256 34.1136 36.8786 34.5389 37.4829 34.8563C36.8847 33.7272 35.3409 33.3559 34.5042 32.3164C33.8893 31.5539 33.586 30.9065 33.5692 29.9258C33.6881 29.902 33.7955 29.9028 33.9106 29.8837C33.7871 29.9044 32.76 28.1746 32.638 27.9747C32.5809 28.3801 32.8118 33.7224 33.4412 33.5812Z"/>
<path d="M42.1495 30.8335C41.7594 32.2173 41.2099 33.39 40.3809 33.4336C41.0095 31.0168 42.3453 28.8713 43.067 26.5449C42.8513 27.2415 42.612 29.1863 42.1495 30.8335Z"/>
<path d="M44.3144 29.9059C44.7838 28.7411 46.2072 28.0881 47.0462 27.2447C47.9416 26.3433 48.8735 25.2492 49.4999 24.1399C49.0701 25.4475 48.2281 26.7496 47.3175 27.7747C46.2827 28.9403 44.7876 29.3846 43.7703 30.6153"/>
<path d="M20.1509 28.3143C20.0854 27.524 20.0884 26.6139 19.8895 25.8625C19.4209 26.0442 19.4879 26.4179 19.5885 26.8408C19.7089 27.3431 20.1067 27.789 20.1509 28.3143Z"/>
<path d="M40.6895 26.0045C39.9907 26.1013 40.022 27.4994 40.0738 28.1008C40.2071 27.5351 41.0149 26.4385 40.5874 26.0045"/>
<path d="M17.9014 25.1532C17.9776 25.2809 18.0691 25.3928 18.1773 25.4896C17.9395 25.9077 18.3823 26.4687 18.5705 26.8496C18.4607 26.3394 18.4295 25.4983 18.0035 25.2595"/>
<path d="M23.5213 26.6433C23.6585 27.04 23.8703 27.3423 24.2261 27.52C23.6905 28.0477 24.5477 29.9028 24.9112 30.486C24.2307 29.825 23.4222 27.5922 23.5144 26.5687C23.6394 26.7194 23.7507 26.8956 23.8284 27.0686"/>
<path d="M36.2949 27.2804C36.5502 27.0511 36.8032 26.8385 37.0989 26.6798C37.0371 26.8956 36.9952 27.2272 36.8992 27.4542C36.9167 27.4129 36.9472 27.397 36.9914 27.4058C36.8032 27.889 36.9411 28.5428 37.1065 28.9514C37.4951 28.204 37.9173 27.374 38.4248 26.6774C37.9676 27.5986 37.3084 28.5872 37.0851 29.6132C37.0676 29.583 37.0219 29.4783 36.9861 29.4188C36.7765 29.6512 36.6234 29.9893 36.5959 30.3423C36.7537 29.8369 37.0996 28.6047 36.7811 28.1738C36.7255 28.2199 36.6721 28.2667 36.6203 28.3151C36.5959 28.1651 36.5959 28.0643 36.5068 27.9429C36.3993 28.1183 36.1639 28.2992 36.0839 28.5198C36.1989 28.0707 36.2805 27.6398 36.1913 27.1741"/>
<path d="M26.4848 27.4946C26.737 27.0963 26.9884 26.9392 27.1546 26.5211C27.1492 26.4846 27.0997 26.7583 27.1104 26.7305C27.2277 26.6956 27.4723 26.6758 27.5927 26.6528C27.3405 27.7001 27.3862 28.8443 27.2247 29.7869C27.1584 28.9324 26.8307 28.1357 26.7911 27.2804"/>
<path d="M30.2666 26.9622C29.5892 27.2225 30.054 28.273 30.0845 28.876C30.2971 28.3762 30.1638 27.5454 30.1638 26.9622"/>
<path d="M33.128 27.0686C33.3825 27.1479 33.5715 27.2169 33.6264 27.4764C33.5677 27.4867 33.5075 27.497 33.448 27.5073C33.4709 27.8025 33.5128 28.1286 33.5944 28.4198C33.2111 27.8112 32.8529 27.2082 33.1242 26.46C33.2011 26.7623 33.3353 27.0495 33.5357 27.2812"/>
</mask>
<path d="M46.906 3.89021C45.8422 4.64161 45.9108 5.03198 45.9779 6.39037C46.131 9.45151 46.5014 12.6229 46.2187 15.6571C44.985 28.8824 27.88 26.1712 19.273 23.6408C14.214 22.1531 13.2699 15.3088 12.703 10.6425C12.4713 8.73026 12.6984 6.84581 11.6979 5.11212C10.8642 3.67041 9.09863 1.69472 7.48925 1.25197C3.01013 0.0221196 5.63223 9.76651 6.05743 11.3352C6.8103 14.125 7.71861 16.8394 8.33889 19.6696C8.98127 22.5943 8.45015 26.333 10.7956 28.473C12.0491 29.6171 13.6867 30.2519 15.1178 31.1612C16.8201 32.2434 18.5148 33.3868 20.2263 34.3889C21.3678 35.057 22.7273 35.9163 24.0044 36.1576C26.6242 36.6543 29.5275 36.0457 32.1869 35.9846C33.4922 35.9544 34.7031 35.8338 36.0077 35.9885C37.1065 36.1187 38.0636 36.2123 39.1289 35.8814C41.3052 35.2062 43.1386 33.3678 44.546 31.6174C46.6644 28.9808 49.4808 26.8821 50.7694 23.6162C51.2899 22.2928 51.9048 21.0312 52.0321 19.5855C52.1433 18.3255 52.093 17.1996 52.3712 15.9626C53.044 12.9681 53.041 9.67685 53.3427 6.60699C53.4578 5.43109 53.9371 3.35462 53.6917 2.23506C53.4517 1.14089 52.5754 1.29482 51.6092 1.53286C49.9586 1.93752 48.3035 2.90474 46.906 3.89021Z" fill="#F4E9D7"/>
<path d="M12.674 13.1688C12.344 11.8136 12.5932 9.79191 11.7565 8.67155C10.836 9.99265 11.3809 12.5182 11.6102 14.0234C11.8419 15.5421 12.1177 17.0909 12.5346 18.5627C13.1686 20.8034 13.5945 23.5028 15.4386 25.0318C15.3449 24.0153 15.5056 22.5276 15.2953 21.6842C14.9722 20.3829 14.1401 19.2046 13.7972 17.847C13.4109 16.3133 13.0527 14.7232 12.674 13.1688Z" fill="#DCC06D"/>
<path d="M47.8562 10.7464C47.8562 9.62053 48.5093 7.76226 47.5529 6.91326C46.5212 8.57951 47.1468 10.7369 47.0378 12.5984C46.9487 14.1456 46.9334 15.7785 46.6271 17.2797C46.0396 20.1282 43.9715 22.3673 43.6232 25.1809C44.3776 24.0153 45.6753 23.4552 46.3954 22.3935C47.0523 21.4231 47.8989 18.8666 47.9995 17.7042C48.1915 15.5071 47.8562 12.9951 47.8562 10.7464Z" fill="#DCC06D"/>
<path d="M9.80883 17.5939C10.0382 19.0991 10.2081 20.6622 10.1495 22.1888C10.1106 23.1973 9.55965 25.0857 9.98638 26.0315C9.38438 24.6953 9.25865 23.8249 9.43086 22.3872C10.1769 16.1752 5.28017 11.0003 6.05667 4.80347C7.8855 5.73657 8.68791 9.20396 9.01024 11.0924C9.3783 13.249 9.48116 15.4357 9.80883 17.5939Z" fill="#DCC06D"/>
<path d="M52.6249 3.94416C51.4636 4.75428 51.3264 8.12963 51.0323 9.44041C50.4654 11.9699 49.9045 14.5272 49.8999 17.1369C49.8969 18.8301 50.7671 20.1623 51.0955 21.7786C51.3714 18.6849 51.6716 15.7722 51.6716 12.6047C51.6716 10.3219 51.808 8.27007 52.3864 6.06903C52.4908 5.67072 52.945 2.91981 52.2157 4.0854" fill="#DCC06D"/>
<path d="M33.4412 33.5812C34.5202 33.34 35.3668 34.1406 36.2363 34.7285C36.0183 34.4159 35.8156 34.0835 35.6419 33.747C36.2256 34.1136 36.8786 34.5389 37.4829 34.8563C36.8847 33.7272 35.3409 33.3559 34.5042 32.3164C33.8893 31.5539 33.586 30.9065 33.5692 29.9258C33.6881 29.902 33.7955 29.9028 33.9106 29.8837C33.7871 29.9044 32.76 28.1746 32.638 27.9747C32.5809 28.3801 32.8118 33.7224 33.4412 33.5812Z" fill="#DCC06D"/>
<path d="M42.1495 30.8335C41.7594 32.2173 41.2099 33.39 40.3809 33.4336C41.0095 31.0168 42.3453 28.8713 43.067 26.5449C42.8513 27.2415 42.612 29.1863 42.1495 30.8335Z" fill="#DCC06D"/>
<path d="M44.3144 29.9059C44.7838 28.7411 46.2072 28.0881 47.0462 27.2447C47.9416 26.3433 48.8735 25.2492 49.4999 24.1399C49.0701 25.4475 48.2281 26.7496 47.3175 27.7747C46.2827 28.9403 44.7876 29.3846 43.7703 30.6153" fill="#DCC06D"/>
<path d="M20.1509 28.3143C20.0854 27.524 20.0884 26.6139 19.8895 25.8625C19.4209 26.0442 19.4879 26.4179 19.5885 26.8408C19.7089 27.3431 20.1067 27.789 20.1509 28.3143Z" fill="#DCC06D"/>
<path d="M40.6895 26.0045C39.9907 26.1013 40.022 27.4994 40.0738 28.1008C40.2071 27.5351 41.0149 26.4385 40.5874 26.0045" fill="#DCC06D"/>
<path d="M17.9014 25.1532C17.9776 25.2809 18.0691 25.3928 18.1773 25.4896C17.9395 25.9077 18.3823 26.4687 18.5705 26.8496C18.4607 26.3394 18.4295 25.4983 18.0035 25.2595" fill="#DCC06D"/>
<path d="M23.5213 26.6433C23.6585 27.04 23.8703 27.3423 24.2261 27.52C23.6905 28.0477 24.5477 29.9028 24.9112 30.486C24.2307 29.825 23.4222 27.5922 23.5144 26.5687C23.6394 26.7194 23.7507 26.8956 23.8284 27.0686" fill="#DCC06D"/>
<path d="M36.2949 27.2804C36.5502 27.0511 36.8032 26.8385 37.0989 26.6798C37.0371 26.8956 36.9952 27.2272 36.8992 27.4542C36.9167 27.4129 36.9472 27.397 36.9914 27.4058C36.8032 27.889 36.9411 28.5428 37.1065 28.9514C37.4951 28.204 37.9173 27.374 38.4248 26.6774C37.9676 27.5986 37.3084 28.5872 37.0851 29.6132C37.0676 29.583 37.0219 29.4783 36.9861 29.4188C36.7765 29.6512 36.6234 29.9893 36.5959 30.3423C36.7537 29.8369 37.0996 28.6047 36.7811 28.1738C36.7255 28.2199 36.6721 28.2667 36.6203 28.3151C36.5959 28.1651 36.5959 28.0643 36.5068 27.9429C36.3993 28.1183 36.1639 28.2992 36.0839 28.5198C36.1989 28.0707 36.2805 27.6398 36.1913 27.1741" fill="#DCC06D"/>
<path d="M26.4848 27.4946C26.737 27.0963 26.9884 26.9392 27.1546 26.5211C27.1492 26.4846 27.0997 26.7583 27.1104 26.7305C27.2277 26.6956 27.4723 26.6758 27.5927 26.6528C27.3405 27.7001 27.3862 28.8443 27.2247 29.7869C27.1584 28.9324 26.8307 28.1357 26.7911 27.2804" fill="#DCC06D"/>
<path d="M30.2666 26.9622C29.5892 27.2225 30.054 28.273 30.0845 28.876C30.2971 28.3762 30.1638 27.5454 30.1638 26.9622" fill="#DCC06D"/>
<path d="M33.128 27.0686C33.3825 27.1479 33.5715 27.2169 33.6264 27.4764C33.5677 27.4867 33.5075 27.497 33.448 27.5073C33.4709 27.8025 33.5128 28.1286 33.5944 28.4198C33.2111 27.8112 32.8529 27.2082 33.1242 26.46C33.2011 26.7623 33.3353 27.0495 33.5357 27.2812" fill="#DCC06D"/>
<path d="M46.906 3.89021L46.7907 3.72676L46.7906 3.72685L46.906 3.89021ZM45.9779 6.39037L45.7781 6.40023L45.7781 6.40036L45.9779 6.39037ZM46.2187 15.6571L46.4178 15.6757L46.4178 15.6757L46.2187 15.6571ZM19.273 23.6408L19.2166 23.8327L19.2166 23.8327L19.273 23.6408ZM12.703 10.6425L12.5044 10.6665L12.5044 10.6666L12.703 10.6425ZM11.6979 5.11212L11.8711 5.01215L11.871 5.012L11.6979 5.11212ZM7.48925 1.25197L7.5423 1.05914L7.54221 1.05911L7.48925 1.25197ZM6.05743 11.3352L6.25052 11.2831L6.25046 11.2828L6.05743 11.3352ZM8.33889 19.6696L8.14353 19.7124L8.14355 19.7125L8.33889 19.6696ZM10.7956 28.473L10.9305 28.3252L10.9304 28.3252L10.7956 28.473ZM15.1178 31.1612L15.2251 30.9924L15.225 30.9924L15.1178 31.1612ZM20.2263 34.3889L20.1253 34.5615L20.1253 34.5616L20.2263 34.3889ZM24.0044 36.1576L24.0416 35.9611L24.0415 35.961L24.0044 36.1576ZM32.1869 35.9846L32.1915 36.1845L32.1915 36.1845L32.1869 35.9846ZM36.0077 35.9885L35.9841 36.1872L35.9841 36.1872L36.0077 35.9885ZM39.1289 35.8814L39.0696 35.6904L39.0696 35.6904L39.1289 35.8814ZM44.546 31.6174L44.7019 31.7427L44.7019 31.7427L44.546 31.6174ZM50.7694 23.6162L50.9555 23.6896L50.9555 23.6894L50.7694 23.6162ZM52.0321 19.5855L51.8328 19.5679L51.8328 19.568L52.0321 19.5855ZM52.3712 15.9626L52.5663 16.0065L52.5663 16.0064L52.3712 15.9626ZM53.3427 6.60699L53.5418 6.62655L53.5418 6.62646L53.3427 6.60699ZM53.6917 2.23506L53.8871 2.19224L53.8871 2.1922L53.6917 2.23506ZM51.6092 1.53286L51.6568 1.7271L51.657 1.72705L51.6092 1.53286ZM12.674 13.1688L12.4797 13.2162L12.4797 13.2162L12.674 13.1688ZM11.7565 8.67155L11.9168 8.55188L11.7509 8.32978L11.5924 8.55721L11.7565 8.67155ZM11.6102 14.0234L11.4125 14.0535L11.4125 14.0536L11.6102 14.0234ZM12.5346 18.5627L12.727 18.5083L12.727 18.5082L12.5346 18.5627ZM15.4386 25.0318L15.3109 25.1857L15.682 25.4934L15.6377 25.0134L15.4386 25.0318ZM15.2953 21.6842L15.1012 21.7324L15.1013 21.7326L15.2953 21.6842ZM13.7972 17.847L13.6033 17.8959L13.6033 17.896L13.7972 17.847ZM47.5529 6.91326L47.6857 6.7637L47.508 6.60593L47.3829 6.80797L47.5529 6.91326ZM47.0378 12.5984L46.8382 12.5867L46.8382 12.5868L47.0378 12.5984ZM46.6271 17.2797L46.823 17.3201L46.8231 17.3197L46.6271 17.2797ZM43.6232 25.1809L43.4247 25.1564L43.7911 25.2896L43.6232 25.1809ZM46.3954 22.3935L46.561 22.5058L46.5611 22.5056L46.3954 22.3935ZM47.9995 17.7042L47.8003 17.6868L47.8002 17.687L47.9995 17.7042ZM9.80883 17.5939L9.61109 17.624L9.61111 17.6241L9.80883 17.5939ZM10.1495 22.1888L10.3493 22.1965L10.3493 22.1965L10.1495 22.1888ZM9.98638 26.0315L9.80407 26.1138L10.1687 25.9494L9.98638 26.0315ZM9.43086 22.3872L9.23229 22.3633L9.23228 22.3634L9.43086 22.3872ZM6.05667 4.80347L6.14756 4.62532L5.89366 4.49577L5.85822 4.7786L6.05667 4.80347ZM9.01024 11.0924L9.20739 11.0587L9.20739 11.0587L9.01024 11.0924ZM51.0323 9.44041L50.8372 9.39662L50.8371 9.39667L51.0323 9.44041ZM49.8999 17.1369L50.0999 17.1373L50.0999 17.1373L49.8999 17.1369ZM51.0955 21.7786L50.8996 21.8184L51.2948 21.7964L51.0955 21.7786ZM52.3864 6.06903L52.5798 6.11986L52.5799 6.11974L52.3864 6.06903ZM33.4412 33.5812L33.3976 33.386L33.3974 33.3861L33.4412 33.5812ZM36.2363 34.7285L36.1242 34.8942L36.4003 34.6142L36.2363 34.7285ZM35.6419 33.747L35.7483 33.5777L35.1282 33.1883L35.4642 33.8388L35.6419 33.747ZM37.4829 34.8563L37.3899 35.0334L37.9623 35.334L37.6597 34.7627L37.4829 34.8563ZM34.5042 32.3164L34.66 32.191L34.6599 32.1909L34.5042 32.3164ZM33.5692 29.9258L33.5299 29.7297L33.3664 29.7624L33.3692 29.9292L33.5692 29.9258ZM33.9106 29.8837L33.9436 30.081L33.8779 29.6864L33.9106 29.8837ZM32.638 27.9747L32.8088 27.8706L32.518 27.3936L32.44 27.9468L32.638 27.9747ZM42.1495 30.8335L42.342 30.8878L42.3421 30.8876L42.1495 30.8335ZM40.3809 33.4336L40.1873 33.3833L40.1185 33.6477L40.3914 33.6334L40.3809 33.4336ZM43.067 26.5449L43.258 26.604L42.8759 26.4856L43.067 26.5449ZM47.0462 27.2447L47.188 27.3857L47.1881 27.3856L47.0462 27.2447ZM49.4999 24.1399L49.6899 24.2024L49.3257 24.0416L49.4999 24.1399ZM47.3175 27.7747L47.168 27.6419L47.1679 27.6419L47.3175 27.7747ZM20.1509 28.3143L19.9516 28.331L20.3502 28.2977L20.1509 28.3143ZM19.8895 25.8625L20.0829 25.8113L20.0257 25.5952L19.8172 25.676L19.8895 25.8625ZM19.5885 26.8408L19.3939 26.8871L19.394 26.8875L19.5885 26.8408ZM40.0738 28.1008L39.8745 28.118L40.2684 28.1467L40.0738 28.1008ZM18.1773 25.4896L18.3511 25.5884L18.4309 25.4481L18.3106 25.3405L18.1773 25.4896ZM18.5705 26.8496L18.3912 26.9382L18.766 26.8075L18.5705 26.8496ZM24.2261 27.52L24.3665 27.6625L24.5659 27.4661L24.3155 27.3411L24.2261 27.52ZM24.9112 30.486L24.7719 30.6294L25.0809 30.3802L24.9112 30.486ZM23.5144 26.5687L23.6684 26.441L23.3588 26.0675L23.3152 26.5507L23.5144 26.5687ZM37.0989 26.6798L37.2912 26.7348L37.4213 26.2797L37.0043 26.5035L37.0989 26.6798ZM36.8992 27.4542L36.715 27.3762L37.0833 27.5324L36.8992 27.4542ZM36.9914 27.4058L37.1778 27.4784L37.2645 27.2558L37.0302 27.2096L36.9914 27.4058ZM37.1065 28.9514L36.9211 29.0264L37.0838 29.4286L37.2839 29.0437L37.1065 28.9514ZM38.4248 26.6774L38.6039 26.7663L38.2631 26.5596L38.4248 26.6774ZM37.0851 29.6132L36.9122 29.7137L37.1711 30.1589L37.2806 29.6557L37.0851 29.6132ZM36.9861 29.4188L37.1575 29.3156L37.0183 29.0844L36.8375 29.2849L36.9861 29.4188ZM36.5959 30.3423L36.3965 30.3268L36.7869 30.4019L36.5959 30.3423ZM36.7811 28.1738L36.9419 28.0549L36.8164 27.8851L36.6536 28.0197L36.7811 28.1738ZM36.6203 28.3151L36.4229 28.3472L36.483 28.717L36.7568 28.4612L36.6203 28.3151ZM36.5068 27.9429L36.668 27.8246L36.4918 27.5846L36.3363 27.8384L36.5068 27.9429ZM36.0839 28.5198L35.8901 28.4701L36.2719 28.588L36.0839 28.5198ZM27.1546 26.5211L27.3404 26.5949L27.3602 26.5451L27.3525 26.4921L27.1546 26.5211ZM27.1104 26.7305L27.0533 26.5388L26.959 26.5669L26.9237 26.6588L27.1104 26.7305ZM27.5927 26.6528L27.7872 26.6996L27.8598 26.3981L27.5552 26.4563L27.5927 26.6528ZM27.2247 29.7869L27.0253 29.8024L27.4218 29.8207L27.2247 29.7869ZM30.0845 28.876L29.8848 28.8861L30.2686 28.9543L30.0845 28.876ZM33.6264 27.4764L33.661 27.6734L33.8649 27.6375L33.822 27.435L33.6264 27.4764ZM33.448 27.5073L33.4138 27.3103L33.2346 27.3414L33.2486 27.5228L33.448 27.5073ZM33.5944 28.4198L33.4251 28.5264L33.7869 28.3659L33.5944 28.4198ZM33.1242 26.46L33.318 26.4106L33.1577 25.7809L32.9362 26.3918L33.1242 26.46ZM46.906 3.89021L46.7906 3.72685C46.2464 4.11125 45.9529 4.42956 45.8262 4.85566C45.7646 5.06259 45.7458 5.28386 45.745 5.53168C45.7442 5.77788 45.7616 6.06479 45.7781 6.40023L45.9779 6.39037L46.1776 6.38051C46.1607 6.03675 46.1443 5.76547 46.145 5.53295C46.1457 5.30204 46.1637 5.12406 46.2096 4.96967C46.2978 4.67314 46.5018 4.42056 47.0214 4.05356L46.906 3.89021ZM45.9779 6.39037L45.7781 6.40036C45.9322 9.48009 46.3005 12.6234 46.0195 15.6386L46.2187 15.6571L46.4178 15.6757C46.7023 12.6225 46.3299 9.42293 46.1776 6.38038L45.9779 6.39037ZM46.2187 15.6571L46.0195 15.6385C45.7155 18.8972 44.4376 21.1563 42.5715 22.6851C40.6998 24.2185 38.2184 25.0318 35.4871 25.3587C30.0211 26.013 23.6242 24.7116 19.3295 23.449L19.273 23.6408L19.2166 23.8327C23.5288 25.1004 29.9879 26.4198 35.5346 25.7559C38.3095 25.4238 40.8736 24.5932 42.825 22.9945C44.7821 21.3912 46.1049 19.0297 46.4178 15.6757L46.2187 15.6571ZM19.273 23.6408L19.3295 23.449C16.8867 22.7306 15.4197 20.7166 14.4905 18.2628C13.561 15.8084 13.1853 12.9541 12.9015 10.6184L12.703 10.6425L12.5044 10.6666C12.7876 12.9972 13.1673 15.8982 14.1164 18.4045C15.0658 20.9113 16.6004 23.0633 19.2166 23.8327L19.273 23.6408ZM12.703 10.6425L12.9015 10.6184C12.8444 10.1474 12.8155 9.67688 12.7886 9.20407C12.7617 8.73317 12.7369 8.25872 12.6876 7.78948C12.589 6.849 12.3911 5.91319 11.8711 5.01215L11.6979 5.11212L11.5246 5.21209C12.0052 6.04474 12.194 6.918 12.2898 7.83122C12.3378 8.28884 12.3622 8.7524 12.3892 9.22682C12.4161 9.69934 12.4456 10.1814 12.5044 10.6665L12.703 10.6425ZM11.6979 5.11212L11.871 5.012C11.4448 4.27501 10.7837 3.40628 10.0242 2.66437C9.26814 1.92581 8.39513 1.29375 7.5423 1.05914L7.48925 1.25197L7.4362 1.44481C8.19275 1.65294 9.00722 2.23011 9.7447 2.9505C10.4787 3.66755 11.1172 4.50752 11.5247 5.21223L11.6979 5.11212ZM7.48925 1.25197L7.54221 1.05911C6.95305 0.897342 6.45537 0.909252 6.04587 1.08381C5.63503 1.25894 5.3408 1.58589 5.13674 1.99956C4.73465 2.81469 4.6599 4.01212 4.73458 5.25611C4.88475 7.75774 5.65216 10.6045 5.8644 11.3875L6.05743 11.3352L6.25046 11.2828C6.03749 10.4972 5.28125 7.68742 5.13386 5.23215C5.05975 3.99769 5.14274 2.89158 5.49547 2.17651C5.66883 1.82508 5.90128 1.58027 6.20272 1.45177C6.50549 1.32271 6.90568 1.29914 7.4363 1.44483L7.48925 1.25197ZM6.05743 11.3352L5.86434 11.3873C6.62174 14.1939 7.52425 16.8867 8.14353 19.7124L8.33889 19.6696L8.53426 19.6268C7.91297 16.792 6.99886 14.056 6.25052 11.2831L6.05743 11.3352ZM8.33889 19.6696L8.14355 19.7125C8.30134 20.4309 8.3877 21.2025 8.46486 21.9974C8.54166 22.7885 8.60947 23.6049 8.73091 24.3959C8.9738 25.9779 9.43681 27.5039 10.6608 28.6207L10.7956 28.473L10.9304 28.3252C9.80896 27.302 9.3648 25.8888 9.12628 24.3352C9.00702 23.5584 8.94057 22.758 8.86299 21.9587C8.78577 21.1632 8.69763 20.3706 8.53424 19.6267L8.33889 19.6696ZM10.7956 28.473L10.6608 28.6207C11.3051 29.2087 12.0442 29.6625 12.7927 30.0798C13.5479 30.5009 14.3013 30.8793 15.0105 31.33L15.1178 31.1612L15.225 30.9924C14.5032 30.5337 13.7223 30.1401 12.9875 29.7305C12.2461 29.3171 11.5397 28.8813 10.9305 28.3252L10.7956 28.473ZM15.1178 31.1612L15.0105 31.33C16.7064 32.4081 18.4097 33.557 20.1253 34.5615L20.2263 34.3889L20.3274 34.2164C18.62 33.2166 16.9338 32.0787 15.2251 30.9924L15.1178 31.1612ZM20.2263 34.3889L20.1253 34.5616C21.251 35.2204 22.6473 36.1048 23.9673 36.3541L24.0044 36.1576L24.0415 35.961C22.8072 35.7279 21.4847 34.8937 20.3274 34.2163L20.2263 34.3889ZM24.0044 36.1576L23.9671 36.3541C25.3031 36.6073 26.7048 36.5777 28.0949 36.4797C29.4952 36.381 30.8671 36.215 32.1915 36.1845L32.1869 35.9846L32.1823 35.7846C30.8473 35.8153 29.4378 35.9841 28.0667 36.0807C26.6854 36.1781 25.3255 36.2045 24.0416 35.9611L24.0044 36.1576ZM32.1869 35.9846L32.1915 36.1845C33.5158 36.1539 34.6983 36.0346 35.9841 36.1872L36.0077 35.9885L36.0312 35.7899C34.7079 35.633 33.4687 35.7549 32.1823 35.7846L32.1869 35.9846ZM36.0077 35.9885L35.9841 36.1872C37.082 36.3172 38.0779 36.4173 39.1882 36.0724L39.1289 35.8814L39.0696 35.6904C38.0492 36.0073 37.131 35.9202 36.0312 35.7899L36.0077 35.9885ZM39.1289 35.8814L39.1881 36.0724C41.4251 35.3784 43.2904 33.4982 44.7019 31.7427L44.546 31.6174L44.3902 31.4921C42.9868 33.2374 41.1852 35.034 39.0696 35.6904L39.1289 35.8814ZM44.546 31.6174L44.7019 31.7427C45.7587 30.4275 46.9723 29.2662 48.1179 27.9862C49.2538 26.7171 50.2983 25.3551 50.9555 23.6896L50.7694 23.6162L50.5834 23.5428C49.9519 25.1432 48.944 26.4635 47.8199 27.7194C46.7056 28.9644 45.4518 30.1707 44.3901 31.4921L44.546 31.6174ZM50.7694 23.6162L50.9555 23.6894C51.4681 22.386 52.1008 21.086 52.2313 19.603L52.0321 19.5855L51.8328 19.568C51.7089 20.9763 51.1116 22.1995 50.5833 23.543L50.7694 23.6162ZM52.0321 19.5855L52.2313 19.6031C52.2872 18.9705 52.3032 18.3611 52.3387 17.7776C52.3745 17.1884 52.4306 16.6098 52.5663 16.0065L52.3712 15.9626L52.176 15.9187C52.0336 16.5524 51.9758 17.1552 51.9394 17.7533C51.9027 18.357 51.8882 18.9405 51.8328 19.5679L52.0321 19.5855ZM52.3712 15.9626L52.5663 16.0064C53.2425 12.9969 53.2429 9.66764 53.5418 6.62655L53.3427 6.60699L53.1437 6.58742C52.8391 9.68607 52.8455 12.9393 52.176 15.9187L52.3712 15.9626ZM53.3427 6.60699L53.5418 6.62646C53.5994 6.03794 53.7446 5.25206 53.8508 4.42538C53.954 3.62179 54.0182 2.79027 53.8871 2.19224L53.6917 2.23506L53.4964 2.27788C53.6107 2.79941 53.5579 3.5659 53.454 4.37442C53.3531 5.15983 53.2012 6.00013 53.1437 6.58751L53.3427 6.60699ZM53.6917 2.23506L53.8871 2.1922C53.8215 1.89342 53.7084 1.66075 53.5448 1.49136C53.3798 1.32037 53.1772 1.22812 52.9592 1.18773C52.5396 1.10998 52.036 1.22173 51.5613 1.33866L51.6092 1.53286L51.657 1.72705C52.1486 1.60595 52.5662 1.52171 52.8863 1.58103C53.0382 1.60917 53.1601 1.66872 53.257 1.76916C53.3555 1.87121 53.4419 2.02961 53.4964 2.27791L53.6917 2.23506ZM51.6092 1.53286L51.5615 1.33861C49.8745 1.75223 48.1949 2.73663 46.7907 3.72676L46.906 3.89021L47.0213 4.05366C48.4122 3.07284 50.0428 2.1228 51.6568 1.7271L51.6092 1.53286ZM12.674 13.1688L12.8683 13.1215C12.7076 12.4614 12.6903 11.6512 12.6042 10.8117C12.5207 9.99635 12.3711 9.16026 11.9168 8.55188L11.7565 8.67155L11.5963 8.79122C11.9786 9.30319 12.1228 10.0381 12.2063 10.8525C12.2874 11.6428 12.3104 12.5211 12.4797 13.2162L12.674 13.1688ZM11.7565 8.67155L11.5924 8.55721C11.0917 9.27589 11.0022 10.2965 11.0524 11.2885C11.1029 12.2866 11.2994 13.3115 11.4125 14.0535L11.6102 14.0234L11.8079 13.9933C11.6916 13.2301 11.5011 12.2397 11.4519 11.2683C11.4025 10.291 11.5009 9.38831 11.9206 8.78589L11.7565 8.67155ZM11.6102 14.0234L11.4125 14.0536C11.6445 15.5746 11.9219 17.1332 12.3421 18.6172L12.5346 18.5627L12.727 18.5082C12.3136 17.0485 12.0392 15.5095 11.8079 13.9932L11.6102 14.0234ZM12.5346 18.5627L12.3421 18.6172C12.654 19.7197 12.9255 20.9781 13.3448 22.1324C13.7666 23.2938 14.3498 24.3888 15.3109 25.1857L15.4386 25.0318L15.5662 24.8778C14.6833 24.1457 14.1314 23.1266 13.7208 21.9959C13.3075 20.8581 13.0491 19.6465 12.727 18.5083L12.5346 18.5627ZM15.4386 25.0318L15.6377 25.0134C15.592 24.5177 15.6085 23.9067 15.6107 23.2938C15.6128 22.6937 15.6016 22.0857 15.4894 21.6358L15.2953 21.6842L15.1013 21.7326C15.1994 22.1261 15.2129 22.6837 15.2107 23.2924C15.2085 23.8883 15.1914 24.5294 15.2394 25.0501L15.4386 25.0318ZM15.2953 21.6842L15.4894 21.636C15.3224 20.9634 15.0247 20.3259 14.7351 19.7025C14.4426 19.0729 14.1572 18.4557 13.9911 17.7981L13.7972 17.847L13.6033 17.896C13.7801 18.596 14.0823 19.2467 14.3723 19.871C14.6652 20.5014 14.9451 21.1037 15.1012 21.7324L15.2953 21.6842ZM13.7972 17.847L13.9912 17.7982C13.6047 16.2639 13.2485 14.6821 12.8683 13.1215L12.674 13.1688L12.4797 13.2162C12.8569 14.7644 13.2171 16.3627 13.6033 17.8959L13.7972 17.847ZM47.8562 10.7464H48.0562C48.0562 10.4805 48.095 10.1663 48.1416 9.81843C48.1874 9.47558 48.2404 9.10284 48.2628 8.73827C48.3069 8.02062 48.2394 7.25527 47.6857 6.7637L47.5529 6.91326L47.4202 7.06283C47.8228 7.42025 47.9069 8.00854 47.8636 8.71374C47.8423 9.0606 47.7918 9.4166 47.7451 9.76537C47.6991 10.1091 47.6562 10.4495 47.6562 10.7464H47.8562ZM47.5529 6.91326L47.3829 6.80797C46.8365 7.69035 46.7354 8.6933 46.7494 9.68543C46.7563 10.1811 46.7925 10.6846 46.8195 11.1702C46.8467 11.6592 46.8647 12.1334 46.8382 12.5867L47.0378 12.5984L47.2375 12.61C47.2654 12.1325 47.2461 11.639 47.2189 11.148C47.1914 10.6535 47.1561 10.1645 47.1493 9.67979C47.1357 8.7113 47.2376 7.80242 47.723 7.01855L47.5529 6.91326ZM47.0378 12.5984L46.8382 12.5868C46.7482 14.1482 46.7337 15.7572 46.4311 17.2397L46.6271 17.2797L46.8231 17.3197C47.1332 15.7999 47.1492 14.143 47.2375 12.6099L47.0378 12.5984ZM46.6271 17.2797L46.4312 17.2393C46.1438 18.6327 45.494 19.8795 44.8566 21.154C44.2237 22.4193 43.6036 23.711 43.4247 25.1564L43.6232 25.1809L43.8217 25.2055C43.9911 23.8372 44.5792 22.6026 45.2143 21.3329C45.8448 20.0723 46.5228 18.7753 46.823 17.3201L46.6271 17.2797ZM43.6232 25.1809L43.7911 25.2896C44.1492 24.7363 44.6386 24.3227 45.1492 23.9027C45.652 23.4892 46.1815 23.0652 46.561 22.5058L46.3954 22.3935L46.2299 22.2813C45.8892 22.7835 45.4099 23.1704 44.8951 23.5938C44.3883 24.0107 43.8516 24.46 43.4553 25.0723L43.6232 25.1809ZM46.3954 22.3935L46.5611 22.5056C46.9054 21.997 47.2881 21.0938 47.5955 20.185C47.9033 19.2749 48.1464 18.327 48.1987 17.7215L47.9995 17.7042L47.8002 17.687C47.752 18.2439 47.5215 19.1554 47.2166 20.0568C46.9113 20.9594 46.5424 21.8197 46.2298 22.2814L46.3954 22.3935ZM47.9995 17.7042L48.1987 17.7216C48.296 16.6083 48.2595 15.4192 48.1996 14.2346C48.1395 13.0452 48.0562 11.864 48.0562 10.7464H47.8562H47.6562C47.6562 11.8775 47.7406 13.0767 47.8001 14.2548C47.8599 15.4376 47.895 16.603 47.8003 17.6868L47.9995 17.7042ZM9.80883 17.5939L9.61111 17.6241C9.83978 19.1247 10.0076 20.6732 9.9496 22.1811L10.1495 22.1888L10.3493 22.1965C10.4087 20.6512 10.2366 19.0736 10.0065 17.5638L9.80883 17.5939ZM10.1495 22.1888L9.9496 22.1811C9.94037 22.4207 9.90036 22.7175 9.84981 23.0518C9.79988 23.382 9.73991 23.7473 9.69485 24.1089C9.64973 24.4711 9.61833 24.8385 9.62642 25.1787C9.63447 25.5168 9.68171 25.8426 9.80407 26.1138L9.98638 26.0315L10.1687 25.9493C10.0777 25.7476 10.0338 25.4826 10.0263 25.1691C10.0189 24.8577 10.0477 24.5126 10.0918 24.1584C10.136 23.8037 10.1944 23.4486 10.2453 23.1116C10.2957 22.7786 10.3391 22.4612 10.3493 22.1965L10.1495 22.1888ZM9.98638 26.0315L10.1687 25.9494C9.87232 25.2915 9.6976 24.758 9.61605 24.2176C9.5345 23.6771 9.54459 23.1194 9.62945 22.411L9.43086 22.3872L9.23228 22.3634C9.14492 23.0927 9.13178 23.6891 9.22053 24.2773C9.3093 24.8655 9.49844 25.4354 9.80403 26.1137L9.98638 26.0315ZM9.43086 22.3872L9.62944 22.411C10.009 19.2501 8.95136 16.3585 7.92031 13.5214C6.88373 10.6691 5.87382 7.87131 6.25512 4.82834L6.05667 4.80347L5.85822 4.7786C5.46302 7.93249 6.51322 10.8206 7.54436 13.658C8.58103 16.5105 9.59869 19.3124 9.23229 22.3633L9.43086 22.3872ZM6.05667 4.80347L5.96577 4.98162C6.80953 5.41212 7.44493 6.44897 7.91175 7.66154C8.37426 8.86294 8.65279 10.1869 8.81309 11.126L9.01024 11.0924L9.20739 11.0587C9.04536 10.1095 8.76152 8.7555 8.28504 7.51782C7.81286 6.29132 7.13264 5.12792 6.14756 4.62532L6.05667 4.80347ZM9.01024 11.0924L8.81309 11.126C8.99589 12.1971 9.11305 13.277 9.22575 14.3632C9.33825 15.4475 9.44639 16.5391 9.61109 17.624L9.80883 17.5939L10.0066 17.5639C9.8436 16.4905 9.73647 15.4097 9.62361 14.3219C9.51095 13.2361 9.39265 12.1443 9.20739 11.0587L9.01024 11.0924ZM52.6249 3.94416L52.5105 3.78013C52.1722 4.01612 51.9276 4.42279 51.7419 4.88596C51.5543 5.35382 51.4162 5.90674 51.3071 6.46626C51.1978 7.02666 51.1162 7.6018 51.0439 8.11464C50.971 8.63175 50.9085 9.07875 50.8372 9.39662L51.0323 9.44041L51.2274 9.4842C51.3032 9.14668 51.3681 8.68022 51.44 8.17047C51.5124 7.65646 51.5928 7.09137 51.6997 6.54281C51.8068 5.99338 51.9392 5.46865 52.1131 5.03482C52.289 4.5963 52.497 4.27726 52.7393 4.10819L52.6249 3.94416ZM51.0323 9.44041L50.8371 9.39667C50.2708 11.9234 49.7046 14.5016 49.6999 17.1366L49.8999 17.1369L50.0999 17.1373C50.1045 14.5529 50.6599 12.0165 51.2275 9.48415L51.0323 9.44041ZM49.8999 17.1369L49.6999 17.1365C49.6984 18.0176 49.9243 18.7998 50.1844 19.552C50.4471 20.3117 50.7388 21.0275 50.8996 21.8184L51.0955 21.7786L51.2915 21.7388C51.1238 20.9134 50.8162 20.155 50.5625 19.4213C50.3061 18.68 50.0985 17.9494 50.0999 17.1373L49.8999 17.1369ZM51.0955 21.7786L51.2948 21.7964C51.5703 18.7065 51.8716 15.7832 51.8716 12.6047H51.6716H51.4716C51.4716 15.7611 51.1725 18.6633 50.8963 21.7608L51.0955 21.7786ZM51.6716 12.6047H51.8716C51.8716 10.3302 52.0076 8.29747 52.5798 6.11986L52.3864 6.06903L52.193 6.0182C51.6084 8.24266 51.4716 10.3137 51.4716 12.6047H51.6716ZM52.3864 6.06903L52.5799 6.11974C52.6357 5.90683 52.7772 5.10647 52.8133 4.50271C52.8224 4.35074 52.8252 4.20584 52.8173 4.08294C52.81 3.97026 52.7924 3.84118 52.7376 3.74697C52.7075 3.69529 52.6518 3.6299 52.5586 3.60719C52.4658 3.58458 52.3851 3.61624 52.3311 3.64981C52.2313 3.71184 52.1381 3.83237 52.0462 3.97932L52.2157 4.0854L52.3853 4.19148C52.4756 4.04703 52.5277 3.99855 52.5423 3.98948C52.5455 3.9875 52.5142 4.00808 52.4639 3.99581C52.413 3.98343 52.3928 3.9498 52.3919 3.94822C52.3912 3.94699 52.3971 3.95772 52.4037 3.98948C52.4098 4.01926 52.4149 4.05885 52.4181 4.10863C52.4245 4.20828 52.4226 4.33486 52.414 4.4788C52.3793 5.05867 52.2415 5.83291 52.1929 6.01832L52.3864 6.06903ZM33.4412 33.5812L33.4848 33.7764C33.9606 33.67 34.3917 33.7896 34.823 34.0203C35.2669 34.2577 35.6688 34.5862 36.1242 34.8942L36.2363 34.7285L36.3483 34.5629C35.9343 34.2829 35.4782 33.9171 35.0116 33.6676C34.5326 33.4113 34.0008 33.2512 33.3976 33.386L33.4412 33.5812ZM36.2363 34.7285L36.4003 34.6142C36.187 34.3082 35.989 33.9833 35.8196 33.6553L35.6419 33.747L35.4642 33.8388C35.6423 34.1837 35.8496 34.5236 36.0722 34.8429L36.2363 34.7285ZM35.6419 33.747L35.5355 33.9164C36.1144 34.28 36.7768 34.7113 37.3899 35.0334L37.4829 34.8563L37.5759 34.6792C36.9805 34.3665 36.3368 33.9473 35.7483 33.5777L35.6419 33.747ZM37.4829 34.8563L37.6597 34.7627C37.3331 34.1462 36.7535 33.7465 36.1913 33.3846C35.6138 33.0129 35.0531 32.6794 34.66 32.191L34.5042 32.3164L34.3484 32.4419C34.792 32.9929 35.4216 33.3648 35.9748 33.7209C36.5431 34.0868 37.0346 34.4373 37.3062 34.9499L37.4829 34.8563ZM34.5042 32.3164L34.6599 32.1909C34.0656 31.454 33.785 30.8482 33.7692 29.9224L33.5692 29.9258L33.3692 29.9292C33.3869 30.9648 33.713 31.6539 34.3485 32.442L34.5042 32.3164ZM33.5692 29.9258L33.6085 30.1219C33.6567 30.1122 33.7041 30.1072 33.7596 30.1021C33.8128 30.0972 33.8769 30.092 33.9433 30.081L33.9106 29.8837L33.8779 29.6864C33.8292 29.6945 33.7821 29.6984 33.723 29.7038C33.6664 29.709 33.6006 29.7155 33.5299 29.7297L33.5692 29.9258ZM33.9106 29.8837L33.8776 29.6865C33.9327 29.6772 33.9727 29.6954 33.983 29.7003C33.9905 29.704 33.9958 29.7073 33.9985 29.7091C34.0013 29.7109 34.0028 29.7122 34.003 29.7123C34.0031 29.7124 34.0007 29.7104 33.9954 29.7051C33.9903 29.7 33.9838 29.693 33.9758 29.6839C33.9425 29.6459 33.8964 29.5859 33.8398 29.5063C33.7275 29.3485 33.5861 29.1317 33.4428 28.9051C33.1565 28.452 32.8714 27.9732 32.8088 27.8706L32.638 27.9747L32.4673 28.0788C32.5266 28.1761 32.8161 28.6622 33.1047 29.1188C33.2489 29.3469 33.395 29.5712 33.5139 29.7382C33.5728 29.821 33.6282 29.8943 33.6752 29.9478C33.698 29.9738 33.7242 30.0013 33.7516 30.0234C33.7651 30.0343 33.785 30.049 33.8098 30.0609C33.8313 30.0712 33.8807 30.0915 33.9436 30.081L33.9106 29.8837ZM32.638 27.9747L32.44 27.9468C32.4303 28.0156 32.4283 28.1602 32.4303 28.34C32.4324 28.5273 32.4393 28.7708 32.4511 29.05C32.4746 29.6085 32.518 30.3134 32.583 31.0018C32.6479 31.6882 32.7349 32.3656 32.847 32.8656C32.9025 33.1132 32.9671 33.3311 33.0446 33.4867C33.0829 33.5635 33.1317 33.6406 33.1967 33.697C33.2668 33.7578 33.3674 33.8028 33.485 33.7764L33.4412 33.5812L33.3974 33.3861C33.4363 33.3773 33.4614 33.3971 33.4589 33.3949C33.4514 33.3884 33.4308 33.3649 33.4026 33.3083C33.3473 33.1972 33.291 33.0177 33.2373 32.778C33.1308 32.3034 33.0457 31.6463 32.9813 30.9641C32.917 30.2839 32.874 29.586 32.8507 29.0332C32.8391 28.7568 32.8323 28.5175 32.8303 28.3355C32.8282 28.1461 32.8315 28.0351 32.8361 28.0026L32.638 27.9747ZM42.1495 30.8335L41.957 30.7792C41.7636 31.4653 41.5346 32.0834 41.2594 32.5314C40.9805 32.9852 40.6844 33.2174 40.3704 33.2339L40.3809 33.4336L40.3914 33.6334C40.9064 33.6062 41.2995 33.2302 41.6002 32.7408C41.9044 32.2456 42.1453 31.5855 42.342 30.8878L42.1495 30.8335ZM40.3809 33.4336L40.5744 33.484C40.8841 32.2933 41.3689 31.1662 41.8718 30.0367C42.3726 28.9117 42.8929 27.7812 43.258 26.6041L43.067 26.5449L42.8759 26.4856C42.5194 27.6349 42.011 28.7404 41.5063 29.874C41.0037 31.003 40.5062 32.1571 40.1873 33.3833L40.3809 33.4336ZM43.067 26.5449L42.8759 26.4857C42.7635 26.8487 42.6469 27.5273 42.5042 28.2962C42.3596 29.0751 42.1856 29.9653 41.9569 30.7794L42.1495 30.8335L42.3421 30.8876C42.576 30.0545 42.7528 29.1486 42.8975 28.3692C43.044 27.5798 43.1547 26.9377 43.258 26.604L43.067 26.5449ZM44.3144 29.9059L44.4999 29.9807C44.7141 29.4491 45.1518 29.0217 45.6664 28.6112C46.1648 28.2137 46.7584 27.8177 47.188 27.3857L47.0462 27.2447L46.9044 27.1037C46.4951 27.5152 45.9575 27.8674 45.417 28.2985C44.8928 28.7165 44.384 29.198 44.1289 29.8312L44.3144 29.9059ZM47.0462 27.2447L47.1881 27.3856C48.0896 26.4781 49.0353 25.3694 49.674 24.2383L49.4999 24.1399L49.3257 24.0416C48.7117 25.1289 47.7935 26.2086 46.9043 27.1038L47.0462 27.2447ZM49.4999 24.1399L49.3099 24.0775C48.8909 25.3524 48.0658 26.6312 47.168 27.6419L47.3175 27.7747L47.467 27.9075C48.3904 26.868 49.2494 25.5426 49.6899 24.2024L49.4999 24.1399ZM47.3175 27.7747L47.1679 27.6419C46.6717 28.2009 46.0635 28.5891 45.4282 29.003C44.7996 29.4125 44.1467 29.846 43.6162 30.4879L43.7703 30.6153L43.9245 30.7427C44.4112 30.1539 45.0145 29.7499 45.6465 29.3382C46.2717 28.9309 46.9285 28.5141 47.4671 27.9075L47.3175 27.7747ZM20.1509 28.3143L20.3502 28.2977C20.2869 27.5342 20.2878 26.5854 20.0829 25.8113L19.8895 25.8625L19.6962 25.9137C19.8891 26.6424 19.8838 27.5138 19.9516 28.3308L20.1509 28.3143ZM19.8895 25.8625L19.8172 25.676C19.6771 25.7304 19.5635 25.8044 19.4793 25.9018C19.3942 26.0003 19.3484 26.1123 19.3285 26.2271C19.2911 26.4434 19.3455 26.6833 19.3939 26.8871L19.5885 26.8408L19.7831 26.7946C19.731 26.5755 19.7016 26.417 19.7226 26.2953C19.732 26.2412 19.751 26.1991 19.782 26.1633C19.8139 26.1263 19.8676 26.0855 19.9618 26.049L19.8895 25.8625ZM19.5885 26.8408L19.394 26.8875C19.461 27.1668 19.605 27.4297 19.7194 27.6584C19.8395 27.8985 19.933 28.1106 19.9516 28.331L20.1509 28.3143L20.3502 28.2975C20.3245 27.9927 20.1971 27.7192 20.0771 27.4794C19.9515 27.2283 19.8364 27.0171 19.783 26.7942L19.5885 26.8408ZM40.6895 26.0045L40.662 25.8064C40.4125 25.841 40.2372 25.9938 40.1207 26.1838C40.007 26.3691 39.9414 26.6004 39.9029 26.8304C39.8257 27.2921 39.8481 27.8118 39.8745 28.118L40.0738 28.1008L40.273 28.0837C40.2476 27.7884 40.2285 27.3084 40.2974 26.8964C40.332 26.6897 40.3863 26.5157 40.4617 26.3929C40.5342 26.2747 40.6171 26.2165 40.7169 26.2026L40.6895 26.0045ZM40.0738 28.1008L40.2684 28.1467C40.2964 28.028 40.3631 27.871 40.4518 27.6799C40.537 27.4964 40.641 27.2845 40.7257 27.0798C40.8102 26.8755 40.8844 26.6583 40.9052 26.456C40.9261 26.2521 40.895 26.0318 40.7299 25.8642L40.5874 26.0045L40.4449 26.1449C40.4935 26.1942 40.5217 26.2738 40.5073 26.4152C40.4926 26.5582 40.4367 26.7319 40.3561 26.9268C40.2757 27.1212 40.1794 27.3166 40.089 27.5114C40.0021 27.6986 39.9178 27.8908 39.8791 28.0549L40.0738 28.1008ZM17.9014 25.1532L17.7297 25.2556C17.8158 25.4 17.92 25.5278 18.0439 25.6386L18.1773 25.4896L18.3106 25.3405C18.2181 25.2578 18.1394 25.1618 18.0732 25.0507L17.9014 25.1532ZM18.1773 25.4896L18.0034 25.3907C17.835 25.6869 17.9211 26.0114 18.0307 26.2634C18.0876 26.394 18.1578 26.5209 18.2225 26.6343C18.2894 26.7516 18.3476 26.8499 18.3912 26.9382L18.5705 26.8496L18.7498 26.761C18.6993 26.6587 18.6315 26.5441 18.5699 26.4361C18.5061 26.3242 18.4452 26.2132 18.3975 26.1038C18.2982 25.8755 18.2818 25.7104 18.3511 25.5884L18.1773 25.4896ZM18.5705 26.8496L18.766 26.8075C18.74 26.6864 18.7185 26.5454 18.6929 26.3875C18.6679 26.2328 18.6393 26.0654 18.5998 25.905C18.5248 25.6 18.3953 25.2498 18.1013 25.085L18.0035 25.2595L17.9057 25.4339C18.0377 25.508 18.1369 25.6977 18.2114 26.0005C18.2467 26.144 18.2731 26.2974 18.2981 26.4515C18.3225 26.6022 18.3461 26.7576 18.3749 26.8916L18.5705 26.8496ZM23.5213 26.6433L23.3323 26.7086C23.4805 27.1374 23.72 27.4908 24.1368 27.699L24.2261 27.52L24.3155 27.3411C24.0206 27.1938 23.8364 26.9425 23.7103 26.5779L23.5213 26.6433ZM24.2261 27.52L24.0858 27.3775C23.8906 27.5698 23.8448 27.8571 23.8562 28.1324C23.868 28.415 23.9421 28.7339 24.041 29.0431C24.239 29.6621 24.5514 30.2867 24.7415 30.5917L24.9112 30.486L25.0809 30.3802C24.9076 30.102 24.6095 29.5074 24.422 28.9212C24.3281 28.6278 24.2656 28.3475 24.2559 28.1157C24.2459 27.8765 24.2938 27.7341 24.3665 27.6625L24.2261 27.52ZM24.9112 30.486L25.0505 30.3425C24.9023 30.1985 24.7357 29.9561 24.5693 29.6447C24.4046 29.3365 24.2464 28.9726 24.1113 28.5958C23.8377 27.8328 23.6716 27.0531 23.7136 26.5866L23.5144 26.5687L23.3152 26.5507C23.2651 27.1078 23.4571 27.9562 23.7348 28.7308C23.8753 29.1227 24.0411 29.5049 24.2165 29.8332C24.3903 30.1584 24.5799 30.443 24.7719 30.6294L24.9112 30.486ZM23.5144 26.5687L23.3605 26.6963C23.4747 26.8341 23.5761 26.995 23.646 27.1505L23.8284 27.0686L24.0108 26.9866C23.9252 26.7962 23.8041 26.6048 23.6684 26.441L23.5144 26.5687ZM36.2949 27.2804L36.4286 27.4292C36.6823 27.2013 36.9203 27.0026 37.1934 26.856L37.0989 26.6798L37.0043 26.5035C36.6861 26.6743 36.4182 26.9009 36.1613 27.1316L36.2949 27.2804ZM37.0989 26.6798L36.9066 26.6248C36.8734 26.7408 36.8448 26.8908 36.8165 27.0201C36.7864 27.158 36.7551 27.2815 36.715 27.3762L36.8992 27.4542L37.0834 27.5321C37.1393 27.3999 37.177 27.2441 37.2073 27.1055C37.2394 26.9583 37.2626 26.8345 37.2912 26.7348L37.0989 26.6798ZM36.8992 27.4542L37.0833 27.5324C37.0794 27.5415 37.0645 27.5693 37.0281 27.5884C36.992 27.6073 36.9613 27.6037 36.9527 27.602L36.9914 27.4058L37.0302 27.2096C36.9773 27.1991 36.9093 27.1991 36.8425 27.2341C36.7754 27.2692 36.7366 27.3256 36.7151 27.376L36.8992 27.4542ZM36.9914 27.4058L36.8051 27.3332C36.6948 27.6162 36.684 27.9365 36.7177 28.2294C36.7516 28.5243 36.8325 28.8074 36.9211 29.0264L37.1065 28.9514L37.2919 28.8764C37.2151 28.6868 37.1444 28.4387 37.115 28.1837C37.0855 27.9268 37.0998 27.6786 37.1778 27.4784L36.9914 27.4058ZM37.1065 28.9514L37.2839 29.0437C37.6749 28.2918 38.0897 27.477 38.5864 26.7951L38.4248 26.6774L38.2631 26.5596C37.7449 27.271 37.3154 28.1161 36.929 28.8592L37.1065 28.9514ZM38.4248 26.6774L38.2456 26.5885C38.1332 26.8149 38.008 27.0463 37.8783 27.2849C37.7491 27.5224 37.6154 27.767 37.489 28.0152C37.2366 28.5109 37.0068 29.0326 36.8897 29.5706L37.0851 29.6132L37.2806 29.6557C37.3867 29.1678 37.5982 28.6822 37.8454 28.1968C37.9689 27.9544 38.0997 27.715 38.2297 27.476C38.3591 27.238 38.4877 27.0004 38.6039 26.7663L38.4248 26.6774ZM37.0851 29.6132L37.2581 29.5126C37.2586 29.5135 37.2578 29.5123 37.2554 29.5076C37.2532 29.5033 37.2505 29.4978 37.2471 29.4908C37.2397 29.4757 37.2325 29.4605 37.2225 29.4398C37.2048 29.4033 37.1807 29.3543 37.1575 29.3156L36.9861 29.4188L36.8147 29.5219C36.8273 29.5427 36.844 29.5759 36.8624 29.6141C36.8706 29.6309 36.8803 29.6512 36.8875 29.6661C36.8944 29.6802 36.9036 29.6988 36.9122 29.7137L37.0851 29.6132ZM36.9861 29.4188L36.8375 29.2849C36.5986 29.5499 36.4274 29.9294 36.3965 30.3268L36.5959 30.3423L36.7953 30.3578C36.8193 30.0491 36.9544 29.7526 37.1346 29.5527L36.9861 29.4188ZM36.5959 30.3423L36.7869 30.4019C36.8666 30.1465 36.996 29.7009 37.0647 29.261C37.099 29.0413 37.1194 28.8159 37.1084 28.6126C37.0978 28.4143 37.0561 28.2094 36.9419 28.0549L36.7811 28.1738L36.6203 28.2927C36.6653 28.3537 36.6999 28.4644 36.709 28.6341C36.7179 28.7988 36.7016 28.9938 36.6695 29.1993C36.6054 29.6096 36.483 30.0328 36.405 30.2828L36.5959 30.3423ZM36.7811 28.1738L36.6536 28.0197C36.595 28.0682 36.5387 28.1177 36.4838 28.1689L36.6203 28.3151L36.7568 28.4612C36.8056 28.4157 36.8559 28.3715 36.9086 28.3279L36.7811 28.1738ZM36.6203 28.3151L36.8177 28.283C36.7977 28.1601 36.7932 27.9951 36.668 27.8246L36.5068 27.9429L36.3456 28.0613C36.3987 28.1336 36.3941 28.1702 36.4229 28.3472L36.6203 28.3151ZM36.5068 27.9429L36.3363 27.8384C36.294 27.9074 36.2277 27.9754 36.1341 28.0832C36.051 28.1788 35.9496 28.3033 35.8958 28.4516L36.0839 28.5198L36.2719 28.588C36.2981 28.5156 36.3544 28.4395 36.436 28.3456C36.5069 28.264 36.6121 28.1539 36.6773 28.0474L36.5068 27.9429ZM36.0839 28.5198L36.2776 28.5694C36.394 28.115 36.4856 27.6479 36.3877 27.1365L36.1913 27.1741L35.9949 27.2117C36.0753 27.6318 36.0038 28.0264 35.8901 28.4701L36.0839 28.5198ZM26.4848 27.4946L26.6537 27.6016C26.7715 27.4157 26.8851 27.2912 27.007 27.1416C27.128 26.9931 27.2466 26.8311 27.3404 26.5949L27.1546 26.5211L26.9687 26.4472C26.8964 26.6292 26.8062 26.7548 26.6969 26.889C26.5885 27.0221 26.4503 27.1752 26.3158 27.3876L26.4848 27.4946ZM27.1546 26.5211L27.3525 26.4921C27.3515 26.4852 27.348 26.4624 27.3362 26.4362C27.3305 26.4235 27.2819 26.319 27.1551 26.3177C27.0992 26.3171 27.0584 26.3395 27.0367 26.3549C27.0151 26.3702 27.0013 26.3865 26.9943 26.3955C26.9803 26.4134 26.9724 26.4298 26.9696 26.4359C26.9588 26.4589 26.9525 26.4839 26.9504 26.492C26.9435 26.5183 26.9362 26.5532 26.9301 26.5844C26.9239 26.6164 26.9181 26.6497 26.9143 26.6743C26.9127 26.6847 26.9105 26.7001 26.9095 26.7136C26.9093 26.7172 26.9088 26.7245 26.9089 26.7335C26.9089 26.7378 26.9092 26.7459 26.9104 26.756C26.9111 26.7617 26.9141 26.7878 26.9282 26.8177C26.9354 26.833 26.9524 26.8643 26.9873 26.8911C27.0285 26.9228 27.0837 26.9392 27.1411 26.93C27.1902 26.922 27.223 26.8982 27.2381 26.8855C27.2544 26.8718 27.2651 26.8583 27.2706 26.8508C27.2885 26.8265 27.2969 26.8028 27.2971 26.8023L27.1104 26.7305L26.9237 26.6588C26.9247 26.6563 26.9265 26.6515 26.9294 26.6456C26.9314 26.6412 26.9376 26.6284 26.9485 26.6137C26.9539 26.6064 26.9644 26.593 26.9807 26.5794C26.9957 26.5667 27.0284 26.543 27.0774 26.5351C27.1032 26.5309 27.1316 26.5316 27.1603 26.5391C27.1887 26.5467 27.2124 26.5596 27.231 26.5739C27.2658 26.6007 27.2828 26.6319 27.2899 26.647C27.2979 26.6639 27.3018 26.6784 27.3037 26.6865C27.3058 26.6954 27.3069 26.7028 27.3075 26.7077C27.3086 26.7172 27.3088 26.7247 27.3089 26.7283C27.309 26.7358 27.3086 26.7412 27.3085 26.7424C27.3082 26.7464 27.3081 26.7452 27.3097 26.7345C27.3125 26.7167 27.3173 26.689 27.3228 26.6606C27.3285 26.6314 27.3339 26.6065 27.3375 26.5926C27.3383 26.5895 27.3386 26.5884 27.3385 26.5889C27.3384 26.5892 27.3379 26.5906 27.3371 26.5929C27.3364 26.5948 27.3347 26.5994 27.3318 26.6055C27.3299 26.6097 27.3229 26.6246 27.3097 26.6414C27.3031 26.6499 27.2897 26.6658 27.2684 26.6809C27.2471 26.6961 27.2066 26.7183 27.151 26.7177C27.0911 26.7171 27.0448 26.6904 27.016 26.6631C26.9903 26.6388 26.9774 26.6135 26.9717 26.6008C26.9653 26.5867 26.9619 26.5747 26.9602 26.5678C26.9583 26.5602 26.9573 26.5541 26.9567 26.55L27.1546 26.5211ZM27.1104 26.7305L27.1674 26.9222C27.2084 26.91 27.2829 26.898 27.377 26.8854C27.4611 26.8741 27.5628 26.8621 27.6303 26.8492L27.5927 26.6528L27.5552 26.4563C27.5022 26.4665 27.4215 26.4759 27.3238 26.489C27.2361 26.5007 27.1297 26.5161 27.0533 26.5388L27.1104 26.7305ZM27.5927 26.6528L27.3983 26.606C27.2681 27.1466 27.2156 27.7085 27.1753 28.2441C27.1345 28.7855 27.1063 29.2939 27.0276 29.7531L27.2247 29.7869L27.4218 29.8207C27.5046 29.3373 27.5343 28.8023 27.5741 28.2741C27.6144 27.7401 27.6651 27.2063 27.7872 26.6996L27.5927 26.6528ZM27.2247 29.7869L27.4241 29.7714C27.3896 29.3263 27.287 28.8981 27.1928 28.489C27.0973 28.0748 27.0097 27.6783 26.9909 27.2711L26.7911 27.2804L26.5913 27.2897C26.6121 27.7378 26.7082 28.1673 26.803 28.5789C26.899 28.9956 26.9935 29.3929 27.0253 29.8024L27.2247 29.7869ZM30.2666 26.9622L30.1949 26.7755C29.9676 26.8629 29.8291 27.0234 29.7596 27.2194C29.6939 27.4048 29.6923 27.6139 29.711 27.8096C29.7298 28.007 29.772 28.2138 29.8087 28.3982C29.8467 28.5892 29.878 28.7528 29.8848 28.8861L30.0845 28.876L30.2843 28.8659C30.2758 28.6978 30.2376 28.5039 30.201 28.3202C30.1631 28.1299 30.1257 27.9447 30.1092 27.7716C30.0925 27.5967 30.0999 27.4567 30.1366 27.3531C30.1695 27.2601 30.227 27.1917 30.3384 27.1489L30.2666 26.9622ZM30.0845 28.876L30.2686 28.9543C30.3929 28.6619 30.4106 28.2915 30.4038 27.9464C30.4004 27.7706 30.3901 27.5926 30.381 27.4261C30.3718 27.2576 30.3638 27.1017 30.3638 26.9622H30.1638H29.9638C29.9638 27.1144 29.9724 27.281 29.9816 27.4479C29.9908 27.6168 30.0006 27.787 30.0039 27.9543C30.0106 28.2954 29.9887 28.5903 29.9005 28.7978L30.0845 28.876ZM33.128 27.0686L33.0685 27.2595C33.2003 27.3006 33.2814 27.3299 33.338 27.3693C33.3822 27.3999 33.4139 27.4382 33.4307 27.5178L33.6264 27.4764L33.822 27.435C33.784 27.2552 33.6937 27.1291 33.5661 27.0406C33.4509 26.9607 33.3102 26.9159 33.1875 26.8776L33.128 27.0686ZM33.6264 27.4764L33.5917 27.2794C33.5333 27.2897 33.4739 27.2999 33.4138 27.3103L33.448 27.5073L33.4822 27.7044C33.5411 27.6942 33.6021 27.6837 33.661 27.6734L33.6264 27.4764ZM33.448 27.5073L33.2486 27.5228C33.2719 27.8237 33.3152 28.1645 33.4018 28.4737L33.5944 28.4198L33.7869 28.3659C33.7105 28.0928 33.6699 27.7813 33.6474 27.4919L33.448 27.5073ZM33.5944 28.4198L33.7636 28.3132C33.3741 27.6948 33.0783 27.1734 33.3122 26.5281L33.1242 26.46L32.9362 26.3918C32.6276 27.243 33.048 27.9276 33.4251 28.5264L33.5944 28.4198ZM33.1242 26.46L32.9304 26.5093C33.0133 26.8351 33.1596 27.1522 33.3844 27.412L33.5357 27.2812L33.6869 27.1504C33.5109 26.9468 33.389 26.6895 33.318 26.4106L33.1242 26.46Z" fill="#967348" mask="url(#path-1-outside-1_8_66)"/>
</g>
<defs>
<filter id="filter0_d_8_66" x="0.708878" y="0.944962" width="57.2518" height="43.6062" filterUnits="userSpaceOnUse" color-interpolation-filters="sRGB">
<feFlood flood-opacity="0" result="BackgroundImageFix"/>
<feColorMatrix in="SourceAlpha" type="matrix" values="0 0 0 0 0 0 0 0 0 0 0 0 0 0 0 0 0 0 127 0" result="hardAlpha"/>
<feOffset dy="4"/>
<feGaussianBlur stdDeviation="2"/>
<feComposite in2="hardAlpha" operator="out"/>
<feColorMatrix type="matrix" values="0 0 0 0 0 0 0 0 0 0 0 0 0 0 0 0 0 0 0.25 0"/>
<feBlend mode="normal" in2="BackgroundImageFix" result="effect1_dropShadow_8_66"/>
<feBlend mode="normal" in="SourceGraphic" in2="effect1_dropShadow_8_66" result="shape"/>
</filter>
</defs>
</svg>
