<svg width="31" height="28" viewBox="0 0 31 28" fill="none" xmlns="http://www.w3.org/2000/svg">
<g id="Manubrium" filter="url(#filter0_d_8_29)">
<mask id="path-1-outside-1_8_29" maskUnits="userSpaceOnUse" x="3.33989" y="0.165405" width="24" height="20" fill="black">
<rect fill="white" x="3.33989" y="0.165405" width="24" height="20"/>
<path d="M11.0961 2.14523C10.4271 1.72152 9.95692 1.44223 9.18881 1.87863C7.79356 2.6697 6.99802 4.49701 5.93729 5.68719C4.26086 7.57005 6.06074 9.55051 4.6533 11.6024C3.52552 13.2464 5.72622 14.8587 6.75722 16.1981C7.46742 17.1224 7.83318 19.1553 9.28558 18.9886C10.1032 18.8958 10.7144 18.2769 11.5884 18.1698C12.5988 18.046 13.6207 18.1182 14.6334 18.0555C17.0117 17.908 21.5754 20.3446 22.8098 17.1756C23.2457 16.0584 23.8728 15.0666 24.5495 14.0518C25.3801 12.8076 25.0448 12.2308 25.1225 10.7804C25.1713 9.8798 25.2376 8.0247 26.1909 7.63988C25.8106 5.53326 23.8629 2.58956 22.1019 1.4573C20.9635 0.728115 20.2472 1.53982 19.2345 1.99605C18.128 2.49355 16.7914 2.99581 15.5806 3.13546C14.0322 3.31319 12.6735 3.12593 11.3545 2.30947C11.2645 2.25234 11.1792 2.19759 11.0961 2.14523Z"/>
<path d="M6.80294 4.83186C7.2068 6.62427 9.52638 4.08918 9.37169 2.74586C8.98763 3.12989 6.70844 5.1905 6.32134 4.9715"/>
<path d="M25.4212 5.17224C25.0882 5.04687 24.6006 4.56764 24.2622 4.37324C23.901 4.16615 23.5947 4.04792 23.2693 3.74721C22.6277 3.1545 22.1171 2.35549 21.6683 1.59933C21.1532 2.70778 22.2391 4.03523 22.9394 4.75648C23.3082 5.13654 23.8675 5.65942 24.4085 5.73162C24.4687 5.73956 25.5676 5.59991 25.3397 5.39679C25.2559 5.32141 25.1561 5.1643 25.0501 5.09369C25.1614 5.11194 25.3016 5.12622 25.4212 5.17224Z"/>
<path d="M16.4028 17.4565C16.9964 17.6509 17.9177 17.785 18.4214 17.3589C19.1544 19.2592 23.565 15.2721 22.1773 13.736C22.7268 12.6878 23.5391 11.6762 23.8728 10.5273C23.8286 11.8793 23.6076 13.5416 23.3333 14.877C22.1095 15.2904 22.1568 17.2303 21.0023 17.7096C20.2563 18.0206 18.4389 17.4636 17.4932 17.4557"/>
</mask>
<path d="M11.0961 2.14523C10.4271 1.72152 9.95692 1.44223 9.18881 1.87863C7.79356 2.6697 6.99802 4.49701 5.93729 5.68719C4.26086 7.57005 6.06074 9.55051 4.6533 11.6024C3.52552 13.2464 5.72622 14.8587 6.75722 16.1981C7.46742 17.1224 7.83318 19.1553 9.28558 18.9886C10.1032 18.8958 10.7144 18.2769 11.5884 18.1698C12.5988 18.046 13.6207 18.1182 14.6334 18.0555C17.0117 17.908 21.5754 20.3446 22.8098 17.1756C23.2457 16.0584 23.8728 15.0666 24.5495 14.0518C25.3801 12.8076 25.0448 12.2308 25.1225 10.7804C25.1713 9.8798 25.2376 8.0247 26.1909 7.63988C25.8106 5.53326 23.8629 2.58956 22.1019 1.4573C20.9635 0.728115 20.2472 1.53982 19.2345 1.99605C18.128 2.49355 16.7914 2.99581 15.5806 3.13546C14.0322 3.31319 12.6735 3.12593 11.3545 2.30947C11.2645 2.25234 11.1792 2.19759 11.0961 2.14523Z" fill="#F7DAA1"/>
<path d="M6.80294 4.83186C7.2068 6.62427 9.52638 4.08918 9.37169 2.74586C8.98763 3.12989 6.70844 5.1905 6.32134 4.9715" fill="#F9E3B7"/>
<path d="M25.4212 5.17224C25.0882 5.04687 24.6006 4.56764 24.2622 4.37324C23.901 4.16615 23.5947 4.04792 23.2693 3.74721C22.6277 3.1545 22.1171 2.35549 21.6683 1.59933C21.1532 2.70778 22.2391 4.03523 22.9394 4.75648C23.3082 5.13654 23.8675 5.65942 24.4085 5.73162C24.4687 5.73956 25.5676 5.59991 25.3397 5.39679C25.2559 5.32141 25.1561 5.1643 25.0501 5.09369C25.1614 5.11194 25.3016 5.12622 25.4212 5.17224Z" fill="#F9E3B7"/>
<path d="M16.4028 17.4565C16.9964 17.6509 17.9177 17.785 18.4214 17.3589C19.1544 19.2592 23.565 15.2721 22.1773 13.736C22.7268 12.6878 23.5391 11.6762 23.8728 10.5273C23.8286 11.8793 23.6076 13.5416 23.3333 14.877C22.1095 15.2904 22.1568 17.2303 21.0023 17.7096C20.2563 18.0206 18.4389 17.4636 17.4932 17.4557" fill="#F9E3B7"/>
<path d="M11.0961 2.14523L10.9249 2.41557L10.9255 2.41592L11.0961 2.14523ZM9.18881 1.87863L9.34664 2.157L9.34688 2.15686L9.18881 1.87863ZM5.93729 5.68719L5.6984 5.47428L5.6983 5.4744L5.93729 5.68719ZM4.6533 11.6024L4.91718 11.7834L4.91719 11.7834L4.6533 11.6024ZM6.75722 16.1981L7.01098 16.0031L7.0108 16.0029L6.75722 16.1981ZM9.28558 18.9886L9.24948 18.6707L9.24911 18.6707L9.28558 18.9886ZM11.5884 18.1698L11.5495 17.8522L11.5495 17.8522L11.5884 18.1698ZM14.6334 18.0555L14.6532 18.3749L14.6532 18.3749L14.6334 18.0555ZM22.8098 17.1756L22.5117 17.0593L22.5116 17.0594L22.8098 17.1756ZM24.5495 14.0518L24.2834 13.8741L24.2833 13.8743L24.5495 14.0518ZM25.1225 10.7804L24.803 10.7631L24.803 10.7632L25.1225 10.7804ZM26.1909 7.63988L26.3107 7.93661L26.552 7.83918L26.5058 7.58303L26.1909 7.63988ZM22.1019 1.4573L22.275 1.18813L22.2745 1.18783L22.1019 1.4573ZM19.2345 1.99605L19.3657 2.28791L19.3659 2.28781L19.2345 1.99605ZM15.5806 3.13546L15.6171 3.45337L15.6173 3.45335L15.5806 3.13546ZM11.3545 2.30947L11.1828 2.57959L11.186 2.58156L11.3545 2.30947ZM9.37169 2.74586L9.68959 2.70925L9.61381 2.05122L9.14542 2.51958L9.37169 2.74586ZM25.4212 5.17224L25.3085 5.47172L25.5361 4.87357L25.4212 5.17224ZM24.2622 4.37324L24.4216 4.09578L24.4214 4.09563L24.2622 4.37324ZM23.2693 3.74721L23.4865 3.5122L23.4864 3.51215L23.2693 3.74721ZM21.6683 1.59933L21.9435 1.43599L21.6338 0.914263L21.3781 1.46447L21.6683 1.59933ZM22.9394 4.75648L23.169 4.53363L23.1689 4.53357L22.9394 4.75648ZM24.4085 5.73162L24.3662 6.04881L24.3667 6.04888L24.4085 5.73162ZM25.3397 5.39679L25.1257 5.63473L25.1268 5.63565L25.3397 5.39679ZM25.0501 5.09369L25.1019 4.77791L24.8726 5.35994L25.0501 5.09369ZM18.4214 17.3589L18.7199 17.2437L18.5581 16.8241L18.2147 17.1146L18.4214 17.3589ZM22.1773 13.736L21.8939 13.5874L21.7904 13.785L21.9399 13.9505L22.1773 13.736ZM23.8728 10.5273L24.1927 10.5377L23.5655 10.438L23.8728 10.5273ZM23.3333 14.877L23.4357 15.1801L23.6098 15.1213L23.6468 14.9414L23.3333 14.877ZM21.0023 17.7096L20.8796 17.414L20.8792 17.4142L21.0023 17.7096ZM11.0961 2.14523L11.2673 1.87488C10.9431 1.66955 10.6114 1.46021 10.2512 1.3775C9.86373 1.28853 9.47269 1.3493 9.03073 1.6004L9.18881 1.87863L9.34688 2.15686C9.67303 1.97156 9.90114 1.95377 10.108 2.00127C10.3422 2.05504 10.5801 2.19719 10.9249 2.41557L11.0961 2.14523ZM9.18881 1.87863L9.03098 1.60026C8.26901 2.03228 7.68755 2.73655 7.17768 3.44659C6.65217 4.17841 6.21423 4.89549 5.6984 5.47428L5.93729 5.68719L6.17619 5.9001C6.72108 5.28871 7.21127 4.49705 7.69753 3.81989C8.19942 3.12096 8.71336 2.51605 9.34664 2.157L9.18881 1.87863ZM5.93729 5.68719L5.6983 5.4744C4.76565 6.52189 4.8103 7.61037 4.8751 8.60227C4.94062 9.60504 5.02149 10.4999 4.38941 11.4214L4.6533 11.6024L4.91719 11.7834C5.69255 10.653 5.5772 9.53169 5.51374 8.56055C5.44958 7.57854 5.43251 6.73535 6.17629 5.89998L5.93729 5.68719ZM4.6533 11.6024L4.38942 11.4214C4.06075 11.9005 3.96869 12.3923 4.0452 12.8757C4.11975 13.3467 4.35096 13.7904 4.63275 14.1968C4.91536 14.6044 5.26519 14.997 5.5987 15.362C5.9383 15.7337 6.25646 16.0721 6.50365 16.3933L6.75722 16.1981L7.0108 16.0029C6.74248 15.6543 6.39893 15.289 6.07117 14.9303C5.73733 14.5649 5.41415 14.2006 5.15868 13.8321C4.90239 13.4625 4.73045 13.1112 4.67733 12.7757C4.62619 12.4525 4.68196 12.1263 4.91718 11.7834L4.6533 11.6024ZM6.75722 16.1981L6.50347 16.393C6.65921 16.5957 6.80277 16.869 6.96067 17.1891C7.11339 17.4986 7.27906 17.8511 7.46868 18.1671C7.84474 18.7939 8.39681 19.4127 9.32206 19.3066L9.28558 18.9886L9.24911 18.6707C8.72195 18.7312 8.36494 18.4169 8.01747 17.8378C7.84533 17.5509 7.69563 17.2323 7.53463 16.9059C7.37882 16.5901 7.21033 16.2626 7.01098 16.0031L6.75722 16.1981ZM9.28558 18.9886L9.32168 19.3066C9.79531 19.2528 10.2024 19.0467 10.5574 18.8715C10.9269 18.6893 11.2519 18.5334 11.6273 18.4874L11.5884 18.1698L11.5495 17.8522C11.0509 17.9133 10.6333 18.1204 10.2743 18.2976C9.9008 18.4819 9.5935 18.6316 9.24948 18.6707L9.28558 18.9886ZM11.5884 18.1698L11.6273 18.4874C12.1136 18.4278 12.6066 18.415 13.1134 18.4097C13.615 18.4046 14.1361 18.4069 14.6532 18.3749L14.6334 18.0555L14.6136 17.7362C14.118 17.7668 13.6218 17.7645 13.1067 17.7698C12.5968 17.775 12.0736 17.788 11.5495 17.8522L11.5884 18.1698ZM14.6334 18.0555L14.6532 18.3749C15.1998 18.341 15.8914 18.4561 16.6772 18.6151C17.4466 18.7708 18.2991 18.967 19.1117 19.0663C19.9237 19.1655 20.7423 19.1752 21.4499 18.9319C22.1767 18.6821 22.7649 18.1725 23.108 17.2917L22.8098 17.1756L22.5116 17.0594C22.2375 17.7633 21.7923 18.1375 21.2419 18.3267C20.6724 18.5224 19.9699 18.5264 19.1893 18.431C18.4095 18.3357 17.598 18.1484 16.8042 17.9878C16.0268 17.8305 15.2561 17.6963 14.6136 17.7362L14.6334 18.0555ZM22.8098 17.1756L23.1079 17.2919C23.5302 16.2097 24.14 15.2428 24.8158 14.2293L24.5495 14.0518L24.2833 13.8743C23.6057 14.8904 22.9612 15.9071 22.5117 17.0593L22.8098 17.1756ZM24.5495 14.0518L24.8156 14.2295C25.2608 13.5626 25.4044 13.0533 25.4377 12.5132C25.4537 12.2552 25.4443 11.9916 25.4369 11.7198C25.4294 11.444 25.4234 11.1466 25.4421 10.7975L25.1225 10.7804L24.803 10.7632C24.7828 11.1393 24.7896 11.458 24.7971 11.7371C24.8048 12.0203 24.8127 12.2507 24.799 12.4737C24.7729 12.8956 24.6688 13.2968 24.2834 13.8741L24.5495 14.0518ZM25.1225 10.7804L25.4421 10.7977C25.4669 10.3393 25.495 9.68011 25.6296 9.08759C25.6966 8.79232 25.7867 8.53076 25.9052 8.32736C26.0229 8.1253 26.1579 7.99828 26.3107 7.93661L26.1909 7.63988L26.0711 7.34314C25.7472 7.47388 25.5165 7.72307 25.3521 8.00521C25.1886 8.28601 25.0802 8.61666 25.0055 8.94584C24.8564 9.60222 24.827 10.3209 24.803 10.7631L25.1225 10.7804ZM26.1909 7.63988L26.5058 7.58303C26.3052 6.47195 25.6995 5.16828 24.9311 4.00666C24.163 2.84552 23.2067 1.78716 22.275 1.18813L22.1019 1.4573L21.9289 1.72646C22.7582 2.25969 23.6562 3.23931 24.3973 4.35974C25.1381 5.47969 25.6963 6.70119 25.876 7.69672L26.1909 7.63988ZM22.1019 1.4573L22.2745 1.18783C21.953 0.981893 21.6449 0.874823 21.3414 0.850702C21.0388 0.82666 20.7627 0.886787 20.5082 0.982699C20.2579 1.07704 20.0177 1.21047 19.7918 1.33846C19.5597 1.47007 19.3396 1.59769 19.103 1.70429L19.2345 1.99605L19.3659 2.28781C19.6356 2.1663 19.8849 2.02137 20.1074 1.89525C20.3363 1.76552 20.5362 1.65606 20.7339 1.58159C20.9273 1.50869 21.1071 1.4741 21.2907 1.48869C21.4733 1.5032 21.6816 1.56811 21.9293 1.72676L22.1019 1.4573ZM19.2345 1.99605L19.1032 1.7042C18.0044 2.19828 16.7044 2.68373 15.5439 2.81756L15.5806 3.13546L15.6173 3.45335C16.8785 3.30789 18.2516 2.78882 19.3657 2.28791L19.2345 1.99605ZM15.5806 3.13546L15.5441 2.81754C14.048 2.98928 12.7661 2.80689 11.5229 2.03738L11.3545 2.30947L11.186 2.58156C12.5809 3.44498 14.0164 3.6371 15.6171 3.45337L15.5806 3.13546ZM11.3545 2.30947L11.5261 2.03937C11.4379 1.98339 11.3503 1.92718 11.2668 1.87454L11.0961 2.14523L10.9255 2.41592C11.0081 2.46801 11.0911 2.5213 11.1828 2.57957L11.3545 2.30947ZM6.80294 4.83186L6.49076 4.9022C6.54931 5.16202 6.6509 5.38319 6.8118 5.54065C6.98042 5.70567 7.18939 5.77612 7.4042 5.7709C7.79957 5.76131 8.19732 5.49912 8.5166 5.1973C8.84985 4.88226 9.15975 4.46543 9.3778 4.03524C9.59203 3.6126 9.73865 3.1353 9.68959 2.70925L9.37169 2.74586L9.05379 2.78247C9.08207 3.02808 8.99676 3.37141 8.80695 3.74589C8.62096 4.11283 8.35473 4.46961 8.07694 4.73222C7.78518 5.00803 7.53698 5.12749 7.38868 5.13109C7.33165 5.13248 7.29435 5.11741 7.25942 5.08323C7.21677 5.04149 7.15753 4.9498 7.11511 4.76152L6.80294 4.83186ZM9.37169 2.74586L9.14542 2.51958C8.96265 2.70234 8.30563 3.30585 7.64711 3.83545C7.31731 4.10069 6.99653 4.33974 6.73976 4.49748C6.60995 4.57722 6.50916 4.62824 6.43916 4.6535C6.4227 4.65944 6.41002 4.66319 6.40081 4.66545C6.39142 4.66775 6.38767 4.668 6.38872 4.66791C6.38957 4.66784 6.39868 4.6671 6.41369 4.66951C6.42913 4.67198 6.45261 4.67811 6.4789 4.69298L6.32134 4.9715L6.16377 5.25002C6.264 5.30672 6.36734 5.31188 6.44162 5.30572C6.51772 5.29941 6.59134 5.27899 6.65644 5.25549C6.78667 5.20848 6.93046 5.13144 7.07475 5.0428C7.36621 4.86376 7.71181 4.60472 8.0482 4.33418C8.72207 3.79222 9.39667 3.17341 9.59796 2.97214L9.37169 2.74586ZM25.4212 5.17224L25.534 4.87276C25.4213 4.83034 25.2552 4.71293 25.0399 4.54584C24.8483 4.39711 24.6159 4.20741 24.4216 4.09578L24.2622 4.37324L24.1028 4.6507C24.2468 4.73346 24.4274 4.88058 24.6475 5.05141C24.8439 5.20388 25.0882 5.38877 25.3085 5.47172L25.4212 5.17224ZM24.2622 4.37324L24.4214 4.09563C24.018 3.86436 23.7764 3.78014 23.4865 3.5122L23.2693 3.74721L23.0521 3.98221C23.413 4.31571 23.784 4.46794 24.1031 4.65085L24.2622 4.37324ZM23.2693 3.74721L23.4864 3.51215C22.8824 2.95411 22.392 2.19165 21.9435 1.43599L21.6683 1.59933L21.3931 1.76266C21.8423 2.51932 22.373 3.35489 23.0522 3.98226L23.2693 3.74721ZM21.6683 1.59933L21.3781 1.46447C21.0585 2.15227 21.2516 2.87598 21.5648 3.47198C21.8808 4.07326 22.3526 4.61151 22.7098 4.97939L22.9394 4.75648L23.1689 4.53357C22.8258 4.1802 22.4045 3.6941 22.1313 3.17424C21.8553 2.64908 21.763 2.15484 21.9585 1.73419L21.6683 1.59933ZM22.9394 4.75648L22.7097 4.97933C22.8978 5.17317 23.1443 5.41388 23.4193 5.61691C23.6894 5.8164 24.0167 6.00217 24.3662 6.04881L24.4085 5.73162L24.4509 5.41444C24.2593 5.38887 24.0365 5.27711 23.7995 5.10208C23.5673 4.93061 23.3497 4.71985 23.169 4.53363L22.9394 4.75648ZM24.4085 5.73162L24.3667 6.04888C24.4053 6.05397 24.4434 6.05123 24.4494 6.0509C24.4667 6.04992 24.4862 6.0483 24.5063 6.04633C24.547 6.04235 24.5985 6.03617 24.6559 6.02811C24.7702 6.01207 24.9161 5.98742 25.055 5.95495C25.1837 5.92486 25.3424 5.88024 25.4588 5.81302C25.5069 5.78525 25.6196 5.71451 25.6687 5.57811C25.6977 5.49735 25.6987 5.40821 25.668 5.32422C25.6398 5.24721 25.592 5.19303 25.5527 5.15793L25.3397 5.39679L25.1268 5.63565C25.1159 5.62594 25.0862 5.59665 25.0669 5.544C25.0451 5.48437 25.0458 5.41905 25.0665 5.36153C25.0988 5.27162 25.1626 5.24504 25.1388 5.25881C25.1113 5.27466 25.0343 5.30254 24.9093 5.33175C24.7945 5.3586 24.6685 5.38007 24.567 5.39432C24.5165 5.40142 24.474 5.40643 24.444 5.40936C24.4288 5.41085 24.4187 5.41161 24.4134 5.41191C24.3968 5.41284 24.4193 5.41027 24.4503 5.41437L24.4085 5.73162ZM25.3397 5.39679L25.5537 5.15885C25.5332 5.14042 25.5099 5.11049 25.4475 5.03675C25.4007 4.98141 25.323 4.89099 25.2276 4.82744L25.0501 5.09369L24.8726 5.35994C24.8832 5.36701 24.9084 5.39044 24.9589 5.45015C24.9774 5.47201 25.0087 5.50991 25.0317 5.53658C25.0568 5.56568 25.0893 5.60201 25.1257 5.63473L25.3397 5.39679ZM25.0501 5.09369L24.9983 5.40947C25.1391 5.43255 25.227 5.44039 25.3064 5.4709L25.4212 5.17224L25.5361 4.87357C25.3762 4.81204 25.1837 4.79132 25.1019 4.77791L25.0501 5.09369ZM16.4028 17.4565L16.3032 17.7606C16.6219 17.865 17.0336 17.9553 17.4418 17.9603C17.8434 17.9653 18.2913 17.8881 18.628 17.6032L18.4214 17.3589L18.2147 17.1146C18.0478 17.2558 17.7831 17.3245 17.4498 17.3204C17.123 17.3163 16.7773 17.2424 16.5024 17.1524L16.4028 17.4565ZM18.4214 17.3589L18.1228 17.4741C18.2433 17.7865 18.4545 18.0062 18.7387 18.1118C19.0103 18.2127 19.3099 18.195 19.5943 18.1199C20.1601 17.9707 20.7824 17.5645 21.3128 17.0702C21.8461 16.5733 22.3228 15.9536 22.575 15.3388C22.8242 14.7315 22.8836 14.0404 22.4148 13.5215L22.1773 13.736L21.9399 13.9505C22.165 14.1996 22.1934 14.583 21.9829 15.0959C21.7755 15.6013 21.364 16.1477 20.8765 16.602C20.386 17.059 19.8549 17.3893 19.431 17.5011C19.2205 17.5566 19.0661 17.5507 18.9616 17.5118C18.8697 17.4777 18.7827 17.4063 18.7199 17.2437L18.4214 17.3589ZM22.1773 13.736L22.4608 13.8845C22.7307 13.3696 23.0563 12.8794 23.3811 12.3329C23.6981 11.7993 24.0016 11.231 24.1801 10.6165L23.8728 10.5273L23.5655 10.438C23.4103 10.9725 23.1408 11.4844 22.8309 12.0059C22.5287 12.5145 22.1734 13.0542 21.8939 13.5874L22.1773 13.736ZM23.8728 10.5273L23.553 10.5168C23.5095 11.8474 23.2913 13.4914 23.0199 14.8126L23.3333 14.877L23.6468 14.9414C23.924 13.5918 24.1478 11.9112 24.1927 10.5377L23.8728 10.5273ZM23.3333 14.877L23.2309 14.5738C22.4703 14.8307 22.1262 15.5599 21.8532 16.1305C21.7068 16.4363 21.5778 16.7106 21.4184 16.9408C21.2626 17.1658 21.0928 17.3256 20.8796 17.414L21.0023 17.7096L21.125 18.0051C21.4891 17.854 21.7463 17.5915 21.9446 17.3051C22.1393 17.0239 22.2914 16.6974 22.4305 16.4067C22.7284 15.7841 22.9725 15.3366 23.4357 15.1801L23.3333 14.877ZM21.0023 17.7096L20.8792 17.4142C20.7569 17.4652 20.5591 17.4906 20.2818 17.4824C20.0116 17.4744 19.7004 17.4361 19.3708 17.3859C18.7365 17.2893 17.9992 17.1399 17.4959 17.1357L17.4932 17.4557L17.4906 17.7757C17.9329 17.7794 18.5772 17.9124 19.2745 18.0186C19.6107 18.0698 19.9528 18.1129 20.2628 18.1221C20.5656 18.1311 20.8747 18.1095 21.1255 18.005L21.0023 17.7096Z" fill="#967348" mask="url(#path-1-outside-1_8_29)"/>
</g>
<defs>
<filter id="filter0_d_8_29" x="0.0198975" y="0.845398" width="30.5321" height="26.4731" filterUnits="userSpaceOnUse" color-interpolation-filters="sRGB">
<feFlood flood-opacity="0" result="BackgroundImageFix"/>
<feColorMatrix in="SourceAlpha" type="matrix" values="0 0 0 0 0 0 0 0 0 0 0 0 0 0 0 0 0 0 127 0" result="hardAlpha"/>
<feOffset dy="4"/>
<feGaussianBlur stdDeviation="2"/>
<feComposite in2="hardAlpha" operator="out"/>
<feColorMatrix type="matrix" values="0 0 0 0 0 0 0 0 0 0 0 0 0 0 0 0 0 0 0.25 0"/>
<feBlend mode="normal" in2="BackgroundImageFix" result="effect1_dropShadow_8_29"/>
<feBlend mode="normal" in="SourceGraphic" in2="effect1_dropShadow_8_29" result="shape"/>
</filter>
</defs>
</svg>
