<svg width="87" height="181" viewBox="0 0 87 181" fill="none" xmlns="http://www.w3.org/2000/svg">
<g id="nonbone">
<g id="path479" filter="url(#filter0_d_8_113)">
<mask id="path-1-outside-1_8_113" maskUnits="userSpaceOnUse" x="5.61865" y="155.94" width="36" height="17" fill="black">
<rect fill="white" x="5.61865" y="155.94" width="36" height="17"/>
<path d="M20.0358 171.749C16.6959 170.871 12.3676 172.9 9.67848 170.585C7.68734 168.871 5.36244 164.068 7.41988 161.619C8.10722 164.111 12.3493 165.906 14.5859 166.437C17.0121 167.013 20.0221 166.344 22.2083 165.071C23.6599 164.227 23.1608 163.774 24.982 163.94C28.0065 164.214 29.9077 165.492 33.1143 164.433C36.522 163.308 38.7478 161.016 38.8652 157.383C43.419 154.788 40.0227 164.352 39.1647 166.135C38.459 167.6 37.7534 170.013 36.3643 170.683C34.8242 171.426 32.8674 170.391 31.1947 170.392C27.1058 170.394 24.1545 172.831 20.0358 171.749Z"/>
</mask>
<path d="M20.0358 171.749C16.6959 170.871 12.3676 172.9 9.67848 170.585C7.68734 168.871 5.36244 164.068 7.41988 161.619C8.10722 164.111 12.3493 165.906 14.5859 166.437C17.0121 167.013 20.0221 166.344 22.2083 165.071C23.6599 164.227 23.1608 163.774 24.982 163.94C28.0065 164.214 29.9077 165.492 33.1143 164.433C36.522 163.308 38.7478 161.016 38.8652 157.383C43.419 154.788 40.0227 164.352 39.1647 166.135C38.459 167.6 37.7534 170.013 36.3643 170.683C34.8242 171.426 32.8674 170.391 31.1947 170.392C27.1058 170.394 24.1545 172.831 20.0358 171.749Z" fill="#E1E2E3"/>
<path d="M20.0358 171.749C16.6959 170.871 12.3676 172.9 9.67848 170.585C7.68734 168.871 5.36244 164.068 7.41988 161.619C8.10722 164.111 12.3493 165.906 14.5859 166.437C17.0121 167.013 20.0221 166.344 22.2083 165.071C23.6599 164.227 23.1608 163.774 24.982 163.94C28.0065 164.214 29.9077 165.492 33.1143 164.433C36.522 163.308 38.7478 161.016 38.8652 157.383C43.419 154.788 40.0227 164.352 39.1647 166.135C38.459 167.6 37.7534 170.013 36.3643 170.683C34.8242 171.426 32.8674 170.391 31.1947 170.392C27.1058 170.394 24.1545 172.831 20.0358 171.749Z" stroke="#967348" stroke-width="0.64" mask="url(#path-1-outside-1_8_113)"/>
</g>
<g id="path513" filter="url(#filter1_d_8_113)">
<mask id="path-2-outside-2_8_113" maskUnits="userSpaceOnUse" x="47.1411" y="154.976" width="34" height="18" fill="black">
<rect fill="white" x="47.1411" y="154.976" width="34" height="18"/>
<path d="M77.7112 169.16C78.5006 168.588 79.2184 167.958 79.7968 167.358C81.2294 165.868 80.459 163.748 80.3897 161.938C80.3698 161.372 81.1959 154.868 79.108 156.633C78.5867 157.073 78.3909 157.737 78.1211 158.353C77.7439 159.214 77.4384 160.079 76.8204 160.79C75.8199 161.944 74.6182 163.031 73.3349 163.827C71.7484 164.809 70.7982 164.097 69.1355 164.473C67.4499 164.855 65.8405 165.207 64.0985 165.326C63.5766 165.361 62.8679 165.364 62.368 165.507C61.7927 165.672 61.4003 166.003 60.879 166.285C59.2971 167.14 57.3646 167.508 55.5762 167.332C52.8375 167.063 51.3698 164.233 50.8082 161.726C50.5271 160.466 50.3564 159.271 49.9936 158.037C49.8519 157.552 49.8001 156.639 49.4008 156.287C49.3421 156.236 48.2448 155.673 48.414 156.199C48.8331 157.513 48.6693 159.141 48.6319 160.566C48.5976 161.93 47.8516 163.532 48.2662 164.83C48.8643 166.704 49.5113 169.041 50.8829 170.474C51.9162 171.555 52.7217 171.186 53.9272 171.435C54.9742 171.651 55.913 172.057 57.0476 172.142C60.018 172.365 62.8168 170.647 65.7818 170.855C68.2942 171.032 70.7967 171.487 73.3243 171.155C74.7553 170.966 76.3403 170.15 77.7112 169.16Z"/>
</mask>
<path d="M77.7112 169.16C78.5006 168.588 79.2184 167.958 79.7968 167.358C81.2294 165.868 80.459 163.748 80.3897 161.938C80.3698 161.372 81.1959 154.868 79.108 156.633C78.5867 157.073 78.3909 157.737 78.1211 158.353C77.7439 159.214 77.4384 160.079 76.8204 160.79C75.8199 161.944 74.6182 163.031 73.3349 163.827C71.7484 164.809 70.7982 164.097 69.1355 164.473C67.4499 164.855 65.8405 165.207 64.0985 165.326C63.5766 165.361 62.8679 165.364 62.368 165.507C61.7927 165.672 61.4003 166.003 60.879 166.285C59.2971 167.14 57.3646 167.508 55.5762 167.332C52.8375 167.063 51.3698 164.233 50.8082 161.726C50.5271 160.466 50.3564 159.271 49.9936 158.037C49.8519 157.552 49.8001 156.639 49.4008 156.287C49.3421 156.236 48.2448 155.673 48.414 156.199C48.8331 157.513 48.6693 159.141 48.6319 160.566C48.5976 161.93 47.8516 163.532 48.2662 164.83C48.8643 166.704 49.5113 169.041 50.8829 170.474C51.9162 171.555 52.7217 171.186 53.9272 171.435C54.9742 171.651 55.913 172.057 57.0476 172.142C60.018 172.365 62.8168 170.647 65.7818 170.855C68.2942 171.032 70.7967 171.487 73.3243 171.155C74.7553 170.966 76.3403 170.15 77.7112 169.16Z" fill="#E1E2E3"/>
<path d="M77.7112 169.16C78.5006 168.588 79.2184 167.958 79.7968 167.358C81.2294 165.868 80.459 163.748 80.3897 161.938C80.3698 161.372 81.1959 154.868 79.108 156.633C78.5867 157.073 78.3909 157.737 78.1211 158.353C77.7439 159.214 77.4384 160.079 76.8204 160.79C75.8199 161.944 74.6182 163.031 73.3349 163.827C71.7484 164.809 70.7982 164.097 69.1355 164.473C67.4499 164.855 65.8405 165.207 64.0985 165.326C63.5766 165.361 62.8679 165.364 62.368 165.507C61.7927 165.672 61.4003 166.003 60.879 166.285C59.2971 167.14 57.3646 167.508 55.5762 167.332C52.8375 167.063 51.3698 164.233 50.8082 161.726C50.5271 160.466 50.3564 159.271 49.9936 158.037C49.8519 157.552 49.8001 156.639 49.4008 156.287C49.3421 156.236 48.2448 155.673 48.414 156.199C48.8331 157.513 48.6693 159.141 48.6319 160.566C48.5976 161.93 47.8516 163.532 48.2662 164.83C48.8643 166.704 49.5113 169.041 50.8829 170.474C51.9162 171.555 52.7217 171.186 53.9272 171.435C54.9742 171.651 55.913 172.057 57.0476 172.142C60.018 172.365 62.8168 170.647 65.7818 170.855C68.2942 171.032 70.7967 171.487 73.3243 171.155C74.7553 170.966 76.3403 170.15 77.7112 169.16Z" stroke="#967348" stroke-width="0.64" mask="url(#path-2-outside-2_8_113)"/>
</g>
<g id="path481">
<path d="M11.8487 15.1909C12.93 13.1049 5.07516 10.6428 3.72868 9.51609C1.55008 7.69432 -0.986668 4.61732 1.19498 2.25203C3.4033 -0.142608 6.36754 0.256516 8.79761 1.92277C12.7494 4.6332 17.688 13.4048 11.0318 16.0414" fill="#E1E2E3"/>
<path d="M11.8487 15.1909C12.93 13.1049 5.07516 10.6428 3.72868 9.51609C1.55008 7.69432 -0.986668 4.61732 1.19498 2.25203C3.4033 -0.142608 6.36754 0.256516 8.79761 1.92277C12.7494 4.6332 17.688 13.4048 11.0318 16.0414" stroke="#967348" stroke-width="0.3218"/>
</g>
<path id="path499" d="M77.9101 2.16402C72.7703 3.32801 70.2084 11.1189 73.3829 15.4766C74.1693 16.5533 75.5531 16.9119 76.5994 17.63C76.1186 17.2991 75.5547 17.1111 75.4884 16.3668C75.3916 15.2996 75.8458 15.6019 76.5483 15.3679C78.1189 14.845 79.7176 14.4903 81.2919 13.9984C83.1436 13.4199 83.8035 13.0192 84.8642 11.3054C85.4959 10.2858 85.8358 9.40983 86.1368 8.21807C87.0436 4.63642 85.2254 2.3243 81.8474 1.97994C80.6183 1.85537 79.2123 1.86965 77.9101 2.16402Z" fill="#E1E2E3" stroke="#967348" stroke-width="0.3218"/>
</g>
<defs>
<filter id="filter0_d_8_113" x="2.29878" y="156.62" width="43.2094" height="23.7262" filterUnits="userSpaceOnUse" color-interpolation-filters="sRGB">
<feFlood flood-opacity="0" result="BackgroundImageFix"/>
<feColorMatrix in="SourceAlpha" type="matrix" values="0 0 0 0 0 0 0 0 0 0 0 0 0 0 0 0 0 0 127 0" result="hardAlpha"/>
<feOffset dy="4"/>
<feGaussianBlur stdDeviation="2"/>
<feComposite in2="hardAlpha" operator="out"/>
<feColorMatrix type="matrix" values="0 0 0 0 0 0 0 0 0 0 0 0 0 0 0 0 0 0 0.25 0"/>
<feBlend mode="normal" in2="BackgroundImageFix" result="effect1_dropShadow_8_113"/>
<feBlend mode="normal" in="SourceGraphic" in2="effect1_dropShadow_8_113" result="shape"/>
</filter>
<filter id="filter1_d_8_113" x="43.8212" y="155.656" width="41.1572" height="24.8261" filterUnits="userSpaceOnUse" color-interpolation-filters="sRGB">
<feFlood flood-opacity="0" result="BackgroundImageFix"/>
<feColorMatrix in="SourceAlpha" type="matrix" values="0 0 0 0 0 0 0 0 0 0 0 0 0 0 0 0 0 0 127 0" result="hardAlpha"/>
<feOffset dy="4"/>
<feGaussianBlur stdDeviation="2"/>
<feComposite in2="hardAlpha" operator="out"/>
<feColorMatrix type="matrix" values="0 0 0 0 0 0 0 0 0 0 0 0 0 0 0 0 0 0 0.25 0"/>
<feBlend mode="normal" in2="BackgroundImageFix" result="effect1_dropShadow_8_113"/>
<feBlend mode="normal" in="SourceGraphic" in2="effect1_dropShadow_8_113" result="shape"/>
</filter>
</defs>
</svg>
