<svg width="27" height="6" viewBox="0 0 27 6" fill="none" xmlns="http://www.w3.org/2000/svg">
<g id="nonbone1">
<path d="M0.836637 3.31763C1.11782 3.57074 1.95451 3.9643 2.35076 3.67786C2.82016 3.33747 3.2126 2.14729 2.86512 1.61647C1.70381 -0.159277 -0.823032 1.81721 0.836637 3.31763Z" fill="#E1E2E3"/>
<path d="M3.35663 1.47112C3.16155 1.04265 2.60832 0.587208 2.13206 0.595936C1.91565 0.599904 1.19631 0.867297 1.1163 1.11485C0.867885 1.89164 1.08429 3.06913 1.53083 3.79594C1.67714 4.03397 1.89584 4.30612 2.14426 4.41879C2.57023 4.6116 2.52374 4.47989 2.8255 4.14902C3.016 3.93876 3.47168 3.64755 3.56084 3.3754C3.66676 3.05405 3.50217 1.78929 3.35663 1.47112Z" fill="#E1E2E3"/>
<path d="M3.59056 0.818982C3.03506 0.730909 2.69062 0.221517 2.34848 0.820574C2.16712 1.13716 2.19074 1.66243 2.22884 2.02424C2.29514 2.66297 2.77826 4.20386 3.40006 4.49347C4.19713 4.86321 4.92942 4.14435 4.94161 3.30329C4.94466 3.06128 4.67643 2.53126 4.62995 2.24799C4.58423 1.96711 4.60404 1.57038 4.49507 1.31251C4.25656 0.75392 3.63401 0.889603 3.24995 0.535723" fill="#E1E2E3"/>
<path d="M4.19561 3.96905C4.57814 4.42688 5.44836 5.37347 5.48341 5.34967C6.84285 4.43402 6.599 0.576253 4.63224 0.492147C3.17984 0.430258 3.59437 2.95185 4.02567 3.74689C4.04548 3.78259 4.10721 3.86194 4.19561 3.96905Z" fill="#E1E2E3"/>
<path d="M8.3524 1.48476C8.40726 1.57283 8.44688 1.67122 8.4644 1.78072C8.5627 2.36866 8.16646 3.41919 8.01558 4.00238C7.88071 4.52447 7.7504 5.2489 7.281 5.55279C6.57309 4.93072 5.35005 1.26338 6.82074 0.951554C7.32824 0.843644 8.06283 1.02376 8.3524 1.48476Z" fill="#E1E2E3"/>
<path d="M10.4556 1.49031C11.1254 1.8672 10.2399 5.43854 9.50075 5.59326C8.77303 5.74481 8.47889 3.4319 8.4446 2.93995C8.34401 1.48318 9.14947 0.755576 10.4556 1.49031Z" fill="#E1E2E3"/>
<path d="M12.865 1.30862C13.3253 1.46017 12.9931 3.41999 12.9184 3.76515C12.8208 4.21662 12.7782 5.27429 12.3286 5.51868C11.3517 6.05188 11.0179 3.98255 10.9623 3.41761C10.9211 3.0066 10.7139 2.44881 10.7306 2.05446C10.7771 0.96664 12.1693 1.08169 12.865 1.30862Z" fill="#E1E2E3"/>
<path d="M25.6547 3.40015C25.3705 3.6493 24.5284 4.03094 24.1368 3.73895C23.6704 3.39221 23.2932 2.19649 23.6491 1.67043C24.8325 -0.0878654 27.3334 1.92274 25.6547 3.40015Z" fill="#E1E2E3"/>
<path d="M23.1568 1.51967C23.3588 1.09359 23.9173 0.645288 24.3943 0.66195C24.61 0.669091 25.327 0.94601 25.4032 1.19436C25.6417 1.97512 25.4116 3.14942 24.9544 3.86988C24.8051 4.10553 24.5826 4.37452 24.3334 4.48401C23.9044 4.67127 23.9531 4.53956 23.6559 4.20472C23.467 3.99207 23.0158 3.69453 22.9297 3.42158C22.8284 3.09706 23.009 1.83547 23.1568 1.51967Z" fill="#E1E2E3"/>
<path d="M22.932 0.863342C23.4891 0.783203 23.8381 0.277776 24.1756 0.882387C24.3509 1.20135 24.3219 1.72662 24.2793 2.08844C24.2031 2.72637 23.7024 4.26012 23.0768 4.541C22.2759 4.89964 21.552 4.17125 21.5505 3.3294C21.5505 3.08739 21.8271 2.56054 21.8759 2.27807C21.9262 1.9964 21.9094 1.59967 22.0222 1.34418C22.2676 0.789553 22.8901 0.933168 23.2772 0.584842" fill="#E1E2E3"/>
<path d="M22.2874 4.00472C21.8987 4.45699 21.0163 5.39246 20.9805 5.36787C19.6333 4.43397 19.9274 0.580177 21.8957 0.522255C23.3489 0.480995 22.9016 2.99624 22.4611 3.78573C22.4413 3.82064 22.378 3.89919 22.2874 4.00472Z" fill="#E1E2E3"/>
<path d="M18.1641 1.46413C18.1069 1.55061 18.0666 1.64821 18.0475 1.75691C17.9416 2.34486 18.3256 3.40095 18.4681 3.98572C18.5954 4.5094 18.7166 5.23541 19.1821 5.54565C19.8984 4.9331 21.168 1.28322 19.7018 0.95076C19.1943 0.837297 18.4582 1.0071 18.1641 1.46413Z" fill="#E1E2E3"/>
<path d="M16.0586 1.44033C15.3843 1.8069 16.2248 5.39093 16.9632 5.55596C17.6878 5.71783 18.0109 3.40809 18.0513 2.91774C18.1702 1.46096 17.3754 0.724633 16.0586 1.44033Z" fill="#E1E2E3"/>
<path d="M13.797 1.46571C13.3398 1.62441 13.701 3.57868 13.781 3.92225C13.8846 4.37213 13.9448 5.4298 14.3975 5.66705C15.382 6.18438 15.6845 4.1095 15.7317 3.54298C15.766 3.13118 15.9657 2.571 15.9428 2.17665C15.8788 1.08803 14.4889 1.22609 13.797 1.46571Z" fill="#E1E2E3"/>
<path d="M3.59056 0.818982C3.03506 0.730909 2.69062 0.221517 2.34848 0.820574C2.16712 1.13716 2.19074 1.66243 2.22884 2.02424C2.29514 2.66297 2.77826 4.20386 3.40006 4.49347C4.19713 4.86321 4.92942 4.14435 4.94161 3.30329C4.94466 3.06128 4.67643 2.53126 4.62995 2.24799C4.58423 1.96711 4.60404 1.57038 4.49507 1.31251C4.25656 0.75392 3.63401 0.889603 3.24995 0.535723M22.932 0.863342C23.4891 0.783203 23.8381 0.277776 24.1756 0.882387C24.3509 1.20135 24.3219 1.72662 24.2793 2.08844C24.2031 2.72637 23.7024 4.26012 23.0768 4.541C22.2759 4.89964 21.552 4.17125 21.5505 3.3294C21.5505 3.08739 21.8271 2.56054 21.8759 2.27807C21.9262 1.9964 21.9094 1.59967 22.0222 1.34418C22.2676 0.789553 22.8901 0.933168 23.2772 0.584842M0.836637 3.31763C1.11782 3.57074 1.95451 3.9643 2.35076 3.67786C2.82016 3.33747 3.2126 2.14729 2.86512 1.61647C1.70381 -0.159277 -0.823032 1.81721 0.836637 3.31763ZM3.35663 1.47112C3.16155 1.04265 2.60832 0.587208 2.13206 0.595936C1.91565 0.599904 1.19631 0.867297 1.1163 1.11485C0.867885 1.89164 1.08429 3.06913 1.53083 3.79594C1.67714 4.03397 1.89584 4.30612 2.14426 4.41879C2.57023 4.6116 2.52374 4.47989 2.8255 4.14902C3.016 3.93876 3.47168 3.64755 3.56084 3.3754C3.66676 3.05405 3.50217 1.78929 3.35663 1.47112ZM4.19561 3.96905C4.57814 4.42688 5.44836 5.37347 5.48341 5.34967C6.84285 4.43402 6.599 0.576253 4.63224 0.492147C3.17984 0.430258 3.59437 2.95185 4.02567 3.74689C4.04548 3.78259 4.10721 3.86194 4.19561 3.96905ZM8.3524 1.48476C8.40726 1.57283 8.44688 1.67122 8.4644 1.78072C8.5627 2.36866 8.16646 3.41919 8.01558 4.00238C7.88071 4.52447 7.7504 5.2489 7.281 5.55279C6.57309 4.93072 5.35005 1.26338 6.82074 0.951554C7.32824 0.843644 8.06283 1.02376 8.3524 1.48476ZM10.4556 1.49031C11.1254 1.8672 10.2399 5.43854 9.50075 5.59326C8.77303 5.74481 8.47889 3.4319 8.4446 2.93995C8.34401 1.48318 9.14947 0.755576 10.4556 1.49031ZM12.865 1.30862C13.3253 1.46017 12.9931 3.41999 12.9184 3.76515C12.8208 4.21662 12.7782 5.27429 12.3286 5.51868C11.3517 6.05188 11.0179 3.98255 10.9623 3.41761C10.9211 3.0066 10.7139 2.44881 10.7306 2.05446C10.7771 0.96664 12.1693 1.08169 12.865 1.30862ZM25.6547 3.40015C25.3705 3.6493 24.5284 4.03094 24.1368 3.73895C23.6704 3.39221 23.2932 2.19649 23.6491 1.67043C24.8325 -0.0878654 27.3334 1.92274 25.6547 3.40015ZM23.1568 1.51967C23.3588 1.09359 23.9173 0.645288 24.3943 0.66195C24.61 0.669091 25.327 0.94601 25.4032 1.19436C25.6417 1.97512 25.4116 3.14942 24.9544 3.86988C24.8051 4.10553 24.5826 4.37452 24.3334 4.48401C23.9044 4.67127 23.9531 4.53956 23.6559 4.20472C23.467 3.99207 23.0158 3.69453 22.9297 3.42158C22.8284 3.09706 23.009 1.83547 23.1568 1.51967ZM22.2874 4.00472C21.8987 4.45699 21.0163 5.39246 20.9805 5.36787C19.6333 4.43397 19.9274 0.580177 21.8957 0.522255C23.3489 0.480995 22.9016 2.99624 22.4611 3.78573C22.4413 3.82064 22.378 3.89919 22.2874 4.00472ZM18.1641 1.46413C18.1069 1.55061 18.0666 1.64821 18.0475 1.75691C17.9416 2.34486 18.3256 3.40095 18.4681 3.98572C18.5954 4.5094 18.7166 5.23541 19.1821 5.54565C19.8984 4.9331 21.168 1.28322 19.7018 0.95076C19.1943 0.837297 18.4582 1.0071 18.1641 1.46413ZM16.0586 1.44033C15.3843 1.8069 16.2248 5.39093 16.9632 5.55596C17.6878 5.71783 18.0109 3.40809 18.0513 2.91774C18.1702 1.46096 17.3754 0.724633 16.0586 1.44033ZM13.797 1.46571C13.3398 1.62441 13.701 3.57868 13.781 3.92225C13.8846 4.37213 13.9448 5.4298 14.3975 5.66705C15.382 6.18438 15.6845 4.1095 15.7317 3.54298C15.766 3.13118 15.9657 2.571 15.9428 2.17665C15.8788 1.08803 14.4889 1.22609 13.797 1.46571Z" stroke="#967348" stroke-width="0.2"/>
</g>
</svg>
