<svg width="29" height="29" viewBox="0 0 29 29" fill="none" xmlns="http://www.w3.org/2000/svg">
<g id="PatellaRight" filter="url(#filter0_d_8_8)">
<mask id="path-1-outside-1_8_8" maskUnits="userSpaceOnUse" x="3.5744" y="0.0318604" width="21" height="21" fill="black">
<rect fill="white" x="3.5744" y="0.0318604" width="21" height="21"/>
<path d="M20.738 3.98978C17.1581 0.793749 13.4112 -0.179039 9.64461 2.91384C8.52825 3.83028 6.40528 4.64835 5.6585 5.7933C4.93459 6.90334 4.47814 9.34638 4.59168 10.6453C4.76846 12.6725 6.62626 14.4951 7.85691 16.013C8.96793 17.3825 10.434 19.3891 12.1493 19.8001C16.3595 20.8117 19.9493 17.722 21.8094 14.2578C22.768 12.4734 23.684 11.4054 23.7922 9.36936C23.9141 7.06756 22.5417 5.60128 20.738 3.98978Z"/>
<path d="M16.5431 19.117C10.8166 22.0948 3.43723 10.1128 7.6786 8.70604C7.42257 9.93906 9.07613 12.5369 10.3136 11.0809C11.2083 10.0264 9.00374 8.65132 8.47719 8.07051C8.69512 7.87214 9.08604 7.72455 9.39542 7.6825C10.13 9.98272 13.4608 8.65367 10.9499 6.81127C11.6136 6.35027 14.3089 8.05543 15.3529 8.24824C16.9333 8.53547 18.9595 8.94648 19.8845 7.23579C19.4708 6.84542 18.9899 6.27015 18.6943 5.73616C20.3677 5.03236 21.5747 6.14083 22.8938 7.4651C24.334 8.90998 23.9956 9.99461 23.1353 11.8711C21.8627 14.6419 19.2041 17.7332 16.5431 19.117Z"/>
<path d="M12.3581 18.5187C14.0048 19.3867 17.68 17.1841 16.87 15.1759C17.7029 14.5117 18.4619 13.6548 19.2612 13.0066C19.3237 13.2264 19.4365 13.4192 19.4959 13.6088C22.0266 13.0415 19.4449 10.7452 18.5693 10.0184C18.6577 9.43681 18.7735 8.90361 18.9328 8.33629C21.8582 8.29821 19.9463 5.6576 19.0456 4.71418C18.6326 4.88081 18.2698 4.77292 17.8271 4.86813C17.8606 4.76022 18.2089 4.00723 18.2645 3.90567C19.957 5.16329 22.9601 6.74225 22.7383 9.3654C22.4556 12.7209 20.1939 15.84 17.712 17.6681C14.4727 20.054 10.761 20.5769 8.90393 16.0082C10.9522 15.2862 11.1298 19.5375 13.5835 18.0934"/>
</mask>
<path d="M20.738 3.98978C17.1581 0.793749 13.4112 -0.179039 9.64461 2.91384C8.52825 3.83028 6.40528 4.64835 5.6585 5.7933C4.93459 6.90334 4.47814 9.34638 4.59168 10.6453C4.76846 12.6725 6.62626 14.4951 7.85691 16.013C8.96793 17.3825 10.434 19.3891 12.1493 19.8001C16.3595 20.8117 19.9493 17.722 21.8094 14.2578C22.768 12.4734 23.684 11.4054 23.7922 9.36936C23.9141 7.06756 22.5417 5.60128 20.738 3.98978Z" fill="#F3D48C"/>
<path d="M16.5431 19.117C10.8166 22.0948 3.43723 10.1128 7.6786 8.70604C7.42257 9.93906 9.07613 12.5369 10.3136 11.0809C11.2083 10.0264 9.00374 8.65132 8.47719 8.07051C8.69512 7.87214 9.08604 7.72455 9.39542 7.6825C10.13 9.98272 13.4608 8.65367 10.9499 6.81127C11.6136 6.35027 14.3089 8.05543 15.3529 8.24824C16.9333 8.53547 18.9595 8.94648 19.8845 7.23579C19.4708 6.84542 18.9899 6.27015 18.6943 5.73616C20.3677 5.03236 21.5747 6.14083 22.8938 7.4651C24.334 8.90998 23.9956 9.99461 23.1353 11.8711C21.8627 14.6419 19.2041 17.7332 16.5431 19.117Z" fill="#DCC06D"/>
<path d="M12.3581 18.5187C14.0048 19.3867 17.68 17.1841 16.87 15.1759C17.7029 14.5117 18.4619 13.6548 19.2612 13.0066C19.3237 13.2264 19.4365 13.4192 19.4959 13.6088C22.0266 13.0415 19.4449 10.7452 18.5693 10.0184C18.6577 9.43681 18.7735 8.90361 18.9328 8.33629C21.8582 8.29821 19.9463 5.6576 19.0456 4.71418C18.6326 4.88081 18.2698 4.77292 17.8271 4.86813C17.8606 4.76022 18.2089 4.00723 18.2645 3.90567C19.957 5.16329 22.9601 6.74225 22.7383 9.3654C22.4556 12.7209 20.1939 15.84 17.712 17.6681C14.4727 20.054 10.761 20.5769 8.90393 16.0082C10.9522 15.2862 11.1298 19.5375 13.5835 18.0934" fill="#CCB25C"/>
<path d="M20.738 3.98978L20.9512 3.75115L20.9511 3.75107L20.738 3.98978ZM9.64461 2.91384L9.84765 3.16117L9.84768 3.16115L9.64461 2.91384ZM5.6585 5.7933L5.39048 5.61849L5.39047 5.6185L5.6585 5.7933ZM4.59168 10.6453L4.91047 10.6175L4.91046 10.6174L4.59168 10.6453ZM7.85691 16.013L7.60835 16.2145L7.60841 16.2146L7.85691 16.013ZM12.1493 19.8001L12.2241 19.4889L12.2239 19.4889L12.1493 19.8001ZM21.8094 14.2578L21.5275 14.1064L21.5275 14.1065L21.8094 14.2578ZM23.7922 9.36936L24.1117 9.38635L24.1117 9.38629L23.7922 9.36936ZM16.5431 19.117L16.6908 19.4009L16.6908 19.4009L16.5431 19.117ZM7.6786 8.70604L7.99192 8.7711L8.10479 8.22753L7.57786 8.40231L7.6786 8.70604ZM10.3136 11.0809L10.5575 11.2881L10.5577 11.2879L10.3136 11.0809ZM8.47719 8.07051L8.26179 7.83386L8.0256 8.04883L8.24011 8.28544L8.47719 8.07051ZM9.39542 7.6825L9.70025 7.58515L9.61852 7.32923L9.35231 7.36541L9.39542 7.6825ZM10.9499 6.81127L10.7674 6.54845L10.3993 6.80412L10.7606 7.06926L10.9499 6.81127ZM15.3529 8.24824L15.2947 8.56292L15.2956 8.56308L15.3529 8.24824ZM19.8845 7.23579L20.166 7.38801L20.283 7.17175L20.1041 7.00304L19.8845 7.23579ZM18.6943 5.73616L18.5702 5.44118L18.2417 5.57936L18.4143 5.89116L18.6943 5.73616ZM22.8938 7.4651L22.667 7.69093L22.6671 7.69101L22.8938 7.4651ZM23.1353 11.8711L23.4261 12.0047L23.4262 12.0045L23.1353 11.8711ZM16.87 15.1759L16.6705 14.9257L16.484 15.0744L16.5733 15.2956L16.87 15.1759ZM19.2612 13.0066L19.569 12.9191L19.4364 12.4525L19.0597 12.7581L19.2612 13.0066ZM19.4959 13.6088L19.1906 13.7045L19.2786 13.9855L19.5659 13.9211L19.4959 13.6088ZM18.5693 10.0184L18.2529 9.97033L18.2258 10.1491L18.3649 10.2646L18.5693 10.0184ZM18.9328 8.33629L18.9286 8.01632L18.6894 8.01944L18.6247 8.2498L18.9328 8.33629ZM19.0456 4.71418L19.277 4.49321L19.1271 4.33621L18.9259 4.41742L19.0456 4.71418ZM17.8271 4.86813L17.5215 4.77319L17.359 5.29611L17.8944 5.18098L17.8271 4.86813ZM18.2645 3.90567L18.4554 3.64882L18.1604 3.42962L17.9839 3.75194L18.2645 3.90567ZM22.7383 9.3654L22.4194 9.33845L22.4194 9.33853L22.7383 9.3654ZM17.712 17.6681L17.9018 17.9258L17.9018 17.9258L17.712 17.6681ZM8.90393 16.0082L8.79754 15.7064L8.48116 15.8179L8.60748 16.1287L8.90393 16.0082ZM20.738 3.98978L20.9511 3.75107C19.1362 2.13074 17.2474 1.04462 15.3051 0.776475C13.3488 0.506412 11.3831 1.07223 9.44153 2.66653L9.64461 2.91384L9.84768 3.16115C11.6727 1.66257 13.4637 1.16834 15.2176 1.41046C16.9853 1.6545 18.7599 2.65279 20.5249 4.22849L20.738 3.98978ZM9.64461 2.91384L9.44156 2.66651C8.90702 3.10533 8.13574 3.51689 7.34727 3.99412C6.5901 4.4524 5.80923 4.97645 5.39048 5.61849L5.6585 5.7933L5.92653 5.96812C6.25455 5.4652 6.90856 5.00774 7.67866 4.54164C8.41745 4.09448 9.26584 3.63879 9.84765 3.16117L9.64461 2.91384ZM5.6585 5.7933L5.39047 5.6185C4.99594 6.22346 4.69096 7.15801 4.4978 8.08306C4.30383 9.01197 4.2124 9.98114 4.27289 10.6731L4.59168 10.6453L4.91046 10.6174C4.85741 10.0105 4.93744 9.1087 5.12429 8.21387C5.31195 7.31518 5.59715 6.47319 5.92654 5.9681L5.6585 5.7933ZM4.59168 10.6453L4.27289 10.6731C4.36869 11.7717 4.91652 12.7908 5.56848 13.7058C6.21525 14.6136 7.01257 15.4797 7.60835 16.2145L7.85691 16.013L8.10548 15.8114C7.4706 15.0284 6.7237 14.2243 6.08971 13.3345C5.46091 12.4519 4.99145 11.5461 4.91047 10.6175L4.59168 10.6453ZM7.85691 16.013L7.60841 16.2146C8.15543 16.8889 8.81487 17.7524 9.54956 18.4916C10.282 19.2284 11.1292 19.8847 12.0748 20.1113L12.1493 19.8001L12.2239 19.4889C11.4542 19.3045 10.7107 18.7519 10.0035 18.0404C9.29854 17.3311 8.66941 16.5066 8.10542 15.8114L7.85691 16.013ZM12.1493 19.8001L12.0746 20.1112C16.4994 21.1745 20.2062 17.9201 22.0913 14.4092L21.8094 14.2578L21.5275 14.1065C19.6925 17.524 16.2196 20.449 12.2241 19.4889L12.1493 19.8001ZM21.8094 14.2578L22.0913 14.4093C23.0203 12.68 23.9985 11.516 24.1117 9.38635L23.7922 9.36936L23.4726 9.35238C23.3694 11.2947 22.5158 12.2667 21.5275 14.1064L21.8094 14.2578ZM23.7922 9.36936L24.1117 9.38629C24.2424 6.919 22.7524 5.3604 20.9512 3.75115L20.738 3.98978L20.5248 4.22841C22.331 5.84216 23.5858 7.21611 23.4726 9.35244L23.7922 9.36936ZM16.5431 19.117L16.3955 18.833C15.0817 19.5162 13.6594 19.3541 12.2906 18.659C10.917 17.9616 9.62643 16.7388 8.63192 15.3678C7.63591 13.9948 6.96083 12.5063 6.78575 11.2991C6.69825 10.6957 6.73924 10.1882 6.90163 9.80402C7.05892 9.43192 7.33712 9.15644 7.77934 9.00976L7.6786 8.70604L7.57786 8.40231C6.95974 8.60733 6.54074 9.01402 6.31214 9.55483C6.08863 10.0836 6.05502 10.7196 6.15237 11.3909C6.34698 12.7329 7.07939 14.3175 8.11387 15.7436C9.14984 17.1718 10.5128 18.4741 12.0008 19.2297C13.4937 19.9877 15.1413 20.2066 16.6908 19.4009L16.5431 19.117ZM7.6786 8.70604L7.36529 8.64098C7.28483 9.02845 7.35796 9.48524 7.50634 9.90801C7.65678 10.3366 7.89733 10.7672 8.19372 11.1108C8.48554 11.4492 8.86057 11.7362 9.28757 11.8125C9.74299 11.8938 10.1872 11.7237 10.5575 11.2881L10.3136 11.0809L10.0698 10.8736C9.82129 11.166 9.59478 11.2172 9.40011 11.1824C9.17701 11.1426 8.92262 10.9761 8.67837 10.6928C8.43868 10.4149 8.2365 10.0558 8.11023 9.69606C7.98191 9.33045 7.94436 9.00014 7.99192 8.7711L7.6786 8.70604ZM10.3136 11.0809L10.5577 11.2879C10.8609 10.9304 10.9011 10.5295 10.7837 10.1522C10.6733 9.79764 10.4266 9.46653 10.1637 9.18121C9.89676 8.89155 9.58665 8.62136 9.3195 8.39395C9.03993 8.15596 8.82776 7.98077 8.71426 7.85558L8.47719 8.07051L8.24011 8.28544C8.38988 8.45065 8.65074 8.66514 8.90465 8.88129C9.17099 9.10801 9.45481 9.35639 9.69302 9.6149C9.93524 9.87776 10.1048 10.1244 10.1726 10.3424C10.2334 10.5377 10.2136 10.7041 10.0696 10.8739L10.3136 11.0809ZM8.47719 8.07051L8.69258 8.30716C8.84782 8.16587 9.1703 8.03604 9.43852 7.99958L9.39542 7.6825L9.35231 7.36541C9.00178 7.41306 8.54243 7.57842 8.26179 7.83386L8.47719 8.07051ZM9.39542 7.6825L9.09058 7.77985C9.51501 9.10886 10.7331 9.44705 11.5211 9.09214C11.9208 8.91213 12.2317 8.53373 12.1885 8.02122C12.1476 7.53756 11.7967 7.03568 11.1392 6.55327L10.9499 6.81127L10.7606 7.06926C11.3586 7.50806 11.5329 7.8632 11.5507 8.07504C11.5662 8.25801 11.4693 8.41357 11.2583 8.50859C10.825 8.70376 10.0104 8.55636 9.70025 7.58515L9.39542 7.6825ZM10.9499 6.81127L11.1325 7.07409C11.1369 7.07104 11.1735 7.05047 11.2802 7.05268C11.3831 7.05481 11.5189 7.07748 11.6875 7.12309C12.0245 7.21427 12.4371 7.38145 12.8793 7.57719C13.0987 7.67434 13.3214 7.77668 13.5425 7.87813C13.7627 7.97918 13.9815 8.07945 14.1893 8.1706C14.5957 8.34886 14.9921 8.50703 15.2947 8.56292L15.3529 8.24824L15.411 7.93356C15.1916 7.89305 14.8596 7.76577 14.4463 7.58449C14.2443 7.49587 14.0304 7.39785 13.8094 7.29646C13.5894 7.19546 13.3625 7.0912 13.1383 6.99197C12.6932 6.79494 12.2424 6.61022 11.8547 6.50531C11.6609 6.45288 11.4691 6.41646 11.2935 6.41282C11.1217 6.40926 10.9289 6.43625 10.7674 6.54845L10.9499 6.81127ZM15.3529 8.24824L15.2956 8.56308C16.0722 8.70422 17.0213 8.8899 17.8937 8.8099C18.788 8.72788 19.6389 8.36274 20.166 7.38801L19.8845 7.23579L19.6031 7.08358C19.2051 7.81953 18.5804 8.10423 17.8352 8.17257C17.0681 8.24292 16.2139 8.07949 15.4101 7.9334L15.3529 8.24824ZM19.8845 7.23579L20.1041 7.00304C19.7084 6.62968 19.2504 6.07988 18.9742 5.58115L18.6943 5.73616L18.4143 5.89116C18.7295 6.46042 19.2331 7.06115 19.665 7.46855L19.8845 7.23579ZM18.6943 5.73616L18.8183 6.03113C19.5556 5.72104 20.1755 5.80716 20.7782 6.12345C21.4037 6.45172 22.0022 7.02346 22.667 7.69093L22.8938 7.4651L23.1205 7.23928C22.4663 6.58247 21.8017 5.93785 21.0756 5.55676C20.3267 5.1637 19.5063 5.04748 18.5702 5.44118L18.6943 5.73616ZM22.8938 7.4651L22.6671 7.69101C23.3459 8.37204 23.5674 8.92554 23.5573 9.50061C23.5465 10.1098 23.2786 10.7907 22.8444 11.7378L23.1353 11.8711L23.4262 12.0045C23.8523 11.0751 24.1837 10.2754 24.1972 9.51189C24.2112 8.7143 23.8818 8.00304 23.1204 7.2392L22.8938 7.4651ZM23.1353 11.8711L22.8445 11.7376C21.5956 14.4569 18.9815 17.4882 16.3955 18.833L16.5431 19.117L16.6908 19.4009C19.4266 17.9781 22.1299 14.8268 23.4261 12.0047L23.1353 11.8711ZM12.3581 18.5187L12.2089 18.8018C12.7107 19.0662 13.3329 19.0824 13.9362 18.9584C14.5449 18.8333 15.172 18.5585 15.7148 18.1908C16.2563 17.8241 16.7327 17.3521 17.02 16.8194C17.3101 16.2814 17.413 15.6666 17.1668 15.0562L16.87 15.1759L16.5733 15.2956C16.7321 15.6893 16.6793 16.1029 16.4567 16.5156C16.2313 16.9335 15.8378 17.3345 15.3559 17.6609C14.8754 17.9864 14.3255 18.225 13.8073 18.3315C13.2836 18.4392 12.829 18.4051 12.5074 18.2356L12.3581 18.5187ZM16.87 15.1759L17.0695 15.4261C17.4993 15.0834 17.9075 14.693 18.2999 14.316C18.6963 13.9352 19.0756 13.5691 19.4628 13.2551L19.2612 13.0066L19.0597 12.7581C18.6475 13.0923 18.2476 13.4788 17.8565 13.8545C17.4613 14.2341 17.0736 14.6042 16.6705 14.9257L16.87 15.1759ZM19.2612 13.0066L18.9534 13.0941C18.9912 13.227 19.043 13.3477 19.0865 13.4472C19.1329 13.5534 19.1673 13.6302 19.1906 13.7045L19.4959 13.6088L19.8013 13.5131C19.7651 13.3977 19.7134 13.2834 19.6729 13.1908C19.6295 13.0915 19.5937 13.006 19.569 12.9191L19.2612 13.0066ZM19.4959 13.6088L19.5659 13.9211C20.2403 13.7699 20.6935 13.4769 20.8461 13.0101C20.9912 12.5661 20.8157 12.0969 20.5848 11.7096C20.1145 10.9204 19.2083 10.133 18.7737 9.77219L18.5693 10.0184L18.3649 10.2646C18.8058 10.6306 19.6283 11.3548 20.0351 12.0372C20.2428 12.3858 20.2929 12.6424 20.2377 12.8113C20.19 12.9573 20.0169 13.1641 19.4259 13.2966L19.4959 13.6088ZM18.5693 10.0184L18.8857 10.0665C18.9721 9.4982 19.0851 8.97782 19.2409 8.42278L18.9328 8.33629L18.6247 8.2498C18.462 8.8294 18.3434 9.37542 18.2529 9.97033L18.5693 10.0184ZM18.9328 8.33629L18.937 8.65627C19.7001 8.64633 20.2506 8.46796 20.5593 8.08906C20.8748 7.70186 20.8559 7.20921 20.7315 6.77638C20.6055 6.3378 20.3523 5.88558 20.0835 5.49226C19.8126 5.0957 19.513 4.74036 19.277 4.49321L19.0456 4.71418L18.8141 4.93515C19.0285 5.15971 19.3057 5.48822 19.5551 5.85331C19.8068 6.22163 20.0175 6.60883 20.1164 6.95309C20.217 7.3031 20.1838 7.53671 20.0631 7.68482C19.9357 7.84123 19.6282 8.00721 18.9286 8.01632L18.9328 8.33629ZM19.0456 4.71418L18.9259 4.41742C18.774 4.47869 18.627 4.49257 18.4382 4.49807C18.2575 4.50334 18.0176 4.49985 17.7598 4.55529L17.8271 4.86813L17.8944 5.18098C18.0794 5.1412 18.2422 5.14405 18.4568 5.1378C18.6632 5.13179 18.9042 5.11629 19.1653 5.01094L19.0456 4.71418ZM17.8271 4.86813L18.1327 4.96308C18.132 4.96524 18.1358 4.9542 18.1491 4.92203C18.1607 4.89384 18.1763 4.85746 18.1949 4.81481C18.2322 4.72971 18.2798 4.62407 18.3285 4.51776C18.4289 4.29849 18.5242 4.09762 18.5452 4.05939L18.2645 3.90567L17.9839 3.75194C17.9492 3.81527 17.8426 4.04168 17.7466 4.25128C17.6971 4.35941 17.6478 4.4686 17.6086 4.5582C17.5734 4.63878 17.5364 4.72516 17.5215 4.77319L17.8271 4.86813ZM18.2645 3.90567L18.0737 4.16252C18.9566 4.81859 20.082 5.49236 20.9999 6.35646C21.9059 7.20934 22.5182 8.17032 22.4194 9.33845L22.7383 9.3654L23.0572 9.39236C23.1802 7.93732 22.4018 6.79725 21.4386 5.89046C20.4872 4.99488 19.2649 4.25036 18.4554 3.64882L18.2645 3.90567ZM22.7383 9.3654L22.4194 9.33853C22.1466 12.5768 19.9531 15.62 17.5223 17.4105L17.712 17.6681L17.9018 17.9258C20.4348 16.0601 22.7646 12.865 23.0572 9.39227L22.7383 9.3654ZM17.712 17.6681L17.5223 17.4105C15.9297 18.5835 14.2705 19.2593 12.8186 19.1275C11.4024 18.9988 10.0962 18.0917 9.20037 15.8877L8.90393 16.0082L8.60748 16.1287C9.56866 18.4934 11.0469 19.6092 12.7607 19.7648C14.4388 19.9172 16.255 19.1387 17.9018 17.9258L17.712 17.6681ZM8.90393 16.0082L9.01031 16.31C9.2166 16.2373 9.38316 16.232 9.52503 16.2625C9.66962 16.2937 9.80989 16.3668 9.95426 16.4823C10.258 16.7254 10.517 17.0979 10.8377 17.5162C11.1376 17.9075 11.4961 18.3436 11.9696 18.5651C12.479 18.8035 13.0625 18.7713 13.7458 18.3692L13.5835 18.0934L13.4211 17.8176C12.8776 18.1375 12.5188 18.1155 12.2408 17.9854C11.9268 17.8385 11.6528 17.5276 11.3456 17.1269C11.0592 16.7531 10.7364 16.2885 10.3541 15.9826C10.1554 15.8237 9.92662 15.6944 9.65986 15.6369C9.39038 15.5788 9.10333 15.5986 8.79754 15.7064L8.90393 16.0082Z" fill="#967348" mask="url(#path-1-outside-1_8_8)"/>
</g>
<defs>
<filter id="filter0_d_8_8" x="0.254425" y="0.711823" width="27.9432" height="27.6041" filterUnits="userSpaceOnUse" color-interpolation-filters="sRGB">
<feFlood flood-opacity="0" result="BackgroundImageFix"/>
<feColorMatrix in="SourceAlpha" type="matrix" values="0 0 0 0 0 0 0 0 0 0 0 0 0 0 0 0 0 0 127 0" result="hardAlpha"/>
<feOffset dy="4"/>
<feGaussianBlur stdDeviation="2"/>
<feComposite in2="hardAlpha" operator="out"/>
<feColorMatrix type="matrix" values="0 0 0 0 0 0 0 0 0 0 0 0 0 0 0 0 0 0 0.25 0"/>
<feBlend mode="normal" in2="BackgroundImageFix" result="effect1_dropShadow_8_8"/>
<feBlend mode="normal" in="SourceGraphic" in2="effect1_dropShadow_8_8" result="shape"/>
</filter>
</defs>
</svg>
