<svg width="29" height="29" viewBox="0 0 29 29" fill="none" xmlns="http://www.w3.org/2000/svg">
<g id="PatellaLeft" filter="url(#filter0_d_7_6)">
<mask id="path-1-outside-1_7_6" maskUnits="userSpaceOnUse" x="4.04047" y="-0.0125122" width="21" height="21" fill="black">
<rect fill="white" x="4.04047" y="-0.0125122" width="21" height="21"/>
<path d="M21.2041 3.94537C17.6234 0.749346 13.8781 -0.223392 10.1099 2.86949C8.99586 3.78592 6.8706 4.60395 6.12534 5.7489C5.39991 6.85894 4.94422 9.30197 5.05776 10.6009C5.23531 12.6281 7.09311 14.4507 8.323 15.9686C9.43478 17.3381 10.9009 19.3447 12.6162 19.7557C16.8263 20.7674 20.4147 17.6777 22.2763 14.2135C23.2349 12.429 24.1516 11.361 24.2598 9.32501C24.3794 7.02241 23.007 5.55608 21.2041 3.94537Z"/>
<path d="M17.0084 19.0718C11.2819 22.0496 3.90407 10.0676 8.14392 8.66083C7.88864 9.89386 9.54145 12.4925 10.7782 11.0357C11.6743 9.98117 9.4683 8.60611 8.94175 8.02531C9.15968 7.82694 9.55136 7.67933 9.85998 7.63807C10.5953 9.9375 13.9268 8.60847 11.4152 6.76607C12.0774 6.30507 14.7727 8.01023 15.8182 8.20304C17.3978 8.49027 19.424 8.90128 20.3491 7.19059C19.9346 6.80021 19.453 6.22498 19.1588 5.69178C20.8307 4.98799 22.0385 6.09563 23.3591 7.4199C24.7993 8.86478 24.4594 9.94941 23.5991 11.8259C22.3273 14.5975 19.6702 17.6888 17.0084 19.0718Z"/>
<path d="M12.8242 18.4735C14.4702 19.3415 18.1446 17.1389 17.3361 15.1315C18.1698 14.4666 18.9287 13.6096 19.7265 12.9622C19.7898 13.1812 19.9018 13.374 19.9628 13.5636C22.4927 12.9963 19.9117 10.7001 19.0369 9.97326C19.1246 9.39166 19.2396 8.8592 19.3989 8.29109C22.325 8.25301 20.4116 5.61244 19.5109 4.66903C19.0979 4.83565 18.7352 4.72772 18.2932 4.82293C18.326 4.71502 18.6757 3.96203 18.7306 3.86046C20.4223 5.11809 23.4261 6.69709 23.2044 9.32025C22.9202 12.6758 20.6593 15.7948 18.1774 17.6229C14.9388 20.0088 11.2263 20.5317 9.37001 15.9638C11.4175 15.241 11.5951 19.4923 14.0488 18.0482"/>
</mask>
<path d="M21.2041 3.94537C17.6234 0.749346 13.8781 -0.223392 10.1099 2.86949C8.99586 3.78592 6.8706 4.60395 6.12534 5.7489C5.39991 6.85894 4.94422 9.30197 5.05776 10.6009C5.23531 12.6281 7.09311 14.4507 8.323 15.9686C9.43478 17.3381 10.9009 19.3447 12.6162 19.7557C16.8263 20.7674 20.4147 17.6777 22.2763 14.2135C23.2349 12.429 24.1516 11.361 24.2598 9.32501C24.3794 7.02241 23.007 5.55608 21.2041 3.94537Z" fill="#F3D48C"/>
<path d="M17.0084 19.0718C11.2819 22.0496 3.90407 10.0676 8.14392 8.66083C7.88864 9.89386 9.54145 12.4925 10.7782 11.0357C11.6743 9.98117 9.4683 8.60611 8.94175 8.02531C9.15968 7.82694 9.55136 7.67933 9.85998 7.63807C10.5953 9.9375 13.9268 8.60847 11.4152 6.76607C12.0774 6.30507 14.7727 8.01023 15.8182 8.20304C17.3978 8.49027 19.424 8.90128 20.3491 7.19059C19.9346 6.80021 19.453 6.22498 19.1588 5.69178C20.8307 4.98799 22.0385 6.09563 23.3591 7.4199C24.7993 8.86478 24.4594 9.94941 23.5991 11.8259C22.3273 14.5975 19.6702 17.6888 17.0084 19.0718Z" fill="#DCC06D"/>
<path d="M12.8242 18.4735C14.4702 19.3415 18.1446 17.1389 17.3361 15.1315C18.1698 14.4666 18.9287 13.6096 19.7265 12.9622C19.7898 13.1812 19.9018 13.374 19.9628 13.5636C22.4927 12.9963 19.9117 10.7001 19.0369 9.97326C19.1246 9.39166 19.2396 8.8592 19.3989 8.29109C22.325 8.25301 20.4116 5.61244 19.5109 4.66903C19.0979 4.83565 18.7352 4.72772 18.2932 4.82293C18.326 4.71502 18.6757 3.96203 18.7306 3.86046C20.4223 5.11809 23.4261 6.69709 23.2044 9.32025C22.9202 12.6758 20.6593 15.7948 18.1774 17.6229C14.9388 20.0088 11.2263 20.5317 9.37001 15.9638C11.4175 15.241 11.5951 19.4923 14.0488 18.0482" fill="#CCB25C"/>
<path d="M21.2041 3.94537L21.4173 3.70674L21.4172 3.70664L21.2041 3.94537ZM10.1099 2.86949L9.9069 2.62214L9.90663 2.62236L10.1099 2.86949ZM6.12534 5.7489L6.39321 5.92396L6.39354 5.92347L6.12534 5.7489ZM5.05776 10.6009L4.73898 10.6287L4.73898 10.6288L5.05776 10.6009ZM8.323 15.9686L8.07437 16.17L8.07456 16.1703L8.323 15.9686ZM12.6162 19.7557L12.691 19.4446L12.6908 19.4445L12.6162 19.7557ZM22.2763 14.2135L22.5581 14.365L22.5582 14.3649L22.2763 14.2135ZM24.2598 9.32501L24.5793 9.34199L24.5793 9.34161L24.2598 9.32501ZM17.0084 19.0718L16.8609 18.7878L16.8608 18.7878L17.0084 19.0718ZM8.14392 8.66083L8.45727 8.72571L8.56976 8.18238L8.04314 8.35712L8.14392 8.66083ZM10.7782 11.0357L10.5344 10.8284L10.5343 10.8286L10.7782 11.0357ZM8.94175 8.02531L8.72635 7.78865L8.49016 8.00363L8.70467 8.24024L8.94175 8.02531ZM9.85998 7.63807L10.1648 7.5406L10.0832 7.28539L9.81757 7.32089L9.85998 7.63807ZM11.4152 6.76607L11.2324 6.50344L10.865 6.75926L11.226 7.02409L11.4152 6.76607ZM15.8182 8.20304L15.7601 8.51773L15.7609 8.51788L15.8182 8.20304ZM20.3491 7.19059L20.6306 7.34281L20.7476 7.12634L20.5685 6.95763L20.3491 7.19059ZM19.1588 5.69178L19.0347 5.39685L18.7068 5.53486L18.8787 5.84635L19.1588 5.69178ZM23.3591 7.4199L23.5857 7.19399L23.5857 7.19394L23.3591 7.4199ZM23.5991 11.8259L23.8899 11.9594L23.89 11.9593L23.5991 11.8259ZM17.3361 15.1315L17.1366 14.8813L16.9502 15.0299L17.0393 15.251L17.3361 15.1315ZM19.7265 12.9622L20.034 12.8734L19.9 12.4093L19.5249 12.7137L19.7265 12.9622ZM19.9628 13.5636L19.6581 13.6615L19.7476 13.9398L20.0328 13.8758L19.9628 13.5636ZM19.0369 9.97326L18.7205 9.92558L18.6936 10.1041L18.8324 10.2194L19.0369 9.97326ZM19.3989 8.29109L19.3947 7.97112L19.1554 7.97423L19.0908 8.20471L19.3989 8.29109ZM19.5109 4.66903L19.7424 4.44805L19.5925 4.29106L19.3912 4.37227L19.5109 4.66903ZM18.2932 4.82293L17.987 4.72996L17.829 5.25027L18.3606 5.13576L18.2932 4.82293ZM18.7306 3.86046L18.9215 3.60365L18.6248 3.38306L18.4491 3.70837L18.7306 3.86046ZM23.2044 9.32025L23.5232 9.34725L23.5233 9.3472L23.2044 9.32025ZM18.1774 17.6229L17.9876 17.3653L17.9876 17.3653L18.1774 17.6229ZM9.37001 15.9638L9.26349 15.6621L8.94733 15.7737L9.07356 16.0843L9.37001 15.9638ZM21.2041 3.94537L21.4172 3.70664C19.6019 2.08635 17.7133 1.00023 15.7711 0.732097C13.8149 0.462045 11.8492 1.02789 9.9069 2.62214L10.1099 2.86949L10.3129 3.11684C12.1388 1.61821 13.9298 1.12398 15.6835 1.36608C17.4512 1.61011 19.2256 2.60838 20.991 4.18411L21.2041 3.94537ZM10.1099 2.86949L9.90663 2.62236C9.37338 3.06101 8.60226 3.47249 7.81365 3.94973C7.05649 4.40793 6.27521 4.93207 5.85715 5.57433L6.12534 5.7489L6.39354 5.92347C6.72073 5.42078 7.37471 4.96343 8.145 4.49727C8.88385 4.05015 9.7324 3.5944 10.3132 3.11662L10.1099 2.86949ZM6.12534 5.7489L5.85747 5.57384C5.46205 6.1789 5.15686 7.11359 4.96369 8.03865C4.76971 8.96763 4.67849 9.93678 4.73898 10.6287L5.05776 10.6009L5.37655 10.573C5.32349 9.96605 5.40334 9.06425 5.59018 8.16947C5.77783 7.27079 6.0632 6.42894 6.39321 5.92396L6.12534 5.7489ZM5.05776 10.6009L4.73898 10.6288C4.8352 11.7274 5.38319 12.7464 6.03514 13.6614C6.68184 14.5691 7.47905 15.4353 8.07437 16.17L8.323 15.9686L8.57163 15.7671C7.93705 14.984 7.19042 14.18 6.55637 13.2901C5.92755 12.4075 5.45787 11.5016 5.37654 10.5729L5.05776 10.6009ZM8.323 15.9686L8.07456 16.1703C8.62191 16.8445 9.28157 17.708 10.0163 18.4472C10.7488 19.1841 11.596 19.8403 12.5416 20.0669L12.6162 19.7557L12.6908 19.4445C11.9211 19.2601 11.1776 18.7076 10.4702 17.996C9.76516 17.2867 9.13586 16.4621 8.57144 15.7669L8.323 15.9686ZM12.6162 19.7557L12.5414 20.0669C16.9663 21.1301 20.6715 17.8757 22.5581 14.365L22.2763 14.2135L21.9944 14.062C20.1578 17.4797 16.6864 20.4047 12.691 19.4446L12.6162 19.7557ZM22.2763 14.2135L22.5582 14.3649C23.487 12.6358 24.4661 11.4716 24.5793 9.34199L24.2598 9.32501L23.9402 9.30802C23.837 11.2504 22.9827 12.2222 21.9944 14.062L22.2763 14.2135ZM24.2598 9.32501L24.5793 9.34161C24.7076 6.87377 23.2178 5.31528 21.4173 3.70674L21.2041 3.94537L20.9909 4.18401C22.7963 5.79689 24.0513 7.17104 23.9402 9.3084L24.2598 9.32501ZM17.0084 19.0718L16.8608 18.7878C15.547 19.471 14.1248 19.3089 12.7561 18.6138C11.3826 17.9164 10.0922 16.6936 9.09781 15.3226C8.1019 13.9496 7.42686 12.4611 7.2517 11.2538C7.16417 10.6505 7.2051 10.1429 7.36741 9.75876C7.52462 9.38665 7.80269 9.11121 8.24469 8.96455L8.14392 8.66083L8.04314 8.35712C7.42518 8.56216 7.00635 8.96888 6.77787 9.50968C6.55448 10.0384 6.52094 10.6745 6.61833 11.3457C6.81302 12.6876 7.54536 14.2723 8.57974 15.6984C9.61562 17.1265 10.9784 18.4289 12.4664 19.1845C13.9591 19.9425 15.6066 20.1614 17.1561 19.3557L17.0084 19.0718ZM8.14392 8.66083L7.83056 8.59596C7.75036 8.98336 7.82358 9.44013 7.97197 9.86292C8.12242 10.2916 8.3629 10.7222 8.65917 11.0659C8.95087 11.4043 9.32578 11.6913 9.75268 11.7676C10.2081 11.8489 10.6522 11.6786 11.0221 11.2428L10.7782 11.0357L10.5343 10.8286C10.2859 11.1212 10.0596 11.1723 9.86521 11.1376C9.64235 11.0978 9.38812 10.9313 9.14393 10.648C8.90432 10.37 8.70216 10.0108 8.57585 9.65097C8.4475 9.28526 8.40984 8.95482 8.45727 8.72571L8.14392 8.66083ZM10.7782 11.0357L11.022 11.2429C11.3258 10.8855 11.3663 10.4845 11.2489 10.1071C11.1386 9.75242 10.8918 9.42128 10.6288 9.13597C10.3617 8.8463 10.0515 8.5761 9.78422 8.3487C9.50452 8.11071 9.29229 7.93554 9.17882 7.81038L8.94175 8.02531L8.70467 8.24024C8.85447 8.40548 9.11546 8.61999 9.36948 8.83613C9.63594 9.06286 9.9199 9.31123 10.1582 9.56974C10.4005 9.83261 10.57 10.0792 10.6378 10.2971C10.6985 10.4923 10.6787 10.6586 10.5344 10.8284L10.7782 11.0357ZM8.94175 8.02531L9.15714 8.26196C9.3123 8.12074 9.63538 7.99095 9.90238 7.95525L9.85998 7.63807L9.81757 7.32089C9.46734 7.36772 9.00706 7.53315 8.72635 7.78865L8.94175 8.02531ZM9.85998 7.63807L9.55518 7.73554C9.98008 9.06421 11.1986 9.40196 11.9866 9.04702C12.3864 8.86699 12.6974 8.48859 12.6541 7.976C12.6132 7.49231 12.2621 6.99044 11.6045 6.50805L11.4152 6.76607L11.226 7.02409C11.8242 7.4629 11.9985 7.81805 12.0164 8.02987C12.0318 8.2128 11.9349 8.36839 11.7238 8.46348C11.2901 8.65881 10.4752 8.51136 10.1648 7.5406L9.85998 7.63807ZM11.4152 6.76607L11.5981 7.02869C11.6022 7.02584 11.6385 7.00527 11.745 7.00748C11.8478 7.00961 11.9834 7.03226 12.1519 7.07788C12.4887 7.16905 12.9012 7.33624 13.3434 7.53199C13.5629 7.62914 13.7856 7.73148 14.0068 7.83294C14.227 7.93399 14.4459 8.03426 14.6538 8.12542C15.0604 8.30369 15.4571 8.46185 15.7601 8.51773L15.8182 8.20304L15.8762 7.88835C15.6565 7.84782 15.3242 7.72053 14.9108 7.53927C14.7086 7.45065 14.4946 7.35263 14.2737 7.25124C14.0536 7.15025 13.8267 7.046 13.6025 6.94676C13.1574 6.74975 12.7067 6.56503 12.3192 6.46012C12.1255 6.40769 11.9338 6.37125 11.7583 6.36762C11.5867 6.36406 11.3939 6.39104 11.2324 6.50344L11.4152 6.76607ZM15.8182 8.20304L15.7609 8.51788C16.5371 8.65901 17.486 8.8447 18.3583 8.7647C19.2525 8.68268 20.1035 8.31754 20.6306 7.34281L20.3491 7.19059L20.0676 7.03838C19.6696 7.77433 19.045 8.05903 18.2999 8.12737C17.5329 8.19772 16.6789 8.0343 15.8754 7.8882L15.8182 8.20304ZM20.3491 7.19059L20.5685 6.95763C20.172 6.5842 19.7134 6.03463 19.439 5.53721L19.1588 5.69178L18.8787 5.84635C19.1925 6.41532 19.6972 7.01622 20.1297 7.42355L20.3491 7.19059ZM19.1588 5.69178L19.283 5.98671C20.0195 5.67668 20.6392 5.76256 21.2421 6.07872C21.8678 6.40681 22.4669 6.97841 23.1325 7.64586L23.3591 7.4199L23.5857 7.19394C22.9307 6.53712 22.2656 5.89276 21.5393 5.51191C20.7902 5.11913 19.9701 5.00308 19.0347 5.39685L19.1588 5.69178ZM23.3591 7.4199L23.1324 7.64581C23.8112 8.32677 24.0323 8.88019 24.0218 9.45523C24.0108 10.0644 23.7425 10.7454 23.3082 11.6926L23.5991 11.8259L23.89 11.9593C24.316 11.03 24.6478 10.2303 24.6617 9.46687C24.6762 8.66924 24.3472 7.95791 23.5857 7.19399L23.3591 7.4199ZM23.5991 11.8259L23.3083 11.6925C22.06 14.4126 19.4476 17.4438 16.8609 18.7878L17.0084 19.0718L17.156 19.3557C19.8927 17.9337 22.5946 14.7823 23.8899 11.9594L23.5991 11.8259ZM12.8242 18.4735L12.6749 18.7565C13.1765 19.0211 13.7986 19.0372 14.4017 18.9132C15.0103 18.7881 15.6372 18.5134 16.18 18.1457C16.7214 17.779 17.1978 17.3071 17.4853 16.7746C17.7755 16.2368 17.8787 15.6222 17.6329 15.0119L17.3361 15.1315L17.0393 15.251C17.1977 15.6445 17.1448 16.058 16.9221 16.4706C16.6965 16.8886 16.303 17.2894 15.8211 17.6158C15.3406 17.9413 14.7909 18.1799 14.2729 18.2863C13.7493 18.394 13.2949 18.3599 12.9735 18.1904L12.8242 18.4735ZM17.3361 15.1315L17.5356 15.3816C17.9658 15.0386 18.3742 14.648 18.7665 14.271C19.1628 13.8901 19.5418 13.5242 19.9282 13.2106L19.7265 12.9622L19.5249 12.7137C19.1135 13.0476 18.714 13.4338 18.323 13.8095C17.928 14.1891 17.5401 14.5595 17.1366 14.8813L17.3361 15.1315ZM19.7265 12.9622L19.4191 13.051C19.4572 13.1828 19.5088 13.3029 19.5525 13.4024C19.599 13.5085 19.6339 13.5861 19.6581 13.6615L19.9628 13.5636L20.2674 13.4657C20.2307 13.3514 20.1791 13.2379 20.1386 13.1454C20.0952 13.0463 20.0592 12.9605 20.034 12.8734L19.7265 12.9622ZM19.9628 13.5636L20.0328 13.8758C20.707 13.7247 21.1601 13.4316 21.3126 12.9649C21.4577 12.521 21.2823 12.0518 21.0515 11.6645C20.5814 10.8753 19.6756 10.0879 19.2414 9.72712L19.0369 9.97326L18.8324 10.2194C19.273 10.5854 20.0951 11.3096 20.5017 11.992C20.7093 12.3405 20.7595 12.5972 20.7043 12.7661C20.6565 12.9122 20.4835 13.1189 19.8928 13.2514L19.9628 13.5636ZM19.0369 9.97326L19.3534 10.0209C19.439 9.4527 19.5512 8.93317 19.707 8.37747L19.3989 8.29109L19.0908 8.20471C18.928 8.78524 18.8101 9.33061 18.7205 9.92558L19.0369 9.97326ZM19.3989 8.29109L19.4031 8.61106C20.1663 8.60113 20.7169 8.42278 21.0256 8.04385C21.3411 7.65659 21.322 7.1639 21.1975 6.7311C21.0713 6.29254 20.8179 5.84033 20.549 5.44703C20.278 5.0505 19.9783 4.69517 19.7424 4.44805L19.5109 4.66903L19.2795 4.89C19.4939 5.11459 19.7711 5.44311 20.0207 5.80821C20.2725 6.17654 20.4834 6.56375 20.5824 6.90802C20.6831 7.25805 20.65 7.4916 20.5294 7.63964C20.402 7.79601 20.0945 7.96201 19.3947 7.97112L19.3989 8.29109ZM19.5109 4.66903L19.3912 4.37227C19.2393 4.43354 19.0924 4.4474 18.9036 4.45289C18.7231 4.45815 18.4833 4.45464 18.2258 4.51011L18.2932 4.82293L18.3606 5.13576C18.5451 5.09601 18.7077 5.09886 18.9222 5.09262C19.1286 5.08662 19.3695 5.07114 19.6306 4.96579L19.5109 4.66903ZM18.2932 4.82293L18.5994 4.91591C18.5984 4.91907 18.6018 4.90883 18.6151 4.87656C18.6266 4.84854 18.6421 4.81229 18.6608 4.76967C18.698 4.68467 18.7457 4.5791 18.7945 4.47278C18.8947 4.25437 18.9908 4.05199 19.0121 4.01256L18.7306 3.86046L18.4491 3.70837C18.4155 3.7705 18.3093 3.9954 18.2128 4.20586C18.1632 4.31397 18.1138 4.42323 18.0745 4.51294C18.0395 4.59301 18.002 4.6806 17.987 4.72996L18.2932 4.82293ZM18.7306 3.86046L18.5397 4.11727C19.4223 4.77343 20.5476 5.44712 21.4657 6.31129C22.3718 7.16421 22.9843 8.1252 22.8855 9.29329L23.2044 9.32025L23.5233 9.3472C23.6463 7.89214 22.8677 6.75205 21.9044 5.84527C20.953 4.94974 19.7306 4.20512 18.9215 3.60365L18.7306 3.86046ZM23.2044 9.32025L22.8855 9.29324C22.6112 12.5316 20.4184 15.5748 17.9876 17.3653L18.1774 17.6229L18.3672 17.8806C20.9001 16.0148 23.2291 12.8199 23.5232 9.34725L23.2044 9.32025ZM18.1774 17.6229L17.9876 17.3653C16.3954 18.5383 14.7362 19.2141 13.2843 19.0824C11.8681 18.9538 10.5619 18.0469 9.66647 15.8433L9.37001 15.9638L9.07356 16.0843C10.0344 18.4487 11.5126 19.5642 13.2264 19.7197C14.9045 19.872 16.7208 19.0935 18.3672 17.8806L18.1774 17.6229ZM9.37001 15.9638L9.47654 16.2656C9.68273 16.1928 9.84919 16.1874 9.99095 16.2179C10.1354 16.249 10.2756 16.3221 10.4199 16.4375C10.7235 16.6804 10.9825 17.0529 11.3031 17.4712C11.603 17.8624 11.9615 18.2985 12.4349 18.52C12.9443 18.7583 13.5278 18.7262 14.2111 18.324L14.0488 18.0482L13.8865 17.7724C13.3429 18.0923 12.9841 18.0703 12.7061 17.9403C12.3922 17.7934 12.1182 17.4825 11.8111 17.0818C11.5246 16.7081 11.2019 16.2435 10.8197 15.9378C10.6211 15.7789 10.3923 15.6496 10.1256 15.5922C9.85616 15.5343 9.56917 15.5542 9.26349 15.6621L9.37001 15.9638Z" fill="#967348" mask="url(#path-1-outside-1_7_6)"/>
</g>
<defs>
<filter id="filter0_d_7_6" x="0.72049" y="0.66745" width="27.9417" height="27.6041" filterUnits="userSpaceOnUse" color-interpolation-filters="sRGB">
<feFlood flood-opacity="0" result="BackgroundImageFix"/>
<feColorMatrix in="SourceAlpha" type="matrix" values="0 0 0 0 0 0 0 0 0 0 0 0 0 0 0 0 0 0 127 0" result="hardAlpha"/>
<feOffset dy="4"/>
<feGaussianBlur stdDeviation="2"/>
<feComposite in2="hardAlpha" operator="out"/>
<feColorMatrix type="matrix" values="0 0 0 0 0 0 0 0 0 0 0 0 0 0 0 0 0 0 0.25 0"/>
<feBlend mode="normal" in2="BackgroundImageFix" result="effect1_dropShadow_7_6"/>
<feBlend mode="normal" in="SourceGraphic" in2="effect1_dropShadow_7_6" result="shape"/>
</filter>
</defs>
</svg>
