<svg width="43" height="94" viewBox="0 0 43 94" fill="none" xmlns="http://www.w3.org/2000/svg">
<g id="RadiusLeft" filter="url(#filter0_d_8_23)">
<mask id="path-1-outside-1_8_23" maskUnits="userSpaceOnUse" x="3.50644" y="-0.538849" width="35" height="86" fill="black">
<rect fill="white" x="3.50644" y="-0.538849" width="35" height="86"/>
<path d="M23.9009 83.1202C24.1379 83.6201 24.5197 84.0652 25.1179 84.4278C27.1037 85.6275 29.2282 84.2532 31.198 83.7684C33.4421 83.2162 36.3652 84.2231 37.5814 81.7785C38.7092 79.5108 37.6926 76.8305 36.5092 74.8286C34.9098 72.1182 33.8209 69.207 32.9925 66.1419C32.0743 62.7435 31.3397 59.2999 30.3354 55.8857C29.8675 54.2924 29.3112 52.7174 28.8076 51.1551C27.9411 48.4629 27.5152 45.7692 26.4301 43.1722C25.1621 40.1452 24.1486 37.0134 22.8204 34.0086C20.2959 28.2942 17.2226 22.7289 14.9823 16.9018C13.6374 13.4074 13.4751 9.57185 13.6214 5.84897C13.6755 4.51279 14.5548 2.30067 13.5177 1.20411C12.3442 -0.0352591 10.7288 0.493177 9.51487 1.22077C8.3246 1.93409 6.91641 1.56591 5.70328 2.36095C4.47491 3.16948 4.10381 4.57945 5.0068 5.8085C5.38552 6.32425 5.99969 6.59641 6.33879 7.17087C6.79067 7.931 6.77389 8.83395 6.87981 9.69167C7.11223 11.5785 7.05508 13.5034 7.08327 15.4482C7.1168 17.7492 7.96264 18.4538 8.87706 20.343C11.2507 25.2529 12.0608 30.8126 14.4916 35.7265C17.3385 41.483 20.0383 47.3347 21.4328 53.6815C22.0683 56.5744 23.2708 59.1397 23.5832 62.1151C23.968 65.769 23.638 69.4529 23.638 73.1155C23.6358 74.9579 23.638 76.8011 23.638 78.6443C23.638 80.1693 23.289 81.8276 23.9009 83.1202Z"/>
<path d="M13.264 3.28297C12.4349 5.95928 12.5439 8.35789 12.9622 11.227C13.4065 14.2405 15.2147 17.2699 15.4266 20.2208C13.536 17.8222 12.1598 16.171 12.2109 13.2202C12.2535 10.9263 12.8464 7.0114 11.9388 5.01349C10.8964 5.26898 10.3576 6.06403 9.46152 6.14972C8.49452 6.24414 7.89405 5.20233 6.71521 5.72442C7.33168 4.74054 7.85596 5.06982 8.66522 4.63659C8.69647 4.62072 13.6313 2.09517 13.264 3.28297Z"/>
<path d="M15.4761 27.6832C18.5295 30.515 20.0977 38.083 21.1386 42.1391C22.0904 45.8589 22.5644 49.5873 22.5598 53.4173C22.5362 50.2808 20.9939 47.2656 20.667 44.1537C20.4528 42.1153 19.828 40.0904 19.2222 38.1243C18.2338 34.9195 18.0182 30.3349 16.0202 27.6832"/>
<path d="M32.0987 72.5133C33.4132 74.2748 35.1818 77.9104 33.2813 79.6917C33.513 79.8146 33.7127 79.8472 33.9656 79.94C33.9039 80.3272 34.0754 80.8707 34.0464 81.2651C40.3589 82.337 33.0162 69.4879 32.3616 67.7748C32.293 67.97 32.1681 68.3342 32.1109 68.5199C28.2041 65.4952 29.834 56.0373 27.1654 51.5955C28.1019 55.9151 29.4065 60.3798 30.4017 64.7874C31.006 67.4614 31.4838 70.7423 32.9156 73.0798"/>
</mask>
<path d="M23.9009 83.1202C24.1379 83.6201 24.5197 84.0652 25.1179 84.4278C27.1037 85.6275 29.2282 84.2532 31.198 83.7684C33.4421 83.2162 36.3652 84.2231 37.5814 81.7785C38.7092 79.5108 37.6926 76.8305 36.5092 74.8286C34.9098 72.1182 33.8209 69.207 32.9925 66.1419C32.0743 62.7435 31.3397 59.2999 30.3354 55.8857C29.8675 54.2924 29.3112 52.7174 28.8076 51.1551C27.9411 48.4629 27.5152 45.7692 26.4301 43.1722C25.1621 40.1452 24.1486 37.0134 22.8204 34.0086C20.2959 28.2942 17.2226 22.7289 14.9823 16.9018C13.6374 13.4074 13.4751 9.57185 13.6214 5.84897C13.6755 4.51279 14.5548 2.30067 13.5177 1.20411C12.3442 -0.0352591 10.7288 0.493177 9.51487 1.22077C8.3246 1.93409 6.91641 1.56591 5.70328 2.36095C4.47491 3.16948 4.10381 4.57945 5.0068 5.8085C5.38552 6.32425 5.99969 6.59641 6.33879 7.17087C6.79067 7.931 6.77389 8.83395 6.87981 9.69167C7.11223 11.5785 7.05508 13.5034 7.08327 15.4482C7.1168 17.7492 7.96264 18.4538 8.87706 20.343C11.2507 25.2529 12.0608 30.8126 14.4916 35.7265C17.3385 41.483 20.0383 47.3347 21.4328 53.6815C22.0683 56.5744 23.2708 59.1397 23.5832 62.1151C23.968 65.769 23.638 69.4529 23.638 73.1155C23.6358 74.9579 23.638 76.8011 23.638 78.6443C23.638 80.1693 23.289 81.8276 23.9009 83.1202Z" fill="#F3D48C"/>
<path d="M13.264 3.28297C12.4349 5.95928 12.5439 8.35789 12.9622 11.227C13.4065 14.2405 15.2147 17.2699 15.4266 20.2208C13.536 17.8222 12.1598 16.171 12.2109 13.2202C12.2535 10.9263 12.8464 7.0114 11.9388 5.01349C10.8964 5.26898 10.3576 6.06403 9.46152 6.14972C8.49452 6.24414 7.89405 5.20233 6.71521 5.72442C7.33168 4.74054 7.85596 5.06982 8.66522 4.63659C8.69647 4.62072 13.6313 2.09517 13.264 3.28297Z" fill="#DCC06D"/>
<path d="M15.4761 27.6832C18.5295 30.515 20.0977 38.083 21.1386 42.1391C22.0904 45.8589 22.5644 49.5873 22.5598 53.4173C22.5362 50.2808 20.9939 47.2656 20.667 44.1537C20.4528 42.1153 19.828 40.0904 19.2222 38.1243C18.2338 34.9195 18.0182 30.3349 16.0202 27.6832" fill="#DCC06D"/>
<path d="M32.0987 72.5133C33.4132 74.2748 35.1818 77.9104 33.2813 79.6917C33.513 79.8146 33.7127 79.8472 33.9656 79.94C33.9039 80.3272 34.0754 80.8707 34.0464 81.2651C40.3589 82.337 33.0162 69.4879 32.3616 67.7748C32.293 67.97 32.1681 68.3342 32.1109 68.5199C28.2041 65.4952 29.834 56.0373 27.1654 51.5955C28.1019 55.9151 29.4065 60.3798 30.4017 64.7874C31.006 67.4614 31.4838 70.7423 32.9156 73.0798" fill="#DCC06D"/>
<path d="M23.9009 83.1202L23.6117 83.2571L23.6118 83.2573L23.9009 83.1202ZM25.1179 84.4278L24.952 84.7015L24.9524 84.7017L25.1179 84.4278ZM31.198 83.7684L31.1215 83.4577L31.1215 83.4577L31.198 83.7684ZM37.5814 81.7785L37.8679 81.921L37.8679 81.9209L37.5814 81.7785ZM36.5092 74.8286L36.2336 74.9912L36.2338 74.9914L36.5092 74.8286ZM32.9925 66.1419L32.6836 66.2253L32.6836 66.2254L32.9925 66.1419ZM30.3354 55.8857L30.0284 55.9759L30.0284 55.976L30.3354 55.8857ZM28.8076 51.1551L28.5029 51.2532L28.503 51.2533L28.8076 51.1551ZM26.4301 43.1722L26.7253 43.0488L26.7252 43.0486L26.4301 43.1722ZM22.8204 34.0086L22.5277 34.1379L22.5277 34.138L22.8204 34.0086ZM14.9823 16.9018L15.281 16.7869L15.281 16.7868L14.9823 16.9018ZM13.6214 5.84897L13.3016 5.83602L13.3016 5.8364L13.6214 5.84897ZM13.5177 1.20411L13.7502 0.98423L13.7501 0.984099L13.5177 1.20411ZM9.51487 1.22077L9.67936 1.49526L9.67938 1.49524L9.51487 1.22077ZM5.70328 2.36095L5.52788 2.09331L5.52734 2.09366L5.70328 2.36095ZM5.0068 5.8085L5.26473 5.6191L5.26468 5.61904L5.0068 5.8085ZM6.33879 7.17087L6.06322 7.33354L6.06372 7.33439L6.33879 7.17087ZM6.87981 9.69167L7.19741 9.65255L7.1974 9.65245L6.87981 9.69167ZM7.08327 15.4482L6.7633 15.4528L6.7633 15.4528L7.08327 15.4482ZM8.87706 20.343L9.16516 20.2037L9.16509 20.2036L8.87706 20.343ZM14.4916 35.7265L14.7784 35.5846L14.7784 35.5846L14.4916 35.7265ZM21.4328 53.6815L21.7453 53.6128L21.7453 53.6128L21.4328 53.6815ZM23.5832 62.1151L23.2649 62.1485L23.265 62.1486L23.5832 62.1151ZM23.638 73.1155L23.958 73.1159V73.1155H23.638ZM13.264 3.28297L13.5697 3.37766L13.5697 3.3775L13.264 3.28297ZM12.9622 11.227L12.6456 11.2732L12.6457 11.2737L12.9622 11.227ZM15.4266 20.2208L15.1753 20.4189L15.8204 21.2374L15.7457 20.1979L15.4266 20.2208ZM12.2109 13.2202L11.8909 13.2142L11.8909 13.2146L12.2109 13.2202ZM11.9388 5.01349L12.2302 4.88114L12.1204 4.63951L11.8627 4.70269L11.9388 5.01349ZM9.46152 6.14972L9.43105 5.83117L9.43042 5.83123L9.46152 6.14972ZM6.71521 5.72442L6.44404 5.55451L5.88904 6.4403L6.8448 6.01701L6.71521 5.72442ZM8.66522 4.63659L8.52027 4.35122L8.5142 4.35448L8.66522 4.63659ZM21.1386 42.1391L21.4487 42.0598L21.4486 42.0596L21.1386 42.1391ZM22.5598 53.4173L22.2398 53.4197L22.8798 53.4177L22.5598 53.4173ZM20.667 44.1537L20.3487 44.1871L20.3487 44.1871L20.667 44.1537ZM19.2222 38.1243L19.528 38.03L19.528 38.03L19.2222 38.1243ZM33.2813 79.6917L33.0625 79.4582L32.7359 79.7644L33.1313 79.9743L33.2813 79.6917ZM33.9656 79.94L34.2816 79.9904L34.3231 79.7303L34.0759 79.6396L33.9656 79.94ZM34.0464 81.2651L33.7273 81.2416L33.706 81.5318L33.9928 81.5806L34.0464 81.2651ZM32.3616 67.7748L32.6605 67.6606L32.349 66.8453L32.0597 67.6687L32.3616 67.7748ZM32.1109 68.5199L31.915 68.7729L32.2807 69.056L32.4167 68.614L32.1109 68.5199ZM27.1654 51.5955L27.4397 51.4307L26.8527 51.6633L27.1654 51.5955ZM30.4017 64.7874L30.0896 64.8579L30.0896 64.858L30.4017 64.7874ZM23.9009 83.1202L23.6118 83.2573C23.8766 83.8158 24.3023 84.3076 24.952 84.7015L25.1179 84.4278L25.2838 84.1542C24.7372 83.8228 24.3993 83.4243 24.1901 82.9831L23.9009 83.1202ZM25.1179 84.4278L24.9524 84.7017C26.0488 85.3641 27.1759 85.3044 28.2409 85.0404C28.771 84.909 29.2976 84.724 29.8023 84.5466C30.3127 84.3672 30.7998 84.196 31.2745 84.0792L31.198 83.7684L31.1215 83.4577C30.6113 83.5833 30.0941 83.7656 29.5901 83.9428C29.0804 84.1219 28.5825 84.2964 28.087 84.4192C27.1009 84.6636 26.1728 84.6913 25.2834 84.1539L25.1179 84.4278ZM31.198 83.7684L31.2745 84.0792C31.8014 83.9495 32.3769 83.9094 32.9824 83.8881C33.5769 83.8671 34.2123 83.8643 34.8088 83.8013C36.0201 83.6734 37.189 83.2857 37.8679 81.921L37.5814 81.7785L37.2949 81.6359C36.7576 82.7158 35.8569 83.047 34.7416 83.1649C34.1748 83.2247 33.5826 83.2265 32.9599 83.2485C32.3481 83.2701 31.7167 83.3112 31.1215 83.4577L31.198 83.7684ZM37.5814 81.7785L37.8679 81.9209C39.0759 79.492 37.9725 76.6751 36.7847 74.6657L36.5092 74.8286L36.2338 74.9914C37.4127 76.9858 38.3425 79.5295 37.2949 81.636L37.5814 81.7785ZM36.5092 74.8286L36.7848 74.666C35.2041 71.9873 34.1247 69.1049 33.3015 66.0584L32.9925 66.1419L32.6836 66.2254C33.517 69.309 34.6154 72.249 36.2336 74.9912L36.5092 74.8286ZM32.9925 66.1419L33.3015 66.0584C32.3914 62.6904 31.6456 59.2059 30.6424 55.7954L30.3354 55.8857L30.0284 55.976C31.0338 59.394 31.7572 62.7966 32.6836 66.2253L32.9925 66.1419ZM30.3354 55.8857L30.6424 55.7955C30.1732 54.1978 29.6119 52.6071 29.1121 51.0569L28.8076 51.1551L28.503 51.2533C29.0106 52.8277 29.5618 54.3871 30.0284 55.9759L30.3354 55.8857ZM28.8076 51.1551L29.1122 51.0571C28.6825 49.722 28.363 48.3899 28.0103 47.0467C27.6591 45.7092 27.2768 44.3687 26.7253 43.0488L26.4301 43.1722L26.1348 43.2956C26.6684 44.5726 27.0417 45.8776 27.3913 47.2092C27.7395 48.5352 28.0662 49.8961 28.5029 51.2532L28.8076 51.1551ZM26.4301 43.1722L26.7252 43.0486C26.0941 41.5418 25.5262 40.0088 24.9473 38.4695C24.3694 36.9325 23.7812 35.3908 23.1131 33.8793L22.8204 34.0086L22.5277 34.138C23.1878 35.6313 23.7704 37.1578 24.3483 38.6947C24.9253 40.2292 25.4981 41.7755 26.1349 43.2958L26.4301 43.1722ZM22.8204 34.0086L23.1131 33.8793C21.8481 31.0158 20.4447 28.1879 19.0831 25.3587C17.7198 22.526 16.3962 19.6877 15.281 16.7869L14.9823 16.9018L14.6836 17.0166C15.8087 19.943 17.1419 22.8009 18.5064 25.6362C19.8726 28.475 21.2682 31.287 22.5277 34.1379L22.8204 34.0086ZM14.9823 16.9018L15.281 16.7868C13.9599 13.3545 13.7953 9.57201 13.9411 5.86153L13.6214 5.84897L13.3016 5.8364C13.1548 9.57169 13.3148 13.4603 14.6837 17.0167L14.9823 16.9018ZM13.6214 5.84897L13.9411 5.86191C13.9536 5.55314 14.0145 5.1854 14.0888 4.77011C14.1618 4.36286 14.2468 3.91411 14.2967 3.47265C14.3944 2.60935 14.3763 1.64616 13.7502 0.98423L13.5177 1.20411L13.2852 1.424C13.6963 1.85862 13.757 2.54977 13.6608 3.40071C13.6138 3.81637 13.5336 4.23972 13.4589 4.65731C13.3855 5.06686 13.3162 5.4767 13.3016 5.83602L13.6214 5.84897ZM13.5177 1.20411L13.7501 0.984099C13.0854 0.282048 12.2854 0.0801743 11.5005 0.156326C10.7307 0.231014 9.97592 0.571341 9.35035 0.946302L9.51487 1.22077L9.67938 1.49524C10.2677 1.14261 10.9276 0.854921 11.5623 0.793335C12.182 0.733212 12.7766 0.886807 13.2854 1.42413L13.5177 1.20411ZM9.51487 1.22077L9.35037 0.94629C8.81965 1.26434 8.23704 1.34513 7.57083 1.44366C6.9222 1.53959 6.20039 1.65257 5.52788 2.09331L5.70328 2.36095L5.87869 2.62859C6.4193 2.2743 7.00815 2.17384 7.66447 2.07677C8.3032 1.9823 9.01981 1.89052 9.67936 1.49526L9.51487 1.22077ZM5.70328 2.36095L5.52734 2.09366C4.85456 2.53649 4.39725 3.15758 4.24324 3.85834C4.08833 4.56317 4.24779 5.31588 4.74892 5.99797L5.0068 5.8085L5.26468 5.61904C4.86282 5.07207 4.75633 4.50527 4.86832 3.99572C4.98121 3.4821 5.32364 2.99394 5.87922 2.62824L5.70328 2.36095ZM5.0068 5.8085L4.74887 5.99791C4.96627 6.29397 5.25058 6.51847 5.48185 6.71271C5.72464 6.91662 5.92415 7.09794 6.06322 7.33354L6.33879 7.17087L6.61436 7.0082C6.41433 6.66934 6.13721 6.42735 5.89346 6.22263C5.63818 6.00823 5.42604 5.83879 5.26473 5.6191L5.0068 5.8085ZM6.33879 7.17087L6.06372 7.33439C6.26013 7.66478 6.36027 8.03522 6.42272 8.44311C6.45397 8.64716 6.47521 8.85621 6.49554 9.07275C6.51561 9.28658 6.53501 9.51045 6.56223 9.73089L6.87981 9.69167L7.1974 9.65245C7.17166 9.44403 7.15343 9.23339 7.13274 9.01293C7.1123 8.79518 7.08964 8.57016 7.05535 8.34624C6.98674 7.89819 6.86932 7.43709 6.61386 7.00735L6.33879 7.17087ZM6.87981 9.69167L6.56221 9.73079C6.79182 11.5948 6.73483 13.4888 6.7633 15.4528L7.08327 15.4482L7.40324 15.4435C7.37532 13.5181 7.43264 11.5622 7.19741 9.65255L6.87981 9.69167ZM7.08327 15.4482L6.7633 15.4528C6.79821 17.8483 7.71203 18.6705 8.58902 20.4824L8.87706 20.343L9.16509 20.2036C8.21325 18.237 7.43539 17.6501 7.40324 15.4435L7.08327 15.4482ZM8.87706 20.343L8.58896 20.4823C9.76324 22.9113 10.5524 25.5044 11.357 28.1271C12.159 30.7415 12.9761 33.3845 14.2048 35.8683L14.4916 35.7265L14.7784 35.5846C13.5763 33.1545 12.773 30.5607 11.9688 27.9394C11.1672 25.3263 10.3645 22.6846 9.16516 20.2037L8.87706 20.343ZM14.4916 35.7265L14.2048 35.8683C17.0508 41.6231 19.7348 47.4446 21.1202 53.7502L21.4328 53.6815L21.7453 53.6128C20.3418 47.2247 17.6261 41.3428 14.7784 35.5846L14.4916 35.7265ZM21.4328 53.6815L21.1202 53.7502C21.4416 55.213 21.9075 56.5974 22.3231 57.9607C22.7409 59.3313 23.1121 60.6925 23.2649 62.1485L23.5832 62.1151L23.9014 62.0817C23.7419 60.5623 23.3556 59.1531 22.9352 57.7741C22.5126 56.3876 22.0595 55.0429 21.7453 53.6128L21.4328 53.6815ZM23.5832 62.1151L23.265 62.1486C23.6476 65.7816 23.318 69.4131 23.318 73.1155H23.638H23.958C23.958 69.4928 24.2884 65.7563 23.9014 62.0816L23.5832 62.1151ZM23.638 73.1155L23.318 73.1151C23.3158 74.9578 23.318 76.8017 23.318 78.6443H23.638H23.958C23.958 76.8006 23.9558 74.9581 23.958 73.1159L23.638 73.1155ZM23.638 78.6443H23.318C23.318 79.0148 23.2968 79.3955 23.2736 79.7863C23.2506 80.174 23.2256 80.5727 23.2201 80.9649C23.2091 81.7468 23.2741 82.5439 23.6117 83.2571L23.9009 83.1202L24.1902 82.9833C23.9159 82.404 23.8495 81.7256 23.86 80.9739C23.8653 80.5994 23.8892 80.2168 23.9125 79.8242C23.9356 79.4348 23.958 79.0363 23.958 78.6443H23.638ZM13.264 3.28297L12.9583 3.18828C12.1085 5.93162 12.2246 8.38582 12.6456 11.2732L12.9622 11.227L13.2789 11.1808C12.8632 8.32996 12.7613 5.98695 13.5697 3.37766L13.264 3.28297ZM12.9622 11.227L12.6457 11.2737C12.8734 12.8185 13.4499 14.3628 13.98 15.8546C14.5157 17.3619 15.005 18.8178 15.1074 20.2437L15.4266 20.2208L15.7457 20.1979C15.6363 18.6729 15.1156 17.1387 14.5831 15.6403C14.0451 14.1262 13.4953 12.6491 13.2788 11.1803L12.9622 11.227ZM15.4266 20.2208L15.6779 20.0227C13.7771 17.6112 12.482 16.0462 12.5308 13.2257L12.2109 13.2202L11.8909 13.2146C11.8376 16.2958 13.2949 18.0332 15.1753 20.4189L15.4266 20.2208ZM12.2109 13.2202L12.5308 13.2261C12.5413 12.6618 12.5857 11.9955 12.6333 11.2721C12.6807 10.552 12.7308 9.77911 12.7511 9.01431C12.7911 7.50129 12.7178 5.9545 12.2302 4.88114L11.9388 5.01349L11.6475 5.14583C12.0675 6.07039 12.1515 7.48 12.1113 8.99737C12.0914 9.74776 12.0421 10.5086 11.9947 11.2301C11.9475 11.9483 11.9018 12.6316 11.8909 13.2142L12.2109 13.2202ZM11.9388 5.01349L11.8627 4.70269C11.2813 4.84517 10.8421 5.13926 10.4727 5.37579C10.0905 5.62058 9.79227 5.79663 9.43105 5.83117L9.46152 6.14972L9.49198 6.46827C10.0269 6.41711 10.4461 6.15279 10.8179 5.91476C11.2025 5.66847 11.5539 5.4373 12.015 5.32429L11.9388 5.01349ZM9.46152 6.14972L9.43042 5.83123C9.25165 5.84869 9.08257 5.81515 8.8991 5.74877C8.69998 5.67672 8.53291 5.58735 8.29628 5.48361C7.84189 5.28443 7.29413 5.11804 6.58563 5.43183L6.71521 5.72442L6.8448 6.01701C7.31513 5.8087 7.65702 5.90218 8.03933 6.06977C8.22105 6.14943 8.45909 6.27017 8.68135 6.35059C8.91928 6.43668 9.18788 6.49796 9.49261 6.4682L9.46152 6.14972ZM6.71521 5.72442L6.98638 5.89432C7.12537 5.67249 7.24965 5.53983 7.36132 5.4539C7.47129 5.36928 7.58242 5.31959 7.71172 5.27996C7.86472 5.23305 7.97888 5.21528 8.18727 5.16043C8.37487 5.11106 8.58486 5.04258 8.81625 4.91871L8.66522 4.63659L8.5142 4.35448C8.34095 4.44722 8.18194 4.50004 8.02437 4.54151C7.88758 4.57752 7.68041 4.62015 7.52413 4.66806C7.34413 4.72325 7.15802 4.80279 6.97103 4.94668C6.78572 5.08927 6.61328 5.28441 6.44404 5.55451L6.71521 5.72442ZM8.66522 4.63659L8.81014 4.9219C8.82592 4.91388 10.0567 4.28411 11.2347 3.80481C11.8295 3.56276 12.3846 3.37019 12.7584 3.30661C12.8498 3.29107 12.9216 3.28484 12.9751 3.28543C13.0319 3.28607 13.0486 3.29431 13.0426 3.29164C13.0278 3.285 12.9885 3.25867 12.9704 3.20574C12.9563 3.16452 12.9703 3.14957 12.9583 3.18843L13.264 3.28297L13.5697 3.3775C13.6036 3.26789 13.6221 3.13348 13.576 2.99877C13.526 2.85234 13.4183 2.75849 13.3036 2.70726C13.1978 2.66001 13.0832 2.6466 12.9822 2.64547C12.8779 2.64431 12.7655 2.65621 12.6511 2.67567C12.202 2.75205 11.5903 2.96915 10.9935 3.212C10.3894 3.45779 9.77478 3.74083 9.31063 3.96263C9.07822 4.0737 8.88278 4.16977 8.74433 4.23865C8.6751 4.27309 8.62007 4.30075 8.58177 4.3201C8.56262 4.32978 8.54765 4.33737 8.53717 4.3427C8.53193 4.34536 8.52783 4.34745 8.5249 4.34894C8.52344 4.34969 8.52228 4.35028 8.52144 4.35071C8.52042 4.35123 8.52023 4.35133 8.52031 4.35129L8.66522 4.63659ZM15.4761 27.6832L15.2585 27.9178C16.7191 29.2725 17.8544 31.7996 18.758 34.5519C19.6575 37.2915 20.3049 40.1777 20.8287 42.2187L21.1386 42.1391L21.4486 42.0596C20.9314 40.0444 20.2743 37.1186 19.3661 34.3523C18.462 31.5986 17.2865 28.9258 15.6937 27.4486L15.4761 27.6832ZM21.1386 42.1391L20.8286 42.2185C21.7738 45.9125 22.2443 49.6142 22.2398 53.4169L22.5598 53.4173L22.8798 53.4177C22.8844 49.5604 22.407 45.8052 21.4487 42.0598L21.1386 42.1391ZM22.5598 53.4173L22.8798 53.4149C22.8676 51.7994 22.4645 50.2244 22.0353 48.6901C21.6024 47.1427 21.1451 45.6427 20.9852 44.1203L20.667 44.1537L20.3487 44.1871C20.5157 45.7766 20.993 47.3401 21.4189 48.8625C21.8485 50.3978 22.2283 51.8987 22.2398 53.4197L22.5598 53.4173ZM20.667 44.1537L20.9852 44.1203C20.7673 42.0455 20.132 39.9904 19.528 38.03L19.2222 38.1243L18.9164 38.2185C19.5239 40.1904 20.1384 42.1852 20.3487 44.1871L20.667 44.1537ZM19.2222 38.1243L19.528 38.03C19.0379 36.4408 18.7469 34.5381 18.3118 32.6254C17.8837 30.743 17.3189 28.8751 16.2757 27.4906L16.0202 27.6832L15.7646 27.8758C16.7195 29.1431 17.2615 30.8933 17.6878 32.7673C18.1071 34.611 18.4181 36.6029 18.9164 38.2186L19.2222 38.1243ZM32.0987 72.5133L31.8422 72.7047C32.4828 73.5631 33.2314 74.8765 33.5869 76.1793C33.9459 77.4949 33.8799 78.6921 33.0625 79.4582L33.2813 79.6917L33.5002 79.9251C34.5833 78.9099 34.5831 77.3987 34.2043 76.0108C33.8221 74.6101 33.0291 73.225 32.3552 72.3219L32.0987 72.5133ZM33.2813 79.6917L33.1313 79.9743C33.2715 80.0487 33.3999 80.0944 33.5186 80.1321C33.6432 80.1717 33.7374 80.1971 33.8554 80.2404L33.9656 79.94L34.0759 79.6396C33.9409 79.5901 33.8088 79.5528 33.7124 79.5222C33.6101 79.4897 33.5229 79.4576 33.4314 79.409L33.2813 79.6917ZM33.9656 79.94L33.6496 79.8897C33.6101 80.1377 33.6463 80.4178 33.6766 80.6427C33.7103 80.8922 33.7387 81.086 33.7273 81.2416L34.0464 81.2651L34.3655 81.2885C34.3831 81.0498 34.3402 80.7747 34.3109 80.5571C34.2782 80.3148 34.2595 80.1296 34.2816 79.9904L33.9656 79.94ZM34.0464 81.2651L33.9928 81.5806C34.8224 81.7214 35.4885 81.6447 35.9832 81.3346C36.4855 81.0196 36.7488 80.5037 36.8535 79.9055C37.0581 78.7362 36.6836 77.1068 36.1194 75.4606C35.5491 73.7966 34.7607 72.0501 34.0775 70.6183C33.7357 69.902 33.4186 69.2613 33.1683 68.7496C32.9143 68.2305 32.7359 67.8579 32.6605 67.6606L32.3616 67.7748L32.0627 67.889C32.1509 68.1199 32.3452 68.5236 32.5934 69.0309C32.8452 69.5456 33.1599 70.1814 33.4999 70.8939C34.1802 72.3196 34.9558 74.0396 35.5139 75.6681C36.0781 77.3142 36.3967 78.8032 36.2231 79.7952C36.1387 80.2776 35.9451 80.6031 35.6433 80.7923C35.3338 80.9864 34.8485 81.0767 34.1 80.9496L34.0464 81.2651ZM32.3616 67.7748L32.0597 67.6687C31.9911 67.8638 31.8643 68.2334 31.8051 68.4257L32.1109 68.5199L32.4167 68.614C32.4718 68.435 32.5949 68.0762 32.6635 67.8809L32.3616 67.7748ZM32.1109 68.5199L32.3068 68.2668C31.403 67.5671 30.7992 66.4791 30.3702 65.1273C29.9416 63.7761 29.6984 62.197 29.4913 60.5492C29.2856 58.912 29.115 57.2013 28.8294 55.6312C28.5437 54.0609 28.137 52.5913 27.4397 51.4307L27.1654 51.5955L26.8911 51.7603C27.5281 52.8206 27.9183 54.1989 28.1997 55.7457C28.4811 57.2928 28.6476 58.9684 28.8563 60.629C29.0637 62.279 29.3123 63.9091 29.7602 65.3208C30.2079 66.7318 30.8653 67.9602 31.915 68.7729L32.1109 68.5199ZM27.1654 51.5955L26.8527 51.6633C27.3224 53.8299 27.8842 56.0316 28.4516 58.2382C29.0196 60.4467 29.5932 62.6597 30.0896 64.8579L30.4017 64.7874L30.7138 64.717C30.215 62.5076 29.6387 60.2844 29.0715 58.0788C28.5037 55.8712 27.9449 53.6807 27.4781 51.5277L27.1654 51.5955ZM30.4017 64.7874L30.0896 64.858C30.387 66.1742 30.6636 67.6895 31.0385 69.1399C31.4154 70.5979 31.9023 72.0382 32.6427 73.247L32.9156 73.0798L33.1885 72.9127C32.497 71.7839 32.0292 70.4151 31.6581 68.9797C31.2851 67.5367 31.0207 66.0746 30.7138 64.7169L30.4017 64.7874Z" fill="#967348" mask="url(#path-1-outside-1_8_23)"/>
</g>
<defs>
<filter id="filter0_d_8_23" x="0.186401" y="0.141211" width="42.205" height="93.0853" filterUnits="userSpaceOnUse" color-interpolation-filters="sRGB">
<feFlood flood-opacity="0" result="BackgroundImageFix"/>
<feColorMatrix in="SourceAlpha" type="matrix" values="0 0 0 0 0 0 0 0 0 0 0 0 0 0 0 0 0 0 127 0" result="hardAlpha"/>
<feOffset dy="4"/>
<feGaussianBlur stdDeviation="2"/>
<feComposite in2="hardAlpha" operator="out"/>
<feColorMatrix type="matrix" values="0 0 0 0 0 0 0 0 0 0 0 0 0 0 0 0 0 0 0.25 0"/>
<feBlend mode="normal" in2="BackgroundImageFix" result="effect1_dropShadow_8_23"/>
<feBlend mode="normal" in="SourceGraphic" in2="effect1_dropShadow_8_23" result="shape"/>
</filter>
</defs>
</svg>
