<svg width="29" height="98" viewBox="0 0 29 98" fill="none" xmlns="http://www.w3.org/2000/svg">
<g id="RadiusRight" filter="url(#filter0_d_8_17)">
<mask id="path-1-outside-1_8_17" maskUnits="userSpaceOnUse" x="4.14157" y="-0.254898" width="21" height="90" fill="black">
<rect fill="white" x="4.14157" y="-0.254898" width="21" height="90"/>
<path d="M5.7591 5.76383C6.40072 6.53031 7.69538 6.55411 8.23108 7.38803C8.88946 8.41 8.48559 10.3492 8.61132 11.5949C8.73477 12.8359 8.92908 14.222 9.48154 15.3464C10.2535 16.9134 11.4536 16.9626 12.4138 18.1226C14.4735 20.6141 15.4504 26.2817 15.9693 29.4643C16.8357 34.7923 16.854 39.9553 17.1863 45.3881C17.344 47.9771 17.0842 50.5384 17.1299 53.1385C17.2046 57.4105 16.361 61.5015 16.3831 65.7489C16.4029 69.4535 16.4692 73.2549 14.8256 76.6517C13.9866 78.3854 10.2428 81.8829 13.0813 83.65C10.748 86.1866 15.2584 90.9838 17.0712 87.1642C16.9676 87.3824 19.8259 89.9365 20.8211 86.8563C21.26 85.4947 20.7776 84.345 20.8066 82.9628C21.6273 84.568 21.0947 85.8034 21.2051 87.4189C21.2684 88.3464 20.6778 88.2266 21.7286 88.9002C22.1836 89.193 22.7741 89.3247 23.2679 89.0661C25.269 88.0195 23.7236 83.9324 23.8128 82.2281C24.0063 78.5052 22.989 74.7839 23.13 70.9777C23.2999 66.3638 23.6855 61.7515 23.7228 57.1336C23.764 52.1308 24.4216 47.0789 23.7792 42.1198C23.4683 39.7117 22.8679 37.6614 22.7307 35.2224C22.589 32.7293 22.2179 30.253 21.6311 27.8321C20.7594 24.2386 19.8358 20.8355 18.2729 17.568C17.3676 15.6749 17.2244 13.496 16.3496 11.5941C15.2561 9.21614 13.9843 7.74033 13.8029 4.89263C13.6962 3.22558 14.3043 1.85766 12.5075 0.995175C10.258 -0.0823342 2.99832 2.47339 5.7591 5.76383Z"/>
<path d="M13.5911 3.70403C13.1979 4.79502 11.8209 5.2108 10.8014 5.3568C10.2611 5.43535 7.4203 5.63291 7.06063 5.33537C7.20388 5.45438 8.01467 6.09311 8.19374 5.97172C8.10535 6.03202 7.91637 6.12009 7.82645 6.18357C9.368 7.36661 10.6322 8.92178 10.9233 11.0657C11.065 12.1107 11.1039 13.2953 11.2868 14.3157C11.4795 15.3995 11.7592 16.124 12.3079 17.3967C12.6698 14.3855 11.5161 11.2339 11.7402 8.09816C11.7661 7.74349 11.5748 6.94054 11.7821 6.65093C12.112 6.19152 12.6942 6.66758 12.9716 6.35178C13.6223 5.60832 13.614 4.82438 13.5911 3.70403Z"/>
<path d="M18.0306 82.382C17.3166 83.4103 15.1319 85.2551 15.2652 86.654C15.4207 88.2774 16.6422 86.8111 17.0583 86.1946C17.7631 85.148 17.5193 83.1183 18.0306 82.382Z"/>
<path d="M21.1419 87.472C22.0197 85.0076 21.1 82.0297 20.37 79.5938C19.7657 77.5769 19.5272 75.8099 19.3131 73.6398C19.0326 70.804 18.1731 68.1443 18.2805 65.1649C18.3735 62.6068 19.3237 59.867 19.0982 57.3192C19.0982 61.3912 18.3887 66.1805 19.7558 70.0002C19.9394 69.8201 20.3692 69.7249 20.4934 69.6241C20.6268 71.4617 21.5313 72.7543 21.9489 74.3102C22.4655 76.2367 22.5333 78.2942 22.7718 80.2365C23.0126 82.1932 24.6159 87.5958 21.5808 87.6521C21.4574 87.0816 21.516 86.4707 21.7553 85.9827"/>
<path d="M13.7846 19.1629C14.1946 20.8363 15.5106 22.3779 16.0379 24.0513C16.5119 25.5557 16.8518 27.2228 17.3097 28.7811C18.1091 31.5019 19.2353 34.8137 19.1431 37.6599C19.672 36.2975 17.3775 34.2813 17.2594 36.2189C16.4677 30.975 16.2391 25.1963 14.1938 20.2277"/>
<path d="M7.04005 4.90532C7.79445 6.56522 9.43049 5.51706 10.684 5.79318C10.7069 5.91062 10.7305 6.02805 10.7533 6.14628C10.9599 6.12882 11.2967 6.16135 11.5055 6.21451C11.5055 6.77628 11.6403 7.33408 11.8941 7.82602C11.9665 5.74479 12.9662 6.57792 13.5957 7.82602C13.5629 6.68107 13.444 5.37107 13.1308 4.2888C11.981 5.41154 8.52446 5.51628 7.04005 4.90532Z"/>
<path d="M22.6164 83.2643C22.986 85.4971 21.8247 89.4461 21.4848 85.2583C21.3514 83.619 20.9788 82.1416 20.3753 80.615C19.5005 78.4021 19.7108 75.8971 19.7108 73.4922C19.4944 77.2055 22.0556 79.862 22.6164 83.2643Z"/>
<path d="M15.0107 87.0459C14.7433 87.5799 14.7646 88.0409 15.0465 88.5035C15.8207 88.3567 16.9935 87.2824 17.2434 86.4239C16.2292 86.8587 15.6363 87.9473 14.3981 87.2586"/>
<path d="M14.6015 21.2909C15.3079 22.7326 15.4512 24.3608 15.6645 25.9048C15.7872 25.7779 15.8733 25.6525 15.9815 25.5629C17.3272 28.2701 17.8538 30.8957 18.4741 33.7926C18.9663 36.096 18.4878 39.3031 19.2574 41.2772C19.3413 37.2599 19.1027 33.8624 18.0321 30.0157C17.4301 27.8567 16.7458 23.2484 15.0107 21.9296"/>
<path d="M12.7628 80.8761C11.3515 82.8224 13.2939 83.8483 14.331 81.3712C13.7999 81.6735 13.1385 81.8758 12.5578 81.514"/>
</mask>
<path d="M5.7591 5.76383C6.40072 6.53031 7.69538 6.55411 8.23108 7.38803C8.88946 8.41 8.48559 10.3492 8.61132 11.5949C8.73477 12.8359 8.92908 14.222 9.48154 15.3464C10.2535 16.9134 11.4536 16.9626 12.4138 18.1226C14.4735 20.6141 15.4504 26.2817 15.9693 29.4643C16.8357 34.7923 16.854 39.9553 17.1863 45.3881C17.344 47.9771 17.0842 50.5384 17.1299 53.1385C17.2046 57.4105 16.361 61.5015 16.3831 65.7489C16.4029 69.4535 16.4692 73.2549 14.8256 76.6517C13.9866 78.3854 10.2428 81.8829 13.0813 83.65C10.748 86.1866 15.2584 90.9838 17.0712 87.1642C16.9676 87.3824 19.8259 89.9365 20.8211 86.8563C21.26 85.4947 20.7776 84.345 20.8066 82.9628C21.6273 84.568 21.0947 85.8034 21.2051 87.4189C21.2684 88.3464 20.6778 88.2266 21.7286 88.9002C22.1836 89.193 22.7741 89.3247 23.2679 89.0661C25.269 88.0195 23.7236 83.9324 23.8128 82.2281C24.0063 78.5052 22.989 74.7839 23.13 70.9777C23.2999 66.3638 23.6855 61.7515 23.7228 57.1336C23.764 52.1308 24.4216 47.0789 23.7792 42.1198C23.4683 39.7117 22.8679 37.6614 22.7307 35.2224C22.589 32.7293 22.2179 30.253 21.6311 27.8321C20.7594 24.2386 19.8358 20.8355 18.2729 17.568C17.3676 15.6749 17.2244 13.496 16.3496 11.5941C15.2561 9.21614 13.9843 7.74033 13.8029 4.89263C13.6962 3.22558 14.3043 1.85766 12.5075 0.995175C10.258 -0.0823342 2.99832 2.47339 5.7591 5.76383Z" fill="#F3D48C"/>
<path d="M13.5911 3.70403C13.1979 4.79502 11.8209 5.2108 10.8014 5.3568C10.2611 5.43535 7.4203 5.63291 7.06063 5.33537C7.20388 5.45438 8.01467 6.09311 8.19374 5.97172C8.10535 6.03202 7.91637 6.12009 7.82645 6.18357C9.368 7.36661 10.6322 8.92178 10.9233 11.0657C11.065 12.1107 11.1039 13.2953 11.2868 14.3157C11.4795 15.3995 11.7592 16.124 12.3079 17.3967C12.6698 14.3855 11.5161 11.2339 11.7402 8.09816C11.7661 7.74349 11.5748 6.94054 11.7821 6.65093C12.112 6.19152 12.6942 6.66758 12.9716 6.35178C13.6223 5.60832 13.614 4.82438 13.5911 3.70403Z" fill="#DCC06D"/>
<path d="M18.0306 82.382C17.3166 83.4103 15.1319 85.2551 15.2652 86.654C15.4207 88.2774 16.6422 86.8111 17.0583 86.1946C17.7631 85.148 17.5193 83.1183 18.0306 82.382Z" fill="#DCC06D"/>
<path d="M21.1419 87.472C22.0197 85.0076 21.1 82.0297 20.37 79.5938C19.7657 77.5769 19.5272 75.8099 19.3131 73.6398C19.0326 70.804 18.1731 68.1443 18.2805 65.1649C18.3735 62.6068 19.3237 59.867 19.0982 57.3192C19.0982 61.3912 18.3887 66.1805 19.7558 70.0002C19.9394 69.8201 20.3692 69.7249 20.4934 69.6241C20.6268 71.4617 21.5313 72.7543 21.9489 74.3102C22.4655 76.2367 22.5333 78.2942 22.7718 80.2365C23.0126 82.1932 24.6159 87.5958 21.5808 87.6521C21.4574 87.0816 21.516 86.4707 21.7553 85.9827" fill="#DCC06D"/>
<path d="M13.7846 19.1629C14.1946 20.8363 15.5106 22.3779 16.0379 24.0513C16.5119 25.5557 16.8518 27.2228 17.3097 28.7811C18.1091 31.5019 19.2353 34.8137 19.1431 37.6599C19.672 36.2975 17.3775 34.2813 17.2594 36.2189C16.4677 30.975 16.2391 25.1963 14.1938 20.2277" fill="#DCC06D"/>
<path d="M7.04005 4.90532C7.79445 6.56522 9.43049 5.51706 10.684 5.79318C10.7069 5.91062 10.7305 6.02805 10.7533 6.14628C10.9599 6.12882 11.2967 6.16135 11.5055 6.21451C11.5055 6.77628 11.6403 7.33408 11.8941 7.82602C11.9665 5.74479 12.9662 6.57792 13.5957 7.82602C13.5629 6.68107 13.444 5.37107 13.1308 4.2888C11.981 5.41154 8.52446 5.51628 7.04005 4.90532Z" fill="#CCB25C"/>
<path d="M22.6164 83.2643C22.986 85.4971 21.8247 89.4461 21.4848 85.2583C21.3514 83.619 20.9788 82.1416 20.3753 80.615C19.5005 78.4021 19.7108 75.8971 19.7108 73.4922C19.4944 77.2055 22.0556 79.862 22.6164 83.2643Z" fill="#CCB25C"/>
<path d="M15.0107 87.0459C14.7433 87.5799 14.7646 88.0409 15.0465 88.5035C15.8207 88.3567 16.9935 87.2824 17.2434 86.4239C16.2292 86.8587 15.6363 87.9473 14.3981 87.2586" fill="#CCB25C"/>
<path d="M14.6015 21.2909C15.3079 22.7326 15.4512 24.3608 15.6645 25.9048C15.7872 25.7779 15.8733 25.6525 15.9815 25.5629C17.3272 28.2701 17.8538 30.8957 18.4741 33.7926C18.9663 36.096 18.4878 39.3031 19.2574 41.2772C19.3413 37.2599 19.1027 33.8624 18.0321 30.0157C17.4301 27.8567 16.7458 23.2484 15.0107 21.9296" fill="#CCB25C"/>
<path d="M12.7628 80.8761C11.3515 82.8224 13.2939 83.8483 14.331 81.3712C13.7999 81.6735 13.1385 81.8758 12.5578 81.514" fill="#CCB25C"/>
<path d="M5.7591 5.76383L6.00448 5.55843L6.00425 5.55815L5.7591 5.76383ZM8.23108 7.38803L7.96184 7.56098L7.96207 7.56133L8.23108 7.38803ZM8.61132 11.5949L8.92975 11.5632L8.9297 11.5628L8.61132 11.5949ZM9.48154 15.3464L9.19434 15.4875L9.19448 15.4878L9.48154 15.3464ZM12.4138 18.1226L12.6604 17.9188L12.6603 17.9186L12.4138 18.1226ZM15.9693 29.4643L16.2852 29.4129L16.2852 29.4128L15.9693 29.4643ZM17.1863 45.3881L17.5057 45.3686L17.5057 45.3685L17.1863 45.3881ZM17.1299 53.1385L17.4498 53.1329L17.4498 53.1329L17.1299 53.1385ZM16.3831 65.7489L16.0631 65.7505L16.0631 65.7506L16.3831 65.7489ZM14.8256 76.6517L15.1136 76.7911L15.1136 76.7911L14.8256 76.6517ZM13.0813 83.65L13.3168 83.8666L13.5782 83.5824L13.2504 83.3783L13.0813 83.65ZM17.0712 87.1642L17.3603 87.3014L16.7822 87.0269L17.0712 87.1642ZM20.8211 86.8563L21.1256 86.9547L21.1257 86.9545L20.8211 86.8563ZM20.8066 82.9628L21.0915 82.8172L20.4867 82.9561L20.8066 82.9628ZM21.2051 87.4189L21.5244 87.3971L21.5244 87.397L21.2051 87.4189ZM21.7286 88.9002L21.9018 88.6312L21.9013 88.6308L21.7286 88.9002ZM23.2679 89.0661L23.1196 88.7825L23.1194 88.7826L23.2679 89.0661ZM23.8128 82.2281L24.1323 82.2448L24.1323 82.2447L23.8128 82.2281ZM23.13 70.9777L23.4498 70.9896L23.4498 70.9895L23.13 70.9777ZM23.7228 57.1336L23.4029 57.1309L23.4028 57.131L23.7228 57.1336ZM23.7792 42.1198L23.4619 42.1608L23.4619 42.161L23.7792 42.1198ZM22.7307 35.2224L23.0502 35.2044L23.0502 35.2042L22.7307 35.2224ZM21.6311 27.8321L21.9421 27.7567L21.9421 27.7567L21.6311 27.8321ZM18.2729 17.568L17.9842 17.7061L17.9842 17.7061L18.2729 17.568ZM16.3496 11.5941L16.0588 11.7278L16.0589 11.7278L16.3496 11.5941ZM13.8029 4.89263L14.1223 4.87229L14.1223 4.87219L13.8029 4.89263ZM12.5075 0.995175L12.646 0.706688L12.6457 0.706576L12.5075 0.995175ZM13.5911 3.70403L13.911 3.6975L13.29 3.59553L13.5911 3.70403ZM10.8014 5.3568L10.756 5.04003L10.7553 5.04012L10.8014 5.3568ZM7.06063 5.33537L7.2646 5.0888L6.85614 5.5815L7.06063 5.33537ZM8.19374 5.97172L8.37408 6.23606L8.01418 5.70684L8.19374 5.97172ZM7.82645 6.18357L7.6419 5.92214L7.28682 6.17281L7.63163 6.43743L7.82645 6.18357ZM10.9233 11.0657L11.2404 11.0227L11.2404 11.0226L10.9233 11.0657ZM11.2868 14.3157L11.6018 14.2596L11.6017 14.2592L11.2868 14.3157ZM12.3079 17.3967L12.014 17.5233L12.4839 18.6134L12.6256 17.4348L12.3079 17.3967ZM11.7402 8.09816L11.421 8.07485L11.421 8.07536L11.7402 8.09816ZM11.7821 6.65093L11.5222 6.46425L11.5218 6.46469L11.7821 6.65093ZM12.9716 6.35178L13.212 6.56296L13.2124 6.56255L12.9716 6.35178ZM18.0306 82.382L18.2934 82.5645L17.7677 82.1995L18.0306 82.382ZM15.2652 86.654L14.9467 86.6843L14.9467 86.6845L15.2652 86.654ZM17.0583 86.1946L17.3235 86.3736L17.3237 86.3733L17.0583 86.1946ZM20.37 79.5938L20.0634 79.6857L20.0634 79.6857L20.37 79.5938ZM19.3131 73.6398L19.6315 73.6083L19.6315 73.6083L19.3131 73.6398ZM18.2805 65.1649L17.9607 65.1533L17.9607 65.1534L18.2805 65.1649ZM19.0982 57.3192L19.4169 57.291L18.7782 57.3192H19.0982ZM19.7558 70.0002L19.4545 70.108L19.623 70.5787L19.9799 70.2287L19.7558 70.0002ZM20.4934 69.6241L20.8126 69.6009L20.7682 68.9891L20.2918 69.3756L20.4934 69.6241ZM21.9489 74.3102L22.2579 74.2274L22.2579 74.2273L21.9489 74.3102ZM22.7718 80.2365L22.4542 80.2755L22.4542 80.2756L22.7718 80.2365ZM21.5808 87.6521L21.2681 87.7198L21.3237 87.977L21.5868 87.9721L21.5808 87.6521ZM16.0379 24.0513L16.3431 23.9552L16.3431 23.9552L16.0379 24.0513ZM17.3097 28.7811L17.6167 28.6909L17.6167 28.6909L17.3097 28.7811ZM19.1431 37.6599L18.8233 37.6495L19.4414 37.7757L19.1431 37.6599ZM17.2594 36.2189L16.943 36.2667L17.5788 36.2384L17.2594 36.2189ZM7.04005 4.90532L7.16184 4.6094L6.41421 4.30169L6.74873 5.03772L7.04005 4.90532ZM10.684 5.79318L10.9981 5.73204L10.958 5.52586L10.7528 5.48068L10.684 5.79318ZM10.7533 6.14628L10.4392 6.20703L10.4938 6.48936L10.7803 6.46514L10.7533 6.14628ZM11.5055 6.21451H11.8255V5.96578L11.5844 5.90441L11.5055 6.21451ZM11.8941 7.82602L11.6097 7.97272L12.1713 9.0615L12.2139 7.83714L11.8941 7.82602ZM13.5957 7.82602L13.3099 7.97011L13.9155 7.81687L13.5957 7.82602ZM13.1308 4.2888L13.4382 4.19985L13.2897 3.68648L12.9073 4.05984L13.1308 4.2888ZM22.6164 83.2643L22.3007 83.3164L22.3007 83.3166L22.6164 83.2643ZM21.4848 85.2583L21.8038 85.2324L21.8037 85.2323L21.4848 85.2583ZM20.3753 80.615L20.0777 80.7326L20.0777 80.7326L20.3753 80.615ZM19.7108 73.4922H20.0308L19.3914 73.4736L19.7108 73.4922ZM15.0465 88.5035L14.7733 88.6701L14.8886 88.8592L15.1061 88.8179L15.0465 88.5035ZM17.2434 86.4239L17.5507 86.5133L17.7401 85.8628L17.1173 86.1298L17.2434 86.4239ZM15.6645 25.9048L15.3475 25.9486L15.4376 26.6002L15.8946 26.1272L15.6645 25.9048ZM15.9815 25.5629L16.2681 25.4204L16.0883 25.0588L15.7774 25.3165L15.9815 25.5629ZM18.4741 33.7926L18.787 33.7257L18.787 33.7256L18.4741 33.7926ZM19.2574 41.2772L18.9593 41.3934L19.5774 41.2839L19.2574 41.2772ZM18.0321 30.0157L18.3404 29.9299L18.3404 29.9298L18.0321 30.0157ZM14.331 81.3712L14.6262 81.4947L14.9888 80.6285L14.1727 81.0931L14.331 81.3712ZM5.7591 5.76383L5.51373 5.96924C5.89301 6.42233 6.45884 6.64793 6.90654 6.84381C7.38955 7.05514 7.75388 7.23725 7.96184 7.56098L8.23108 7.38803L8.50031 7.21508C8.17257 6.70489 7.62173 6.45814 7.16308 6.25747C6.66912 6.04135 6.26681 5.87181 6.00448 5.55843L5.7591 5.76383ZM8.23108 7.38803L7.96207 7.56133C8.23455 7.98429 8.30391 8.63504 8.30094 9.40634C8.29948 9.78599 8.28169 10.1654 8.27156 10.5473C8.26163 10.9216 8.25931 11.2939 8.29294 11.6271L8.61132 11.5949L8.9297 11.5628C8.90047 11.2731 8.90148 10.9358 8.91134 10.5643C8.92099 10.2003 8.93945 9.7974 8.94094 9.4088C8.94388 8.64357 8.88599 7.81374 8.50008 7.21473L8.23108 7.38803ZM8.61132 11.5949L8.29289 11.6266C8.41632 12.8674 8.61382 14.306 9.19434 15.4875L9.48154 15.3464L9.76874 15.2052C9.24435 14.138 9.05321 12.8043 8.92975 11.5632L8.61132 11.5949ZM9.48154 15.3464L9.19448 15.4878C9.61457 16.3406 10.1572 16.7826 10.6965 17.1513C11.2378 17.5214 11.7241 17.7912 12.1673 18.3267L12.4138 18.1226L12.6603 17.9186C12.1433 17.294 11.5494 16.9592 11.0577 16.623C10.5639 16.2854 10.1204 15.9192 9.7686 15.205L9.48154 15.3464ZM12.4138 18.1226L12.1671 18.3265C13.1495 19.5148 13.8949 21.4953 14.4601 23.6167C15.0222 25.7261 15.3941 27.9247 15.6535 29.5158L15.9693 29.4643L16.2852 29.4128C16.0257 27.8213 15.6496 25.5948 15.0786 23.4519C14.5107 21.3209 13.7377 19.2219 12.6604 17.9188L12.4138 18.1226ZM15.9693 29.4643L15.6535 29.5156C16.5165 34.8226 16.5332 39.9513 16.8669 45.4076L17.1863 45.3881L17.5057 45.3685C17.1749 39.9593 17.155 34.762 16.2852 29.4129L15.9693 29.4643ZM17.1863 45.3881L16.8669 45.4075C16.9448 46.6863 16.9197 47.9613 16.8802 49.2493C16.8409 50.5333 16.7869 51.8342 16.8099 53.1441L17.1299 53.1385L17.4498 53.1329C17.4272 51.8427 17.4803 50.5629 17.5199 49.2689C17.5595 47.979 17.5855 46.6789 17.5057 45.3686L17.1863 45.3881ZM17.1299 53.1385L16.8099 53.1441C16.8469 55.2595 16.6566 57.3332 16.4577 59.4226C16.2592 61.5067 16.052 63.6079 16.0631 65.7505L16.3831 65.7489L16.7031 65.7472C16.6922 63.6425 16.8956 61.5745 17.0948 59.4833C17.2934 57.3973 17.4875 55.2895 17.4498 53.1329L17.1299 53.1385ZM16.3831 65.7489L16.0631 65.7506C16.083 69.4734 16.1428 73.1948 14.5375 76.5123L14.8256 76.6517L15.1136 76.7911C16.7956 73.3151 16.7228 69.4336 16.7031 65.7472L16.3831 65.7489ZM14.8256 76.6517L14.5375 76.5123C14.3424 76.9156 13.9715 77.4323 13.5388 78.0431C13.1156 78.6405 12.6453 79.3122 12.2908 79.9901C11.9389 80.6631 11.6788 81.3829 11.7189 82.0734C11.7606 82.7913 12.1238 83.4308 12.9122 83.9216L13.0813 83.65L13.2504 83.3783C12.6196 82.9856 12.3862 82.5253 12.3578 82.0363C12.3278 81.5198 12.5239 80.9255 12.8579 80.2866C13.1895 79.6525 13.635 79.0143 14.061 78.4131C14.4775 77.8253 14.8893 77.2547 15.1136 76.7911L14.8256 76.6517ZM13.0813 83.65L12.8458 83.4333C12.1856 84.151 12.0133 85.0304 12.1497 85.8584C12.2849 86.6787 12.7226 87.4571 13.2977 88.0195C13.8695 88.5786 14.6156 88.9592 15.3786 88.9023C16.1646 88.8438 16.8722 88.3299 17.3603 87.3014L17.0712 87.1642L16.7821 87.0269C16.3638 87.9083 15.8277 88.2271 15.3311 88.2641C14.8115 88.3028 14.2359 88.0417 13.7452 87.5619C13.2578 87.0853 12.8921 86.4275 12.7812 85.7543C12.6715 85.0888 12.8103 84.4172 13.3168 83.8666L13.0813 83.65ZM17.0712 87.1642L16.7822 87.0269C16.736 87.124 16.7476 87.2142 16.7572 87.2586C16.7677 87.3075 16.7861 87.3486 16.8011 87.3775C16.8314 87.4362 16.8733 87.4933 16.9154 87.5441C17.0018 87.6484 17.1244 87.7681 17.2697 87.888C17.5599 88.1276 17.9721 88.3941 18.4311 88.5501C18.8895 88.7059 19.4288 88.7621 19.9365 88.5243C20.4487 88.2844 20.8596 87.778 21.1256 86.9547L20.8211 86.8563L20.5166 86.7579C20.285 87.4747 19.9654 87.804 19.665 87.9447C19.3601 88.0876 19.0047 88.0691 18.6371 87.9441C18.2701 87.8194 17.9249 87.5989 17.6772 87.3945C17.5535 87.2924 17.4621 87.2008 17.4082 87.1357C17.3951 87.12 17.3854 87.1071 17.3785 87.0973C17.3714 87.0871 17.3691 87.0827 17.3695 87.0835C17.3699 87.0841 17.3716 87.0875 17.3738 87.0933C17.376 87.0989 17.3797 87.1093 17.3828 87.1238C17.3876 87.1459 17.3999 87.2179 17.3603 87.3014L17.0712 87.1642ZM20.8211 86.8563L21.1257 86.9545C21.3649 86.2124 21.3498 85.5335 21.286 84.8859C21.2208 84.2237 21.1126 83.6354 21.1265 82.9695L20.8066 82.9628L20.4867 82.9561C20.4717 83.6725 20.5902 84.3501 20.6491 84.9487C20.7095 85.5619 20.7162 86.1386 20.5165 86.7581L20.8211 86.8563ZM20.8066 82.9628L20.5217 83.1085C20.8999 83.8482 20.9683 84.5005 20.9523 85.1794C20.9441 85.528 20.9145 85.8682 20.8922 86.2481C20.8703 86.6213 20.8569 87.0169 20.8859 87.4407L21.2051 87.4189L21.5244 87.397C21.4981 87.013 21.5098 86.6485 21.5311 86.2855C21.552 85.9293 21.5836 85.5574 21.5921 85.1945C21.6096 84.4506 21.534 83.6826 21.0915 82.8172L20.8066 82.9628ZM21.2051 87.4189L20.8859 87.4406C20.8992 87.6358 20.8783 87.7702 20.8541 87.8747C20.8402 87.9347 20.828 87.9747 20.8118 88.037C20.798 88.0901 20.7808 88.1615 20.7769 88.239C20.7675 88.4309 20.8416 88.5897 20.9808 88.7358C21.1034 88.8645 21.2932 89.0012 21.5559 89.1696L21.7286 88.9002L21.9013 88.6308C21.6387 88.4625 21.5082 88.3616 21.4441 88.2942C21.415 88.2638 21.4111 88.2517 21.4127 88.2555C21.4159 88.2632 21.4161 88.2714 21.4162 88.2705C21.4165 88.2629 21.4189 88.2452 21.4312 88.1982C21.4411 88.1602 21.4614 88.0888 21.4776 88.0191C21.5135 87.8641 21.5427 87.6657 21.5244 87.3971L21.2051 87.4189ZM21.7286 88.9002L21.5555 89.1693C22.065 89.4973 22.7828 89.6814 23.4164 89.3495L23.2679 89.0661L23.1194 88.7826C22.7654 88.968 22.3021 88.8888 21.9018 88.6312L21.7286 88.9002ZM23.2679 89.0661L23.4162 89.3496C24.0205 89.0336 24.3425 88.4901 24.4953 87.8727C24.6461 87.2636 24.6396 86.559 24.576 85.8646C24.5122 85.1683 24.3874 84.4503 24.2875 83.8184C24.1852 83.1719 24.1121 82.6312 24.1323 82.2448L23.8128 82.2281L23.4932 82.2114C23.4688 82.6771 23.5554 83.2865 23.6553 83.9183C23.7576 84.5647 23.8773 85.2536 23.9386 85.9229C24.0001 86.5941 23.9991 87.214 23.8741 87.7189C23.7511 88.2154 23.5158 88.5753 23.1196 88.7825L23.2679 89.0661ZM23.8128 82.2281L24.1323 82.2447C24.2307 80.3527 24.0211 78.4658 23.809 76.598C23.596 74.7218 23.3803 72.8644 23.4498 70.9896L23.13 70.9777L22.8102 70.9659C22.7387 72.8973 22.9612 74.8036 23.1731 76.6702C23.3861 78.5454 23.5884 80.3806 23.4932 82.2115L23.8128 82.2281ZM23.13 70.9777L23.4498 70.9895C23.6188 66.3993 24.0055 61.7563 24.0428 57.1361L23.7228 57.1336L23.4028 57.131C23.3655 61.7466 22.981 66.3282 22.8102 70.9659L23.13 70.9777ZM23.7228 57.1336L24.0428 57.1362C24.0634 54.6391 24.2373 52.146 24.3272 49.6217C24.4166 47.1078 24.4212 44.5844 24.0966 42.0787L23.7792 42.1198L23.4619 42.161C23.7797 44.6143 23.7766 47.0964 23.6876 49.599C23.5989 52.0911 23.4235 54.6253 23.4029 57.1309L23.7228 57.1336ZM23.7792 42.1198L24.0966 42.0789C23.9397 40.8636 23.7092 39.7356 23.5045 38.6247C23.299 37.5096 23.1176 36.4032 23.0502 35.2044L22.7307 35.2224L22.4112 35.2403C22.4809 36.4806 22.6684 37.6189 22.8751 38.7407C23.0826 39.8668 23.3079 40.968 23.4619 42.1608L23.7792 42.1198ZM22.7307 35.2224L23.0502 35.2042C22.9073 32.6916 22.5333 30.1961 21.9421 27.7567L21.6311 27.8321L21.3201 27.9075C21.9024 30.3098 22.2706 32.7671 22.4112 35.2405L22.7307 35.2224ZM21.6311 27.8321L21.9421 27.7567C21.0697 24.1605 20.1399 20.7296 18.5616 17.43L18.2729 17.568L17.9842 17.7061C19.5317 20.9414 20.449 24.3166 21.3201 27.9076L21.6311 27.8321ZM18.2729 17.568L18.5616 17.43C18.1248 16.5165 17.8694 15.529 17.61 14.5057C17.3532 13.4928 17.0922 12.4428 16.6403 11.4604L16.3496 11.5941L16.0589 11.7278C16.4818 12.6473 16.7297 13.6378 16.9896 14.663C17.2469 15.6779 17.5158 16.7264 17.9842 17.7061L18.2729 17.568ZM16.3496 11.5941L16.6403 11.4604C16.3626 10.8565 16.0741 10.311 15.7982 9.79368C15.5211 9.27401 15.2584 8.78588 15.0242 8.28413C14.5591 7.28826 14.2098 6.24668 14.1223 4.87229L13.8029 4.89263L13.4836 4.91297C13.5774 6.38628 13.9547 7.50646 14.4443 8.55491C14.6873 9.07533 14.9589 9.58 15.2335 10.0948C15.5093 10.612 15.7898 11.1427 16.0588 11.7278L16.3496 11.5941ZM13.8029 4.89263L14.1223 4.87219C14.0968 4.47482 14.1139 4.09421 14.128 3.7135C14.1418 3.34064 14.1533 2.96038 14.1063 2.60077C14.0586 2.235 13.9491 1.87688 13.7131 1.54728C13.4775 1.2183 13.1317 0.939851 12.646 0.706688L12.5075 0.995175L12.369 1.28366C12.7817 1.48174 13.0337 1.69772 13.1928 1.91989C13.3514 2.14144 13.4335 2.39121 13.4717 2.68361C13.5107 2.98217 13.5025 3.31037 13.4884 3.68981C13.4747 4.0614 13.4557 4.47692 13.4836 4.91307L13.8029 4.89263ZM12.5075 0.995175L12.6457 0.706576C11.9966 0.395617 11.0435 0.363921 10.0695 0.506352C9.0824 0.650715 8.01555 0.982468 7.10619 1.45794C6.20507 1.92911 5.41477 2.56459 5.04377 3.34109C4.85517 3.73584 4.77549 4.1669 4.84819 4.62064C4.92055 5.07226 5.14018 5.52402 5.51396 5.96952L5.7591 5.76383L6.00425 5.55815C5.68784 5.18104 5.5304 4.83315 5.48013 4.51939C5.43021 4.20777 5.48233 3.90774 5.62124 3.617C5.90526 3.02254 6.55284 2.46948 7.40273 2.0251C8.24438 1.58502 9.24169 1.27423 10.1621 1.13962C11.0958 1.00307 11.8937 1.05598 12.3693 1.28377L12.5075 0.995175ZM13.5911 3.70403L13.29 3.59553C13.1316 4.03518 12.7679 4.36033 12.2888 4.59816C11.8101 4.83585 11.2478 4.9696 10.756 5.04003L10.8014 5.3568L10.8467 5.67356C11.3745 5.59799 12.0105 5.45086 12.5734 5.17141C13.136 4.89211 13.6574 4.46387 13.8921 3.81252L13.5911 3.70403ZM10.8014 5.3568L10.7553 5.04012C10.5028 5.07683 9.67158 5.14537 8.8547 5.16723C8.44746 5.17813 8.05324 5.17712 7.74256 5.15602C7.58659 5.14543 7.45963 5.13027 7.36599 5.11131C7.25581 5.08899 7.24292 5.07087 7.2646 5.0888L7.06063 5.33537L6.85665 5.58193C6.96824 5.67425 7.12281 5.71504 7.23894 5.73857C7.37161 5.76544 7.52981 5.78305 7.69919 5.79455C8.0392 5.81764 8.45639 5.81812 8.87183 5.807C9.70033 5.78483 10.5596 5.71531 10.8474 5.67347L10.8014 5.3568ZM7.06063 5.33537L6.85614 5.5815C6.93349 5.64576 7.18198 5.84318 7.43824 6.01127C7.56485 6.09432 7.7056 6.17838 7.83442 6.23401C7.8979 6.26143 7.97311 6.28845 8.05094 6.3004C8.12032 6.31106 8.25153 6.31914 8.3733 6.23659L8.19374 5.97172L8.01418 5.70684C8.05403 5.67983 8.09151 5.67107 8.11368 5.66832C8.13506 5.66567 8.1479 5.66779 8.14809 5.66782C8.14897 5.66795 8.14414 5.66723 8.1326 5.66353C8.12141 5.65995 8.10666 5.65445 8.08816 5.64646C8.01012 5.61276 7.90564 5.55246 7.78926 5.47612C7.55955 5.32544 7.33102 5.14398 7.26511 5.08923L7.06063 5.33537ZM8.19374 5.97172L8.0134 5.70737C7.98656 5.72569 7.93592 5.75321 7.8588 5.79478C7.79543 5.82895 7.70611 5.87681 7.6419 5.92214L7.82645 6.18357L8.011 6.44499C8.0367 6.42684 8.08684 6.39893 8.16253 6.35812C8.22448 6.32472 8.31253 6.27805 8.37408 6.23606L8.19374 5.97172ZM7.82645 6.18357L7.63163 6.43743C9.13393 7.59034 10.3304 9.07769 10.6062 11.1087L10.9233 11.0657L11.2404 11.0226C10.934 8.76588 9.60208 7.14287 8.02127 5.92971L7.82645 6.18357ZM10.9233 11.0657L10.6062 11.1087C10.6758 11.6221 10.7202 12.1696 10.7709 12.7288C10.8212 13.2832 10.8776 13.8469 10.9718 14.3721L11.2868 14.3157L11.6017 14.2592C11.513 13.7641 11.4586 13.2253 11.4083 12.671C11.3584 12.1216 11.3125 11.5542 11.2404 11.0227L10.9233 11.0657ZM11.2868 14.3157L10.9717 14.3717C11.1712 15.4933 11.4631 16.2453 12.014 17.5233L12.3079 17.3967L12.6017 17.27C12.0553 16.0026 11.7879 15.3058 11.6018 14.2596L11.2868 14.3157ZM12.3079 17.3967L12.6256 17.4348C12.8122 15.8821 12.6072 14.3016 12.3927 12.7503C12.1763 11.1851 11.9502 9.6488 12.0593 8.12097L11.7402 8.09816L11.421 8.07536C11.3061 9.68326 11.5448 11.2906 11.7587 12.838C11.9746 14.3991 12.1655 15.9 11.9901 17.3585L12.3079 17.3967ZM11.7402 8.09816L12.0593 8.12148C12.0679 8.00425 12.0582 7.86392 12.0473 7.73596C12.0355 7.59701 12.0215 7.46628 12.0124 7.32895C12.0034 7.19382 12.0011 7.07552 12.0103 6.97982C12.0148 6.93268 12.0216 6.89697 12.0291 6.87113C12.0367 6.8449 12.043 6.83619 12.0423 6.83716L11.7821 6.65093L11.5218 6.46469C11.4206 6.60615 11.3866 6.77878 11.3732 6.9189C11.3591 7.06629 11.3641 7.2252 11.3738 7.37134C11.3834 7.51529 11.3994 7.66989 11.4096 7.7903C11.4208 7.9217 11.4254 8.01474 11.421 8.07485L11.7402 8.09816ZM11.7821 6.65093L12.042 6.8376C12.0772 6.78862 12.1076 6.77426 12.1418 6.76619C12.1906 6.75464 12.2561 6.75506 12.3647 6.76592C12.4534 6.77477 12.6034 6.79581 12.7376 6.78635C12.8894 6.77566 13.0695 6.72524 13.212 6.56296L12.9716 6.35178L12.7311 6.14061C12.7296 6.14234 12.7305 6.14139 12.7305 6.14142C12.7282 6.14236 12.7178 6.14616 12.6926 6.14794C12.6293 6.15239 12.5612 6.14235 12.4283 6.12908C12.3155 6.11782 12.1563 6.1051 11.9945 6.14337C11.818 6.18511 11.652 6.28353 11.5222 6.46425L11.7821 6.65093ZM12.9716 6.35178L13.2124 6.56255C13.9559 5.71303 13.9335 4.8012 13.911 3.6975L13.5911 3.70403L13.2712 3.71055C13.2944 4.84756 13.2887 5.5036 12.7308 6.14102L12.9716 6.35178ZM18.0306 82.382L17.7677 82.1995C17.6025 82.4375 17.346 82.7306 17.0399 83.0734C16.7392 83.4101 16.3969 83.7879 16.0814 84.1777C15.7663 84.5671 15.4676 84.9808 15.2557 85.3953C15.0454 85.8066 14.9051 86.2483 14.9467 86.6843L15.2652 86.654L15.5838 86.6236C15.5587 86.3602 15.6415 86.0467 15.8256 85.6866C16.0081 85.3296 16.2752 84.9556 16.5789 84.5803C16.8822 84.2056 17.2116 83.8419 17.5172 83.4998C17.8173 83.1638 18.1017 82.8407 18.2934 82.5645L18.0306 82.382ZM15.2652 86.654L14.9467 86.6845C14.9866 87.1009 15.1022 87.4659 15.3944 87.632C15.7045 87.8082 16.0309 87.6651 16.2363 87.5339C16.6725 87.2553 17.1125 86.6862 17.3235 86.3736L17.0583 86.1946L16.793 86.0156C16.5879 86.3195 16.2092 86.7918 15.8918 86.9946C15.7203 87.1041 15.6862 87.0617 15.7106 87.0755C15.717 87.0792 15.6216 87.0188 15.5838 86.6235L15.2652 86.654ZM17.0583 86.1946L17.3237 86.3733C17.7263 85.7755 17.8455 84.9255 17.9345 84.2115C17.981 83.8388 18.0188 83.4985 18.0762 83.202C18.1347 82.9003 18.2056 82.691 18.2934 82.5645L18.0306 82.382L17.7677 82.1995C17.5999 82.4411 17.5096 82.7617 17.4479 83.0804C17.3852 83.4042 17.344 83.7749 17.2995 84.1324C17.2064 84.879 17.0951 85.567 16.7928 86.0158L17.0583 86.1946ZM21.1419 87.472L21.4433 87.5794C21.9074 86.2767 21.8906 84.8561 21.6751 83.473C21.4596 82.0903 21.04 80.715 20.6765 79.502L20.37 79.5938L20.0634 79.6857C20.4299 80.9086 20.8352 82.2402 21.0427 83.5715C21.2501 84.9023 21.2543 86.2029 20.8404 87.3646L21.1419 87.472ZM20.37 79.5938L20.6765 79.502C20.0811 77.5147 19.845 75.7719 19.6315 73.6083L19.3131 73.6398L18.9946 73.6712C19.2094 75.8478 19.4503 77.639 20.0634 79.6857L20.37 79.5938ZM19.3131 73.6398L19.6315 73.6083C19.4898 72.1756 19.2008 70.7794 18.9668 69.4026C18.7314 68.0169 18.5478 66.6329 18.6003 65.1764L18.2805 65.1649L17.9607 65.1534C17.9058 66.6763 18.0983 68.1119 18.3359 69.5098C18.5749 70.9166 18.8559 72.2682 18.9946 73.6713L19.3131 73.6398ZM18.2805 65.1649L18.6003 65.1765C18.6458 63.9242 18.901 62.6284 19.1244 61.2909C19.3455 59.9669 19.5336 58.6094 19.4169 57.291L19.0982 57.3192L18.7794 57.3475C18.8883 58.5769 18.714 59.8631 18.4932 61.1855C18.2746 62.4943 18.0082 63.8475 17.9607 65.1533L18.2805 65.1649ZM19.0982 57.3192H18.7782C18.7782 58.3294 18.7342 59.3854 18.689 60.468C18.6439 61.5483 18.5976 62.6543 18.5943 63.7534C18.5878 65.9489 18.7521 68.1455 19.4545 70.108L19.7558 70.0002L20.0571 69.8924C19.3924 68.0352 19.2279 65.9274 19.2343 63.7553C19.2376 62.6706 19.2832 61.5771 19.3284 60.4947C19.3735 59.4148 19.4182 58.3451 19.4182 57.3192H19.0982ZM19.7558 70.0002L19.9799 70.2287C20.0193 70.19 20.1122 70.1415 20.2667 70.0791C20.3299 70.0536 20.4135 70.0216 20.4774 69.9943C20.5368 69.9689 20.6253 69.9292 20.695 69.8726L20.4934 69.6241L20.2918 69.3756C20.2994 69.3694 20.2876 69.3794 20.2258 69.4058C20.1684 69.4303 20.1098 69.4523 20.0271 69.4857C19.8898 69.5411 19.6759 69.6303 19.5317 69.7717L19.7558 70.0002ZM20.4934 69.6241L20.1743 69.6473C20.2444 70.614 20.5175 71.4319 20.8169 72.1903C21.1209 72.9604 21.4373 73.6387 21.6398 74.3932L21.9489 74.3102L22.2579 74.2273C22.0428 73.4259 21.6982 72.6799 21.4122 71.9553C21.1216 71.219 20.8758 70.4719 20.8126 69.6009L20.4934 69.6241ZM21.9489 74.3102L21.6398 74.3931C22.1488 76.2911 22.2109 78.2938 22.4542 80.2755L22.7718 80.2365L23.0895 80.1975C22.8558 78.2946 22.7822 76.1824 22.2579 74.2274L21.9489 74.3102ZM22.7718 80.2365L22.4542 80.2756C22.5157 80.7751 22.6651 81.5022 22.7989 82.2678C22.9351 83.0471 23.0599 83.8895 23.085 84.6672C23.1102 85.4533 23.0313 86.1294 22.795 86.6016C22.6797 86.832 22.5303 87.0072 22.3412 87.1277C22.1525 87.2481 21.9052 87.326 21.5749 87.3322L21.5808 87.6521L21.5868 87.9721C22.0152 87.9641 22.3817 87.8609 22.6853 87.6674C22.9886 87.474 23.2099 87.2026 23.3674 86.888C23.6766 86.2702 23.7509 85.4629 23.7246 84.6467C23.6981 83.8221 23.5667 82.9435 23.4294 82.1577C23.2897 81.3583 23.1484 80.6763 23.0895 80.1974L22.7718 80.2365ZM21.5808 87.6521L21.8936 87.5844C21.7834 87.0755 21.8388 86.5392 22.0426 86.1236L21.7553 85.9827L21.468 85.8418C21.1932 86.4022 21.1313 87.0878 21.2681 87.7198L21.5808 87.6521ZM13.7846 19.1629L13.4738 19.239C13.6905 20.1234 14.1437 20.9629 14.5875 21.7624C15.0392 22.5762 15.4809 23.3485 15.7327 24.1475L16.0379 24.0513L16.3431 23.9552C16.0676 23.0808 15.5876 22.2455 15.1471 21.4518C14.6986 20.6438 14.2887 19.8757 14.0955 19.0867L13.7846 19.1629ZM16.0379 24.0513L15.7327 24.1475C15.9665 24.8897 16.168 25.6741 16.3695 26.4742C16.5703 27.2713 16.7715 28.0848 17.0027 28.8713L17.3097 28.7811L17.6167 28.6909C17.3899 27.9191 17.1922 27.1199 16.9901 26.3178C16.7888 25.5186 16.5833 24.7174 16.3431 23.9552L16.0379 24.0513ZM17.3097 28.7811L17.0027 28.8713C17.8107 31.6216 18.9134 34.8687 18.8233 37.6495L19.1431 37.6599L19.463 37.6702C19.5573 34.7588 18.4074 31.3821 17.6167 28.6909L17.3097 28.7811ZM19.1431 37.6599L19.4414 37.7757C19.6124 37.3353 19.5472 36.8655 19.3849 36.4669C19.2223 36.0672 18.9495 35.7049 18.6479 35.4554C18.3638 35.2203 17.9718 35.0211 17.5922 35.1268C17.1656 35.2455 16.9722 35.6719 16.94 36.1995L17.2594 36.2189L17.5788 36.2384C17.6057 35.7972 17.7434 35.749 17.7637 35.7434C17.831 35.7246 18.0017 35.7514 18.2399 35.9485C18.4606 36.1311 18.6696 36.4071 18.7921 36.7081C18.915 37.0101 18.9383 37.3033 18.8448 37.5441L19.1431 37.6599ZM17.2594 36.2189L17.5758 36.1712C17.3787 34.8656 17.2165 33.5259 17.0517 32.1682C16.8871 30.812 16.7198 29.4382 16.5131 28.0722C16.0998 25.3409 15.5267 22.6249 14.4898 20.1059L14.1938 20.2277L13.8979 20.3495C14.9063 22.7991 15.47 25.4567 15.8803 28.1679C16.0854 29.5232 16.2516 30.8878 16.4164 32.2453C16.581 33.6011 16.7443 34.9503 16.943 36.2667L17.2594 36.2189ZM7.04005 4.90532L6.74873 5.03772C6.96243 5.50794 7.25322 5.81424 7.60834 5.99173C7.95543 6.16521 8.33095 6.19876 8.68457 6.18802C9.02806 6.1776 9.40699 6.12088 9.72314 6.08986C10.058 6.05701 10.3534 6.04802 10.6152 6.10569L10.684 5.79318L10.7528 5.48068C10.3879 5.40028 10.0087 5.41877 9.66065 5.45292C9.29392 5.4889 8.98165 5.53871 8.66515 5.54832C8.35877 5.55762 8.10548 5.52472 7.89447 5.41925C7.69148 5.3178 7.49487 5.13265 7.33137 4.77292L7.04005 4.90532ZM10.684 5.79318L10.3699 5.85433C10.3938 5.97694 10.4159 6.08649 10.4392 6.20703L10.7533 6.14628L11.0675 6.08553C11.0451 5.96962 11.02 5.84429 10.9981 5.73204L10.684 5.79318ZM10.7533 6.14628L10.7803 6.46514C10.9472 6.45103 11.2481 6.47918 11.4265 6.52462L11.5055 6.21451L11.5844 5.90441C11.3453 5.84352 10.9725 5.80661 10.7264 5.82741L10.7533 6.14628ZM11.5055 6.21451H11.1855C11.1855 6.82674 11.3323 7.4349 11.6097 7.97272L11.8941 7.82602L12.1785 7.67932C11.9484 7.23325 11.8255 6.72582 11.8255 6.21451H11.5055ZM11.8941 7.82602L12.2139 7.83714C12.2316 7.32891 12.3062 7.05751 12.3784 6.93368C12.4109 6.87796 12.4302 6.87401 12.4227 6.87717C12.4126 6.88142 12.4133 6.87455 12.4417 6.88331C12.5184 6.90697 12.6548 7.00212 12.8281 7.21109C12.9925 7.40931 13.1605 7.67384 13.3099 7.97011L13.5957 7.82602L13.8814 7.68193C13.7161 7.35415 13.5231 7.0465 13.3207 6.80252C13.1273 6.56929 12.8912 6.35222 12.6303 6.27173C12.4899 6.22842 12.3304 6.2215 12.174 6.28749C12.0201 6.35238 11.9068 6.47195 11.8255 6.6113C11.6703 6.87759 11.5928 7.28251 11.5743 7.8149L11.8941 7.82602ZM13.5957 7.82602L13.9155 7.81687C13.8825 6.66218 13.7626 5.32064 13.4382 4.19985L13.1308 4.2888L12.8234 4.37775C13.1255 5.4215 13.2433 6.69996 13.2758 7.83517L13.5957 7.82602ZM13.1308 4.2888L12.9073 4.05984C12.6709 4.29069 12.2932 4.48829 11.8078 4.63912C11.3272 4.78847 10.7657 4.88437 10.1868 4.92811C9.01814 5.01639 7.83924 4.88821 7.16184 4.6094L7.04005 4.90532L6.91826 5.20124C7.72526 5.53339 9.01682 5.65832 10.235 5.56629C10.8495 5.51986 11.4605 5.41725 11.9977 5.25029C12.5303 5.0848 13.0159 4.84828 13.3544 4.51776L13.1308 4.2888ZM22.6164 83.2643L22.3007 83.3166C22.387 83.8382 22.3853 84.4736 22.3249 85.0747C22.2642 85.678 22.1473 86.219 22.0181 86.5538C21.9863 86.6362 21.956 86.7001 21.929 86.7467C21.9156 86.7697 21.9042 86.7864 21.8953 86.7979C21.8861 86.8096 21.8817 86.8132 21.8829 86.8122C21.884 86.8113 21.9284 86.775 22.0052 86.7829C22.0801 86.7907 22.1113 86.8329 22.1043 86.8244C22.0808 86.7958 22.0212 86.6815 21.9587 86.3977C21.8994 86.1289 21.8456 85.7484 21.8038 85.2324L21.4848 85.2583L21.1658 85.2842C21.2089 85.8152 21.2658 86.2273 21.3337 86.5354C21.3982 86.8285 21.4822 87.0753 21.6096 87.2305C21.6781 87.3139 21.7866 87.4037 21.9394 87.4195C22.0941 87.4355 22.2171 87.3678 22.2964 87.3007C22.4407 87.1786 22.5413 86.9757 22.6152 86.7842C22.7726 86.3762 22.8979 85.7731 22.9617 85.1388C23.0257 84.5024 23.0305 83.8069 22.9321 83.2121L22.6164 83.2643ZM21.4848 85.2583L21.8037 85.2323C21.6675 83.558 21.2866 82.0497 20.6729 80.4974L20.3753 80.615L20.0777 80.7326C20.6711 82.2335 21.0354 83.6801 21.1659 85.2842L21.4848 85.2583ZM20.3753 80.615L20.6729 80.4974C19.827 78.3576 20.0308 75.9406 20.0308 73.4922H19.7108H19.3908C19.3908 75.8537 19.174 78.4465 20.0777 80.7326L20.3753 80.615ZM19.7108 73.4922L19.3914 73.4736C19.2785 75.4103 19.8922 77.0617 20.5792 78.6237C21.2738 80.2029 22.0287 81.6666 22.3007 83.3164L22.6164 83.2643L22.9321 83.2123C22.6432 81.4598 21.8371 79.894 21.1651 78.3661C20.4854 76.8209 19.9267 75.2875 20.0303 73.5108L19.7108 73.4922ZM15.0107 87.0459L14.7246 86.9026C14.5726 87.2061 14.4937 87.5073 14.5027 87.811C14.5118 88.1158 14.6088 88.4001 14.7733 88.6701L15.0465 88.5035L15.3198 88.337C15.2024 88.1443 15.1477 87.9669 15.1425 87.792C15.1372 87.6161 15.1814 87.4198 15.2968 87.1893L15.0107 87.0459ZM15.0465 88.5035L15.1061 88.8179C15.5811 88.7279 16.1219 88.3745 16.5603 87.9642C17.0013 87.5514 17.4029 87.0209 17.5507 86.5133L17.2434 86.4239L16.9362 86.3344C16.834 86.6854 16.5243 87.1213 16.1229 87.497C15.7188 87.8752 15.2862 88.1324 14.9869 88.1891L15.0465 88.5035ZM17.2434 86.4239L17.1173 86.1298C16.8318 86.2522 16.5821 86.4179 16.3615 86.5725C16.1321 86.7332 15.9449 86.8735 15.7485 86.9833C15.5587 87.0895 15.3858 87.1515 15.2068 87.1603C15.0308 87.1689 14.8204 87.1273 14.5536 86.9789L14.3981 87.2586L14.2425 87.5383C14.5949 87.7342 14.9229 87.8149 15.238 87.7995C15.5502 87.7842 15.8211 87.6761 16.061 87.5418C16.2944 87.4112 16.523 87.2408 16.7287 87.0967C16.9432 86.9464 17.148 86.813 17.3695 86.718L17.2434 86.4239ZM14.6015 21.2909L14.3142 21.4317C14.9921 22.8154 15.1306 24.3783 15.3475 25.9486L15.6645 25.9048L15.9815 25.861C15.7718 24.3432 15.6237 22.6498 14.8889 21.1501L14.6015 21.2909ZM15.6645 25.9048L15.8946 26.1272C15.9642 26.0552 16.0256 25.9812 16.0708 25.9289C16.1202 25.8716 16.1539 25.8357 16.1857 25.8093L15.9815 25.5629L15.7774 25.3165C15.701 25.3797 15.6375 25.4513 15.5861 25.5109C15.5305 25.5753 15.4875 25.6275 15.4344 25.6825L15.6645 25.9048ZM15.9815 25.5629L15.695 25.7053C17.0196 28.3701 17.5392 30.9545 18.1612 33.8596L18.4741 33.7926L18.787 33.7256C18.1684 30.8368 17.6349 28.1702 16.2681 25.4204L15.9815 25.5629ZM18.4741 33.7926L18.1611 33.8594C18.3995 34.9747 18.4033 36.3134 18.4419 37.6675C18.4797 38.9949 18.5511 40.3463 18.9593 41.3934L19.2574 41.2772L19.5556 41.161C19.1942 40.2339 19.12 38.9948 19.0816 37.6492C19.044 36.3304 19.0409 34.9138 18.787 33.7257L18.4741 33.7926ZM19.2574 41.2772L19.5774 41.2839C19.6616 37.2475 19.4221 33.8164 18.3404 29.9299L18.0321 30.0157L17.7238 30.1015C18.7834 33.9083 19.0209 37.2724 18.9375 41.2705L19.2574 41.2772ZM18.0321 30.0157L18.3404 29.9298C18.1923 29.3987 18.0389 28.7158 17.8617 27.9544C17.6857 27.1976 17.4878 26.3705 17.2535 25.5679C17.0195 24.7664 16.7466 23.9799 16.4178 23.3056C16.0912 22.6359 15.6963 22.0487 15.2044 21.6749L15.0107 21.9296L14.8171 22.1844C15.1927 22.4699 15.534 22.9533 15.8425 23.5861C16.1488 24.2142 16.4099 24.962 16.6392 25.7473C16.8681 26.5315 17.0626 27.3437 17.2384 28.0994C17.4131 28.8505 17.571 29.5532 17.7239 30.1017L18.0321 30.0157ZM12.7628 80.8761L12.5037 80.6882C12.1257 81.2096 11.9468 81.7032 11.9466 82.1227C11.9464 82.5462 12.1357 82.9175 12.5015 83.076C12.8579 83.2304 13.274 83.1354 13.6378 82.8716C14.0046 82.6057 14.3516 82.1507 14.6262 81.4947L14.331 81.3712L14.0358 81.2476C13.7919 81.8303 13.5072 82.1759 13.2622 82.3535C13.0142 82.5333 12.8385 82.5245 12.756 82.4888C12.683 82.4572 12.5865 82.3619 12.5866 82.123C12.5867 81.8802 12.6943 81.5157 13.0218 81.0639L12.7628 80.8761ZM14.331 81.3712L14.1727 81.0931C13.6653 81.3819 13.1496 81.5057 12.727 81.2424L12.5578 81.514L12.3886 81.7856C13.1273 82.2459 13.9345 81.9651 14.4893 81.6493L14.331 81.3712Z" fill="#967348" mask="url(#path-1-outside-1_8_17)"/>
</g>
<defs>
<filter id="filter0_d_8_17" x="0.821556" y="0.425091" width="27.797" height="97.0998" filterUnits="userSpaceOnUse" color-interpolation-filters="sRGB">
<feFlood flood-opacity="0" result="BackgroundImageFix"/>
<feColorMatrix in="SourceAlpha" type="matrix" values="0 0 0 0 0 0 0 0 0 0 0 0 0 0 0 0 0 0 127 0" result="hardAlpha"/>
<feOffset dy="4"/>
<feGaussianBlur stdDeviation="2"/>
<feComposite in2="hardAlpha" operator="out"/>
<feColorMatrix type="matrix" values="0 0 0 0 0 0 0 0 0 0 0 0 0 0 0 0 0 0 0.25 0"/>
<feBlend mode="normal" in2="BackgroundImageFix" result="effect1_dropShadow_8_17"/>
<feBlend mode="normal" in="SourceGraphic" in2="effect1_dropShadow_8_17" result="shape"/>
</filter>
</defs>
</svg>
