<svg width="17" height="57" viewBox="0 0 17 57" fill="none" xmlns="http://www.w3.org/2000/svg">
<path id="Sternum" d="M8.46124 0.71521C9.28669 0.723383 10.5228 0.804087 11.6966 1.05994C12.3673 1.20613 13.0242 1.41086 13.5745 1.69568C14.1235 1.97978 14.5801 2.35111 14.8294 2.83728V2.83826L14.9124 3.02673C15.0709 3.46509 15.0059 3.88996 14.9017 4.28552C14.8719 4.39846 14.838 4.51065 14.805 4.62048C14.7717 4.73126 14.7397 4.83965 14.7103 4.94763C14.6661 5.10957 14.63 5.26652 14.6126 5.42126L14.6019 5.57556C14.5811 6.34528 14.7666 6.76568 15.0218 7.15173C15.2771 7.53793 15.6463 7.93929 15.9319 8.59607H15.931L15.9319 8.59705L15.6683 8.71033C15.6603 8.71804 15.6515 8.72578 15.6429 8.73474C15.6538 8.75444 15.6727 8.77917 15.7054 8.79431C15.7421 8.81117 15.7746 8.80756 15.7903 8.80408C15.815 8.79853 15.8222 8.7882 15.805 8.80212C15.7775 8.82434 15.732 8.87233 15.6702 8.94763C15.5497 9.09455 15.3932 9.31462 15.2347 9.55212C15.0767 9.78882 14.9194 10.0389 14.7982 10.2445C14.7375 10.3474 14.6861 10.4378 14.6487 10.5092C14.6301 10.5448 14.6154 10.5746 14.6048 10.598C14.5996 10.6096 14.5958 10.6192 14.5931 10.6263L14.5892 10.6371C14.4929 11.0053 14.5039 11.366 14.5452 11.7416C14.5855 12.1075 14.6592 12.5118 14.6732 12.9135L14.6927 13.184C14.7026 13.2853 14.7156 13.397 14.7288 13.517C14.755 13.7534 14.783 14.0173 14.7952 14.2767C14.8074 14.5354 14.8039 14.7972 14.764 15.0297C14.7294 15.2313 14.6649 15.4259 14.5462 15.5765L14.4925 15.6381C14.2247 15.9119 14.0646 16.103 13.9378 16.308C13.8742 16.4108 13.8177 16.5187 13.7601 16.6449L13.5735 17.0931C13.3971 17.5431 13.3876 18.1803 13.5159 18.8041C13.6443 19.4278 13.904 20.0048 14.2327 20.3412L14.3148 20.4349C14.4937 20.6599 14.583 20.9324 14.6194 21.2211C14.6609 21.5496 14.6356 21.9108 14.5911 22.2679C14.5688 22.4471 14.5414 22.6278 14.514 22.8051C14.4864 22.9831 14.4585 23.1574 14.4359 23.3265C14.3904 23.6668 14.3671 23.9732 14.3978 24.2279L14.429 24.3802C14.4438 24.4347 14.4622 24.4936 14.4837 24.556C14.5237 24.6721 14.5795 24.8184 14.6214 24.9467C14.665 25.0802 14.7036 25.2222 14.7151 25.3607C14.7239 25.4654 14.7176 25.5739 14.6829 25.6781L14.639 25.7806L14.638 25.7816C14.6025 25.8451 14.5462 25.895 14.4974 25.932C14.446 25.9709 14.3872 26.0074 14.3323 26.0394C14.2702 26.0757 14.2279 26.099 14.1751 26.1302L14.0735 26.1976H14.0726C13.3828 26.789 13.2511 27.8406 13.4544 28.7777H13.4534C13.536 29.1529 13.6815 29.484 13.9085 29.7601H13.9095C13.9589 29.8197 14.0151 29.8732 14.0784 29.9291C14.139 29.9825 14.2111 30.0428 14.2747 30.1068C14.3925 30.2255 14.4968 30.3713 14.5316 30.5824L14.5423 30.6771V30.6781L14.5355 30.8051C14.529 30.8483 14.519 30.8922 14.5081 30.934C14.4856 31.0201 14.4542 31.1122 14.4222 31.2006C14.3545 31.3875 14.289 31.5438 14.262 31.6459C14.156 32.0521 14.0543 32.4201 13.9857 32.8246C13.9775 32.8774 13.9766 32.957 13.9818 33.0599C13.9869 33.1625 13.9969 33.2757 14.0062 33.392C14.0152 33.5058 14.0236 33.6233 14.0237 33.726C14.0238 33.7977 14.02 33.8771 14.0032 33.9476L13.9818 34.015C13.9176 34.1643 13.8053 34.2538 13.6829 34.3099C13.5666 34.3633 13.4312 34.391 13.3128 34.4154C13.0893 34.4615 12.9022 34.5018 12.765 34.6205L12.7093 34.6761C12.5447 34.8668 12.4513 35.1345 12.428 35.4242C12.4107 35.641 12.4331 35.8632 12.4886 36.0629L12.555 36.2533L12.638 36.4174C12.6695 36.4706 12.7048 36.523 12.7415 36.5765C12.8119 36.6792 12.895 36.7932 12.9603 36.9095C13.0275 37.0294 13.0832 37.164 13.098 37.3197C13.109 37.4372 13.0961 37.5602 13.055 37.6918L13.0042 37.8265C12.8895 38.0871 12.7244 38.3263 12.5921 38.5433C12.4555 38.7674 12.3443 38.9806 12.3021 39.223V39.224C12.2102 39.7404 12.255 40.4035 12.2874 40.9623L12.3128 41.4261C12.3136 41.5568 12.3028 41.6883 12.2454 41.8021C12.1835 41.9247 12.0788 42.0062 11.9398 42.058C11.8732 42.0827 11.7969 42.1014 11.7103 42.1156L11.4193 42.1459C11.2473 42.1562 11.0876 42.1431 10.9456 42.1293C10.8 42.115 10.679 42.1007 10.5628 42.1029C10.4502 42.1051 10.3507 42.123 10.2562 42.1683C10.1852 42.2024 10.1104 42.255 10.0325 42.3373L9.95343 42.4301C9.61745 42.8626 9.4811 43.5158 9.56964 44.0746L9.59894 44.2172C9.67923 44.527 9.84161 44.6992 10.0267 44.8568C10.2355 45.0347 10.5225 45.2235 10.68 45.5726L10.7484 45.7416C10.8935 46.1483 10.9445 46.6368 10.9378 47.1586C10.9301 47.7574 10.8464 48.415 10.7318 49.0687C10.617 49.723 10.4698 50.3789 10.3343 50.974C10.2323 51.4221 10.137 51.834 10.0657 52.1879L10.0032 52.5219C9.86814 53.309 9.61109 54.4078 9.11945 55.1498C8.8723 55.5227 8.55377 55.8239 8.14386 55.9349C7.78135 56.0331 7.37511 55.9755 6.92413 55.7328L6.72882 55.6176C6.16423 55.2584 5.95879 54.6732 5.86847 54.0551L5.83624 53.7894C5.66329 52.11 5.36416 50.4645 5.00812 48.8158L4.63605 47.1654C4.59643 46.9955 4.53212 46.765 4.49445 46.5404C4.45673 46.3154 4.43945 46.0654 4.50616 45.8461L4.54816 45.7299C4.62921 45.5389 4.75894 45.3656 4.89386 45.2045L5.21808 44.8275C5.37315 44.6409 5.50343 44.4571 5.57355 44.2523L5.63507 44.0433C5.69083 43.8198 5.72793 43.5574 5.73175 43.2972C5.73686 42.9471 5.68143 42.6232 5.55109 42.4037V42.4047C5.44169 42.2208 5.35421 42.1182 5.28058 42.0638C5.21414 42.0148 5.156 42.002 5.0882 42.0082C5.01023 42.0153 4.91663 42.0484 4.78253 42.1058L4.30499 42.308L4.14874 42.3676L4.09503 42.2094C3.93558 41.7359 3.79814 41.2479 3.69659 40.7523L3.60773 40.2543C3.58063 40.0753 3.50552 39.858 3.43195 39.6127C3.36282 39.3822 3.29374 39.1215 3.31183 38.9008L3.32257 38.8226C3.35759 38.6432 3.45652 38.4775 3.5423 38.3383C3.64884 38.1653 3.74152 38.0233 3.78156 37.8783L3.81378 37.7445C3.95574 37.0664 3.81021 36.272 3.54913 35.6215L3.43488 35.3666C3.32895 35.155 3.19812 34.9501 3.05109 34.7953L2.96027 34.7094C2.82328 34.5905 2.70613 34.4942 2.62238 34.4164C2.53663 34.3367 2.46376 34.2563 2.41925 34.1556C2.37341 34.052 2.36484 33.9442 2.37433 33.8226C2.38359 33.7042 2.41125 33.5576 2.44757 33.3724L2.48566 33.1215C2.54831 32.5269 2.43679 31.8805 2.21808 31.3295L2.14581 31.1976C2.12985 31.1726 2.11311 31.1467 2.09503 31.1195C2.07729 31.0928 2.0586 31.0643 2.04034 31.0355C1.97149 30.9269 1.88568 30.7778 1.89191 30.6117L1.90558 30.4691C1.95629 30.1349 2.1332 29.7941 2.30206 29.4808C2.5043 29.1057 2.70056 28.7619 2.76593 28.4398L2.81866 28.1635C2.8708 27.8728 2.91728 27.5433 2.92413 27.2201C2.93219 26.8391 2.88455 26.4876 2.74542 26.222L2.67999 26.1136C2.55913 25.9389 2.34203 25.8616 2.06183 25.7572C1.80942 25.6632 1.48696 25.5406 1.34698 25.222V25.2211C1.30155 25.1177 1.31029 25.0019 1.32941 24.9066C1.34954 24.8065 1.38696 24.7005 1.42706 24.6029C1.46743 24.5047 1.5138 24.4064 1.55206 24.3236C1.59217 24.2368 1.62176 24.1718 1.63605 24.1273L1.68292 23.9662C1.78282 23.5943 1.80984 23.2404 1.81378 22.8285L1.81085 22.556C1.78989 21.9414 1.66931 21.4713 1.3714 20.9008L1.27277 20.7308C1.23632 20.6711 1.19543 20.6056 1.15753 20.5394C1.08256 20.4084 1.00725 20.2567 0.979797 20.0961V20.0951C0.957197 19.96 0.949642 19.8526 0.962219 19.765C0.976298 19.6673 1.01525 19.5974 1.07257 19.5414C1.09748 19.5171 1.12448 19.4965 1.14581 19.4808C1.16901 19.4638 1.18745 19.4515 1.20831 19.4349C1.22746 19.4198 1.24754 19.4015 1.26886 19.3793L1.33624 19.2963C1.80697 18.6105 2.26376 17.5123 2.26886 16.683L2.26398 16.5287C2.23884 16.1883 2.12167 15.9736 1.97784 15.7699C1.83385 15.566 1.63711 15.3455 1.49933 15.0287L1.44366 14.8861C1.31601 14.5129 1.36354 14.0335 1.42316 13.5883C1.47764 13.1814 1.54279 12.7965 1.53839 12.472L1.53253 12.3363C1.44688 11.3337 1.25313 10.3715 0.920227 9.43787L0.76886 9.03845C0.725395 8.93087 0.666585 8.84425 0.601868 8.76208C0.568897 8.72024 0.535687 8.6813 0.500305 8.63904C0.465802 8.59783 0.429346 8.55362 0.395813 8.5072C0.327727 8.4129 0.267166 8.30294 0.24054 8.16345C0.214057 8.02439 0.223457 7.86842 0.275696 7.68396L0.299133 7.60291L0.380188 7.57556C0.831431 7.42413 1.06382 7.14144 1.20441 6.78259C1.35061 6.40935 1.39409 5.96656 1.46222 5.49158L1.47687 5.27966C1.48064 5.18703 1.48353 5.07361 1.48566 4.9447C1.48981 4.69287 1.49208 4.389 1.49933 4.09509C1.50658 3.80114 1.5191 3.50988 1.54425 3.27966C1.55676 3.1652 1.57308 3.06042 1.59503 2.97595C1.60602 2.93373 1.61963 2.89175 1.63702 2.85486C1.65331 2.82033 1.67953 2.77672 1.72198 2.74353V2.74255L2.07257 2.48376C3.84093 1.2418 5.87413 0.750748 8.13409 0.716187L8.46124 0.71521Z" fill="#F9E3B7" stroke="#967348" stroke-width="0.3218"/>
</svg>
