<svg width="40" height="37" viewBox="0 0 40 37" fill="none" xmlns="http://www.w3.org/2000/svg">
<g id="TarsalsLeft" filter="url(#filter0_d_8_107)">
<mask id="path-1-outside-1_8_107" maskUnits="userSpaceOnUse" x="4.22668" y="-0.0975342" width="32" height="29" fill="black">
<rect fill="white" x="4.22668" y="-0.0975342" width="32" height="29"/>
<path d="M16.3854 19.5296C14.1573 20.6444 11.7798 21.6855 9.60959 22.8844C8.93369 23.2573 8.69289 24.0388 7.81658 23.7857C7.1681 23.6001 6.6263 22.8709 6.10051 22.5035C5.59834 22.1528 5.47185 22.0718 5.38345 21.3197C5.15104 19.336 5.74465 17.2691 6.18281 15.3736C6.55695 13.7621 5.14647 12.2116 5.23029 10.6073C5.30039 9.28458 7.16962 7.88891 8.06575 7.22003C11.2075 4.88093 15.0443 3.9494 18.4413 2.20618C20.3296 1.23737 20.6337 0.332825 22.8161 1.34924C24.4666 2.11809 25.778 2.63862 25.4656 4.4953C25.5128 4.21442 26.2741 5.02931 26.3191 5.14119C26.5042 5.59822 26.207 6.275 26.0737 6.70267C25.6203 8.15786 25.1341 9.09652 25.4641 10.7152C25.6934 11.8371 26.5705 13.1868 26.0927 14.346C25.4793 15.8393 23.3198 16.186 22.0358 16.6772C20.1086 17.4151 18.2478 18.5965 16.3854 19.5296Z"/>
<path d="M9.34366 13.7834C8.88874 14.1936 7.58721 16.251 8.67765 16.666C9.28879 16.8961 9.96622 15.4131 10.3129 15.0497C10.9142 14.4197 12.2271 12.7249 13.1149 12.6138C13.5683 12.5575 13.4136 12.7614 13.8754 12.8439C14.8355 13.0169 15.6905 12.7813 16.6331 12.5226C17.4103 12.3091 19.8374 11.5609 19.3154 10.3009C19.0296 9.61142 18.4375 9.93833 18.2836 9.22422C18.1754 8.7299 18.5221 7.55951 18.5465 6.98188C18.6181 5.34419 18.0702 5.2863 16.5325 5.55687C15.5846 5.7235 14.2472 6.46935 13.2917 6.33367C13.9599 5.0816 15.3186 4.87923 16.5622 4.78323C17.2137 4.73324 17.8538 4.78324 18.4703 4.4976C19.1066 4.20164 19.4746 3.55498 20.1048 3.26378C21.0215 2.84325 23.4204 3.56768 24.0726 4.23894C25.9586 6.1821 23.4546 9.54077 24.1671 11.8108C24.4072 12.5741 25.4671 13.1939 25.5388 13.9683C25.6584 15.2973 23.9606 15.506 23.0553 15.7075C22.2392 15.89 21.5664 16.2097 20.7891 16.5216C19.5828 17.004 18.5564 17.7705 17.453 18.456C16.2186 19.2249 14.693 19.8359 13.3442 20.3905C11.8766 20.9911 10.4318 21.5505 8.98551 22.2091C7.87068 22.7169 7.02484 22.4677 6.19577 21.3513C5.52824 20.4524 6.16834 19.4121 6.43962 18.4545C6.77109 17.2912 7.00503 16.0518 6.92501 14.8339C6.79852 12.8875 4.93616 11.8418 6.67813 10.1065C4.85615 11.9188 7.73733 13.873 9.34366 13.7834Z"/>
<path d="M10.0965 7.18421C10.1194 7.38019 17.0537 7.05252 17.5475 6.93509C18.4916 6.70896 18.7111 6.20432 19.2986 5.3585C19.7726 4.67772 19.8556 4.4262 20.6603 4.26513C21.3804 4.12152 21.4993 4.47855 22.1699 4.51822C22.512 4.53885 23.0835 4.21195 23.3685 4.39841C23.8235 4.69833 23.6733 6.35429 23.6672 6.76133C23.6551 7.76188 23.0797 9.03059 23.1453 9.93354C23.1956 10.6159 24.0391 11.3728 24.4536 11.9164C25.0549 10.4762 24.8491 8.76953 25.4595 7.30402C25.8413 6.38838 26.3709 5.96785 26.1034 4.93398C25.7453 3.55337 24.0658 1.88156 22.7063 1.62607C21.0345 1.31107 19.448 2.7853 18.0649 3.55178C16.4654 4.4341 15.042 4.49523 13.2558 4.7531C10.556 5.1411 7.5872 6.63358 6.60344 9.50984C7.28773 8.19747 8.98627 7.74123 10.076 6.91286C10.0927 7.00411 10.0843 7.08899 10.0965 7.18421Z"/>
<path d="M24.619 16.5827C26.0287 17.5023 27.6198 17.9054 29.233 18.2275C30.5048 18.4814 32.1035 19.3407 33.3852 18.7734C34.6121 18.2291 35.2643 16.3042 34.9428 15.0132C34.6692 13.9199 32.8373 12.4591 31.8528 12.0703C30.946 11.7133 29.9561 11.6006 29.0745 11.1658C28.3231 10.7944 27.8682 10.0438 27.1771 9.67806C25.794 8.9457 24.3896 10.8286 23.0386 11.0055C22.0716 11.1333 20.9453 11.0738 19.9997 10.9476C19.1416 10.8326 18.4505 11.0253 18.8406 12.0259C19.1157 12.7344 20.1002 14.1619 20.7137 14.5459C21.1739 14.8347 21.7424 14.7713 22.2484 14.9934C23.0995 15.3671 23.841 16.0749 24.619 16.5827Z"/>
<path d="M26.6429 10.604C26.3 12.7813 29.2124 13.1756 30.6001 13.2692C31.7034 13.3446 33.6184 14.5785 33.0476 15.9995C32.6316 17.0406 30.9841 16.9524 30.184 16.5446C28.9648 15.9225 28.6493 15.3489 28.5914 14.0492C28.0465 14.4158 27.3676 13.8207 27.0239 14.5324C26.7587 14.2357 26.2375 13.616 25.8032 13.4946C24.731 13.1962 24.0886 13.4732 23.1102 12.7519C22.3398 12.1846 21.657 11.3721 20.6649 11.2602C21.5786 11.3634 23.3708 13.0622 22.0038 13.8199C22.7132 14.4015 23.7655 14.4428 24.5504 14.9736C25.4961 15.6123 26.457 16.2947 27.6305 16.3478C28.6478 16.3947 29.8182 16.2669 30.7189 16.8755C31.0458 17.0937 31.5587 18.2243 31.9503 17.4515C32.9265 17.7372 33.0118 17.5563 33.3921 16.6898C33.7106 15.9622 34.0878 15.2513 34.6159 14.6657C33.7076 14.4824 33.3311 13.7049 32.688 13.1574C31.9663 12.5417 30.8774 12.2156 29.9943 11.9624C29.1903 11.7339 28.487 11.4467 27.7875 10.9992C27.2937 10.685 27.1062 10.1946 26.4379 10.7095"/>
<path d="M15.4527 12.9582C15.3811 13.005 15.3117 13.0479 15.2416 13.0851C13.8022 13.8826 12.5129 14.949 11.1108 15.8186C10.2558 16.347 9.39471 17.008 8.45362 17.2032C7.65427 17.369 7.30069 17.0064 6.81453 17.7348C6.0007 18.9607 6.62402 20.3278 7.19781 21.4807C7.47976 22.0464 7.51558 24.3014 8.52754 24.1062C8.96951 24.0205 9.15696 23.1096 9.53187 22.8367C10.0218 22.4836 10.649 22.5304 11.2174 22.4971C12.5045 22.4201 12.7895 21.3712 13.4555 20.396C14.1207 19.4224 14.7296 18.3862 15.5358 17.5309C16.4563 16.5534 17.4302 16.6477 18.4741 16.0051C19.3725 15.4504 19.8496 14.0262 20.2908 13.0788C19.9265 12.8082 19.4327 12.8067 19.0799 12.4956C18.6654 12.1291 18.7096 11.7657 18.5496 11.2618C17.4919 11.1952 16.3649 12.3695 15.4527 12.9582Z"/>
<path d="M11.4156 21.4561C10.6094 22.1503 9.74675 22.7668 8.94054 23.4786C8.4559 23.9055 8.54582 23.9586 8.12138 23.3723C7.38832 22.3614 7.06446 20.3658 7.12466 19.14C7.26792 20.3881 8.14881 21.291 8.04289 22.6002C7.99488 21.3775 8.51305 19.8009 9.45413 19.0043C9.87629 18.6473 10.2969 18.7107 10.8037 18.587C11.254 18.4751 11.4118 18.195 11.9093 18.3545C12.2439 17.415 12.8504 15.6265 13.8662 15.3092C14.4446 15.1283 15.0755 15.306 15.6851 15.1005C16.4212 14.8537 16.9714 14.2515 17.3791 13.6001C17.4538 13.4795 18.2432 12.2925 18.2447 12.3242C18.3088 13.0431 18.9054 13.155 19.2742 13.5779C18.7804 14.1397 18.66 14.9069 18.1838 15.4155C17.3479 16.3074 15.9976 16.689 14.9978 17.3793C13.4509 18.4473 12.7872 20.277 11.4156 21.4561Z"/>
<path d="M23.7092 18.2728C25.0053 18.4743 27.3988 15.2838 25.8916 14.4975C25.5487 14.3198 24.7082 14.4419 24.2936 14.3317C23.6512 14.1634 23.0554 13.8619 22.4831 13.5485C21.4955 13.0058 20.8806 12.5353 19.9037 13.3994C19.4548 13.7977 18.1106 15.5147 18.1465 16.0447C20.1269 16.1256 21.6662 17.9562 23.7092 18.2728Z"/>
<path d="M25.5228 16.4987C25.7148 16.4607 25.7163 16.2674 25.6942 16.1137C25.5479 16.2175 25.3818 16.1723 25.2568 16.0741C25.3498 16.2587 25.5441 16.3965 25.4793 16.6303"/>
<path d="M18.5808 19.8089C19.608 19.8874 20.3007 18.1482 20.4706 17.3484C20.7617 15.9884 20.3555 15.7448 19.0799 15.4988C17.8935 15.2711 17.8919 14.7958 17.0027 14.1079C15.6699 13.0748 13.9775 14.5935 13.8654 16.0678C13.7237 17.9387 15.7278 19.3812 17.181 19.9676C17.8782 20.2485 18.0131 19.8446 18.5915 19.8533"/>
<path d="M19.3276 18.6537C19.5226 18.6616 19.5646 18.4722 19.576 18.317C19.4114 18.3843 19.259 18.3027 19.1584 18.1775C19.2095 18.3788 19.3718 18.5594 19.2575 18.7733"/>
<path d="M8.96188 22.4217C8.72566 23.8452 8.80567 25.4607 9.71399 26.3723C10.4699 27.1317 11.0536 27.8704 12.1616 27.8767C12.0008 28.4853 12.5388 28.567 12.9236 28.4202C13.473 28.21 14.0742 27.3522 14.6298 26.7992C15.2637 26.1684 15.647 25.8685 16.0745 24.9973C16.6559 23.8126 17.1924 22.5772 17.786 21.4021C17.1048 20.8721 16.6331 20.1445 16.1492 19.432C15.785 18.8988 15.5289 18.0553 15.0732 17.6253C14.6572 17.2301 13.9676 17.3722 13.3846 17.4388C11.507 17.6499 10.0379 19.0218 9.37642 20.8245C9.20878 21.2823 9.05713 21.8354 8.96188 22.4217Z"/>
<path d="M11.9749 23.6468C12.1082 24.0317 12.3452 23.5587 12.5197 23.6936C12.6577 23.7991 12.6432 24.541 12.7232 24.7449C12.9884 24.3212 12.9167 23.6714 12.8238 23.3104C13.1438 23.1176 13.2482 23.531 13.0478 23.815C13.0722 23.8721 13.1354 23.9523 13.1712 23.9935C13.3419 23.865 13.4341 23.8325 13.4867 23.5786C13.6056 23.7896 13.5256 24.084 13.6071 24.3046C13.3572 24.4252 13.1865 23.3263 12.7918 24.2324C12.5022 24.9028 13.2368 25.0377 13.3701 25.4289C13.569 25.4313 13.726 25.5828 13.9013 25.6709C13.9409 25.467 13.9927 25.248 14.0499 25.0354C14.3196 25.6059 14.0643 26.3953 13.7976 27.0261C13.5835 27.5363 12.9495 28.5019 12.5281 28.0322C12.3658 27.8537 12.4984 27.6022 12.2759 27.4935C12.0755 27.3974 11.696 27.4221 11.4651 27.3538C10.9172 27.192 10.6429 27.0372 10.4448 26.3842C10.268 25.8002 9.75285 25.5233 9.59969 24.9131C9.38861 24.0792 10.1217 22.7954 10.7214 22.2947C11.03 22.0369 11.3249 21.7973 11.7227 21.9805C12.5677 22.3717 11.7783 23.0732 11.9749 23.6468Z"/>
<path d="M16.9836 21.0792C16.688 20.7181 16.326 20.3801 16.2734 20.3143C15.8741 19.8192 15.4268 18.4076 14.9003 18.1529C14.4034 17.9133 13.2947 18.4314 12.8703 18.6988C13.4296 18.7464 14.5421 18.8503 14.0826 19.7453C14.9178 19.3216 16.6438 21.3727 16.5432 22.2535C16.579 21.9456 16.5416 21.6068 16.5546 21.2791C16.55 21.3664 17.0019 22.0559 17.1101 22.0424C17.597 21.9773 17.3387 21.5124 16.9836 21.0792Z"/>
</mask>
<path d="M16.3854 19.5296C14.1573 20.6444 11.7798 21.6855 9.60959 22.8844C8.93369 23.2573 8.69289 24.0388 7.81658 23.7857C7.1681 23.6001 6.6263 22.8709 6.10051 22.5035C5.59834 22.1528 5.47185 22.0718 5.38345 21.3197C5.15104 19.336 5.74465 17.2691 6.18281 15.3736C6.55695 13.7621 5.14647 12.2116 5.23029 10.6073C5.30039 9.28458 7.16962 7.88891 8.06575 7.22003C11.2075 4.88093 15.0443 3.9494 18.4413 2.20618C20.3296 1.23737 20.6337 0.332825 22.8161 1.34924C24.4666 2.11809 25.778 2.63862 25.4656 4.4953C25.5128 4.21442 26.2741 5.02931 26.3191 5.14119C26.5042 5.59822 26.207 6.275 26.0737 6.70267C25.6203 8.15786 25.1341 9.09652 25.4641 10.7152C25.6934 11.8371 26.5705 13.1868 26.0927 14.346C25.4793 15.8393 23.3198 16.186 22.0358 16.6772C20.1086 17.4151 18.2478 18.5965 16.3854 19.5296Z" fill="#F3D48C"/>
<path d="M9.34366 13.7834C8.88874 14.1936 7.58721 16.251 8.67765 16.666C9.28879 16.8961 9.96622 15.4131 10.3129 15.0497C10.9142 14.4197 12.2271 12.7249 13.1149 12.6138C13.5683 12.5575 13.4136 12.7614 13.8754 12.8439C14.8355 13.0169 15.6905 12.7813 16.6331 12.5226C17.4103 12.3091 19.8374 11.5609 19.3154 10.3009C19.0296 9.61142 18.4375 9.93833 18.2836 9.22422C18.1754 8.7299 18.5221 7.55951 18.5465 6.98188C18.6181 5.34419 18.0702 5.2863 16.5325 5.55687C15.5846 5.7235 14.2472 6.46935 13.2917 6.33367C13.9599 5.0816 15.3186 4.87923 16.5622 4.78323C17.2137 4.73324 17.8538 4.78324 18.4703 4.4976C19.1066 4.20164 19.4746 3.55498 20.1048 3.26378C21.0215 2.84325 23.4204 3.56768 24.0726 4.23894C25.9586 6.1821 23.4546 9.54077 24.1671 11.8108C24.4072 12.5741 25.4671 13.1939 25.5388 13.9683C25.6584 15.2973 23.9606 15.506 23.0553 15.7075C22.2392 15.89 21.5664 16.2097 20.7891 16.5216C19.5828 17.004 18.5564 17.7705 17.453 18.456C16.2186 19.2249 14.693 19.8359 13.3442 20.3905C11.8766 20.9911 10.4318 21.5505 8.98551 22.2091C7.87068 22.7169 7.02484 22.4677 6.19577 21.3513C5.52824 20.4524 6.16834 19.4121 6.43962 18.4545C6.77109 17.2912 7.00503 16.0518 6.92501 14.8339C6.79852 12.8875 4.93616 11.8418 6.67813 10.1065C4.85615 11.9188 7.73733 13.873 9.34366 13.7834Z" fill="#DCC06D"/>
<path d="M10.0965 7.18421C10.1194 7.38019 17.0537 7.05252 17.5475 6.93509C18.4916 6.70896 18.7111 6.20432 19.2986 5.3585C19.7726 4.67772 19.8556 4.4262 20.6603 4.26513C21.3804 4.12152 21.4993 4.47855 22.1699 4.51822C22.512 4.53885 23.0835 4.21195 23.3685 4.39841C23.8235 4.69833 23.6733 6.35429 23.6672 6.76133C23.6551 7.76188 23.0797 9.03059 23.1453 9.93354C23.1956 10.6159 24.0391 11.3728 24.4536 11.9164C25.0549 10.4762 24.8491 8.76953 25.4595 7.30402C25.8413 6.38838 26.3709 5.96785 26.1034 4.93398C25.7453 3.55337 24.0658 1.88156 22.7063 1.62607C21.0345 1.31107 19.448 2.7853 18.0649 3.55178C16.4654 4.4341 15.042 4.49523 13.2558 4.7531C10.556 5.1411 7.5872 6.63358 6.60344 9.50984C7.28773 8.19747 8.98627 7.74123 10.076 6.91286C10.0927 7.00411 10.0843 7.08899 10.0965 7.18421Z" fill="#CCB25C"/>
<path d="M24.619 16.5827C26.0287 17.5023 27.6198 17.9054 29.233 18.2275C30.5048 18.4814 32.1035 19.3407 33.3852 18.7734C34.6121 18.2291 35.2643 16.3042 34.9428 15.0132C34.6692 13.9199 32.8373 12.4591 31.8528 12.0703C30.946 11.7133 29.9561 11.6006 29.0745 11.1658C28.3231 10.7944 27.8682 10.0438 27.1771 9.67806C25.794 8.9457 24.3896 10.8286 23.0386 11.0055C22.0716 11.1333 20.9453 11.0738 19.9997 10.9476C19.1416 10.8326 18.4505 11.0253 18.8406 12.0259C19.1157 12.7344 20.1002 14.1619 20.7137 14.5459C21.1739 14.8347 21.7424 14.7713 22.2484 14.9934C23.0995 15.3671 23.841 16.0749 24.619 16.5827Z" fill="#F3D48C"/>
<path d="M26.6429 10.604C26.3 12.7813 29.2124 13.1756 30.6001 13.2692C31.7034 13.3446 33.6184 14.5785 33.0476 15.9995C32.6316 17.0406 30.9841 16.9524 30.184 16.5446C28.9648 15.9225 28.6493 15.3489 28.5914 14.0492C28.0465 14.4158 27.3676 13.8207 27.0239 14.5324C26.7587 14.2357 26.2375 13.616 25.8032 13.4946C24.731 13.1962 24.0886 13.4732 23.1102 12.7519C22.3398 12.1846 21.657 11.3721 20.6649 11.2602C21.5786 11.3634 23.3708 13.0622 22.0038 13.8199C22.7132 14.4015 23.7655 14.4428 24.5504 14.9736C25.4961 15.6123 26.457 16.2947 27.6305 16.3478C28.6478 16.3947 29.8182 16.2669 30.7189 16.8755C31.0458 17.0937 31.5587 18.2243 31.9503 17.4515C32.9265 17.7372 33.0118 17.5563 33.3921 16.6898C33.7106 15.9622 34.0878 15.2513 34.6159 14.6657C33.7076 14.4824 33.3311 13.7049 32.688 13.1574C31.9663 12.5417 30.8774 12.2156 29.9943 11.9624C29.1903 11.7339 28.487 11.4467 27.7875 10.9992C27.2937 10.685 27.1062 10.1946 26.4379 10.7095" fill="#DCC06D"/>
<path d="M15.4527 12.9582C15.3811 13.005 15.3117 13.0479 15.2416 13.0851C13.8022 13.8826 12.5129 14.949 11.1108 15.8186C10.2558 16.347 9.39471 17.008 8.45362 17.2032C7.65427 17.369 7.30069 17.0064 6.81453 17.7348C6.0007 18.9607 6.62402 20.3278 7.19781 21.4807C7.47976 22.0464 7.51558 24.3014 8.52754 24.1062C8.96951 24.0205 9.15696 23.1096 9.53187 22.8367C10.0218 22.4836 10.649 22.5304 11.2174 22.4971C12.5045 22.4201 12.7895 21.3712 13.4555 20.396C14.1207 19.4224 14.7296 18.3862 15.5358 17.5309C16.4563 16.5534 17.4302 16.6477 18.4741 16.0051C19.3725 15.4504 19.8496 14.0262 20.2908 13.0788C19.9265 12.8082 19.4327 12.8067 19.0799 12.4956C18.6654 12.1291 18.7096 11.7657 18.5496 11.2618C17.4919 11.1952 16.3649 12.3695 15.4527 12.9582Z" fill="#F3D48C"/>
<path d="M11.4156 21.4561C10.6094 22.1503 9.74675 22.7668 8.94054 23.4786C8.4559 23.9055 8.54582 23.9586 8.12138 23.3723C7.38832 22.3614 7.06446 20.3658 7.12466 19.14C7.26792 20.3881 8.14881 21.291 8.04289 22.6002C7.99488 21.3775 8.51305 19.8009 9.45413 19.0043C9.87629 18.6473 10.2969 18.7107 10.8037 18.587C11.254 18.4751 11.4118 18.195 11.9093 18.3545C12.2439 17.415 12.8504 15.6265 13.8662 15.3092C14.4446 15.1283 15.0755 15.306 15.6851 15.1005C16.4212 14.8537 16.9714 14.2515 17.3791 13.6001C17.4538 13.4795 18.2432 12.2925 18.2447 12.3242C18.3088 13.0431 18.9054 13.155 19.2742 13.5779C18.7804 14.1397 18.66 14.9069 18.1838 15.4155C17.3479 16.3074 15.9976 16.689 14.9978 17.3793C13.4509 18.4473 12.7872 20.277 11.4156 21.4561Z" fill="#DCC06D"/>
<path d="M23.7092 18.2728C25.0053 18.4743 27.3988 15.2838 25.8916 14.4975C25.5487 14.3198 24.7082 14.4419 24.2936 14.3317C23.6512 14.1634 23.0554 13.8619 22.4831 13.5485C21.4955 13.0058 20.8806 12.5353 19.9037 13.3994C19.4548 13.7977 18.1106 15.5147 18.1465 16.0447C20.1269 16.1256 21.6662 17.9562 23.7092 18.2728Z" fill="#F3D48C"/>
<path d="M25.5228 16.4987C25.7148 16.4607 25.7163 16.2674 25.6942 16.1137C25.5479 16.2175 25.3818 16.1723 25.2568 16.0741C25.3498 16.2587 25.5441 16.3965 25.4793 16.6303" fill="#DCC06D"/>
<path d="M18.5808 19.8089C19.608 19.8874 20.3007 18.1482 20.4706 17.3484C20.7617 15.9884 20.3555 15.7448 19.0799 15.4988C17.8935 15.2711 17.8919 14.7958 17.0027 14.1079C15.6699 13.0748 13.9775 14.5935 13.8654 16.0678C13.7237 17.9387 15.7278 19.3812 17.181 19.9676C17.8782 20.2485 18.0131 19.8446 18.5915 19.8533" fill="#F3D48C"/>
<path d="M19.3276 18.6537C19.5226 18.6616 19.5646 18.4722 19.576 18.317C19.4114 18.3843 19.259 18.3027 19.1584 18.1775C19.2095 18.3788 19.3718 18.5594 19.2575 18.7733" fill="#DCC06D"/>
<path d="M8.96188 22.4217C8.72566 23.8452 8.80567 25.4607 9.71399 26.3723C10.4699 27.1317 11.0536 27.8704 12.1616 27.8767C12.0008 28.4853 12.5388 28.567 12.9236 28.4202C13.473 28.21 14.0742 27.3522 14.6298 26.7992C15.2637 26.1684 15.647 25.8685 16.0745 24.9973C16.6559 23.8126 17.1924 22.5772 17.786 21.4021C17.1048 20.8721 16.6331 20.1445 16.1492 19.432C15.785 18.8988 15.5289 18.0553 15.0732 17.6253C14.6572 17.2301 13.9676 17.3722 13.3846 17.4388C11.507 17.6499 10.0379 19.0218 9.37642 20.8245C9.20878 21.2823 9.05713 21.8354 8.96188 22.4217Z" fill="#F3D48C"/>
<path d="M11.9749 23.6468C12.1082 24.0317 12.3452 23.5587 12.5197 23.6936C12.6577 23.7991 12.6432 24.541 12.7232 24.7449C12.9884 24.3212 12.9167 23.6714 12.8238 23.3104C13.1438 23.1176 13.2482 23.531 13.0478 23.815C13.0722 23.8721 13.1354 23.9523 13.1712 23.9935C13.3419 23.865 13.4341 23.8325 13.4867 23.5786C13.6056 23.7896 13.5256 24.084 13.6071 24.3046C13.3572 24.4252 13.1865 23.3263 12.7918 24.2324C12.5022 24.9028 13.2368 25.0377 13.3701 25.4289C13.569 25.4313 13.726 25.5828 13.9013 25.6709C13.9409 25.467 13.9927 25.248 14.0499 25.0354C14.3196 25.6059 14.0643 26.3953 13.7976 27.0261C13.5835 27.5363 12.9495 28.5019 12.5281 28.0322C12.3658 27.8537 12.4984 27.6022 12.2759 27.4935C12.0755 27.3974 11.696 27.4221 11.4651 27.3538C10.9172 27.192 10.6429 27.0372 10.4448 26.3842C10.268 25.8002 9.75285 25.5233 9.59969 24.9131C9.38861 24.0792 10.1217 22.7954 10.7214 22.2947C11.03 22.0369 11.3249 21.7973 11.7227 21.9805C12.5677 22.3717 11.7783 23.0732 11.9749 23.6468Z" fill="#DCC06D"/>
<path d="M16.9836 21.0792C16.688 20.7181 16.326 20.3801 16.2734 20.3143C15.8741 19.8192 15.4268 18.4076 14.9003 18.1529C14.4034 17.9133 13.2947 18.4314 12.8703 18.6988C13.4296 18.7464 14.5421 18.8503 14.0826 19.7453C14.9178 19.3216 16.6438 21.3727 16.5432 22.2535C16.579 21.9456 16.5416 21.6068 16.5546 21.2791C16.55 21.3664 17.0019 22.0559 17.1101 22.0424C17.597 21.9773 17.3387 21.5124 16.9836 21.0792Z" fill="#DCC06D"/>
<path d="M16.3854 19.5296L16.5286 19.8158L16.5288 19.8157L16.3854 19.5296ZM9.60959 22.8844L9.76418 23.1646L9.76433 23.1645L9.60959 22.8844ZM7.81658 23.7857L7.90537 23.4783L7.90466 23.4781L7.81658 23.7857ZM6.10051 22.5035L6.28379 22.2412L6.28373 22.2411L6.10051 22.5035ZM5.38345 21.3197L5.06563 21.3569L5.06564 21.357L5.38345 21.3197ZM6.18281 15.3736L5.8711 15.3012L5.87103 15.3015L6.18281 15.3736ZM5.23029 10.6073L4.91074 10.5903L4.91072 10.5906L5.23029 10.6073ZM8.06575 7.22003L7.87465 6.96336L7.87434 6.96359L8.06575 7.22003ZM18.4413 2.20618L18.2953 1.92147L18.2952 1.92148L18.4413 2.20618ZM22.8161 1.34924L22.9512 1.05917L22.9512 1.05916L22.8161 1.34924ZM25.4656 4.4953L25.15 4.44222L25.7812 4.5484L25.4656 4.4953ZM26.3191 5.14119L26.0221 5.26052L26.0225 5.26135L26.3191 5.14119ZM26.0737 6.70267L25.7682 6.60742L25.7682 6.60748L26.0737 6.70267ZM25.4641 10.7152L25.1505 10.7791L25.1506 10.7793L25.4641 10.7152ZM26.0927 14.346L25.7969 14.2241L25.7967 14.2244L26.0927 14.346ZM22.0358 16.6772L21.9214 16.3783L21.9213 16.3783L22.0358 16.6772ZM9.34366 13.7834L9.55795 14.021L10.2319 13.4133L9.32582 13.4639L9.34366 13.7834ZM8.67765 16.666L8.56384 16.9651L8.56489 16.9655L8.67765 16.666ZM10.3129 15.0497L10.0814 14.8288L10.0814 14.8288L10.3129 15.0497ZM13.1149 12.6138L13.0754 12.2963L13.0751 12.2963L13.1149 12.6138ZM13.8754 12.8439L13.9321 12.529L13.9316 12.5289L13.8754 12.8439ZM16.6331 12.5226L16.7178 12.8312L16.7178 12.8312L16.6331 12.5226ZM19.3154 10.3009L19.611 10.1785L19.611 10.1784L19.3154 10.3009ZM18.2836 9.22422L18.5964 9.15679L18.5962 9.15579L18.2836 9.22422ZM18.5465 6.98188L18.2268 6.9679L18.2268 6.96838L18.5465 6.98188ZM16.5325 5.55687L16.5879 5.87204L16.588 5.87203L16.5325 5.55687ZM13.2917 6.33367L13.0094 6.18299L12.7941 6.58623L13.2467 6.65049L13.2917 6.33367ZM16.5622 4.78323L16.5377 4.46416L16.5376 4.46418L16.5622 4.78323ZM18.4703 4.4976L18.6048 4.78794L18.6053 4.78774L18.4703 4.4976ZM20.1048 3.26378L19.9714 2.97293L19.9706 2.9733L20.1048 3.26378ZM24.0726 4.23894L24.3023 4.01607L24.3021 4.01593L24.0726 4.23894ZM24.1671 11.8108L23.8618 11.9067L23.8619 11.9068L24.1671 11.8108ZM25.5388 13.9683L25.8575 13.9396L25.8574 13.9388L25.5388 13.9683ZM23.0553 15.7075L22.9858 15.3951L22.9855 15.3952L23.0553 15.7075ZM20.7891 16.5216L20.9079 16.8187L20.9083 16.8186L20.7891 16.5216ZM17.453 18.456L17.2841 18.1842L17.2838 18.1844L17.453 18.456ZM13.3442 20.3905L13.4654 20.6866L13.4659 20.6864L13.3442 20.3905ZM8.98551 22.2091L8.8529 21.9178L8.85286 21.9179L8.98551 22.2091ZM6.19577 21.3513L5.93885 21.5421L5.93886 21.5421L6.19577 21.3513ZM6.43962 18.4545L6.13187 18.3668L6.13173 18.3672L6.43962 18.4545ZM6.92501 14.8339L6.60569 14.8546L6.6057 14.8549L6.92501 14.8339ZM6.67813 10.1065L6.90397 10.3332L6.45246 9.87966L6.67813 10.1065ZM10.0965 7.18421L10.4144 7.14713L10.4139 7.14356L10.0965 7.18421ZM17.5475 6.93509L17.6215 7.24641L17.622 7.24629L17.5475 6.93509ZM19.2986 5.3585L19.036 5.17566L19.0358 5.17595L19.2986 5.3585ZM20.6603 4.26513L20.5978 3.95131L20.5975 3.95136L20.6603 4.26513ZM22.1699 4.51822L22.1892 4.1988L22.1888 4.19878L22.1699 4.51822ZM23.3685 4.39841L23.5447 4.13124L23.5437 4.13063L23.3685 4.39841ZM23.6672 6.76133L23.3473 6.75654L23.3473 6.75743L23.6672 6.76133ZM23.1453 9.93354L22.8261 9.95671L22.8261 9.95706L23.1453 9.93354ZM24.4536 11.9164L24.1992 12.1104L24.5354 12.5512L24.7489 12.0396L24.4536 11.9164ZM25.4595 7.30402L25.1642 7.18088L25.1641 7.18099L25.4595 7.30402ZM26.1034 4.93398L26.4132 4.85383L26.4132 4.85363L26.1034 4.93398ZM22.7063 1.62607L22.6471 1.94054L22.6472 1.94056L22.7063 1.62607ZM18.0649 3.55178L18.2195 3.83198L18.22 3.83167L18.0649 3.55178ZM13.2558 4.7531L13.3014 5.06984L13.3016 5.06981L13.2558 4.7531ZM6.60344 9.50984L6.30066 9.40628L6.88719 9.65779L6.60344 9.50984ZM10.076 6.91286L10.3907 6.85504L10.2966 6.34314L9.88229 6.65812L10.076 6.91286ZM24.619 16.5827L24.4441 16.8507L24.4442 16.8507L24.619 16.5827ZM29.233 18.2275L29.1703 18.5413L29.1704 18.5413L29.233 18.2275ZM33.3852 18.7734L33.5147 19.066L33.515 19.0659L33.3852 18.7734ZM34.9428 15.0132L35.2533 14.9359L35.2532 14.9356L34.9428 15.0132ZM31.8528 12.0703L31.9703 11.7727L31.97 11.7726L31.8528 12.0703ZM29.0745 11.1658L28.9327 11.4527L28.933 11.4528L29.0745 11.1658ZM27.1771 9.67806L27.0273 9.96086L27.0274 9.96089L27.1771 9.67806ZM23.0386 11.0055L22.997 10.6882L22.9967 10.6883L23.0386 11.0055ZM19.9997 10.9476L19.9571 11.2648L19.9573 11.2648L19.9997 10.9476ZM18.8406 12.0259L19.1389 11.9101L19.1388 11.9096L18.8406 12.0259ZM20.7137 14.5459L20.8838 14.2748L20.8835 14.2747L20.7137 14.5459ZM22.2484 14.9934L22.1197 15.2864L22.1197 15.2864L22.2484 14.9934ZM30.6001 13.2692L30.6219 12.95L30.6216 12.95L30.6001 13.2692ZM33.0476 15.9995L32.7507 15.8803L32.7505 15.8808L33.0476 15.9995ZM30.184 16.5446L30.0386 16.8296L30.0387 16.8297L30.184 16.5446ZM28.5914 14.0492L28.9111 14.035L28.8857 13.4655L28.4127 13.7837L28.5914 14.0492ZM27.0239 14.5324L26.7853 14.7457L27.1041 15.1024L27.3121 14.6716L27.0239 14.5324ZM25.8032 13.4946L25.8893 13.1864L25.889 13.1863L25.8032 13.4946ZM23.1102 12.7519L23.3001 12.4943L23.3 12.4943L23.1102 12.7519ZM20.6649 11.2602L20.7008 10.9422L20.629 11.5782L20.6649 11.2602ZM22.0038 13.8199L21.8486 13.54L21.4364 13.7686L21.8009 14.0674L22.0038 13.8199ZM24.5504 14.9736L24.3711 15.2387L24.3713 15.2388L24.5504 14.9736ZM27.6305 16.3478L27.6452 16.0282L27.645 16.0282L27.6305 16.3478ZM30.7189 16.8755L30.5398 17.1406L30.5413 17.1416L30.7189 16.8755ZM31.9503 17.4515L32.0402 17.1444L31.7851 17.0697L31.6649 17.3069L31.9503 17.4515ZM33.3921 16.6898L33.6851 16.8184L33.6852 16.8182L33.3921 16.6898ZM34.6159 14.6657L34.8535 14.88L35.2295 14.4631L34.6792 14.352L34.6159 14.6657ZM32.688 13.1574L32.4803 13.4008L32.4806 13.401L32.688 13.1574ZM29.9943 11.9624L30.0824 11.6548L30.0817 11.6546L29.9943 11.9624ZM27.7875 10.9992L27.9599 10.7296L27.9593 10.7292L27.7875 10.9992ZM15.4527 12.9582L15.2792 12.6894L15.2777 12.6904L15.4527 12.9582ZM15.2416 13.0851L15.0913 12.8026L15.0866 12.8052L15.2416 13.0851ZM11.1108 15.8186L11.279 16.0908L11.2794 16.0905L11.1108 15.8186ZM8.45362 17.2032L8.38863 16.8898L8.38862 16.8898L8.45362 17.2032ZM6.81453 17.7348L6.54837 17.5571L6.54793 17.5578L6.81453 17.7348ZM7.19781 21.4807L6.91133 21.6233L6.91141 21.6234L7.19781 21.4807ZM8.52754 24.1062L8.58814 24.4204L8.58845 24.4204L8.52754 24.1062ZM9.53187 22.8367L9.34478 22.5771L9.34352 22.578L9.53187 22.8367ZM11.2174 22.4971L11.2362 22.8165L11.2366 22.8165L11.2174 22.4971ZM13.4555 20.396L13.1913 20.2155L13.1912 20.2155L13.4555 20.396ZM15.5358 17.5309L15.7686 17.7504L15.7687 17.7503L15.5358 17.5309ZM18.4741 16.0051L18.6419 16.2776L18.6422 16.2773L18.4741 16.0051ZM20.2908 13.0788L20.5808 13.2139L20.691 12.9775L20.4816 12.8219L20.2908 13.0788ZM19.0799 12.4956L18.8679 12.7353L18.8683 12.7357L19.0799 12.4956ZM18.5496 11.2618L18.8545 11.165L18.7882 10.9562L18.5697 10.9424L18.5496 11.2618ZM11.4156 21.4561L11.207 21.2134L11.2068 21.2136L11.4156 21.4561ZM8.94054 23.4786L9.15205 23.7187L9.15232 23.7185L8.94054 23.4786ZM8.12138 23.3723L8.38059 23.1846L8.38043 23.1844L8.12138 23.3723ZM7.12466 19.14L7.44257 19.1035L6.80505 19.1243L7.12466 19.14ZM8.04289 22.6002L7.72314 22.6128L8.36185 22.626L8.04289 22.6002ZM9.45413 19.0043L9.24748 18.76L9.24738 18.7601L9.45413 19.0043ZM10.8037 18.587L10.8796 18.8978L10.8808 18.8975L10.8037 18.587ZM11.9093 18.3545L11.8117 18.6592L12.1068 18.7538L12.2108 18.4618L11.9093 18.3545ZM13.8662 15.3092L13.9616 15.6146L13.9617 15.6146L13.8662 15.3092ZM15.6851 15.1005L15.5834 14.7971L15.5829 14.7973L15.6851 15.1005ZM17.3791 13.6001L17.6504 13.7698L17.6512 13.7685L17.3791 13.6001ZM18.2447 12.3242L17.9248 12.3396L17.926 12.3526L18.2447 12.3242ZM19.2742 13.5779L19.5146 13.7892L19.6995 13.5787L19.5154 13.3676L19.2742 13.5779ZM18.1838 15.4155L18.4173 15.6344L18.4174 15.6342L18.1838 15.4155ZM14.9978 17.3793L15.1796 17.6426L15.1796 17.6426L14.9978 17.3793ZM23.7092 18.2728L23.7583 17.9566L23.7582 17.9565L23.7092 18.2728ZM25.8916 14.4975L26.0396 14.2138L26.0388 14.2134L25.8916 14.4975ZM24.2936 14.3317L24.3759 14.0224L24.3747 14.0221L24.2936 14.3317ZM22.4831 13.5485L22.329 13.829L22.3294 13.8292L22.4831 13.5485ZM19.9037 13.3994L19.6917 13.1597L19.6913 13.16L19.9037 13.3994ZM18.1465 16.0447L17.8272 16.0663L17.8465 16.3527L18.1334 16.3644L18.1465 16.0447ZM25.6942 16.1137L26.011 16.0682L25.9364 15.5496L25.5091 15.8527L25.6942 16.1137ZM25.2568 16.0741L25.4546 15.8225L24.971 16.218L25.2568 16.0741ZM20.4706 17.3484L20.1577 17.2814L20.1576 17.2819L20.4706 17.3484ZM19.0799 15.4988L19.1405 15.1846L19.1402 15.1846L19.0799 15.4988ZM17.0027 14.1079L16.8066 14.3608L16.8069 14.361L17.0027 14.1079ZM13.8654 16.0678L13.5464 16.0435L13.5464 16.0436L13.8654 16.0678ZM17.181 19.9676L17.0612 20.2643L17.0614 20.2644L17.181 19.9676ZM19.576 18.317L19.8951 18.3404L19.9331 17.8251L19.4548 18.0208L19.576 18.317ZM19.1584 18.1775L19.4078 17.9771L18.8482 18.2562L19.1584 18.1775ZM8.96188 22.4217L9.27757 22.4741L9.27774 22.473L8.96188 22.4217ZM9.71399 26.3723L9.94077 26.1466L9.94068 26.1465L9.71399 26.3723ZM12.1616 27.8767L12.471 27.9585L12.5765 27.5591L12.1634 27.5567L12.1616 27.8767ZM12.9236 28.4202L13.0376 28.7192L13.038 28.7191L12.9236 28.4202ZM14.6298 26.7992L14.4041 26.5723L14.404 26.5724L14.6298 26.7992ZM16.0745 24.9973L15.7873 24.8563L15.7872 24.8563L16.0745 24.9973ZM17.786 21.4021L18.0716 21.5464L18.1904 21.3113L17.9825 21.1496L17.786 21.4021ZM16.1492 19.432L16.4139 19.2522L16.4134 19.2515L16.1492 19.432ZM15.0732 17.6253L14.8529 17.8573L14.8536 17.858L15.0732 17.6253ZM13.3846 17.4388L13.4204 17.7568L13.421 17.7568L13.3846 17.4388ZM9.37642 20.8245L9.07601 20.7143L9.07593 20.7145L9.37642 20.8245ZM11.9749 23.6468L11.6722 23.7506L11.6725 23.7516L11.9749 23.6468ZM12.5197 23.6936L12.324 23.9468L12.3253 23.9478L12.5197 23.6936ZM12.7232 24.7449L12.4253 24.8618L12.6574 25.4533L12.9944 24.9147L12.7232 24.7449ZM12.8238 23.3104L12.6586 23.0363L12.4544 23.1593L12.5139 23.3902L12.8238 23.3104ZM13.0478 23.815L12.7863 23.6305L12.6834 23.7764L12.7535 23.9406L13.0478 23.815ZM13.1712 23.9935L12.9296 24.2033L13.1253 24.4287L13.3637 24.2491L13.1712 23.9935ZM13.4867 23.5786L13.7655 23.4216L13.3465 22.6776L13.1734 23.5137L13.4867 23.5786ZM13.6071 24.3046L13.7462 24.5928L14.0081 24.4664L13.9073 24.1936L13.6071 24.3046ZM12.7918 24.2324L12.4984 24.1046L12.498 24.1055L12.7918 24.2324ZM13.3701 25.4289L13.0673 25.5322L13.1402 25.7462L13.3663 25.7489L13.3701 25.4289ZM13.9013 25.6709L13.7576 25.9568L14.1348 26.1464L14.2154 25.7319L13.9013 25.6709ZM14.0499 25.0354L14.3391 24.8986L13.9669 24.1113L13.7408 24.9523L14.0499 25.0354ZM13.7976 27.0261L13.5029 26.9015L13.5026 26.9023L13.7976 27.0261ZM12.5281 28.0322L12.7663 27.8185L12.7649 27.817L12.5281 28.0322ZM12.2759 27.4935L12.4163 27.2059L12.4141 27.2049L12.2759 27.4935ZM11.4651 27.3538L11.5558 27.047L11.5558 27.0469L11.4651 27.3538ZM10.4448 26.3842L10.1385 26.4769L10.1385 26.4771L10.4448 26.3842ZM9.59969 24.9131L9.91006 24.8352L9.9099 24.8346L9.59969 24.9131ZM10.7214 22.2947L10.9265 22.5404L10.9266 22.5403L10.7214 22.2947ZM11.7227 21.9805L11.8571 21.6901L11.8566 21.6899L11.7227 21.9805ZM16.9836 21.0792L16.736 21.2819L16.7361 21.282L16.9836 21.0792ZM16.2734 20.3143L16.5235 20.1146L16.5225 20.1134L16.2734 20.3143ZM14.9003 18.1529L15.0396 17.8649L15.0393 17.8647L14.9003 18.1529ZM12.8703 18.6988L12.6997 18.4281L11.8923 18.9367L12.8431 19.0177L12.8703 18.6988ZM14.0826 19.7453L13.7979 19.5992L13.3471 20.4773L14.2274 20.0307L14.0826 19.7453ZM16.5432 22.2535L16.2252 22.2171L16.861 22.2904L16.5432 22.2535ZM16.5546 21.2791L16.8744 21.2918L16.235 21.2624L16.5546 21.2791ZM17.1101 22.0424L17.1497 22.36L17.1525 22.3596L17.1101 22.0424ZM16.3854 19.5296L16.2422 19.2435C14.0367 20.347 11.6303 21.4025 9.45486 22.6043L9.60959 22.8844L9.76433 23.1645C11.9293 21.9685 14.2779 20.9419 16.5286 19.8158L16.3854 19.5296ZM9.60959 22.8844L9.45501 22.6042C9.2524 22.716 9.08835 22.8552 8.94995 22.9835C8.80036 23.1222 8.70314 23.2249 8.58424 23.3233C8.4749 23.4137 8.38164 23.4691 8.28561 23.4958C8.19393 23.5213 8.07548 23.5274 7.90537 23.4783L7.81658 23.7857L7.72778 24.0932C7.99582 24.1706 8.2361 24.1739 8.45715 24.1124C8.67385 24.0521 8.84735 23.9363 8.99224 23.8164C9.12756 23.7044 9.27204 23.5576 9.38509 23.4528C9.50932 23.3376 9.62883 23.2392 9.76418 23.1646L9.60959 22.8844ZM7.81658 23.7857L7.90466 23.4781C7.65573 23.4068 7.40466 23.2226 7.12539 22.9738C6.86955 22.7459 6.56694 22.439 6.28379 22.2412L6.10051 22.5035L5.91723 22.7658C6.15987 22.9353 6.39105 23.1767 6.69967 23.4517C6.98487 23.7058 7.32895 23.979 7.72849 24.0934L7.81658 23.7857ZM6.10051 22.5035L6.28373 22.2411C6.01485 22.0534 5.91761 21.9814 5.85304 21.8846C5.79316 21.7948 5.74493 21.6539 5.70127 21.2823L5.38345 21.3197L5.06564 21.357C5.11037 21.7376 5.16958 22.0133 5.32059 22.2397C5.46691 22.4591 5.68399 22.6029 5.91728 22.7658L6.10051 22.5035ZM5.38345 21.3197L5.70128 21.2824C5.47704 19.3685 6.0495 17.3711 6.49458 15.4456L6.18281 15.3736L5.87103 15.3015C5.43979 17.1671 4.82504 19.3035 5.06563 21.3569L5.38345 21.3197ZM6.18281 15.3736L6.49451 15.4459C6.70607 14.5347 6.40801 13.6585 6.11513 12.8756C5.80947 12.0585 5.51225 11.3437 5.54985 10.624L5.23029 10.6073L4.91072 10.5906C4.86451 11.4752 5.23062 12.3378 5.5157 13.0999C5.81359 13.8961 6.03369 14.6009 5.8711 15.3012L6.18281 15.3736ZM5.23029 10.6073L5.54984 10.6242C5.57814 10.0902 5.98385 9.4851 6.56639 8.89288C7.13493 8.31489 7.80724 7.8123 8.25716 7.47647L8.06575 7.22003L7.87434 6.96359C7.42813 7.29665 6.71776 7.82634 6.11013 8.44407C5.5165 9.04757 4.95254 9.80165 4.91074 10.5903L5.23029 10.6073ZM8.06575 7.22003L8.25685 7.47671C9.79547 6.33119 11.5107 5.52557 13.2813 4.78486C15.0411 4.04869 16.8741 3.37008 18.5874 2.49088L18.4413 2.20618L18.2952 1.92148C16.6115 2.7855 14.8276 3.44427 13.0343 4.19444C11.2519 4.94008 9.47782 5.76978 7.87465 6.96336L8.06575 7.22003ZM18.4413 2.20618L18.5874 2.49089C19.0737 2.24138 19.4585 1.99561 19.7842 1.79197C20.1159 1.58461 20.3731 1.42987 20.6312 1.33273C21.1044 1.15457 21.6313 1.15048 22.681 1.63932L22.8161 1.34924L22.9512 1.05916C21.8184 0.531585 21.1021 0.471561 20.4057 0.733773C20.0788 0.856821 19.7696 1.04634 19.445 1.2493C19.1144 1.45597 18.7531 1.68657 18.2953 1.92147L18.4413 2.20618ZM22.8161 1.34924L22.6809 1.63931C23.5297 2.0347 24.2107 2.33368 24.6596 2.74917C24.8748 2.94837 25.0263 3.1668 25.1112 3.42762C25.1966 3.68996 25.2216 4.01678 25.15 4.4422L25.4656 4.4953L25.7812 4.5484C25.8658 4.04548 25.844 3.61098 25.7198 3.2295C25.5951 2.84651 25.3742 2.53862 25.0943 2.2795C24.5529 1.77834 23.7529 1.43263 22.9512 1.05917L22.8161 1.34924ZM25.4656 4.4953L25.7812 4.54838C25.7776 4.56968 25.7656 4.61704 25.7242 4.6647C25.679 4.71687 25.6205 4.74419 25.5683 4.75317C25.4887 4.76689 25.444 4.73574 25.4715 4.74924C25.5075 4.76687 25.5806 4.81971 25.6785 4.90826C25.7699 4.99095 25.8628 5.0863 25.9348 5.16683C25.9708 5.20711 25.9993 5.2412 26.0187 5.26615C26.0481 5.3039 26.0359 5.29474 26.0221 5.26051L26.3191 5.14119L26.616 5.02187C26.591 4.95967 26.5452 4.90058 26.5241 4.87344C26.4931 4.83351 26.4544 4.78778 26.412 4.74032C26.3271 4.64537 26.2183 4.53357 26.1079 4.43366C26.0039 4.33962 25.8751 4.2344 25.7536 4.17474C25.7024 4.14959 25.5901 4.09999 25.4597 4.12247C25.3821 4.13583 25.3023 4.17434 25.2407 4.24537C25.183 4.3119 25.1595 4.38581 25.15 4.44222L25.4656 4.4953ZM26.3191 5.14119L26.0225 5.26135C26.0754 5.39204 26.0694 5.59112 26.0048 5.85756C25.9396 6.12667 25.845 6.36112 25.7682 6.60742L26.0737 6.70267L26.3792 6.79793C26.4357 6.61655 26.5564 6.29877 26.6268 6.00832C26.6979 5.7152 26.7479 5.34737 26.6156 5.02103L26.3191 5.14119ZM26.0737 6.70267L25.7682 6.60748C25.3277 8.02128 24.7999 9.05914 25.1505 10.7791L25.4641 10.7152L25.7776 10.6513C25.4683 9.13391 25.9129 8.29445 26.3792 6.79786L26.0737 6.70267ZM25.4641 10.7152L25.1506 10.7793C25.2127 11.0833 25.3173 11.3962 25.4246 11.6995C25.5343 12.0096 25.646 12.3074 25.7373 12.6092C25.9206 13.2157 25.9917 13.7513 25.7969 14.2241L26.0927 14.346L26.3886 14.4679C26.6715 13.7815 26.543 13.0626 26.3499 12.424C26.2529 12.1033 26.1323 11.7809 26.0279 11.486C25.9212 11.1845 25.8301 10.908 25.7776 10.6511L25.4641 10.7152ZM26.0927 14.346L25.7967 14.2244C25.5388 14.8523 24.9437 15.2684 24.1891 15.5935C23.8161 15.7542 23.4195 15.8862 23.0281 16.0108C22.6428 16.1333 22.2536 16.2512 21.9214 16.3783L22.0358 16.6772L22.1501 16.976C22.4599 16.8575 22.8222 16.7479 23.2221 16.6206C23.6159 16.4953 24.0383 16.3553 24.4423 16.1813C25.2419 15.8368 26.0332 15.333 26.3887 14.4676L26.0927 14.346ZM22.0358 16.6772L21.9213 16.3783C20.9382 16.7548 19.9768 17.2424 19.0349 17.7483C18.0866 18.2576 17.1682 18.7795 16.2421 19.2435L16.3854 19.5296L16.5288 19.8157C17.465 19.3466 18.4082 18.8113 19.3377 18.3121C20.2736 17.8095 21.2062 17.3375 22.1502 16.976L22.0358 16.6772ZM9.34366 13.7834L9.12936 13.5457C8.98572 13.6753 8.8015 13.9071 8.62692 14.1727C8.44909 14.4433 8.26662 14.7712 8.13385 15.1045C8.00388 15.4308 7.90788 15.7959 7.93911 16.1281C7.95517 16.299 8.00587 16.4715 8.11256 16.6236C8.22079 16.7779 8.37387 16.8928 8.56384 16.9651L8.67765 16.666L8.79147 16.3669C8.70882 16.3355 8.66404 16.2953 8.63651 16.256C8.60743 16.2146 8.58447 16.1551 8.57631 16.0683C8.5591 15.8852 8.61246 15.6325 8.72843 15.3413C8.84161 15.0571 9.00166 14.7678 9.16174 14.5242C9.32507 14.2757 9.47413 14.0966 9.55795 14.021L9.34366 13.7834ZM8.67765 16.666L8.56489 16.9655C8.86266 17.0776 9.1352 16.9621 9.33013 16.8206C9.52511 16.6792 9.7012 16.4724 9.85091 16.2718C10.0029 16.0681 10.1456 15.8458 10.265 15.6629C10.3929 15.4671 10.4827 15.3354 10.5445 15.2706L10.3129 15.0497L10.0814 14.8288C9.9698 14.9458 9.84489 15.1358 9.72916 15.313C9.60495 15.5032 9.47509 15.7053 9.33798 15.889C9.19861 16.0758 9.06908 16.2194 8.95433 16.3026C8.83952 16.3859 8.79821 16.3694 8.79041 16.3665L8.67765 16.666ZM10.3129 15.0497L10.5444 15.2707C10.6999 15.1077 10.9016 14.8758 11.1187 14.6315C11.3393 14.3833 11.5826 14.1145 11.8332 13.863C12.0846 13.6106 12.3366 13.3825 12.5735 13.2128C12.8168 13.0385 13.0125 12.9491 13.1546 12.9314L13.1149 12.6138L13.0751 12.2963C12.7733 12.3341 12.472 12.4982 12.2007 12.6926C11.9229 12.8916 11.6426 13.1474 11.3797 13.4113C11.1159 13.6762 10.8628 13.9562 10.6404 14.2064C10.4144 14.4606 10.2265 14.6768 10.0814 14.8288L10.3129 15.0497ZM13.1149 12.6138L13.1543 12.9314C13.2498 12.9195 13.2845 12.9254 13.291 12.9269C13.2925 12.9272 13.291 12.9269 13.2893 12.9261C13.2891 12.9259 13.2925 12.9276 13.3056 12.9369C13.3265 12.9519 13.3938 13.0056 13.4781 13.0493C13.5685 13.0962 13.677 13.1335 13.8191 13.1589L13.8754 12.8439L13.9316 12.5289C13.8429 12.513 13.7975 12.494 13.7728 12.4812C13.7421 12.4652 13.7331 12.4559 13.6783 12.4167C13.6234 12.3773 13.5452 12.3276 13.4291 12.3019C13.3226 12.2784 13.2066 12.28 13.0754 12.2963L13.1149 12.6138ZM13.8754 12.8439L13.8186 13.1588C14.8612 13.3467 15.7855 13.087 16.7178 12.8312L16.6331 12.5226L16.5484 12.214C15.5954 12.4755 14.8098 12.6871 13.9321 12.529L13.8754 12.8439ZM16.6331 12.5226L16.7178 12.8312C17.1097 12.7235 17.9453 12.4744 18.6223 12.0809C18.9589 11.8852 19.2865 11.6369 19.4925 11.3265C19.7095 10.9993 19.7876 10.6047 19.611 10.1785L19.3154 10.3009L19.0197 10.4234C19.1042 10.6272 19.0746 10.7986 18.9591 10.9727C18.8325 11.1636 18.6026 11.352 18.3006 11.5276C17.7003 11.8765 16.9337 12.1082 16.5484 12.214L16.6331 12.5226ZM19.3154 10.3009L19.611 10.1784C19.5193 9.95723 19.396 9.80353 19.2536 9.6911C19.1198 9.58541 18.976 9.52366 18.8842 9.48127C18.7816 9.43388 18.7318 9.40595 18.6944 9.36899C18.6644 9.33941 18.6241 9.28534 18.5964 9.15679L18.2836 9.22422L17.9708 9.29165C18.0201 9.52015 18.1115 9.69301 18.2448 9.82452C18.3706 9.94866 18.5156 10.016 18.6159 10.0623C18.7271 10.1137 18.7946 10.1441 18.8569 10.1934C18.9108 10.2359 18.9686 10.2999 19.0198 10.4234L19.3154 10.3009ZM18.2836 9.22422L18.5962 9.15579C18.5801 9.08237 18.5773 8.95713 18.5942 8.77644C18.6106 8.60197 18.6426 8.402 18.6804 8.19056C18.7524 7.78728 18.8528 7.3128 18.8662 6.99538L18.5465 6.98188L18.2268 6.96838C18.2158 7.22859 18.1307 7.62812 18.0503 8.07802C18.0119 8.29317 17.976 8.51459 17.957 8.71664C17.9386 8.91247 17.933 9.1189 17.971 9.29265L18.2836 9.22422ZM18.5465 6.98188L18.8662 6.99586C18.8846 6.57467 18.8654 6.22382 18.7863 5.94338C18.7042 5.65256 18.5523 5.42095 18.3033 5.27683C18.0679 5.14057 17.7873 5.10755 17.4976 5.1152C17.2052 5.12291 16.8622 5.17394 16.477 5.24171L16.5325 5.55687L16.588 5.87203C16.9717 5.80452 17.2738 5.76132 17.5144 5.75497C17.7577 5.74855 17.8979 5.78163 17.9827 5.83073C18.054 5.87198 18.1217 5.94499 18.1703 6.11717C18.2218 6.29973 18.2442 6.57025 18.2268 6.9679L18.5465 6.98188ZM16.5325 5.55687L16.4771 5.2417C15.9722 5.33046 15.3558 5.57479 14.8139 5.75499C14.237 5.94688 13.7307 6.0728 13.3366 6.01684L13.2917 6.33367L13.2467 6.65049C13.8081 6.73021 14.4484 6.55105 15.0159 6.36228C15.6187 6.16182 16.1449 5.94991 16.5879 5.87204L16.5325 5.55687ZM13.2917 6.33367L13.574 6.48434C14.1512 5.40277 15.3272 5.19953 16.5869 5.10228L16.5622 4.78323L16.5376 4.46418C15.3101 4.55894 13.7686 4.76042 13.0094 6.18299L13.2917 6.33367ZM16.5622 4.78323L16.5867 5.10229C16.7428 5.09031 16.8987 5.08429 17.062 5.07739C17.2231 5.0706 17.3907 5.06297 17.5589 5.04742C17.8967 5.01618 18.2508 4.95198 18.6048 4.78794L18.4703 4.4976L18.3358 4.20725C18.0733 4.32886 17.7992 4.38247 17.4999 4.41014C17.3496 4.42405 17.1965 4.43115 17.035 4.43796C16.8759 4.44468 16.7074 4.45115 16.5377 4.46416L16.5622 4.78323ZM18.4703 4.4976L18.6053 4.78774C18.9776 4.61457 19.2647 4.34153 19.5089 4.11218C19.7657 3.87106 19.9788 3.67455 20.2391 3.55427L20.1048 3.26378L19.9706 2.9733C19.6007 3.14421 19.3147 3.41663 19.0708 3.64563C18.8144 3.88639 18.5993 4.08466 18.3353 4.20745L18.4703 4.4976ZM20.1048 3.26378L20.2383 3.55464C20.3977 3.48149 20.658 3.44564 21.0029 3.4639C21.3396 3.48172 21.7233 3.54911 22.1054 3.65111C22.4869 3.75297 22.8584 3.88706 23.1701 4.03379C23.4884 4.18355 23.7199 4.33506 23.8431 4.46195L24.0726 4.23894L24.3021 4.01593C24.0993 3.80718 23.7863 3.61642 23.4427 3.4547C23.0926 3.28995 22.6847 3.14335 22.2704 3.03277C21.8567 2.92232 21.428 2.8455 21.0367 2.82479C20.6536 2.80451 20.2703 2.83581 19.9714 2.97293L20.1048 3.26378ZM24.0726 4.23894L23.843 4.46181C24.6545 5.29792 24.5515 6.45405 24.2474 7.83341C24.1015 8.49545 23.9079 9.21682 23.8009 9.89331C23.693 10.5758 23.6618 11.2693 23.8618 11.9067L24.1671 11.8108L24.4724 11.715C24.3162 11.2173 24.3308 10.6397 24.4331 9.99329C24.5363 9.34085 24.7172 8.67546 24.8724 7.97118C25.1708 6.61791 25.3767 5.12312 24.3023 4.01607L24.0726 4.23894ZM24.1671 11.8108L23.8619 11.9068C23.9376 12.1477 24.0732 12.3633 24.2174 12.5541C24.3606 12.7435 24.5291 12.9292 24.6753 13.0962C24.8272 13.2696 24.959 13.4271 25.0575 13.5829C25.1554 13.7376 25.2085 13.8726 25.2201 13.9977L25.5388 13.9683L25.8574 13.9388C25.8332 13.6768 25.7269 13.4438 25.5984 13.2407C25.4706 13.0387 25.309 12.8483 25.1568 12.6746C24.9992 12.4945 24.8531 12.3337 24.7279 12.168C24.6036 12.0037 24.5167 11.8556 24.4724 11.7148L24.1671 11.8108ZM25.5388 13.9683L25.22 13.997C25.2432 14.2538 25.1795 14.437 25.0721 14.5809C24.9587 14.7328 24.7806 14.8615 24.5463 14.9706C24.0652 15.1948 23.4696 15.2874 22.9858 15.3951L23.0553 15.7075L23.1249 16.0198C23.5463 15.926 24.2523 15.8136 24.8165 15.5508C25.1048 15.4165 25.3853 15.2311 25.5849 14.9638C25.7904 14.6885 25.8942 14.3473 25.8575 13.9396L25.5388 13.9683ZM23.0553 15.7075L22.9855 15.3952C22.1362 15.5851 21.4253 15.9215 20.67 16.2246L20.7891 16.5216L20.9083 16.8186C21.7074 16.4979 22.3423 16.1948 23.1252 16.0198L23.0553 15.7075ZM20.7891 16.5216L20.6703 16.2245C19.4292 16.7208 18.3568 17.5177 17.2841 18.1842L17.453 18.456L17.6219 18.7278C18.756 18.0232 19.7365 17.2872 20.9079 16.8187L20.7891 16.5216ZM17.453 18.456L17.2838 18.1844C16.0771 18.936 14.5801 19.5363 13.2225 20.0945L13.3442 20.3905L13.4659 20.6864C14.8059 20.1354 16.36 19.5138 17.6222 18.7276L17.453 18.456ZM13.3442 20.3905L13.223 20.0943C11.7627 20.692 10.3067 21.2558 8.8529 21.9178L8.98551 22.2091L9.11812 22.5003C10.5569 21.8452 11.9905 21.2903 13.4654 20.6866L13.3442 20.3905ZM8.98551 22.2091L8.85286 21.9179C8.34127 22.1509 7.93379 22.1919 7.57668 22.0832C7.21324 21.9725 6.84582 21.69 6.45267 21.1606L6.19577 21.3513L5.93886 21.5421C6.37479 22.1291 6.84482 22.5293 7.39028 22.6954C7.94206 22.8634 8.51492 22.7751 9.11816 22.5003L8.98551 22.2091ZM6.19577 21.3513L6.45268 21.1606C6.19612 20.815 6.17817 20.4391 6.27787 19.995C6.32845 19.7697 6.40705 19.5379 6.49464 19.2921C6.58006 19.0523 6.67598 18.7942 6.7475 18.5417L6.43962 18.4545L6.13173 18.3672C6.06761 18.5936 5.98179 18.8246 5.89176 19.0773C5.80389 19.3239 5.71332 19.588 5.65341 19.8548C5.53213 20.395 5.52789 20.9887 5.93885 21.5421L6.19577 21.3513ZM6.43962 18.4545L6.74736 18.5421C7.08347 17.3627 7.32777 16.0831 7.24433 14.8129L6.92501 14.8339L6.6057 14.8549C6.68228 16.0206 6.45872 17.2198 6.13187 18.3668L6.43962 18.4545ZM6.92501 14.8339L7.24434 14.8131C7.2095 14.2771 7.05534 13.81 6.88376 13.3957C6.79857 13.19 6.70658 12.9916 6.62346 12.8082C6.53896 12.6218 6.46288 12.4493 6.40147 12.2813C6.27903 11.9461 6.22497 11.6543 6.27876 11.3613C6.33218 11.0704 6.50015 10.7355 6.90397 10.3332L6.67813 10.1065L6.45229 9.87983C5.98513 10.3452 5.73265 10.7917 5.64929 11.2458C5.5663 11.6977 5.65911 12.1144 5.80033 12.5009C5.87075 12.6936 5.95569 12.8852 6.04055 13.0725C6.12678 13.2627 6.21248 13.4475 6.29246 13.6406C6.45122 14.024 6.57728 14.4175 6.60569 14.8546L6.92501 14.8339ZM6.67813 10.1065L6.45246 9.87966C5.94265 10.3867 5.73238 10.9383 5.78135 11.4867C5.82913 12.0217 6.11889 12.4986 6.4973 12.8827C6.87756 13.2688 7.36799 13.5833 7.868 13.796C8.3655 14.0077 8.89674 14.1288 9.36149 14.1029L9.34366 13.7834L9.32582 13.4639C8.98742 13.4828 8.55614 13.3933 8.11857 13.2071C7.68351 13.022 7.26634 12.7515 6.95326 12.4336C6.63833 12.1139 6.44902 11.768 6.41881 11.4297C6.38979 11.1048 6.50262 10.7325 6.9038 10.3334L6.67813 10.1065ZM10.0965 7.18421L9.77867 7.22128C9.79332 7.34682 9.87152 7.4192 9.90846 7.44739C9.94794 7.47753 9.9864 7.49337 10.0072 7.50107C10.0507 7.51725 10.0955 7.52579 10.128 7.53099C10.1979 7.54215 10.2878 7.54927 10.3871 7.5542C10.5893 7.56423 10.8713 7.56698 11.2034 7.56447C11.8694 7.55944 12.7578 7.53303 13.6582 7.49692C14.5592 7.4608 15.4753 7.41485 16.1978 7.37052C16.5588 7.34836 16.8729 7.32653 17.1132 7.30644C17.3405 7.28743 17.531 7.26795 17.6215 7.24641L17.5475 6.93509L17.4735 6.62378C17.4736 6.62374 17.4729 6.62392 17.471 6.6243C17.4692 6.62467 17.4666 6.62516 17.4633 6.62575C17.4565 6.62697 17.4476 6.62842 17.4362 6.6301C17.4133 6.63347 17.3836 6.63726 17.3468 6.64142C17.2732 6.64973 17.1768 6.65888 17.0598 6.66866C16.8263 6.6882 16.5174 6.7097 16.1586 6.73172C15.4413 6.77573 14.5298 6.82146 13.6326 6.85744C12.7349 6.89343 11.8545 6.91953 11.1985 6.92449C10.8696 6.92697 10.6022 6.92409 10.4189 6.91498C10.3254 6.91035 10.2635 6.90452 10.229 6.89901C10.2094 6.89587 10.2139 6.89514 10.2299 6.90107C10.2368 6.90365 10.2646 6.91412 10.2967 6.93864C10.3263 6.96121 10.4004 7.02772 10.4144 7.14713L10.0965 7.18421ZM17.5475 6.93509L17.622 7.24629C18.1513 7.11954 18.498 6.90672 18.7892 6.59919C19.0577 6.3156 19.2861 5.93749 19.5614 5.54106L19.2986 5.3585L19.0358 5.17595C18.7236 5.62533 18.5486 5.92245 18.3244 6.15917C18.123 6.37194 17.8879 6.52452 17.473 6.62389L17.5475 6.93509ZM19.2986 5.3585L19.5612 5.54134C19.8186 5.1717 19.9261 4.98838 20.0735 4.85115C20.1942 4.73878 20.3519 4.65322 20.7231 4.57891L20.6603 4.26513L20.5975 3.95136C20.1641 4.03812 19.8779 4.15885 19.6374 4.3827C19.4237 4.58169 19.2526 4.86453 19.036 5.17566L19.2986 5.3585ZM20.6603 4.26513L20.7229 4.57895C21.0115 4.52141 21.1598 4.56203 21.3214 4.6226C21.5034 4.69077 21.7555 4.81426 22.151 4.83766L22.1699 4.51822L22.1888 4.19878C21.9137 4.1825 21.7711 4.10764 21.546 4.02328C21.3005 3.93133 21.0293 3.86524 20.5978 3.95131L20.6603 4.26513ZM22.1699 4.51822L22.1506 4.83764C22.2847 4.84572 22.4222 4.8198 22.5343 4.79357C22.638 4.76931 22.7811 4.72857 22.8689 4.7064C22.9754 4.67955 23.0578 4.66377 23.1224 4.66109C23.1875 4.65839 23.2003 4.67072 23.1933 4.66619L23.3685 4.39841L23.5437 4.13063C23.3943 4.03286 23.2288 4.01613 23.0959 4.02164C22.9624 4.02717 22.8272 4.05687 22.7123 4.08585C22.5789 4.11953 22.4971 4.14499 22.3885 4.17039C22.2884 4.19382 22.2261 4.20103 22.1892 4.1988L22.1699 4.51822ZM23.3685 4.39841L23.1924 4.66557C23.1899 4.66395 23.2055 4.6736 23.2292 4.71858C23.2524 4.76273 23.2761 4.82672 23.2971 4.91288C23.3394 5.08595 23.362 5.30898 23.371 5.55152C23.3893 6.04644 23.3508 6.52037 23.3473 6.75654L23.6672 6.76133L23.9872 6.76612C23.9898 6.59525 24.0294 6.03768 24.0106 5.52788C24.001 5.26806 23.9762 4.99543 23.9188 4.76093C23.8661 4.54521 23.7669 4.27774 23.5447 4.13124L23.3685 4.39841ZM23.6672 6.76133L23.3473 6.75743C23.3417 7.21225 23.2071 7.73817 23.0665 8.30728C22.9324 8.8498 22.789 9.44488 22.8261 9.95671L23.1453 9.93354L23.4644 9.91038C23.436 9.51926 23.5475 9.02851 23.6878 8.46079C23.8215 7.91967 23.9806 7.31096 23.9872 6.76523L23.6672 6.76133ZM23.1453 9.93354L22.8261 9.95706C22.859 10.4035 23.1409 10.8306 23.4112 11.1747C23.5518 11.3536 23.7032 11.5268 23.8405 11.6838C23.9807 11.8442 24.1034 11.9848 24.1992 12.1104L24.4536 11.9164L24.7081 11.7223C24.5966 11.5762 24.4584 11.4183 24.3223 11.2626C24.1832 11.1035 24.043 10.9429 23.9145 10.7794C23.6468 10.4385 23.4818 10.146 23.4644 9.91002L23.1453 9.93354ZM24.4536 11.9164L24.7489 12.0396C25.0692 11.2726 25.1717 10.4414 25.2706 9.65991C25.3716 8.86262 25.4691 8.11324 25.7549 7.42705L25.4595 7.30402L25.1641 7.18099C24.8395 7.96031 24.7348 8.79704 24.6357 9.57951C24.5346 10.3778 24.4393 11.12 24.1583 11.7931L24.4536 11.9164ZM25.4595 7.30402L25.7549 7.42717C25.8438 7.21394 25.9419 7.02788 26.0406 6.84439C26.137 6.66521 26.2393 6.4791 26.3199 6.28738C26.4906 5.88149 26.5664 5.44613 26.4132 4.85383L26.1034 4.93398L25.7936 5.01412C25.9078 5.45569 25.8526 5.74753 25.7299 6.03929C25.6639 6.19639 25.5789 6.35171 25.477 6.54121C25.3774 6.72641 25.2661 6.93628 25.1642 7.18088L25.4595 7.30402ZM26.1034 4.93398L26.4132 4.85363C26.2145 4.08805 25.6637 3.27636 25.0044 2.62966C24.3468 1.98457 23.5323 1.45569 22.7655 1.31157L22.7063 1.62607L22.6472 1.94056C23.2399 2.05194 23.9448 2.48671 24.5563 3.08655C25.1661 3.68478 25.6341 4.3993 25.7937 5.01433L26.1034 4.93398ZM22.7063 1.62607L22.7656 1.3116C21.8192 1.1333 20.9227 1.46646 20.124 1.9025C19.7222 2.12186 19.332 2.3748 18.9636 2.61526C18.5909 2.85849 18.2432 3.0871 17.9098 3.27189L18.0649 3.55178L18.22 3.83167C18.5781 3.63323 18.9474 3.39012 19.3134 3.15121C19.6837 2.90952 20.054 2.66988 20.4307 2.46424C21.1889 2.0503 21.9216 1.80384 22.6471 1.94054L22.7063 1.62607ZM18.0649 3.55178L17.9103 3.27158C16.3756 4.11819 15.0292 4.17376 13.2101 4.43638L13.2558 4.7531L13.3016 5.06981C15.0548 4.81669 16.5553 4.75001 18.2195 3.83198L18.0649 3.55178ZM13.2558 4.7531L13.2103 4.43635C10.4542 4.83244 7.34028 6.36671 6.30066 9.40628L6.60344 9.50984L6.90622 9.6134C7.83413 6.90044 10.6578 5.44975 13.3014 5.06984L13.2558 4.7531ZM6.60344 9.50984L6.88719 9.65779C7.18628 9.08417 7.71615 8.67988 8.35037 8.3054C8.66944 8.11701 8.99201 7.94868 9.32545 7.7632C9.65158 7.58179 9.97838 7.389 10.2696 7.16761L10.076 6.91286L9.88229 6.65812C9.62868 6.85091 9.33453 7.02579 9.01433 7.20391C8.70144 7.37796 8.35228 7.56104 8.02498 7.7543C7.36644 8.14313 6.70489 8.62314 6.3197 9.36189L6.60344 9.50984ZM10.076 6.91286L9.76122 6.97069C9.76495 6.99102 9.76664 7.01434 9.76814 7.05798C9.76945 7.09653 9.77068 7.15899 9.77911 7.22485L10.0965 7.18421L10.4139 7.14356C10.4102 7.11421 10.4095 7.08663 10.4078 7.03611C10.4062 6.9907 10.4037 6.92596 10.3907 6.85504L10.076 6.91286ZM24.619 16.5827L24.4442 16.8507C25.9086 17.806 27.5517 18.2181 29.1703 18.5413L29.233 18.2275L29.2957 17.9137C27.6879 17.5927 26.1489 17.1986 24.7938 16.3147L24.619 16.5827ZM29.233 18.2275L29.1704 18.5413C29.4701 18.6012 29.7938 18.6977 30.1439 18.8055C30.4887 18.9117 30.8586 19.0287 31.2294 19.1193C31.9656 19.2992 32.7736 19.3941 33.5147 19.066L33.3852 18.7734L33.2557 18.4808C32.7151 18.7201 32.0829 18.669 31.3813 18.4976C31.0333 18.4125 30.685 18.3025 30.3323 18.1939C29.9848 18.0869 29.6318 17.9808 29.2956 17.9137L29.233 18.2275ZM33.3852 18.7734L33.515 19.0659C34.2335 18.7472 34.7492 18.0449 35.0429 17.2893C35.3378 16.5306 35.4333 15.6584 35.2533 14.9359L34.9428 15.0132L34.6323 15.0906C34.7739 15.659 34.704 16.3947 34.4464 17.0574C34.1877 17.723 33.7638 18.2554 33.2554 18.4809L33.3852 18.7734ZM34.9428 15.0132L35.2532 14.9356C35.17 14.6029 34.9761 14.2667 34.7378 13.9532C34.4968 13.6362 34.1963 13.3241 33.8778 13.0391C33.246 12.4738 32.5099 11.9857 31.9703 11.7727L31.8528 12.0703L31.7353 12.368C32.1803 12.5437 32.8524 12.9804 33.451 13.516C33.7477 13.7815 34.018 14.0639 34.2283 14.3405C34.4411 14.6205 34.5788 14.8768 34.6323 15.0909L34.9428 15.0132ZM31.8528 12.0703L31.97 11.7726C31.4956 11.5858 30.9988 11.4628 30.5376 11.3383C30.0679 11.2115 29.6265 11.0812 29.216 10.8788L29.0745 11.1658L28.933 11.4528C29.4042 11.6852 29.8985 11.8287 30.3708 11.9562C30.8516 12.086 31.3032 12.1978 31.7356 12.3681L31.8528 12.0703ZM29.0745 11.1658L29.2163 10.8789C28.8901 10.7177 28.6209 10.4707 28.3238 10.188C28.0388 9.91686 27.7191 9.60288 27.3268 9.39523L27.1771 9.67806L27.0274 9.96089C27.3262 10.119 27.5795 10.3632 27.8826 10.6517C28.1736 10.9286 28.5076 11.2425 28.9327 11.4527L29.0745 11.1658ZM27.1771 9.67806L27.3268 9.39526C26.4684 8.94071 25.6263 9.3238 24.9355 9.7239C24.7576 9.82689 24.5801 9.93717 24.4095 10.042C24.237 10.1481 24.0703 10.2494 23.9058 10.3405C23.5729 10.5247 23.2742 10.6519 22.997 10.6882L23.0386 11.0055L23.0801 11.3228C23.4785 11.2707 23.862 11.0962 24.2157 10.9005C24.3943 10.8016 24.572 10.6934 24.7447 10.5873C24.9192 10.48 25.0876 10.3754 25.2562 10.2777C25.9511 9.87523 26.5027 9.68305 27.0273 9.96086L27.1771 9.67806ZM23.0386 11.0055L22.9967 10.6883C22.0682 10.8109 20.9727 10.7546 20.042 10.6304L19.9997 10.9476L19.9573 11.2648C20.918 11.393 22.075 11.4556 23.0805 11.3228L23.0386 11.0055ZM19.9997 10.9476L20.0422 10.6305C19.8124 10.5996 19.5822 10.5877 19.3706 10.6084C19.1619 10.6288 18.9478 10.6831 18.7709 10.8046C18.5831 10.9336 18.4566 11.1259 18.42 11.3721C18.3854 11.6049 18.434 11.8639 18.5425 12.1421L18.8406 12.0259L19.1388 11.9096C19.0522 11.6876 19.0409 11.5473 19.053 11.4662C19.0631 11.3984 19.0898 11.362 19.1333 11.3322C19.1877 11.2948 19.2828 11.26 19.4328 11.2453C19.5799 11.231 19.7579 11.2381 19.9571 11.2648L19.9997 10.9476ZM18.8406 12.0259L18.5423 12.1417C18.6942 12.5328 19.027 13.0923 19.3911 13.5952C19.7494 14.0903 20.1798 14.5892 20.5439 14.8171L20.7137 14.5459L20.8835 14.2747C20.6341 14.1185 20.2655 13.7118 19.9095 13.2199C19.5592 12.736 19.2622 12.2275 19.1389 11.9101L18.8406 12.0259ZM20.7137 14.5459L20.5436 14.817C20.8306 14.9971 21.1427 15.0613 21.4064 15.1095C21.6863 15.1606 21.9095 15.1941 22.1197 15.2864L22.2484 14.9934L22.377 14.7004C22.0813 14.5706 21.7673 14.5248 21.5214 14.4799C21.2593 14.432 21.057 14.3835 20.8838 14.2748L20.7137 14.5459ZM22.2484 14.9934L22.1197 15.2864C22.5114 15.4584 22.8861 15.7111 23.2711 15.9952C23.646 16.272 24.045 16.5902 24.4441 16.8507L24.619 16.5827L24.7939 16.3147C24.415 16.0674 24.0542 15.7778 23.6512 15.4803C23.2581 15.1902 22.8365 14.9022 22.377 14.7004L22.2484 14.9934ZM26.6429 10.604L26.3268 10.5542C26.2288 11.1767 26.3631 11.6953 26.6611 12.112C26.9526 12.5194 27.3833 12.8058 27.8423 13.0103C28.756 13.4172 29.8794 13.5413 30.5785 13.5885L30.6001 13.2692L30.6216 12.95C29.9331 12.9035 28.9065 12.7836 28.1027 12.4257C27.7031 12.2477 27.3833 12.0214 27.1817 11.7396C26.9867 11.4671 26.8856 11.1199 26.959 10.6538L26.6429 10.604ZM30.6001 13.2692L30.5782 13.5885C31.0473 13.6205 31.7359 13.9118 32.2365 14.3666C32.7359 14.8204 32.964 15.3493 32.7507 15.8803L33.0476 15.9995L33.3446 16.1188C33.7021 15.2287 33.2581 14.4301 32.6669 13.8929C32.0768 13.3567 31.2562 12.9933 30.6219 12.95L30.6001 13.2692ZM33.0476 15.9995L32.7505 15.8808C32.6062 16.2418 32.2364 16.4455 31.7276 16.497C31.2219 16.5482 30.672 16.4342 30.3293 16.2595L30.184 16.5446L30.0387 16.8297C30.4961 17.0629 31.17 17.1968 31.7921 17.1338C32.4111 17.0711 33.073 16.7983 33.3448 16.1183L33.0476 15.9995ZM30.184 16.5446L30.3294 16.2596C29.7414 15.9596 29.4177 15.6937 29.224 15.3821C29.0292 15.0688 28.9392 14.6671 28.9111 14.035L28.5914 14.0492L28.2717 14.0635C28.3014 14.7311 28.3982 15.266 28.6804 15.72C28.9637 16.1756 29.4073 16.5076 30.0386 16.8296L30.184 16.5446ZM28.5914 14.0492L28.4127 13.7837C28.3399 13.8327 28.258 13.8545 28.1498 13.8597C28.0243 13.8656 27.9198 13.8504 27.7481 13.8418C27.5994 13.8344 27.4045 13.8338 27.2145 13.9127C27.01 13.9976 26.8499 14.1569 26.7358 14.3933L27.0239 14.5324L27.3121 14.6716C27.3698 14.5521 27.4235 14.5189 27.4599 14.5038C27.5109 14.4826 27.5843 14.4744 27.7163 14.481C27.8254 14.4864 28.0143 14.5068 28.18 14.4989C28.3631 14.4903 28.5704 14.449 28.77 14.3147L28.5914 14.0492ZM27.0239 14.5324L27.2625 14.3192C27.1356 14.1772 26.9274 13.9346 26.6976 13.7159C26.4774 13.5064 26.1891 13.2702 25.8893 13.1864L25.8032 13.4946L25.717 13.8028C25.8516 13.8404 26.0411 13.9747 26.2564 14.1796C26.4621 14.3753 26.6471 14.591 26.7853 14.7457L27.0239 14.5324ZM25.8032 13.4946L25.889 13.1863C25.3267 13.0298 24.8376 13.0168 24.4658 12.9649C24.0879 12.9122 23.7366 12.8161 23.3001 12.4943L23.1102 12.7519L22.9203 13.0095C23.4623 13.409 23.9213 13.5351 24.3773 13.5988C24.8393 13.6633 25.2075 13.661 25.7174 13.8029L25.8032 13.4946ZM23.1102 12.7519L23.3 12.4943C23.117 12.3595 22.9377 12.2091 22.7484 12.0502C22.5619 11.8936 22.3656 11.7287 22.1605 11.5776C21.7497 11.275 21.2772 11.0072 20.7008 10.9422L20.6649 11.2602L20.629 11.5782C21.0448 11.6251 21.4097 11.8195 21.7809 12.0929C21.9669 12.2299 22.1477 12.3815 22.3369 12.5403C22.5233 12.6968 22.7182 12.8607 22.9205 13.0096L23.1102 12.7519ZM20.6649 11.2602L20.629 11.5782C20.7849 11.5958 21.0182 11.6907 21.2728 11.8624C21.5218 12.0303 21.7607 12.2514 21.9318 12.4842C22.1071 12.7226 22.1861 12.9382 22.18 13.1029C22.1749 13.2392 22.1104 13.395 21.8486 13.54L22.0038 13.8199L22.1589 14.0998C22.5807 13.866 22.8047 13.5252 22.8196 13.1267C22.8333 12.7566 22.6635 12.3989 22.4474 12.105C22.2272 11.8055 21.9321 11.5352 21.6307 11.3319C21.3351 11.1324 21.0017 10.9762 20.7008 10.9423L20.6649 11.2602ZM22.0038 13.8199L21.8009 14.0674C22.2077 14.4009 22.7034 14.5719 23.148 14.7195C23.6115 14.8734 24.023 15.0032 24.3711 15.2387L24.5504 14.9736L24.7297 14.7085C24.2929 14.4131 23.7859 14.2569 23.3496 14.1121C22.8944 13.961 22.5093 13.8206 22.2066 13.5725L22.0038 13.8199ZM24.5504 14.9736L24.3713 15.2388C25.2956 15.8631 26.3349 16.6095 27.616 16.6675L27.6305 16.3478L27.645 16.0282C26.579 15.9799 25.6965 15.3616 24.7295 14.7084L24.5504 14.9736ZM27.6305 16.3478L27.6158 16.6675C27.8766 16.6795 28.1493 16.6804 28.4106 16.6844C28.6759 16.6885 28.9354 16.6958 29.1885 16.7196C29.6954 16.7672 30.1525 16.8789 30.5398 17.1406L30.7189 16.8755L30.8981 16.6103C30.3847 16.2634 29.8062 16.1348 29.2483 16.0824C28.9691 16.0562 28.6889 16.0486 28.4205 16.0445C28.1481 16.0403 27.893 16.0396 27.6452 16.0282L27.6305 16.3478ZM30.7189 16.8755L30.5413 17.1416C30.5734 17.163 30.6345 17.2295 30.7448 17.3667C30.8383 17.483 30.9603 17.6403 31.0865 17.7639C31.2002 17.8751 31.3918 18.0366 31.6365 18.0382C31.9273 18.0402 32.1176 17.8294 32.2358 17.5962L31.9503 17.4515L31.6649 17.3069C31.5872 17.4601 31.5665 17.3977 31.6408 17.3982C31.669 17.3984 31.6385 17.4085 31.5342 17.3064C31.4424 17.2167 31.3504 17.0986 31.2436 16.9657C31.1536 16.8537 31.028 16.697 30.8966 16.6093L30.7189 16.8755ZM31.9503 17.4515L31.8605 17.7586C32.1093 17.8315 32.3256 17.8822 32.5135 17.8942C32.7084 17.9067 32.8943 17.879 33.0627 17.775C33.2245 17.6752 33.3339 17.5267 33.4215 17.3733C33.5084 17.2211 33.5923 17.0299 33.6851 16.8184L33.3921 16.6898L33.0991 16.5612C33.0017 16.7831 32.9323 16.9393 32.8658 17.0559C32.8 17.1711 32.7557 17.2125 32.7266 17.2304C32.7042 17.2443 32.6619 17.2624 32.5544 17.2555C32.4399 17.2482 32.2794 17.2144 32.0402 17.1444L31.9503 17.4515ZM33.3921 16.6898L33.6852 16.8182C33.9986 16.1024 34.3594 15.428 34.8535 14.88L34.6159 14.6657L34.3782 14.4514C33.8162 15.0746 33.4226 15.8221 33.0989 16.5615L33.3921 16.6898ZM34.6159 14.6657L34.6792 14.352C34.3114 14.2778 34.044 14.085 33.7778 13.8209C33.641 13.6852 33.5146 13.5413 33.3688 13.3821C33.227 13.2273 33.0719 13.064 32.8954 12.9137L32.688 13.1574L32.4806 13.401C32.6256 13.5245 32.7588 13.6637 32.8968 13.8144C33.0309 13.9607 33.1759 14.1253 33.3271 14.2753C33.637 14.5827 34.012 14.8703 34.5526 14.9794L34.6159 14.6657ZM32.688 13.1574L32.8957 12.9139C32.112 12.2453 30.9515 11.9039 30.0824 11.6548L29.9943 11.9624L29.9061 12.2701C30.8033 12.5272 31.8207 12.838 32.4803 13.4008L32.688 13.1574ZM29.9943 11.9624L30.0817 11.6546C29.3003 11.4325 28.6273 11.1566 27.9599 10.7296L27.7875 10.9992L27.615 11.2688C28.3467 11.7369 29.0803 12.0353 29.9068 12.2703L29.9943 11.9624ZM27.7875 10.9992L27.9593 10.7292C27.8573 10.6643 27.7699 10.5897 27.6685 10.5043C27.5756 10.426 27.4574 10.3263 27.323 10.2581C27.176 10.1835 27.0038 10.1425 26.8044 10.1785C26.6158 10.2125 26.4316 10.3104 26.2426 10.4561L26.4379 10.7095L26.6333 10.963C26.7784 10.8512 26.8682 10.8173 26.9181 10.8083C26.9573 10.8012 26.9882 10.8059 27.0333 10.8288C27.0909 10.858 27.1541 10.9077 27.2561 10.9937C27.3495 11.0724 27.4707 11.177 27.6157 11.2692L27.7875 10.9992ZM15.4527 12.9582L15.2777 12.6904C15.2099 12.7346 15.1495 12.7717 15.0914 12.8026L15.2416 13.0851L15.3919 13.3677C15.474 13.324 15.5523 13.2754 15.6278 13.2261L15.4527 12.9582ZM15.2416 13.0851L15.0866 12.8052C14.3509 13.2128 13.6567 13.6873 12.9785 14.1628C12.2963 14.641 11.6334 15.1179 10.9421 15.5467L11.1108 15.8186L11.2794 16.0905C11.9903 15.6497 12.673 15.1585 13.3459 14.6868C14.0227 14.2123 14.693 13.7549 15.3967 13.3651L15.2416 13.0851ZM11.1108 15.8186L10.9425 15.5464C10.4903 15.8259 10.0939 16.1032 9.65364 16.3592C9.22607 16.6078 8.81009 16.8024 8.38863 16.8898L8.45362 17.2032L8.51861 17.5165C9.03824 17.4087 9.52334 17.1753 9.97533 16.9125C10.4146 16.6571 10.8763 16.3397 11.279 16.0908L11.1108 15.8186ZM8.45362 17.2032L8.38862 16.8898C8.21727 16.9254 8.06847 16.9331 7.92718 16.9338C7.79986 16.9344 7.63065 16.9272 7.48959 16.9392C7.33071 16.9526 7.16301 16.9909 6.99412 17.0961C6.82935 17.1988 6.68581 17.3512 6.54837 17.5571L6.81453 17.7348L7.08069 17.9124C7.18633 17.7541 7.2693 17.6787 7.33254 17.6393C7.39165 17.6025 7.45346 17.5845 7.54367 17.5769C7.6517 17.5677 7.75114 17.5746 7.93013 17.5738C8.09515 17.573 8.29029 17.5639 8.51862 17.5165L8.45362 17.2032ZM6.81453 17.7348L6.54793 17.5578C6.08257 18.2588 6.03437 18.9987 6.17184 19.6969C6.30704 20.3837 6.6257 21.0493 6.91133 21.6233L7.19781 21.4807L7.48429 21.3381C7.19613 20.7591 6.91623 20.1648 6.79978 19.5733C6.6856 18.9933 6.73265 18.4367 7.08113 17.9118L6.81453 17.7348ZM7.19781 21.4807L6.91141 21.6234C6.95895 21.7188 7.00673 21.9177 7.0687 22.2211C7.12614 22.5022 7.19149 22.846 7.28076 23.165C7.36854 23.4787 7.49 23.8104 7.67998 24.0544C7.77769 24.18 7.90213 24.2937 8.06056 24.3647C8.22286 24.4374 8.40138 24.4565 8.58814 24.4204L8.52754 24.1062L8.46693 23.792C8.4007 23.8048 8.35674 23.7961 8.32228 23.7806C8.28397 23.7635 8.23737 23.7286 8.18502 23.6613C8.07486 23.5198 7.98 23.2889 7.89709 22.9926C7.81566 22.7015 7.75595 22.3876 7.69575 22.093C7.64008 21.8205 7.57765 21.5254 7.48422 21.3379L7.19781 21.4807ZM8.52754 24.1062L8.58845 24.4204C8.80175 24.379 8.95567 24.2437 9.06305 24.1161C9.17102 23.9878 9.26058 23.8325 9.33564 23.6951C9.41657 23.5471 9.47993 23.4218 9.55126 23.3062C9.6229 23.1901 9.67838 23.1258 9.72021 23.0954L9.53187 22.8367L9.34352 22.578C9.1979 22.684 9.08936 22.836 9.0066 22.9701C8.92352 23.1047 8.8421 23.2637 8.77405 23.3882C8.70014 23.5234 8.63654 23.629 8.57334 23.7041C8.50955 23.7799 8.47431 23.7906 8.46663 23.7921L8.52754 24.1062ZM9.53187 22.8367L9.71895 23.0963C9.90398 22.9629 10.1245 22.8975 10.3854 22.8644C10.6625 22.8294 10.9193 22.8351 11.2362 22.8165L11.2174 22.4971L11.1987 22.1776C10.9472 22.1924 10.6062 22.1914 10.305 22.2295C9.9878 22.2697 9.64973 22.3573 9.34478 22.5771L9.53187 22.8367ZM11.2174 22.4971L11.2366 22.8165C11.9885 22.7716 12.4596 22.4323 12.8191 21.9834C12.9922 21.7673 13.1405 21.525 13.281 21.2882C13.4247 21.0462 13.5606 20.8096 13.7197 20.5765L13.4555 20.396L13.1912 20.2155C13.0174 20.47 12.8679 20.7302 12.7306 20.9615C12.5902 21.1981 12.4619 21.4057 12.3196 21.5833C12.0483 21.922 11.7335 22.1457 11.1983 22.1777L11.2174 22.4971ZM13.4555 20.396L13.7197 20.5766C14.4019 19.5782 14.9853 18.5814 15.7686 17.7504L15.5358 17.5309L15.3029 17.3114C14.4738 18.191 13.8396 19.2667 13.1913 20.2155L13.4555 20.396ZM15.5358 17.5309L15.7687 17.7503C16.1805 17.313 16.6017 17.1138 17.0686 16.9429C17.5291 16.7744 18.0837 16.6212 18.6419 16.2776L18.4741 16.0051L18.3064 15.7326C17.8206 16.0316 17.3663 16.1525 16.8487 16.3419C16.3376 16.5289 15.8115 16.7713 15.3028 17.3115L15.5358 17.5309ZM18.4741 16.0051L18.6422 16.2773C19.167 15.9533 19.5439 15.3944 19.837 14.8385C20.1265 14.2892 20.3746 13.6567 20.5808 13.2139L20.2908 13.0788L20.0007 12.9437C19.7657 13.4483 19.5547 14.0016 19.2708 14.54C18.9905 15.0717 18.6796 15.5021 18.306 15.7328L18.4741 16.0051ZM20.2908 13.0788L20.4816 12.8219C20.251 12.6507 19.9826 12.5675 19.7849 12.4997C19.5695 12.4258 19.4148 12.3643 19.2915 12.2556L19.0799 12.4956L18.8683 12.7357C19.0978 12.938 19.3664 13.0328 19.5772 13.1051C19.8057 13.1835 19.9662 13.2364 20.0999 13.3357L20.2908 13.0788ZM19.0799 12.4956L19.2919 12.2559C19.1373 12.1192 19.0725 11.9917 19.0254 11.837C18.9994 11.7514 18.9798 11.6613 18.9539 11.5455C18.9288 11.4338 18.899 11.305 18.8545 11.165L18.5496 11.2618L18.2446 11.3587C18.2801 11.4705 18.3048 11.5762 18.3294 11.6857C18.3531 11.7912 18.3784 11.9094 18.4132 12.0234C18.4876 12.268 18.608 12.5055 18.8679 12.7353L19.0799 12.4956ZM18.5496 11.2618L18.5697 10.9424C17.9251 10.9018 17.3002 11.237 16.7667 11.5996C16.4937 11.7851 16.2265 11.9911 15.9781 12.1814C15.7258 12.3746 15.4945 12.5504 15.2792 12.6894L15.4527 12.9582L15.6263 13.2271C15.867 13.0717 16.1187 12.8799 16.3673 12.6894C16.6197 12.4961 16.8715 12.3022 17.1264 12.1289C17.6488 11.7739 18.1163 11.5551 18.5294 11.5812L18.5496 11.2618ZM11.4156 21.4561L11.2068 21.2136C10.8098 21.5554 10.3985 21.8785 9.97958 22.2098C9.56267 22.5394 9.13916 22.8764 8.72876 23.2387L8.94054 23.4786L9.15232 23.7185C9.54813 23.369 9.95902 23.0419 10.3765 22.7118C10.792 22.3832 11.2151 22.051 11.6244 21.6985L11.4156 21.4561ZM8.94054 23.4786L8.72903 23.2384C8.66551 23.2944 8.61153 23.3441 8.56697 23.3851C8.52069 23.4277 8.48839 23.4572 8.4617 23.4797C8.43375 23.5032 8.42609 23.5067 8.43087 23.5042C8.43878 23.5 8.47608 23.4822 8.53163 23.4862C8.5878 23.4903 8.62286 23.5138 8.6315 23.5203C8.63701 23.5244 8.63 23.5202 8.6064 23.4918C8.55666 23.4319 8.49419 23.3416 8.38059 23.1846L8.12138 23.3723L7.86216 23.5599C7.96078 23.6962 8.04623 23.819 8.11415 23.9008C8.16875 23.9665 8.29041 24.1104 8.48514 24.1245C8.58626 24.1319 8.67008 24.1016 8.7297 24.0701C8.78619 24.0403 8.83545 24.0016 8.87385 23.9693C8.93711 23.9161 9.05488 23.8043 9.15205 23.7187L8.94054 23.4786ZM8.12138 23.3723L8.38043 23.1844C8.0524 22.7321 7.79995 22.0314 7.63859 21.2704C7.47843 20.5151 7.41571 19.7375 7.44428 19.1557L7.12466 19.14L6.80505 19.1243C6.77342 19.7683 6.84252 20.6015 7.01251 21.4031C7.18128 22.1991 7.45729 23.0016 7.86232 23.5601L8.12138 23.3723ZM7.12466 19.14L6.80675 19.1764C6.88479 19.8564 7.16557 20.4458 7.38138 20.9692C7.60321 21.5072 7.77039 22.0002 7.72393 22.5744L8.04289 22.6002L8.36185 22.626C8.42131 21.8911 8.201 21.278 7.97305 20.7252C7.73909 20.1578 7.50779 19.6717 7.44257 19.1035L7.12466 19.14ZM8.04289 22.6002L8.36264 22.5877C8.34047 22.0228 8.44956 21.3652 8.67742 20.7543C8.90592 20.1417 9.24439 19.6011 9.66088 19.2486L9.45413 19.0043L9.24738 18.7601C8.72279 19.2041 8.33163 19.8501 8.07778 20.5307C7.82329 21.2129 7.69731 21.9549 7.72314 22.6128L8.04289 22.6002ZM9.45413 19.0043L9.66078 19.2486C9.81779 19.1158 9.97251 19.0594 10.1599 19.0219C10.2597 19.002 10.3607 18.9888 10.4844 18.9709C10.6038 18.9535 10.7375 18.9325 10.8796 18.8978L10.8037 18.587L10.7277 18.2761C10.6165 18.3033 10.5075 18.3208 10.3924 18.3375C10.2815 18.3536 10.1559 18.3701 10.0345 18.3944C9.77931 18.4454 9.51263 18.5357 9.24748 18.76L9.45413 19.0043ZM10.8037 18.587L10.8808 18.8975C11.0202 18.8629 11.1346 18.8157 11.2302 18.7717C11.3375 18.7224 11.3874 18.6945 11.4591 18.6655C11.5576 18.6255 11.6439 18.6054 11.8117 18.6592L11.9093 18.3545L12.007 18.0497C11.6772 17.944 11.4358 17.9842 11.2185 18.0724C11.1322 18.1074 11.0272 18.1606 10.9627 18.1903C10.8865 18.2253 10.8123 18.2551 10.7265 18.2764L10.8037 18.587ZM11.9093 18.3545L12.2108 18.4618C12.3802 17.986 12.6077 17.3279 12.915 16.7485C13.2322 16.1503 13.5862 15.7319 13.9616 15.6146L13.8662 15.3092L13.7708 15.0037C13.1305 15.2038 12.6733 15.8383 12.3496 16.4486C12.0161 17.0776 11.773 17.7835 11.6079 18.2471L11.9093 18.3545ZM13.8662 15.3092L13.9617 15.6146C14.1978 15.5408 14.4502 15.538 14.768 15.534C15.0699 15.5302 15.4283 15.5248 15.7874 15.4037L15.6851 15.1005L15.5829 14.7973C15.3323 14.8817 15.0705 14.8902 14.7599 14.8941C14.4653 14.8978 14.113 14.8967 13.7707 15.0038L13.8662 15.3092ZM15.6851 15.1005L15.7868 15.4039C16.6255 15.1228 17.2263 14.4475 17.6504 13.7698L17.3791 13.6001L17.1078 13.4303C16.7166 14.0555 16.217 14.5847 15.5834 14.7971L15.6851 15.1005ZM17.3791 13.6001L17.6512 13.7685C17.6846 13.7145 17.8967 13.3934 18.1049 13.0835C18.2081 12.93 18.3083 12.7823 18.3823 12.6756C18.4196 12.6217 18.4487 12.5807 18.4677 12.555C18.4781 12.5409 18.4815 12.5368 18.4803 12.5383C18.4796 12.539 18.4773 12.5417 18.4738 12.5455C18.4713 12.5482 18.4629 12.5572 18.4504 12.5679C18.4443 12.5731 18.4324 12.5829 18.4161 12.5933C18.4039 12.6012 18.3674 12.6239 18.3142 12.6358C18.2575 12.6486 18.1325 12.6569 18.0262 12.5576C17.9353 12.4727 17.9266 12.3696 17.9251 12.3396L18.2447 12.3242L18.5644 12.3089C18.5629 12.2783 18.554 12.1749 18.463 12.0898C18.3564 11.9903 18.2311 11.9986 18.174 12.0114C18.1204 12.0234 18.0834 12.0464 18.0706 12.0546C18.0537 12.0654 18.0412 12.0757 18.0343 12.0816C18.0111 12.1015 17.9943 12.1217 17.9909 12.1257C17.9779 12.1412 17.9642 12.1594 17.9527 12.175C17.9279 12.2086 17.8944 12.256 17.8564 12.3109C17.7797 12.4215 17.6775 12.5722 17.5738 12.7265C17.3682 13.0323 17.1483 13.365 17.107 13.4316L17.3791 13.6001ZM18.2447 12.3242L17.926 12.3526C17.9677 12.8214 18.1935 13.1006 18.4394 13.3071C18.5502 13.4001 18.6809 13.4907 18.7754 13.5611C18.8787 13.6383 18.9635 13.7084 19.0331 13.7882L19.2742 13.5779L19.5154 13.3676C19.4006 13.2359 19.2724 13.1335 19.1582 13.0482C19.035 12.9563 18.9434 12.8946 18.851 12.817C18.6904 12.6821 18.5858 12.546 18.5635 12.2958L18.2447 12.3242ZM19.2742 13.5779L19.0339 13.3666C18.7515 13.6878 18.5803 14.0633 18.4323 14.3818C18.2771 14.7156 18.1475 14.9861 17.9502 15.1968L18.1838 15.4155L18.4174 15.6342C18.6963 15.3363 18.8651 14.9689 19.0126 14.6515C19.1673 14.3188 19.3031 14.0297 19.5146 13.7892L19.2742 13.5779ZM18.1838 15.4155L17.9503 15.1967C17.5724 15.5999 17.0684 15.8976 16.5053 16.1887C15.9584 16.4715 15.3381 16.7554 14.816 17.116L14.9978 17.3793L15.1796 17.6426C15.6572 17.3128 16.212 17.0608 16.7992 16.7572C17.3701 16.4621 17.9592 16.123 18.4173 15.6344L18.1838 15.4155ZM14.9978 17.3793L14.816 17.116C13.9924 17.6846 13.412 18.4508 12.8811 19.1892C12.3408 19.9408 11.8569 20.6547 11.207 21.2134L11.4156 21.4561L11.6242 21.6987C12.3458 21.0784 12.8796 20.2878 13.4008 19.5628C13.9314 18.8246 14.4563 18.142 15.1796 17.6426L14.9978 17.3793ZM23.7092 18.2728L23.66 18.589C24.1138 18.6595 24.5961 18.4336 24.9991 18.1359C25.416 17.8278 25.8149 17.3944 26.1191 16.9313C26.4206 16.4723 26.649 15.9539 26.6877 15.4731C26.7073 15.2294 26.679 14.9823 26.5733 14.7575C26.4656 14.5286 26.2865 14.3426 26.0396 14.2138L25.8916 14.4975L25.7436 14.7812C25.8734 14.849 25.9493 14.9347 25.9942 15.03C26.0409 15.1294 26.0628 15.259 26.0497 15.4218C26.023 15.7541 25.8547 16.1681 25.5842 16.5799C25.3165 16.9875 24.9681 17.3631 24.6188 17.6211C24.2556 17.8894 23.9526 17.9868 23.7583 17.9566L23.7092 18.2728ZM25.8916 14.4975L26.0388 14.2134C25.9003 14.1416 25.7366 14.1108 25.5919 14.0942C25.4418 14.077 25.2783 14.0721 25.1252 14.0693C24.9664 14.0665 24.8213 14.066 24.6853 14.0595C24.5479 14.0529 24.4455 14.0409 24.3759 14.0224L24.2936 14.3317L24.2113 14.6409C24.349 14.6775 24.5071 14.6917 24.6546 14.6987C24.8035 14.7059 24.9677 14.7066 25.1137 14.7092C25.2654 14.712 25.4022 14.7167 25.5192 14.7301C25.6415 14.744 25.7113 14.7645 25.7443 14.7816L25.8916 14.4975ZM24.2936 14.3317L24.3747 14.0221C23.7729 13.8645 23.2061 13.5797 22.6368 13.2678L22.4831 13.5485L22.3294 13.8292C22.9046 14.1442 23.5296 14.4624 24.2126 14.6412L24.2936 14.3317ZM22.4831 13.5485L22.6372 13.2681C22.4017 13.1387 22.1631 12.9992 21.945 12.8891C21.7228 12.7769 21.4923 12.6792 21.2503 12.6322C20.7312 12.5315 20.2358 12.6784 19.6917 13.1597L19.9037 13.3994L20.1157 13.639C20.5484 13.2563 20.849 13.2063 21.1284 13.2605C21.2857 13.291 21.4552 13.3587 21.6566 13.4604C21.8621 13.5642 22.0707 13.687 22.329 13.829L22.4831 13.5485ZM19.9037 13.3994L19.6913 13.16C19.4393 13.3836 18.9743 13.9361 18.5825 14.4872C18.3844 14.7659 18.197 15.0552 18.06 15.314C17.9916 15.4433 17.9324 15.571 17.891 15.6902C17.8517 15.8034 17.8184 15.9363 17.8272 16.0663L18.1465 16.0447L18.4657 16.0231C18.4659 16.025 18.4651 16.0158 18.4697 15.9921C18.474 15.9692 18.4821 15.9388 18.4955 15.9002C18.5226 15.8225 18.566 15.726 18.6256 15.6135C18.7445 15.3889 18.9146 15.1247 19.1041 14.8581C19.4876 14.3186 19.9192 13.8134 20.1161 13.6387L19.9037 13.3994ZM18.1465 16.0447L18.1334 16.3644C19.0347 16.4013 19.85 16.8364 20.7456 17.3482C21.6178 17.8466 22.5683 18.4198 23.6602 18.589L23.7092 18.2728L23.7582 17.9565C22.8071 17.8092 21.9664 17.3087 21.0631 16.7925C20.1833 16.2897 19.2387 15.7691 18.1595 15.725L18.1465 16.0447ZM25.5228 16.4987L25.5849 16.8126C25.6859 16.7926 25.7798 16.7478 25.8559 16.6744C25.9306 16.6023 25.9725 16.5178 25.9954 16.4413C26.0379 16.2991 26.0233 16.1542 26.011 16.0682L25.6942 16.1137L25.3775 16.1592C25.3817 16.1887 25.3838 16.2133 25.3837 16.2331C25.3837 16.2536 25.3814 16.2605 25.3822 16.2579C25.3835 16.2537 25.3904 16.2342 25.4114 16.2139C25.4339 16.1922 25.4556 16.1858 25.4606 16.1848L25.5228 16.4987ZM25.6942 16.1137L25.5091 15.8527C25.5055 15.8553 25.5058 15.8542 25.5095 15.8534C25.5128 15.8526 25.5142 15.8531 25.512 15.8528C25.5094 15.8524 25.5026 15.851 25.4919 15.846C25.4812 15.8411 25.4684 15.8334 25.4546 15.8225L25.2568 16.0741L25.059 16.3257C25.2438 16.4709 25.5714 16.5931 25.8794 16.3747L25.6942 16.1137ZM25.2568 16.0741L24.971 16.218C25.0061 16.2877 25.0481 16.3479 25.0792 16.3916C25.1147 16.4414 25.1351 16.4689 25.1529 16.4985C25.1687 16.5249 25.1717 16.5362 25.1722 16.5386C25.1724 16.5393 25.1723 16.5389 25.1723 16.5383C25.1723 16.5378 25.1724 16.5397 25.1709 16.5448L25.4793 16.6303L25.7877 16.7157C25.8523 16.4825 25.7784 16.2969 25.7015 16.169C25.6672 16.1118 25.6257 16.0557 25.6006 16.0204C25.5711 15.9791 25.554 15.9528 25.5426 15.9302L25.2568 16.0741ZM18.5808 19.8089L18.5564 20.1279C19.2684 20.1824 19.7907 19.6107 20.1198 19.0756C20.465 18.5142 20.6925 17.8439 20.7836 17.4149L20.4706 17.3484L20.1576 17.2819C20.0788 17.6527 19.875 18.2519 19.5746 18.7404C19.258 19.2552 18.9204 19.5139 18.6052 19.4898L18.5808 19.8089ZM20.4706 17.3484L20.7835 17.4153C20.9301 16.7306 20.9389 16.1857 20.6056 15.7974C20.4442 15.6094 20.2271 15.4888 19.9872 15.4002C19.7483 15.3119 19.462 15.2466 19.1405 15.1846L19.0799 15.4988L19.0193 15.813C19.3357 15.874 19.5785 15.9315 19.7654 16.0005C19.9513 16.0692 20.0567 16.1406 20.12 16.2143C20.2358 16.3492 20.3022 16.6061 20.1577 17.2814L20.4706 17.3484ZM19.0799 15.4988L19.1402 15.1846C18.5993 15.0808 18.3567 14.9291 18.1436 14.7378C18.0228 14.6293 17.9179 14.5144 17.7627 14.358C17.6133 14.2074 17.4356 14.0383 17.1985 13.8548L17.0027 14.1079L16.8069 14.361C17.0143 14.5215 17.1704 14.6697 17.3084 14.8088C17.4407 14.9422 17.5771 15.0893 17.7161 15.2141C18.0227 15.4893 18.374 15.6892 19.0196 15.8131L19.0799 15.4988ZM17.0027 14.1079L17.1987 13.855C16.3901 13.2282 15.4738 13.3949 14.7893 13.8879C14.1161 14.3728 13.6102 15.2039 13.5464 16.0435L13.8654 16.0678L14.1845 16.092C14.2327 15.4574 14.629 14.7921 15.1633 14.4073C15.6861 14.0307 16.2825 13.9545 16.8066 14.3608L17.0027 14.1079ZM13.8654 16.0678L13.5464 16.0436C13.4658 17.1074 13.998 18.0218 14.6984 18.7252C15.4 19.4298 16.3035 19.9586 17.0612 20.2643L17.181 19.9676L17.3007 19.6708C16.6053 19.3902 15.7802 18.9046 15.1519 18.2736C14.5223 17.6414 14.1234 16.8991 14.1845 16.0919L13.8654 16.0678ZM17.181 19.9676L17.0614 20.2644C17.2641 20.3461 17.4424 20.3845 17.6094 20.387C17.7777 20.3895 17.9157 20.3551 18.0325 20.3159C18.2752 20.2346 18.3696 20.17 18.5866 20.1733L18.5915 19.8533L18.5963 19.5334C18.235 19.5279 17.9728 19.6609 17.8291 19.7091C17.7527 19.7347 17.6901 19.7481 17.6189 19.747C17.5465 19.746 17.4465 19.7295 17.3005 19.6708L17.181 19.9676ZM19.3276 18.6537L19.3146 18.9734C19.4179 18.9776 19.5207 18.9556 19.6126 18.9001C19.7026 18.8457 19.7622 18.7712 19.8008 18.7011C19.8724 18.5713 19.8888 18.426 19.8951 18.3404L19.576 18.317L19.2568 18.2935C19.2546 18.3237 19.2514 18.3485 19.2471 18.3682C19.2426 18.3887 19.2389 18.3947 19.2405 18.3919C19.2428 18.3876 19.2546 18.3687 19.2815 18.3524C19.3103 18.335 19.3348 18.3337 19.3406 18.3339L19.3276 18.6537ZM19.576 18.317L19.4548 18.0208C19.4515 18.0221 19.4526 18.0212 19.4565 18.0212C19.4601 18.0212 19.4612 18.022 19.4589 18.0211C19.4561 18.02 19.4495 18.0169 19.4398 18.0094C19.4302 18.0018 19.4191 17.9912 19.4078 17.9771L19.1584 18.1775L18.9089 18.378C19.0563 18.5613 19.3484 18.7558 19.6972 18.6131L19.576 18.317ZM19.1584 18.1775L18.8482 18.2562C18.8675 18.3322 18.8958 18.4006 18.9169 18.4504C18.941 18.5073 18.9554 18.5393 18.9667 18.5728C18.9768 18.6028 18.9774 18.6152 18.9774 18.6179C18.9774 18.6187 18.9773 18.6183 18.9775 18.6175C18.9777 18.6167 18.9775 18.6182 18.9752 18.6225L19.2575 18.7733L19.5397 18.9241C19.6546 18.709 19.6208 18.5098 19.5732 18.3686C19.5518 18.305 19.5232 18.2408 19.5061 18.2005C19.486 18.1532 19.4748 18.1235 19.4686 18.0989L19.1584 18.1775ZM8.96188 22.4217L8.6462 22.3693C8.5244 23.1033 8.4819 23.8982 8.59225 24.6363C8.7024 25.3731 8.96893 26.0779 9.4873 26.5982L9.71399 26.3723L9.94068 26.1465C9.55073 25.7551 9.32309 25.1963 9.22521 24.5416C9.12753 23.8882 9.16314 23.1636 9.27756 22.4741L8.96188 22.4217ZM9.71399 26.3723L9.48721 26.5981C10.2025 27.3166 10.8896 28.1894 12.1598 28.1967L12.1616 27.8767L12.1634 27.5567C11.2176 27.5513 10.7373 26.9467 9.94077 26.1466L9.71399 26.3723ZM12.1616 27.8767L11.8522 27.795C11.801 27.9888 11.795 28.1792 11.8588 28.3506C11.9249 28.5284 12.0529 28.6497 12.1993 28.7201C12.47 28.8503 12.7989 28.8103 13.0376 28.7192L12.9236 28.4202L12.8096 28.1213C12.7442 28.1462 12.6732 28.1608 12.6087 28.163C12.5425 28.1653 12.4989 28.1541 12.4767 28.1434C12.4606 28.1356 12.4601 28.1315 12.4586 28.1274C12.4547 28.1169 12.4418 28.0689 12.471 27.9585L12.1616 27.8767ZM12.9236 28.4202L13.038 28.7191C13.3907 28.5841 13.7238 28.2623 14.0086 27.9563C14.3214 27.6202 14.5787 27.3015 14.8555 27.026L14.6298 26.7992L14.404 26.5724C14.1253 26.8499 13.8042 27.2366 13.5402 27.5202C13.2481 27.834 13.006 28.0461 12.8092 28.1214L12.9236 28.4202ZM14.6298 26.7992L14.8555 27.026C15.4778 26.4068 15.9058 26.0675 16.3618 25.1382L16.0745 24.9973L15.7872 24.8563C15.3882 25.6695 15.0497 25.93 14.4041 26.5723L14.6298 26.7992ZM16.0745 24.9973L16.3618 25.1383C16.6543 24.5422 16.9355 23.9336 17.2158 23.3311C17.4968 22.7273 17.7774 22.1289 18.0716 21.5464L17.786 21.4021L17.5004 21.2578C17.201 21.8505 16.9166 22.4573 16.6356 23.0611C16.3539 23.6663 16.0762 24.2677 15.7873 24.8563L16.0745 24.9973ZM17.786 21.4021L17.9825 21.1496C17.3495 20.6571 16.9069 19.9782 16.4139 19.2522L16.1492 19.432L15.8845 19.6118C16.3593 20.3109 16.86 21.0871 17.5895 21.6547L17.786 21.4021ZM16.1492 19.432L16.4134 19.2515C16.2473 19.0083 16.1079 18.6974 15.9314 18.3463C15.7659 18.0168 15.5664 17.6507 15.2929 17.3926L15.0732 17.6253L14.8536 17.858C15.0358 18.0299 15.1922 18.3006 15.3596 18.6337C15.5161 18.9451 15.6869 19.3225 15.885 19.6125L16.1492 19.432ZM15.0732 17.6253L15.2936 17.3932C15.002 17.1163 14.6304 17.0452 14.2975 17.0389C13.972 17.0329 13.6169 17.0902 13.3483 17.1209L13.3846 17.4388L13.421 17.7568C13.7353 17.7208 14.0164 17.6738 14.2855 17.6788C14.5472 17.6837 14.7285 17.7391 14.8529 17.8573L15.0732 17.6253ZM13.3846 17.4388L13.3489 17.1208C11.3271 17.3481 9.77027 18.8221 9.07601 20.7143L9.37642 20.8245L9.67684 20.9347C10.3054 19.2215 11.687 17.9517 13.4204 17.7568L13.3846 17.4388ZM9.37642 20.8245L9.07593 20.7145C8.90153 21.1908 8.74462 21.7634 8.64602 22.3704L8.96188 22.4217L9.27774 22.473C9.36964 21.9073 9.51603 21.3739 9.67691 20.9345L9.37642 20.8245ZM11.9749 23.6468L11.6725 23.7516C11.7158 23.8766 11.8063 24.0515 12.0077 24.1063C12.1865 24.1549 12.3383 24.0704 12.385 24.0449C12.4137 24.0293 12.4526 24.0058 12.4664 23.9978C12.4765 23.9919 12.4839 23.9878 12.4897 23.9848C12.4955 23.9818 12.4979 23.9809 12.4976 23.981C12.496 23.9816 12.4081 24.0118 12.324 23.9468L12.5197 23.6936L12.7154 23.4404C12.6393 23.3816 12.5512 23.3516 12.4616 23.3488C12.3788 23.3462 12.3092 23.3672 12.2618 23.386C12.2144 23.4048 12.1728 23.4282 12.1452 23.4442C12.1095 23.4649 12.0989 23.472 12.0787 23.483C12.062 23.4921 12.0627 23.4901 12.0738 23.487C12.087 23.4833 12.1255 23.4751 12.1757 23.4887C12.2898 23.5198 12.3006 23.6094 12.2772 23.542L11.9749 23.6468ZM12.5197 23.6936L12.3253 23.9478C12.2765 23.9104 12.2645 23.8722 12.2699 23.8849C12.2723 23.8906 12.2784 23.9082 12.2859 23.9426C12.301 24.0111 12.3132 24.1045 12.3249 24.2159C12.3357 24.3185 12.347 24.4458 12.3593 24.5478C12.3707 24.6424 12.3881 24.767 12.4253 24.8618L12.7232 24.7449L13.0211 24.6281C13.0219 24.6302 13.0178 24.6192 13.0116 24.5864C13.0059 24.5562 13.0004 24.5179 12.9947 24.4712C12.9829 24.3734 12.9742 24.2704 12.9614 24.1488C12.9495 24.0362 12.9344 23.9115 12.911 23.8049C12.8992 23.7517 12.8832 23.6924 12.8597 23.6365C12.8391 23.5876 12.7974 23.5032 12.7142 23.4395L12.5197 23.6936ZM12.7232 24.7449L12.9944 24.9147C13.1706 24.6332 13.2237 24.2984 13.2278 24.0086C13.2318 23.7146 13.1858 23.4332 13.1337 23.2306L12.8238 23.3104L12.5139 23.3902C12.5547 23.5486 12.591 23.7727 12.5878 23.9997C12.5846 24.231 12.5409 24.4329 12.4519 24.5752L12.7232 24.7449ZM12.8238 23.3104L12.9889 23.5845C13.0238 23.5634 12.9937 23.5943 12.9269 23.5735C12.8559 23.5514 12.8323 23.4992 12.8297 23.4917C12.8275 23.4857 12.8332 23.4998 12.8272 23.5335C12.8217 23.5646 12.8083 23.5994 12.7863 23.6305L13.0478 23.815L13.3093 23.9995C13.4581 23.7885 13.5146 23.5062 13.4323 23.2761C13.3885 23.1538 13.2913 23.0166 13.1171 22.9624C12.947 22.9095 12.7837 22.9609 12.6586 23.0363L12.8238 23.3104ZM13.0478 23.815L12.7535 23.9406C12.7998 24.0491 12.8946 24.163 12.9296 24.2033L13.1712 23.9935L13.4129 23.7838C13.4001 23.769 13.3815 23.7462 13.3647 23.7229C13.3564 23.7114 13.3499 23.7016 13.3452 23.694C13.34 23.6856 13.34 23.6843 13.3421 23.6894L13.0478 23.815ZM13.1712 23.9935L13.3637 24.2491C13.4157 24.21 13.532 24.134 13.6098 24.0486C13.7108 23.9378 13.7661 23.8074 13.8001 23.6435L13.4867 23.5786L13.1734 23.5137C13.1547 23.6037 13.1377 23.6165 13.1367 23.6175C13.1313 23.6235 13.1207 23.6335 13.0932 23.6541C13.0793 23.6645 13.0643 23.6753 13.0444 23.6897C13.0253 23.7035 13.0029 23.7197 12.9787 23.7379L13.1712 23.9935ZM13.4867 23.5786L13.2079 23.7356C13.2248 23.7656 13.2359 23.8177 13.2412 23.9507C13.2452 24.053 13.2442 24.2456 13.307 24.4155L13.6071 24.3046L13.9073 24.1936C13.8886 24.143 13.8867 24.0782 13.8807 23.9254C13.8758 23.8032 13.8676 23.6027 13.7655 23.4216L13.4867 23.5786ZM13.6071 24.3046L13.4681 24.0164C13.5505 23.9766 13.6327 23.9968 13.675 24.0209C13.7003 24.0353 13.7024 24.0454 13.68 24.0173C13.6604 23.9927 13.6396 23.962 13.6074 23.9151C13.5791 23.8736 13.541 23.8183 13.4985 23.7678C13.4579 23.7196 13.3949 23.6531 13.3084 23.6067C13.2105 23.5543 13.082 23.5285 12.9452 23.5762C12.8235 23.6186 12.7363 23.7055 12.6744 23.7875C12.6105 23.8722 12.553 23.9792 12.4984 24.1046L12.7918 24.2324L13.0851 24.3602C13.1292 24.259 13.1634 24.2021 13.1853 24.173C13.2093 24.1413 13.2021 24.1644 13.1558 24.1805C13.0945 24.2019 13.0368 24.1873 13.0063 24.1709C12.9871 24.1606 12.9879 24.155 13.0089 24.18C13.0281 24.2027 13.0494 24.2328 13.0793 24.2766C13.1055 24.3148 13.1419 24.3689 13.1796 24.4162C13.2145 24.46 13.2741 24.5291 13.358 24.5769C13.4591 24.6345 13.6013 24.6627 13.7462 24.5928L13.6071 24.3046ZM12.7918 24.2324L12.498 24.1055C12.4034 24.3246 12.3795 24.5332 12.4321 24.7298C12.4829 24.9197 12.5949 25.059 12.6945 25.1601C12.7446 25.2109 12.7967 25.257 12.8418 25.2963C12.8897 25.3381 12.9277 25.3706 12.9636 25.4043C13.0375 25.4738 13.0601 25.5112 13.0673 25.5322L13.3701 25.4289L13.673 25.3256C13.6135 25.151 13.4943 25.0249 13.402 24.9381C13.3548 24.8937 13.3036 24.8499 13.2625 24.8141C13.2187 24.7758 13.1822 24.7431 13.1502 24.7107C13.0857 24.6453 13.06 24.6007 13.0504 24.5645C13.0425 24.5351 13.0354 24.4754 13.0855 24.3593L12.7918 24.2324ZM13.3701 25.4289L13.3663 25.7489C13.3842 25.7491 13.4159 25.7556 13.4857 25.7955C13.5213 25.8159 13.5549 25.8377 13.6023 25.8674C13.6458 25.8947 13.6993 25.9276 13.7576 25.9568L13.9013 25.6709L14.0449 25.385C14.0155 25.3702 13.9837 25.3511 13.9423 25.3251C13.9047 25.3016 13.8538 25.2688 13.8034 25.24C13.7012 25.1815 13.5549 25.1111 13.374 25.1089L13.3701 25.4289ZM13.9013 25.6709L14.2154 25.7319C14.2533 25.5367 14.3033 25.3251 14.3589 25.1184L14.0499 25.0354L13.7408 24.9523C13.6821 25.1709 13.6284 25.3973 13.5871 25.6099L13.9013 25.6709ZM14.0499 25.0354L13.7606 25.1722C13.8548 25.3714 13.8678 25.6344 13.8101 25.9507C13.753 26.2637 13.6331 26.5934 13.5029 26.9015L13.7976 27.0261L14.0924 27.1507C14.2288 26.828 14.37 26.4476 14.4397 26.0656C14.5089 25.6868 14.5147 25.2698 14.3391 24.8986L14.0499 25.0354ZM13.7976 27.0261L13.5026 26.9023C13.4059 27.1325 13.2132 27.4643 13.0104 27.6744C12.9059 27.7826 12.83 27.8255 12.7919 27.8357C12.7789 27.8391 12.78 27.8362 12.7874 27.8385C12.7946 27.8406 12.7868 27.8414 12.7663 27.8185L12.5281 28.0322L12.2899 28.2459C12.3748 28.3405 12.4789 28.4138 12.6023 28.4511C12.7259 28.4884 12.8473 28.4832 12.9564 28.4542C13.1624 28.3994 13.3374 28.2571 13.4708 28.1189C13.7439 27.836 13.9752 27.4299 14.0927 27.15L13.7976 27.0261ZM12.5281 28.0322L12.7649 27.817C12.7633 27.8152 12.7615 27.8244 12.741 27.6888C12.733 27.6361 12.718 27.5438 12.671 27.4522C12.618 27.3491 12.534 27.2634 12.4163 27.2059L12.2759 27.4935L12.1354 27.781C12.1355 27.781 12.1338 27.7802 12.1308 27.7781C12.1278 27.776 12.124 27.773 12.1199 27.769C12.1112 27.7605 12.1052 27.7514 12.1017 27.7446C12.0974 27.7363 12.1012 27.7384 12.1082 27.7846C12.1176 27.8465 12.1306 28.0707 12.2913 28.2475L12.5281 28.0322ZM12.2759 27.4935L12.4141 27.2049C12.2536 27.128 12.0492 27.1079 11.9127 27.0947C11.7442 27.0784 11.6335 27.0699 11.5558 27.047L11.4651 27.3538L11.3744 27.6607C11.5275 27.706 11.7221 27.7193 11.8511 27.7317C12.0122 27.7473 12.0977 27.7629 12.1376 27.782L12.2759 27.4935ZM11.4651 27.3538L11.5558 27.0469C11.2863 26.9674 11.1394 26.9035 11.0336 26.8116C10.9343 26.7254 10.8405 26.5865 10.751 26.2913L10.4448 26.3842L10.1385 26.4771C10.2471 26.8349 10.3896 27.0999 10.6139 27.2948C10.8318 27.484 11.096 27.5785 11.3744 27.6607L11.4651 27.3538ZM10.4448 26.3842L10.751 26.2915C10.6425 25.9329 10.429 25.6715 10.2659 25.462C10.0951 25.2424 9.96848 25.068 9.91006 24.8352L9.59969 24.9131L9.28931 24.991C9.38405 25.3684 9.59163 25.6376 9.76081 25.855C9.93779 26.0824 10.0702 26.2515 10.1385 26.4769L10.4448 26.3842ZM9.59969 24.9131L9.9099 24.8346C9.83196 24.5267 9.92429 24.0817 10.1455 23.6163C10.3626 23.1596 10.6702 22.7544 10.9265 22.5404L10.7214 22.2947L10.5163 22.0491C10.1729 22.3358 9.81405 22.8228 9.56747 23.3416C9.325 23.8517 9.15633 24.4657 9.28947 24.9917L9.59969 24.9131ZM10.7214 22.2947L10.9266 22.5403C11.0886 22.4049 11.2034 22.3139 11.3143 22.2665C11.4029 22.2286 11.4811 22.2216 11.5887 22.2712L11.7227 21.9805L11.8566 21.6899C11.5664 21.5562 11.2983 21.5773 11.0628 21.6779C10.8498 21.769 10.6628 21.9267 10.5162 22.0492L10.7214 22.2947ZM11.7227 21.9805L11.5882 22.2709C11.7479 22.3448 11.7806 22.4085 11.7907 22.4361C11.8057 22.4767 11.8096 22.5435 11.7799 22.6744C11.7655 22.7378 11.7464 22.8039 11.7239 22.8824C11.7024 22.9574 11.6778 23.0435 11.6587 23.1315C11.6209 23.3054 11.595 23.5253 11.6722 23.7506L11.9749 23.6468L12.2776 23.5431C12.2565 23.4815 12.2555 23.3986 12.2841 23.2674C12.2981 23.2029 12.317 23.1359 12.3391 23.0589C12.3602 22.9854 12.3848 22.9006 12.404 22.8161C12.4415 22.651 12.4719 22.4333 12.3911 22.2144C12.3055 21.9825 12.1199 21.8118 11.8571 21.6901L11.7227 21.9805ZM16.9836 21.0792L17.2312 20.8764C17.0748 20.6855 16.9031 20.5032 16.7668 20.363C16.6987 20.293 16.6376 20.2315 16.5928 20.1861C16.5403 20.1328 16.5234 20.1145 16.5235 20.1146L16.2734 20.3143L16.0233 20.5139C16.0497 20.547 16.0978 20.5956 16.1371 20.6355C16.1843 20.6833 16.242 20.7413 16.3079 20.8091C16.4397 20.9446 16.5967 21.1118 16.736 21.2819L16.9836 21.0792ZM16.2734 20.3143L16.5225 20.1134C16.445 20.0173 16.3548 19.8621 16.2488 19.6567C16.137 19.4402 16.0448 19.2438 15.9197 18.9982C15.8045 18.7722 15.6788 18.5404 15.5436 18.3459C15.414 18.1594 15.2484 17.9658 15.0396 17.8649L14.9003 18.1529L14.7609 18.441C14.8154 18.4674 14.9032 18.5458 15.018 18.7111C15.1273 18.8683 15.237 19.0681 15.3494 19.2887C15.4518 19.4897 15.5793 19.7549 15.6801 19.9503C15.7867 20.1568 15.9022 20.3637 16.0243 20.5152L16.2734 20.3143ZM14.9003 18.1529L15.0393 17.8647C14.8376 17.7674 14.6058 17.7595 14.3996 17.7813C14.1874 17.8037 13.9646 17.8617 13.7554 17.9327C13.3377 18.0743 12.9318 18.2818 12.6997 18.4281L12.8703 18.6988L13.0408 18.9696C13.2332 18.8484 13.5938 18.6632 13.9608 18.5388C14.144 18.4767 14.318 18.4335 14.4668 18.4178C14.6214 18.4014 14.7145 18.4186 14.7612 18.4411L14.9003 18.1529ZM12.8703 18.6988L12.8431 19.0177C13.138 19.0428 13.4906 19.0793 13.7166 19.1911C13.8226 19.2436 13.8544 19.2906 13.8641 19.318C13.8726 19.3419 13.8894 19.4211 13.7979 19.5992L14.0826 19.7453L14.3673 19.8915C14.5056 19.6221 14.5556 19.3526 14.4672 19.1038C14.3801 18.8585 14.185 18.7088 14.0004 18.6175C13.6451 18.4417 13.1618 18.4025 12.8974 18.38L12.8703 18.6988ZM14.0826 19.7453L14.2274 20.0307C14.2959 19.9959 14.4379 19.9877 14.6843 20.1177C14.9189 20.2415 15.1815 20.4582 15.4281 20.7267C15.6731 20.9935 15.8884 21.2963 16.0346 21.5779C16.1875 21.8724 16.2392 22.0946 16.2252 22.2171L16.5432 22.2535L16.8611 22.2898C16.8974 21.972 16.7711 21.6075 16.6026 21.283C16.4274 20.9455 16.1779 20.5969 15.8995 20.2938C15.6227 19.9924 15.3036 19.7208 14.9829 19.5516C14.6739 19.3886 14.2869 19.2829 13.9378 19.46L14.0826 19.7453ZM16.5432 22.2535L16.861 22.2904C16.8817 22.1131 16.8807 21.9326 16.8774 21.7674C16.874 21.5956 16.8684 21.4433 16.8744 21.2918L16.5546 21.2791L16.2348 21.2665C16.2279 21.4427 16.2344 21.6235 16.2375 21.78C16.2407 21.9432 16.2405 22.0859 16.2253 22.2165L16.5432 22.2535ZM16.5546 21.2791L16.235 21.2624C16.2316 21.3274 16.2481 21.3805 16.2535 21.3979C16.2617 21.4239 16.2717 21.4481 16.2805 21.4679C16.2984 21.5081 16.3216 21.5519 16.3458 21.5947C16.3948 21.6814 16.4597 21.7837 16.5271 21.8809C16.5938 21.9771 16.6688 22.0768 16.7388 22.1548C16.7728 22.1927 16.8138 22.2347 16.858 22.2693C16.8799 22.2864 16.9114 22.3086 16.9503 22.3268C16.9848 22.343 17.0574 22.3715 17.1497 22.36L17.1101 22.0424L17.0705 21.7249C17.1493 21.7151 17.2057 21.7397 17.2216 21.7472C17.2328 21.7524 17.2406 21.7572 17.2448 21.7598C17.2491 21.7626 17.2515 21.7645 17.252 21.7649C17.2525 21.7653 17.2492 21.7627 17.242 21.7556C17.235 21.7488 17.226 21.7395 17.2152 21.7274C17.1702 21.6772 17.1122 21.6016 17.053 21.5162C16.9945 21.4319 16.9405 21.3462 16.9027 21.2795C16.8835 21.2456 16.8713 21.2213 16.8649 21.2071C16.8616 21.1997 16.8623 21.2002 16.8642 21.2065C16.8653 21.2098 16.8678 21.2181 16.87 21.2301C16.872 21.2405 16.8758 21.2643 16.8742 21.2959L16.5546 21.2791ZM17.1101 22.0424L17.1525 22.3596C17.3195 22.3373 17.5031 22.2702 17.6139 22.0999C17.7236 21.9313 17.7067 21.746 17.6716 21.6156C17.6038 21.3639 17.4082 21.0924 17.2311 20.8763L16.9836 21.0792L16.7361 21.282C16.8199 21.3842 16.8939 21.4834 16.951 21.574C17.01 21.6675 17.0415 21.7372 17.0536 21.7821C17.0666 21.8303 17.0452 21.8004 17.0775 21.7509C17.1109 21.6995 17.1442 21.715 17.0677 21.7252L17.1101 22.0424Z" fill="#967348" mask="url(#path-1-outside-1_8_107)"/>
</g>
<defs>
<filter id="filter0_d_8_107" x="0.906754" y="0.582397" width="38.4376" height="36.2209" filterUnits="userSpaceOnUse" color-interpolation-filters="sRGB">
<feFlood flood-opacity="0" result="BackgroundImageFix"/>
<feColorMatrix in="SourceAlpha" type="matrix" values="0 0 0 0 0 0 0 0 0 0 0 0 0 0 0 0 0 0 127 0" result="hardAlpha"/>
<feOffset dy="4"/>
<feGaussianBlur stdDeviation="2"/>
<feComposite in2="hardAlpha" operator="out"/>
<feColorMatrix type="matrix" values="0 0 0 0 0 0 0 0 0 0 0 0 0 0 0 0 0 0 0.25 0"/>
<feBlend mode="normal" in2="BackgroundImageFix" result="effect1_dropShadow_8_107"/>
<feBlend mode="normal" in="SourceGraphic" in2="effect1_dropShadow_8_107" result="shape"/>
</filter>
</defs>
</svg>
