<svg width="39" height="36" viewBox="0 0 39 36" fill="none" xmlns="http://www.w3.org/2000/svg">
<g id="TarsalsRight" filter="url(#filter0_d_8_104)">
<mask id="path-1-outside-1_8_104" maskUnits="userSpaceOnUse" x="3.35477" y="-0.149109" width="32" height="28" fill="black">
<rect fill="white" x="3.35477" y="-0.149109" width="32" height="28"/>
<path d="M23.1533 18.7925C25.4363 19.7137 27.8633 20.5595 30.0945 21.5624C30.7887 21.8758 31.0722 22.5963 31.9317 22.309C32.5673 22.098 33.0671 21.3831 33.5716 21.0086C34.0532 20.6507 34.1736 20.5682 34.2208 19.8581C34.297 18.7131 34.0158 17.4896 33.5602 16.4518C33.2675 15.7837 32.6617 15.1624 32.5589 14.4213C32.3021 12.5789 34.1119 11.1206 33.6722 9.11155C33.3163 7.48021 32.5291 6.65423 31.2817 5.69971C27.5997 2.88216 23.5343 1.81577 19.1032 0.950907C17.1593 0.570843 15.5972 1.26906 14.3559 3.12971C13.3477 4.64123 14.5105 5.1919 14.157 6.65026C13.7592 8.29351 11.9829 8.74498 11.3581 10.0907C10.9618 10.946 11.8023 11.388 12.2093 11.9751C12.7312 12.7273 12.6185 13.4993 13.0383 14.2404C13.9078 15.7773 15.8159 15.9678 17.3612 16.4296C19.325 17.0151 21.2445 18.0204 23.1533 18.7925Z"/>
<path d="M31.3655 13.389C31.3313 13.5104 31.313 13.6358 31.3145 13.7611C31.3229 14.603 31.8951 14.8759 31.015 15.302C29.3714 16.0955 27.9106 13.4485 26.6327 13.0526C25.3891 12.6669 25.0904 13.9301 23.8986 13.0558C22.9834 12.3837 22.9742 10.6238 22.1543 10.1271C21.2765 9.59315 19.1443 11.1364 18.4509 10.4643C17.9106 9.94146 18.7801 7.74199 19.2503 7.4611C20.2074 6.8922 21.9036 7.79754 22.8417 8.21252C24.1409 8.78857 26.1419 9.37971 27.2103 10.3049C27.7521 9.81769 28.4455 9.60423 29.0589 9.24797C28.2367 8.87822 26.731 8.89963 26.0756 8.32279C25.4051 7.73326 25.6184 7.01758 24.4213 6.54072C23.5633 6.19636 22.565 6.1043 21.7405 5.76867C21.0608 5.49017 20.4253 4.86336 19.6602 4.79274C18.0935 4.64675 15.9492 5.39338 15.319 6.78272C14.775 7.98321 14.5951 9.31065 13.9177 10.4651C13.6799 10.8714 13.2433 11.1776 13.2517 11.641C13.257 11.9005 13.7622 12.1179 13.8529 12.3496C14.0297 12.8082 13.8354 12.7828 13.8438 13.2208C13.856 13.8929 13.4993 14.3269 14.0922 14.9085C14.6408 15.448 15.5758 15.4663 16.2937 15.5766C17.1159 15.7019 17.8063 15.9638 18.5972 16.2145C19.8264 16.6001 20.8932 17.2618 22.0293 17.8442C23.3027 18.4949 24.8587 18.9852 26.2341 19.4296C27.7292 19.9112 29.2007 20.3563 30.6797 20.8943C31.8189 21.3076 32.648 21.0284 33.4131 19.9318C34.0296 19.0519 33.3338 18.11 33.01 17.2277C32.616 16.1542 32.3143 15.0021 32.3264 13.8548C32.3463 12.0203 34.1454 10.934 32.3127 9.40347C34.0326 10.8388 31.7435 12.0258 31.3655 13.389Z"/>
<path d="M28.1034 5.90279C29.4194 6.49153 34.4921 8.33789 32.5413 10.9095C32.4834 9.88592 31.6437 9.39796 30.7552 9.18769C31.1072 6.39236 26.8438 9.65188 25.9484 9.36465C25.4683 9.21152 24.6743 8.23158 24.2057 7.92531C23.6044 7.53096 22.9285 7.22389 22.261 6.97078C20.9945 6.49074 19.331 5.65047 17.9503 5.77901C16.7295 5.89247 16.5573 6.57722 16.1054 7.65711C15.8044 8.37043 15.4326 9.12184 15.0554 9.79707C14.7529 10.3398 14.2987 11.2761 13.6495 11.4459C13.3477 11.5252 11.8877 10.8976 12.1559 10.6746C13.9619 9.1647 16.2563 5.53938 14.5037 3.22329C14.9883 2.92574 15.9393 2.22831 16.5253 2.19578C16.9978 2.17039 17.202 2.43699 17.7301 2.52824C19.155 2.77738 19.7197 2.58218 21.0471 3.23123C23.3179 4.34048 25.7884 4.86654 28.1034 5.90279Z"/>
<path d="M14.7811 16.4859C13.427 17.4277 11.861 17.8942 10.2715 18.2878C9.01794 18.598 7.47029 19.4946 6.16115 19.032C4.90763 18.5901 4.15246 16.8191 4.4024 15.5885C4.61348 14.5467 6.3585 13.074 7.32092 12.6535C8.20486 12.2671 9.18558 12.1068 10.0398 11.6497C10.7698 11.2594 11.1805 10.5294 11.8519 10.1462C13.1892 9.38128 14.6942 11.0705 16.0498 11.1618C17.0206 11.2268 18.1415 11.1086 19.0773 10.9373C19.9262 10.7817 20.6257 10.9229 20.2919 11.8846C20.0565 12.5646 19.1543 13.9595 18.5645 14.3554C18.1225 14.6522 17.5502 14.6244 17.0595 14.8601C16.2289 15.26 15.5301 15.9646 14.7811 16.4859Z"/>
<path d="M12.4356 10.9857C12.8958 13.0106 10.0139 13.5438 8.63388 13.7096C7.5381 13.8405 5.69784 15.1077 6.34479 16.4089C6.818 17.3635 8.45556 17.1881 9.2313 16.7596C10.4109 16.1074 10.6928 15.5512 10.6814 14.3285C11.2438 14.6427 11.8892 14.0468 12.2694 14.6951C12.5179 14.4023 13.0033 13.7905 13.43 13.6533C14.4816 13.3137 15.1384 13.5366 16.0742 12.8059C16.8111 12.2306 17.4458 11.4308 18.4303 11.2689C17.5251 11.4173 15.8311 13.1114 17.2355 13.7453C16.5611 14.3309 15.5126 14.4292 14.7597 14.972C13.8522 15.6234 12.9324 16.3185 11.765 16.4343C10.7523 16.5351 9.57954 16.4811 8.71389 17.1032C8.40222 17.3262 7.95187 18.4148 7.51829 17.7118C6.55967 18.0339 6.46519 17.8681 6.03922 17.0762C5.68107 16.4121 5.26653 15.7654 4.70645 15.2441C5.60334 15.022 5.93559 14.2706 6.5452 13.7207C7.23177 13.1034 8.30088 12.736 9.16729 12.448C9.95369 12.1886 10.6403 11.8791 11.3147 11.4205C11.7894 11.0975 11.9486 10.6278 12.6444 11.0729"/>
<path d="M23.721 12.5694C23.7949 12.6099 23.8673 12.6455 23.9389 12.6781C25.4188 13.3461 26.7622 14.2753 28.2093 15.0124C29.0902 15.4623 29.9863 16.0344 30.9358 16.1661C31.7412 16.2764 32.0742 15.9169 32.597 16.5747C33.4778 17.6792 32.9307 18.9963 32.4217 20.1103C32.1718 20.657 32.2609 22.7779 31.2413 22.6494C30.7948 22.5946 30.5586 21.7496 30.1684 21.5139C29.6609 21.2093 29.0383 21.2886 28.4699 21.2886C27.1821 21.2886 26.8415 20.3198 26.1229 19.4407C25.4066 18.5655 24.7414 17.626 23.8894 16.8667C22.9179 16.001 21.9524 16.1447 20.8764 15.5988C19.949 15.1283 19.3966 13.8174 18.9036 12.9534C19.251 12.6796 19.7441 12.6503 20.0786 12.3393C20.4718 11.9711 20.4078 11.6315 20.5381 11.1507C21.5912 11.0301 22.7792 12.0687 23.721 12.5694Z"/>
<path d="M28.2146 20.3238C29.0566 20.9308 29.9505 21.4624 30.7948 22.0844C31.3015 22.4589 31.2131 22.5121 31.6056 21.9392C32.2792 20.9482 32.4926 19.0574 32.3661 17.9101C32.2914 19.0892 31.4623 19.9865 31.6399 21.2101C31.6231 20.0595 31.0173 18.6091 30.0351 17.9133C29.5946 17.6007 29.1778 17.6848 28.665 17.5967C28.2116 17.5174 28.0394 17.2618 27.5517 17.4404C27.1661 16.5771 26.4627 14.9315 25.4333 14.691C24.845 14.553 24.227 14.7545 23.6075 14.5974C22.8599 14.4054 22.2778 13.8714 21.8373 13.2835C21.7542 13.174 20.9023 12.1036 20.9023 12.1322C20.8787 12.8114 20.2889 12.9494 19.9452 13.3684C20.468 13.8674 20.631 14.5807 21.134 15.0322C22.0164 15.8233 23.3842 16.1066 24.4183 16.6985C26.02 17.6126 26.7828 19.2939 28.2146 20.3238Z"/>
<path d="M15.7823 18.0212C14.4999 18.2814 11.9387 15.4211 13.3965 14.599C13.7302 14.4126 14.5738 14.4792 14.9815 14.3538C15.6124 14.1594 16.1908 13.8437 16.744 13.5168C17.6981 12.9502 18.2848 12.475 19.3059 13.2335C19.7768 13.581 21.2109 15.118 21.2048 15.6178C19.2358 15.8043 17.8009 17.6102 15.7823 18.0212Z"/>
<path d="M13.8765 16.4575C13.6822 16.4337 13.6708 16.2507 13.6853 16.1065C13.8362 16.1952 13.9992 16.1437 14.1173 16.0439C14.0373 16.223 13.8491 16.364 13.9268 16.5803"/>
<path d="M20.9808 19.1773C19.9605 19.3082 19.1733 17.7142 18.9584 16.9731C18.5942 15.7123 18.9851 15.46 20.2447 15.1592C21.4152 14.8791 21.3908 14.4332 22.2389 13.7366C23.5115 12.694 25.2808 14.0246 25.4744 15.4028C25.7198 17.1516 23.7995 18.6171 22.3829 19.2479C21.7032 19.5518 21.547 19.1805 20.9701 19.2209"/>
<path d="M20.1723 18.1348C19.978 18.1522 19.9246 17.9779 19.9056 17.8329C20.0725 17.8868 20.2203 17.8012 20.3133 17.6792C20.2752 17.8693 20.1235 18.0484 20.2477 18.2433"/>
<path d="M30.7155 21.0926C31.0295 22.4161 31.0386 23.9372 30.1829 24.8441C29.4704 25.6003 28.9301 26.3255 27.8252 26.393C28.0195 26.9555 27.4884 27.0626 27.0952 26.946C26.5359 26.7785 25.8882 26.0065 25.3052 25.5185C24.6369 24.9623 24.2384 24.7029 23.7644 23.9086C23.119 22.8287 22.517 21.6997 21.8609 20.6285C22.5102 20.0929 22.9399 19.3836 23.3834 18.6869C23.7172 18.1664 23.926 17.3595 24.3558 16.9302C24.7497 16.5351 25.4439 16.6303 26.0299 16.6604C27.9129 16.7533 29.4529 17.9601 30.2126 19.6161C30.4054 20.0366 30.5868 20.5475 30.7155 21.0926Z"/>
<path d="M27.778 22.4114C27.6675 22.7819 27.4046 22.3495 27.2377 22.486C27.1074 22.5931 27.16 23.2889 27.0937 23.4849C26.8064 23.1017 26.8422 22.4868 26.9146 22.1448C26.5847 21.9805 26.5031 22.3749 26.7188 22.6296C26.6967 22.6851 26.6388 22.7645 26.6052 22.8041C26.4277 22.6931 26.3347 22.6693 26.2684 22.432C26.1602 22.6367 26.2562 22.9089 26.1877 23.1199C26.4452 23.2199 26.5527 22.1773 26.9977 23.0057C27.3246 23.619 26.5991 23.7872 26.4864 24.1601C26.2898 24.1752 26.1404 24.3268 25.9705 24.418C25.9202 24.2292 25.8569 24.0268 25.7876 23.8301C25.5498 24.3815 25.8486 25.1067 26.1488 25.6852C26.3911 26.1525 27.0762 27.0237 27.4709 26.5579C27.6218 26.3818 27.4762 26.1541 27.6926 26.0399C27.8869 25.9375 28.2664 25.9407 28.492 25.8621C29.0307 25.6804 29.2959 25.5201 29.4567 24.8965C29.6015 24.3379 30.0991 24.0499 30.2187 23.4675C30.3833 22.6732 29.5817 21.5092 28.956 21.072C28.6345 20.8475 28.3282 20.638 27.9403 20.8332C27.1165 21.2474 27.9426 21.8615 27.778 22.4114Z"/>
<path d="M22.6428 20.281C22.9171 19.9263 23.26 19.5891 23.308 19.5232C23.6806 19.036 24.0479 17.6856 24.56 17.4182C25.0431 17.1658 26.1762 17.5896 26.6136 17.8165C26.0581 17.8919 24.9555 18.0522 25.4622 18.8678C24.6057 18.5163 22.9994 20.5364 23.1472 21.3601C23.0954 21.0728 23.1122 20.7515 23.0832 20.4444C23.0923 20.5277 22.6801 21.199 22.5696 21.1934C22.0804 21.1577 22.3128 20.7063 22.6428 20.281Z"/>
</mask>
<path d="M23.1533 18.7925C25.4363 19.7137 27.8633 20.5595 30.0945 21.5624C30.7887 21.8758 31.0722 22.5963 31.9317 22.309C32.5673 22.098 33.0671 21.3831 33.5716 21.0086C34.0532 20.6507 34.1736 20.5682 34.2208 19.8581C34.297 18.7131 34.0158 17.4896 33.5602 16.4518C33.2675 15.7837 32.6617 15.1624 32.5589 14.4213C32.3021 12.5789 34.1119 11.1206 33.6722 9.11155C33.3163 7.48021 32.5291 6.65423 31.2817 5.69971C27.5997 2.88216 23.5343 1.81577 19.1032 0.950907C17.1593 0.570843 15.5972 1.26906 14.3559 3.12971C13.3477 4.64123 14.5105 5.1919 14.157 6.65026C13.7592 8.29351 11.9829 8.74498 11.3581 10.0907C10.9618 10.946 11.8023 11.388 12.2093 11.9751C12.7312 12.7273 12.6185 13.4993 13.0383 14.2404C13.9078 15.7773 15.8159 15.9678 17.3612 16.4296C19.325 17.0151 21.2445 18.0204 23.1533 18.7925Z" fill="#F3D48C"/>
<path d="M31.3655 13.389C31.3313 13.5104 31.313 13.6358 31.3145 13.7611C31.3229 14.603 31.8951 14.8759 31.015 15.302C29.3714 16.0955 27.9106 13.4485 26.6327 13.0526C25.3891 12.6669 25.0904 13.9301 23.8986 13.0558C22.9834 12.3837 22.9742 10.6238 22.1543 10.1271C21.2765 9.59315 19.1443 11.1364 18.4509 10.4643C17.9106 9.94146 18.7801 7.74199 19.2503 7.4611C20.2074 6.8922 21.9036 7.79754 22.8417 8.21252C24.1409 8.78857 26.1419 9.37971 27.2103 10.3049C27.7521 9.81769 28.4455 9.60423 29.0589 9.24797C28.2367 8.87822 26.731 8.89963 26.0756 8.32279C25.4051 7.73326 25.6184 7.01758 24.4213 6.54072C23.5633 6.19636 22.565 6.1043 21.7405 5.76867C21.0608 5.49017 20.4253 4.86336 19.6602 4.79274C18.0935 4.64675 15.9492 5.39338 15.319 6.78272C14.775 7.98321 14.5951 9.31065 13.9177 10.4651C13.6799 10.8714 13.2433 11.1776 13.2517 11.641C13.257 11.9005 13.7622 12.1179 13.8529 12.3496C14.0297 12.8082 13.8354 12.7828 13.8438 13.2208C13.856 13.8929 13.4993 14.3269 14.0922 14.9085C14.6408 15.448 15.5758 15.4663 16.2937 15.5766C17.1159 15.7019 17.8063 15.9638 18.5972 16.2145C19.8264 16.6001 20.8932 17.2618 22.0293 17.8442C23.3027 18.4949 24.8587 18.9852 26.2341 19.4296C27.7292 19.9112 29.2007 20.3563 30.6797 20.8943C31.8189 21.3076 32.648 21.0284 33.4131 19.9318C34.0296 19.0519 33.3338 18.11 33.01 17.2277C32.616 16.1542 32.3143 15.0021 32.3264 13.8548C32.3463 12.0203 34.1454 10.934 32.3127 9.40347C34.0326 10.8388 31.7435 12.0258 31.3655 13.389Z" fill="#DCC06D"/>
<path d="M28.1034 5.90279C29.4194 6.49153 34.4921 8.33789 32.5413 10.9095C32.4834 9.88592 31.6437 9.39796 30.7552 9.18769C31.1072 6.39236 26.8438 9.65188 25.9484 9.36465C25.4683 9.21152 24.6743 8.23158 24.2057 7.92531C23.6044 7.53096 22.9285 7.22389 22.261 6.97078C20.9945 6.49074 19.331 5.65047 17.9503 5.77901C16.7295 5.89247 16.5573 6.57722 16.1054 7.65711C15.8044 8.37043 15.4326 9.12184 15.0554 9.79707C14.7529 10.3398 14.2987 11.2761 13.6495 11.4459C13.3477 11.5252 11.8877 10.8976 12.1559 10.6746C13.9619 9.1647 16.2563 5.53938 14.5037 3.22329C14.9883 2.92574 15.9393 2.22831 16.5253 2.19578C16.9978 2.17039 17.202 2.43699 17.7301 2.52824C19.155 2.77738 19.7197 2.58218 21.0471 3.23123C23.3179 4.34048 25.7884 4.86654 28.1034 5.90279Z" fill="#CCB25C"/>
<path d="M14.7811 16.4859C13.427 17.4277 11.861 17.8942 10.2715 18.2878C9.01794 18.598 7.47029 19.4946 6.16115 19.032C4.90763 18.5901 4.15246 16.8191 4.4024 15.5885C4.61348 14.5467 6.3585 13.074 7.32092 12.6535C8.20486 12.2671 9.18558 12.1068 10.0398 11.6497C10.7698 11.2594 11.1805 10.5294 11.8519 10.1462C13.1892 9.38128 14.6942 11.0705 16.0498 11.1618C17.0206 11.2268 18.1415 11.1086 19.0773 10.9373C19.9262 10.7817 20.6257 10.9229 20.2919 11.8846C20.0565 12.5646 19.1543 13.9595 18.5645 14.3554C18.1225 14.6522 17.5502 14.6244 17.0595 14.8601C16.2289 15.26 15.5301 15.9646 14.7811 16.4859Z" fill="#F3D48C"/>
<path d="M12.4356 10.9857C12.8958 13.0106 10.0139 13.5438 8.63388 13.7096C7.5381 13.8405 5.69784 15.1077 6.34479 16.4089C6.818 17.3635 8.45556 17.1881 9.2313 16.7596C10.4109 16.1074 10.6928 15.5512 10.6814 14.3285C11.2438 14.6427 11.8892 14.0468 12.2694 14.6951C12.5179 14.4023 13.0033 13.7905 13.43 13.6533C14.4816 13.3137 15.1384 13.5366 16.0742 12.8059C16.8111 12.2306 17.4458 11.4308 18.4303 11.2689C17.5251 11.4173 15.8311 13.1114 17.2355 13.7453C16.5611 14.3309 15.5126 14.4292 14.7597 14.972C13.8522 15.6234 12.9324 16.3185 11.765 16.4343C10.7523 16.5351 9.57954 16.4811 8.71389 17.1032C8.40222 17.3262 7.95187 18.4148 7.51829 17.7118C6.55967 18.0339 6.46519 17.8681 6.03922 17.0762C5.68107 16.4121 5.26653 15.7654 4.70645 15.2441C5.60334 15.022 5.93559 14.2706 6.5452 13.7207C7.23177 13.1034 8.30088 12.736 9.16729 12.448C9.95369 12.1886 10.6403 11.8791 11.3147 11.4205C11.7894 11.0975 11.9486 10.6278 12.6444 11.0729" fill="#DCC06D"/>
<path d="M23.721 12.5694C23.7949 12.6099 23.8673 12.6455 23.9389 12.6781C25.4188 13.3461 26.7622 14.2753 28.2093 15.0124C29.0902 15.4623 29.9863 16.0344 30.9358 16.1661C31.7412 16.2764 32.0742 15.9169 32.597 16.5747C33.4778 17.6792 32.9307 18.9963 32.4217 20.1103C32.1718 20.657 32.2609 22.7779 31.2413 22.6494C30.7948 22.5946 30.5586 21.7496 30.1684 21.5139C29.6609 21.2093 29.0383 21.2886 28.4699 21.2886C27.1821 21.2886 26.8415 20.3198 26.1229 19.4407C25.4066 18.5655 24.7414 17.626 23.8894 16.8667C22.9179 16.001 21.9524 16.1447 20.8764 15.5988C19.949 15.1283 19.3966 13.8174 18.9036 12.9534C19.251 12.6796 19.7441 12.6503 20.0786 12.3393C20.4718 11.9711 20.4078 11.6315 20.5381 11.1507C21.5912 11.0301 22.7792 12.0687 23.721 12.5694Z" fill="#F3D48C"/>
<path d="M28.2146 20.3238C29.0566 20.9308 29.9505 21.4624 30.7948 22.0844C31.3015 22.4589 31.2131 22.5121 31.6056 21.9392C32.2792 20.9482 32.4926 19.0574 32.3661 17.9101C32.2914 19.0892 31.4623 19.9865 31.6399 21.2101C31.6231 20.0595 31.0173 18.6091 30.0351 17.9133C29.5946 17.6007 29.1778 17.6848 28.665 17.5967C28.2116 17.5174 28.0394 17.2618 27.5517 17.4404C27.1661 16.5771 26.4627 14.9315 25.4333 14.691C24.845 14.553 24.227 14.7545 23.6075 14.5974C22.8599 14.4054 22.2778 13.8714 21.8373 13.2835C21.7542 13.174 20.9023 12.1036 20.9023 12.1322C20.8787 12.8114 20.2889 12.9494 19.9452 13.3684C20.468 13.8674 20.631 14.5807 21.134 15.0322C22.0164 15.8233 23.3842 16.1066 24.4183 16.6985C26.02 17.6126 26.7828 19.2939 28.2146 20.3238Z" fill="#DCC06D"/>
<path d="M15.7823 18.0212C14.4999 18.2814 11.9387 15.4211 13.3965 14.599C13.7302 14.4126 14.5738 14.4792 14.9815 14.3538C15.6124 14.1594 16.1908 13.8437 16.744 13.5168C17.6981 12.9502 18.2848 12.475 19.3059 13.2335C19.7768 13.581 21.2109 15.118 21.2048 15.6178C19.2358 15.8043 17.8009 17.6102 15.7823 18.0212Z" fill="#F3D48C"/>
<path d="M13.8765 16.4575C13.6822 16.4337 13.6708 16.2507 13.6853 16.1065C13.8362 16.1952 13.9992 16.1437 14.1173 16.0439C14.0373 16.223 13.8491 16.364 13.9268 16.5803" fill="#DCC06D"/>
<path d="M20.9808 19.1773C19.9605 19.3082 19.1733 17.7142 18.9584 16.9731C18.5942 15.7123 18.9851 15.46 20.2447 15.1592C21.4152 14.8791 21.3908 14.4332 22.2389 13.7366C23.5115 12.694 25.2808 14.0246 25.4744 15.4028C25.7198 17.1516 23.7995 18.6171 22.3829 19.2479C21.7032 19.5518 21.547 19.1805 20.9701 19.2209" fill="#F3D48C"/>
<path d="M20.1723 18.1348C19.978 18.1522 19.9246 17.9779 19.9056 17.8329C20.0725 17.8868 20.2203 17.8012 20.3133 17.6792C20.2752 17.8693 20.1235 18.0484 20.2477 18.2433" fill="#DCC06D"/>
<path d="M30.7155 21.0926C31.0295 22.4161 31.0386 23.9372 30.1829 24.8441C29.4704 25.6003 28.9301 26.3255 27.8252 26.393C28.0195 26.9555 27.4884 27.0626 27.0952 26.946C26.5359 26.7785 25.8882 26.0065 25.3052 25.5185C24.6369 24.9623 24.2384 24.7029 23.7644 23.9086C23.119 22.8287 22.517 21.6997 21.8609 20.6285C22.5102 20.0929 22.9399 19.3836 23.3834 18.6869C23.7172 18.1664 23.926 17.3595 24.3558 16.9302C24.7497 16.5351 25.4439 16.6303 26.0299 16.6604C27.9129 16.7533 29.4529 17.9601 30.2126 19.6161C30.4054 20.0366 30.5868 20.5475 30.7155 21.0926Z" fill="#F3D48C"/>
<path d="M27.778 22.4114C27.6675 22.7819 27.4046 22.3495 27.2377 22.486C27.1074 22.5931 27.16 23.2889 27.0937 23.4849C26.8064 23.1017 26.8422 22.4868 26.9146 22.1448C26.5847 21.9805 26.5031 22.3749 26.7188 22.6296C26.6967 22.6851 26.6388 22.7645 26.6052 22.8041C26.4277 22.6931 26.3347 22.6693 26.2684 22.432C26.1602 22.6367 26.2562 22.9089 26.1877 23.1199C26.4452 23.2199 26.5527 22.1773 26.9977 23.0057C27.3246 23.619 26.5991 23.7872 26.4864 24.1601C26.2898 24.1752 26.1404 24.3268 25.9705 24.418C25.9202 24.2292 25.8569 24.0268 25.7876 23.8301C25.5498 24.3815 25.8486 25.1067 26.1488 25.6852C26.3911 26.1525 27.0762 27.0237 27.4709 26.5579C27.6218 26.3818 27.4762 26.1541 27.6926 26.0399C27.8869 25.9375 28.2664 25.9407 28.492 25.8621C29.0307 25.6804 29.2959 25.5201 29.4567 24.8965C29.6015 24.3379 30.0991 24.0499 30.2187 23.4675C30.3833 22.6732 29.5817 21.5092 28.956 21.072C28.6345 20.8475 28.3282 20.638 27.9403 20.8332C27.1165 21.2474 27.9426 21.8615 27.778 22.4114Z" fill="#DCC06D"/>
<path d="M22.6428 20.281C22.9171 19.9263 23.26 19.5891 23.308 19.5232C23.6806 19.036 24.0479 17.6856 24.56 17.4182C25.0431 17.1658 26.1762 17.5896 26.6136 17.8165C26.0581 17.8919 24.9555 18.0522 25.4622 18.8678C24.6057 18.5163 22.9994 20.5364 23.1472 21.3601C23.0954 21.0728 23.1122 20.7515 23.0832 20.4444C23.0923 20.5277 22.6801 21.199 22.5696 21.1934C22.0804 21.1577 22.3128 20.7063 22.6428 20.281Z" fill="#DCC06D"/>
<path d="M23.1533 18.7925L23.0333 19.0891L23.0336 19.0892L23.1533 18.7925ZM30.0945 21.5624L30.2262 21.2708L30.2257 21.2706L30.0945 21.5624ZM31.9317 22.309L31.8309 22.0054L31.8303 22.0055L31.9317 22.309ZM33.5716 21.0086L33.7623 21.2655L33.7624 21.2654L33.5716 21.0086ZM34.2208 19.8581L33.9015 19.8368L33.9015 19.8368L34.2208 19.8581ZM33.5602 16.4518L33.267 16.5801L33.2672 16.5804L33.5602 16.4518ZM32.5589 14.4213L32.8758 14.3773L32.8758 14.3772L32.5589 14.4213ZM33.6722 9.11155L33.3595 9.17975L33.3596 9.17996L33.6722 9.11155ZM31.2817 5.69971L31.0873 5.95384L31.0873 5.95384L31.2817 5.69971ZM19.1032 0.950907L19.0418 1.26496L19.0419 1.26498L19.1032 0.950907ZM14.3559 3.12971L14.0897 2.95211L14.0896 2.95215L14.3559 3.12971ZM14.157 6.65026L13.846 6.57487L13.846 6.57498L14.157 6.65026ZM11.3581 10.0907L11.0678 9.95591L11.0677 9.95616L11.3581 10.0907ZM12.2093 11.9751L11.9462 12.1574L11.9464 12.1576L12.2093 11.9751ZM13.0383 14.2404L13.3168 14.0829L13.3167 14.0827L13.0383 14.2404ZM17.3612 16.4296L17.2696 16.7362L17.2698 16.7362L17.3612 16.4296ZM31.3655 13.389L31.6735 13.476L31.6739 13.4745L31.3655 13.389ZM31.3145 13.7611L31.6345 13.7579L31.6345 13.7572L31.3145 13.7611ZM31.015 15.302L31.1541 15.5902L31.1545 15.59L31.015 15.302ZM26.6327 13.0526L26.5379 13.3582L26.538 13.3582L26.6327 13.0526ZM23.8986 13.0558L23.7092 13.3137L23.7093 13.3138L23.8986 13.0558ZM22.1543 10.1271L21.988 10.4005L21.9885 10.4008L22.1543 10.1271ZM18.4509 10.4643L18.6736 10.2346L18.6735 10.2344L18.4509 10.4643ZM19.2503 7.4611L19.0868 7.18603L19.0862 7.18639L19.2503 7.4611ZM22.8417 8.21252L22.9714 7.91998L22.9711 7.91988L22.8417 8.21252ZM27.2103 10.3049L27.0008 10.5468L27.2143 10.7316L27.4242 10.5428L27.2103 10.3049ZM29.0589 9.24797L29.2196 9.52469L29.7585 9.21171L29.1902 8.95612L29.0589 9.24797ZM26.0756 8.32279L26.2871 8.08259L26.2869 8.08246L26.0756 8.32279ZM24.4213 6.54072L24.3021 6.8377L24.3029 6.838L24.4213 6.54072ZM21.7405 5.76867L21.6192 6.06478L21.6199 6.06506L21.7405 5.76867ZM19.6602 4.79274L19.6305 5.11136L19.6308 5.11139L19.6602 4.79274ZM15.319 6.78272L15.0276 6.65053L15.0276 6.65062L15.319 6.78272ZM13.9177 10.4651L13.6417 10.3032L13.6415 10.3035L13.9177 10.4651ZM13.2517 11.641L12.9317 11.6468L12.9318 11.6476L13.2517 11.641ZM13.8529 12.3496L14.1515 12.2345L14.1509 12.2329L13.8529 12.3496ZM13.8438 13.2208L14.1637 13.215L14.1637 13.2147L13.8438 13.2208ZM14.0922 14.9085L14.3166 14.6803L14.3163 14.6801L14.0922 14.9085ZM16.2937 15.5766L16.2451 15.8928L16.2454 15.8929L16.2937 15.5766ZM18.5972 16.2145L18.5005 16.5196L18.5014 16.5198L18.5972 16.2145ZM22.0293 17.8442L21.8834 18.129L21.8837 18.1292L22.0293 17.8442ZM26.2341 19.4296L26.1358 19.7341L26.136 19.7342L26.2341 19.4296ZM30.6797 20.8943L30.5704 21.195L30.5706 21.1951L30.6797 20.8943ZM33.4131 19.9318L33.151 19.7482L33.1506 19.7487L33.4131 19.9318ZM33.01 17.2277L32.7096 17.338L32.7096 17.338L33.01 17.2277ZM32.3264 13.8548L32.0065 13.8513L32.0065 13.8514L32.3264 13.8548ZM32.3127 9.40347L32.5178 9.15779L32.1076 9.64908L32.3127 9.40347ZM28.1034 5.90279L27.9726 6.19486L27.9727 6.19489L28.1034 5.90279ZM32.5413 10.9095L32.2218 10.9276L32.2709 11.7954L32.7963 11.1029L32.5413 10.9095ZM30.7552 9.18769L30.4377 9.14771L30.4018 9.4329L30.6815 9.49909L30.7552 9.18769ZM25.9484 9.36465L26.0461 9.05995L26.0456 9.05979L25.9484 9.36465ZM24.2057 7.92531L24.0301 8.19289L24.0306 8.19318L24.2057 7.92531ZM22.261 6.97078L22.3744 6.67157L22.3744 6.67156L22.261 6.97078ZM17.9503 5.77901L17.9799 6.09763L17.9799 6.09763L17.9503 5.77901ZM16.1054 7.65711L16.4003 7.78152L16.4006 7.78064L16.1054 7.65711ZM15.0554 9.79707L14.776 9.64101L14.7759 9.64127L15.0554 9.79707ZM13.6495 11.4459L13.5685 11.1363L13.5681 11.1364L13.6495 11.4459ZM12.1559 10.6746L12.3605 10.9207L12.3612 10.9201L12.1559 10.6746ZM14.5037 3.22329L14.3363 2.95058L14.0357 3.13512L14.2485 3.41638L14.5037 3.22329ZM16.5253 2.19578L16.5081 1.87624L16.5076 1.87627L16.5253 2.19578ZM17.7301 2.52824L17.7852 2.21302L17.7845 2.21291L17.7301 2.52824ZM21.0471 3.23123L20.9065 3.51871L20.9066 3.51876L21.0471 3.23123ZM14.7811 16.4859L14.9638 16.7486L14.9638 16.7485L14.7811 16.4859ZM10.2715 18.2878L10.3483 18.5984L10.3484 18.5984L10.2715 18.2878ZM6.16115 19.032L6.26776 18.7303L6.26755 18.7302L6.16115 19.032ZM4.4024 15.5885L4.716 15.6522L4.71603 15.652L4.4024 15.5885ZM7.32092 12.6535L7.44905 12.9467L7.4491 12.9467L7.32092 12.6535ZM10.0398 11.6497L9.8889 11.3675L9.88884 11.3676L10.0398 11.6497ZM11.8519 10.1462L12.0105 10.4241L12.0107 10.4239L11.8519 10.1462ZM16.0498 11.1618L16.0283 11.481L16.0284 11.4811L16.0498 11.1618ZM19.0773 10.9373L19.1349 11.252L19.135 11.252L19.0773 10.9373ZM20.2919 11.8846L19.9896 11.7797L19.9896 11.7799L20.2919 11.8846ZM18.5645 14.3554L18.3861 14.0897L18.3861 14.0898L18.5645 14.3554ZM17.0595 14.8601L16.9209 14.5716L16.9207 14.5717L17.0595 14.8601ZM8.63388 13.7096L8.67184 14.0273L8.67206 14.0273L8.63388 13.7096ZM6.34479 16.4089L6.63149 16.2668L6.63133 16.2665L6.34479 16.4089ZM9.2313 16.7596L9.38601 17.0397L9.38614 17.0397L9.2313 16.7596ZM10.6814 14.3285L10.8375 14.0491L10.3563 13.7803L10.3614 14.3315L10.6814 14.3285ZM12.2694 14.6951L11.9934 14.857L12.2216 15.246L12.5135 14.9021L12.2694 14.6951ZM13.43 13.6533L13.528 13.9579L13.5283 13.9578L13.43 13.6533ZM16.0742 12.8059L15.8773 12.5536L15.8772 12.5537L16.0742 12.8059ZM18.4303 11.2689L18.4823 11.5847L18.3786 10.9531L18.4303 11.2689ZM17.2355 13.7453L17.4453 13.9869L17.8227 13.6593L17.3672 13.4537L17.2355 13.7453ZM14.7597 14.972L14.9463 15.2319L14.9468 15.2316L14.7597 14.972ZM11.765 16.4343L11.7334 16.1159L11.7333 16.1159L11.765 16.4343ZM8.71389 17.1032L8.90007 17.3635L8.90063 17.3631L8.71389 17.1032ZM7.51829 17.7118L7.79065 17.5438L7.65724 17.3275L7.41635 17.4084L7.51829 17.7118ZM6.03922 17.0762L6.32103 16.9246L6.32087 16.9243L6.03922 17.0762ZM4.70645 15.2441L4.62951 14.9335L4.05574 15.0757L4.48843 15.4784L4.70645 15.2441ZM6.5452 13.7207L6.33125 13.4828L6.33087 13.4831L6.5452 13.7207ZM9.16729 12.448L9.06702 12.1441L9.06634 12.1444L9.16729 12.448ZM11.3147 11.4205L11.4946 11.6851L11.4946 11.6851L11.3147 11.4205ZM23.721 12.5694L23.8747 12.2887L23.8712 12.2868L23.721 12.5694ZM23.9389 12.6781L23.8066 12.9694L23.8073 12.9697L23.9389 12.6781ZM28.2093 15.0124L28.3548 14.7274L28.3545 14.7273L28.2093 15.0124ZM30.9358 16.1661L30.8918 16.483L30.8924 16.4831L30.9358 16.1661ZM32.597 16.5747L32.3464 16.7738L32.3468 16.7742L32.597 16.5747ZM32.4217 20.1103L32.7127 20.2434L32.7127 20.2433L32.4217 20.1103ZM31.2413 22.6494L31.2814 22.3319L31.2803 22.3318L31.2413 22.6494ZM30.1684 21.5139L30.3339 21.24L30.3331 21.2396L30.1684 21.5139ZM26.1229 19.4407L26.3707 19.2382L26.3705 19.238L26.1229 19.4407ZM23.8894 16.8667L24.1023 16.6278L24.1023 16.6278L23.8894 16.8667ZM20.8764 15.5988L20.7316 15.8842L20.7316 15.8842L20.8764 15.5988ZM18.9036 12.9534L18.7055 12.702L18.489 12.8726L18.6256 13.112L18.9036 12.9534ZM20.0786 12.3393L20.2965 12.5736L20.2973 12.5728L20.0786 12.3393ZM20.5381 11.1507L20.5017 10.8328L20.286 10.8575L20.2292 11.067L20.5381 11.1507ZM28.2146 20.3238L28.4017 20.0642L28.4015 20.064L28.2146 20.3238ZM30.7948 22.0844L30.985 21.8271L30.9846 21.8268L30.7948 22.0844ZM31.6056 21.9392L31.8696 22.1201L31.8702 22.1191L31.6056 21.9392ZM32.3661 17.9101L32.6841 17.875L32.0467 17.8899L32.3661 17.9101ZM31.6399 21.2101L31.3232 21.256L31.9598 21.2054L31.6399 21.2101ZM30.0351 17.9133L29.8498 18.1742L29.8501 18.1744L30.0351 17.9133ZM28.665 17.5967L28.6098 17.9119L28.6108 17.9121L28.665 17.5967ZM27.5517 17.4404L27.2595 17.5709L27.3813 17.8435L27.6617 17.7409L27.5517 17.4404ZM25.4333 14.691L25.3602 15.0026L25.3605 15.0027L25.4333 14.691ZM23.6075 14.5974L23.5279 14.9074L23.5288 14.9076L23.6075 14.5974ZM21.8373 13.2835L22.0934 13.0916L22.0923 13.0901L21.8373 13.2835ZM20.9023 12.1322L21.2223 12.1433V12.1322H20.9023ZM19.9452 13.3684L19.6978 13.1654L19.5096 13.3949L19.7242 13.5998L19.9452 13.3684ZM21.134 15.0322L20.9202 15.2703L20.9204 15.2705L21.134 15.0322ZM24.4183 16.6985L24.2593 16.9762L24.2597 16.9764L24.4183 16.6985ZM15.7823 18.0212L15.846 18.3348L15.8462 18.3348L15.7823 18.0212ZM13.3965 14.599L13.2404 14.3197L13.2393 14.3203L13.3965 14.599ZM14.9815 14.3538L15.0755 14.6597L15.0757 14.6597L14.9815 14.3538ZM16.744 13.5168L16.9068 13.7923L16.9074 13.7919L16.744 13.5168ZM19.3059 13.2335L19.1151 13.4904L19.1159 13.491L19.3059 13.2335ZM21.2048 15.6178L21.235 15.9364L21.5213 15.9093L21.5248 15.6217L21.2048 15.6178ZM13.6853 16.1065L13.8475 15.8307L13.4168 15.5773L13.3669 16.0745L13.6853 16.1065ZM14.1173 16.0439L14.4095 16.1745L13.9108 15.7995L14.1173 16.0439ZM18.9584 16.9731L18.651 17.0619L18.6511 17.0622L18.9584 16.9731ZM20.2447 15.1592L20.319 15.4705L20.3192 15.4704L20.2447 15.1592ZM22.2389 13.7366L22.0361 13.489L22.0358 13.4893L22.2389 13.7366ZM25.4744 15.4028L25.7913 15.3584L25.7913 15.3583L25.4744 15.4028ZM22.3829 19.2479L22.2527 18.9556L22.2523 18.9558L22.3829 19.2479ZM19.9056 17.8329L20.0039 17.5284L19.5224 17.373L19.5883 17.8746L19.9056 17.8329ZM20.3133 17.6792L20.627 17.7421L20.0587 17.4853L20.3133 17.6792ZM30.7155 21.0926L30.4041 21.1662L30.4042 21.1665L30.7155 21.0926ZM30.1829 24.8441L29.9501 24.6245L29.95 24.6247L30.1829 24.8441ZM27.8252 26.393L27.8057 26.0736L27.3852 26.0992L27.5228 26.4974L27.8252 26.393ZM27.0952 26.946L27.0035 27.2525L27.0042 27.2527L27.0952 26.946ZM25.3052 25.5185L25.5106 25.2732L25.5099 25.2726L25.3052 25.5185ZM23.7644 23.9086L24.0392 23.7446L24.0391 23.7445L23.7644 23.9086ZM21.8609 20.6285L21.6573 20.3817L21.4428 20.5586L21.5881 20.7957L21.8609 20.6285ZM23.3834 18.6869L23.1141 18.5142L23.1135 18.5151L23.3834 18.6869ZM24.3558 16.9302L24.5819 17.1566L24.5824 17.1562L24.3558 16.9302ZM26.0299 16.6604L26.0135 16.98L26.0142 16.98L26.0299 16.6604ZM30.2126 19.6161L30.5035 19.4827L30.5035 19.4826L30.2126 19.6161ZM27.778 22.4114L27.4714 22.3196L27.4713 22.32L27.778 22.4114ZM27.2377 22.486L27.0351 22.2383L27.0345 22.2388L27.2377 22.486ZM27.0937 23.4849L26.8376 23.6768L27.2021 24.163L27.3968 23.5874L27.0937 23.4849ZM26.9146 22.1448L27.2277 22.2111L27.279 21.9687L27.0572 21.8583L26.9146 22.1448ZM26.7188 22.6296L27.0161 22.7479L27.0871 22.5694L26.963 22.4228L26.7188 22.6296ZM26.6052 22.8041L26.4355 23.0754L26.6706 23.2225L26.8496 23.0107L26.6052 22.8041ZM26.2684 22.432L26.5766 22.3459L26.3606 21.5729L25.9855 22.2825L26.2684 22.432ZM26.1877 23.1199L25.8833 23.0211L25.7898 23.3088L26.0719 23.4183L26.1877 23.1199ZM26.9977 23.0057L27.2801 22.8551L27.2796 22.8542L26.9977 23.0057ZM26.4864 24.1601L26.5108 24.4792L26.7292 24.4625L26.7927 24.2528L26.4864 24.1601ZM25.9705 24.418L25.6613 24.5004L25.7654 24.8914L26.1219 24.7L25.9705 24.418ZM25.7876 23.8301L26.0894 23.7237L25.8176 22.9523L25.4937 23.7034L25.7876 23.8301ZM26.1488 25.6852L26.4329 25.5379L26.4328 25.5377L26.1488 25.6852ZM27.4709 26.5579L27.2279 26.3498L27.2268 26.351L27.4709 26.5579ZM27.6926 26.0399L27.5435 25.7567L27.5432 25.7569L27.6926 26.0399ZM28.492 25.8621L28.3897 25.5589L28.3867 25.5599L28.492 25.8621ZM29.4567 24.8965L29.1469 24.8162L29.1468 24.8166L29.4567 24.8965ZM30.2187 23.4675L29.9054 23.4025L29.9053 23.4031L30.2187 23.4675ZM28.956 21.072L29.1393 20.8097L29.1393 20.8096L28.956 21.072ZM27.9403 20.8332L28.084 21.1191L28.0841 21.119L27.9403 20.8332ZM22.6428 20.281L22.8956 20.4771L22.8959 20.4767L22.6428 20.281ZM23.308 19.5232L23.0538 19.3287L23.0494 19.3347L23.308 19.5232ZM24.56 17.4182L24.7081 17.7018L24.7081 17.7018L24.56 17.4182ZM26.6136 17.8165L26.6566 18.1336L27.6578 17.9977L26.761 17.5324L26.6136 17.8165ZM25.4622 18.8678L25.3407 19.1639L26.2563 19.5396L25.734 18.699L25.4622 18.8678ZM23.1472 21.3601L22.8323 21.4169L23.4622 21.3035L23.1472 21.3601ZM23.0832 20.4444L23.4013 20.4095L22.7646 20.4745L23.0832 20.4444ZM22.5696 21.1934L22.5463 21.5126L22.5535 21.513L22.5696 21.1934ZM23.1533 18.7925L23.0336 19.0892C25.3386 20.0193 27.7374 20.8537 29.9633 21.8543L30.0945 21.5624L30.2257 21.2706C27.9893 20.2653 25.534 19.408 23.2731 18.4957L23.1533 18.7925ZM30.0945 21.5624L29.9628 21.8541C30.1024 21.9171 30.2271 22.0031 30.357 22.1042C30.4753 22.1963 30.6277 22.3264 30.7691 22.4241C30.9208 22.5291 31.0993 22.6274 31.3162 22.6713C31.5365 22.7159 31.7725 22.6997 32.0331 22.6125L31.9317 22.309L31.8303 22.0055C31.6612 22.062 31.5394 22.0635 31.4432 22.044C31.3434 22.0238 31.2465 21.9762 31.1332 21.8978C31.0094 21.8122 30.9071 21.7213 30.7501 21.5992C30.6048 21.486 30.4337 21.3644 30.2262 21.2708L30.0945 21.5624ZM31.9317 22.309L32.0326 22.6127C32.4218 22.4835 32.749 22.2085 33.0202 21.9531C33.313 21.6773 33.5298 21.4382 33.7623 21.2655L33.5716 21.0086L33.3808 20.7517C33.1089 20.9535 32.8236 21.2591 32.5814 21.4872C32.3176 21.7356 32.0772 21.9235 31.8309 22.0054L31.9317 22.309ZM33.5716 21.0086L33.7624 21.2654C33.9851 21.1 34.1951 20.9518 34.3305 20.7349C34.472 20.5083 34.5161 20.2398 34.5401 19.8793L34.2208 19.8581L33.9015 19.8368C33.8783 20.1865 33.8386 20.3143 33.7876 20.396C33.7306 20.4873 33.6397 20.5593 33.3807 20.7517L33.5716 21.0086ZM34.2208 19.8581L34.5401 19.8793C34.6205 18.6718 34.3245 17.3966 33.8532 16.3231L33.5602 16.4518L33.2672 16.5804C33.7072 17.5826 33.9736 18.7544 33.9015 19.8368L34.2208 19.8581ZM33.5602 16.4518L33.8533 16.3234C33.6956 15.9635 33.4477 15.6044 33.262 15.2981C33.0647 14.9724 32.9177 14.6791 32.8758 14.3773L32.5589 14.4213L32.2419 14.4653C32.3029 14.9046 32.5103 15.2925 32.7147 15.6298C32.9308 15.9863 33.132 16.2719 33.267 16.5801L33.5602 16.4518ZM32.5589 14.4213L32.8758 14.3772C32.7623 13.5627 33.1014 12.8274 33.4779 11.9558C33.8417 11.1133 34.2289 10.1588 33.9848 9.04313L33.6722 9.11155L33.3596 9.17996C33.5551 10.0733 33.2572 10.8525 32.8903 11.7021C32.536 12.5225 32.0986 13.4375 32.2419 14.4655L32.5589 14.4213ZM33.6722 9.11155L33.9848 9.04335C33.7981 8.1872 33.4946 7.52971 33.0673 6.95985C32.6436 6.39473 32.1072 5.92843 31.4762 5.44558L31.2817 5.69971L31.0873 5.95384C31.7037 6.42552 32.1846 6.84946 32.5553 7.34379C32.9224 7.83339 33.1904 8.40455 33.3595 9.17975L33.6722 9.11155ZM31.2817 5.69971L31.4762 5.44558C27.7321 2.58054 23.6043 1.50338 19.1645 0.636833L19.1032 0.950907L19.0419 1.26498C23.4644 2.12816 27.4673 3.18377 31.0873 5.95384L31.2817 5.69971ZM19.1032 0.950907L19.1646 0.636853C18.1381 0.436159 17.1922 0.517241 16.3333 0.90888C15.4771 1.29932 14.7341 1.98612 14.0897 2.95211L14.3559 3.12971L14.6221 3.3073C15.2189 2.41265 15.8777 1.82002 16.5988 1.4912C17.3173 1.16358 18.1244 1.08559 19.0418 1.26496L19.1032 0.950907ZM14.3559 3.12971L14.0896 2.95215C13.8161 3.36225 13.6779 3.72564 13.632 4.07008C13.5862 4.41311 13.6355 4.7131 13.6996 4.98365C13.8294 5.53202 14 5.93942 13.846 6.57487L14.157 6.65026L14.468 6.72566C14.6675 5.90275 14.4335 5.30563 14.3223 4.83619C14.2659 4.59783 14.2356 4.3856 14.2664 4.1547C14.297 3.92519 14.3915 3.65292 14.6221 3.30727L14.3559 3.12971ZM14.157 6.65026L13.846 6.57498C13.673 7.28943 13.2024 7.75592 12.6353 8.23831C12.0904 8.70184 11.4173 9.20338 11.0678 9.95591L11.3581 10.0907L11.6483 10.2254C11.9237 9.63228 12.4511 9.23523 13.05 8.72579C13.6267 8.23521 14.2432 7.65435 14.468 6.72555L14.157 6.65026ZM11.3581 10.0907L11.0677 9.95616C10.9444 10.2223 10.9097 10.4759 10.9513 10.7177C10.9921 10.9542 11.1015 11.1536 11.2237 11.3217C11.344 11.4871 11.4906 11.64 11.6163 11.7731C11.7485 11.9129 11.8605 12.0337 11.9462 12.1574L12.2093 11.9751L12.4723 11.7928C12.3546 11.623 12.2089 11.4683 12.0814 11.3335C11.9475 11.1918 11.8324 11.0706 11.7413 10.9453C11.6521 10.8225 11.6002 10.7144 11.582 10.6091C11.5648 10.5091 11.5736 10.3867 11.6484 10.2252L11.3581 10.0907ZM12.2093 11.9751L11.9464 12.1576C12.1706 12.4807 12.2622 12.8106 12.3506 13.1854C12.4368 13.5507 12.5227 13.9794 12.7599 14.3982L13.0383 14.2404L13.3167 14.0827C13.1341 13.7603 13.0665 13.4325 12.9735 13.0385C12.8829 12.6539 12.7699 12.2218 12.4722 11.7927L12.2093 11.9751ZM13.0383 14.2404L12.7598 14.398C13.2457 15.2569 14.0174 15.726 14.8322 16.0371C15.2387 16.1924 15.6633 16.3111 16.0754 16.4185C16.4932 16.5274 16.8905 16.6229 17.2696 16.7362L17.3612 16.4296L17.4529 16.123C17.0593 16.0054 16.6386 15.9039 16.2368 15.7992C15.8294 15.693 15.4328 15.5814 15.0605 15.4392C14.3175 15.1555 13.7004 14.7608 13.3168 14.0829L13.0383 14.2404ZM17.3612 16.4296L17.2698 16.7362C18.2325 17.0233 19.1889 17.4147 20.1498 17.8343C21.1043 18.2513 22.0738 18.701 23.0333 19.0891L23.1533 18.7925L23.2733 18.4958C22.324 18.1118 21.3793 17.673 20.4059 17.2478C19.4389 16.8255 18.4537 16.4214 17.4527 16.1229L17.3612 16.4296ZM31.3655 13.389L31.0576 13.302C31.0158 13.45 30.9926 13.606 30.9945 13.765L31.3145 13.7611L31.6345 13.7572C31.6333 13.6655 31.6467 13.5708 31.6735 13.476L31.3655 13.389ZM31.3145 13.7611L30.9945 13.7643C30.997 14.0123 31.0413 14.2162 31.0863 14.3813C31.1368 14.5667 31.1681 14.6459 31.1815 14.7351C31.1903 14.7936 31.1816 14.803 31.1733 14.8147C31.1505 14.8468 31.0803 14.9149 30.8756 15.014L31.015 15.302L31.1545 15.59C31.3898 15.4761 31.5781 15.3503 31.6953 15.185C31.8269 14.9995 31.8397 14.8081 31.8144 14.6399C31.7937 14.5024 31.7353 14.3288 31.7037 14.2129C31.6666 14.0767 31.6362 13.9309 31.6345 13.7579L31.3145 13.7611ZM31.015 15.302L30.8759 15.0138C30.2527 15.3147 29.6301 14.9964 28.8922 14.378C28.7151 14.2296 28.5396 14.0712 28.3625 13.9105C28.187 13.7513 28.0087 13.5887 27.8328 13.439C27.4885 13.1458 27.1146 12.8669 26.7274 12.7469L26.6327 13.0526L26.538 13.3582C26.7897 13.4362 27.0776 13.6366 27.418 13.9263C27.5844 14.068 27.7542 14.2228 27.9324 14.3845C28.1091 14.5447 28.2931 14.711 28.4812 14.8686C29.2041 15.4744 30.1337 16.0828 31.1541 15.5902L31.015 15.302ZM26.6327 13.0526L26.7274 12.7469C25.9763 12.514 25.4795 12.7932 25.1229 12.9422C24.943 13.0173 24.81 13.0572 24.6694 13.0503C24.5335 13.0436 24.3504 12.9904 24.0879 12.7978L23.8986 13.0558L23.7093 13.3138C24.0426 13.5583 24.3438 13.6751 24.638 13.6895C24.9274 13.7037 25.1703 13.6159 25.3695 13.5327C25.7711 13.3651 26.0454 13.2055 26.5379 13.3582L26.6327 13.0526ZM23.8986 13.0558L24.088 12.7978C23.9123 12.6689 23.7678 12.4783 23.6377 12.234C23.5068 11.9884 23.4012 11.7098 23.2904 11.4136C23.183 11.1263 23.0689 10.8172 22.9266 10.5495C22.784 10.2814 22.596 10.0206 22.3201 9.85344L22.1543 10.1271L21.9885 10.4008C22.1226 10.4821 22.2432 10.6275 22.3615 10.85C22.4801 11.0731 22.5793 11.339 22.691 11.6378C22.7994 11.9276 22.9189 12.246 23.0728 12.5349C23.2274 12.8251 23.4272 13.1066 23.7092 13.3137L23.8986 13.0558ZM22.1543 10.1271L22.3206 9.85375C21.9969 9.65681 21.5987 9.67179 21.2471 9.73395C20.8865 9.7977 20.4925 9.92785 20.1353 10.0429C19.7643 10.1625 19.4335 10.2656 19.156 10.3029C18.8689 10.3415 18.7367 10.2957 18.6736 10.2346L18.4509 10.4643L18.2282 10.6941C18.5118 10.969 18.9062 10.9823 19.2413 10.9372C19.586 10.8909 19.9732 10.7676 20.3316 10.6521C20.7039 10.5321 21.0508 10.4186 21.3585 10.3642C21.6753 10.3082 21.8728 10.3305 21.988 10.4005L22.1543 10.1271ZM18.4509 10.4643L18.6735 10.2344C18.6437 10.2056 18.5893 10.0957 18.6014 9.82849C18.6126 9.58252 18.6771 9.27929 18.7764 8.96971C18.8751 8.66203 19.0032 8.36344 19.1316 8.12917C19.1959 8.01192 19.2576 7.91577 19.3124 7.84443C19.3397 7.80893 19.3634 7.78218 19.3827 7.76305C19.3923 7.75362 19.4 7.74684 19.4058 7.74218C19.4116 7.73746 19.4145 7.73573 19.4144 7.73581L19.2503 7.4611L19.0862 7.18639C18.976 7.25222 18.8816 7.35475 18.8051 7.45426C18.7245 7.55901 18.6454 7.68486 18.5704 7.82149C18.4205 8.09495 18.2769 8.43158 18.167 8.77424C18.0577 9.115 17.9767 9.47724 17.9621 9.7995C17.9485 10.1005 17.988 10.4617 18.2284 10.6943L18.4509 10.4643ZM19.2503 7.4611L19.4138 7.73618C19.7634 7.52835 20.3035 7.56833 20.9574 7.77322C21.5954 7.97311 22.2232 8.28884 22.7122 8.50516L22.8417 8.21252L22.9711 7.91988C22.5221 7.72123 21.8327 7.37679 21.1488 7.16249C20.4808 6.95319 19.6942 6.82495 19.0868 7.18603L19.2503 7.4611ZM22.8417 8.21252L22.7119 8.50506C23.0445 8.65248 23.4198 8.79997 23.8059 8.95051C24.1943 9.10196 24.5951 9.25701 24.9883 9.42268C25.7811 9.75669 26.5077 10.1197 27.0008 10.5468L27.2103 10.3049L27.4198 10.063C26.8445 9.56484 26.0364 9.16974 25.2368 8.83288C24.8338 8.66311 24.4239 8.50454 24.0384 8.35423C23.6505 8.203 23.2885 8.06058 22.9714 7.91998L22.8417 8.21252ZM27.2103 10.3049L27.4242 10.5428C27.6629 10.3283 27.941 10.1684 28.2508 10.0136C28.5478 9.86514 28.902 9.70916 29.2196 9.52469L29.0589 9.24797L28.8982 8.97125C28.6024 9.14304 28.3032 9.27192 27.9647 9.44108C27.6389 9.60388 27.2995 9.79431 26.9963 10.0669L27.2103 10.3049ZM29.0589 9.24797L29.1902 8.95612C28.7359 8.75185 28.097 8.65587 27.5679 8.54933C27.2904 8.49347 27.0322 8.43386 26.8069 8.35619C26.5802 8.278 26.4069 8.18806 26.2871 8.08259L26.0756 8.32279L25.8642 8.56299C26.072 8.74594 26.3327 8.86964 26.5983 8.96123C26.8654 9.05334 27.1579 9.11964 27.4415 9.17675C28.0346 9.29615 28.5597 9.37434 28.9277 9.53982L29.0589 9.24797ZM26.0756 8.32279L26.2869 8.08246C26.0043 7.83398 25.934 7.59519 25.7231 7.2296C25.5119 6.8635 25.2137 6.51191 24.5397 6.24344L24.4213 6.54072L24.3029 6.838C24.826 7.0464 25.0197 7.29108 25.1687 7.54941C25.3181 7.80826 25.4764 8.22206 25.8643 8.56312L26.0756 8.32279ZM24.4213 6.54072L24.5405 6.24374C24.0851 6.06099 23.597 5.94688 23.1415 5.8399C22.6765 5.73067 22.2461 5.62898 21.8612 5.47229L21.7405 5.76867L21.6199 6.06506C22.0595 6.244 22.5405 6.35615 22.9952 6.46295C23.4595 6.57199 23.8994 6.67609 24.3021 6.83769L24.4213 6.54072ZM21.7405 5.76867L21.8619 5.47256C21.5505 5.345 21.2624 5.14396 20.895 4.92716C20.5489 4.72291 20.147 4.51631 19.6896 4.4741L19.6602 4.79274L19.6308 5.11139C19.9385 5.13979 20.2369 5.2819 20.5698 5.47834C20.8813 5.66222 21.2508 5.91384 21.6192 6.06478L21.7405 5.76867ZM19.6602 4.79274L19.6899 4.47412C18.8496 4.39581 17.869 4.55638 17.014 4.91715C16.1638 5.2759 15.3888 5.85434 15.0276 6.65053L15.319 6.78272L15.6105 6.9149C15.8795 6.32176 16.4917 5.83221 17.2628 5.50681C18.0292 5.18343 18.9042 5.04367 19.6305 5.11136L19.6602 4.79274ZM15.319 6.78272L15.0276 6.65062C14.7454 7.27328 14.5571 7.93048 14.3632 8.54486C14.1663 9.16869 13.9608 9.75935 13.6417 10.3032L13.9177 10.4651L14.1937 10.6271C14.552 10.0164 14.7751 9.36613 14.9735 8.73749C15.1749 8.09942 15.3486 7.49265 15.6105 6.91481L15.319 6.78272ZM13.9177 10.4651L13.6415 10.3035C13.5939 10.3848 13.5336 10.4657 13.462 10.5556C13.3954 10.639 13.3086 10.7426 13.2356 10.8406C13.0858 11.042 12.9256 11.3064 12.9317 11.6468L13.2517 11.641L13.5716 11.6352C13.5694 11.5122 13.6233 11.3918 13.7491 11.2226C13.814 11.1355 13.8804 11.0573 13.9623 10.9546C14.0391 10.8583 14.1226 10.7486 14.1939 10.6268L13.9177 10.4651ZM13.2517 11.641L12.9318 11.6476C12.9352 11.8165 13.0186 11.9472 13.0875 12.0313C13.158 12.1174 13.2453 12.1928 13.3149 12.2511C13.3935 12.3169 13.4507 12.3619 13.5014 12.4099C13.5546 12.4603 13.5592 12.4771 13.5549 12.4662L13.8529 12.3496L14.1509 12.2329C14.1013 12.1062 14.0088 12.009 13.9415 11.9453C13.8718 11.8792 13.7854 11.8103 13.7257 11.7603C13.657 11.7028 13.6113 11.6608 13.5827 11.6259C13.5526 11.5891 13.5708 11.5953 13.5716 11.6344L13.2517 11.641ZM13.8529 12.3496L13.5543 12.4647C13.5924 12.5634 13.6034 12.6184 13.6064 12.6489C13.6088 12.6735 13.6071 12.6902 13.6004 12.7181C13.5831 12.7898 13.5186 12.9542 13.5238 13.2269L13.8438 13.2208L14.1637 13.2147C14.1605 13.0494 14.189 13.0076 14.2226 12.8678C14.2413 12.7899 14.2545 12.6996 14.2434 12.5863C14.2328 12.4789 14.2018 12.3651 14.1515 12.2345L13.8529 12.3496ZM13.8438 13.2208L13.5238 13.2266C13.5264 13.3663 13.5099 13.4974 13.4882 13.637C13.4677 13.7683 13.4385 13.9281 13.4306 14.0823C13.4223 14.2451 13.4357 14.4214 13.5055 14.6068C13.5752 14.7916 13.6937 14.9658 13.8681 15.1369L14.0922 14.9085L14.3163 14.6801C14.1943 14.5604 14.135 14.4622 14.1044 14.3811C14.074 14.3005 14.0646 14.2172 14.0698 14.1149C14.0755 14.0038 14.0961 13.8927 14.1206 13.7354C14.1437 13.5865 14.1673 13.4114 14.1637 13.215L13.8438 13.2208ZM14.0922 14.9085L13.8678 15.1366C14.2053 15.4685 14.6457 15.6252 15.0611 15.7161C15.4627 15.804 15.9225 15.8433 16.2451 15.8928L16.2937 15.5766L16.3423 15.2603C15.947 15.1995 15.5804 15.1746 15.1979 15.0909C14.8291 15.0102 14.5277 14.888 14.3166 14.6803L14.0922 14.9085ZM16.2937 15.5766L16.2454 15.8929C17.0354 16.0133 17.6895 16.2625 18.5005 16.5195L18.5972 16.2145L18.6939 15.9095C17.923 15.6651 17.1964 15.3905 16.3419 15.2602L16.2937 15.5766ZM18.5972 16.2145L18.5014 16.5198C19.696 16.8946 20.7169 17.531 21.8834 18.129L22.0293 17.8442L22.1753 17.5595C21.0695 16.9926 19.9567 16.3057 18.693 15.9092L18.5972 16.2145ZM22.0293 17.8442L21.8837 18.1292C23.1848 18.794 24.7686 19.2924 26.1358 19.7341L26.2341 19.4296L26.3325 19.1251C24.9488 18.6781 23.4205 18.1957 22.1749 17.5593L22.0293 17.8442ZM26.2341 19.4296L26.136 19.7342C27.6382 20.2181 29.0987 20.6597 30.5704 21.195L30.6797 20.8943L30.7891 20.5935C29.3026 20.0529 27.8202 19.6043 26.3323 19.125L26.2341 19.4296ZM30.6797 20.8943L30.5706 21.1951C31.1852 21.4181 31.7563 21.4682 32.292 21.2814C32.8239 21.0961 33.2712 20.6945 33.6755 20.1149L33.4131 19.9318L33.1506 19.7487C32.7899 20.2657 32.4402 20.552 32.0814 20.6771C31.7265 20.8008 31.3135 20.7838 30.7889 20.5934L30.6797 20.8943ZM33.4131 19.9318L33.6752 20.1154C34.0611 19.5645 34.0233 18.9952 33.8705 18.4883C33.7954 18.239 33.6897 17.9946 33.5884 17.7681C33.4843 17.5353 33.3865 17.3248 33.3104 17.1175L33.01 17.2277L32.7096 17.338C32.7954 17.5719 32.906 17.8099 33.0042 18.0294C33.1051 18.2551 33.1956 18.4666 33.2578 18.673C33.3797 19.0777 33.3815 19.4192 33.151 19.7482L33.4131 19.9318ZM33.01 17.2277L33.3104 17.1175C32.9224 16.0603 32.6348 14.95 32.6464 13.8582L32.3264 13.8548L32.0065 13.8514C31.9937 15.0542 32.3096 16.248 32.7096 17.338L33.01 17.2277ZM32.3264 13.8548L32.6464 13.8582C32.6508 13.4521 32.7535 13.0798 32.8903 12.7122C32.9592 12.527 33.0343 12.3494 33.1099 12.1656C33.1843 11.9851 33.2588 11.7995 33.3188 11.6134C33.4392 11.2402 33.5109 10.8362 33.4008 10.4072C33.2903 9.97688 33.0094 9.56842 32.5179 9.15787L32.3127 9.40347L32.1076 9.64908C32.5323 10.0038 32.7138 10.3051 32.7809 10.5663C32.8482 10.8287 32.8125 11.098 32.7097 11.417C32.6581 11.577 32.5921 11.7422 32.5181 11.9219C32.4455 12.0984 32.3644 12.2905 32.2905 12.489C32.1416 12.8888 32.012 13.3402 32.0065 13.8513L32.3264 13.8548ZM32.3127 9.40347L32.1077 9.64915C32.4937 9.97129 32.61 10.24 32.6241 10.4604C32.6391 10.6946 32.5446 10.9499 32.3545 11.2536C32.1607 11.5633 31.9148 11.8553 31.6576 12.2026C31.4144 12.5313 31.1686 12.9016 31.0572 13.3035L31.3655 13.389L31.6739 13.4745C31.7514 13.1948 31.9336 12.9056 32.172 12.5834C32.3967 12.2799 32.6864 11.9298 32.8971 11.593C33.1116 11.2502 33.2906 10.8544 33.2628 10.4197C33.2342 9.97127 32.9917 9.55333 32.5178 9.15779L32.3127 9.40347ZM28.1034 5.90279L27.9727 6.19489C28.6567 6.50089 30.2063 7.09063 31.3603 7.92219C31.938 8.33842 32.3718 8.78531 32.5596 9.24592C32.735 9.676 32.7119 10.1551 32.2864 10.7161L32.5413 10.9095L32.7963 11.1029C33.3461 10.3781 33.4205 9.66202 33.1522 9.00425C32.8965 8.37701 32.3456 7.84334 31.7345 7.40294C30.5108 6.52124 28.866 5.89343 28.234 5.61069L28.1034 5.90279ZM32.5413 10.9095L32.8608 10.8914C32.7903 9.64529 31.7552 9.0955 30.8289 8.8763L30.7552 9.18769L30.6815 9.49909C31.5322 9.70042 32.1765 10.1266 32.2218 10.9276L32.5413 10.9095ZM30.7552 9.18769L31.0727 9.22768C31.1203 8.84979 31.0974 8.52495 30.9757 8.2677C30.8458 7.99295 30.6211 7.83295 30.3569 7.7662C30.1083 7.7034 29.8313 7.72366 29.5626 7.77716C29.2897 7.8315 28.9975 7.92604 28.7062 8.03639C28.1337 8.25328 27.4985 8.55892 27.0013 8.77067C26.7439 8.88028 26.5211 8.96629 26.3405 9.01661C26.2506 9.04167 26.1791 9.05559 26.1244 9.06064C26.0674 9.06591 26.0458 9.05983 26.0461 9.05995L25.9484 9.36465L25.8506 9.66936C26.0605 9.73667 26.307 9.69033 26.5123 9.63312C26.7349 9.57108 26.9893 9.4714 27.2521 9.3595C27.7951 9.12822 28.3716 8.84755 28.9329 8.63488C29.2086 8.53045 29.4637 8.4494 29.6876 8.40484C29.9156 8.35944 30.0846 8.3575 30.2002 8.38671C30.3001 8.41196 30.3578 8.45816 30.3972 8.54132C30.4448 8.64199 30.4781 8.82676 30.4377 9.14771L30.7552 9.18769ZM25.9484 9.36465L26.0456 9.05979C25.9833 9.03991 25.8812 8.98066 25.7381 8.86734C25.601 8.75881 25.451 8.62095 25.2936 8.47083C25.1412 8.32549 24.9751 8.16199 24.8259 8.02342C24.6769 7.885 24.5224 7.75006 24.3807 7.65744L24.2057 7.92531L24.0306 8.19318C24.1232 8.25369 24.2437 8.35609 24.3904 8.49234C24.5369 8.62843 24.6872 8.77691 24.8519 8.93398C25.0116 9.08627 25.1793 9.24125 25.3408 9.3691C25.4962 9.49216 25.6734 9.61282 25.8511 9.66952L25.9484 9.36465ZM24.2057 7.92531L24.3812 7.65773C23.7531 7.24581 23.0536 6.92911 22.3744 6.67157L22.261 6.97078L22.1475 7.26999C22.8034 7.51868 23.4557 7.81612 24.0301 8.19289L24.2057 7.92531ZM22.261 6.97078L22.3744 6.67156C21.7727 6.44347 20.999 6.09797 20.2515 5.84372C19.4929 5.58569 18.6797 5.38972 17.9206 5.46038L17.9503 5.77901L17.9799 6.09763C18.6016 6.03975 19.3105 6.19965 20.0454 6.44963C20.7915 6.7034 21.4829 7.01806 22.1476 7.27001L22.261 6.97078ZM17.9503 5.77901L17.9207 5.46038C17.2404 5.5236 16.8045 5.75572 16.4881 6.15774C16.2009 6.52264 16.0229 7.0253 15.8102 7.53359L16.1054 7.65711L16.4006 7.78064C16.6398 7.20903 16.7739 6.82938 16.991 6.55356C17.1788 6.31487 17.4394 6.14787 17.9799 6.09763L17.9503 5.77901ZM16.1054 7.65711L15.8106 7.5327C15.5146 8.23416 15.1481 8.97502 14.776 9.64101L15.0554 9.79707L15.3347 9.95313C15.7171 9.26867 16.0943 8.50669 16.4003 7.78152L16.1054 7.65711ZM15.0554 9.79707L14.7759 9.64127C14.6168 9.92663 14.4411 10.2709 14.2227 10.5744C13.9992 10.885 13.7794 11.0811 13.5685 11.1363L13.6495 11.4459L13.7304 11.7555C14.1687 11.6408 14.5006 11.2839 14.7422 10.9482C14.9888 10.6054 15.1914 10.2102 15.3349 9.95287L15.0554 9.79707ZM13.6495 11.4459L13.5681 11.1364C13.5955 11.1292 13.593 11.1367 13.534 11.128C13.4851 11.1209 13.4196 11.1061 13.3408 11.083C13.1837 11.0371 12.997 10.9655 12.8259 10.8844C12.6499 10.801 12.5134 10.7186 12.4418 10.6573C12.4006 10.622 12.4146 10.622 12.4291 10.6595C12.4389 10.6847 12.451 10.7336 12.4366 10.7944C12.4218 10.8572 12.3868 10.8988 12.3605 10.9207L12.1559 10.6746L11.9514 10.4286C11.8915 10.4783 11.8365 10.551 11.8137 10.6475C11.7914 10.7419 11.8077 10.8271 11.8323 10.8906C11.8765 11.0048 11.9628 11.0897 12.0255 11.1434C12.1618 11.2601 12.3588 11.3714 12.552 11.4628C12.75 11.5566 12.9682 11.6409 13.1613 11.6974C13.2576 11.7255 13.3536 11.7484 13.4413 11.7613C13.5188 11.7726 13.628 11.7824 13.7308 11.7553L13.6495 11.4459ZM12.1559 10.6746L12.3612 10.9201C13.3006 10.1347 14.358 8.81004 14.9594 7.37496C15.5584 5.94572 15.736 4.32154 14.7589 3.03019L14.5037 3.22329L14.2485 3.41638C15.024 4.44112 14.9307 5.78765 14.3691 7.12758C13.81 8.46167 12.8172 9.70464 11.9507 10.4291L12.1559 10.6746ZM14.5037 3.22329L14.6711 3.49599C14.9435 3.32874 15.2617 3.10477 15.6371 2.88693C15.8166 2.78277 15.9922 2.69076 16.1534 2.62361C16.3182 2.55499 16.4489 2.52052 16.543 2.51529L16.5253 2.19578L16.5076 1.87627C16.3088 1.88731 16.1008 1.95221 15.9073 2.03281C15.7103 2.11488 15.508 2.22192 15.3159 2.33338C14.9481 2.54677 14.5485 2.82029 14.3363 2.95058L14.5037 3.22329ZM16.5253 2.19578L16.5425 2.51532C16.7056 2.50655 16.8207 2.54435 16.9816 2.61276C17.145 2.68225 17.3667 2.7902 17.6756 2.84357L17.7301 2.52824L17.7845 2.21291C17.5653 2.17503 17.4208 2.10406 17.232 2.02378C17.0407 1.94242 16.8174 1.85962 16.5081 1.87624L16.5253 2.19578ZM17.7301 2.52824L17.6749 2.84346C18.3863 2.96783 18.9451 2.98971 19.3836 3.04707C19.8375 3.10644 20.2766 3.21072 20.9065 3.51871L21.0471 3.23123L21.1877 2.94375C20.4901 2.6027 19.9833 2.48006 19.4667 2.41248C18.9347 2.34289 18.4988 2.3378 17.7852 2.21302L17.7301 2.52824ZM21.0471 3.23123L20.9066 3.51876C22.0631 4.08366 23.2668 4.49831 24.4568 4.89775C25.6526 5.29912 26.8324 5.68446 27.9726 6.19486L28.1034 5.90279L28.2341 5.61071C27.0593 5.08486 25.8464 4.68906 24.6605 4.29102C23.4689 3.89105 22.3019 3.48804 21.1876 2.9437L21.0471 3.23123ZM14.7811 16.4859L14.5983 16.2231C13.296 17.129 11.78 17.5846 10.1945 17.9772L10.2715 18.2878L10.3484 18.5984C11.942 18.2038 13.5579 17.7264 14.9638 16.7486L14.7811 16.4859ZM10.2715 18.2878L10.1946 17.9772C9.86419 18.0589 9.51872 18.1782 9.17813 18.2982C8.83268 18.4199 8.49088 18.5429 8.14803 18.6424C7.45705 18.8428 6.82453 18.927 6.26776 18.7303L6.16115 19.032L6.05453 19.3337C6.8069 19.5996 7.60278 19.4669 8.32629 19.2571C8.69068 19.1514 9.05265 19.021 9.39084 18.9018C9.7339 18.7809 10.052 18.6718 10.3483 18.5984L10.2715 18.2878ZM6.16115 19.032L6.26755 18.7302C5.74614 18.5464 5.29751 18.0712 5.00623 17.467C4.71539 16.8638 4.60783 16.1848 4.716 15.6522L4.4024 15.5885L4.08881 15.5248C3.94704 16.2228 4.09209 17.0446 4.42973 17.745C4.76693 18.4444 5.32264 19.0757 6.05474 19.3338L6.16115 19.032ZM4.4024 15.5885L4.71603 15.652C4.75604 15.4545 4.8762 15.2099 5.07237 14.9357C5.26569 14.6655 5.51882 14.386 5.79971 14.1206C6.36622 13.5851 7.01268 13.1374 7.44905 12.9467L7.32092 12.6535L7.1928 12.3602C6.66675 12.5901 5.95948 13.0889 5.3601 13.6554C5.05805 13.9409 4.77521 14.2512 4.55189 14.5633C4.33143 14.8714 4.15431 15.2015 4.08878 15.5249L4.4024 15.5885ZM7.32092 12.6535L7.4491 12.9467C7.87111 12.7622 8.31587 12.6317 8.78755 12.4833C9.25096 12.3375 9.73493 12.1758 10.1908 11.9319L10.0398 11.6497L9.88884 11.3676C9.49045 11.5807 9.05695 11.7276 8.59546 11.8728C8.14224 12.0154 7.65467 12.1583 7.19275 12.3603L7.32092 12.6535ZM10.0398 11.6497L10.1907 11.9319C10.6034 11.7112 10.9192 11.3978 11.1947 11.121C11.4808 10.8335 11.7199 10.59 12.0105 10.4241L11.8519 10.1462L11.6932 9.86827C11.3125 10.0856 11.0106 10.3987 10.741 10.6695C10.4608 10.9512 10.2063 11.1978 9.8889 11.3675L10.0398 11.6497ZM11.8519 10.1462L12.0107 10.4239C12.525 10.1298 13.0936 10.2838 13.8068 10.622C13.9804 10.7044 14.1541 10.7932 14.334 10.8842C14.5119 10.9742 14.6949 11.0658 14.8783 11.1487C15.2417 11.3128 15.6318 11.4544 16.0283 11.481L16.0498 11.1618L16.0713 10.8425C15.79 10.8236 15.4836 10.7198 15.1417 10.5654C14.9725 10.489 14.8007 10.4031 14.6229 10.3131C14.447 10.2241 14.264 10.1305 14.0811 10.0438C13.3686 9.70587 12.5161 9.39763 11.693 9.8684L11.8519 10.1462ZM16.0498 11.1618L16.0284 11.4811C17.0354 11.5485 18.1849 11.426 19.1349 11.252L19.0773 10.9373L19.0196 10.6225C18.0982 10.7913 17.0058 10.9051 16.0712 10.8425L16.0498 11.1618ZM19.0773 10.9373L19.135 11.252C19.333 11.2157 19.5115 11.1989 19.6608 11.2042C19.8134 11.2097 19.9125 11.2375 19.9699 11.2702C20.0156 11.2961 20.0384 11.3254 20.0497 11.3773C20.0642 11.4437 20.0628 11.5688 19.9896 11.7797L20.2919 11.8846L20.5943 11.9895C20.688 11.7196 20.7243 11.4664 20.675 11.2407C20.6225 11.0006 20.4799 10.8239 20.2863 10.7138C20.1045 10.6104 19.8904 10.572 19.6835 10.5646C19.4733 10.5572 19.2461 10.581 19.0196 10.6225L19.0773 10.9373ZM20.2919 11.8846L19.9896 11.7799C19.8852 12.0811 19.6187 12.5729 19.2965 13.0466C18.9695 13.5272 18.6256 13.9289 18.3861 14.0897L18.5645 14.3554L18.7428 14.6211C19.0931 14.386 19.4952 13.8923 19.8257 13.4065C20.1609 12.9137 20.4632 12.3681 20.5943 11.9893L20.2919 11.8846ZM18.5645 14.3554L18.3861 14.0898C18.219 14.2019 18.0182 14.2592 17.7587 14.3188C17.5154 14.3746 17.2065 14.4345 16.9209 14.5716L17.0595 14.8601L17.198 15.1485C17.4032 15.05 17.6257 15.0059 17.9018 14.9425C18.1617 14.8829 18.4679 14.8057 18.7428 14.6211L18.5645 14.3554ZM17.0595 14.8601L16.9207 14.5717C16.4732 14.7872 16.0688 15.0809 15.6924 15.3754C15.3068 15.6773 14.9632 15.9692 14.5983 16.2232L14.7811 16.4859L14.9638 16.7485C15.348 16.4812 15.7283 16.1601 16.0869 15.8794C16.4549 15.5914 16.8152 15.3328 17.1983 15.1484L17.0595 14.8601ZM12.4356 10.9857L12.1235 11.0566C12.2197 11.4799 12.1403 11.8021 11.9643 12.0635C11.7807 12.3364 11.4752 12.5668 11.0846 12.7571C10.3006 13.1392 9.28109 13.3095 8.5957 13.3919L8.63388 13.7096L8.67206 14.0273C9.36667 13.9438 10.4781 13.7647 11.365 13.3324C11.8099 13.1156 12.2249 12.8227 12.4953 12.4209C12.7733 12.0077 12.8815 11.5039 12.7476 10.9147L12.4356 10.9857ZM8.63388 13.7096L8.59592 13.3918C7.97041 13.4666 7.17387 13.8519 6.61413 14.3896C6.05634 14.9254 5.6424 15.715 6.05825 16.5514L6.34479 16.4089L6.63133 16.2665C6.40022 15.8016 6.58294 15.307 7.05749 14.8512C7.53009 14.3972 8.20157 14.0835 8.67184 14.0273L8.63388 13.7096ZM6.34479 16.4089L6.05809 16.5511C6.37189 17.184 7.04999 17.3989 7.66221 17.4227C8.28239 17.4467 8.94404 17.2838 9.38601 17.0397L9.2313 16.7596L9.07658 16.4795C8.74282 16.6638 8.19782 16.8029 7.68699 16.7831C7.16818 16.763 6.7909 16.5884 6.63149 16.2668L6.34479 16.4089ZM9.2313 16.7596L9.38614 17.0397C9.99529 16.7028 10.4204 16.366 10.6798 15.9185C10.9395 15.4706 11.0073 14.9563 11.0014 14.3255L10.6814 14.3285L10.3614 14.3315C10.367 14.9234 10.2995 15.2986 10.1262 15.5975C9.95259 15.8968 9.6469 16.1642 9.07646 16.4796L9.2313 16.7596ZM10.6814 14.3285L10.5253 14.6079C10.7302 14.7223 10.9365 14.7491 11.1167 14.7472C11.2813 14.7454 11.466 14.7162 11.5764 14.7048C11.7085 14.6913 11.7853 14.6945 11.8404 14.7126C11.8802 14.7256 11.9329 14.7538 11.9934 14.857L12.2694 14.6951L12.5455 14.5331C12.4158 14.3121 12.2453 14.1717 12.0396 14.1044C11.8492 14.042 11.6582 14.0531 11.511 14.0682C11.3422 14.0855 11.2364 14.1058 11.1099 14.1072C10.9991 14.1084 10.9138 14.0918 10.8375 14.0491L10.6814 14.3285ZM12.2694 14.6951L12.5135 14.9021C12.6436 14.7487 12.8155 14.5366 13.0096 14.3416C13.212 14.1383 13.3936 14.0011 13.528 13.9579L13.43 13.6533L13.332 13.3486C13.0396 13.4427 12.7651 13.68 12.5561 13.8901C12.3387 14.1084 12.1437 14.3486 12.0254 14.488L12.2694 14.6951ZM13.43 13.6533L13.5283 13.9578C14.0297 13.7959 14.4001 13.7767 14.855 13.6907C15.3036 13.6058 15.7531 13.4627 16.2711 13.0581L16.0742 12.8059L15.8772 12.5537C15.4596 12.8798 15.1127 12.9906 14.736 13.0618C14.3657 13.1319 13.8819 13.171 13.3317 13.3487L13.43 13.6533ZM16.0742 12.8059L16.2711 13.0581C16.4646 12.907 16.65 12.7423 16.8271 12.5851C17.0069 12.4256 17.1787 12.2734 17.3564 12.1345C17.7105 11.8579 18.0653 11.6532 18.4823 11.5847L18.4303 11.2689L18.3784 10.9532C17.8109 11.0465 17.3561 11.3226 16.9624 11.6302C16.7662 11.7835 16.5796 11.9492 16.4024 12.1064C16.2225 12.2661 16.0522 12.4171 15.8773 12.5536L16.0742 12.8059ZM18.4303 11.2689L18.3786 10.9531C18.0842 11.0014 17.762 11.1653 17.4777 11.3693C17.1885 11.5768 16.9083 11.8476 16.7037 12.1428C16.504 12.4312 16.3487 12.7839 16.3839 13.143C16.4222 13.5331 16.6744 13.8431 17.1038 14.037L17.2355 13.7453L17.3672 13.4537C17.0944 13.3306 17.0317 13.1911 17.0209 13.0806C17.007 12.9391 17.0685 12.7402 17.2299 12.5072C17.3864 12.2812 17.6116 12.061 17.8508 11.8893C18.0948 11.7142 18.3239 11.6107 18.4821 11.5847L18.4303 11.2689ZM17.2355 13.7453L17.0257 13.5037C16.7381 13.7534 16.3609 13.9073 15.9144 14.0752C15.4872 14.2358 14.991 14.4107 14.5726 14.7124L14.7597 14.972L14.9468 15.2316C15.2813 14.9905 15.6858 14.8449 16.1397 14.6742C16.5743 14.5108 17.0585 14.3228 17.4453 13.9869L17.2355 13.7453ZM14.7597 14.972L14.5731 14.712C13.6464 15.3772 12.799 16.0101 11.7334 16.1159L11.765 16.4343L11.7966 16.7528C13.0658 16.6268 14.0579 15.8696 14.9463 15.2319L14.7597 14.972ZM11.765 16.4343L11.7333 16.1159C11.2683 16.1622 10.6682 16.1794 10.1382 16.2566C9.58692 16.3369 9.01947 16.4896 8.52715 16.8433L8.71389 17.1032L8.90063 17.3631C9.27395 17.0948 9.72569 16.9634 10.2304 16.8899C10.7563 16.8134 11.2489 16.8072 11.7967 16.7527L11.765 16.4343ZM8.71389 17.1032L8.5277 16.843C8.40195 16.9329 8.2849 17.088 8.20157 17.1979C8.1025 17.3285 8.01789 17.4435 7.93209 17.5319C7.8363 17.6307 7.80353 17.6265 7.82445 17.6252C7.88766 17.6213 7.87142 17.6747 7.79065 17.5438L7.51829 17.7118L7.24592 17.8797C7.38194 18.1003 7.58459 18.2813 7.86393 18.264C8.10097 18.2493 8.28157 18.0909 8.39152 17.9775C8.51147 17.8538 8.62498 17.6987 8.71156 17.5846C8.81388 17.4496 8.86999 17.385 8.90007 17.3635L8.71389 17.1032ZM7.51829 17.7118L7.41635 17.4084C7.18137 17.4874 7.02169 17.5285 6.9059 17.5418C6.79594 17.5546 6.74939 17.5394 6.72422 17.5266C6.6942 17.5113 6.64921 17.4759 6.57896 17.3737C6.5072 17.2693 6.4303 17.1278 6.32103 16.9246L6.03922 17.0762L5.75741 17.2278C5.86112 17.4206 5.95577 17.5968 6.05148 17.7361C6.14871 17.8776 6.26713 18.012 6.43379 18.0969C6.60532 18.1843 6.78876 18.1997 6.97943 18.1776C7.16429 18.1562 7.3759 18.0972 7.62022 18.0151L7.51829 17.7118ZM6.03922 17.0762L6.32087 16.9243C5.95636 16.2484 5.52215 15.5662 4.92447 15.0099L4.70645 15.2441L4.48843 15.4784C5.01091 15.9647 5.40579 16.5758 5.75756 17.2281L6.03922 17.0762ZM4.70645 15.2441L4.78339 15.5547C5.31346 15.4234 5.67141 15.1339 5.96505 14.8262C6.10787 14.6766 6.24354 14.5136 6.3688 14.3689C6.49784 14.2198 6.62238 14.082 6.75953 13.9583L6.5452 13.7207L6.33087 13.4831C6.16321 13.6343 6.01762 13.7967 5.88487 13.9501C5.74836 14.1078 5.63061 14.2497 5.50206 14.3844C5.25294 14.6454 4.99633 14.8427 4.62951 14.9335L4.70645 15.2441ZM6.5452 13.7207L6.75915 13.9587C7.38701 13.3942 8.38716 13.0446 9.26823 12.7517L9.16729 12.448L9.06634 12.1444C8.21459 12.4275 7.07653 12.8127 6.33125 13.4828L6.5452 13.7207ZM9.16729 12.448L9.26755 12.7519C10.0748 12.4856 10.7899 12.1643 11.4946 11.6851L11.3147 11.4205L11.1347 11.1559C10.4907 11.5938 9.8326 11.8915 9.06702 12.1441L9.16729 12.448ZM11.3147 11.4205L11.4946 11.6851C11.6339 11.5903 11.749 11.4853 11.8378 11.4062C11.9344 11.3201 11.9944 11.27 12.0506 11.2392C12.0953 11.2147 12.1295 11.207 12.1741 11.212C12.2281 11.2181 12.3213 11.2461 12.4719 11.3425L12.6444 11.0729L12.8168 10.8034C12.6196 10.6772 12.432 10.597 12.2456 10.576C12.0498 10.554 11.8841 10.6006 11.7427 10.6782C11.6127 10.7495 11.5005 10.8495 11.412 10.9284C11.3156 11.0143 11.2328 11.0892 11.1347 11.1559L11.3147 11.4205ZM23.721 12.5694L23.5673 12.8501C23.649 12.8948 23.7286 12.934 23.8066 12.9694L23.9389 12.6781L24.0713 12.3867C24.006 12.3571 23.9408 12.3249 23.8747 12.2887L23.721 12.5694ZM23.9389 12.6781L23.8073 12.9697C24.531 13.2965 25.2246 13.6885 25.9256 14.096C26.6225 14.5012 27.3304 14.9238 28.064 15.2975L28.2093 15.0124L28.3545 14.7273C27.6411 14.3639 26.9537 13.9534 26.2472 13.5427C25.5448 13.1343 24.8267 12.7278 24.0706 12.3864L23.9389 12.6781ZM28.2093 15.0124L28.0637 15.2974C28.4803 15.5102 28.9557 15.7814 29.4092 15.9975C29.8747 16.2192 30.3701 16.4107 30.8918 16.483L30.9358 16.1661L30.9797 15.8491C30.5519 15.7898 30.1246 15.6293 29.6844 15.4197C29.2322 15.2042 28.8191 14.9645 28.3548 14.7274L28.2093 15.0124ZM30.9358 16.1661L30.8924 16.4831C31.1209 16.5144 31.3145 16.512 31.4782 16.5035C31.6549 16.4944 31.7557 16.4823 31.8645 16.485C31.9569 16.4873 32.0215 16.5013 32.0834 16.5333C32.1486 16.5669 32.2343 16.6326 32.3464 16.7738L32.597 16.5747L32.8475 16.3756C32.6983 16.1879 32.5462 16.0519 32.3769 15.9645C32.2042 15.8754 32.0371 15.8491 31.8803 15.8452C31.7397 15.8417 31.5737 15.8577 31.4451 15.8644C31.3034 15.8717 31.1534 15.8729 30.9792 15.849L30.9358 16.1661ZM32.597 16.5747L32.3468 16.7742C32.7187 17.2406 32.7947 17.7498 32.714 18.2918C32.6313 18.8478 32.3866 19.4172 32.1306 19.9773L32.4217 20.1103L32.7127 20.2433C32.9658 19.6895 33.2492 19.0433 33.3471 18.3861C33.447 17.7149 33.3561 17.0133 32.8471 16.3752L32.597 16.5747ZM32.4217 20.1103L32.1307 19.9773C32.0457 20.1631 31.9992 20.4488 31.959 20.7064C31.9152 20.9873 31.8733 21.2838 31.8086 21.5601C31.7427 21.8414 31.6621 22.0592 31.5628 22.1944C31.4777 22.3103 31.3981 22.3466 31.2814 22.3319L31.2413 22.6494L31.2013 22.9669C31.5943 23.0164 31.8859 22.8358 32.0787 22.5731C32.2573 22.3298 32.3612 22.0072 32.4317 21.706C32.5034 21.3998 32.5498 21.0716 32.5914 20.8051C32.6366 20.5153 32.6727 20.331 32.7127 20.2434L32.4217 20.1103ZM31.2413 22.6494L31.2803 22.3318C31.2676 22.3302 31.2314 22.3204 31.1659 22.2552C31.1 22.1896 31.0317 22.0956 30.9507 21.973C30.8765 21.8608 30.7857 21.7149 30.6949 21.5924C30.6038 21.4697 30.4859 21.3318 30.3339 21.24L30.1684 21.5139L30.003 21.7879C30.0461 21.8139 30.1039 21.87 30.1809 21.9737C30.258 22.0777 30.3273 22.1906 30.4168 22.326C30.4994 22.451 30.5983 22.5932 30.7144 22.7088C30.8311 22.8249 30.9918 22.9412 31.2024 22.967L31.2413 22.6494ZM30.1684 21.5139L30.3331 21.2396C30.0181 21.0504 29.6783 20.9875 29.3621 20.9676C29.0609 20.9487 28.7228 20.9686 28.4699 20.9686V21.2886V21.6086C28.7854 21.6086 29.0429 21.5888 29.3219 21.6064C29.586 21.623 29.8112 21.6727 30.0037 21.7883L30.1684 21.5139ZM28.4699 21.2886V20.9686C27.9277 20.9686 27.6006 20.7733 27.3144 20.4734C27.1637 20.3155 27.0251 20.1287 26.8721 19.9144C26.7227 19.705 26.5587 19.4682 26.3707 19.2382L26.1229 19.4407L25.8751 19.6432C26.0463 19.8527 26.1944 20.0666 26.3512 20.2862C26.5044 20.5008 26.6662 20.7211 26.8514 20.9152C27.2372 21.3195 27.7243 21.6086 28.4699 21.6086V21.2886ZM26.1229 19.4407L26.3705 19.238C25.6734 18.3862 24.9793 17.4094 24.1023 16.6278L23.8894 16.8667L23.6765 17.1056C24.5034 17.8426 25.1398 18.7448 25.8753 19.6433L26.1229 19.4407ZM23.8894 16.8667L24.1023 16.6278C23.5645 16.1486 23.0271 15.9513 22.5091 15.8049C21.9837 15.6564 21.5226 15.5678 21.0212 15.3134L20.8764 15.5988L20.7316 15.8842C21.3062 16.1757 21.8658 16.2882 22.335 16.4208C22.8117 16.5555 23.2428 16.7191 23.6765 17.1056L23.8894 16.8667ZM20.8764 15.5988L21.0212 15.3134C20.6358 15.1179 20.304 14.7327 19.9968 14.2515C19.6841 13.7616 19.4461 13.2585 19.1815 12.7948L18.9036 12.9534L18.6256 13.112C18.854 13.5123 19.1388 14.0967 19.4574 14.5958C19.7815 15.1037 20.1896 15.6091 20.7316 15.8842L20.8764 15.5988ZM18.9036 12.9534L19.1016 13.2047C19.2293 13.1041 19.3874 13.0451 19.6111 12.9589C19.8165 12.8796 20.0786 12.7762 20.2965 12.5736L20.0786 12.3393L19.8607 12.1049C19.744 12.2133 19.5924 12.2801 19.3808 12.3617C19.1874 12.4363 18.9253 12.5289 18.7055 12.702L18.9036 12.9534ZM20.0786 12.3393L20.2973 12.5728C20.5453 12.3407 20.6547 12.107 20.7167 11.8674C20.7454 11.7566 20.7642 11.6427 20.7818 11.5428C20.8001 11.4387 20.8184 11.3395 20.8469 11.2344L20.5381 11.1507L20.2292 11.067C20.1926 11.2022 20.1701 11.3258 20.1514 11.4321C20.132 11.5426 20.1179 11.6268 20.0971 11.707C20.0602 11.8495 20.0051 11.9697 19.8599 12.1057L20.0786 12.3393ZM20.5381 11.1507L20.5745 11.4686C20.9929 11.4207 21.4754 11.6029 22.0144 11.906C22.2783 12.0544 22.54 12.2221 22.8024 12.3894C23.0608 12.5541 23.3223 12.7198 23.5708 12.8519L23.721 12.5694L23.8712 12.2868C23.6488 12.1686 23.4086 12.0168 23.1464 11.8497C22.8883 11.6851 22.6105 11.5069 22.3281 11.3481C21.7744 11.0368 21.1364 10.7601 20.5017 10.8328L20.5381 11.1507ZM28.2146 20.3238L28.0275 20.5833C28.455 20.8915 28.895 21.1801 29.3276 21.4655C29.7623 21.7523 30.1903 22.0366 30.605 22.3421L30.7948 22.0844L30.9846 21.8268C30.5549 21.5102 30.1139 21.2176 29.6801 20.9313C29.2442 20.6437 28.8163 20.363 28.4017 20.0642L28.2146 20.3238ZM30.7948 22.0844L30.6046 22.3418C30.7061 22.4168 30.8296 22.5153 30.8957 22.5619C30.9577 22.6055 31.1014 22.7077 31.2835 22.6845C31.4701 22.6608 31.5829 22.5217 31.6362 22.4541C31.6996 22.3733 31.779 22.2524 31.8696 22.1201L31.6056 21.9392L31.3416 21.7584C31.236 21.9125 31.1792 21.9998 31.133 22.0585C31.1114 22.086 31.1051 22.09 31.1106 22.0856C31.1192 22.0787 31.1511 22.0562 31.2026 22.0497C31.2534 22.0432 31.2887 22.0566 31.2965 22.06C31.3011 22.0619 31.2933 22.0591 31.2644 22.0387C31.2367 22.0192 31.2031 21.9934 31.1546 21.9559C31.108 21.9199 31.0514 21.8762 30.985 21.8271L30.7948 22.0844ZM31.6056 21.9392L31.8702 22.1191C32.245 21.5678 32.4767 20.7944 32.6016 20.0352C32.7274 19.2706 32.751 18.4815 32.6841 17.875L32.3661 17.9101L32.048 17.9452C32.1076 18.486 32.0878 19.216 31.9701 19.9313C31.8515 20.6521 31.6398 21.3196 31.3409 21.7594L31.6056 21.9392ZM32.3661 17.9101L32.0467 17.8899C32.0131 18.4202 31.8116 18.8837 31.6083 19.4322C31.4112 19.9642 31.2221 20.5595 31.3232 21.256L31.6399 21.2101L31.9565 21.1641C31.8801 20.6371 32.0167 20.1719 32.2084 19.6546C32.394 19.1538 32.6443 18.5791 32.6854 17.9303L32.3661 17.9101ZM31.6399 21.2101L31.9598 21.2054C31.9507 20.5801 31.7828 19.8856 31.4896 19.2561C31.1969 18.6275 30.7686 18.0408 30.22 17.6522L30.0351 17.9133L29.8501 18.1744C30.2838 18.4817 30.6495 18.968 30.9094 19.5263C31.1689 20.0835 31.3122 20.6895 31.3199 21.2147L31.6399 21.2101ZM30.0351 17.9133L30.2203 17.6523C29.9435 17.4559 29.6736 17.3867 29.4184 17.3535C29.2964 17.3376 29.1707 17.3293 29.0588 17.3204C28.9428 17.3111 28.8325 17.3008 28.7191 17.2813L28.665 17.5967L28.6108 17.9121C28.7539 17.9367 28.888 17.9488 29.0081 17.9584C29.1324 17.9682 29.2345 17.9749 29.3359 17.9881C29.5274 18.013 29.6862 18.0581 29.8498 18.1742L30.0351 17.9133ZM28.665 17.5967L28.7201 17.2815C28.6329 17.2662 28.557 17.2423 28.4792 17.2135C28.4131 17.1891 28.3063 17.1451 28.2188 17.1171C27.9998 17.0469 27.7611 17.0229 27.4417 17.1399L27.5517 17.4404L27.6617 17.7409C27.8299 17.6793 27.9211 17.6938 28.0235 17.7266C28.0968 17.75 28.1485 17.7736 28.2575 17.8139C28.3547 17.8498 28.4703 17.8875 28.6098 17.9119L28.665 17.5967ZM27.5517 17.4404L27.8438 17.3099C27.6538 16.8844 27.3716 16.233 27.0032 15.6592C26.6444 15.1004 26.152 14.5303 25.506 14.3794L25.4333 14.691L25.3605 15.0027C25.7441 15.0922 26.118 15.4651 26.4646 16.005C26.8017 16.53 27.064 17.1331 27.2595 17.5709L27.5517 17.4404ZM25.4333 14.691L25.5064 14.3795C25.1611 14.2985 24.8128 14.3187 24.518 14.3317C24.208 14.3454 23.9439 14.3526 23.6861 14.2872L23.6075 14.5974L23.5288 14.9076C23.8906 14.9994 24.2452 14.9844 24.5462 14.9711C24.8623 14.9571 25.1172 14.9456 25.3602 15.0026L25.4333 14.691ZM23.6075 14.5974L23.6871 14.2875C23.0399 14.1212 22.5131 13.6518 22.0934 13.0916L21.8373 13.2835L21.5812 13.4753C22.0424 14.091 22.68 14.6896 23.5279 14.9074L23.6075 14.5974ZM21.8373 13.2835L22.0923 13.0901C22.0474 13.031 21.8106 12.7322 21.588 12.4555C21.4761 12.3163 21.3659 12.1804 21.2832 12.0805C21.2423 12.0311 21.2063 11.9883 21.1797 11.958C21.1673 11.9439 21.1526 11.9274 21.1388 11.9136C21.135 11.9097 21.1177 11.8921 21.0947 11.8751C21.0878 11.87 21.0757 11.8615 21.0598 11.8526C21.0474 11.8457 21.0136 11.8275 20.966 11.8179C20.9219 11.809 20.8005 11.7961 20.6922 11.8905C20.5891 11.9804 20.5823 12.0954 20.5823 12.1322H20.9023H21.2223C21.2223 12.1685 21.2156 12.2832 21.1128 12.3729C21.0047 12.4672 20.8836 12.4541 20.8398 12.4454C20.7927 12.4359 20.7593 12.4179 20.7476 12.4113C20.7323 12.4027 20.7209 12.3947 20.7148 12.3902C20.7026 12.3812 20.6942 12.3735 20.6916 12.3711C20.688 12.3678 20.6856 12.3655 20.685 12.3648C20.6837 12.3636 20.6874 12.3673 20.6985 12.3799C20.7188 12.4031 20.75 12.4401 20.7902 12.4887C20.8699 12.5849 20.9779 12.7181 21.0893 12.8566C21.3135 13.1353 21.5441 13.4265 21.5824 13.4769L21.8373 13.2835ZM20.9023 12.1322L20.5825 12.1211C20.5747 12.3441 20.4847 12.4723 20.3313 12.6086C20.2432 12.6868 20.1557 12.7496 20.0376 12.8432C19.9285 12.9298 19.8057 13.0339 19.6978 13.1654L19.9452 13.3684L20.1926 13.5713C20.2566 13.4934 20.3364 13.4231 20.4353 13.3447C20.5252 13.2734 20.651 13.1807 20.7563 13.0871C20.9896 12.8798 21.2063 12.5995 21.2221 12.1433L20.9023 12.1322ZM19.9452 13.3684L19.7242 13.5998C19.9462 13.8117 20.0962 14.0727 20.2689 14.3763C20.4336 14.6661 20.6238 15.0042 20.9202 15.2703L21.134 15.0322L21.3477 14.7941C21.1412 14.6087 20.9984 14.3645 20.8252 14.06C20.6599 13.7693 20.467 13.4241 20.1662 13.1369L19.9452 13.3684ZM21.134 15.0322L20.9204 15.2705C21.4046 15.7046 22.0108 15.9901 22.5956 16.2352C23.1974 16.4874 23.765 16.6933 24.2593 16.9762L24.4183 16.6985L24.5772 16.4208C24.0375 16.1118 23.4041 15.8801 22.8429 15.6449C22.2647 15.4026 21.7457 15.1509 21.3476 14.794L21.134 15.0322ZM24.4183 16.6985L24.2597 16.9764C25.0081 17.4035 25.5683 18.0138 26.1374 18.6762C26.6968 19.3273 27.2735 20.041 28.0278 20.5835L28.2146 20.3238L28.4015 20.064C27.7239 19.5766 27.2033 18.9347 26.6229 18.2592C26.0523 17.595 25.4302 16.9075 24.5769 16.4206L24.4183 16.6985ZM15.7823 18.0212L15.7187 17.7076C15.5187 17.7482 15.2066 17.67 14.8311 17.4392C14.4685 17.2164 14.1014 16.8839 13.8132 16.518C13.5214 16.1473 13.3345 15.7729 13.2906 15.4711C13.2693 15.3242 13.2837 15.2083 13.322 15.1187C13.3588 15.0329 13.4267 14.9494 13.5537 14.8778L13.3965 14.599L13.2393 14.3203C13.0018 14.4542 12.8309 14.6398 12.7337 14.8668C12.6381 15.09 12.6234 15.3303 12.6573 15.5631C12.7237 16.0207 12.9839 16.4993 13.3104 16.9139C13.6407 17.3333 14.0632 17.7185 14.496 17.9845C14.9158 18.2425 15.4047 18.4243 15.846 18.3348L15.7823 18.0212ZM13.3965 14.599L13.5525 14.8784C13.5867 14.8593 13.6578 14.8356 13.7799 14.8154C13.8968 14.796 14.0337 14.7838 14.1847 14.7727C14.462 14.7523 14.827 14.7361 15.0755 14.6597L14.9815 14.3538L14.8874 14.048C14.7283 14.0969 14.4676 14.1101 14.1378 14.1344C13.9853 14.1456 13.8232 14.1595 13.6753 14.184C13.5327 14.2076 13.3731 14.2455 13.2404 14.3197L13.3965 14.599ZM14.9815 14.3538L15.0757 14.6597C15.7446 14.4536 16.35 14.1213 16.9068 13.7923L16.744 13.5168L16.5812 13.2413C16.0316 13.566 15.4802 13.8653 14.8872 14.048L14.9815 14.3538ZM16.744 13.5168L16.9074 13.7919C17.1565 13.6439 17.358 13.5165 17.5569 13.4075C17.7519 13.3007 17.918 13.2271 18.0748 13.1893C18.3572 13.1213 18.6636 13.155 19.1151 13.4904L19.3059 13.2335L19.4967 12.9766C18.9271 12.5535 18.4296 12.4455 17.9249 12.5671C17.6881 12.6242 17.4648 12.7282 17.2495 12.8462C17.0382 12.9619 16.8085 13.1063 16.5806 13.2416L16.744 13.5168ZM19.3059 13.2335L19.1159 13.491C19.3213 13.6426 19.7786 14.0913 20.1904 14.5758C20.3939 14.8152 20.5773 15.0529 20.7075 15.256C20.7728 15.3577 20.8207 15.4446 20.8511 15.5142C20.8842 15.5901 20.8848 15.6191 20.8849 15.6139L21.2048 15.6178L21.5248 15.6217C21.5264 15.4916 21.4835 15.3632 21.4376 15.258C21.3889 15.1465 21.322 15.0286 21.2463 14.9105C21.0946 14.674 20.8912 14.412 20.6781 14.1613C20.2566 13.6655 19.7614 13.172 19.4959 12.976L19.3059 13.2335ZM21.2048 15.6178L21.1747 15.2993C20.1061 15.4004 19.1954 15.9404 18.3448 16.4626C17.4735 16.9974 16.6612 17.5157 15.7185 17.7076L15.7823 18.0212L15.8462 18.3348C16.922 18.1157 17.8365 17.5255 18.6796 17.008C19.5432 16.4779 20.3345 16.0217 21.235 15.9364L21.2048 15.6178ZM13.8765 16.4575L13.9154 16.1399C13.9173 16.1401 13.9388 16.1438 13.9637 16.164C13.988 16.1836 13.9985 16.2049 14.0018 16.2136C14.0043 16.2203 14.0022 16.2179 14.0012 16.2013C14.0004 16.1855 14.001 16.1646 14.0037 16.1385L13.6853 16.1065L13.3669 16.0745C13.3586 16.1572 13.3505 16.3013 13.4034 16.4407C13.4321 16.5162 13.481 16.5968 13.5616 16.6618C13.6429 16.7275 13.7386 16.763 13.8377 16.7751L13.8765 16.4575ZM13.6853 16.1065L13.523 16.3823C13.8346 16.5655 14.1467 16.4381 14.3239 16.2883L14.1173 16.0439L13.9108 15.7995C13.8844 15.8218 13.863 15.8298 13.8534 15.8316C13.8495 15.8324 13.8487 15.8319 13.85 15.8321C13.8517 15.8324 13.8511 15.8328 13.8475 15.8307L13.6853 16.1065ZM14.1173 16.0439L13.8252 15.9134C13.8167 15.9322 13.8028 15.9559 13.7761 15.9961C13.754 16.0294 13.715 16.0859 13.6836 16.142C13.613 16.2683 13.543 16.4584 13.6257 16.6885L13.9268 16.5803L14.228 16.4721C14.2275 16.4708 14.2292 16.4774 14.228 16.4845C14.2275 16.4872 14.2282 16.4794 14.2422 16.4543C14.2582 16.4257 14.2764 16.3998 14.3096 16.3496C14.3384 16.3062 14.3779 16.2451 14.4095 16.1745L14.1173 16.0439ZM20.9808 19.1773L20.9401 18.8599C20.6161 18.9014 20.2643 18.6708 19.9248 18.2119C19.5998 17.7725 19.3645 17.2244 19.2658 16.884L18.9584 16.9731L18.6511 17.0622C18.7672 17.4628 19.0329 18.0823 19.4103 18.5925C19.7732 19.0831 20.3252 19.584 21.0215 19.4946L20.9808 19.1773ZM18.9584 16.9731L19.2658 16.8843C19.0855 16.2602 19.1415 16.0305 19.2411 15.9078C19.2986 15.8369 19.3994 15.7636 19.5829 15.6881C19.7665 15.6126 20.0065 15.5451 20.319 15.4705L20.2447 15.1592L20.1704 14.848C19.8531 14.9237 19.5719 15.0006 19.3393 15.0963C19.1066 15.1921 18.8963 15.3171 18.7442 15.5045C18.4244 15.8983 18.467 16.4252 18.651 17.0619L18.9584 16.9731ZM20.2447 15.1592L20.3192 15.4704C20.953 15.3188 21.2915 15.1127 21.5829 14.8363C21.7149 14.711 21.8432 14.5648 21.9674 14.4323C22.0972 14.2941 22.2443 14.1462 22.442 13.9838L22.2389 13.7366L22.0358 13.4893C21.8094 13.6752 21.6416 13.8443 21.5007 13.9944C21.3545 14.1502 21.2566 14.2636 21.1424 14.3719C20.9414 14.5627 20.7069 14.7196 20.1702 14.848L20.2447 15.1592ZM22.2389 13.7366L22.4417 13.9841C22.9458 13.5711 23.553 13.6108 24.0969 13.9364C24.6514 14.2685 25.076 14.8669 25.1575 15.4473L25.4744 15.4028L25.7913 15.3583C25.6793 14.5605 25.1224 13.8045 24.4257 13.3873C23.7183 12.9638 22.8045 12.8594 22.0361 13.489L22.2389 13.7366ZM25.4744 15.4028L25.1575 15.4473C25.2611 16.1855 24.9126 16.8961 24.3192 17.525C23.7282 18.1512 22.932 18.6531 22.2527 18.9556L22.3829 19.2479L22.5131 19.5402C23.2504 19.2119 24.1227 18.6657 24.7846 17.9642C25.4441 17.2654 25.9331 16.3689 25.7913 15.3584L25.4744 15.4028ZM22.3829 19.2479L22.2523 18.9558C22.1092 19.0198 22.0085 19.0417 21.9336 19.047C21.86 19.0523 21.7949 19.0429 21.7167 19.023C21.5684 18.9854 21.3038 18.8767 20.9477 18.9017L20.9701 19.2209L20.9925 19.5402C21.2133 19.5247 21.3153 19.5814 21.5592 19.6434C21.6771 19.6733 21.8146 19.6972 21.9794 19.6854C22.1431 19.6736 22.3168 19.628 22.5135 19.54L22.3829 19.2479ZM20.1723 18.1348L20.1437 17.8161C20.1437 17.8161 20.1451 17.8159 20.1477 17.816C20.1504 17.8161 20.1542 17.8164 20.1589 17.8172C20.1688 17.8189 20.1808 17.8224 20.1933 17.8286C20.2198 17.8417 20.234 17.8591 20.2388 17.8662C20.2425 17.8717 20.2397 17.8695 20.235 17.8535C20.2305 17.8381 20.2263 17.8175 20.2229 17.7912L19.9056 17.8329L19.5883 17.8746C19.5993 17.9581 19.6246 18.0998 19.7077 18.2233C19.7525 18.29 19.8176 18.3567 19.9093 18.4021C20.0019 18.4479 20.102 18.4624 20.2009 18.4535L20.1723 18.1348ZM19.9056 17.8329L19.8073 18.1374C20.1508 18.2483 20.4276 18.0572 20.5678 17.8731L20.3133 17.6792L20.0587 17.4853C20.0383 17.5121 20.0195 17.5243 20.0105 17.5281C20.0069 17.5297 20.0061 17.5295 20.0072 17.5294C20.0088 17.5293 20.0081 17.5298 20.0039 17.5284L19.9056 17.8329ZM20.3133 17.6792L19.9995 17.6163C19.9956 17.636 19.9873 17.6617 19.9702 17.7069C19.9561 17.7443 19.9306 17.8078 19.9125 17.8697C19.8717 18.0093 19.8468 18.2096 19.9779 18.4153L20.2477 18.2433L20.5176 18.0714C20.5164 18.0695 20.5193 18.0749 20.5197 18.0817C20.5199 18.0843 20.5189 18.0764 20.5268 18.0492C20.5358 18.0183 20.5477 17.9892 20.5688 17.9335C20.587 17.8854 20.6119 17.8174 20.627 17.7421L20.3133 17.6792ZM30.7155 21.0926L30.4042 21.1665C30.5557 21.805 30.6304 22.4792 30.5694 23.093C30.5085 23.7069 30.3145 24.2384 29.9501 24.6245L30.1829 24.8441L30.4156 25.0637C30.907 24.543 31.1364 23.8604 31.2063 23.1562C31.2762 22.4519 31.1894 21.7037 31.0269 21.0188L30.7155 21.0926ZM30.1829 24.8441L29.95 24.6247C29.202 25.4185 28.7559 26.0156 27.8057 26.0736L27.8252 26.393L27.8447 26.7124C29.1044 26.6355 29.7388 25.782 30.4158 25.0636L30.1829 24.8441ZM27.8252 26.393L27.5228 26.4974C27.5565 26.5951 27.5447 26.6325 27.5443 26.6335C27.5441 26.6342 27.5441 26.6339 27.5446 26.6331C27.5448 26.6328 27.545 26.6324 27.5452 26.6322C27.5453 26.632 27.5454 26.6319 27.5454 26.6319C27.5455 26.6318 27.5455 26.6317 27.5455 26.6317C27.5455 26.6318 27.5454 26.6319 27.5449 26.6323C27.5445 26.6327 27.5438 26.6333 27.5428 26.6341C27.5408 26.6356 27.5374 26.6379 27.5321 26.6406C27.5089 26.6528 27.4635 26.6663 27.3949 26.668C27.3282 26.6695 27.2545 26.6594 27.1862 26.6392L27.0952 26.946L27.0042 27.2527C27.2454 27.3243 27.5704 27.343 27.8289 27.2077C27.9687 27.1345 28.0937 27.0122 28.1525 26.8327C28.2094 26.6591 28.1911 26.4721 28.1277 26.2885L27.8252 26.393ZM27.0952 26.946L27.187 26.6394C26.9845 26.5788 26.7309 26.3923 26.4235 26.1149C26.1456 25.8642 25.8027 25.5177 25.5106 25.2732L25.3052 25.5185L25.0998 25.7639C25.3907 26.0074 25.6631 26.2909 25.9947 26.59C26.2967 26.8625 26.6466 27.1457 27.0035 27.2525L27.0952 26.946ZM25.3052 25.5185L25.5099 25.2726C24.8284 24.7053 24.4793 24.4821 24.0392 23.7446L23.7644 23.9086L23.4897 24.0726C23.9975 24.9236 24.4455 25.2193 25.1005 25.7645L25.3052 25.5185ZM23.7644 23.9086L24.0391 23.7445C23.7186 23.2082 23.4088 22.6596 23.0949 22.1072C22.7818 21.5561 22.4649 21.0019 22.1338 20.4614L21.8609 20.6285L21.5881 20.7957C21.9131 21.3263 22.2252 21.8722 22.5385 22.4234C22.8509 22.9732 23.1648 23.5291 23.4898 24.0728L23.7644 23.9086ZM21.8609 20.6285L22.0646 20.8754C22.761 20.3008 23.2183 19.5421 23.6534 18.8588L23.3834 18.6869L23.1135 18.5151C22.6615 19.225 22.2593 19.885 21.6573 20.3817L21.8609 20.6285ZM23.3834 18.6869L23.6528 18.8596C23.8356 18.5747 23.9861 18.208 24.1242 17.9083C24.2724 17.5866 24.412 17.3264 24.5819 17.1566L24.3558 16.9302L24.1296 16.7038C23.8698 16.9633 23.69 17.3212 23.543 17.6404C23.3858 17.9816 23.2651 18.2787 23.1141 18.5142L23.3834 18.6869ZM24.3558 16.9302L24.5824 17.1562C24.7001 17.0381 24.8803 16.9744 25.1444 16.955C25.4139 16.9351 25.6988 16.9638 26.0135 16.98L26.0299 16.6604L26.0464 16.3408C25.7751 16.3269 25.4199 16.2929 25.0973 16.3167C24.7692 16.3409 24.4054 16.4272 24.1292 16.7043L24.3558 16.9302ZM26.0299 16.6604L26.0142 16.98C27.7614 17.0662 29.2046 18.1863 29.9218 19.7495L30.2126 19.6161L30.5035 19.4826C29.7012 17.734 28.0643 16.4403 26.0457 16.3408L26.0299 16.6604ZM30.2126 19.6161L29.9217 19.7494C30.1058 20.151 30.2803 20.642 30.4041 21.1662L30.7155 21.0926L31.027 21.0191C30.8933 20.4531 30.705 19.9222 30.5035 19.4827L30.2126 19.6161ZM27.778 22.4114L27.4713 22.32C27.4542 22.3773 27.4636 22.2904 27.5729 22.2554C27.619 22.2406 27.6549 22.2459 27.6665 22.2483C27.6764 22.2503 27.6764 22.2518 27.6592 22.2442C27.6385 22.2349 27.6272 22.2287 27.5906 22.2113C27.5622 22.1977 27.5199 22.1782 27.4724 22.1634C27.3746 22.1329 27.1965 22.1063 27.0351 22.2383L27.2377 22.486L27.4403 22.7337C27.4089 22.7593 27.3693 22.7745 27.331 22.7777C27.3143 22.7791 27.3013 22.7779 27.2934 22.7767C27.2894 22.7761 27.2864 22.7755 27.2845 22.7751C27.2835 22.7748 27.2828 22.7746 27.2824 22.7745C27.2819 22.7744 27.2816 22.7743 27.2816 22.7743C27.2816 22.7743 27.2818 22.7744 27.2822 22.7745C27.2826 22.7746 27.2832 22.7749 27.284 22.7751C27.2856 22.7757 27.2878 22.7766 27.2908 22.7779C27.2969 22.7804 27.3046 22.7839 27.3151 22.7889C27.3295 22.7958 27.3693 22.8156 27.3988 22.8288C27.448 22.8507 27.599 22.9191 27.768 22.8649C27.9628 22.8026 28.0465 22.6308 28.0846 22.5028L27.778 22.4114ZM27.2377 22.486L27.0345 22.2388C26.9543 22.3047 26.916 22.3892 26.8973 22.4389C26.8763 22.4949 26.8632 22.5534 26.8542 22.6051C26.8363 22.7086 26.8279 22.8281 26.8222 22.9349C26.8159 23.0513 26.8129 23.1465 26.8066 23.2395C26.8036 23.2834 26.8003 23.3191 26.7965 23.347C26.7923 23.3776 26.7892 23.3865 26.7906 23.3824L27.0937 23.4849L27.3968 23.5874C27.4287 23.4931 27.439 23.372 27.4451 23.2829C27.4516 23.187 27.4561 23.0647 27.4612 22.9694C27.4669 22.8642 27.4739 22.7775 27.4849 22.7143C27.4903 22.6826 27.4951 22.6677 27.4963 22.6643C27.4999 22.6547 27.4886 22.694 27.4409 22.7332L27.2377 22.486ZM27.0937 23.4849L27.3497 23.293C27.2572 23.1695 27.204 22.9887 27.1884 22.776C27.1731 22.567 27.1965 22.3584 27.2277 22.2111L26.9146 22.1448L26.6015 22.0785C26.5603 22.2732 26.5296 22.543 26.5501 22.8228C26.5704 23.0988 26.6429 23.4171 26.8376 23.6768L27.0937 23.4849ZM26.9146 22.1448L27.0572 21.8583C26.9289 21.7945 26.7687 21.7571 26.6082 21.8136C26.441 21.8725 26.3469 22.007 26.3069 22.1338C26.2327 22.369 26.3109 22.643 26.4746 22.8363L26.7188 22.6296L26.963 22.4228C26.9414 22.3972 26.9283 22.3692 26.9225 22.3458C26.916 22.3197 26.9214 22.3133 26.9173 22.3264C26.9119 22.3432 26.8866 22.3941 26.8208 22.4173C26.7616 22.4381 26.7353 22.413 26.772 22.4313L26.9146 22.1448ZM26.7188 22.6296L26.4214 22.5113C26.4233 22.5066 26.4232 22.5078 26.4185 22.516C26.4143 22.5234 26.4084 22.5328 26.4011 22.5438C26.3859 22.5663 26.3699 22.5868 26.3608 22.5976L26.6052 22.8041L26.8496 23.0107C26.888 22.9653 26.9741 22.8535 27.0161 22.7479L26.7188 22.6296ZM26.6052 22.8041L26.775 22.5329C26.7498 22.5171 26.7265 22.5032 26.7066 22.4913C26.6858 22.4788 26.6703 22.4696 26.6558 22.4606C26.6272 22.4428 26.6168 22.4345 26.6119 22.43C26.6096 22.4279 26.6075 22.4259 26.6035 22.4188C26.5984 22.4095 26.5885 22.3886 26.5766 22.3459L26.2684 22.432L25.9602 22.5181C26.0042 22.6754 26.0685 22.7996 26.1783 22.9007C26.2272 22.9458 26.2775 22.979 26.3182 23.0044C26.3385 23.017 26.3599 23.0297 26.3784 23.0407C26.3979 23.0523 26.4163 23.0634 26.4355 23.0754L26.6052 22.8041ZM26.2684 22.432L25.9855 22.2825C25.8886 22.4659 25.8914 22.6632 25.8932 22.7787C25.8956 22.926 25.8969 22.9792 25.8833 23.0211L26.1877 23.1199L26.492 23.2188C26.547 23.0496 26.5346 22.8612 26.5331 22.7685C26.5312 22.644 26.5401 22.6029 26.5513 22.5816L26.2684 22.432ZM26.1877 23.1199L26.0719 23.4183C26.2139 23.4734 26.348 23.4419 26.4446 23.3831C26.526 23.3335 26.5826 23.2645 26.616 23.2202C26.6516 23.1729 26.6853 23.1192 26.7092 23.082C26.7367 23.0391 26.7558 23.0103 26.7731 22.9885C26.826 22.9218 26.7686 23.0321 26.6377 22.9974C26.5933 22.9857 26.5845 22.9651 26.6082 22.9913C26.6304 23.016 26.6667 23.0658 26.7158 23.1571L26.9977 23.0057L27.2796 22.8542C27.2174 22.7385 27.153 22.6397 27.0831 22.5623C27.0148 22.4867 26.9226 22.4108 26.8015 22.3788C26.5173 22.3035 26.3334 22.5129 26.2716 22.5908C26.2316 22.6414 26.1963 22.6962 26.1704 22.7366C26.1409 22.7827 26.1223 22.8119 26.1046 22.8353C26.0847 22.8618 26.0872 22.8514 26.1118 22.8364C26.1514 22.8123 26.2257 22.7915 26.3034 22.8216L26.1877 23.1199ZM26.9977 23.0057L26.7153 23.1562C26.7696 23.258 26.763 23.3057 26.7591 23.3234C26.7532 23.3498 26.734 23.3894 26.6732 23.4545C26.6434 23.4863 26.609 23.5188 26.5674 23.5571C26.5285 23.5928 26.4796 23.6368 26.4349 23.681C26.3485 23.7664 26.2326 23.8939 26.1801 24.0675L26.4864 24.1601L26.7927 24.2528C26.7965 24.24 26.8136 24.2066 26.8847 24.1363C26.9187 24.1027 26.9547 24.0703 27.0004 24.0283C27.0434 23.9889 27.0931 23.9424 27.1406 23.8916C27.2344 23.7914 27.3423 23.6506 27.384 23.4613C27.4277 23.2633 27.3892 23.06 27.2801 22.8551L26.9977 23.0057ZM26.4864 24.1601L26.4619 23.8411C26.2876 23.8545 26.1487 23.9277 26.0507 23.988C26.0027 24.0176 25.9536 24.0511 25.9178 24.075C25.8782 24.1013 25.8475 24.1209 25.8191 24.1361L25.9705 24.418L26.1219 24.7C26.1784 24.6696 26.2301 24.6359 26.2725 24.6077C26.3186 24.577 26.351 24.5547 26.3861 24.533C26.4544 24.491 26.4886 24.4809 26.5108 24.4792L26.4864 24.1601ZM25.9705 24.418L26.2797 24.3357C26.227 24.1378 26.1612 23.9274 26.0894 23.7237L25.7876 23.8301L25.4858 23.9364C25.5527 24.1263 25.6134 24.3206 25.6613 24.5004L25.9705 24.418ZM25.7876 23.8301L25.4937 23.7034C25.3352 24.0712 25.3655 24.4712 25.4564 24.8268C25.548 25.185 25.7111 25.5366 25.8648 25.8326L26.1488 25.6852L26.4328 25.5377C26.2862 25.2553 26.1498 24.9551 26.0765 24.6682C26.0024 24.3787 26.0023 24.1403 26.0815 23.9567L25.7876 23.8301ZM26.1488 25.6852L25.8647 25.8325C25.9988 26.0911 26.2534 26.4616 26.5428 26.713C26.685 26.8365 26.8668 26.9591 27.0721 26.9981C27.3065 27.0427 27.5402 26.9711 27.715 26.7648L27.4709 26.5579L27.2268 26.351C27.2042 26.3777 27.2043 26.3718 27.1916 26.3694C27.1499 26.3615 27.0713 26.3244 26.9626 26.2299C26.7501 26.0453 26.5411 25.7465 26.4329 25.5379L26.1488 25.6852ZM27.4709 26.5579L27.7139 26.7661C27.8688 26.5852 27.8699 26.3635 27.8755 26.3082C27.8799 26.2658 27.883 26.2688 27.8768 26.2819C27.8724 26.2911 27.8656 26.3015 27.8565 26.3108C27.8478 26.3198 27.8414 26.3232 27.842 26.3228L27.6926 26.0399L27.5432 25.7569C27.4309 25.8162 27.3491 25.9015 27.299 26.0065C27.2545 26.1 27.244 26.1923 27.2388 26.2432C27.2254 26.3743 27.2238 26.3545 27.2279 26.3498L27.4709 26.5579ZM27.6926 26.0399L27.8418 26.323C27.8818 26.3019 27.9677 26.2823 28.1275 26.2586C28.256 26.2396 28.448 26.2163 28.5972 26.1643L28.492 25.8621L28.3867 25.5599C28.3104 25.5865 28.1999 25.6009 28.0337 25.6255C27.8988 25.6455 27.6978 25.6755 27.5435 25.7567L27.6926 26.0399ZM28.492 25.8621L28.5943 26.1653C28.8669 26.0734 29.1249 25.9708 29.3322 25.781C29.5477 25.5837 29.6772 25.3228 29.7666 24.9763L29.4567 24.8965L29.1468 24.8166C29.0754 25.0937 28.9919 25.2249 28.9 25.309C28.7998 25.4007 28.6558 25.4692 28.3897 25.5589L28.492 25.8621ZM29.4567 24.8965L29.7665 24.9767C29.8207 24.7673 29.9403 24.605 30.1052 24.3802C30.2612 24.1675 30.4567 23.8992 30.5322 23.5319L30.2187 23.4675L29.9053 23.4031C29.8611 23.6182 29.748 23.785 29.5891 24.0016C29.4391 24.2061 29.2374 24.467 29.1469 24.8162L29.4567 24.8965ZM30.2187 23.4675L30.5321 23.5324C30.6387 23.018 30.4309 22.4415 30.1605 21.9753C29.8844 21.4992 29.4982 21.0605 29.1393 20.8097L28.956 21.072L28.7727 21.3343C29.0395 21.5207 29.3669 21.8826 29.6069 22.2964C29.8526 22.72 29.9634 23.1227 29.9054 23.4025L30.2187 23.4675ZM28.956 21.072L29.1393 20.8096C28.9865 20.7029 28.7919 20.5654 28.5758 20.4921C28.3387 20.4118 28.0754 20.407 27.7964 20.5474L27.9403 20.8332L28.0841 21.119C28.1931 21.0642 28.2768 21.0666 28.3703 21.0983C28.4847 21.137 28.6041 21.2165 28.7728 21.3344L28.956 21.072ZM27.9403 20.8332L27.7965 20.5473C27.5439 20.6744 27.3629 20.8454 27.2866 21.0771C27.2141 21.2974 27.2588 21.5093 27.3057 21.6641C27.3298 21.7437 27.3593 21.8229 27.3843 21.8904C27.4106 21.9616 27.4327 22.0224 27.4499 22.0811C27.4848 22.2003 27.4863 22.27 27.4714 22.3196L27.778 22.4114L28.0845 22.5032C28.152 22.2778 28.1119 22.0646 28.064 21.9011C28.0398 21.8183 28.0101 21.7378 27.9847 21.6688C27.9578 21.5961 27.9356 21.5362 27.9182 21.4787C27.8821 21.3595 27.8851 21.3058 27.8945 21.2773C27.9001 21.2602 27.9248 21.1991 28.084 21.1191L27.9403 20.8332ZM22.6428 20.281L22.8959 20.4767C23.0246 20.3103 23.1717 20.1452 23.2957 20.0105C23.3581 19.9428 23.4117 19.8858 23.4567 19.8375C23.4929 19.7985 23.5404 19.7477 23.5666 19.7117L23.308 19.5232L23.0494 19.3347C23.0516 19.3317 23.0382 19.3477 22.9881 19.4015C22.9467 19.4461 22.8885 19.5079 22.8248 19.577C22.6968 19.7161 22.5352 19.897 22.3896 20.0852L22.6428 20.281ZM23.308 19.5232L23.5622 19.7176C23.6775 19.5668 23.7825 19.364 23.8778 19.1639C23.9678 18.9746 24.0808 18.7175 24.1715 18.5241C24.2713 18.311 24.3692 18.1186 24.4686 17.9664C24.5727 17.8071 24.6547 17.7297 24.7081 17.7018L24.56 17.4182L24.4119 17.1345C24.2092 17.2403 24.0533 17.4321 23.9328 17.6163C23.8078 17.8078 23.6945 18.0336 23.5919 18.2525C23.4802 18.491 23.3995 18.6795 23.2999 18.8889C23.2054 19.0873 23.1248 19.236 23.0538 19.3288L23.308 19.5232ZM24.56 17.4182L24.7081 17.7018C24.7566 17.6765 24.8524 17.655 25.0094 17.6617C25.1605 17.6682 25.3376 17.6994 25.524 17.7475C25.8977 17.8439 26.2678 17.9976 26.4663 18.1005L26.6136 17.8165L26.761 17.5324C26.522 17.4085 26.1068 17.2369 25.6839 17.1278C25.4719 17.0731 25.2479 17.0314 25.0369 17.0223C24.832 17.0135 24.6049 17.0337 24.4118 17.1345L24.56 17.4182ZM26.6136 17.8165L26.5706 17.4994C26.3073 17.5351 25.8306 17.5986 25.4881 17.7827C25.3122 17.8772 25.121 18.03 25.0447 18.2748C24.9662 18.5268 25.0359 18.788 25.1904 19.0367L25.4622 18.8678L25.734 18.699C25.6351 18.5398 25.6527 18.4751 25.6557 18.4652C25.661 18.4483 25.6852 18.4033 25.7911 18.3464C26.0121 18.2276 26.3645 18.1732 26.6566 18.1336L26.6136 17.8165ZM25.4622 18.8678L25.5837 18.5718C25.2329 18.4278 24.8595 18.5447 24.5602 18.715C24.2502 18.8912 23.9466 19.1641 23.6866 19.4634C23.4252 19.7641 23.1946 20.1067 23.0374 20.4358C22.887 20.7507 22.7769 21.1083 22.8323 21.4166L23.1472 21.3601L23.4622 21.3035C23.4436 21.2 23.4789 20.9963 23.6149 20.7117C23.744 20.4414 23.9408 20.1465 24.1696 19.8832C24.3997 19.6184 24.6491 19.4007 24.8766 19.2713C25.1147 19.1359 25.2633 19.1321 25.3407 19.1639L25.4622 18.8678ZM23.1472 21.3601L23.4621 21.3032C23.4405 21.1834 23.4323 21.0506 23.4264 20.8975C23.4208 20.7512 23.4174 20.5796 23.4018 20.4144L23.0832 20.4444L22.7646 20.4745C22.778 20.6163 22.7806 20.7589 22.7869 20.9219C22.7928 21.0779 22.8021 21.2494 22.8323 21.4169L23.1472 21.3601ZM23.0832 20.4444L22.7651 20.4793C22.7615 20.4465 22.7643 20.4213 22.7659 20.4099C22.7677 20.397 22.77 20.3878 22.7711 20.3838C22.7731 20.3761 22.7742 20.3745 22.7715 20.3811C22.7665 20.3936 22.756 20.4162 22.7389 20.4488C22.7054 20.5128 22.6566 20.5955 22.6032 20.6775C22.5491 20.7604 22.4959 20.834 22.4541 20.8829C22.4441 20.8947 22.4359 20.9037 22.4294 20.9104C22.4227 20.9173 22.4197 20.9197 22.4203 20.9193C22.4207 20.9189 22.423 20.917 22.427 20.9143C22.4309 20.9116 22.4381 20.9069 22.4484 20.9017C22.4635 20.894 22.5136 20.8702 22.5857 20.8738L22.5696 21.1934L22.5535 21.513C22.6394 21.5173 22.7057 21.4889 22.739 21.4719C22.776 21.4531 22.806 21.4307 22.8273 21.4132C22.87 21.378 22.909 21.3359 22.9414 21.2979C23.0077 21.22 23.0777 21.1216 23.1393 21.027C23.2016 20.9314 23.2611 20.8311 23.3058 20.746C23.3278 20.704 23.3489 20.6605 23.3651 20.6204C23.373 20.6007 23.3821 20.5761 23.3892 20.5495C23.394 20.5317 23.4086 20.4764 23.4013 20.4095L23.0832 20.4444ZM22.5696 21.1934L22.5929 20.8743C22.5109 20.8683 22.5426 20.8498 22.5812 20.8995C22.6224 20.9527 22.6023 20.9934 22.6113 20.9532C22.6198 20.9151 22.6457 20.8508 22.699 20.7605C22.7503 20.6734 22.818 20.5771 22.8956 20.4771L22.6428 20.281L22.3899 20.0848C22.226 20.2961 22.0422 20.5656 21.9867 20.8133C21.9575 20.9437 21.9504 21.1305 22.0753 21.2916C22.1976 21.4493 22.3837 21.5007 22.5463 21.5126L22.5696 21.1934Z" fill="#967348" mask="url(#path-1-outside-1_8_104)"/>
</g>
<defs>
<filter id="filter0_d_8_104" x="0.034729" y="0.530914" width="38.5185" height="34.7772" filterUnits="userSpaceOnUse" color-interpolation-filters="sRGB">
<feFlood flood-opacity="0" result="BackgroundImageFix"/>
<feColorMatrix in="SourceAlpha" type="matrix" values="0 0 0 0 0 0 0 0 0 0 0 0 0 0 0 0 0 0 127 0" result="hardAlpha"/>
<feOffset dy="4"/>
<feGaussianBlur stdDeviation="2"/>
<feComposite in2="hardAlpha" operator="out"/>
<feColorMatrix type="matrix" values="0 0 0 0 0 0 0 0 0 0 0 0 0 0 0 0 0 0 0.25 0"/>
<feBlend mode="normal" in2="BackgroundImageFix" result="effect1_dropShadow_8_104"/>
<feBlend mode="normal" in="SourceGraphic" in2="effect1_dropShadow_8_104" result="shape"/>
</filter>
</defs>
</svg>
