<svg width="46" height="151" viewBox="0 0 46 151" fill="none" xmlns="http://www.w3.org/2000/svg">
<g id="TibiaLeft" filter="url(#filter0_d_8_101)">
<mask id="path-1-outside-1_8_101" maskUnits="userSpaceOnUse" x="4.03572" y="0.218872" width="38" height="143" fill="black">
<rect fill="white" x="4.03572" y="0.218872" width="38" height="143"/>
<path d="M40.5194 1.8656C41.4293 3.90636 40.6231 7.56494 40.5004 9.76836C40.3305 12.7565 38.904 14.8806 37.1186 17.1324C35.0314 19.7635 33.3169 23.7458 32.0931 26.953C28.6297 36.0301 28.1466 47.1162 28.1192 56.79C28.1047 61.8649 27.6947 67.0723 27.1819 72.0854C26.6744 77.0413 25.4948 81.6631 24.6284 86.5492C22.561 98.2296 23.3909 110.084 23.0663 121.882C22.9687 125.428 24.4325 129.923 23.5044 133.308C23.1417 134.625 22.3073 135.239 21.2885 136.036C20.2155 136.875 19.3171 138.406 18.1909 139.047C16.8855 139.792 15.1238 139.25 13.6493 139.411C11.985 139.592 10.6866 140.532 9.34694 141.534C7.59354 142.844 6.34154 143.417 5.72279 140.751C5.12537 138.179 4.77027 134.971 5.28082 132.389C5.99863 128.761 7.43046 125.343 8.53615 121.836C10.6408 115.159 11.0241 107.523 11.8677 100.546C12.5017 95.3034 11.764 89.7746 12.11 84.464C12.3508 80.7975 12.8133 77.1389 13.0023 73.4255C13.4085 65.414 14.3366 57.4707 14.0082 49.5069C13.4961 37.0425 10.8908 25.1574 8.80743 12.9477C8.46299 10.9205 8.90192 9.89133 9.33551 8.03544C9.64793 6.70086 9.55648 6.9421 9.41475 5.54641C9.26997 4.12613 8.48357 4.13166 9.65326 2.71853C12.2959 -0.474329 17.4075 2.30276 20.4 3.09462C23.5151 3.91981 27.5393 4.20786 30.7687 4.03568C31.7296 3.98332 40.2223 1.20228 40.5194 1.8656Z"/>
<path d="M12.9116 22.8913C12.0727 20.7759 7.54934 11.2965 9.96188 9.21689C11.098 8.23777 14.2017 10.5435 15.0079 11.6036C13.5357 9.66757 11.3983 7.85535 10.8847 5.32503C10.1105 1.51645 12.8659 3.14855 15.1603 3.69207C18.328 4.44267 21.9209 4.71882 24.8334 6.49932C22.593 6.26367 20.2087 5.14095 17.9082 5.10603C17.9844 6.59614 20.9486 8.06482 22.0558 8.72418C24.0721 9.92229 26.112 10.4031 28.3874 10.8141C30.1499 11.1323 33.0311 11.1006 34.3425 12.501C33.2559 14.249 31.2869 15.2305 29.3498 15.3638C28.2655 15.4392 24.3289 15.3051 23.7665 14.2958C25.2235 16.9039 25.3873 21.2758 21.911 17.3815C21.6817 18.4527 22.4277 18.6479 22.465 19.5072C22.5298 20.9901 22.3393 20.3602 21.7548 21.8368C20.6057 24.7305 20.1363 29.2682 20.4106 32.1191C19.8391 29.123 19.7903 26.2983 19.6638 23.534C19.5465 20.9624 17.486 17.5728 15.3646 16.4143C15.485 16.6976 15.6404 17.0094 15.7791 17.3006C14.6391 15.6153 13.1006 13.669 11.2901 12.7573C11.6391 14.3156 18.1924 21.421 16.1449 22.1359C16.5838 23.6181 16.1136 25.9992 16.2698 27.4655C16.5205 29.838 17.4875 32.4278 17.9165 34.8423C19.4871 43.6266 18.1345 52.8711 18.5307 61.8093C18.7517 66.8121 18.6816 72.0766 18.3829 77.1373C17.9813 83.9633 16.356 91.3163 17.0441 98.1058C17.8175 105.744 15.9338 112.29 14.3816 119.62C13.5792 123.409 8.84477 132.453 13.0198 135.784C13.6096 135.047 14.3899 134.694 15.0857 135.178C15.3928 133.841 15.6694 132.24 15.8561 130.83C15.9948 132.83 16.6897 133.682 15.5634 135.283C14.8731 136.262 12.1664 138.961 11.2101 139.181C11.5118 139.111 10.8976 128.716 7.73603 130.65C7.12794 126.557 9.30121 120.749 10.4343 116.797C11.3975 113.431 13.0831 110.184 13.3224 106.681C13.8703 98.6327 13.9693 90.7275 14.5157 82.7017C15.1702 73.0597 15.52 63.6351 15.6046 53.9026C15.6587 47.8906 15.5734 41.7262 15.1329 35.7412C14.8403 31.7597 14.377 26.5903 12.9116 22.8913Z"/>
<path d="M25.8689 29.2436C25.9406 28.7731 26.1387 28.5557 26.4587 28.5898C26.5921 32.9253 25.3576 38.6389 23.5776 42.5006C23.6545 40.0806 23.7467 37.8494 24.1285 35.4508C24.3708 33.9337 25.3447 30.7925 25.0048 29.2801C24.6086 27.5195 22.4216 27.1878 22.958 24.982C23.5448 25.8976 24.8936 28.1542 26.3673 28.0773C27.5896 28.0114 27.6802 25.6723 29.4458 27.2648C29.5952 26.8792 29.9381 26.3872 30.0067 25.9461C29.074 28.9287 28.8591 32.2445 27.7214 35.1406C27.8334 32.9379 29.1776 29.7776 27.7862 27.8416"/>
<path d="M11.2977 7.20231C10.7323 6.71593 9.5862 4.70375 9.83005 3.88332C10.3452 2.14248 10.7856 3.46677 11.8029 3.02085C8.98498 4.25546 15.28 8.23621 16.1098 9.27564C15.3425 8.62421 13.8146 8.41077 13.5936 9.78186C13.3681 11.1871 15.4735 12.4137 16.3681 13.0429C17.7611 14.0205 18.4279 14.9766 19.609 16.0541C17.1042 13.7713 14.5004 11.6211 11.6779 9.86278C11.7671 10.0215 11.8113 10.1928 11.8067 10.3761C11.2916 9.81198 10.6218 9.76598 9.98474 9.5819C9.86739 10.0024 9.65936 10.4317 9.64336 10.8673C9.82853 9.54698 10.2316 7.97196 11.2977 7.20231Z"/>
<path d="M15.1009 85.3391C15.0247 90.8243 14.2657 96.2586 13.8962 101.718C13.5807 106.397 12.1283 110.811 11.6109 115.3C12.3843 108.502 13.3445 101.822 13.3955 94.9653C13.4184 91.7074 12.6579 85.6256 14.5042 83.0628C14.9576 84.3196 14.8746 85.7002 14.8167 87.0387"/>
<path d="M13.6348 136.401C11.9866 136.545 10.8313 137.877 9.84834 138.915C9.76528 137.594 10.3459 134.95 9.56563 133.795C8.22601 131.805 7.7871 133.96 7.87168 135.48C5.28235 133.902 7.20492 128.729 8.81125 127.069C9.94055 130.313 9.87273 134.902 12.8111 137.245"/>
<path d="M20.7764 128.797C21.3807 130.908 23.2545 134.977 19.676 134.144C20.419 132.304 20.7848 130.76 19.9588 128.79"/>
<path d="M13.7811 33.6481C13.6851 32.3754 13.5296 31.1289 13.2698 29.9324C12.8126 27.8202 11.6284 25.9103 11.3472 23.7783C11.1666 22.3929 11.3785 20.8854 11.2139 19.4572C11.0759 18.2567 10.855 12.4637 9.34922 12.0892C9.67993 12.1701 10.3734 12.6113 10.6431 12.8708C8.00731 16.719 13.0892 21.0171 14.0417 24.4305C15.4164 29.3658 14.8555 34.5955 15.3646 39.6434C16.1868 47.8105 15.6191 56.1044 15.5299 64.2643C15.5871 58.0436 14.9333 51.8523 14.2383 45.6816C13.804 41.8342 14.0821 37.6082 13.7811 33.6481Z"/>
</mask>
<path d="M40.5194 1.8656C41.4293 3.90636 40.6231 7.56494 40.5004 9.76836C40.3305 12.7565 38.904 14.8806 37.1186 17.1324C35.0314 19.7635 33.3169 23.7458 32.0931 26.953C28.6297 36.0301 28.1466 47.1162 28.1192 56.79C28.1047 61.8649 27.6947 67.0723 27.1819 72.0854C26.6744 77.0413 25.4948 81.6631 24.6284 86.5492C22.561 98.2296 23.3909 110.084 23.0663 121.882C22.9687 125.428 24.4325 129.923 23.5044 133.308C23.1417 134.625 22.3073 135.239 21.2885 136.036C20.2155 136.875 19.3171 138.406 18.1909 139.047C16.8855 139.792 15.1238 139.25 13.6493 139.411C11.985 139.592 10.6866 140.532 9.34694 141.534C7.59354 142.844 6.34154 143.417 5.72279 140.751C5.12537 138.179 4.77027 134.971 5.28082 132.389C5.99863 128.761 7.43046 125.343 8.53615 121.836C10.6408 115.159 11.0241 107.523 11.8677 100.546C12.5017 95.3034 11.764 89.7746 12.11 84.464C12.3508 80.7975 12.8133 77.1389 13.0023 73.4255C13.4085 65.414 14.3366 57.4707 14.0082 49.5069C13.4961 37.0425 10.8908 25.1574 8.80743 12.9477C8.46299 10.9205 8.90192 9.89133 9.33551 8.03544C9.64793 6.70086 9.55648 6.9421 9.41475 5.54641C9.26997 4.12613 8.48357 4.13166 9.65326 2.71853C12.2959 -0.474329 17.4075 2.30276 20.4 3.09462C23.5151 3.91981 27.5393 4.20786 30.7687 4.03568C31.7296 3.98332 40.2223 1.20228 40.5194 1.8656Z" fill="#F3D48C"/>
<path d="M12.9116 22.8913C12.0727 20.7759 7.54934 11.2965 9.96188 9.21689C11.098 8.23777 14.2017 10.5435 15.0079 11.6036C13.5357 9.66757 11.3983 7.85535 10.8847 5.32503C10.1105 1.51645 12.8659 3.14855 15.1603 3.69207C18.328 4.44267 21.9209 4.71882 24.8334 6.49932C22.593 6.26367 20.2087 5.14095 17.9082 5.10603C17.9844 6.59614 20.9486 8.06482 22.0558 8.72418C24.0721 9.92229 26.112 10.4031 28.3874 10.8141C30.1499 11.1323 33.0311 11.1006 34.3425 12.501C33.2559 14.249 31.2869 15.2305 29.3498 15.3638C28.2655 15.4392 24.3289 15.3051 23.7665 14.2958C25.2235 16.9039 25.3873 21.2758 21.911 17.3815C21.6817 18.4527 22.4277 18.6479 22.465 19.5072C22.5298 20.9901 22.3393 20.3602 21.7548 21.8368C20.6057 24.7305 20.1363 29.2682 20.4106 32.1191C19.8391 29.123 19.7903 26.2983 19.6638 23.534C19.5465 20.9624 17.486 17.5728 15.3646 16.4143C15.485 16.6976 15.6404 17.0094 15.7791 17.3006C14.6391 15.6153 13.1006 13.669 11.2901 12.7573C11.6391 14.3156 18.1924 21.421 16.1449 22.1359C16.5838 23.6181 16.1136 25.9992 16.2698 27.4655C16.5205 29.838 17.4875 32.4278 17.9165 34.8423C19.4871 43.6266 18.1345 52.8711 18.5307 61.8093C18.7517 66.8121 18.6816 72.0766 18.3829 77.1373C17.9813 83.9633 16.356 91.3163 17.0441 98.1058C17.8175 105.744 15.9338 112.29 14.3816 119.62C13.5792 123.409 8.84477 132.453 13.0198 135.784C13.6096 135.047 14.3899 134.694 15.0857 135.178C15.3928 133.841 15.6694 132.24 15.8561 130.83C15.9948 132.83 16.6897 133.682 15.5634 135.283C14.8731 136.262 12.1664 138.961 11.2101 139.181C11.5118 139.111 10.8976 128.716 7.73603 130.65C7.12794 126.557 9.30121 120.749 10.4343 116.797C11.3975 113.431 13.0831 110.184 13.3224 106.681C13.8703 98.6327 13.9693 90.7275 14.5157 82.7017C15.1702 73.0597 15.52 63.6351 15.6046 53.9026C15.6587 47.8906 15.5734 41.7262 15.1329 35.7412C14.8403 31.7597 14.377 26.5903 12.9116 22.8913Z" fill="#DCC06D"/>
<path d="M25.8689 29.2436C25.9406 28.7731 26.1387 28.5557 26.4587 28.5898C26.5921 32.9253 25.3576 38.6389 23.5776 42.5006C23.6545 40.0806 23.7467 37.8494 24.1285 35.4508C24.3708 33.9337 25.3447 30.7925 25.0048 29.2801C24.6086 27.5195 22.4216 27.1878 22.958 24.982C23.5448 25.8976 24.8936 28.1542 26.3673 28.0773C27.5896 28.0114 27.6802 25.6723 29.4458 27.2648C29.5952 26.8792 29.9381 26.3872 30.0067 25.9461C29.074 28.9287 28.8591 32.2445 27.7214 35.1406C27.8334 32.9379 29.1776 29.7776 27.7862 27.8416" fill="#DCC06D"/>
<path d="M11.2977 7.20231C10.7323 6.71593 9.5862 4.70375 9.83005 3.88332C10.3452 2.14248 10.7856 3.46677 11.8029 3.02085C8.98498 4.25546 15.28 8.23621 16.1098 9.27564C15.3425 8.62421 13.8146 8.41077 13.5936 9.78186C13.3681 11.1871 15.4735 12.4137 16.3681 13.0429C17.7611 14.0205 18.4279 14.9766 19.609 16.0541C17.1042 13.7713 14.5004 11.6211 11.6779 9.86278C11.7671 10.0215 11.8113 10.1928 11.8067 10.3761C11.2916 9.81198 10.6218 9.76598 9.98474 9.5819C9.86739 10.0024 9.65936 10.4317 9.64336 10.8673C9.82853 9.54698 10.2316 7.97196 11.2977 7.20231Z" fill="#CCB25C"/>
<path d="M15.1009 85.3391C15.0247 90.8243 14.2657 96.2586 13.8962 101.718C13.5807 106.397 12.1283 110.811 11.6109 115.3C12.3843 108.502 13.3445 101.822 13.3955 94.9653C13.4184 91.7074 12.6579 85.6256 14.5042 83.0628C14.9576 84.3196 14.8746 85.7002 14.8167 87.0387" fill="#CCB25C"/>
<path d="M13.6348 136.401C11.9866 136.545 10.8313 137.877 9.84834 138.915C9.76528 137.594 10.3459 134.95 9.56563 133.795C8.22601 131.805 7.7871 133.96 7.87168 135.48C5.28235 133.902 7.20492 128.729 8.81125 127.069C9.94055 130.313 9.87273 134.902 12.8111 137.245" fill="#CCB25C"/>
<path d="M20.7764 128.797C21.3807 130.908 23.2545 134.977 19.676 134.144C20.419 132.304 20.7848 130.76 19.9588 128.79" fill="#CCB25C"/>
<path d="M13.7811 33.6481C13.6851 32.3754 13.5296 31.1289 13.2698 29.9324C12.8126 27.8202 11.6284 25.9103 11.3472 23.7783C11.1666 22.3929 11.3785 20.8854 11.2139 19.4572C11.0759 18.2567 10.855 12.4637 9.34922 12.0892C9.67993 12.1701 10.3734 12.6113 10.6431 12.8708C8.00731 16.719 13.0892 21.0171 14.0417 24.4305C15.4164 29.3658 14.8555 34.5955 15.3646 39.6434C16.1868 47.8105 15.6191 56.1044 15.5299 64.2643C15.5871 58.0436 14.9333 51.8523 14.2383 45.6816C13.804 41.8342 14.0821 37.6082 13.7811 33.6481Z" fill="#CCB25C"/>
<path d="M40.5194 1.8656L40.8117 1.7353L40.8115 1.73477L40.5194 1.8656ZM40.5004 9.76836L40.8199 9.78653L40.8199 9.78615L40.5004 9.76836ZM37.1186 17.1324L37.3693 17.3313L37.3693 17.3312L37.1186 17.1324ZM32.0931 26.953L31.7941 26.8389L31.7941 26.8389L32.0931 26.953ZM28.1192 56.79L28.4392 56.7909L28.4392 56.7909L28.1192 56.79ZM27.1819 72.0854L27.5002 72.118L27.5002 72.1179L27.1819 72.0854ZM24.6284 86.5492L24.3133 86.4933L24.3133 86.4934L24.6284 86.5492ZM23.0663 121.882L22.7464 121.874L22.7464 121.874L23.0663 121.882ZM23.5044 133.308L23.8129 133.393L23.813 133.393L23.5044 133.308ZM21.2885 136.036L21.4855 136.288L21.4857 136.288L21.2885 136.036ZM18.1909 139.047L18.0326 138.769L18.0322 138.769L18.1909 139.047ZM13.6493 139.411L13.6839 139.73L13.684 139.729L13.6493 139.411ZM9.34694 141.534L9.53846 141.79L9.53862 141.79L9.34694 141.534ZM5.72279 140.751L6.0345 140.678L6.03448 140.678L5.72279 140.751ZM5.28082 132.389L4.9669 132.327L4.96689 132.327L5.28082 132.389ZM8.53615 121.836L8.84134 121.932L8.84134 121.932L8.53615 121.836ZM11.8677 100.546L11.55 100.507L11.55 100.507L11.8677 100.546ZM12.11 84.464L11.7907 84.443L11.7907 84.4432L12.11 84.464ZM13.0023 73.4255L13.3219 73.4418L13.3219 73.4417L13.0023 73.4255ZM14.0082 49.5069L13.6884 49.52L13.6884 49.52L14.0082 49.5069ZM8.80743 12.9477L8.49195 13.0013L8.49198 13.0016L8.80743 12.9477ZM9.33551 8.03544L9.02393 7.9625L9.0239 7.96264L9.33551 8.03544ZM9.41475 5.54641L9.73311 5.51408L9.7331 5.51396L9.41475 5.54641ZM9.65326 2.71853L9.89977 2.92257L9.89978 2.92256L9.65326 2.71853ZM20.4 3.09462L20.4819 2.78529L20.4818 2.78527L20.4 3.09462ZM30.7687 4.03568L30.7857 4.35523L30.7861 4.35521L30.7687 4.03568ZM12.9116 22.8913L13.2091 22.7734L13.2091 22.7733L12.9116 22.8913ZM9.96188 9.21689L9.75298 8.97448L9.75295 8.97451L9.96188 9.21689ZM15.0079 11.6036L14.7532 11.7973L15.2627 11.4099L15.0079 11.6036ZM10.8847 5.32503L11.1983 5.26137L11.1983 5.26128L10.8847 5.32503ZM15.1603 3.69207L15.2341 3.38069L15.2341 3.38068L15.1603 3.69207ZM24.8334 6.49932L24.7999 6.81757L25.0003 6.2263L24.8334 6.49932ZM17.9082 5.10603L17.913 4.78607L17.5711 4.78088L17.5886 5.12238L17.9082 5.10603ZM22.0558 8.72418L21.8921 8.99912L21.8924 8.99927L22.0558 8.72418ZM28.3874 10.8141L28.3305 11.129L28.3306 11.129L28.3874 10.8141ZM34.3425 12.501L34.6143 12.67L34.7439 12.4615L34.5761 12.2823L34.3425 12.501ZM29.3498 15.3638L29.3279 15.0445L29.3276 15.0445L29.3498 15.3638ZM23.7665 14.2958L24.0459 14.1397L23.487 14.4515L23.7665 14.2958ZM21.911 17.3815L22.1498 17.1684L21.7301 16.6983L21.5981 17.3145L21.911 17.3815ZM22.465 19.5072L22.1453 19.5211L22.1453 19.5211L22.465 19.5072ZM21.7548 21.8368L22.0522 21.9549L22.0524 21.9545L21.7548 21.8368ZM20.4106 32.1191L20.0963 32.1791L20.7292 32.0885L20.4106 32.1191ZM19.6638 23.534L19.3442 23.5485L19.3442 23.5486L19.6638 23.534ZM15.3646 16.4143L15.5179 16.1335L14.7099 15.6923L15.0701 16.5395L15.3646 16.4143ZM15.7791 17.3006L15.514 17.4799L16.068 17.163L15.7791 17.3006ZM11.2901 12.7573L11.434 12.4715L10.83 12.1674L10.9778 12.8272L11.2901 12.7573ZM16.1449 22.1359L16.0394 21.8338L15.7514 21.9343L15.838 22.2268L16.1449 22.1359ZM16.2698 27.4655L16.5881 27.4319L16.588 27.4316L16.2698 27.4655ZM17.9165 34.8423L17.6015 34.8982L17.6015 34.8986L17.9165 34.8423ZM18.5307 61.8093L18.8504 61.7952L18.8504 61.7952L18.5307 61.8093ZM18.3829 77.1373L18.0635 77.1184L18.0635 77.1185L18.3829 77.1373ZM17.0441 98.1058L17.3624 98.0736L17.3624 98.0736L17.0441 98.1058ZM14.3816 119.62L14.0685 119.553L14.0685 119.553L14.3816 119.62ZM13.0198 135.784L12.8203 136.034L13.0701 136.233L13.2697 135.984L13.0198 135.784ZM15.0857 135.178L14.9027 135.441L15.2915 135.712L15.3976 135.25L15.0857 135.178ZM15.8561 130.83L16.1753 130.808L15.5388 130.788L15.8561 130.83ZM15.5634 135.283L15.825 135.467L15.8252 135.467L15.5634 135.283ZM11.2101 139.181L11.1379 138.87L11.282 139.493L11.2101 139.181ZM7.73603 130.65L7.4195 130.697L7.49057 131.175L7.90304 130.923L7.73603 130.65ZM10.4343 116.797L10.7419 116.885L10.742 116.885L10.4343 116.797ZM13.3224 106.681L13.6416 106.703L13.6416 106.703L13.3224 106.681ZM14.5157 82.7017L14.8349 82.7235L14.8349 82.7234L14.5157 82.7017ZM15.6046 53.9026L15.2846 53.8997L15.2846 53.8998L15.6046 53.9026ZM15.1329 35.7412L14.8138 35.7647L14.8138 35.7647L15.1329 35.7412ZM26.4587 28.5898L26.7786 28.58L26.77 28.3012L26.4927 28.2716L26.4587 28.5898ZM23.5776 42.5006L23.2577 42.4905L23.8682 42.6346L23.5776 42.5006ZM24.1285 35.4508L23.8125 35.4003L23.8125 35.4005L24.1285 35.4508ZM25.0048 29.2801L25.317 29.21L25.317 29.2099L25.0048 29.2801ZM22.958 24.982L23.2275 24.8094L22.8239 24.1795L22.6471 24.9064L22.958 24.982ZM26.3673 28.0773L26.384 28.3968L26.3845 28.3968L26.3673 28.0773ZM29.4458 27.2648L29.2315 27.5024L29.5765 27.8135L29.7442 27.3804L29.4458 27.2648ZM30.0067 25.9461L30.3229 25.9952L29.7013 25.8506L30.0067 25.9461ZM27.7214 35.1406L27.4018 35.1243L28.0192 35.2576L27.7214 35.1406ZM11.2977 7.20231L11.485 7.46176L11.8139 7.22429L11.5064 6.95972L11.2977 7.20231ZM9.83005 3.88332L10.1368 3.97448L10.1369 3.97411L9.83005 3.88332ZM11.8029 3.02085L11.9314 3.31393L11.6745 2.72775L11.8029 3.02085ZM16.1098 9.27564L15.9027 9.51959L16.3599 9.07598L16.1098 9.27564ZM13.5936 9.78186L13.2777 9.73094L13.2777 9.73114L13.5936 9.78186ZM16.3681 13.0429L16.184 13.3047L16.1843 13.3049L16.3681 13.0429ZM19.609 16.0541L19.3934 16.2906L19.8247 15.8177L19.609 16.0541ZM11.6779 9.86278L11.8471 9.59117L11.399 10.0195L11.6779 9.86278ZM11.8067 10.3761L11.5704 10.5919L12.1068 11.1793L12.1266 10.3841L11.8067 10.3761ZM9.98474 9.5819L10.0736 9.27448L9.76332 9.18482L9.67652 9.49589L9.98474 9.5819ZM9.64336 10.8673L9.32357 10.8555L9.96026 10.9117L9.64336 10.8673ZM13.8962 101.718L13.5769 101.697L13.5769 101.697L13.8962 101.718ZM11.6109 115.3L11.2929 115.264L11.9288 115.337L11.6109 115.3ZM13.3955 94.9653L13.7155 94.9677L13.7155 94.9676L13.3955 94.9653ZM14.5042 83.0628L14.8053 82.9542L14.5993 82.3833L14.2446 82.8757L14.5042 83.0628ZM9.84834 138.915L9.52897 138.935L9.57513 139.668L10.0807 139.135L9.84834 138.915ZM9.56563 133.795L9.30021 133.973L9.30046 133.974L9.56563 133.795ZM7.87168 135.48L7.70514 135.753L8.22501 136.07L8.19119 135.462L7.87168 135.48ZM8.81125 127.069L9.11345 126.964L8.94262 126.473L8.58129 126.847L8.81125 127.069ZM19.676 134.144L19.3793 134.024L19.2393 134.371L19.6035 134.455L19.676 134.144ZM13.7811 33.6481L13.462 33.6722L13.462 33.6723L13.7811 33.6481ZM13.2698 29.9324L12.957 30.0001L12.9571 30.0003L13.2698 29.9324ZM11.3472 23.7783L11.0299 23.8197L11.03 23.8202L11.3472 23.7783ZM11.2139 19.4572L10.896 19.4937L10.896 19.4938L11.2139 19.4572ZM9.34922 12.0892L9.42528 11.7783L9.27198 12.3997L9.34922 12.0892ZM10.6431 12.8708L10.9071 13.0516L11.0603 12.828L10.8649 12.6401L10.6431 12.8708ZM14.0417 24.4305L14.35 24.3447L14.3499 24.3445L14.0417 24.4305ZM15.3646 39.6434L15.683 39.6114L15.6829 39.6113L15.3646 39.6434ZM15.5299 64.2643L15.2099 64.2613L15.8499 64.2678L15.5299 64.2643ZM14.2383 45.6816L14.5563 45.6458L14.5563 45.6457L14.2383 45.6816ZM40.5194 1.8656L40.2272 1.99591C40.6466 2.93657 40.681 4.289 40.5779 5.7332C40.5269 6.44774 40.4439 7.16851 40.3652 7.85447C40.2868 8.53657 40.2122 9.18844 40.1809 9.75057L40.5004 9.76836L40.8199 9.78615C40.8499 9.24657 40.9221 8.61484 41.001 7.92747C41.0795 7.24396 41.1641 6.5094 41.2163 5.77877C41.3195 4.33264 41.3022 2.83539 40.8117 1.7353L40.5194 1.8656ZM40.5004 9.76836L40.1809 9.75019C40.017 12.6333 38.6464 14.6904 36.8678 16.9336L37.1186 17.1324L37.3693 17.3312C39.1615 15.0708 40.644 12.8797 40.8199 9.78653L40.5004 9.76836ZM37.1186 17.1324L36.8679 16.9335C34.7469 19.6073 33.0178 23.632 31.7941 26.8389L32.0931 26.953L32.392 27.0671C33.6159 23.8597 35.3159 19.9197 37.3693 17.3313L37.1186 17.1324ZM32.0931 26.953L31.7941 26.8389C28.3077 35.9763 27.8266 47.1159 27.7992 56.7891L28.1192 56.79L28.4392 56.7909C28.4666 47.1165 28.9517 36.0838 32.3921 27.0671L32.0931 26.953ZM28.1192 56.79L27.7992 56.7891C27.7847 61.8485 27.376 67.0439 26.8636 72.0528L27.1819 72.0854L27.5002 72.1179C28.0135 67.1007 28.4246 61.8813 28.4392 56.7909L28.1192 56.79ZM27.1819 72.0854L26.8636 72.0528C26.3575 76.9949 25.1854 81.5752 24.3133 86.4933L24.6284 86.5492L24.9435 86.6051C25.8042 81.751 26.9913 77.0876 27.5002 72.118L27.1819 72.0854ZM24.6284 86.5492L24.3133 86.4934C22.2405 98.2045 23.0698 110.117 22.7464 121.874L23.0663 121.882L23.3861 121.891C23.7119 110.05 22.8816 98.2547 24.9435 86.605L24.6284 86.5492ZM23.0663 121.882L22.7464 121.874C22.6967 123.678 23.0443 125.729 23.2791 127.694C23.5169 129.684 23.6416 131.598 23.1958 133.224L23.5044 133.308L23.813 133.393C24.2953 131.634 24.1522 129.607 23.9145 127.618C23.6738 125.603 23.3382 123.633 23.3861 121.891L23.0663 121.882ZM23.5044 133.308L23.1959 133.223C22.8653 134.424 22.122 134.977 21.0912 135.784L21.2885 136.036L21.4857 136.288C22.4925 135.5 23.4181 134.827 23.8129 133.393L23.5044 133.308ZM21.2885 136.036L21.0914 135.784C20.525 136.227 20.0073 136.85 19.5194 137.404C19.0162 137.976 18.5426 138.479 18.0326 138.769L18.1909 139.047L18.3492 139.325C18.9654 138.975 19.5041 138.391 19.9999 137.827C20.5111 137.246 20.979 136.684 21.4855 136.288L21.2885 136.036ZM18.1909 139.047L18.0322 138.769C17.4607 139.096 16.7706 139.15 15.9925 139.128C15.2462 139.107 14.3803 139.01 13.6145 139.093L13.6493 139.411L13.684 139.729C14.3928 139.652 15.1449 139.745 15.9745 139.768C16.7723 139.791 17.6157 139.744 18.3495 139.325L18.1909 139.047ZM13.6493 139.411L13.6147 139.093C11.8512 139.285 10.4865 140.282 9.15525 141.278L9.34694 141.534L9.53862 141.79C10.8866 140.782 12.1189 139.9 13.6839 139.73L13.6493 139.411ZM9.34694 141.534L9.15541 141.278C8.71999 141.603 8.32949 141.872 7.97914 142.056C7.62485 142.242 7.34471 142.323 7.12316 142.314C6.92296 142.305 6.73769 142.221 6.55698 141.987C6.36585 141.739 6.18483 141.326 6.0345 140.678L5.72279 140.751L5.41107 140.823C5.57012 141.508 5.77763 142.024 6.05007 142.377C6.33293 142.744 6.68627 142.935 7.09559 142.953C7.48355 142.97 7.88385 142.829 8.27678 142.622C8.67366 142.414 9.09719 142.12 9.53846 141.79L9.34694 141.534ZM5.72279 140.751L6.03448 140.678C5.44154 138.126 5.09687 134.969 5.59474 132.451L5.28082 132.389L4.96689 132.327C4.44366 134.973 4.80919 138.232 5.41109 140.823L5.72279 140.751ZM5.28082 132.389L5.59473 132.451C6.30824 128.845 7.72351 125.477 8.84134 121.932L8.53615 121.836L8.23095 121.739C7.13741 125.208 5.68903 128.677 4.9669 132.327L5.28082 132.389ZM8.53615 121.836L8.84134 121.932C10.9579 115.217 11.3458 107.528 12.1854 100.584L11.8677 100.546L11.55 100.507C10.7024 107.517 10.3238 115.1 8.23095 121.739L8.53615 121.836ZM11.8677 100.546L12.1854 100.584C12.5054 97.9378 12.4787 95.2244 12.4168 92.5231C12.3547 89.8148 12.2575 87.1225 12.4293 84.4848L12.11 84.464L11.7907 84.4432C11.6165 87.1162 11.7152 89.8435 11.7769 92.5378C11.8389 95.2392 11.8639 97.9113 11.55 100.507L11.8677 100.546ZM12.11 84.464L12.4293 84.485C12.5494 82.657 12.7247 80.8308 12.8942 78.9917C13.0636 77.1545 13.2271 75.3057 13.3219 73.4418L13.0023 73.4255L12.6827 73.4092C12.5886 75.2587 12.4263 77.0959 12.2569 78.933C12.0878 80.7681 11.9114 82.6045 11.7907 84.443L12.11 84.464ZM13.0023 73.4255L13.3219 73.4417C13.7266 65.4588 14.6571 57.4767 14.3279 49.4937L14.0082 49.5069L13.6884 49.52C14.0161 57.4648 13.0903 65.3693 12.6827 73.4093L13.0023 73.4255ZM14.0082 49.5069L14.3279 49.4937C13.8147 37.0024 11.2029 25.0841 9.12287 12.8939L8.80743 12.9477L8.49198 13.0016C10.5787 25.2307 13.1775 37.0827 13.6884 49.52L14.0082 49.5069ZM8.80743 12.9477L9.1229 12.8941C8.79202 10.9466 9.20612 9.99587 9.64712 8.10824L9.33551 8.03544L9.0239 7.96264C8.59773 9.78679 8.13397 10.8943 8.49195 13.0013L8.80743 12.9477ZM9.33551 8.03544L9.64708 8.10838C9.80117 7.45016 9.8672 7.13811 9.86543 6.8121C9.86456 6.65111 9.84736 6.49216 9.82376 6.29787C9.79984 6.10093 9.76813 5.85893 9.73311 5.51408L9.41475 5.54641L9.09639 5.57874C9.13223 5.93173 9.1651 6.18297 9.18843 6.37503C9.21208 6.56975 9.22479 6.69559 9.22544 6.81558C9.22672 7.05152 9.18227 7.28614 9.02393 7.9625L9.33551 8.03544ZM9.41475 5.54641L9.7331 5.51396C9.69369 5.12734 9.6101 4.83661 9.52918 4.60039C9.44264 4.34779 9.38383 4.21625 9.35521 4.06881C9.33231 3.95085 9.33434 3.8374 9.39912 3.67607C9.46939 3.50109 9.61515 3.26643 9.89977 2.92257L9.65326 2.71853L9.40675 2.51448C9.10653 2.87719 8.91196 3.17177 8.80522 3.43758C8.693 3.71704 8.68135 3.95593 8.72694 4.19077C8.76681 4.39613 8.85864 4.61783 8.92372 4.8078C8.99441 5.01416 9.06342 5.25535 9.0964 5.57886L9.41475 5.54641ZM9.65326 2.71853L9.89978 2.92256C11.1053 1.46604 12.8855 1.33892 14.833 1.72616C15.8019 1.91881 16.787 2.23441 17.7265 2.55559C18.6567 2.87362 19.5555 3.20217 20.3181 3.40397L20.4 3.09462L20.4818 2.78527C19.7482 2.59114 18.8859 2.2756 17.9335 1.95C16.9903 1.62754 15.9712 1.29994 14.9579 1.09845C12.9408 0.697389 10.8439 0.778156 9.40675 2.51449L9.65326 2.71853ZM20.4 3.09462L20.318 3.40395C23.4723 4.23953 27.531 4.52876 30.7857 4.35523L30.7687 4.03568L30.7517 3.71614C27.5475 3.88697 23.5578 3.60009 20.4819 2.78529L20.4 3.09462ZM30.7687 4.03568L30.7861 4.35521C30.9418 4.34672 31.2102 4.28894 31.5277 4.21096C31.857 4.13008 32.2723 4.01876 32.7408 3.88975C33.6829 3.63034 34.8354 3.30085 35.9768 2.99109C37.1165 2.68177 38.2266 2.39732 39.0676 2.23142C39.4901 2.14807 39.8315 2.09739 40.07 2.08588C40.1913 2.08003 40.2673 2.08543 40.3076 2.09364C40.3694 2.10623 40.2768 2.10669 40.2274 1.99644L40.5194 1.8656L40.8115 1.73477C40.7249 1.5416 40.5312 1.48605 40.4354 1.46653C40.3182 1.44263 40.1803 1.43981 40.0391 1.44662C39.7525 1.46045 39.3741 1.51862 38.9437 1.60352C38.0787 1.77415 36.9498 2.06386 35.8091 2.37343C34.6701 2.68255 33.5007 3.01668 32.5709 3.27272C32.1034 3.40144 31.6953 3.51079 31.375 3.58943C31.043 3.67098 30.8358 3.71155 30.7513 3.71616L30.7687 4.03568ZM12.9116 22.8913L13.2091 22.7733C12.7793 21.6896 11.4523 18.8247 10.522 15.9424C10.0575 14.5035 9.70092 13.0851 9.60597 11.9077C9.50893 10.7042 9.69488 9.86953 10.1708 9.45927L9.96188 9.21689L9.75295 8.97451C9.02261 9.60407 8.86927 10.7342 8.96804 11.9591C9.06892 13.2101 9.4432 14.6837 9.91291 16.139C10.8509 19.0451 12.205 21.9776 12.6142 23.0092L12.9116 22.8913ZM9.96188 9.21689L10.1708 9.4593C10.3448 9.30929 10.6295 9.25449 11.052 9.34115C11.4682 9.42652 11.9542 9.63797 12.449 9.92287C13.4426 10.495 14.3831 11.3106 14.7532 11.7973L15.0079 11.6036L15.2627 11.4099C14.8266 10.8365 13.8121 9.96923 12.7683 9.36823C12.2444 9.06658 11.6911 8.81891 11.1806 8.7142C10.6764 8.61078 10.147 8.63493 9.75298 8.97448L9.96188 9.21689ZM15.0079 11.6036L15.2627 11.4099C14.8877 10.9168 14.4716 10.4332 14.0571 9.95263C13.6405 9.46953 13.225 8.98905 12.8399 8.49134C12.0695 7.49568 11.4408 6.45621 11.1983 5.26137L10.8847 5.32503L10.5711 5.38868C10.8421 6.72417 11.539 7.85596 12.3338 8.88301C12.7312 9.39664 13.1583 9.89036 13.5725 10.3706C13.9889 10.8534 14.3921 11.3224 14.7532 11.7973L15.0079 11.6036ZM10.8847 5.32503L11.1983 5.26128C11.0072 4.3215 11.0552 3.80141 11.1902 3.52875C11.3015 3.30411 11.5011 3.19656 11.8718 3.19651C12.2586 3.19647 12.7523 3.31823 13.3239 3.48895C13.8768 3.65412 14.5012 3.86477 15.0866 4.00345L15.1603 3.69207L15.2341 3.38068C14.6723 3.2476 14.0919 3.05042 13.507 2.87573C12.9408 2.70659 12.3638 2.55645 11.8717 2.55651C11.3635 2.55658 10.8761 2.72114 10.6167 3.24466C10.3812 3.72016 10.375 4.42427 10.5711 5.38877L10.8847 5.32503ZM15.1603 3.69207L15.0866 4.00345C15.8862 4.19293 16.7114 4.35216 17.5381 4.51122C18.3671 4.67071 19.198 4.83009 20.0201 5.02117C21.6647 5.40341 23.2528 5.90808 24.6665 6.77234L24.8334 6.49932L25.0003 6.2263C23.5016 5.31006 21.837 4.78641 20.165 4.39779C19.3289 4.20345 18.4856 4.04178 17.659 3.88274C16.8302 3.72328 16.0183 3.56651 15.2341 3.38069L15.1603 3.69207ZM24.8334 6.49932L24.8668 6.18108C23.7786 6.06661 22.6532 5.73642 21.4768 5.41848C20.3145 5.10435 19.108 4.80421 17.913 4.78607L17.9082 5.10603L17.9033 5.426C19.0089 5.44278 20.1448 5.72145 21.3099 6.03632C22.4609 6.34739 23.6478 6.69638 24.7999 6.81757L24.8334 6.49932ZM17.9082 5.10603L17.5886 5.12238C17.6128 5.59641 17.863 6.03366 18.1895 6.41532C18.5193 6.80073 18.9548 7.1619 19.4092 7.48691C20.3124 8.13293 21.3607 8.68269 21.8921 8.99912L22.0558 8.72418L22.2195 8.44924C21.6437 8.1063 20.6563 7.59205 19.7815 6.96636C19.3469 6.65552 18.9579 6.32892 18.6758 5.99925C18.3906 5.66584 18.2416 5.36071 18.2278 5.08969L17.9082 5.10603ZM22.0558 8.72418L21.8924 8.99927C23.96 10.2279 26.0471 10.7165 28.3305 11.129L28.3874 10.8141L28.4443 10.4992C26.177 10.0897 24.1842 9.61667 22.2193 8.44908L22.0558 8.72418ZM28.3874 10.8141L28.3306 11.129C28.7832 11.2107 29.3055 11.2697 29.8395 11.3328C30.3783 11.3965 30.9348 11.465 31.4752 11.5662C32.5696 11.7712 33.5279 12.0992 34.109 12.7197L34.3425 12.501L34.5761 12.2823C33.8458 11.5024 32.7078 11.146 31.5931 10.9372C31.0289 10.8315 30.4528 10.7608 29.9146 10.6972C29.3716 10.633 28.8729 10.5766 28.4443 10.4992L28.3874 10.8141ZM34.3425 12.501L34.0708 12.3321C33.0475 13.9782 31.1807 14.917 29.3279 15.0445L29.3498 15.3638L29.3718 15.683C31.393 15.5439 33.4643 14.5198 34.6143 12.67L34.3425 12.501ZM29.3498 15.3638L29.3276 15.0445C28.8085 15.0806 27.5742 15.067 26.4025 14.919C25.8168 14.8451 25.2611 14.7393 24.8239 14.5951C24.6054 14.5231 24.426 14.4445 24.2905 14.3616C24.1527 14.2773 24.0797 14.2003 24.0461 14.14L23.7665 14.2958L23.487 14.4515C23.594 14.6436 23.767 14.7916 23.9564 14.9075C24.148 15.0247 24.3769 15.1217 24.6235 15.203C25.1165 15.3655 25.7181 15.4777 26.3224 15.554C27.5307 15.7066 28.8069 15.7223 29.372 15.683L29.3498 15.3638ZM23.7665 14.2958L23.4872 14.4518C23.8355 15.0753 24.1087 15.809 24.2684 16.4981C24.4301 17.1957 24.4667 17.8095 24.3767 18.2063C24.3318 18.4041 24.2643 18.5092 24.2054 18.5582C24.1601 18.5958 24.0879 18.6281 23.9397 18.5962C23.7794 18.5617 23.5499 18.4538 23.2426 18.2195C22.9386 17.9878 22.5759 17.6459 22.1498 17.1684L21.911 17.3815L21.6723 17.5947C22.1152 18.0908 22.5078 18.4641 22.8546 18.7285C23.198 18.9903 23.5147 19.1594 23.8051 19.2219C24.1077 19.287 24.3908 19.2363 24.6146 19.0503C24.8247 18.8755 24.94 18.6161 25.0008 18.3478C25.1223 17.8124 25.062 17.0876 24.8919 16.3536C24.7197 15.6111 24.4261 14.8203 24.0459 14.1397L23.7665 14.2958ZM21.911 17.3815L21.5981 17.3145C21.5325 17.6211 21.5339 17.8796 21.5824 18.1105C21.6304 18.3391 21.7211 18.5236 21.8088 18.6802C21.9903 19.0041 22.1308 19.1868 22.1453 19.5211L22.465 19.5072L22.7847 19.4933C22.7619 18.9683 22.5108 18.6237 22.3672 18.3674C22.2924 18.2339 22.2373 18.1151 22.2088 17.979C22.1807 17.8452 22.1749 17.6776 22.2239 17.4486L21.911 17.3815ZM22.465 19.5072L22.1453 19.5211C22.178 20.2694 22.1374 20.3985 22.0706 20.5245C21.9857 20.6849 21.7564 20.9634 21.4573 21.719L21.7548 21.8368L22.0524 21.9545C22.3377 21.2336 22.4959 21.0888 22.6361 20.8242C22.7945 20.5253 22.8168 20.228 22.7847 19.4932L22.465 19.5072ZM21.7548 21.8368L21.4574 21.7187C20.2866 24.6672 19.8138 29.2571 20.0921 32.1498L20.4106 32.1191L20.7292 32.0885C20.4589 29.2794 20.9249 24.7939 22.0522 21.9549L21.7548 21.8368ZM20.4106 32.1191L20.725 32.0592C20.1588 29.0914 20.1106 26.2955 19.9835 23.5193L19.6638 23.534L19.3442 23.5486C19.4701 26.3012 19.5194 29.1547 20.0963 32.1791L20.4106 32.1191ZM19.6638 23.534L19.9835 23.5194C19.9217 22.1639 19.3523 20.6216 18.5395 19.2785C17.7276 17.9369 16.6456 16.7493 15.5179 16.1335L15.3646 16.4143L15.2112 16.6952C16.2049 17.2378 17.2139 18.3242 17.992 19.6099C18.7691 20.8941 19.2887 22.3324 19.3442 23.5485L19.6638 23.534ZM15.3646 16.4143L15.0701 16.5395C15.194 16.8311 15.3553 17.1549 15.4902 17.4382L15.7791 17.3006L16.068 17.163C15.9256 16.8639 15.7759 16.5641 15.6591 16.2892L15.3646 16.4143ZM15.7791 17.3006L16.0442 17.1213C14.9033 15.4347 13.3254 13.4239 11.434 12.4715L11.2901 12.7573L11.1462 13.0431C12.8759 13.9141 14.3749 15.7959 15.514 17.4799L15.7791 17.3006ZM11.2901 12.7573L10.9778 12.8272C11.0341 13.0786 11.201 13.4002 11.4091 13.744C11.6236 14.0986 11.9054 14.5141 12.2222 14.9639C12.8651 15.8766 13.6367 16.9099 14.353 17.945C15.0663 18.9756 15.6865 19.955 16.0041 20.7119C16.165 21.0952 16.2306 21.3818 16.219 21.5723C16.2136 21.6617 16.192 21.7142 16.1697 21.746C16.1491 21.7754 16.1133 21.808 16.0394 21.8338L16.1449 22.1359L16.2504 22.438C16.4323 22.3745 16.5854 22.2678 16.6935 22.1138C16.7999 21.9622 16.8472 21.7872 16.8579 21.6109C16.8785 21.2699 16.7653 20.8719 16.5943 20.4642C16.248 19.6391 15.5921 18.6107 14.8793 17.5808C14.1697 16.5554 13.3654 15.4755 12.7454 14.5953C12.4308 14.1487 12.1593 13.7478 11.9567 13.4128C11.7475 13.067 11.6333 12.8256 11.6023 12.6874L11.2901 12.7573ZM16.1449 22.1359L15.838 22.2268C16.0401 22.9091 16.0371 23.8229 15.9937 24.7924C15.9516 25.7331 15.8702 26.7346 15.9516 27.4994L16.2698 27.4655L16.588 27.4316C16.5133 26.7302 16.5889 25.808 16.633 24.821C16.6759 23.8628 16.6886 22.8449 16.4517 22.0451L16.1449 22.1359ZM16.2698 27.4655L15.9516 27.4992C16.0798 28.7121 16.3902 29.9738 16.7168 31.2193C17.0456 32.473 17.3899 33.7073 17.6015 34.8982L17.9165 34.8423L18.2316 34.7863C18.0142 33.5628 17.6605 32.2949 17.3359 31.0569C17.0091 29.8108 16.7106 28.5914 16.5881 27.4319L16.2698 27.4655ZM17.9165 34.8423L17.6015 34.8986C18.381 39.2582 18.4363 43.7393 18.3441 48.2615C18.252 52.774 18.0123 57.3406 18.211 61.8235L18.5307 61.8093L18.8504 61.7952C18.6529 57.3398 18.8913 52.815 18.9839 48.2746C19.0763 43.7439 19.0226 39.2106 18.2316 34.7859L17.9165 34.8423ZM18.5307 61.8093L18.211 61.8235C18.4315 66.8139 18.3616 72.0673 18.0635 77.1184L18.3829 77.1373L18.7023 77.1561C19.0016 72.0859 19.0719 66.8102 18.8504 61.7952L18.5307 61.8093ZM18.3829 77.1373L18.0635 77.1185C17.8632 80.5224 17.3589 84.0446 16.9866 87.6019C16.6155 91.1472 16.3782 94.7095 16.7257 98.1381L17.0441 98.1058L17.3624 98.0736C17.0218 94.7126 17.2531 91.2037 17.6231 87.6685C17.9918 84.1455 18.501 80.5782 18.7023 77.1561L18.3829 77.1373ZM17.0441 98.1058L16.7257 98.1381C17.4927 105.714 15.6267 112.195 14.0685 119.553L14.3816 119.62L14.6946 119.686C16.2409 112.384 18.1422 105.775 17.3624 98.0736L17.0441 98.1058ZM14.3816 119.62L14.0685 119.553C13.873 120.476 13.4354 121.729 12.9405 123.172C12.4493 124.604 11.9081 126.207 11.5231 127.798C11.1388 129.388 10.9042 130.989 11.0399 132.416C11.1761 133.849 11.6891 135.131 12.8203 136.034L13.0198 135.784L13.2194 135.534C12.2631 134.771 11.8022 133.673 11.677 132.355C11.5512 131.032 11.7675 129.511 12.1452 127.949C12.5222 126.39 13.0541 124.813 13.5459 123.379C14.0338 121.957 14.4889 120.657 14.6946 119.686L14.3816 119.62ZM13.0198 135.784L13.2697 135.984C13.5407 135.645 13.8361 135.42 14.1152 135.326C14.3803 135.237 14.6427 135.26 14.9027 135.441L15.0857 135.178L15.2686 134.916C14.8329 134.612 14.3573 134.569 13.9109 134.72C13.4784 134.865 13.0888 135.185 12.77 135.584L13.0198 135.784ZM15.0857 135.178L15.3976 135.25C15.7073 133.901 15.9855 132.29 16.1733 130.872L15.8561 130.83L15.5388 130.788C15.3532 132.19 15.0782 133.781 14.7738 135.107L15.0857 135.178ZM15.8561 130.83L15.5368 130.852C15.5727 131.369 15.6444 131.811 15.712 132.199C15.7804 132.594 15.8414 132.918 15.865 133.23C15.9099 133.821 15.8211 134.361 15.3017 135.099L15.5634 135.283L15.8252 135.467C16.4321 134.604 16.559 133.917 16.5032 133.182C16.4766 132.831 16.4082 132.468 16.3425 132.09C16.2759 131.706 16.2088 131.291 16.1753 130.808L15.8561 130.83ZM15.5634 135.283L15.3019 135.099C14.9759 135.561 14.1458 136.463 13.268 137.283C12.8316 137.691 12.3912 138.071 12.0046 138.361C11.8112 138.506 11.6353 138.625 11.4828 138.714C11.3263 138.805 11.2117 138.853 11.1381 138.869L11.2101 139.181L11.282 139.493C11.4475 139.455 11.6267 139.37 11.8039 139.267C11.9853 139.162 12.183 139.027 12.3887 138.873C12.8001 138.564 13.2588 138.167 13.705 137.75C14.5921 136.921 15.4606 135.984 15.825 135.467L15.5634 135.283ZM11.2101 139.181L11.2822 139.493C11.3962 139.467 11.4595 139.391 11.4851 139.355C11.5132 139.315 11.5289 139.276 11.5376 139.251C11.5555 139.2 11.5656 139.145 11.5723 139.098C11.5863 138.999 11.594 138.87 11.597 138.722C11.6032 138.422 11.5911 138.008 11.5584 137.525C11.4931 136.559 11.3441 135.298 11.0846 134.097C10.8275 132.906 10.4532 131.732 9.91638 130.972C9.64642 130.591 9.3127 130.281 8.90055 130.153C8.47512 130.02 8.02448 130.098 7.56902 130.377L7.73603 130.65L7.90304 130.923C8.23798 130.718 8.49814 130.698 8.71027 130.764C8.93567 130.834 9.16628 131.02 9.39378 131.342C9.85186 131.99 10.2051 133.056 10.459 134.232C10.7106 135.396 10.8561 136.626 10.9199 137.568C10.9518 138.04 10.9628 138.434 10.9572 138.709C10.9543 138.848 10.9473 138.947 10.9387 139.008C10.9341 139.04 10.9309 139.047 10.9336 139.039C10.9347 139.036 10.9424 139.014 10.962 138.986C10.979 138.962 11.0333 138.894 11.1379 138.87L11.2101 139.181ZM7.73603 130.65L8.05255 130.603C7.7582 128.622 8.13577 126.198 8.74283 123.748C9.3506 121.295 10.1688 118.885 10.7419 116.885L10.4343 116.797L10.1267 116.709C9.56677 118.662 8.73174 121.132 8.12162 123.594C7.51079 126.059 7.10577 128.586 7.4195 130.697L7.73603 130.65ZM10.4343 116.797L10.742 116.885C11.221 115.211 11.8732 113.587 12.4526 111.894C13.027 110.216 13.5191 108.497 13.6416 106.703L13.3224 106.681L13.0031 106.66C12.8864 108.368 12.4161 110.024 11.8471 111.687C11.283 113.335 10.6109 115.017 10.1267 116.709L10.4343 116.797ZM13.3224 106.681L13.6416 106.703C13.9159 102.674 14.0778 98.6808 14.2393 94.6959C14.4009 90.7096 14.5621 86.7313 14.8349 82.7235L14.5157 82.7017L14.1964 82.68C13.9229 86.698 13.7614 90.6851 13.5999 94.67C13.4383 98.6563 13.2767 102.64 13.0031 106.66L13.3224 106.681ZM14.5157 82.7017L14.8349 82.7234C15.49 73.0748 15.84 63.6439 15.9246 53.9053L15.6046 53.9026L15.2846 53.8998C15.2001 63.6262 14.8505 73.0446 14.1964 82.6801L14.5157 82.7017ZM15.6046 53.9026L15.9246 53.9054C15.9787 47.8891 15.8934 41.7151 15.452 35.7177L15.1329 35.7412L14.8138 35.7647C15.2533 41.7374 15.3387 47.892 15.2846 53.8997L15.6046 53.9026ZM15.1329 35.7412L15.452 35.7178C15.1601 31.7455 14.6956 26.5258 13.2091 22.7734L12.9116 22.8913L12.6141 23.0091C14.0583 26.6548 14.5205 31.7738 14.8138 35.7647L15.1329 35.7412ZM25.8689 29.2436L26.1853 29.2918C26.2169 29.084 26.2702 28.984 26.308 28.9421C26.3303 28.9175 26.3549 28.9006 26.4248 28.908L26.4587 28.5898L26.4927 28.2716C26.2426 28.245 26.008 28.3197 25.8334 28.5128C25.6742 28.6888 25.5926 28.9327 25.5526 29.1955L25.8689 29.2436ZM26.4587 28.5898L26.1389 28.5997C26.2706 32.8829 25.0474 38.5475 23.2869 42.3667L23.5776 42.5006L23.8682 42.6346C25.6678 38.7303 26.9135 32.9676 26.7786 28.58L26.4587 28.5898ZM23.5776 42.5006L23.8974 42.5108C23.9743 40.091 24.0662 37.8778 24.4445 35.5011L24.1285 35.4508L23.8125 35.4005C23.4272 37.821 23.3347 40.0702 23.2577 42.4905L23.5776 42.5006ZM24.1285 35.4508L24.4445 35.5013C24.5032 35.1339 24.607 34.6634 24.7276 34.1298C24.8472 33.6002 24.9822 33.0131 25.0988 32.426C25.2154 31.8391 25.3153 31.2446 25.3641 30.6974C25.4124 30.1545 25.4128 29.6359 25.317 29.21L25.0048 29.2801L24.6926 29.3503C24.7668 29.6805 24.7728 30.1217 24.7266 30.6406C24.6808 31.155 24.5858 31.7242 24.4711 32.3013C24.3565 32.8782 24.2238 33.4554 24.1033 33.9888C23.9837 34.5181 23.875 35.0091 23.8125 35.4003L24.1285 35.4508ZM25.0048 29.2801L25.317 29.2099C25.0947 28.2222 24.3545 27.6142 23.8678 27.082C23.6123 26.8026 23.4103 26.5361 23.2961 26.226C23.1847 25.9233 23.1482 25.5544 23.269 25.0576L22.958 24.982L22.6471 24.9064C22.4997 25.5125 22.5354 26.0122 22.6955 26.4471C22.8529 26.8746 23.1218 27.2147 23.3955 27.5139C23.9673 28.1392 24.5186 28.5774 24.6926 29.3504L25.0048 29.2801ZM22.958 24.982L22.6886 25.1547C22.9764 25.6038 23.4755 26.4223 24.0909 27.1145C24.3994 27.4615 24.7474 27.7889 25.1254 28.026C25.5037 28.2632 25.9293 28.4206 26.384 28.3968L26.3673 28.0773L26.3506 27.7577C26.0684 27.7724 25.7728 27.6766 25.4654 27.4838C25.1576 27.2907 24.8554 27.0112 24.5692 26.6892C23.9951 26.0435 23.5264 25.2758 23.2275 24.8094L22.958 24.982ZM26.3673 28.0773L26.3845 28.3968C26.8023 28.3743 27.1071 28.1549 27.3396 27.9272C27.4552 27.814 27.5613 27.6903 27.6561 27.5794C27.7545 27.4644 27.8404 27.3636 27.9285 27.2761C28.1049 27.1006 28.2407 27.0287 28.3876 27.0306C28.5475 27.0327 28.811 27.1231 29.2315 27.5024L29.4458 27.2648L29.6602 27.0272C29.1979 26.6102 28.788 26.3958 28.396 26.3907C27.9912 26.3854 27.6969 26.6037 27.4772 26.8222C27.3672 26.9317 27.2635 27.0538 27.1698 27.1634C27.0726 27.277 26.9841 27.3795 26.8918 27.47C26.7083 27.6496 26.5435 27.7473 26.3501 27.7577L26.3673 28.0773ZM29.4458 27.2648L29.7442 27.3804C29.8118 27.206 29.919 27.0174 30.0429 26.7692C30.1567 26.541 30.2803 26.2691 30.3229 25.9952L30.0067 25.9461L29.6905 25.8969C29.6645 26.0642 29.5823 26.2588 29.4702 26.4833C29.3682 26.6878 29.2293 26.9379 29.1474 27.1492L29.4458 27.2648ZM30.0067 25.9461L29.7013 25.8506C29.2285 27.3623 28.9379 28.958 28.6271 30.513C28.3146 32.0768 27.9809 33.6046 27.4236 35.0236L27.7214 35.1406L28.0192 35.2576C28.5995 33.7804 28.9422 32.2023 29.2547 30.6385C29.569 29.0659 29.8521 27.5125 30.3121 26.0416L30.0067 25.9461ZM27.7214 35.1406L28.041 35.1568C28.0678 34.6304 28.1688 34.0393 28.2889 33.4024C28.4077 32.7728 28.5452 32.0984 28.6347 31.4338C28.8123 30.1156 28.8189 28.7303 28.046 27.6549L27.7862 27.8416L27.5263 28.0284C28.1448 28.889 28.1751 30.0518 28.0004 31.3484C27.9138 31.9912 27.7813 32.6409 27.66 33.2838C27.5401 33.9195 27.431 34.5495 27.4018 35.1243L27.7214 35.1406ZM11.2977 7.20231L11.5064 6.95972C11.3974 6.86593 11.2386 6.6768 11.0603 6.4142C10.8858 6.15699 10.7046 5.84722 10.5477 5.52721C10.3903 5.20613 10.2614 4.88302 10.1865 4.59821C10.1086 4.30226 10.1015 4.09328 10.1368 3.97448L9.83005 3.88332L9.52331 3.79215C9.4367 4.08356 9.4814 4.43377 9.56752 4.76105C9.65656 5.09947 9.80378 5.46363 9.97307 5.80895C10.1429 6.15534 10.339 6.49109 10.5308 6.7736C10.7188 7.05072 10.9153 7.2955 11.089 7.44491L11.2977 7.20231ZM9.83005 3.88332L10.1369 3.97411C10.2636 3.54576 10.3696 3.37134 10.4371 3.30488C10.4629 3.27947 10.4764 3.27656 10.4816 3.27542C10.492 3.27312 10.5158 3.27079 10.568 3.28079C10.7503 3.31567 11.3015 3.59003 11.9314 3.31393L11.8029 3.02085L11.6744 2.72777C11.287 2.89759 11.1094 2.73277 10.6883 2.65219C10.5897 2.63333 10.4705 2.62237 10.3432 2.65056C10.2107 2.6799 10.0919 2.74661 9.98807 2.84882C9.79632 3.0376 9.65401 3.35046 9.5232 3.79252L9.83005 3.88332ZM11.8029 3.02085L11.6745 2.72775C11.2755 2.90258 10.9877 3.14846 10.8497 3.47782C10.7121 3.80636 10.7497 4.15576 10.87 4.48319C11.1044 5.1213 11.7027 5.81114 12.3662 6.45166C13.0402 7.10239 13.8274 7.74437 14.4887 8.28177C14.8215 8.55222 15.1206 8.79472 15.3628 9.00213C15.6103 9.21418 15.7774 9.37211 15.8597 9.47529L16.1098 9.27564L16.3599 9.07598C16.2348 8.91931 16.0236 8.72547 15.7791 8.51605C15.5292 8.30198 15.2224 8.05331 14.8923 7.7851C14.228 7.2452 13.4619 6.61994 12.8107 5.99122C12.1489 5.3523 11.65 4.7505 11.4707 4.2625C11.3842 4.02688 11.3858 3.85461 11.44 3.72508C11.4939 3.59636 11.6259 3.44778 11.9313 3.31395L11.8029 3.02085ZM16.1098 9.27564L16.3169 9.03169C15.8783 8.65929 15.2239 8.40769 14.6237 8.45114C14.3176 8.4733 14.0112 8.57389 13.7617 8.79165C13.51 9.01134 13.3428 9.32728 13.2777 9.73094L13.5936 9.78186L13.9096 9.83278C13.955 9.5509 14.0616 9.37936 14.1826 9.2738C14.3057 9.16633 14.4706 9.10391 14.67 9.08947C15.0808 9.05972 15.574 9.24056 15.9027 9.51959L16.1098 9.27564ZM13.5936 9.78186L13.2777 9.73114C13.1367 10.6092 13.727 11.3714 14.3442 11.9389C14.9747 12.5188 15.7587 13.0055 16.184 13.3047L16.3681 13.0429L16.5522 12.7812C16.083 12.4512 15.3669 12.0099 14.7774 11.4679C14.1746 10.9135 13.825 10.3597 13.9096 9.83257L13.5936 9.78186ZM16.3681 13.0429L16.1843 13.3049C16.8588 13.7782 17.3585 14.2467 17.84 14.7356C18.3177 15.2206 18.7945 15.7442 19.3933 16.2905L19.609 16.0541L19.8247 15.8177C19.2424 15.2865 18.7952 14.7933 18.296 14.2865C17.8006 13.7835 17.2705 13.2852 16.552 12.781L16.3681 13.0429ZM19.609 16.0541L19.8245 15.8176C17.3131 13.5287 14.6931 11.3641 11.8471 9.59117L11.6779 9.86278L11.5087 10.1344C14.3078 11.8781 16.8954 14.0139 19.3934 16.2906L19.609 16.0541ZM11.6779 9.86278L11.399 10.0195C11.4608 10.1295 11.4899 10.2442 11.4868 10.3681L11.8067 10.3761L12.1266 10.3841C12.1327 10.1415 12.0734 9.9134 11.9569 9.70604L11.6779 9.86278ZM11.8067 10.3761L12.043 10.1604C11.7378 9.82608 11.3883 9.64945 11.0437 9.53326C10.8738 9.47599 10.7027 9.43263 10.5414 9.39339C10.3762 9.35322 10.2243 9.31804 10.0736 9.27448L9.98474 9.5819L9.89591 9.88932C10.0637 9.9378 10.2344 9.9774 10.3901 10.0153C10.5496 10.054 10.6976 10.092 10.8392 10.1397C11.1176 10.2336 11.3605 10.362 11.5704 10.5919L11.8067 10.3761ZM9.98474 9.5819L9.67652 9.49589C9.61893 9.70224 9.54861 9.88003 9.4713 10.1213C9.39999 10.3439 9.3332 10.5934 9.32357 10.8555L9.64336 10.8673L9.96314 10.879C9.96951 10.7056 10.0147 10.5227 10.0808 10.3166C10.1408 10.1292 10.2332 9.88209 10.293 9.66791L9.98474 9.5819ZM9.64336 10.8673L9.96026 10.9117C10.0512 10.2632 10.1939 9.56712 10.4381 8.94526C10.6828 8.32184 11.0201 7.79742 11.485 7.46176L11.2977 7.20231L11.1104 6.94286C10.5093 7.37685 10.1119 8.02477 9.84233 8.71135C9.57214 9.39949 9.42068 10.1511 9.32646 10.8228L9.64336 10.8673ZM15.1009 85.3391L14.7809 85.3347C14.7048 90.8123 13.9488 96.2028 13.5769 101.697L13.8962 101.718L14.2154 101.74C14.5827 96.3145 15.3446 90.8363 15.4209 85.3436L15.1009 85.3391ZM13.8962 101.718L13.5769 101.697C13.4208 104.012 12.983 106.267 12.5159 108.515C12.0501 110.758 11.5538 113.001 11.293 115.263L11.6109 115.3L11.9288 115.337C12.1854 113.11 12.6739 110.902 13.1426 108.646C13.6099 106.396 14.0561 104.103 14.2154 101.74L13.8962 101.718ZM11.6109 115.3L11.9288 115.336C12.7008 108.551 13.6643 101.846 13.7155 94.9677L13.3955 94.9653L13.0755 94.9629C13.0246 101.797 12.0678 108.453 11.2929 115.264L11.6109 115.3ZM13.3955 94.9653L13.7155 94.9676C13.7213 94.1441 13.6776 93.1433 13.6385 92.0798C13.5993 91.0118 13.5644 89.8739 13.586 88.7596C13.6076 87.6445 13.6857 86.5623 13.8695 85.606C14.054 84.6463 14.3408 83.8371 14.7639 83.2498L14.5042 83.0628L14.2446 82.8757C13.7445 83.5699 13.4339 84.4819 13.241 85.4852C13.0475 86.4918 12.9681 87.6143 12.9461 88.7472C12.9242 89.8809 12.9597 91.0345 12.999 92.1033C13.0384 93.1764 13.0812 94.1576 13.0755 94.9631L13.3955 94.9653ZM14.5042 83.0628L14.2032 83.1713C14.6309 84.3568 14.5557 85.6678 14.497 87.0249L14.8167 87.0387L15.1364 87.0526C15.1935 85.7325 15.2844 84.2823 14.8053 82.9542L14.5042 83.0628ZM13.6348 136.401L13.607 136.082C12.7005 136.161 11.9422 136.567 11.2956 137.07C10.6538 137.569 10.0991 138.185 9.61601 138.695L9.84834 138.915L10.0807 139.135C10.5806 138.607 11.095 138.037 11.6886 137.575C12.2775 137.117 12.9209 136.784 13.6626 136.72L13.6348 136.401ZM9.84834 138.915L10.1677 138.895C10.1484 138.588 10.1675 138.195 10.1981 137.742C10.2283 137.296 10.2694 136.797 10.2882 136.305C10.3071 135.813 10.3046 135.312 10.2446 134.855C10.185 134.401 10.0655 133.963 9.83081 133.615L9.56563 133.795L9.30046 133.974C9.45592 134.204 9.55645 134.53 9.61004 134.938C9.6632 135.343 9.66704 135.802 9.64869 136.28C9.63031 136.76 9.59058 137.241 9.55959 137.699C9.52913 138.149 9.50672 138.581 9.52897 138.935L9.84834 138.915ZM9.56563 133.795L9.83106 133.616C9.65503 133.354 9.48575 133.149 9.32111 132.998C9.15811 132.848 8.98393 132.738 8.79761 132.693C8.6001 132.647 8.41122 132.68 8.2495 132.781C8.09747 132.876 7.98669 133.018 7.90484 133.166C7.74245 133.458 7.64706 133.855 7.59498 134.254C7.54199 134.66 7.53004 135.1 7.55218 135.498L7.87168 135.48L8.19119 135.462C8.17103 135.1 8.18222 134.7 8.2296 134.337C8.2779 133.967 8.36011 133.664 8.46432 133.477C8.51577 133.384 8.56055 133.341 8.5878 133.324C8.60537 133.313 8.61951 133.309 8.6502 133.316C8.69209 133.326 8.77132 133.362 8.88841 133.469C9.00385 133.575 9.14133 133.737 9.30021 133.973L9.56563 133.795ZM7.87168 135.48L8.03822 135.207C6.93372 134.533 6.72772 133.049 7.08122 131.371C7.42955 129.718 8.289 128.069 9.0412 127.292L8.81125 127.069L8.58129 126.847C7.72716 127.729 6.82217 129.497 6.45497 131.239C6.09294 132.957 6.22032 134.848 7.70514 135.753L7.87168 135.48ZM8.81125 127.069L8.50904 127.174C8.78428 127.965 8.98836 128.843 9.18658 129.765C9.38351 130.682 9.57517 131.645 9.82354 132.577C10.3199 134.441 11.0599 136.258 12.6115 137.495L12.8111 137.245L13.0106 136.995C11.6239 135.889 10.9286 134.24 10.442 132.413C10.1989 131.5 10.0121 130.561 9.8123 129.631C9.6138 128.707 9.40286 127.795 9.11345 126.964L8.81125 127.069ZM20.7764 128.797L20.4688 128.885C20.6191 129.41 20.8599 130.095 21.0568 130.734C21.2606 131.397 21.4305 132.049 21.4758 132.601C21.5224 133.168 21.4291 133.531 21.2241 133.723C21.0266 133.907 20.6131 134.033 19.7486 133.832L19.676 134.144L19.6035 134.455C20.5282 134.671 21.2224 134.6 21.6611 134.19C22.0923 133.787 22.1637 133.158 22.1137 132.548C22.0623 131.923 21.8741 131.214 21.6685 130.546C21.4559 129.856 21.2359 129.24 21.084 128.709L20.7764 128.797ZM19.676 134.144L19.9728 134.263C20.7279 132.393 21.1282 130.751 20.2538 128.666L19.9588 128.79L19.6637 128.914C20.4413 130.768 20.1101 132.214 19.3793 134.024L19.676 134.144ZM13.7811 33.6481L14.1002 33.624C14.0035 32.3416 13.8464 31.0797 13.5825 29.8645L13.2698 29.9324L12.9571 30.0003C13.2129 31.1781 13.3667 32.4091 13.462 33.6722L13.7811 33.6481ZM13.2698 29.9324L13.5825 29.8647C13.3474 28.7785 12.9255 27.7456 12.5411 26.7477C12.1526 25.7394 11.7996 24.7608 11.6645 23.7365L11.3472 23.7783L11.03 23.8202C11.1761 24.9279 11.5557 25.9702 11.9439 26.9778C12.3361 27.996 12.7349 28.9741 12.957 30.0001L13.2698 29.9324ZM11.3472 23.7783L11.6645 23.7369C11.5777 23.0707 11.5847 22.3704 11.5945 21.6381C11.6043 20.9141 11.6169 20.1588 11.5318 19.4205L11.2139 19.4572L10.896 19.4938C10.9755 20.1838 10.9645 20.8963 10.9546 21.6295C10.9448 22.3544 10.9362 23.1005 11.0299 23.8197L11.3472 23.7783ZM11.2139 19.4572L11.5318 19.4207C11.4672 18.8581 11.3716 17.0608 11.1105 15.4133C10.9791 14.5837 10.8019 13.7611 10.5554 13.1155C10.4322 12.7928 10.2864 12.4999 10.1101 12.2696C9.93445 12.04 9.71021 11.8492 9.42646 11.7786L9.34922 12.0892L9.27198 12.3997C9.36466 12.4228 9.47671 12.4949 9.60185 12.6585C9.72645 12.8213 9.84601 13.0518 9.95746 13.3437C10.1802 13.9271 10.3492 14.6981 10.4784 15.5135C10.7388 17.1563 10.8227 18.8557 10.896 19.4937L11.2139 19.4572ZM9.34922 12.0892L9.27315 12.4C9.3857 12.4275 9.60479 12.5339 9.85134 12.6856C10.0914 12.8333 10.3102 12.9946 10.4213 13.1014L10.6431 12.8708L10.8649 12.6401C10.7063 12.4875 10.4435 12.2985 10.1867 12.1405C9.93644 11.9865 9.64345 11.8317 9.42528 11.7783L9.34922 12.0892ZM10.6431 12.8708L10.3791 12.6899C8.95168 14.774 9.64517 16.9648 10.7146 18.9646C11.2497 19.9652 11.9039 20.9625 12.4642 21.8908C13.033 22.8332 13.5082 23.7091 13.7335 24.5166L14.0417 24.4305L14.3499 24.3445C14.099 23.4452 13.5817 22.5039 13.0121 21.5601C12.434 20.6022 11.804 19.6445 11.279 18.6628C10.2283 16.6981 9.69875 14.8158 10.9071 13.0516L10.6431 12.8708ZM14.0417 24.4305L13.7334 24.5164C14.4105 26.947 14.613 29.4578 14.708 32.0067C14.8025 34.5435 14.7903 37.1384 15.0462 39.6755L15.3646 39.6434L15.6829 39.6113C15.4298 37.1006 15.4435 34.5566 15.3475 31.9828C15.252 29.421 15.0476 26.8494 14.35 24.3447L14.0417 24.4305ZM15.3646 39.6434L15.0462 39.6755C15.866 47.8189 15.2994 56.076 15.2099 64.2608L15.5299 64.2643L15.8499 64.2678C15.9388 56.1328 16.5075 47.802 15.683 39.6114L15.3646 39.6434ZM15.5299 64.2643L15.8499 64.2672C15.9073 58.0246 15.2511 51.8154 14.5563 45.6458L14.2383 45.6816L13.9203 45.7174C14.6154 51.8892 15.2669 58.0625 15.2099 64.2613L15.5299 64.2643ZM14.2383 45.6816L14.5563 45.6457C14.3412 43.74 14.3021 41.7366 14.2797 39.7036C14.2573 37.6759 14.2517 35.6168 14.1002 33.6238L13.7811 33.6481L13.462 33.6723C13.6115 35.6395 13.6173 37.6735 13.6397 39.7106C13.6621 41.7424 13.7011 43.7757 13.9203 45.7175L14.2383 45.6816Z" fill="#967348" mask="url(#path-1-outside-1_8_101)"/>
</g>
<defs>
<filter id="filter0_d_8_101" x="0.715744" y="0.899246" width="44.5514" height="150.055" filterUnits="userSpaceOnUse" color-interpolation-filters="sRGB">
<feFlood flood-opacity="0" result="BackgroundImageFix"/>
<feColorMatrix in="SourceAlpha" type="matrix" values="0 0 0 0 0 0 0 0 0 0 0 0 0 0 0 0 0 0 127 0" result="hardAlpha"/>
<feOffset dy="4"/>
<feGaussianBlur stdDeviation="2"/>
<feComposite in2="hardAlpha" operator="out"/>
<feColorMatrix type="matrix" values="0 0 0 0 0 0 0 0 0 0 0 0 0 0 0 0 0 0 0.25 0"/>
<feBlend mode="normal" in2="BackgroundImageFix" result="effect1_dropShadow_8_101"/>
<feBlend mode="normal" in="SourceGraphic" in2="effect1_dropShadow_8_101" result="shape"/>
</filter>
</defs>
</svg>
