<svg width="43" height="151" viewBox="0 0 43 151" fill="none" xmlns="http://www.w3.org/2000/svg">
<g id="TibiaRight" filter="url(#filter0_d_8_97)">
<path d="M5.15828 1.4678C4.23395 3.50142 5.01121 7.16637 5.11942 9.36978C5.26649 12.3603 6.67697 14.4947 8.44713 16.7608C10.5145 19.4093 12.1993 23.4052 13.3995 26.621C16.7958 35.7267 17.1966 46.8144 17.1532 56.4898C17.1303 61.5655 17.5022 66.7753 17.9784 71.7931C18.4486 76.7522 19.5954 81.3836 20.4237 86.2776C22.4057 97.9739 21.4883 109.82 21.7252 121.625C21.8136 126.053 19.2662 130.417 20.7788 134.81C21.9698 138.271 26.7782 138.421 29.6205 139.891C30.7483 140.474 31.3693 141.758 32.7318 141.988C36.4169 142.605 38.1109 137.221 38.6801 134.433C39.4467 130.676 37.3275 127.597 36.4253 124.027C35.9848 122.284 36.1022 120.679 35.9246 118.969C35.6968 116.77 34.8349 114.625 34.3046 112.474C33.1151 107.653 32.347 102.7 32.414 97.7096C32.4742 93.2592 33.2164 88.7413 32.9573 84.294C32.744 80.6235 32.3089 76.9625 32.1481 73.2483C31.7999 65.2328 30.9304 57.2832 31.3167 49.3217C31.921 36.8621 34.614 24.9992 36.7872 12.8047C37.1484 10.7822 36.7156 9.74829 36.295 7.88923C35.9924 6.55226 36.0824 6.79506 36.2348 5.39937C36.3902 3.98147 37.1751 3.99257 36.0153 2.56911C33.3963 -0.64437 28.2641 2.09066 25.2663 2.86031C22.1459 3.66011 18.1194 3.91641 14.8915 3.71726C13.9314 3.65616 5.45927 0.805268 5.15828 1.4678Z" fill="#F3D48C"/>
<path d="M30.7529 1.06313C32.7555 0.681559 34.7725 0.790203 36.1397 2.46742L36.3398 2.72328C36.5191 2.96599 36.6389 3.17007 36.7109 3.35317C36.8097 3.60414 36.8176 3.81264 36.7764 4.0182C36.7381 4.20888 36.6529 4.40716 36.5811 4.61195C36.525 4.77184 36.4688 4.95437 36.4287 5.17836L36.3945 5.41664C36.3562 5.76749 36.3219 6.01645 36.2969 6.20961C36.2717 6.40413 36.2566 6.53846 36.2549 6.6686C36.2515 6.92675 36.2999 7.18122 36.4522 7.85414L36.7568 9.11879C37.0171 10.1971 37.1906 11.1195 37.0049 12.4577L36.9453 12.8327C34.8383 24.6557 32.2486 36.1429 31.54 48.1647L31.4775 49.3297C31.0917 57.2814 31.9597 65.2113 32.3086 73.2409C32.3888 75.0941 32.5378 76.9359 32.6934 78.7741C32.8488 80.6114 33.0113 82.4469 33.1182 84.2848L33.1553 85.1237C33.217 87.082 33.1065 89.0502 32.9658 91.0123C32.825 92.9771 32.6544 94.9336 32.5938 96.8786L32.5752 97.7116C32.5084 102.684 33.2736 107.624 34.4609 112.436L34.6729 113.239C34.8961 114.041 35.1486 114.844 35.3828 115.659C35.6937 116.741 35.9695 117.838 36.085 118.952L36.1397 119.593C36.1839 120.231 36.2018 120.858 36.2373 121.476C36.285 122.305 36.3645 123.131 36.5811 123.988L36.7617 124.645C36.9548 125.298 37.1821 125.939 37.417 126.575C37.7292 127.421 38.0564 128.263 38.3311 129.11C38.8471 130.701 39.1848 132.33 38.9023 134.108L38.8379 134.465C38.5519 135.866 37.9813 137.929 37.0127 139.569C36.0768 141.154 34.7357 142.393 32.8857 142.173L32.7051 142.146C31.9764 142.024 31.452 141.618 30.9805 141.191C30.5602 140.81 30.1904 140.424 29.7432 140.146L29.5469 140.034C28.8498 139.673 28.0279 139.392 27.1592 139.117C26.2947 138.843 25.3815 138.577 24.5225 138.248C22.913 137.631 21.4422 136.778 20.7539 135.19L20.627 134.862C19.8561 132.623 20.1228 130.397 20.5606 128.199C20.9732 126.127 21.5331 124.09 21.5654 122.039L21.5645 121.629C21.3345 110.172 22.1883 98.7239 20.4424 87.4L20.2647 86.3043C19.4907 81.7316 18.4314 77.3567 17.9141 72.736L17.8184 71.8082C17.3419 66.7884 16.9693 61.5724 16.9922 56.4889L16.9941 54.6598C16.9741 45.7462 16.4585 35.8679 13.5576 27.5338L13.249 26.6774C12.1238 23.6624 10.5785 19.9808 8.7002 17.3678L8.32032 16.86C6.60222 14.6605 5.19876 12.5568 4.97657 9.66078L4.95899 9.37758C4.93221 8.83236 4.86383 8.19497 4.79004 7.50844C4.71647 6.82388 4.63723 6.09179 4.59082 5.36488C4.49853 3.91867 4.53147 2.45763 5.01172 1.40102L5.03516 1.36098C5.09562 1.27408 5.19883 1.24031 5.27539 1.22524C5.37367 1.20591 5.49665 1.20395 5.63282 1.21156C5.90717 1.22693 6.27566 1.28581 6.70313 1.37367C7.56074 1.54997 8.68322 1.8478 9.82129 2.16664C10.9585 2.48524 12.1209 2.82779 13.0518 3.09242C13.5185 3.22511 13.9281 3.33764 14.25 3.41957C14.5773 3.50287 14.799 3.5497 14.9014 3.55629L15.5127 3.58852C18.6138 3.72099 22.3195 3.44983 25.2266 2.70473L25.8066 2.54067C26.4099 2.35771 27.0792 2.1226 27.791 1.88539C28.7356 1.57064 29.7492 1.2544 30.7529 1.06313ZM35.8906 2.67055C34.6388 1.13464 32.7801 1.00461 30.8125 1.37953C29.8314 1.56652 28.8359 1.87704 27.8936 2.19106C27.1899 2.42553 26.5116 2.66307 25.8975 2.84926L25.3066 3.01625C22.1665 3.82109 18.1225 4.0775 14.8818 3.87758C14.7439 3.86872 14.4901 3.81357 14.1699 3.73207C13.8436 3.64899 13.431 3.53478 12.9639 3.40199C12.0269 3.13564 10.8727 2.79512 9.73438 2.47621C8.59683 2.15752 7.48423 1.86292 6.63868 1.6891C6.21485 1.60198 5.86449 1.54684 5.61426 1.53285C5.48843 1.52583 5.39723 1.52904 5.33789 1.54067C5.31582 1.54501 5.30287 1.55047 5.2959 1.55336C4.85996 2.5292 4.82044 3.90938 4.91211 5.34535C4.95801 6.06403 5.03569 6.78863 5.10938 7.47426C5.18288 8.15813 5.25295 8.80549 5.28028 9.36195L5.32129 9.90297C5.59866 12.5627 6.91787 14.5414 8.57422 16.6618L8.95996 17.1774C10.8676 19.8306 12.4246 23.5502 13.5498 26.5651L13.8613 27.4274C16.7813 35.816 17.2965 45.7418 17.3164 54.6608L17.3145 56.4909C17.2917 61.5587 17.6626 66.7624 18.1387 71.778L18.2344 72.7028C18.7499 77.3076 19.8029 81.6473 20.582 86.2506L20.7598 87.3493C22.5105 98.7046 21.6566 110.206 21.8857 121.622L21.8867 122.042C21.8536 124.138 21.2822 126.222 20.876 128.262C20.4403 130.451 20.1892 132.604 20.9307 134.757L21.0479 135.06C21.683 136.527 23.0483 137.338 24.6377 137.947C25.4849 138.272 26.3821 138.534 27.2559 138.81C28.1252 139.085 28.9703 139.374 29.6943 139.749L29.9092 139.871C30.3976 140.174 30.8001 140.594 31.1963 140.953C31.6578 141.371 32.125 141.722 32.7588 141.829L32.9199 141.852C34.58 142.051 35.8214 140.955 36.7363 139.406C37.6782 137.811 38.2392 135.788 38.5225 134.401L38.585 134.058C38.8561 132.352 38.5345 130.779 38.0254 129.21C37.7534 128.371 37.4301 127.539 37.1152 126.686C36.8797 126.048 36.6494 125.4 36.4531 124.736L36.2695 124.066C36.0457 123.18 35.9641 122.331 35.916 121.495C35.8797 120.864 35.8619 120.246 35.8184 119.618L35.7647 118.985C35.6522 117.9 35.3827 116.825 35.0732 115.748C34.8422 114.943 34.5876 114.133 34.3623 113.323L34.1484 112.512C32.9568 107.683 32.1857 102.715 32.2529 97.7077L32.2725 96.8698C32.3334 94.9139 32.5042 92.9469 32.6445 90.9889C32.7851 89.0284 32.8951 87.0744 32.834 85.1344L32.7969 84.3034C32.6904 82.4709 32.5287 80.6406 32.3731 78.8014C32.2564 77.4226 32.1428 76.0387 32.0596 74.6481L31.9873 73.2555C31.6397 65.2544 30.7695 57.2852 31.1563 49.3141L31.2188 48.1461C31.929 36.0979 34.5253 24.58 36.6289 12.776L36.6865 12.4157C36.8654 11.1327 36.7007 10.2616 36.4434 9.19496L36.1377 7.92445C35.9875 7.26078 35.9296 6.96722 35.9336 6.66371C35.9356 6.51314 35.9525 6.36263 35.9775 6.1686C36.0028 5.97299 36.0373 5.72835 36.0752 5.38149L36.1123 5.12074C36.1562 4.87579 36.2174 4.67653 36.2773 4.50551C36.3601 4.26952 36.4286 4.1162 36.4609 3.95473C36.4904 3.80792 36.4865 3.66291 36.4111 3.47133C36.3526 3.32248 36.2504 3.14372 36.082 2.91567L35.8906 2.67055Z" fill="#967348"/>
<path d="M32.6106 22.7125C33.4648 20.6059 38.0567 11.1614 35.661 9.06276C34.5317 8.07332 31.4112 10.3545 30.5966 11.4082C32.0833 9.48328 34.2329 7.68926 34.7664 5.16291C35.5688 1.36068 32.8019 2.97059 30.5014 3.49585C27.3291 4.22027 23.7332 4.46943 20.8078 6.22693C23.0519 6.00794 25.4431 4.90346 27.7429 4.88759C27.6568 6.3777 24.6811 7.82337 23.5678 8.47241C21.5431 9.65545 19.4994 10.1196 17.2217 10.5116C15.4584 10.8155 12.5765 10.7607 11.2551 12.1509C12.3273 13.9076 14.288 14.9049 16.225 15.0541C17.3094 15.1374 21.2459 15.035 21.8174 14.0297C20.3407 16.6267 20.1448 20.9963 23.6493 17.1306C23.8711 18.2033 23.1235 18.393 23.0793 19.2523C23.0039 20.7336 23.1974 20.1052 23.7728 21.5866C24.8998 24.4899 25.3364 29.0316 25.0408 31.8777C25.6351 28.8871 25.7037 26.0633 25.8508 23.3005C25.9879 20.7289 28.0728 17.3559 30.2019 16.2157C30.08 16.4982 29.9222 16.8068 29.7813 17.0972C30.9327 15.4215 32.4864 13.487 34.3031 12.5904C33.9434 14.1456 27.3382 21.1978 29.3812 21.9302C28.9308 23.4068 29.3843 25.7935 29.2181 27.259C28.9491 29.6282 27.9639 32.2109 27.515 34.6207C25.882 43.3939 27.166 52.6463 26.7042 61.5822C26.4459 66.5833 26.4764 71.8478 26.737 76.9109C27.0891 83.7393 28.6596 91.105 27.9219 97.889C27.0913 105.521 28.927 112.081 30.4259 119.423C31.2001 123.22 35.8682 132.3 31.668 135.599C31.082 134.856 30.3063 134.497 29.6075 134.977C29.3088 133.638 29.0452 132.034 28.8699 130.623C28.716 132.623 28.0141 133.467 29.129 135.078C29.8117 136.063 32.4986 138.784 33.4542 139.01C33.1524 138.938 33.8436 128.547 36.9899 130.508C37.6277 126.42 35.4979 120.595 34.3953 116.634C33.4549 113.26 31.7937 110 31.5811 106.496C31.0912 98.4428 31.0531 90.5377 30.5661 82.5087C29.9809 72.8603 29.7005 63.4333 29.6875 53.7008C29.6792 47.6888 29.8095 41.5237 30.2926 35.5426C30.6157 31.5651 31.1163 26.4013 32.6106 22.7125Z" fill="#DCC06D"/>
<path d="M19.6061 28.9617C19.5367 28.4912 19.3417 28.2722 19.0201 28.3031C18.8562 32.6378 20.048 38.3602 21.7992 42.2362C21.7412 39.8154 21.665 37.5858 21.3 35.1824C21.0691 33.6645 20.1182 30.5145 20.4694 29.0046C20.8779 27.2479 23.0671 26.9337 22.5482 24.7231C21.9531 25.634 20.5898 27.881 19.1146 27.7906C17.8931 27.7168 17.8199 25.3761 16.0429 26.9535C15.8958 26.5679 15.556 26.0728 15.4912 25.6308C16.4033 28.6213 16.5931 31.938 17.7102 34.8436C17.6142 32.6394 16.2928 29.4695 17.6988 27.543" fill="#DCC06D"/>
<path d="M34.3404 7.03704C34.9096 6.55541 36.0709 4.55117 35.8332 3.72995C35.328 1.98435 34.8807 3.30621 33.8657 2.85315C36.6745 4.10919 30.3497 8.04076 29.5115 9.07225C30.2842 8.42717 31.8136 8.22644 32.0239 9.59832C32.2395 11.0043 30.1242 12.2151 29.2258 12.8372C27.8259 13.8044 27.1531 14.7542 25.9636 15.8229C28.4843 13.5592 31.1049 11.4304 33.9388 9.69513C33.8481 9.85303 33.8039 10.0244 33.807 10.2077C34.3259 9.64673 34.9965 9.60624 35.6351 9.42771C35.7486 9.84903 35.9536 10.2807 35.9673 10.7155C35.792 9.39358 35.4011 7.81621 34.3404 7.03704Z" fill="#CCB25C"/>
<path d="M29.9603 85.1414C29.9962 90.6273 30.7155 96.068 31.0439 101.529C31.3259 106.211 32.7455 110.637 33.2279 115.13C32.5055 108.328 31.5949 101.636 31.5949 94.781C31.5949 91.5215 32.4011 85.4468 30.573 82.8697C30.1097 84.1218 30.1828 85.504 30.2324 86.8425" fill="#CCB25C"/>
<path d="M31.0515 136.214C32.6983 136.369 33.8428 137.712 34.8182 138.757C34.9119 137.438 34.3503 134.789 35.139 133.639C36.4938 131.662 36.916 133.819 36.8208 135.339C39.4215 133.781 37.5363 128.594 35.9421 126.922C34.79 130.154 34.825 134.746 31.8684 137.065" fill="#CCB25C"/>
<path d="M23.9656 128.552C23.3445 130.659 21.441 134.714 25.027 133.907C24.2963 132.063 23.9427 130.517 24.7832 128.552" fill="#CCB25C"/>
<path d="M31.6619 33.463C31.7671 32.1903 31.9332 30.9462 32.2014 29.7504C32.6739 27.6414 33.8725 25.7419 34.1689 23.6123C34.3594 22.2293 34.159 20.7194 34.3351 19.2927C34.4829 18.0938 34.7458 12.3016 36.2538 11.939C35.9216 12.0176 35.2243 12.4531 34.9538 12.711C37.5614 16.5807 32.4468 20.8368 31.4699 24.2439C30.0579 29.168 30.5806 34.4016 30.035 39.4456C29.1518 47.6055 29.6578 55.9034 29.6883 64.0648C29.6776 57.8426 30.3756 51.6569 31.1163 45.4933C31.5781 41.6483 31.332 37.4207 31.6619 33.463Z" fill="#CCB25C"/>
</g>
<defs>
<filter id="filter0_d_8_97" x="0.549789" y="0.881104" width="42.455" height="149.317" filterUnits="userSpaceOnUse" color-interpolation-filters="sRGB">
<feFlood flood-opacity="0" result="BackgroundImageFix"/>
<feColorMatrix in="SourceAlpha" type="matrix" values="0 0 0 0 0 0 0 0 0 0 0 0 0 0 0 0 0 0 127 0" result="hardAlpha"/>
<feOffset dy="4"/>
<feGaussianBlur stdDeviation="2"/>
<feComposite in2="hardAlpha" operator="out"/>
<feColorMatrix type="matrix" values="0 0 0 0 0 0 0 0 0 0 0 0 0 0 0 0 0 0 0.25 0"/>
<feBlend mode="normal" in2="BackgroundImageFix" result="effect1_dropShadow_8_97"/>
<feBlend mode="normal" in="SourceGraphic" in2="effect1_dropShadow_8_97" result="shape"/>
</filter>
</defs>
</svg>
