<svg width="41" height="92" viewBox="0 0 41 92" fill="none" xmlns="http://www.w3.org/2000/svg">
<g id="UlnaLeft" filter="url(#filter0_d_8_22)">
<mask id="path-1-outside-1_8_22" maskUnits="userSpaceOnUse" x="3.60205" y="-0.577499" width="33" height="84" fill="black">
<rect fill="white" x="3.60205" y="-0.577499" width="33" height="84"/>
<path d="M5.97159 4.45331C5.96549 5.21185 5.95179 5.86408 6.33813 6.47266C6.06685 5.84663 6.49434 5.29915 6.97822 5.02303C6.6216 4.90718 6.27793 4.77626 5.97007 4.56044"/>
<path d="M21.1525 25.222C21.0702 24.1024 20.949 22.9836 20.6678 21.9386C20.0932 19.8035 19.9172 17.5889 19.3434 15.4776C18.8382 13.6058 17.8971 11.7586 16.9659 10.09C16.0508 8.45311 15.9974 7.62634 16.3502 5.78156C16.559 4.69691 16.4066 5.02222 15.5897 4.47394C14.1541 3.5091 13.7007 1.08432 15.7025 0.446386C14.3781 0.363866 12.7482 0.482885 11.5061 0.997042C10.3242 1.4866 9.65975 2.80056 8.47634 3.30519C7.08337 3.8979 5.89005 2.60379 4.91086 4.16134C3.8669 5.82124 5.73766 7.95006 6.55835 9.26243C8.13191 11.7816 8.23555 13.0599 8.58226 15.8997C9.23226 21.2269 11.8307 26.5668 13.0126 31.7862C14.4985 38.3464 15.5547 44.9155 17.7562 51.3575C18.7895 54.3853 19.3541 57.571 20.3615 60.606C21.4047 63.7465 22.9676 66.687 24.0085 69.8854C25.0959 73.2282 26.1406 76.6655 27.0969 79.9266C27.321 80.6859 27.3972 82.6949 28.4838 82.8108C29.7061 82.9409 29.7602 81.0096 30.6784 80.5899C32.0287 79.975 37.1395 82.4513 35.8304 79.2394C35.5995 78.6737 33.3622 77.451 32.8402 76.5901C32.2108 75.5538 31.605 74.2415 31.1166 73.1052C29.4737 69.2967 28.1797 65.0652 27.449 60.9829C26.9392 58.1391 25.8251 55.9801 25.0913 53.2404C22.8708 44.9646 22.124 36.3795 21.3361 27.8586C21.2599 27.0048 21.218 26.113 21.1525 25.222Z"/>
<path d="M12.768 13.4757C12.0433 10.424 10.8714 10.4272 9.05472 8.57293C7.20074 6.68214 8.03666 4.91353 9.8251 3.37423C10.7593 2.56967 12.0548 2.0571 13.133 1.53421C13.7541 3.3171 13.2542 5.86092 13.8653 7.9715C14.6471 10.6716 14.3202 12.2181 14.324 15.0634C14.3309 20.8262 15.6431 26.6581 16.8577 32.3464C15.9525 28.5346 14.5885 24.9395 13.9049 21.0595C13.4538 18.5117 13.3578 15.9608 12.768 13.4757Z"/>
<path d="M16.7465 39.7826C17.8293 43.6602 18.4702 47.1363 20.094 50.8917C21.1433 53.3205 22.4844 55.5541 23.5436 57.9328C23.693 57.5305 24.1738 56.3086 24.1754 56.2967C24.2119 60.0268 25.2064 63.7449 25.976 67.3424C25.0608 65.5857 23.869 65.9102 22.7854 64.774C21.3452 63.2672 20.3691 59.0492 19.8669 57.0767C18.3833 51.2559 18.003 44.7933 16.2077 39.2081"/>
<path d="M27.4581 77.6628C27.7835 78.5086 28.2301 78.9689 29.0446 78.7753C28.9197 78.1564 28.8244 77.2621 28.5409 76.6417C29.6139 78.2151 33.446 79.5957 35.0927 79.0054C35.3213 81.6515 31.1531 79.7115 29.9339 79.1514C29.7586 80.2082 29.418 81.1136 28.7017 81.8935C27.7378 80.9231 27.4909 79.0855 27.1861 77.6597"/>
<path d="M27.6989 70.7693C26.9872 67.9676 26.4744 65.0993 26.0187 62.25C25.2567 57.4718 24.9915 52.2295 23.4515 47.6132C23.3669 51.7709 24.3095 55.6588 24.7918 59.7268C25.2635 63.7243 26.7403 66.9949 27.6989 70.7693Z"/>
<path d="M30.2456 72.5927C30.6875 73.8162 31.2316 77.4081 32.3289 77.6763C31.9479 76.3211 31.1775 74.9008 30.7782 73.4504"/>
<path d="M5.70413 6.721C6.67722 8.82286 8.41537 10.167 9.52943 12.0919C10.4454 13.6788 11.0245 16.6606 11.2935 18.6427C10.725 16.7273 9.63688 14.6738 8.17991 13.5852C8.62111 11.4405 7.11689 9.0871 5.69268 7.5716"/>
<path d="M12.8503 1.70717C13.7144 3.37422 13.4569 4.43825 13.3403 6.25367C13.2496 7.64538 13.716 8.52453 13.61 9.89641C15.9395 10.2574 16.1163 12.8838 16.8013 14.7039C15.845 12.8623 14.9939 10.3312 14.4681 8.25476C13.956 6.2378 14.4018 3.54243 13.3959 1.71432"/>
</mask>
<path d="M5.97159 4.45331C5.96549 5.21185 5.95179 5.86408 6.33813 6.47266C6.06685 5.84663 6.49434 5.29915 6.97822 5.02303C6.6216 4.90718 6.27793 4.77626 5.97007 4.56044" fill="#BBBDBF"/>
<path d="M21.1525 25.222C21.0702 24.1024 20.949 22.9836 20.6678 21.9386C20.0932 19.8035 19.9172 17.5889 19.3434 15.4776C18.8382 13.6058 17.8971 11.7586 16.9659 10.09C16.0508 8.45311 15.9974 7.62634 16.3502 5.78156C16.559 4.69691 16.4066 5.02222 15.5897 4.47394C14.1541 3.5091 13.7007 1.08432 15.7025 0.446386C14.3781 0.363866 12.7482 0.482885 11.5061 0.997042C10.3242 1.4866 9.65975 2.80056 8.47634 3.30519C7.08337 3.8979 5.89005 2.60379 4.91086 4.16134C3.8669 5.82124 5.73766 7.95006 6.55835 9.26243C8.13191 11.7816 8.23555 13.0599 8.58226 15.8997C9.23226 21.2269 11.8307 26.5668 13.0126 31.7862C14.4985 38.3464 15.5547 44.9155 17.7562 51.3575C18.7895 54.3853 19.3541 57.571 20.3615 60.606C21.4047 63.7465 22.9676 66.687 24.0085 69.8854C25.0959 73.2282 26.1406 76.6655 27.0969 79.9266C27.321 80.6859 27.3972 82.6949 28.4838 82.8108C29.7061 82.9409 29.7602 81.0096 30.6784 80.5899C32.0287 79.975 37.1395 82.4513 35.8304 79.2394C35.5995 78.6737 33.3622 77.451 32.8402 76.5901C32.2108 75.5538 31.605 74.2415 31.1166 73.1052C29.4737 69.2967 28.1797 65.0652 27.449 60.9829C26.9392 58.1391 25.8251 55.9801 25.0913 53.2404C22.8708 44.9646 22.124 36.3795 21.3361 27.8586C21.2599 27.0048 21.218 26.113 21.1525 25.222Z" fill="#F3D48C"/>
<path d="M12.768 13.4757C12.0433 10.424 10.8714 10.4272 9.05472 8.57293C7.20074 6.68214 8.03666 4.91353 9.8251 3.37423C10.7593 2.56967 12.0548 2.0571 13.133 1.53421C13.7541 3.3171 13.2542 5.86092 13.8653 7.9715C14.6471 10.6716 14.3202 12.2181 14.324 15.0634C14.3309 20.8262 15.6431 26.6581 16.8577 32.3464C15.9525 28.5346 14.5885 24.9395 13.9049 21.0595C13.4538 18.5117 13.3578 15.9608 12.768 13.4757Z" fill="#DCC06D"/>
<path d="M16.7465 39.7826C17.8293 43.6602 18.4702 47.1363 20.094 50.8917C21.1433 53.3205 22.4844 55.5541 23.5436 57.9328C23.693 57.5305 24.1738 56.3086 24.1754 56.2967C24.2119 60.0268 25.2064 63.7449 25.976 67.3424C25.0608 65.5857 23.869 65.9102 22.7854 64.774C21.3452 63.2672 20.3691 59.0492 19.8669 57.0767C18.3833 51.2559 18.003 44.7933 16.2077 39.2081" fill="#DCC06D"/>
<path d="M27.4581 77.6628C27.7835 78.5086 28.2301 78.9689 29.0446 78.7753C28.9197 78.1564 28.8244 77.2621 28.5409 76.6417C29.6139 78.2151 33.446 79.5957 35.0927 79.0054C35.3213 81.6515 31.1531 79.7115 29.9339 79.1514C29.7586 80.2082 29.418 81.1136 28.7017 81.8935C27.7378 80.9231 27.4909 79.0855 27.1861 77.6597" fill="#DCC06D"/>
<path d="M27.6989 70.7693C26.9872 67.9676 26.4744 65.0993 26.0187 62.25C25.2567 57.4718 24.9915 52.2295 23.4515 47.6132C23.3669 51.7709 24.3095 55.6588 24.7918 59.7268C25.2635 63.7243 26.7403 66.9949 27.6989 70.7693Z" fill="#CCB25C"/>
<path d="M30.2456 72.5927C30.6875 73.8162 31.2316 77.4081 32.3289 77.6763C31.9479 76.3211 31.1775 74.9008 30.7782 73.4504" fill="#CCB25C"/>
<path d="M5.70413 6.721C6.67722 8.82286 8.41537 10.167 9.52943 12.0919C10.4454 13.6788 11.0245 16.6606 11.2935 18.6427C10.725 16.7273 9.63688 14.6738 8.17991 13.5852C8.62111 11.4405 7.11689 9.0871 5.69268 7.5716" fill="#CCB25C"/>
<path d="M12.8503 1.70717C13.7144 3.37422 13.4569 4.43825 13.3403 6.25367C13.2496 7.64538 13.716 8.52453 13.61 9.89641C15.9395 10.2574 16.1163 12.8838 16.8013 14.7039C15.845 12.8623 14.9939 10.3312 14.4681 8.25476C13.956 6.2378 14.4018 3.54243 13.3959 1.71432" fill="#CCB25C"/>
<path d="M6.33813 6.47266L6.06797 6.64417L6.63175 6.34543L6.33813 6.47266ZM6.97822 5.02303L7.13682 5.30096L7.76539 4.94227L7.07708 4.71868L6.97822 5.02303ZM21.1525 25.222L20.8333 25.2454L20.8333 25.2454L21.1525 25.222ZM20.6678 21.9386L20.9768 21.8555L20.9768 21.8555L20.6678 21.9386ZM19.3434 15.4776L19.0345 15.5609L19.0346 15.5615L19.3434 15.4776ZM16.9659 10.09L17.2454 9.93407L17.2452 9.93384L16.9659 10.09ZM16.3502 5.78156L16.036 5.72107L16.0359 5.72145L16.3502 5.78156ZM15.5897 4.47394L15.4112 4.73954L15.4114 4.73964L15.5897 4.47394ZM15.7025 0.446386L15.7997 0.751278L15.7224 0.127005L15.7025 0.446386ZM11.5061 0.997042L11.3837 0.701373L11.3836 0.701401L11.5061 0.997042ZM8.47634 3.30519L8.60163 3.59965L8.60186 3.59955L8.47634 3.30519ZM4.91086 4.16134L5.18174 4.3317L5.18177 4.33165L4.91086 4.16134ZM6.55835 9.26243L6.82975 9.09291L6.82966 9.09277L6.55835 9.26243ZM8.58226 15.8997L8.89991 15.8609L8.8999 15.8609L8.58226 15.8997ZM13.0126 31.7862L12.7005 31.8568L12.7005 31.8569L13.0126 31.7862ZM17.7562 51.3575L18.059 51.2541L18.059 51.254L17.7562 51.3575ZM20.3615 60.606L20.0578 60.7068L20.0578 60.7069L20.3615 60.606ZM24.0085 69.8854L24.3128 69.7864L24.3128 69.7864L24.0085 69.8854ZM27.0969 79.9266L26.7899 80.0166L26.79 80.0171L27.0969 79.9266ZM28.4838 82.8108L28.4499 83.1289L28.4499 83.129L28.4838 82.8108ZM30.6784 80.5899L30.5458 80.2987L30.5454 80.2989L30.6784 80.5899ZM35.8304 79.2394L36.1267 79.1186L36.1267 79.1185L35.8304 79.2394ZM32.8402 76.5901L33.1139 76.4242L33.1137 76.424L32.8402 76.5901ZM31.1166 73.1052L31.4105 72.9789L31.4104 72.9785L31.1166 73.1052ZM27.449 60.9829L27.764 60.9265L27.7639 60.9264L27.449 60.9829ZM25.0913 53.2404L25.4004 53.1576L25.4004 53.1574L25.0913 53.2404ZM21.3361 27.8586L21.0174 27.887L21.0175 27.8881L21.3361 27.8586ZM12.768 13.4757L13.0794 13.4018L13.0793 13.4017L12.768 13.4757ZM9.05472 8.57293L9.2833 8.34899L9.28321 8.34889L9.05472 8.57293ZM9.8251 3.37423L10.0339 3.61677L10.0339 3.6167L9.8251 3.37423ZM13.133 1.53421L13.4352 1.42895L13.3169 1.08939L12.9934 1.24628L13.133 1.53421ZM13.8653 7.9715L14.1727 7.8825L14.1727 7.8825L13.8653 7.9715ZM14.324 15.0634L14.644 15.063L14.644 15.0629L14.324 15.0634ZM16.8577 32.3464L16.5464 32.4203L17.1707 32.2795L16.8577 32.3464ZM13.9049 21.0595L14.2201 21.004L14.22 21.0037L13.9049 21.0595ZM20.094 50.8917L20.3878 50.7648L20.3877 50.7647L20.094 50.8917ZM23.5436 57.9328L23.2513 58.063L23.5705 58.7799L23.8436 58.0442L23.5436 57.9328ZM24.1754 56.2967L24.4953 56.2936L23.8579 56.2561L24.1754 56.2967ZM25.976 67.3424L25.6922 67.4902L26.2889 67.2754L25.976 67.3424ZM22.7854 64.774L23.017 64.5531L23.0168 64.5529L22.7854 64.774ZM19.8669 57.0767L20.177 56.9978L20.177 56.9977L19.8669 57.0767ZM29.0446 78.7753L29.1186 79.0866L29.4195 79.0151L29.3583 78.7119L29.0446 78.7753ZM28.5409 76.6417L28.8053 76.4614L28.2499 76.7746L28.5409 76.6417ZM35.0927 79.0054L35.4116 78.9778L35.3758 78.5639L34.9848 78.7041L35.0927 79.0054ZM29.9339 79.1514L30.0675 78.8606L29.6868 78.6856L29.6182 79.099L29.9339 79.1514ZM28.7017 81.8935L28.4747 82.119L28.7108 82.3567L28.9374 82.11L28.7017 81.8935ZM27.6989 70.7693L27.3888 70.8481L28.0091 70.6905L27.6989 70.7693ZM26.0187 62.25L25.7027 62.3004L25.7027 62.3005L26.0187 62.25ZM23.4515 47.6132L23.755 47.5119L23.1315 47.6067L23.4515 47.6132ZM24.7918 59.7268L25.1096 59.6893L25.1096 59.6892L24.7918 59.7268ZM32.3289 77.6763L32.253 77.9872L32.7853 78.1173L32.637 77.5897L32.3289 77.6763ZM9.52943 12.0919L9.80658 11.9319L9.80639 11.9316L9.52943 12.0919ZM11.2935 18.6427L10.9867 18.7337L11.6106 18.5996L11.2935 18.6427ZM8.17991 13.5852L7.86647 13.5207L7.8255 13.7198L7.98837 13.8415L8.17991 13.5852ZM13.3403 6.25367L13.6596 6.27447L13.6596 6.27418L13.3403 6.25367ZM13.61 9.89641L13.291 9.87178L13.2682 10.1673L13.561 10.2126L13.61 9.89641ZM16.8013 14.7039L16.5173 14.8514L17.1008 14.5912L16.8013 14.7039ZM14.4681 8.25476L14.7783 8.17621L14.7782 8.17601L14.4681 8.25476ZM5.97159 4.45331L5.6516 4.45074C5.64566 5.18916 5.62234 5.9422 6.06797 6.64417L6.33813 6.47266L6.60829 6.30116C6.28123 5.78596 6.28532 5.23455 6.29158 4.45589L5.97159 4.45331ZM6.33813 6.47266L6.63175 6.34543C6.5395 6.13256 6.56406 5.94171 6.6572 5.76748C6.75569 5.58324 6.9337 5.41687 7.13682 5.30096L6.97822 5.02303L6.81962 4.74509C6.53886 4.90531 6.26119 5.15073 6.09278 5.46577C5.91902 5.79082 5.86547 6.18673 6.04451 6.59989L6.33813 6.47266ZM6.97822 5.02303L7.07708 4.71868C6.72727 4.60505 6.42112 4.48584 6.15377 4.29841L5.97007 4.56044L5.78638 4.82246C6.13474 5.06668 6.51592 5.20932 6.87936 5.32737L6.97822 5.02303ZM21.1525 25.222L21.4716 25.1985C21.389 24.0744 21.2662 22.9308 20.9768 21.8555L20.6678 21.9386L20.3588 22.0218C20.6318 23.0364 20.7514 24.1304 20.8333 25.2454L21.1525 25.222ZM20.6678 21.9386L20.9768 21.8555C20.694 20.8045 20.5086 19.7316 20.3206 18.6446C20.1335 17.5626 19.9437 16.4663 19.6522 15.3936L19.3434 15.4776L19.0346 15.5615C19.3169 16.6002 19.502 17.6668 19.69 18.7537C19.8771 19.8356 20.0671 20.9377 20.3588 22.0218L20.6678 21.9386ZM19.3434 15.4776L19.6524 15.3942C19.1363 13.4822 18.1785 11.6063 17.2454 9.93407L16.9659 10.09L16.6865 10.2459C17.6157 11.911 18.5401 13.7294 19.0345 15.5609L19.3434 15.4776ZM16.9659 10.09L17.2452 9.93384C16.797 9.1322 16.5761 8.55709 16.4999 7.9724C16.4232 7.38342 16.4894 6.75722 16.6645 5.84167L16.3502 5.78156L16.0359 5.72145C15.8582 6.65068 15.7748 7.36026 15.8653 8.05508C15.9564 8.7542 16.2196 9.41092 16.6866 10.2462L16.9659 10.09ZM16.3502 5.78156L16.6645 5.84205C16.7158 5.57548 16.7514 5.36528 16.7543 5.20242C16.7574 5.02586 16.7233 4.85326 16.589 4.70877C16.4838 4.59553 16.3313 4.52416 16.2267 4.47137C16.1035 4.40914 15.9552 4.33387 15.7681 4.20824L15.5897 4.47394L15.4114 4.73964C15.6327 4.88815 15.8098 4.97783 15.9384 5.0427C16.0047 5.07618 16.0474 5.09785 16.0812 5.11787C16.1138 5.13719 16.1212 5.14551 16.1202 5.14446C16.1001 5.12276 16.1159 5.10646 16.1144 5.19111C16.1127 5.28943 16.0891 5.44532 16.036 5.72107L16.3502 5.78156ZM15.5897 4.47394L15.7682 4.20835C15.1326 3.7812 14.7138 3.02525 14.6766 2.32071C14.6583 1.97328 14.733 1.65001 14.9065 1.38393C15.0784 1.12037 15.3614 0.890966 15.7997 0.751278L15.7025 0.446386L15.6054 0.141493C15.0428 0.320773 14.6317 0.633696 14.3705 1.03435C14.1108 1.43249 14.0133 1.89533 14.0375 2.35444C14.0855 3.26299 14.6112 4.20185 15.4112 4.73954L15.5897 4.47394ZM15.7025 0.446386L15.7224 0.127005C14.374 0.0429876 12.6891 0.161028 11.3837 0.701373L11.5061 0.997042L11.6285 1.29271C12.8073 0.804741 14.3823 0.684745 15.6826 0.765766L15.7025 0.446386ZM11.5061 0.997042L11.3836 0.701401C10.7258 0.973874 10.2215 1.47207 9.76775 1.91697C9.29744 2.37811 8.87747 2.78626 8.35082 3.01084L8.47634 3.30519L8.60186 3.59955C9.25861 3.31949 9.76258 2.81835 10.2158 2.37396C10.6856 1.91333 11.1045 1.50977 11.6286 1.29268L11.5061 0.997042ZM8.47634 3.30519L8.35105 3.01074C7.75154 3.26583 7.22958 3.11371 6.56776 3.0528C6.25392 3.02391 5.90925 3.02152 5.56781 3.15612C5.21934 3.2935 4.91234 3.55773 4.63995 3.99102L4.91086 4.16134L5.18177 4.33165C5.39897 3.98617 5.60833 3.82809 5.80253 3.75153C6.00377 3.67219 6.22809 3.66424 6.5091 3.6901C7.03699 3.73869 7.80817 3.93726 8.60163 3.59965L8.47634 3.30519ZM4.91086 4.16134L4.63998 3.99097C4.02643 4.96651 4.29443 6.05094 4.74762 6.98223C4.97721 7.45405 5.26507 7.90948 5.54197 8.32315C5.82502 8.74603 6.08477 9.10867 6.28703 9.4321L6.55835 9.26243L6.82966 9.09277C6.62157 8.76001 6.33972 8.36441 6.07382 7.96716C5.80175 7.5607 5.53328 7.13411 5.3231 6.70219C4.89672 5.826 4.75132 5.01606 5.18174 4.3317L4.91086 4.16134ZM6.55835 9.26243L6.28694 9.43196C7.06118 10.6715 7.46543 11.5918 7.72134 12.5439C7.98 13.5062 8.09006 14.5088 8.26462 15.9385L8.58226 15.8997L8.8999 15.8609C8.72775 14.4508 8.61264 13.3943 8.3394 12.3778C8.06342 11.351 7.62908 10.3726 6.82975 9.09291L6.55835 9.26243ZM8.58226 15.8997L8.26462 15.9384C8.59381 18.6364 9.41522 21.3295 10.2942 23.984C11.1765 26.6484 12.114 29.2669 12.7005 31.8568L13.0126 31.7862L13.3247 31.7155C12.7293 29.0862 11.7767 26.425 10.9018 23.7828C10.0235 21.1307 9.22072 18.4902 8.89991 15.8609L8.58226 15.8997ZM13.0126 31.7862L12.7005 31.8569C14.1806 38.3912 15.2446 44.9975 17.4534 51.461L17.7562 51.3575L18.059 51.254C15.8648 44.8334 14.8165 38.3017 13.3247 31.7155L13.0126 31.7862ZM17.7562 51.3575L17.4533 51.4609C17.9652 52.961 18.3618 54.5024 18.7585 56.0581C19.1541 57.6099 19.5498 59.1765 20.0578 60.7068L20.3615 60.606L20.6652 60.5052C20.1657 59.0005 19.7755 57.4568 19.3786 55.9C18.9827 54.3472 18.5804 52.7819 18.059 51.2541L17.7562 51.3575ZM20.3615 60.606L20.0578 60.7069C20.5843 62.2919 21.2413 63.8246 21.8915 65.3495C22.5434 66.8785 23.1888 68.4007 23.7042 69.9845L24.0085 69.8854L24.3128 69.7864C23.7873 68.1717 23.1308 66.6244 22.4802 65.0985C21.8279 63.5684 21.1818 62.0606 20.6652 60.5051L20.3615 60.606ZM24.0085 69.8854L23.7042 69.9844C24.7903 73.3234 25.8341 76.7575 26.7899 80.0166L27.0969 79.9266L27.404 79.8365C26.4471 76.5735 25.4014 73.1331 24.3128 69.7864L24.0085 69.8854ZM27.0969 79.9266L26.79 80.0171C26.8401 80.1868 26.8831 80.432 26.9408 80.7402C26.9965 81.0374 27.0636 81.3781 27.1603 81.7016C27.2562 82.0223 27.3879 82.35 27.5848 82.6108C27.7868 82.8784 28.0686 83.0883 28.4499 83.1289L28.4838 82.8108L28.5177 82.4926C28.3557 82.4753 28.2204 82.3906 28.0956 82.2252C27.9656 82.053 27.8605 81.8092 27.7735 81.5183C27.6873 81.2302 27.6254 80.919 27.5699 80.6224C27.5164 80.3367 27.4658 80.046 27.4039 79.836L27.0969 79.9266ZM28.4838 82.8108L28.4499 83.129C28.8542 83.172 29.1741 83.0396 29.4253 82.8173C29.6621 82.6078 29.8343 82.3214 29.9765 82.0589C30.129 81.7774 30.2442 81.5304 30.389 81.3055C30.5301 81.0864 30.6646 80.9481 30.8114 80.8809L30.6784 80.5899L30.5454 80.2989C30.2331 80.4416 30.0164 80.7021 29.851 80.959C29.6892 81.2102 29.5423 81.5167 29.4137 81.7541C29.2748 82.0106 29.147 82.209 29.0011 82.338C28.8698 82.4543 28.7245 82.5146 28.5177 82.4926L28.4838 82.8108ZM30.6784 80.5899L30.811 80.8811C30.9159 80.8333 31.0874 80.8046 31.338 80.807C31.5827 80.8094 31.8711 80.8407 32.1905 80.8877C32.8054 80.9783 33.5738 81.1361 34.2168 81.2066C34.5465 81.2428 34.87 81.26 35.1593 81.2349C35.4445 81.2101 35.7298 81.1415 35.9554 80.9781C36.1964 80.8034 36.3362 80.5441 36.3595 80.217C36.3815 79.9063 36.2989 79.541 36.1267 79.1186L35.8304 79.2394L35.5341 79.3602C35.6892 79.7408 35.7332 80.0007 35.7211 80.1717C35.7101 80.3264 35.6549 80.4054 35.5798 80.4599C35.4892 80.5256 35.3373 80.577 35.1039 80.5973C34.8747 80.6172 34.5983 80.6046 34.2866 80.5704C33.6467 80.5002 32.9661 80.355 32.2838 80.2545C31.9547 80.2061 31.6325 80.1699 31.3443 80.1671C31.062 80.1643 30.7784 80.1927 30.5458 80.2987L30.6784 80.5899ZM35.8304 79.2394L36.1267 79.1185C36.0751 78.9922 35.9821 78.8766 35.8897 78.7788C35.7927 78.6761 35.6733 78.5692 35.5435 78.4615C35.2846 78.2468 34.958 78.0076 34.6349 77.7683C34.3074 77.5257 33.9801 77.2806 33.7028 77.0442C33.42 76.803 33.2161 76.5928 33.1139 76.4242L32.8402 76.5901L32.5666 76.756C32.7253 77.0178 32.9969 77.2833 33.2876 77.5312C33.5838 77.7838 33.9281 78.0412 34.254 78.2826C34.5844 78.5273 34.893 78.7536 35.1349 78.9542C35.2554 79.0541 35.3527 79.1423 35.4244 79.2182C35.5005 79.2988 35.5279 79.3452 35.5341 79.3603L35.8304 79.2394ZM32.8402 76.5901L33.1137 76.424C32.4965 75.4077 31.8978 74.1124 31.4105 72.9789L31.1166 73.1052L30.8226 73.2316C31.3122 74.3706 31.9252 75.7 32.5667 76.7562L32.8402 76.5901ZM31.1166 73.1052L31.4104 72.9785C29.7768 69.1915 28.4902 64.9836 27.764 60.9265L27.449 60.9829L27.134 61.0393C27.8693 65.1468 29.1705 69.4018 30.8227 73.232L31.1166 73.1052ZM27.449 60.9829L27.7639 60.9264C27.5044 59.4787 27.0915 58.2085 26.6561 56.9668C26.2191 55.7203 25.7633 54.5123 25.4004 53.1576L25.0913 53.2404L24.7822 53.3231C25.1532 54.7082 25.6213 55.9496 26.0522 57.1785C26.4847 58.4122 26.8837 59.6434 27.134 61.0393L27.449 60.9829ZM25.0913 53.2404L25.4004 53.1574C23.1883 44.913 22.4433 36.3565 21.6547 27.8291L21.3361 27.8586L21.0175 27.8881C21.8048 36.4025 22.5533 45.0163 24.7822 53.3233L25.0913 53.2404ZM21.3361 27.8586L21.6548 27.8301C21.5787 26.9772 21.5382 26.1035 21.4716 25.1985L21.1525 25.222L20.8333 25.2454C20.8978 26.1225 20.9411 27.0325 21.0174 27.887L21.3361 27.8586ZM12.768 13.4757L13.0793 13.4017C12.7061 11.8299 12.2075 11.0113 11.5475 10.3494C11.2277 10.0287 10.8721 9.74723 10.502 9.44446C10.1281 9.13858 9.72504 8.79988 9.2833 8.34899L9.05472 8.57293L8.82613 8.79687C9.29272 9.27313 9.71735 9.6294 10.0968 9.93981C10.48 10.2533 10.8033 10.5095 11.0942 10.8012C11.6556 11.3642 12.1053 12.0699 12.4567 13.5496L12.768 13.4757ZM9.05472 8.57293L9.28321 8.34889C8.41406 7.46249 8.21499 6.65463 8.38582 5.91366C8.56365 5.14233 9.1575 4.37103 10.0339 3.61677L9.8251 3.37423L9.61636 3.13169C8.70426 3.91673 7.98593 4.79938 7.76218 5.76988C7.53143 6.77073 7.8414 7.79258 8.82623 8.79697L9.05472 8.57293ZM9.8251 3.37423L10.0339 3.6167C10.9265 2.84799 12.1597 2.36183 13.2726 1.82214L13.133 1.53421L12.9934 1.24628C11.9498 1.75237 10.5921 2.29135 9.61628 3.13175L9.8251 3.37423ZM13.133 1.53421L12.8308 1.63948C13.1217 2.47452 13.1536 3.50199 13.183 4.63825C13.2118 5.75163 13.2388 6.9584 13.5579 8.0605L13.8653 7.9715L14.1727 7.8825C13.8807 6.87402 13.8521 5.75358 13.8228 4.62169C13.7941 3.51267 13.7654 2.3768 13.4352 1.42895L13.133 1.53421ZM13.8653 7.9715L13.5579 8.0605C14.3231 10.703 14.0002 12.1698 14.004 15.0638L14.324 15.0634L14.644 15.0629C14.6403 12.2663 14.9712 10.6402 14.1727 7.8825L13.8653 7.9715ZM14.324 15.0634L14.004 15.0638C14.0109 20.8671 15.3323 26.7348 16.5448 32.4132L16.8577 32.3464L17.1707 32.2795C15.9539 26.5814 14.6508 20.7853 14.644 15.063L14.324 15.0634ZM16.8577 32.3464L17.1691 32.2724C16.7141 30.3566 16.1433 28.4934 15.6055 26.6394C15.0664 24.7809 14.5587 22.926 14.2201 21.004L13.9049 21.0595L13.5898 21.115C13.9347 23.073 14.4507 24.9556 14.9909 26.8177C15.5323 28.6842 16.0961 30.5244 16.5464 32.4203L16.8577 32.3464ZM13.9049 21.0595L14.22 21.0037C13.9964 19.7409 13.861 18.4785 13.7061 17.2054C13.5518 15.9372 13.3787 14.663 13.0794 13.4018L12.768 13.4757L12.4567 13.5496C12.7471 14.7734 12.9169 16.0173 13.0708 17.2827C13.2242 18.5433 13.3623 19.8304 13.5898 21.1153L13.9049 21.0595ZM16.7465 39.7826L16.4383 39.8687C17.512 43.7138 18.165 47.2368 19.8003 51.0187L20.094 50.8917L20.3877 50.7647C18.7754 47.0359 18.1466 43.6066 17.0547 39.6965L16.7465 39.7826ZM20.094 50.8917L19.8003 51.0186C20.3299 52.2445 20.9323 53.4193 21.5308 54.5779C22.1308 55.7395 22.7262 56.8838 23.2513 58.063L23.5436 57.9328L23.836 57.8027C23.3018 56.6031 22.6971 55.4412 22.0994 54.2842C21.5002 53.1241 20.9075 51.9677 20.3878 50.7648L20.094 50.8917ZM23.5436 57.9328L23.8436 58.0442C23.9172 57.846 24.0737 57.4427 24.2131 57.0845C24.2825 56.9062 24.3476 56.7393 24.3953 56.6168C24.4191 56.5555 24.4388 56.5047 24.4526 56.4688C24.4595 56.4509 24.4651 56.4361 24.4692 56.4251C24.4712 56.4198 24.4733 56.4143 24.475 56.4094C24.4758 56.4072 24.4772 56.4033 24.4787 56.3988C24.4794 56.3968 24.4808 56.3924 24.4824 56.387C24.4832 56.3843 24.4845 56.3795 24.486 56.3735C24.487 56.3696 24.4904 56.3556 24.4928 56.3374L24.1754 56.2967L23.8579 56.2561C23.8603 56.238 23.8637 56.2241 23.8646 56.2204C23.8661 56.2145 23.8674 56.21 23.8681 56.2075C23.8695 56.2026 23.8707 56.1988 23.8712 56.1976C23.8717 56.1959 23.8722 56.1947 23.8723 56.1942C23.8724 56.1939 23.8725 56.1936 23.8726 56.1935C23.8726 56.1934 23.8726 56.1933 23.8726 56.1933C23.8726 56.1933 23.8726 56.1934 23.8724 56.1938C23.8723 56.1941 23.8721 56.1946 23.8719 56.1952C23.8715 56.1965 23.8708 56.1981 23.8701 56.2002C23.8669 56.2087 23.8619 56.2216 23.8552 56.2391C23.8419 56.2739 23.8226 56.3237 23.7988 56.3849C23.7511 56.5074 23.6864 56.6733 23.6167 56.8523C23.4781 57.2086 23.3194 57.6174 23.2436 57.8214L23.5436 57.9328ZM24.1754 56.2967L23.8554 56.2999C23.8924 60.0717 24.8985 63.8353 25.6631 67.4093L25.976 67.3424L26.2889 67.2754C25.5143 63.6545 24.5315 59.9818 24.4953 56.2936L24.1754 56.2967ZM25.976 67.3424L26.2598 67.1945C25.7632 66.2413 25.1782 65.842 24.5897 65.5407C24.006 65.2418 23.5103 65.0704 23.017 64.5531L22.7854 64.774L22.5539 64.9948C23.1442 65.6138 23.7862 65.8483 24.298 66.1103C24.8051 66.37 25.2736 66.6867 25.6922 67.4902L25.976 67.3424ZM22.7854 64.774L23.0168 64.5529C22.6912 64.2123 22.3775 63.7015 22.0817 63.0762C21.7876 62.4545 21.5197 61.7381 21.2786 61.0006C20.796 59.5241 20.4297 57.9902 20.177 56.9978L19.8669 57.0767L19.5568 57.1557C19.8063 58.1357 20.1792 59.6971 20.6703 61.1994C20.916 61.9513 21.1935 62.6952 21.5032 63.3498C21.8111 64.0008 22.1596 64.5823 22.5541 64.9951L22.7854 64.774ZM19.8669 57.0767L20.177 56.9977C19.4394 54.104 18.976 51.0503 18.4699 48.0016C17.965 44.9605 17.418 41.9276 16.5124 39.1102L16.2077 39.2081L15.9031 39.3061C16.7928 42.0738 17.3336 45.0648 17.8385 48.1065C18.3422 51.1406 18.8108 54.2287 19.5568 57.1557L19.8669 57.0767ZM27.4581 77.6628L27.1595 77.7777C27.3292 78.219 27.5485 78.6116 27.8721 78.8619C28.2151 79.1272 28.6335 79.2019 29.1186 79.0866L29.0446 78.7753L28.9707 78.4639C28.6412 78.5422 28.4291 78.4836 28.2637 78.3557C28.0791 78.2129 27.9124 77.9524 27.7568 77.5479L27.4581 77.6628ZM29.0446 78.7753L29.3583 78.7119C29.3282 78.5628 29.2996 78.3959 29.2685 78.214C29.2376 78.0339 29.2045 77.8408 29.1661 77.647C29.0902 77.2628 28.9898 76.8541 28.832 76.5087L28.5409 76.6417L28.2499 76.7746C28.3756 77.0497 28.4646 77.3984 28.5383 77.7712C28.5748 77.9558 28.6067 78.141 28.6377 78.3221C28.6684 78.5013 28.6986 78.6783 28.731 78.8386L29.0446 78.7753ZM28.5409 76.6417L28.2766 76.8219C28.5787 77.2651 29.059 77.6741 29.6138 78.0277C30.1723 78.3836 30.8252 78.6951 31.4931 78.9359C32.1609 79.1767 32.8519 79.3498 33.4881 79.4242C34.1181 79.4978 34.7227 79.478 35.2007 79.3066L35.0927 79.0054L34.9848 78.7041C34.6395 78.8279 34.1475 78.8569 33.5623 78.7885C32.9833 78.7208 32.3404 78.5611 31.7102 78.3339C31.0802 78.1067 30.4709 77.815 29.9577 77.4879C29.4407 77.1585 29.0396 76.8049 28.8053 76.4614L28.5409 76.6417ZM35.0927 79.0054L34.7739 79.0329C34.7992 79.326 34.7607 79.5241 34.6976 79.6572C34.6371 79.7846 34.5445 79.8731 34.416 79.9349C34.1363 80.0693 33.6868 80.0761 33.1167 79.9665C31.9959 79.7509 30.6852 79.1444 30.0675 78.8606L29.9339 79.1514L29.8003 79.4421C30.4019 79.7185 31.7849 80.3621 32.9958 80.595C33.5916 80.7096 34.2175 80.7403 34.6932 80.5117C34.9423 80.392 35.1473 80.2023 35.2758 79.9315C35.4016 79.6664 35.4434 79.3463 35.4116 78.9778L35.0927 79.0054ZM29.9339 79.1514L29.6182 79.099C29.4495 80.1166 29.1274 80.9569 28.466 81.6771L28.7017 81.8935L28.9374 82.11C29.7086 81.2702 30.0678 80.2999 30.2496 79.2037L29.9339 79.1514ZM28.7017 81.8935L28.9288 81.668C28.5041 81.2405 28.2198 80.6012 28.004 79.8582C27.788 79.1138 27.6555 78.3246 27.499 77.5928L27.1861 77.6597L26.8732 77.7265C27.0215 78.4205 27.1649 79.263 27.3894 80.0366C27.6143 80.8114 27.9355 81.5762 28.4747 82.119L28.7017 81.8935ZM27.6989 70.7693L28.0091 70.6905C27.3009 67.9029 26.7899 65.0458 26.3347 62.1995L26.0187 62.25L25.7027 62.3005C26.1589 65.1528 26.6735 68.0324 27.3888 70.8481L27.6989 70.7693ZM26.0187 62.25L26.3347 62.1996C25.9532 59.8076 25.701 57.334 25.3436 54.8258C24.9887 52.3345 24.5342 49.8475 23.755 47.5119L23.4515 47.6132L23.1479 47.7145C23.9088 49.9952 24.3569 52.4375 24.71 54.916C25.0608 57.3776 25.3221 59.9142 25.7027 62.3004L26.0187 62.25ZM23.4515 47.6132L23.1315 47.6067C23.0887 49.711 23.306 51.7421 23.5923 53.7488C23.8801 55.7664 24.2332 57.7331 24.4741 59.7645L24.7918 59.7268L25.1096 59.6892C24.8681 57.6526 24.5087 55.6413 24.2258 53.6584C23.9414 51.6647 23.7296 49.6731 23.7714 47.6197L23.4515 47.6132ZM24.7918 59.7268L24.474 59.7643C24.7132 61.7913 25.2068 63.6297 25.7568 65.4254C26.3092 67.2288 26.9119 68.9707 27.3888 70.8481L27.6989 70.7693L28.0091 70.6905C27.5273 68.7935 26.9124 67.0128 26.3687 65.238C25.8228 63.4554 25.3421 61.6598 25.1096 59.6893L24.7918 59.7268ZM30.2456 72.5927L29.9446 72.7014C30.0486 72.9892 30.1613 73.4255 30.2931 73.9442C30.4229 74.4552 30.5685 75.0349 30.7352 75.5855C30.9012 76.1336 31.0933 76.6705 31.321 77.0928C31.5375 77.4944 31.8344 77.8849 32.253 77.9872L32.3289 77.6763L32.4049 77.3655C32.2748 77.3337 32.0922 77.1746 31.8843 76.789C31.6875 76.4241 31.5102 75.9363 31.3478 75.4C31.1861 74.8661 31.0442 74.3017 30.9134 73.7867C30.7846 73.2794 30.6636 72.8079 30.5465 72.4839L30.2456 72.5927ZM32.3289 77.6763L32.637 77.5897C32.4404 76.8906 32.1446 76.1784 31.8564 75.4774C31.5653 74.7692 31.2804 74.069 31.0867 73.3655L30.7782 73.4504L30.4697 73.5353C30.6753 74.2822 30.9753 75.0174 31.2645 75.7207C31.5566 76.4313 31.8364 77.1068 32.0209 77.7629L32.3289 77.6763ZM5.70413 6.721L5.41374 6.85544C5.91912 7.94705 6.62065 8.83587 7.3175 9.67696C8.02096 10.526 8.71221 11.3187 9.25247 12.2522L9.52943 12.0919L9.80639 11.9316C9.23258 10.9402 8.49773 10.0983 7.81033 9.26864C7.11632 8.43098 6.46223 7.59681 5.99451 6.58656L5.70413 6.721ZM9.52943 12.0919L9.25228 12.2519C9.68705 13.0051 10.0523 14.1116 10.3433 15.2955C10.6328 16.4732 10.843 17.7025 10.9764 18.6857L11.2935 18.6427L11.6106 18.5996C11.475 17.6007 11.2611 16.3481 10.9648 15.1427C10.67 13.9435 10.2878 12.7656 9.80658 11.9319L9.52943 12.0919ZM11.2935 18.6427L11.6003 18.5516C11.0229 16.6061 9.90759 14.4766 8.37144 13.3288L8.17991 13.5852L7.98837 13.8415C9.36617 14.871 10.4272 16.8484 10.9867 18.7337L11.2935 18.6427ZM8.17991 13.5852L8.49334 13.6496C8.73311 12.4841 8.44043 11.2858 7.92464 10.2046C7.40777 9.12117 6.65383 8.12708 5.92587 7.35246L5.69268 7.5716L5.4595 7.79074C6.15574 8.53161 6.86602 9.47195 7.34701 10.4802C7.82908 11.4907 8.0679 12.5415 7.86647 13.5207L8.17991 13.5852ZM12.8503 1.70717L12.5662 1.85444C13.38 3.42433 13.1399 4.3812 13.0209 6.23316L13.3403 6.25367L13.6596 6.27418C13.7739 4.49529 14.0489 3.3241 13.1344 1.55991L12.8503 1.70717ZM13.3403 6.25367L13.021 6.23286C12.973 6.96941 13.0733 7.57026 13.165 8.13389C13.2571 8.69953 13.3407 9.22813 13.291 9.87178L13.61 9.89641L13.9291 9.92105C13.9853 9.19282 13.8887 8.5959 13.7967 8.03106C13.7044 7.46422 13.6169 6.92964 13.6596 6.27447L13.3403 6.25367ZM13.61 9.89641L13.561 10.2126C14.5785 10.3703 15.1343 11.0098 15.5309 11.8851C15.7313 12.3275 15.8852 12.8187 16.0343 13.3259C16.1811 13.8255 16.3252 14.3473 16.5018 14.8167L16.8013 14.7039L17.1008 14.5912C16.935 14.1505 16.8 13.6615 16.6483 13.1454C16.4988 12.6369 16.3344 12.1078 16.1138 11.6209C15.6683 10.6377 14.971 9.78352 13.659 9.58019L13.61 9.89641ZM16.8013 14.7039L17.0853 14.5565C16.1444 12.7446 15.3006 10.2391 14.7783 8.17621L14.4681 8.25476L14.1579 8.33331C14.6871 10.4233 15.5456 12.9801 16.5173 14.8514L16.8013 14.7039ZM14.4681 8.25476L14.7782 8.17601C14.5316 7.20463 14.5166 6.07415 14.4364 4.89207C14.3581 3.73766 14.2166 2.54214 13.6763 1.56006L13.3959 1.71432L13.1155 1.86858C13.581 2.71461 13.7196 3.78084 13.7979 4.93538C13.8743 6.06225 13.8924 7.28793 14.1579 8.3335L14.4681 8.25476Z" fill="#967348" mask="url(#path-1-outside-1_8_22)"/>
</g>
<defs>
<filter id="filter0_d_8_22" x="0.281799" y="0.102507" width="40.0812" height="91.0345" filterUnits="userSpaceOnUse" color-interpolation-filters="sRGB">
<feFlood flood-opacity="0" result="BackgroundImageFix"/>
<feColorMatrix in="SourceAlpha" type="matrix" values="0 0 0 0 0 0 0 0 0 0 0 0 0 0 0 0 0 0 127 0" result="hardAlpha"/>
<feOffset dy="4"/>
<feGaussianBlur stdDeviation="2"/>
<feComposite in2="hardAlpha" operator="out"/>
<feColorMatrix type="matrix" values="0 0 0 0 0 0 0 0 0 0 0 0 0 0 0 0 0 0 0.25 0"/>
<feBlend mode="normal" in2="BackgroundImageFix" result="effect1_dropShadow_8_22"/>
<feBlend mode="normal" in="SourceGraphic" in2="effect1_dropShadow_8_22" result="shape"/>
</filter>
</defs>
</svg>
