<svg width="32" height="97" viewBox="0 0 32 97" fill="none" xmlns="http://www.w3.org/2000/svg">
<g id="UlnaRight" filter="url(#filter0_d_8_18)">
<mask id="path-1-outside-1_8_18" maskUnits="userSpaceOnUse" x="3.54025" y="-0.371994" width="25" height="90" fill="black">
<rect fill="white" x="3.54025" y="-0.371994" width="25" height="90"/>
<path d="M14.9419 63.2477C17.343 52.74 17.4199 42.1093 19.4225 31.5389C20.279 27.0202 20.9686 22.4515 22.1871 18.0153C22.706 16.1213 23.1716 13.9504 23.8742 12.1453C24.5859 10.3172 26.0604 9.10639 26.9222 7.36635C28.2215 4.74399 25.9309 4.306 24.2163 3.63077C22.3349 2.89048 20.7796 1.31866 18.8098 0.817995C13.0498 -0.647512 13.1625 6.71969 13.6396 10.7488C13.9268 13.1697 14.2355 14.9803 13.6396 17.4884C12.7869 21.0875 12.9042 24.4415 12.5484 28.0723C12.1628 32.0245 10.9893 36.0243 10.4223 39.9749C9.86378 43.8628 9.75558 47.7436 9.27246 51.614C8.42968 58.3806 7.53736 64.9052 7.09234 71.759C6.90107 74.7122 6.42177 77.6623 6.00266 80.5552C5.77024 82.158 3.72042 86.5744 4.90764 87.9383C7.0428 90.394 8.32756 84.5685 10.2806 84.8065C9.72967 85.0374 9.65347 85.3342 9.29456 85.6206C10.4924 85.4802 13.6761 86.2657 14.3963 85.0375C15.7427 82.7309 12.7831 78.2931 12.7373 75.8247C12.6596 71.5599 14.0046 67.3498 14.9419 63.2477Z"/>
<path d="M18.374 1.96133C18.0349 1.65902 17.6531 1.45035 17.2287 1.33609C16.139 1.67807 14.8634 2.75797 15.0904 4.23061C15.3693 6.02699 16.8888 6.07855 18.3526 6.28088C18.0562 6.40625 17.6889 6.91011 17.3247 7.13783C20.9953 10.3243 18.5073 18.3961 17.6234 22.845C16.4819 28.596 16.2053 34.4183 15.3297 40.1859C14.9144 42.9281 14.4001 48.2569 12.9858 50.4627C13.0208 47.3635 13.0932 43.8779 13.9665 40.8707C12.3038 44.3143 12.3647 49.8557 11.9083 53.8468C11.6515 56.0899 11.0556 58.6369 11.275 60.8927C11.6507 60.1746 11.9967 59.489 12.3929 58.8075C12.3152 62.4518 11.7581 65.8652 11.2689 69.3953C14.7315 65.063 14.2042 57.968 15.3084 52.7542C17.8535 40.7271 18.9318 28.5365 20.6135 16.426C20.7842 15.193 20.91 13.8401 21.4396 12.8198C22.4561 10.8607 24.704 9.92285 25.447 7.75117C25.5834 7.35207 25.9232 3.33401 24.2986 4.27188C22.2351 5.46682 19.7631 0.288747 17.0107 1.96055"/>
<path d="M5.83958 87.9319C7.57088 86.7346 7.46496 83.6671 9.04233 82.8816C10.2677 82.2714 12.2969 83.8076 13.7188 83.7258C12.2778 86.4498 8.01895 82.0017 7.20131 87.0814"/>
<path d="M17.5563 5.36605C19.283 6.58796 20.9305 4.51467 20.5876 2.85556C20.8787 2.87064 21.6316 3.00791 21.8952 3.14439C19.3753 5.24624 22.7914 6.24042 24.5234 6.32849C23.5115 6.90057 21.8389 8.01063 21.105 6.90932C21.0304 10.7282 20.106 14.4082 18.899 18.0034C19.3623 14.7034 20.926 8.49304 17.5563 6.21662"/>
<path d="M12.1064 75.1645C12.4958 78.4407 10.9679 80.3156 13.9047 82.7237C13.222 80.4783 11.957 77.8075 12.1064 75.4478"/>
<path d="M12.7274 57.5499C13.443 54.1031 14.5113 50.7039 14.5723 47.1469C14.4686 53.1739 7.82006 61.6472 11.8481 67.7124C11.6949 64.6822 12.1087 60.5301 12.7274 57.5499Z"/>
<path d="M23.5511 9.62211C20.9473 10.829 21.7131 13.9369 21.0791 16.3514C21.7459 14.1829 22.6443 11.9969 23.2783 9.90539"/>
</mask>
<path d="M14.9419 63.2477C17.343 52.74 17.4199 42.1093 19.4225 31.5389C20.279 27.0202 20.9686 22.4515 22.1871 18.0153C22.706 16.1213 23.1716 13.9504 23.8742 12.1453C24.5859 10.3172 26.0604 9.10639 26.9222 7.36635C28.2215 4.74399 25.9309 4.306 24.2163 3.63077C22.3349 2.89048 20.7796 1.31866 18.8098 0.817995C13.0498 -0.647512 13.1625 6.71969 13.6396 10.7488C13.9268 13.1697 14.2355 14.9803 13.6396 17.4884C12.7869 21.0875 12.9042 24.4415 12.5484 28.0723C12.1628 32.0245 10.9893 36.0243 10.4223 39.9749C9.86378 43.8628 9.75558 47.7436 9.27246 51.614C8.42968 58.3806 7.53736 64.9052 7.09234 71.759C6.90107 74.7122 6.42177 77.6623 6.00266 80.5552C5.77024 82.158 3.72042 86.5744 4.90764 87.9383C7.0428 90.394 8.32756 84.5685 10.2806 84.8065C9.72967 85.0374 9.65347 85.3342 9.29456 85.6206C10.4924 85.4802 13.6761 86.2657 14.3963 85.0375C15.7427 82.7309 12.7831 78.2931 12.7373 75.8247C12.6596 71.5599 14.0046 67.3498 14.9419 63.2477Z" fill="#F3D48C"/>
<path d="M18.374 1.96133C18.0349 1.65902 17.6531 1.45035 17.2287 1.33609C16.139 1.67807 14.8634 2.75797 15.0904 4.23061C15.3693 6.02699 16.8888 6.07855 18.3526 6.28088C18.0562 6.40625 17.6889 6.91011 17.3247 7.13783C20.9953 10.3243 18.5073 18.3961 17.6234 22.845C16.4819 28.596 16.2053 34.4183 15.3297 40.1859C14.9144 42.9281 14.4001 48.2569 12.9858 50.4627C13.0208 47.3635 13.0932 43.8779 13.9665 40.8707C12.3038 44.3143 12.3647 49.8557 11.9083 53.8468C11.6515 56.0899 11.0556 58.6369 11.275 60.8927C11.6507 60.1746 11.9967 59.489 12.3929 58.8075C12.3152 62.4518 11.7581 65.8652 11.2689 69.3953C14.7315 65.063 14.2042 57.968 15.3084 52.7542C17.8535 40.7271 18.9318 28.5365 20.6135 16.426C20.7842 15.193 20.91 13.8401 21.4396 12.8198C22.4561 10.8607 24.704 9.92285 25.447 7.75117C25.5834 7.35207 25.9232 3.33401 24.2986 4.27188C22.2351 5.46682 19.7631 0.288747 17.0107 1.96055" fill="#DCC06D"/>
<path d="M5.83958 87.9319C7.57088 86.7346 7.46496 83.6671 9.04233 82.8816C10.2677 82.2714 12.2969 83.8076 13.7188 83.7258C12.2778 86.4498 8.01895 82.0017 7.20131 87.0814" fill="#DCC06D"/>
<path d="M17.5563 5.36605C19.283 6.58796 20.9305 4.51467 20.5876 2.85556C20.8787 2.87064 21.6316 3.00791 21.8952 3.14439C19.3753 5.24624 22.7914 6.24042 24.5234 6.32849C23.5115 6.90057 21.8389 8.01063 21.105 6.90932C21.0304 10.7282 20.106 14.4082 18.899 18.0034C19.3623 14.7034 20.926 8.49304 17.5563 6.21662" fill="#CCB25C"/>
<path d="M12.1064 75.1645C12.4958 78.4407 10.9679 80.3156 13.9047 82.7237C13.222 80.4783 11.957 77.8075 12.1064 75.4478" fill="#CCB25C"/>
<path d="M12.7274 57.5499C13.443 54.1031 14.5113 50.7039 14.5723 47.1469C14.4686 53.1739 7.82006 61.6472 11.8481 67.7124C11.6949 64.6822 12.1087 60.5301 12.7274 57.5499Z" fill="#CCB25C"/>
<path d="M23.5511 9.62211C20.9473 10.829 21.7131 13.9369 21.0791 16.3514C21.7459 14.1829 22.6443 11.9969 23.2783 9.90539" fill="#CCB25C"/>
<path d="M14.9419 63.2477L14.6299 63.1764L14.6299 63.1764L14.9419 63.2477ZM19.4225 31.5389L19.1081 31.4793L19.1081 31.4793L19.4225 31.5389ZM22.1871 18.0153L22.4957 18.1L22.4957 18.0998L22.1871 18.0153ZM23.8742 12.1453L23.576 12.0292L23.576 12.0293L23.8742 12.1453ZM26.9222 7.36635L26.6355 7.22429L26.6355 7.22432L26.9222 7.36635ZM24.2163 3.63077L24.3336 3.33303L24.3335 3.33299L24.2163 3.63077ZM18.8098 0.817995L18.7309 1.12812L18.731 1.12813L18.8098 0.817995ZM13.6396 10.7488L13.3218 10.7865L13.3218 10.7866L13.6396 10.7488ZM13.6396 17.4884L13.3282 17.4145L13.3282 17.4146L13.6396 17.4884ZM12.5484 28.0723L12.2299 28.0411L12.2299 28.0412L12.5484 28.0723ZM10.4223 39.9749L10.7391 40.0204L10.7391 40.0203L10.4223 39.9749ZM9.27246 51.614L8.95493 51.5744L8.95492 51.5745L9.27246 51.614ZM7.09234 71.759L6.77301 71.7383L6.77301 71.7383L7.09234 71.759ZM6.00266 80.5552L6.31935 80.6012L6.31935 80.6011L6.00266 80.5552ZM4.90764 87.9383L5.14913 87.7283L5.14901 87.7282L4.90764 87.9383ZM10.2806 84.8065L10.4043 85.1017L11.5179 84.635L10.3193 84.4889L10.2806 84.8065ZM9.29456 85.6206L9.09496 85.3705L8.21997 86.0688L9.33182 85.9385L9.29456 85.6206ZM14.3963 85.0375L14.6723 85.1993L14.6726 85.1988L14.3963 85.0375ZM12.7373 75.8247L12.4174 75.8305L12.4174 75.8306L12.7373 75.8247ZM17.2287 1.33609L17.3118 1.02709L17.2218 1.00285L17.1328 1.03077L17.2287 1.33609ZM15.0904 4.23061L14.7742 4.27938L14.7742 4.27971L15.0904 4.23061ZM18.3526 6.28088L18.4773 6.57561L19.5475 6.12299L18.3964 5.9639L18.3526 6.28088ZM17.3247 7.13783L17.155 6.86649L16.7882 7.09585L17.1149 7.37948L17.3247 7.13783ZM17.6234 22.845L17.3095 22.7826L17.3095 22.7827L17.6234 22.845ZM15.3297 40.1859L15.0133 40.1379L15.0133 40.138L15.3297 40.1859ZM12.9858 50.4627L12.6658 50.4591L12.6532 51.5743L13.2551 50.6355L12.9858 50.4627ZM13.9665 40.8707L14.2738 40.9599L13.6783 40.7315L13.9665 40.8707ZM11.9083 53.8468L12.2262 53.8832L12.2262 53.8832L11.9083 53.8468ZM11.275 60.8927L10.9565 60.9236L11.0606 61.9929L11.5586 61.041L11.275 60.8927ZM12.3929 58.8075L12.7128 58.8143L12.1163 58.6466L12.3929 58.8075ZM11.2689 69.3953L10.952 69.3514L10.7922 70.5043L11.5189 69.5951L11.2689 69.3953ZM15.3084 52.7542L15.6214 52.8205L15.6214 52.8205L15.3084 52.7542ZM20.6135 16.426L20.9305 16.47L20.9305 16.4699L20.6135 16.426ZM21.4396 12.8198L21.7236 12.9672L21.7236 12.9671L21.4396 12.8198ZM25.447 7.75117L25.7498 7.85476L25.7498 7.85466L25.447 7.75117ZM24.2986 4.27188L24.1386 3.99474L24.1383 3.99495L24.2986 4.27188ZM9.04233 82.8816L8.89969 82.5952L8.89969 82.5952L9.04233 82.8816ZM13.7188 83.7258L14.0017 83.8755L14.2671 83.3738L13.7005 83.4064L13.7188 83.7258ZM20.5876 2.85556L20.6042 2.53599L20.1904 2.51456L20.2742 2.92033L20.5876 2.85556ZM21.8952 3.14439L22.1002 3.39013L22.4701 3.08161L22.0423 2.8602L21.8952 3.14439ZM24.5234 6.32849L24.6809 6.60706L25.64 6.06485L24.5397 6.0089L24.5234 6.32849ZM21.105 6.90932L21.3713 6.73188L20.8051 5.88202L20.7851 6.90306L21.105 6.90932ZM18.899 18.0034L18.5821 17.9589L19.2024 18.1052L18.899 18.0034ZM13.9047 82.7237L13.7018 82.9712L14.5179 83.6403L14.2109 82.6306L13.9047 82.7237ZM12.7274 57.5499L13.0408 57.6149L13.0408 57.6149L12.7274 57.5499ZM14.5723 47.1469L14.8922 47.1524L14.2523 47.1414L14.5723 47.1469ZM11.8481 67.7124L11.5815 67.8894L12.2265 68.8607L12.1677 67.6962L11.8481 67.7124ZM21.0791 16.3514L20.7696 16.2701L21.385 16.4454L21.0791 16.3514ZM14.9419 63.2477L15.2538 63.3189C16.459 58.0448 17.0801 52.7434 17.6498 47.451C18.22 42.1534 18.7386 36.8681 19.7369 31.5985L19.4225 31.5389L19.1081 31.4793C18.1039 36.78 17.5826 42.0952 17.0135 47.3825C16.4438 52.675 15.8258 57.9428 14.6299 63.1764L14.9419 63.2477ZM19.4225 31.5389L19.7369 31.5985C20.5964 27.0639 21.2818 22.5196 22.4957 18.1L22.1871 18.0153L21.8785 17.9305C20.6555 22.3833 19.9616 26.9764 19.1081 31.4793L19.4225 31.5389ZM22.1871 18.0153L22.4957 18.0998C23.0219 16.1796 23.4778 14.046 24.1724 12.2614L23.8742 12.1453L23.576 12.0293C22.8654 13.8549 22.3902 16.0631 21.8785 17.9307L22.1871 18.0153ZM23.8742 12.1453L24.1724 12.2614C24.5107 11.3926 25.0325 10.6637 25.5973 9.91564C26.1554 9.17646 26.7617 8.41151 27.209 7.50838L26.9222 7.36635L26.6355 7.22432C26.221 8.06124 25.6591 8.77172 25.0865 9.52999C24.5207 10.2794 23.9494 11.07 23.576 12.0292L23.8742 12.1453ZM26.9222 7.36635L27.209 7.50842C27.5501 6.81997 27.6765 6.23392 27.6056 5.72696C27.5333 5.21063 27.2629 4.82208 26.9046 4.52279C26.5534 4.22942 26.1096 4.01449 25.6656 3.83409C25.4418 3.74314 25.2118 3.6586 24.9877 3.57694C24.7619 3.49463 24.5432 3.41557 24.3336 3.33303L24.2163 3.63077L24.0991 3.92851C24.3181 4.01478 24.546 4.09711 24.7686 4.17824C24.9929 4.26002 25.2129 4.34096 25.4247 4.42701C25.8518 4.60058 26.221 4.78566 26.4943 5.01398C26.7606 5.23639 26.9264 5.49123 26.9718 5.81566C27.0185 6.14947 26.944 6.60155 26.6355 7.22429L26.9222 7.36635ZM24.2163 3.63077L24.3335 3.33299C23.4281 2.97672 22.6005 2.42034 21.7168 1.86375C20.8463 1.3155 19.9273 0.771853 18.8887 0.507856L18.8098 0.817995L18.731 1.12813C19.6622 1.36481 20.5058 1.8574 21.3757 2.4053C22.2324 2.94486 23.1232 3.54453 24.0992 3.92855L24.2163 3.63077ZM18.8098 0.817995L18.8887 0.507875C17.3842 0.125084 16.21 0.308315 15.3229 0.921611C14.4466 1.52748 13.9053 2.51583 13.5787 3.63312C12.927 5.86181 13.0826 8.76649 13.3218 10.7865L13.6396 10.7488L13.9573 10.7112C13.7195 8.70204 13.5802 5.90855 14.1929 3.81272C14.4985 2.76776 14.9792 1.93727 15.6869 1.44805C16.3837 0.966256 17.3554 0.778153 18.7309 1.12812L18.8098 0.817995ZM13.6396 10.7488L13.3218 10.7866C13.6107 13.2209 13.9085 14.9719 13.3282 17.4145L13.6396 17.4884L13.9509 17.5624C14.5624 14.9887 14.243 13.1184 13.9573 10.7111L13.6396 10.7488ZM13.6396 17.4884L13.3282 17.4146C12.896 19.2389 12.7107 20.9969 12.5884 22.7462C12.4655 24.5048 12.4074 26.23 12.2299 28.0411L12.5484 28.0723L12.8668 28.1035C13.0452 26.2838 13.1063 24.5165 13.2269 22.7908C13.3481 21.0555 13.5304 19.3371 13.9509 17.5622L13.6396 17.4884ZM12.5484 28.0723L12.2299 28.0412C12.0389 29.9986 11.6524 31.9717 11.24 33.9592C10.8287 35.9416 10.3908 37.9417 10.1056 39.9294L10.4223 39.9749L10.7391 40.0203C11.0208 38.0575 11.4531 36.0824 11.8667 34.0892C12.2792 32.1011 12.6722 30.0982 12.8669 28.1034L12.5484 28.0723ZM10.4223 39.9749L10.1056 39.9294C9.82475 41.8842 9.65741 43.8353 9.50016 45.7752C9.34268 47.7178 9.19543 49.6476 8.95493 51.5744L9.27246 51.614L9.59 51.6537C9.83261 49.71 9.98103 47.7641 10.1381 45.8269C10.2953 43.8868 10.4614 41.9535 10.7391 40.0204L10.4223 39.9749ZM9.27246 51.614L8.95492 51.5745C8.11279 58.3357 7.21881 64.8725 6.77301 71.7383L7.09234 71.759L7.41167 71.7797C7.85591 64.9379 8.74656 58.4255 9.59001 51.6536L9.27246 51.614ZM7.09234 71.759L6.77301 71.7383C6.58279 74.6754 6.10623 77.6084 5.68596 80.5093L6.00266 80.5552L6.31935 80.6011C6.7373 77.7162 7.21935 74.7491 7.41167 71.7797L7.09234 71.759ZM6.00266 80.5552L5.68597 80.5093C5.63226 80.8797 5.46963 81.43 5.2611 82.0978C5.0562 82.7541 4.81237 83.508 4.61358 84.2539C4.41519 84.9983 4.25596 85.7546 4.22553 86.4201C4.19566 87.0732 4.28592 87.7114 4.66627 88.1484L4.90764 87.9383L5.14901 87.7282C4.93575 87.4832 4.83703 87.0579 4.86486 86.4493C4.89213 85.853 5.03727 85.1493 5.23199 84.4187C5.4263 83.6897 5.66431 82.9538 5.87201 82.2886C6.07609 81.635 6.25684 81.0322 6.31935 80.6012L6.00266 80.5552ZM4.90764 87.9383L4.66615 88.1483C4.95661 88.4823 5.25726 88.7046 5.57579 88.8044C5.90256 88.9067 6.2152 88.8698 6.50138 88.7448C6.77956 88.6232 7.03109 88.4199 7.25906 88.1883C7.48844 87.9553 7.70824 87.6788 7.91925 87.395C8.35338 86.8109 8.73971 86.2149 9.15486 85.7553C9.57692 85.2881 9.92441 85.0855 10.2419 85.1242L10.2806 84.8065L10.3193 84.4889C9.66028 84.4086 9.11479 84.8449 8.67994 85.3263C8.23818 85.8153 7.80368 86.4776 7.40559 87.0132C7.20049 87.2891 7.00134 87.5378 6.80298 87.7393C6.60323 87.9422 6.41824 88.0827 6.24521 88.1583C6.08017 88.2303 5.92687 88.2437 5.76707 88.1937C5.59903 88.141 5.39246 88.0082 5.14912 87.7283L4.90764 87.9383ZM10.2806 84.8065L10.1569 84.5114C9.83314 84.6471 9.64107 84.8077 9.4843 84.9716C9.32079 85.1426 9.25275 85.2446 9.09496 85.3705L9.29456 85.6206L9.49417 85.8707C9.69528 85.7102 9.8448 85.5206 9.94685 85.4139C10.0556 85.3002 10.1771 85.1969 10.4043 85.1017L10.2806 84.8065ZM9.29456 85.6206L9.33182 85.9385C9.5956 85.9075 9.98767 85.927 10.4726 85.9621C10.9441 85.9964 11.4888 86.044 12.0168 86.0569C12.5433 86.0697 13.0795 86.0492 13.539 85.938C13.9959 85.8275 14.4291 85.6141 14.6723 85.1993L14.3963 85.0375L14.1202 84.8756C14.0033 85.0749 13.7686 85.224 13.3885 85.316C13.0111 85.4073 12.5415 85.4295 12.0324 85.4171C11.5246 85.4047 11.0038 85.359 10.519 85.3238C10.0476 85.2896 9.59247 85.2635 9.2573 85.3028L9.29456 85.6206ZM14.3963 85.0375L14.6726 85.1988C15.0583 84.5381 15.1222 83.7486 15.0295 82.9357C14.9366 82.1217 14.6823 81.2472 14.392 80.3892C14.2464 79.9589 14.09 79.5277 13.9383 79.1076C13.7862 78.6861 13.639 78.2758 13.5092 77.8812C13.2473 77.085 13.0678 76.3841 13.0573 75.8187L12.7373 75.8247L12.4174 75.8306C12.4298 76.4994 12.6374 77.279 12.9012 78.0811C13.0343 78.4857 13.1845 78.9041 13.3364 79.3249C13.4887 79.747 13.6427 80.1714 13.7858 80.5943C14.0728 81.4426 14.3087 82.2644 14.3936 83.0083C14.4786 83.7533 14.4074 84.3835 14.1199 84.8761L14.3963 85.0375ZM12.7373 75.8247L13.0573 75.8188C12.9805 71.6056 14.3079 67.4588 15.2538 63.3189L14.9419 63.2477L14.6299 63.1764C13.7012 67.2408 12.3387 71.5141 12.4174 75.8305L12.7373 75.8247ZM18.374 1.96133L18.5869 1.72247C18.212 1.38826 17.7862 1.15479 17.3118 1.02709L17.2287 1.33609L17.1455 1.64509C17.52 1.74591 17.8577 1.92978 18.161 2.20019L18.374 1.96133ZM17.2287 1.33609L17.1328 1.03077C16.5367 1.21786 15.8925 1.60431 15.423 2.15085C14.9494 2.70222 14.6434 3.43133 14.7742 4.27938L15.0904 4.23061L15.4067 4.18185C15.3104 3.55725 15.5287 3.01009 15.9085 2.56786C16.2925 2.12079 16.8309 1.7963 17.3245 1.64141L17.2287 1.33609ZM15.0904 4.23061L14.7742 4.27971C14.8509 4.77336 15.0163 5.1671 15.2602 5.47793C15.5041 5.78858 15.8125 5.9988 16.1484 6.14647C16.7988 6.43234 17.6081 6.50102 18.3088 6.59787L18.3526 6.28088L18.3964 5.9639C17.6333 5.85842 16.951 5.80015 16.406 5.56057C16.1442 5.4455 15.929 5.29337 15.7637 5.08279C15.5986 4.87241 15.4695 4.58606 15.4067 4.18152L15.0904 4.23061ZM18.3526 6.28088L18.228 5.98616C18.1103 6.03592 18.0031 6.11473 17.9129 6.19019C17.8205 6.26748 17.7273 6.35742 17.6407 6.44189C17.4558 6.62222 17.301 6.77521 17.155 6.86649L17.3247 7.13783L17.4943 7.40916C17.7125 7.27272 17.9236 7.05993 18.0875 6.90006C18.1753 6.81443 18.2523 6.74066 18.3235 6.68111C18.3969 6.61971 18.4467 6.58854 18.4773 6.57561L18.3526 6.28088ZM17.3247 7.13783L17.1149 7.37948C18.8204 8.86005 19.1364 11.5222 18.8633 14.4887C18.5917 17.4393 17.7577 20.5271 17.3095 22.7826L17.6234 22.845L17.9372 22.9074C18.373 20.714 19.225 17.5415 19.5006 14.5474C19.7748 11.5691 19.4996 8.60211 17.5344 6.89618L17.3247 7.13783ZM17.6234 22.845L17.3095 22.7827C16.7359 25.6725 16.3802 28.5773 16.0588 31.4739C15.7369 34.3744 15.4499 37.2624 15.0133 40.1379L15.3297 40.1859L15.6461 40.234C16.0851 37.3419 16.3741 34.4349 16.6949 31.5445C17.016 28.6504 17.3693 25.7685 17.9373 22.9073L17.6234 22.845ZM15.3297 40.1859L15.0133 40.138C14.803 41.5268 14.574 43.5219 14.2176 45.4678C13.8595 47.4227 13.3852 49.2468 12.7164 50.29L12.9858 50.4627L13.2551 50.6355C14.0006 49.4728 14.4906 47.5297 14.8471 45.5831C15.2053 43.6277 15.4411 41.5872 15.6461 40.2338L15.3297 40.1859ZM12.9858 50.4627L13.3057 50.4663C13.3409 47.3604 13.4146 43.9185 14.2738 40.9599L13.9665 40.8707L13.6592 40.7814C12.7718 43.8373 12.7008 47.3666 12.6658 50.4591L12.9858 50.4627ZM13.9665 40.8707L13.6783 40.7315C12.8215 42.506 12.4171 44.7992 12.1669 47.1191C12.0414 48.2826 11.9539 49.4624 11.8695 50.596C11.7849 51.732 11.7036 52.8201 11.5903 53.8104L11.9083 53.8468L12.2262 53.8832C12.3412 52.8779 12.4234 51.7767 12.5077 50.6436C12.5922 49.508 12.679 48.3389 12.8032 47.1878C13.0523 44.8783 13.4487 42.679 14.2546 41.0098L13.9665 40.8707ZM11.9083 53.8468L11.5903 53.8104C11.5269 54.3649 11.4423 54.9396 11.3537 55.5293C11.2654 56.1172 11.173 56.7205 11.0956 57.3243C10.9411 58.5306 10.8433 59.7596 10.9565 60.9236L11.275 60.8927L11.5935 60.8617C11.4873 59.7699 11.5777 58.5975 11.7305 57.4056C11.8067 56.8103 11.8978 56.2153 11.9866 55.6243C12.0751 55.0351 12.1613 54.4502 12.2262 53.8832L11.9083 53.8468ZM11.275 60.8927L11.5586 61.041C11.9371 60.3174 12.278 59.6418 12.6696 58.9683L12.3929 58.8075L12.1163 58.6466C11.7153 59.3363 11.3643 60.0318 10.9915 60.7443L11.275 60.8927ZM12.3929 58.8075L12.073 58.8006C11.9958 62.4213 11.4426 65.8109 10.952 69.3514L11.2689 69.3953L11.5859 69.4392C12.0737 65.9196 12.6346 62.4823 12.7128 58.8143L12.3929 58.8075ZM11.2689 69.3953L11.5189 69.5951C13.3056 67.3596 14.0489 64.4311 14.4896 61.4522C14.7103 59.9607 14.8571 58.44 15.0164 56.9794C15.1763 55.5139 15.349 54.1069 15.6214 52.8205L15.3084 52.7542L14.9953 52.6879C14.7157 54.0085 14.5402 55.4435 14.3802 56.91C14.2197 58.3815 14.0748 59.8829 13.8565 61.3585C13.4193 64.3136 12.6948 67.0987 11.019 69.1955L11.2689 69.3953ZM15.3084 52.7542L15.6214 52.8205C18.1696 40.7789 19.2517 28.5592 20.9305 16.47L20.6135 16.426L20.2966 16.382C18.6118 28.5137 17.5374 40.6752 14.9953 52.688L15.3084 52.7542ZM20.6135 16.426L20.9305 16.4699C21.1056 15.2048 21.2262 13.9254 21.7236 12.9672L21.4396 12.8198L21.1555 12.6723C20.5937 13.7549 20.4628 15.1811 20.2965 16.3821L20.6135 16.426ZM21.4396 12.8198L21.7236 12.9671C22.2018 12.0455 22.9696 11.3622 23.7675 10.596C24.5501 9.84455 25.3509 9.02066 25.7498 7.85476L25.447 7.75117L25.1442 7.64759C24.8001 8.65337 24.1054 9.38425 23.3242 10.1344C22.5583 10.8698 21.6938 11.6349 21.1555 12.6724L21.4396 12.8198ZM25.447 7.75117L25.7498 7.85466C25.7785 7.77065 25.8018 7.63438 25.8207 7.49022C25.841 7.33574 25.8597 7.1423 25.873 6.92687C25.8993 6.49759 25.9044 5.96807 25.8513 5.47585C25.8001 5.00082 25.6888 4.49467 25.4356 4.16776C25.3005 3.99338 25.1125 3.85435 24.8654 3.81897C24.6249 3.78454 24.3794 3.85577 24.1386 3.99474L24.2986 4.27188L24.4586 4.54901C24.624 4.45352 24.7233 4.44516 24.7747 4.45251C24.8194 4.45891 24.8703 4.48305 24.9296 4.5597C25.0653 4.73488 25.1652 5.08234 25.215 5.54447C25.263 5.98942 25.2591 6.48063 25.2342 6.88768C25.2217 7.09041 25.2042 7.26903 25.1862 7.40702C25.1771 7.47611 25.1681 7.53323 25.1599 7.57706C25.1558 7.59894 25.1521 7.61623 25.149 7.62924C25.1457 7.64306 25.144 7.64837 25.1442 7.64769L25.447 7.75117ZM24.2986 4.27188L24.1383 3.99495C23.7592 4.21444 23.3447 4.16431 22.823 3.89533C22.291 3.62103 21.7343 3.1643 21.1078 2.68352C20.4999 2.217 19.832 1.7336 19.1277 1.48296C18.4046 1.22563 17.6305 1.20969 16.8446 1.68705L17.0107 1.96055L17.1768 2.23405C17.7671 1.87551 18.3342 1.8799 18.9132 2.08592C19.5109 2.29864 20.1062 2.7216 20.7182 3.19126C21.3116 3.64665 21.9319 4.1559 22.5297 4.46417C23.1379 4.77776 23.8063 4.92678 24.459 4.5488L24.2986 4.27188ZM5.83958 87.9319L6.0216 88.1951C6.984 87.5295 7.41973 86.3571 7.79766 85.3664C7.9934 84.8533 8.17341 84.3838 8.39752 83.9929C8.61993 83.605 8.8691 83.3254 9.18498 83.1681L9.04233 82.8816L8.89969 82.5952C8.42688 82.8306 8.09778 83.229 7.84231 83.6746C7.58854 84.1172 7.39106 84.6367 7.1997 85.1383C6.80342 86.1771 6.42646 87.137 5.65757 87.6687L5.83958 87.9319ZM9.04233 82.8816L9.18498 83.1681C9.40986 83.0561 9.69222 83.0322 10.0432 83.0842C10.3948 83.1362 10.7825 83.259 11.1998 83.4071C11.6062 83.5514 12.0492 83.7231 12.4685 83.8491C12.8893 83.9755 13.3255 84.069 13.7372 84.0453L13.7188 83.7258L13.7005 83.4064C13.4012 83.4236 13.0505 83.3557 12.6526 83.2361C12.2533 83.1162 11.8457 82.9573 11.4139 82.804C10.993 82.6546 10.5548 82.5129 10.1368 82.4511C9.71826 82.3891 9.28747 82.4021 8.89969 82.5952L9.04233 82.8816ZM13.7188 83.7258L13.436 83.5762C13.2809 83.8693 13.0968 84.0512 12.8976 84.1672C12.6956 84.2848 12.4588 84.3455 12.184 84.3658C11.9071 84.3863 11.6041 84.365 11.2754 84.3273C10.9661 84.2918 10.5897 84.2354 10.2586 84.2018C9.57695 84.1327 8.82583 84.1246 8.19078 84.5268C7.5438 84.9364 7.09679 85.7171 6.88537 87.0305L7.20131 87.0814L7.51724 87.1322C7.71465 85.9058 8.10661 85.3376 8.53316 85.0675C8.97165 84.7898 9.52862 84.7711 10.194 84.8386C10.5365 84.8733 10.8433 84.9219 11.2025 84.9631C11.5425 85.0021 11.8933 85.0291 12.2311 85.0041C12.5709 84.979 12.9097 84.9007 13.2196 84.7203C13.5323 84.5383 13.7965 84.2634 14.0017 83.8755L13.7188 83.7258ZM17.5563 5.36605L17.3715 5.62726C17.8609 5.97361 18.3664 6.09947 18.8459 6.04017C19.3206 5.98147 19.7398 5.74523 20.072 5.41977C20.7279 4.77726 21.0963 3.73597 20.901 2.79079L20.5876 2.85556L20.2742 2.92033C20.4218 3.63426 20.138 4.45917 19.6241 4.96261C19.3715 5.21012 19.0765 5.36678 18.7674 5.40501C18.463 5.44264 18.1151 5.36944 17.7412 5.10483L17.5563 5.36605ZM20.5876 2.85556L20.5711 3.17513C20.6932 3.18146 20.9362 3.21597 21.1869 3.26782C21.447 3.3216 21.6603 3.38312 21.7481 3.42857L21.8952 3.14439L22.0423 2.8602C21.8665 2.76918 21.5716 2.69383 21.3165 2.64108C21.0521 2.5864 20.7731 2.54474 20.6042 2.53599L20.5876 2.85556ZM21.8952 3.14439L21.6903 2.89865C21.0362 3.44418 20.6888 3.9798 20.6793 4.51046C20.6694 5.05577 21.0156 5.46642 21.4329 5.75484C21.8535 6.04562 22.4039 6.2557 22.946 6.39879C23.4917 6.54281 24.0518 6.62492 24.5072 6.64808L24.5234 6.32849L24.5397 6.0089C24.129 5.98802 23.6126 5.91283 23.1094 5.77999C22.6026 5.64622 22.1317 5.45988 21.7968 5.22838C21.4585 4.99451 21.3149 4.75701 21.3192 4.52202C21.3237 4.27237 21.4943 3.89553 22.1002 3.39013L21.8952 3.14439ZM24.5234 6.32849L24.3659 6.04992C23.8382 6.34826 23.2069 6.74416 22.6091 6.94274C22.3134 7.04092 22.0593 7.07835 21.8545 7.04725C21.6645 7.01842 21.5031 6.92956 21.3713 6.73188L21.105 6.90932L20.8387 7.08676C21.0739 7.43973 21.3967 7.62511 21.7584 7.68C22.1052 7.73264 22.47 7.66329 22.8108 7.55011C23.4857 7.32597 24.1967 6.8808 24.6809 6.60706L24.5234 6.32849ZM21.105 6.90932L20.7851 6.90306C20.7113 10.6754 19.798 14.3202 18.5956 17.9015L18.899 18.0034L19.2024 18.1052C20.414 14.4962 21.3494 10.781 21.425 6.91557L21.105 6.90932ZM18.899 18.0034L19.2159 18.0479C19.443 16.4304 19.957 14.0068 19.985 11.7301C20.0129 9.46054 19.5636 7.18647 17.7355 5.95146L17.5563 6.21662L17.3772 6.48178C18.9187 7.52319 19.3724 9.4925 19.345 11.7222C19.3177 13.9448 18.8183 16.2763 18.5821 17.9589L18.899 18.0034ZM12.1064 75.1645L11.7886 75.2023C11.8826 75.9931 11.8614 76.7024 11.8193 77.3689C11.7778 78.0257 11.713 78.6696 11.7304 79.2788C11.7482 79.8993 11.8506 80.5097 12.1519 81.1277C12.4526 81.7442 12.9412 82.3475 13.7018 82.9712L13.9047 82.7237L14.1077 82.4763C13.3999 81.8959 12.9782 81.3618 12.7272 80.8471C12.4768 80.3338 12.3862 79.8192 12.3702 79.2605C12.3538 78.6904 12.4144 78.1007 12.458 77.4093C12.5011 76.7276 12.5249 75.974 12.4242 75.1267L12.1064 75.1645ZM13.9047 82.7237L14.2109 82.6306C14.0378 82.0614 13.8283 81.4667 13.6166 80.8651C13.404 80.2612 13.1886 79.649 12.9994 79.0344C12.6196 77.8014 12.3548 76.5887 12.4258 75.468L12.1064 75.4478L11.787 75.4276C11.7086 76.6665 12.0016 77.9691 12.3877 79.2228C12.5813 79.8515 12.8009 80.4756 13.0129 81.0776C13.2257 81.6821 13.4303 82.2633 13.5986 82.8168L13.9047 82.7237ZM12.7274 57.5499L13.0408 57.6149C13.7475 54.2102 14.8306 50.7495 14.8922 47.1524L14.5723 47.1469L14.2523 47.1414C14.192 50.6583 13.1384 53.996 12.4141 57.4848L12.7274 57.5499ZM14.5723 47.1469L14.2523 47.1414C14.2273 48.5972 13.8057 50.2185 13.2327 51.9494C12.9468 52.8128 12.626 53.6959 12.3017 54.5947C11.978 55.4919 11.6511 56.4038 11.3563 57.3171C10.1838 60.9496 9.47697 64.7205 11.5815 67.8894L11.8481 67.7124L12.1146 67.5354C10.1912 64.6391 10.7946 61.1408 11.9653 57.5136C12.2564 56.612 12.5798 55.7096 12.9037 54.812C13.227 53.916 13.5511 53.0239 13.8402 52.1506C14.4171 50.4081 14.8654 48.7101 14.8922 47.1524L14.5723 47.1469ZM11.8481 67.7124L12.1677 67.6962C12.0161 64.6986 12.4263 60.5742 13.0408 57.6149L12.7274 57.5499L12.4141 57.4848C11.791 60.486 11.3737 64.6658 11.5285 67.7285L11.8481 67.7124ZM23.5511 9.62211L23.4165 9.33178C21.9776 9.99869 21.4827 11.2017 21.2611 12.4792C21.1516 13.1109 21.1051 13.7826 21.0479 14.4226C20.99 15.0714 20.9207 15.6948 20.7696 16.2701L21.0791 16.3514L21.3886 16.4327C21.5546 15.8007 21.6273 15.1302 21.6854 14.4795C21.7443 13.82 21.788 13.1865 21.8917 12.5886C22.0967 11.4068 22.5207 10.4524 23.6857 9.91244L23.5511 9.62211ZM21.0791 16.3514L21.385 16.4454C21.7158 15.3695 22.1045 14.288 22.4922 13.2076C22.8789 12.13 23.2648 11.053 23.5845 9.99822L23.2783 9.90539L22.9721 9.81257C22.6578 10.8493 22.2775 11.9111 21.8898 12.9915C21.5031 14.069 21.1092 15.1648 20.7733 16.2574L21.0791 16.3514Z" fill="#967348" mask="url(#path-1-outside-1_8_18)"/>
</g>
<defs>
<filter id="filter0_d_8_18" x="0.220245" y="0.308113" width="31.4044" height="96.5555" filterUnits="userSpaceOnUse" color-interpolation-filters="sRGB">
<feFlood flood-opacity="0" result="BackgroundImageFix"/>
<feColorMatrix in="SourceAlpha" type="matrix" values="0 0 0 0 0 0 0 0 0 0 0 0 0 0 0 0 0 0 127 0" result="hardAlpha"/>
<feOffset dy="4"/>
<feGaussianBlur stdDeviation="2"/>
<feComposite in2="hardAlpha" operator="out"/>
<feColorMatrix type="matrix" values="0 0 0 0 0 0 0 0 0 0 0 0 0 0 0 0 0 0 0.25 0"/>
<feBlend mode="normal" in2="BackgroundImageFix" result="effect1_dropShadow_8_18"/>
<feBlend mode="normal" in="SourceGraphic" in2="effect1_dropShadow_8_18" result="shape"/>
</filter>
</defs>
</svg>
